<svg width="158" height="32" viewBox="0 0 158 32" fill="none" xmlns="http://www.w3.org/2000/svg">
<path d="M10.506 14.452C9.35 12.4347 7.93333 11.426 6.256 11.426C5.00933 11.426 3.978 11.834 3.162 12.65C2.346 13.466 1.938 14.4973 1.938 15.744C1.938 17.6027 2.83333 18.9513 4.624 19.79C4.78267 17.9993 5.56467 16.7187 6.97 15.948C7.67267 15.5627 8.42067 15.37 9.214 15.37C10.0073 15.37 10.6533 15.5513 11.152 15.914C11.7413 16.3447 12.036 16.934 12.036 17.682C12.036 18.158 11.7413 18.804 11.152 19.62C10.0187 21.184 8.38667 21.966 6.256 21.966C4.44267 21.966 2.94667 21.388 1.768 20.232C0.612 19.0533 0.034 17.5573 0.034 15.744C0.034 13.9307 0.612 12.446 1.768 11.29C2.94667 10.134 4.44267 9.556 6.256 9.556C8.68133 9.556 10.6307 10.8933 12.104 13.568L10.506 14.452ZM9.044 17.172C8.20533 17.172 7.50267 17.444 6.936 17.988C6.36933 18.532 6.07467 19.2233 6.052 20.062H6.256C7.59333 20.062 8.69267 19.5973 9.554 18.668C9.69 18.4413 9.86 18.192 10.064 17.92C10.0867 17.8067 10.098 17.716 10.098 17.648C10.098 17.3307 9.74667 17.172 9.044 17.172ZM20.0345 22C18.2212 22 16.7252 21.422 15.5465 20.266C14.3678 19.0873 13.7785 17.5913 13.7785 15.778C13.7785 13.2167 14.9798 11.3467 17.3825 10.168L18.5725 11.63C16.6232 12.8313 15.6485 14.214 15.6485 15.778C15.6485 17.0473 16.0565 18.09 16.8725 18.906C17.7112 19.722 18.7652 20.13 20.0345 20.13C21.9612 20.13 23.2872 19.2233 24.0125 17.41C22.1538 17.2967 20.8505 16.5147 20.1025 15.064C19.7172 14.316 19.5245 13.568 19.5245 12.82C19.5245 12.0493 19.7285 11.392 20.1365 10.848C20.5445 10.2813 21.1225 9.998 21.8705 9.998C22.2785 9.998 22.7432 10.168 23.2645 10.508C25.2138 11.8 26.1885 13.5567 26.1885 15.778C26.1885 17.5913 25.6105 19.0873 24.4545 20.266C23.3212 21.422 21.8478 22 20.0345 22ZM24.3525 15.778C24.3525 14.3273 23.5932 13.0807 22.0745 12.038C21.9838 11.97 21.9045 11.936 21.8365 11.936C21.4738 11.936 21.2925 12.2987 21.2925 13.024C21.2925 13.4773 21.4512 14.0327 21.7685 14.69C22.4258 15.5287 23.2872 15.948 24.3525 15.948V15.778ZM30.787 21.966C30.4243 21.966 29.8577 21.8753 29.087 21.694V19.756C29.8123 19.96 30.379 20.062 30.787 20.062C32.0563 20.062 33.0877 19.6653 33.881 18.872C34.697 18.056 35.105 17.0133 35.105 15.744C35.105 14.52 34.6857 13.5 33.847 12.684C33.031 11.8453 32.011 11.426 30.787 11.426C28.7923 11.426 27.4097 12.5253 26.639 14.724C26.6163 14.8373 26.5143 15.1093 26.333 15.54L24.667 14.554L24.803 14.078C25.6643 11.0633 27.659 9.556 30.787 9.556C32.5777 9.556 34.0623 10.1453 35.241 11.324C36.4197 12.48 37.009 13.9533 37.009 15.744C37.009 17.58 36.431 19.076 35.275 20.232C34.119 21.388 32.623 21.966 30.787 21.966ZM51.0284 16.39H50.9264C50.8131 18.6567 49.4644 20.5153 46.8804 21.966L46.0304 20.368C48.0251 19.212 49.0224 17.784 49.0224 16.084C49.0224 14.8373 48.6144 13.806 47.7984 12.99C46.9824 12.174 45.9511 11.766 44.7044 11.766C43.4578 11.766 42.4151 12.174 41.5764 12.99C40.7378 13.806 40.3184 14.8373 40.3184 16.084C40.3184 17.8067 41.3724 19.2347 43.4804 20.368L42.5624 22L41.7464 21.558C39.5478 20.3567 38.4484 18.532 38.4484 16.084C38.4484 14.2253 39.0264 12.7293 40.1824 11.596C41.3384 10.4627 42.8458 9.896 44.7044 9.896C46.9711 9.896 48.7504 10.8593 50.0424 12.786C51.3118 10.8593 53.0798 9.896 55.3464 9.896C57.1824 9.896 58.6784 10.474 59.8344 11.63C61.0131 12.7633 61.6024 14.248 61.6024 16.084C61.6024 17.8973 61.0131 19.3933 59.8344 20.572C58.6558 21.728 57.1598 22.306 55.3464 22.306C54.8024 22.306 54.2584 22.238 53.7144 22.102C53.7598 21.694 53.8731 21.0707 54.0544 20.232C54.6891 20.3453 55.1198 20.402 55.3464 20.402C56.6158 20.402 57.6584 20.0053 58.4744 19.212C59.3131 18.396 59.7324 17.3533 59.7324 16.084C59.7324 14.86 59.3018 13.84 58.4404 13.024C57.6018 12.1853 56.5704 11.766 55.3464 11.766C54.0771 11.766 53.0344 12.174 52.2184 12.99C51.4251 13.7833 51.0284 14.8147 51.0284 16.084V16.39ZM58.2255 4.864C58.1802 4.88667 58.1349 4.898 58.0895 4.898C58.0442 4.898 58.0215 4.87533 58.0215 4.83C57.9535 4.10467 57.6815 3.51533 57.2055 3.062C56.7069 2.60867 56.0949 2.382 55.3695 2.382C54.5535 2.382 53.8962 2.64267 53.3975 3.164C52.8762 3.66267 52.6155 4.32 52.6155 5.136C52.6155 5.90667 52.8762 6.55267 53.3975 7.074C53.8962 7.57267 54.5309 7.822 55.3015 7.822C55.4602 7.822 55.7095 7.79933 56.0495 7.754V9.726C55.7775 9.74867 55.5509 9.76 55.3695 9.76C54.0775 9.76 52.9895 9.318 52.1055 8.434C51.2215 7.52733 50.7795 6.428 50.7795 5.136C50.7795 3.844 51.2329 2.756 52.1395 1.872C53.0235 0.987999 54.1115 0.545999 55.4035 0.545999C56.5822 0.545999 57.5682 0.897332 58.3615 1.6C59.1549 2.28 59.6649 3.20933 59.8915 4.388C59.3702 4.592 58.8149 4.75067 58.2255 4.864ZM79.8495 22.034C77.5829 22.034 75.8149 21.0707 74.5455 19.144C73.2762 21.048 71.5082 22 69.2415 22C67.2015 22 65.3542 20.9573 63.6995 18.872L65.2295 17.716C66.5215 19.3253 67.8589 20.13 69.2415 20.13C70.4882 20.13 71.5195 19.7673 72.3355 19.042C73.1742 18.294 73.5935 17.308 73.5935 16.084V15.404C73.5935 14.2253 73.1629 13.2733 72.3015 12.548C71.4629 11.8227 70.4429 11.46 69.2415 11.46C67.6095 11.46 66.2042 12.4347 65.0255 14.384L63.3935 13.432L63.8695 12.616C65.0482 10.5987 66.8389 9.59 69.2415 9.59C71.0775 9.59 72.5849 10.168 73.7635 11.324C74.9422 12.4573 75.5315 13.942 75.5315 15.778V16.118C75.5315 17.3193 75.9395 18.294 76.7555 19.042C77.5942 19.79 78.6255 20.164 79.8495 20.164C81.1189 20.164 82.1729 19.756 83.0115 18.94C83.8502 18.1013 84.2695 17.0473 84.2695 15.778C84.2695 14.5313 83.8389 13.5 82.9775 12.684C82.1389 11.868 81.0962 11.46 79.8495 11.46C79.3509 11.46 78.5462 11.664 77.4355 12.072L76.8235 10.27L77.6735 9.964C78.3082 9.73733 79.0335 9.624 79.8495 9.624C81.7309 9.624 83.2495 10.1793 84.4055 11.29C85.5615 12.4007 86.1395 13.8967 86.1395 15.778C86.1395 17.614 85.5502 19.1213 84.3715 20.3C83.1929 21.456 81.6855 22.034 79.8495 22.034ZM89.3926 17.75L89.4266 17.784L89.5286 17.648V17.92C90.73 19.416 92.0446 20.164 93.4726 20.164C94.7193 20.164 95.7506 19.8013 96.5666 19.076C97.3826 18.328 97.7906 17.342 97.7906 16.118V15.438C97.7906 14.2367 97.3713 13.2733 96.5326 12.548C95.7166 11.8227 94.6966 11.46 93.4726 11.46C91.8406 11.46 90.424 12.446 89.2226 14.418L87.5906 13.466L88.0666 12.616C89.2 10.5987 91.002 9.59 93.4726 9.59C95.3086 9.59 96.8046 10.1793 97.9606 11.358C99.1393 12.514 99.7286 14.01 99.7286 15.846V16.186C99.7286 17.41 100.159 18.396 101.021 19.144C101.814 19.8467 102.834 20.198 104.081 20.198C105.35 20.198 106.393 19.79 107.209 18.974C108.047 18.158 108.467 17.1153 108.467 15.846C108.467 14.5993 108.047 13.5567 107.209 12.718C106.37 11.8793 105.327 11.46 104.081 11.46C103.559 11.46 102.743 11.664 101.633 12.072L101.021 10.304L101.905 9.964C102.494 9.73733 103.219 9.624 104.081 9.624C105.894 9.624 107.39 10.2133 108.569 11.392C109.747 12.548 110.337 14.0327 110.337 15.846C110.337 17.6367 109.736 19.1327 108.535 20.334C107.356 21.5127 105.871 22.102 104.081 22.102C101.791 22.102 100.012 21.1273 98.7426 19.178C97.496 21.1047 95.7393 22.068 93.4726 22.068C92.0446 22.068 90.73 21.6147 89.5286 20.708V27.984C89.5286 28.8453 89.9253 29.276 90.7186 29.276H107.209C107.979 29.276 108.365 28.9927 108.365 28.426V26.76H110.337V28.392C110.337 30.2507 109.283 31.18 107.175 31.18H90.7186C88.6106 31.18 87.5566 30.1373 87.5566 28.052V19.144L88.8826 18.192L89.3926 17.75ZM106.968 4.864C106.922 4.88667 106.877 4.898 106.832 4.898C106.786 4.898 106.764 4.87533 106.764 4.83C106.696 4.10467 106.424 3.51533 105.948 3.062C105.449 2.60867 104.837 2.382 104.112 2.382C103.296 2.382 102.638 2.64267 102.14 3.164C101.618 3.66267 101.358 4.32 101.358 5.136C101.358 5.90667 101.618 6.55267 102.14 7.074C102.638 7.57267 103.273 7.822 104.044 7.822C104.202 7.822 104.452 7.79933 104.792 7.754V9.726C104.52 9.74867 104.293 9.76 104.112 9.76C102.82 9.76 101.732 9.318 100.848 8.434C99.9637 7.52733 99.5217 6.428 99.5217 5.136C99.5217 3.844 99.9751 2.756 100.882 1.872C101.766 0.987999 102.854 0.545999 104.146 0.545999C105.324 0.545999 106.31 0.897332 107.104 1.6C107.897 2.28 108.407 3.20933 108.634 4.388C108.112 4.592 107.557 4.75067 106.968 4.864ZM117.984 22C116.148 22 114.64 21.422 113.462 20.266C112.306 19.11 111.728 17.614 111.728 15.778C111.728 13.2167 112.929 11.3467 115.332 10.168L116.522 11.596C114.572 12.7973 113.598 14.1913 113.598 15.778C113.598 17.0473 114.006 18.09 114.822 18.906C115.66 19.722 116.714 20.13 117.984 20.13C119.208 20.13 120.228 19.7107 121.044 18.872C121.882 18.0333 122.302 17.002 122.302 15.778C122.302 14.214 121.327 12.8313 119.378 11.63L120.67 10.236L121.214 10.508C123.163 11.4827 124.138 13.2393 124.138 15.778C124.138 17.5913 123.56 19.0873 122.404 20.266C121.27 21.422 119.797 22 117.984 22ZM118.162 8.366C117.505 8.366 116.95 8.13933 116.496 7.686C116.043 7.23267 115.816 6.67733 115.816 6.02C115.816 5.34 116.043 4.77333 116.496 4.32C116.927 3.86667 117.482 3.64 118.162 3.64C118.842 3.64 119.42 3.86667 119.896 4.32C120.35 4.77333 120.576 5.34 120.576 6.02C120.576 6.67733 120.338 7.23267 119.862 7.686C119.386 8.13933 118.82 8.366 118.162 8.366ZM118.162 5.272C117.686 5.272 117.448 5.52133 117.448 6.02C117.448 6.51867 117.686 6.768 118.162 6.768C118.684 6.768 118.944 6.51867 118.944 6.02C118.944 5.52133 118.684 5.272 118.162 5.272ZM118.162 28.052C117.505 28.052 116.95 27.814 116.496 27.338C116.043 26.8847 115.816 26.3293 115.816 25.672C115.816 24.992 116.043 24.4253 116.496 23.972C116.927 23.5187 117.482 23.292 118.162 23.292C118.842 23.292 119.42 23.5187 119.896 23.972C120.35 24.4253 120.576 24.992 120.576 25.672C120.576 26.3293 120.338 26.8847 119.862 27.338C119.386 27.814 118.82 28.052 118.162 28.052ZM118.162 24.924C117.686 24.924 117.448 25.1733 117.448 25.672C117.448 26.1707 117.686 26.42 118.162 26.42C118.684 26.42 118.944 26.1707 118.944 25.672C118.944 25.1733 118.684 24.924 118.162 24.924ZM131.796 22C129.96 22 128.453 21.422 127.274 20.266C126.118 19.11 125.54 17.614 125.54 15.778C125.54 13.2167 126.742 11.3467 129.144 10.168L130.334 11.596C128.385 12.7973 127.41 14.1913 127.41 15.778C127.41 17.0473 127.818 18.09 128.634 18.906C129.473 19.722 130.527 20.13 131.796 20.13C133.02 20.13 134.04 19.7107 134.856 18.872C135.695 18.0333 136.114 17.002 136.114 15.778C136.114 14.214 135.14 12.8313 133.19 11.63L134.482 10.236L135.026 10.508C136.976 11.4827 137.95 13.2393 137.95 15.778C137.95 17.5913 137.372 19.0873 136.216 20.266C135.083 21.422 133.61 22 131.796 22ZM131.737 9.76C130.445 9.76 129.357 9.318 128.473 8.434C127.589 7.52733 127.147 6.428 127.147 5.136C127.147 3.844 127.6 2.756 128.507 1.872C129.391 0.987999 130.479 0.545999 131.771 0.545999C133.063 0.545999 134.139 0.987999 135.001 1.872C135.862 2.756 136.293 3.844 136.293 5.136C136.293 6.38267 135.851 7.47067 134.967 8.4C134.06 9.30667 132.983 9.76 131.737 9.76ZM131.737 2.382C130.921 2.382 130.263 2.64267 129.765 3.164C129.243 3.66267 128.983 4.32 128.983 5.136C128.983 5.90667 129.243 6.55267 129.765 7.074C130.263 7.57267 130.898 7.822 131.669 7.822C132.462 7.822 133.119 7.57267 133.641 7.074C134.139 6.57533 134.389 5.92933 134.389 5.136C134.389 4.34267 134.151 3.68533 133.675 3.164C133.176 2.64267 132.53 2.382 131.737 2.382ZM131.737 31.18C131.147 31.18 130.853 30.8173 130.853 30.092V21.898H132.655V29.31H134.525V31.18H131.737ZM141.733 14.996C141.03 14.996 140.452 14.7693 139.999 14.316C139.568 13.8627 139.353 13.2847 139.353 12.582C139.353 11.902 139.579 11.3353 140.033 10.882C140.486 10.406 141.053 10.168 141.733 10.168C142.413 10.168 142.979 10.406 143.433 10.882C143.886 11.3353 144.113 11.902 144.113 12.582C144.113 13.2847 143.886 13.8627 143.433 14.316C143.002 14.7693 142.435 14.996 141.733 14.996ZM141.733 21.558C141.03 21.558 140.452 21.3313 139.999 20.878C139.568 20.4247 139.353 19.8467 139.353 19.144C139.353 18.464 139.579 17.8973 140.033 17.444C140.486 16.968 141.053 16.73 141.733 16.73C142.435 16.73 143.002 16.9567 143.433 17.41C143.886 17.8633 144.113 18.4413 144.113 19.144C144.113 19.8467 143.886 20.4247 143.433 20.878C143.002 21.3313 142.435 21.558 141.733 21.558ZM141.733 11.8C141.257 11.8 141.019 12.0607 141.019 12.582C141.019 13.058 141.257 13.296 141.733 13.296C142.254 13.296 142.515 13.058 142.515 12.582C142.515 12.0607 142.254 11.8 141.733 11.8ZM141.733 18.396C141.257 18.396 141.019 18.6453 141.019 19.144C141.019 19.6653 141.257 19.926 141.733 19.926C142.254 19.926 142.515 19.6653 142.515 19.144C142.515 18.6453 142.254 18.396 141.733 18.396ZM151.718 22C149.882 22 148.375 21.422 147.196 20.266C146.04 19.11 145.462 17.614 145.462 15.778C145.462 13.2167 146.663 11.3467 149.066 10.168L150.256 11.596C148.307 12.7973 147.332 14.1913 147.332 15.778C147.332 16.73 147.604 17.5913 148.148 18.362C149.145 17.274 150.335 16.7073 151.718 16.662C153.078 16.6167 154.313 17.0813 155.424 18.056C155.832 17.3533 156.036 16.594 156.036 15.778C156.036 14.214 155.061 12.8313 153.112 11.63L154.404 10.236L154.948 10.508C156.897 11.4827 157.872 13.2393 157.872 15.778C157.872 17.5913 157.294 19.0873 156.138 20.266C155.005 21.422 153.531 22 151.718 22ZM151.752 18.226C150.755 18.362 149.95 18.77 149.338 19.45C150.086 19.9033 150.879 20.13 151.718 20.13C152.647 20.13 153.52 19.8127 154.336 19.178C153.633 18.6113 152.772 18.294 151.752 18.226ZM153.223 31.18C152.656 31.18 152.373 30.8173 152.373 30.092V21.558H154.209V29.31H156.147V31.18H153.223ZM150.299 31.18H147.409V29.31H149.347V21.558H151.183V30.092C151.183 30.8173 150.888 31.18 150.299 31.18Z" fill="#E3803D"/>
</svg>
