<svg width="264" height="84" viewBox="0 0 264 84" fill="none" xmlns="http://www.w3.org/2000/svg">
<path d="M56.4031 22.002V21.9H56.2331L56.2671 20.064H57.3891C59.0211 20.064 59.9165 19.4747 60.0751 18.296C59.8938 17.072 58.5451 16.46 56.0291 16.46C54.2611 16.46 53.1051 16.9813 52.5611 18.024C52.3798 18.3867 52.4931 18.568 52.9011 18.568H53.2751L53.1391 20.302H52.9011C51.3371 20.302 50.5551 19.5767 50.5551 18.126C50.5551 16.8567 51.1898 15.916 52.4591 15.304C53.4338 14.828 54.6238 14.59 56.0291 14.59C58.4998 14.59 60.2678 15.2587 61.3331 16.596C62.5798 15.2813 64.1098 14.624 65.9231 14.624C67.3965 14.624 68.7225 15.1113 69.9011 16.086C71.3745 17.2873 72.1111 18.874 72.1111 20.846C72.1111 22.3193 71.6238 23.6453 70.6491 24.824C69.4025 26.32 67.8271 27.068 65.9231 27.068C65.2431 27.068 64.5631 26.966 63.8831 26.762C63.5885 26.6713 63.4411 26.422 63.4411 26.014C63.4411 25.2207 63.4638 24.756 63.5091 24.62C63.7358 23.9173 63.9965 23.4413 64.2911 23.192C65.3338 22.2853 66.3311 21.832 67.2831 21.832C68.3031 21.832 69.1418 22.104 69.7991 22.648C70.0938 22.104 70.2411 21.5033 70.2411 20.846C70.2411 19.5993 69.8331 18.5567 69.0171 17.718C68.2011 16.8793 67.1698 16.46 65.9231 16.46C64.1098 16.46 62.7838 17.2873 61.9451 18.942C61.7865 19.69 61.3671 20.3473 60.6871 20.914C61.7071 21.5713 62.1605 22.478 62.0471 23.634C61.8205 25.878 59.8145 27 56.0291 27C54.8278 27 53.7171 26.796 52.6971 26.388C51.3598 25.8667 50.6571 25.096 50.5891 24.076L50.5551 23.498L52.4251 23.056C52.4478 23.3733 52.4931 23.736 52.5611 24.144C52.7198 24.4387 53.2525 24.688 54.1591 24.892C54.8618 25.0507 55.4851 25.13 56.0291 25.13C58.6811 25.13 60.0525 24.5633 60.1431 23.43C60.2111 22.4327 59.2138 21.934 57.1511 21.934C56.9925 21.9113 56.7431 21.934 56.4031 22.002ZM67.4191 23.226C66.8071 23.226 66.2178 23.5887 65.6511 24.314C65.5605 24.4273 65.4471 24.7107 65.3111 25.164C65.5605 25.1867 65.7645 25.198 65.9231 25.198C66.9658 25.198 68.0425 24.6993 69.1531 23.702C68.7451 23.3847 68.1671 23.226 67.4191 23.226ZM86.0753 21.39H85.9733C85.86 23.6567 84.5113 25.5153 81.9273 26.966L81.0773 25.368C83.072 24.212 84.0693 22.784 84.0693 21.084C84.0693 19.8373 83.6613 18.806 82.8453 17.99C82.0293 17.174 80.998 16.766 79.7513 16.766C78.5046 16.766 77.462 17.174 76.6233 17.99C75.7846 18.806 75.3653 19.8373 75.3653 21.084C75.3653 22.8067 76.4193 24.2347 78.5273 25.368L77.6093 27L76.7933 26.558C74.5946 25.3567 73.4953 23.532 73.4953 21.084C73.4953 19.2253 74.0733 17.7293 75.2293 16.596C76.3853 15.4627 77.8926 14.896 79.7513 14.896C82.018 14.896 83.7973 15.8593 85.0893 17.786C86.3586 15.8593 88.1266 14.896 90.3933 14.896C92.2293 14.896 93.7253 15.474 94.8813 16.63C96.06 17.7633 96.6493 19.248 96.6493 21.084C96.6493 22.8973 96.06 24.3933 94.8813 25.572C93.7026 26.728 92.2066 27.306 90.3933 27.306C89.8493 27.306 89.3053 27.238 88.7613 27.102C88.8066 26.694 88.92 26.0707 89.1013 25.232C89.736 25.3453 90.1666 25.402 90.3933 25.402C91.6626 25.402 92.7053 25.0053 93.5213 24.212C94.36 23.396 94.7793 22.3533 94.7793 21.084C94.7793 19.86 94.3486 18.84 93.4873 18.024C92.6486 17.1853 91.6173 16.766 90.3933 16.766C89.124 16.766 88.0813 17.174 87.2653 17.99C86.472 18.7833 86.0753 19.8147 86.0753 21.084V21.39ZM93.2724 9.864C93.2271 9.88667 93.1817 9.898 93.1364 9.898C93.0911 9.898 93.0684 9.87533 93.0684 9.83C93.0004 9.10467 92.7284 8.51533 92.2524 8.062C91.7537 7.60867 91.1417 7.382 90.4164 7.382C89.6004 7.382 88.9431 7.64267 88.4444 8.164C87.9231 8.66267 87.6624 9.32 87.6624 10.136C87.6624 10.9067 87.9231 11.5527 88.4444 12.074C88.9431 12.5727 89.5777 12.822 90.3484 12.822C90.5071 12.822 90.7564 12.7993 91.0964 12.754V14.726C90.8244 14.7487 90.5977 14.76 90.4164 14.76C89.1244 14.76 88.0364 14.318 87.1524 13.434C86.2684 12.5273 85.8264 11.428 85.8264 10.136C85.8264 8.844 86.2797 7.756 87.1864 6.872C88.0704 5.988 89.1584 5.546 90.4504 5.546C91.6291 5.546 92.6151 5.89733 93.4084 6.6C94.2017 7.28 94.7117 8.20933 94.9384 9.388C94.4171 9.592 93.8617 9.75067 93.2724 9.864ZM104.288 27C102.452 27 100.945 26.422 99.7664 25.266C98.6104 24.11 98.0324 22.614 98.0324 20.778C98.0324 18.2167 99.2337 16.3467 101.636 15.168L102.826 16.596C100.877 17.7973 99.9024 19.1913 99.9024 20.778C99.9024 22.0473 100.31 23.09 101.126 23.906C101.965 24.722 103.019 25.13 104.288 25.13C105.512 25.13 106.532 24.7107 107.348 23.872C108.187 23.0333 108.606 22.002 108.606 20.778C108.606 19.214 107.632 17.8313 105.682 16.63L106.974 15.236L107.518 15.508C109.468 16.4827 110.442 18.2393 110.442 20.778C110.442 22.5913 109.864 24.0873 108.708 25.266C107.575 26.422 106.102 27 104.288 27ZM107.085 9.864C107.04 9.88667 106.994 9.898 106.949 9.898C106.904 9.898 106.881 9.87533 106.881 9.83C106.813 9.10467 106.541 8.51533 106.065 8.062C105.566 7.60867 104.954 7.382 104.229 7.382C103.413 7.382 102.756 7.64267 102.257 8.164C101.736 8.66267 101.475 9.32 101.475 10.136C101.475 10.9067 101.736 11.5527 102.257 12.074C102.756 12.5727 103.39 12.822 104.161 12.822C104.32 12.822 104.569 12.7993 104.909 12.754V14.726C104.637 14.7487 104.41 14.76 104.229 14.76C102.937 14.76 101.849 14.318 100.965 13.434C100.081 12.5273 99.6389 11.428 99.6389 10.136C99.6389 8.844 100.092 7.756 100.999 6.872C101.883 5.988 102.971 5.546 104.263 5.546C105.442 5.546 106.428 5.89733 107.221 6.6C108.014 7.28 108.524 8.20933 108.751 9.388C108.23 9.592 107.674 9.75067 107.085 9.864ZM117.829 22.002V21.9H117.659L117.693 20.064H118.815C120.447 20.064 121.342 19.4747 121.501 18.296C121.32 17.072 119.971 16.46 117.455 16.46C115.687 16.46 114.531 16.9813 113.987 18.024C113.806 18.3867 113.919 18.568 114.327 18.568H114.701L114.565 20.302H114.327C112.763 20.302 111.981 19.5767 111.981 18.126C111.981 16.8567 112.616 15.916 113.885 15.304C114.86 14.828 116.05 14.59 117.455 14.59C119.926 14.59 121.694 15.2587 122.759 16.596C124.006 15.2813 125.536 14.624 127.349 14.624C128.822 14.624 130.148 15.1113 131.327 16.086C132.8 17.2873 133.537 18.874 133.537 20.846C133.537 22.3193 133.05 23.6453 132.075 24.824C130.828 26.32 129.253 27.068 127.349 27.068C126.669 27.068 125.989 26.966 125.309 26.762C125.014 26.6713 124.867 26.422 124.867 26.014C124.867 25.2207 124.89 24.756 124.935 24.62C125.162 23.9173 125.422 23.4413 125.717 23.192C126.76 22.2853 127.757 21.832 128.709 21.832C129.729 21.832 130.568 22.104 131.225 22.648C131.52 22.104 131.667 21.5033 131.667 20.846C131.667 19.5993 131.259 18.5567 130.443 17.718C129.627 16.8793 128.596 16.46 127.349 16.46C125.536 16.46 124.21 17.2873 123.371 18.942C123.212 19.69 122.793 20.3473 122.113 20.914C123.133 21.5713 123.586 22.478 123.473 23.634C123.246 25.878 121.24 27 117.455 27C116.254 27 115.143 26.796 114.123 26.388C112.786 25.8667 112.083 25.096 112.015 24.076L111.981 23.498L113.851 23.056C113.874 23.3733 113.919 23.736 113.987 24.144C114.146 24.4387 114.678 24.688 115.585 24.892C116.288 25.0507 116.911 25.13 117.455 25.13C120.107 25.13 121.478 24.5633 121.569 23.43C121.637 22.4327 120.64 21.934 118.577 21.934C118.418 21.9113 118.169 21.934 117.829 22.002ZM128.845 23.226C128.233 23.226 127.644 23.5887 127.077 24.314C126.986 24.4273 126.873 24.7107 126.737 25.164C126.986 25.1867 127.19 25.198 127.349 25.198C128.392 25.198 129.468 24.6993 130.579 23.702C130.171 23.3847 129.593 23.226 128.845 23.226ZM143.761 27L142.571 25.572C144.52 24.3933 145.495 22.9993 145.495 21.39C145.495 20.1887 145.076 19.1687 144.237 18.33C143.398 17.4913 142.378 17.072 141.177 17.072C139.93 17.072 138.888 17.48 138.049 18.296C137.21 19.112 136.791 20.1433 136.791 21.39C136.791 22.9993 137.766 24.382 139.715 25.538L138.423 26.966L137.879 26.694C135.907 25.7193 134.921 23.9513 134.921 21.39C134.921 19.5767 135.51 18.092 136.689 16.936C137.868 15.7573 139.364 15.168 141.177 15.168C142.968 15.168 144.441 15.7573 145.597 16.936C146.753 18.1147 147.331 19.5993 147.331 21.39C147.331 24.042 146.141 25.912 143.761 27ZM138.806 8.232H138.84C138.862 7.57467 139.089 7.042 139.52 6.634C139.928 6.20333 140.46 5.988 141.118 5.988C141.911 5.988 142.523 6.26 142.954 6.804L142.104 7.858C141.832 7.54067 141.526 7.33667 141.186 7.246C140.483 7.246 140.132 7.60867 140.132 8.334C140.064 8.56067 140.2 8.844 140.54 9.184L141.152 9.082C141.877 9.082 142.444 9.354 142.852 9.898L142.036 10.952C141.809 10.6573 141.526 10.4873 141.186 10.442C140.551 10.4647 140.154 10.8273 139.996 11.53C139.996 12.2327 140.37 12.5953 141.118 12.618C141.48 12.6407 141.775 12.4367 142.002 12.006C142.364 12.3007 142.648 12.6067 142.852 12.924C142.24 13.536 141.639 13.842 141.05 13.842C140.347 13.842 139.792 13.6267 139.384 13.196C138.953 12.7653 138.738 12.1987 138.738 11.496C138.738 10.9067 138.953 10.3513 139.384 9.83C139.021 9.286 138.828 8.75333 138.806 8.232ZM148.698 27V10C148.698 9.88667 148.687 9.81867 148.664 9.796C148.392 8.18667 147.508 7.382 146.012 7.382C145.196 7.382 144.539 7.64267 144.04 8.164C143.519 8.68533 143.258 9.354 143.258 10.17C143.258 10.4647 143.303 10.7707 143.394 11.088L141.592 11.496C141.479 11.02 141.422 10.578 141.422 10.17C141.422 8.85533 141.864 7.756 142.748 6.872C143.632 5.988 144.731 5.546 146.046 5.546C147.27 5.546 148.301 5.93133 149.14 6.702C150.001 7.47267 150.489 8.47 150.602 9.694V27H148.698ZM163.514 36.18C162.902 36.18 162.596 35.8173 162.596 35.092V20.778C162.596 19.5313 162.188 18.5 161.372 17.684C160.556 16.8453 159.525 16.426 158.278 16.426C157.032 16.426 156 16.8453 155.184 17.684C154.368 18.5 153.96 19.5313 153.96 20.778V20.914C154.414 20.778 154.912 20.71 155.456 20.71C156.794 20.71 157.961 21.0953 158.958 21.866C160.046 22.7047 160.59 23.77 160.59 25.062C160.59 26.422 159.922 27.102 158.584 27.102C158.335 27.102 158.097 27.0793 157.87 27.034C156.057 26.9207 154.629 26.3087 153.586 25.198C152.566 24.0647 152.056 22.5913 152.056 20.778C152.056 18.9647 152.634 17.48 153.79 16.324C154.969 15.1453 156.465 14.556 158.278 14.556C160.092 14.556 161.588 15.1453 162.766 16.324C163.945 17.48 164.534 18.9647 164.534 20.778V34.31H165.758V36.18H163.514ZM158.686 24.79C158.686 23.9287 158.233 23.2487 157.326 22.75C156.533 22.2967 155.683 22.104 154.776 22.172L154.3 22.342C154.368 22.5913 154.493 22.8407 154.674 23.09C155.694 24.518 156.771 25.232 157.904 25.232C158.176 25.232 158.38 25.1753 158.516 25.062L158.686 24.926V24.79ZM172.023 27C170.187 27 168.679 26.422 167.501 25.266C166.345 24.11 165.767 22.614 165.767 20.778C165.767 18.2167 166.968 16.3467 169.371 15.168L170.561 16.596C168.611 17.7973 167.637 19.1913 167.637 20.778C167.637 22.0473 168.045 23.09 168.861 23.906C169.699 24.722 170.753 25.13 172.023 25.13C173.247 25.13 174.267 24.7107 175.083 23.872C175.921 23.0333 176.341 22.002 176.341 20.778C176.341 19.214 175.366 17.8313 173.417 16.63L174.709 15.236L175.253 15.508C177.202 16.4827 178.177 18.2393 178.177 20.778C178.177 22.5913 177.599 24.0873 176.443 25.266C175.309 26.422 173.836 27 172.023 27ZM174.819 9.864C174.774 9.88667 174.729 9.898 174.683 9.898C174.638 9.898 174.615 9.87533 174.615 9.83C174.547 9.10467 174.275 8.51533 173.799 8.062C173.301 7.60867 172.689 7.382 171.963 7.382C171.147 7.382 170.49 7.64267 169.991 8.164C169.47 8.66267 169.209 9.32 169.209 10.136C169.209 10.9067 169.47 11.5527 169.991 12.074C170.49 12.5727 171.125 12.822 171.895 12.822C172.054 12.822 172.303 12.7993 172.643 12.754V14.726C172.371 14.7487 172.145 14.76 171.963 14.76C170.671 14.76 169.583 14.318 168.699 13.434C167.815 12.5273 167.373 11.428 167.373 10.136C167.373 8.844 167.827 7.756 168.733 6.872C169.617 5.988 170.705 5.546 171.997 5.546C173.176 5.546 174.162 5.89733 174.955 6.6C175.749 7.28 176.259 8.20933 176.485 9.388C175.964 9.592 175.409 9.75067 174.819 9.864ZM185.835 27C183.999 27 182.492 26.422 181.313 25.266C180.157 24.11 179.579 22.614 179.579 20.778C179.579 18.2167 180.781 16.3467 183.183 15.168L184.373 16.596C182.424 17.7973 181.449 19.1913 181.449 20.778C181.449 21.73 181.721 22.5913 182.265 23.362C183.263 22.274 184.453 21.7073 185.835 21.662C187.195 21.6167 188.431 22.0813 189.541 23.056C189.949 22.3533 190.153 21.594 190.153 20.778C190.153 19.214 189.179 17.8313 187.229 16.63L188.521 15.236L189.065 15.508C191.015 16.4827 191.989 18.2393 191.989 20.778C191.989 22.5913 191.411 24.0873 190.255 25.266C189.122 26.422 187.649 27 185.835 27ZM185.869 23.226C184.872 23.362 184.067 23.77 183.455 24.45C184.203 24.9033 184.997 25.13 185.835 25.13C186.765 25.13 187.637 24.8127 188.453 24.178C187.751 23.6113 186.889 23.294 185.869 23.226ZM194.106 36.112C193.97 36.112 193.8 36.0893 193.596 36.044L190.4 35.364C189.425 35.16 188.926 34.6953 188.904 33.97L188.87 32.984V24.246H190.74V33.426L193.324 34.038V14.59H195.194V35.092C195.194 35.772 194.831 36.112 194.106 36.112ZM199.742 26.966C199.379 26.966 198.813 26.8753 198.042 26.694V24.756C198.767 24.96 199.334 25.062 199.742 25.062C201.011 25.062 202.043 24.6653 202.836 23.872C203.652 23.056 204.06 22.0133 204.06 20.744C204.06 19.52 203.641 18.5 202.802 17.684C201.986 16.8453 200.966 16.426 199.742 16.426C197.747 16.426 196.365 17.5253 195.594 19.724C195.571 19.8373 195.469 20.1093 195.288 20.54L193.622 19.554L193.758 19.078C194.619 16.0633 196.614 14.556 199.742 14.556C201.533 14.556 203.017 15.1453 204.196 16.324C205.375 17.48 205.964 18.9533 205.964 20.744C205.964 22.58 205.386 24.076 204.23 25.232C203.074 26.388 201.578 26.966 199.742 26.966ZM209.784 19.996C209.081 19.996 208.503 19.7693 208.05 19.316C207.619 18.8627 207.403 18.2847 207.403 17.582C207.403 16.902 207.63 16.3353 208.084 15.882C208.537 15.406 209.104 15.168 209.784 15.168C210.464 15.168 211.03 15.406 211.484 15.882C211.937 16.3353 212.164 16.902 212.164 17.582C212.164 18.2847 211.937 18.8627 211.484 19.316C211.053 19.7693 210.486 19.996 209.784 19.996ZM209.784 26.558C209.081 26.558 208.503 26.3313 208.05 25.878C207.619 25.4247 207.403 24.8467 207.403 24.144C207.403 23.464 207.63 22.8973 208.084 22.444C208.537 21.968 209.104 21.73 209.784 21.73C210.486 21.73 211.053 21.9567 211.484 22.41C211.937 22.8633 212.164 23.4413 212.164 24.144C212.164 24.8467 211.937 25.4247 211.484 25.878C211.053 26.3313 210.486 26.558 209.784 26.558ZM209.784 16.8C209.308 16.8 209.07 17.0607 209.07 17.582C209.07 18.058 209.308 18.296 209.784 18.296C210.305 18.296 210.566 18.058 210.566 17.582C210.566 17.0607 210.305 16.8 209.784 16.8ZM209.784 23.396C209.308 23.396 209.07 23.6453 209.07 24.144C209.07 24.6653 209.308 24.926 209.784 24.926C210.305 24.926 210.566 24.6653 210.566 24.144C210.566 23.6453 210.305 23.396 209.784 23.396Z" fill="black"/>
<path d="M33.0838 82.25C32.2296 81.3542 31.4171 80.1771 30.6463 78.7188C29.8754 77.2812 29.24 75.6667 28.74 73.875C28.2608 72.0833 28.0213 70.2396 28.0213 68.3438C28.0213 66.9896 28.1567 65.6354 28.4275 64.2812C28.7192 62.9271 29.1046 61.625 29.5838 60.375C30.0629 59.125 30.6046 57.9896 31.2088 56.9688C31.8129 55.9479 32.4379 55.1042 33.0838 54.4375H35.9275C35.3025 55.1458 34.6983 56.0417 34.115 57.125C33.5525 58.2083 33.0525 59.3958 32.615 60.6875C32.1775 61.9792 31.8338 63.2917 31.5838 64.625C31.3338 65.9375 31.2088 67.1771 31.2088 68.3438C31.2088 69.5938 31.3338 70.8854 31.5838 72.2188C31.8338 73.5521 32.1775 74.8438 32.615 76.0938C33.0525 77.3646 33.5525 78.5312 34.115 79.5938C34.6983 80.6562 35.3025 81.5417 35.9275 82.25H33.0838ZM36.53 76L46.3113 55.0625H47.7175L57.4988 76H54.1238L47.0613 59.8125L39.905 76H36.53ZM41.4363 71V68.3438H53.03V71H41.4363ZM59.5075 83.5V60.375H62.07V63.0312C62.6117 62.1979 63.3408 61.5 64.2575 60.9375C65.195 60.3542 66.2575 60.0625 67.445 60.0625C68.7992 60.0625 70.0179 60.3958 71.1013 61.0625C72.2054 61.7083 73.0804 62.625 73.7263 63.8125C74.3929 64.9792 74.7263 66.3542 74.7263 67.9375C74.7263 69.6458 74.3929 71.1458 73.7263 72.4375C73.0804 73.7083 72.1846 74.6979 71.0388 75.4062C69.9138 76.1146 68.6325 76.4688 67.195 76.4688C66.2992 76.4688 65.3825 76.2292 64.445 75.75C63.5283 75.2708 62.7367 74.6562 62.07 73.9062V83.5H59.5075ZM66.7263 73.9688C67.8513 73.9688 68.8096 73.6771 69.6013 73.0938C70.3929 72.5104 70.9971 71.7604 71.4138 70.8438C71.8513 69.9062 72.07 68.9375 72.07 67.9375C72.07 66.9167 71.8617 66.0104 71.445 65.2188C71.0283 64.4062 70.445 63.7604 69.695 63.2812C68.945 62.8021 68.0596 62.5625 67.0388 62.5625C66.1013 62.5625 65.2471 62.8021 64.4763 63.2812C63.7263 63.7604 63.1325 64.4271 62.695 65.2812C62.2783 66.1146 62.07 67.0938 62.07 68.2188L62.1013 71.2188C62.7679 72.0312 63.4658 72.6979 64.195 73.2188C64.9242 73.7188 65.7679 73.9688 66.7263 73.9688ZM77.985 83.5V60.375H80.5475V63.0312C81.0892 62.1979 81.8183 61.5 82.735 60.9375C83.6725 60.3542 84.735 60.0625 85.9225 60.0625C87.2767 60.0625 88.4954 60.3958 89.5788 61.0625C90.6829 61.7083 91.5579 62.625 92.2038 63.8125C92.8704 64.9792 93.2038 66.3542 93.2038 67.9375C93.2038 69.6458 92.8704 71.1458 92.2038 72.4375C91.5579 73.7083 90.6621 74.6979 89.5163 75.4062C88.3913 76.1146 87.11 76.4688 85.6725 76.4688C84.7767 76.4688 83.86 76.2292 82.9225 75.75C82.0058 75.2708 81.2142 74.6562 80.5475 73.9062V83.5H77.985ZM85.2038 73.9688C86.3288 73.9688 87.2871 73.6771 88.0788 73.0938C88.8704 72.5104 89.4746 71.7604 89.8913 70.8438C90.3288 69.9062 90.5475 68.9375 90.5475 67.9375C90.5475 66.9167 90.3392 66.0104 89.9225 65.2188C89.5058 64.4062 88.9225 63.7604 88.1725 63.2812C87.4225 62.8021 86.5371 62.5625 85.5163 62.5625C84.5788 62.5625 83.7246 62.8021 82.9538 63.2812C82.2038 63.7604 81.61 64.4271 81.1725 65.2812C80.7558 66.1146 80.5475 67.0938 80.5475 68.2188L80.5788 71.2188C81.2454 72.0312 81.9433 72.6979 82.6725 73.2188C83.4017 73.7188 84.2454 73.9688 85.2038 73.9688ZM105.659 76V55.0625H119.346V57.7188H108.471V76H105.659ZM107.846 67.375V64.7188H117.471V67.375H107.846ZM129.824 76.4688C128.636 76.4688 127.542 76.2604 126.542 75.8438C125.563 75.4062 124.699 74.8125 123.949 74.0625C123.22 73.2917 122.657 72.4167 122.261 71.4375C121.865 70.4375 121.667 69.3854 121.667 68.2812C121.667 66.8021 121.99 65.4375 122.636 64.1875C123.282 62.9375 124.167 61.9375 125.292 61.1875C126.438 60.4375 127.74 60.0625 129.199 60.0625C130.803 60.0625 132.136 60.3958 133.199 61.0625C134.261 61.7292 135.053 62.6354 135.574 63.7812C136.115 64.9271 136.386 66.2188 136.386 67.6562V69.1875H124.074V67H133.855C133.751 65.9792 133.459 65.1458 132.98 64.5C132.522 63.8542 131.959 63.375 131.292 63.0625C130.626 62.7292 129.928 62.5625 129.199 62.5625C128.199 62.5625 127.334 62.8333 126.605 63.375C125.876 63.8958 125.313 64.5938 124.917 65.4688C124.522 66.3229 124.324 67.2604 124.324 68.2812C124.324 69.2812 124.542 70.2188 124.98 71.0938C125.438 71.9479 126.084 72.6458 126.917 73.1875C127.751 73.7083 128.72 73.9688 129.824 73.9688C130.949 73.9688 131.99 73.6875 132.949 73.125C133.928 72.5417 134.751 71.9062 135.417 71.2188V74C135.126 74.3542 134.688 74.7292 134.105 75.125C133.542 75.5 132.886 75.8125 132.136 76.0625C131.407 76.3333 130.636 76.4688 129.824 76.4688ZM145.833 76.4688C144.499 76.4688 143.28 76.1354 142.176 75.4688C141.072 74.7812 140.187 73.8333 139.52 72.625C138.874 71.4167 138.551 70.0208 138.551 68.4375C138.551 66.7083 138.874 65.2188 139.52 63.9688C140.187 62.7188 141.093 61.7604 142.239 61.0938C143.385 60.4062 144.666 60.0625 146.083 60.0625C146.978 60.0625 147.885 60.2812 148.801 60.7188C149.739 61.1354 150.541 61.7188 151.208 62.4688V60.375H153.77V76H151.208V73.3438C150.666 74.1771 149.926 74.9062 148.989 75.5312C148.072 76.1562 147.02 76.4688 145.833 76.4688ZM146.239 73.9688C147.197 73.9688 148.051 73.7188 148.801 73.2188C149.551 72.7188 150.145 72.0312 150.583 71.1562C151.02 70.2604 151.228 69.2604 151.208 68.1562L151.176 65.1562C150.53 64.3438 149.833 63.7083 149.083 63.25C148.353 62.7917 147.51 62.5625 146.551 62.5625C145.426 62.5625 144.468 62.8438 143.676 63.4062C142.885 63.9688 142.27 64.6979 141.833 65.5938C141.416 66.4688 141.208 67.4167 141.208 68.4375C141.208 69.4375 141.416 70.3646 141.833 71.2188C142.249 72.0521 142.833 72.7188 143.583 73.2188C144.353 73.7188 145.239 73.9688 146.239 73.9688ZM164.185 76.4688C163.31 76.4688 162.55 76.2917 161.904 75.9375C161.258 75.5625 160.758 75.0417 160.404 74.375C160.05 73.7083 159.873 72.9375 159.873 72.0625V62.7812H156.873V62.0312C157.893 61.5729 158.748 60.8229 159.435 59.7812C160.123 58.7188 160.727 57.4167 161.248 55.875H162.435V60.375H167.466V62.7812H162.435V71.9375C162.435 72.5833 162.643 73.0938 163.06 73.4688C163.498 73.8438 164.06 74.0312 164.748 74.0312C165.373 74.0312 165.935 73.9583 166.435 73.8125C166.956 73.6458 167.373 73.4688 167.685 73.2812V75.5312C167.268 75.8646 166.779 76.1042 166.216 76.25C165.654 76.3958 164.977 76.4688 164.185 76.4688ZM177.412 76.3125C176.162 76.3125 175.037 76.0417 174.037 75.5C173.037 74.9583 172.246 74.1875 171.662 73.1875C171.079 72.1875 170.787 71 170.787 69.625V60.375H173.444V69.625C173.444 70.9792 173.84 72.0208 174.631 72.75C175.444 73.4583 176.371 73.8125 177.412 73.8125C178.454 73.8125 179.371 73.4583 180.162 72.75C180.975 72.0208 181.381 70.9792 181.381 69.625V60.375H184.037V69.625C184.037 71 183.746 72.1875 183.162 73.1875C182.579 74.1875 181.787 74.9583 180.787 75.5C179.787 76.0417 178.662 76.3125 177.412 76.3125ZM187.921 76V60.375H190.484V76H187.921ZM190.484 66.5625V63.5C191.088 62.4583 191.817 61.625 192.671 61C193.525 60.375 194.4 60.0625 195.296 60.0625C195.9 60.0625 196.442 60.1667 196.921 60.375V63.3438C196.609 63.1562 196.286 63.0104 195.953 62.9062C195.619 62.8021 195.275 62.75 194.921 62.75C193.859 62.75 192.994 63.125 192.328 63.875C191.682 64.625 191.067 65.5208 190.484 66.5625ZM206.305 76.4688C205.118 76.4688 204.024 76.2604 203.024 75.8438C202.045 75.4062 201.18 74.8125 200.43 74.0625C199.701 73.2917 199.138 72.4167 198.743 71.4375C198.347 70.4375 198.149 69.3854 198.149 68.2812C198.149 66.8021 198.472 65.4375 199.118 64.1875C199.763 62.9375 200.649 61.9375 201.774 61.1875C202.92 60.4375 204.222 60.0625 205.68 60.0625C207.284 60.0625 208.618 60.3958 209.68 61.0625C210.743 61.7292 211.534 62.6354 212.055 63.7812C212.597 64.9271 212.868 66.2188 212.868 67.6562V69.1875H200.555V67H210.336C210.232 65.9792 209.94 65.1458 209.461 64.5C209.003 63.8542 208.44 63.375 207.774 63.0625C207.107 62.7292 206.409 62.5625 205.68 62.5625C204.68 62.5625 203.815 62.8333 203.086 63.375C202.357 63.8958 201.795 64.5938 201.399 65.4688C201.003 66.3229 200.805 67.2604 200.805 68.2812C200.805 69.2812 201.024 70.2188 201.461 71.0938C201.92 71.9479 202.565 72.6458 203.399 73.1875C204.232 73.7083 205.201 73.9688 206.305 73.9688C207.43 73.9688 208.472 73.6875 209.43 73.125C210.409 72.5417 211.232 71.9062 211.899 71.2188V74C211.607 74.3542 211.17 74.7292 210.586 75.125C210.024 75.5 209.368 75.8125 208.618 76.0625C207.888 76.3333 207.118 76.4688 206.305 76.4688ZM219.845 76.4688C219.241 76.4688 218.605 76.3854 217.939 76.2188C217.293 76.0729 216.71 75.8958 216.189 75.6875C215.668 75.4583 215.282 75.2604 215.032 75.0938V72.3438C215.324 72.5521 215.73 72.7917 216.251 73.0625C216.793 73.3125 217.366 73.5312 217.97 73.7188C218.574 73.8854 219.137 73.9688 219.657 73.9688C220.637 73.9688 221.407 73.75 221.97 73.3125C222.553 72.875 222.845 72.3333 222.845 71.6875C222.845 71.1875 222.647 70.7917 222.251 70.5C221.876 70.2083 221.324 69.9271 220.595 69.6562L218.282 68.8125C217.074 68.3542 216.272 67.7812 215.876 67.0938C215.48 66.3854 215.282 65.5833 215.282 64.6875C215.282 63.7917 215.501 63 215.939 62.3125C216.397 61.625 217.043 61.0833 217.876 60.6875C218.71 60.2708 219.678 60.0625 220.782 60.0625C221.699 60.0625 222.553 60.1979 223.345 60.4688C224.137 60.7188 224.71 60.9792 225.064 61.25V64C224.626 63.6667 224.032 63.3438 223.282 63.0312C222.532 62.7188 221.762 62.5625 220.97 62.5625C219.991 62.5625 219.251 62.7917 218.751 63.25C218.272 63.7083 218.032 64.1875 218.032 64.6875C218.032 65.0833 218.168 65.4896 218.439 65.9062C218.73 66.3021 219.23 66.625 219.939 66.875L222.564 67.8125C223.585 68.1667 224.345 68.6771 224.845 69.3438C225.345 70.0104 225.595 70.7917 225.595 71.6875C225.595 72.5625 225.345 73.3646 224.845 74.0938C224.366 74.8229 223.689 75.4062 222.814 75.8438C221.96 76.2604 220.97 76.4688 219.845 76.4688ZM230.916 82.25H228.072C228.697 81.5417 229.291 80.6562 229.854 79.5938C230.437 78.5312 230.947 77.3646 231.385 76.0938C231.822 74.8438 232.166 73.5521 232.416 72.2188C232.666 70.8854 232.791 69.5938 232.791 68.3438C232.791 67.1771 232.666 65.9375 232.416 64.625C232.166 63.2917 231.822 61.9792 231.385 60.6875C230.947 59.3958 230.437 58.2083 229.854 57.125C229.291 56.0417 228.697 55.1458 228.072 54.4375H230.916C231.562 55.1042 232.187 55.9479 232.791 56.9688C233.395 57.9896 233.937 59.125 234.416 60.375C234.895 61.625 235.27 62.9271 235.541 64.2812C235.833 65.6354 235.979 66.9896 235.979 68.3438C235.979 70.2396 235.729 72.0833 235.229 73.875C234.75 75.6667 234.125 77.2812 233.354 78.7188C232.583 80.1771 231.77 81.3542 230.916 82.25Z" fill="black"/>
</svg>
