<svg width="128" height="87" viewBox="0 0 128 87" fill="none" xmlns="http://www.w3.org/2000/svg">
<g clip-path="url(#clip0_99_110)">
<path d="M123.188 1.19141H4.81742C2.41997 1.19141 0.476448 3.24601 0.476448 5.7805V35.4293C0.476448 37.9638 2.41997 40.0184 4.81742 40.0184H123.188C125.586 40.0184 127.529 37.9638 127.529 35.4293V5.7805C127.529 3.24601 125.586 1.19141 123.188 1.19141Z" fill="black"/>
<path d="M123.188 40.5156H4.81743C2.15872 40.5156 0 38.2335 0 35.4228V5.78027C0 2.96961 2.15872 0.6875 4.81743 0.6875H123.188C125.847 0.6875 128.006 2.96961 128.006 5.78027V35.4228C128.006 38.2335 125.847 40.5156 123.188 40.5156ZM4.81743 1.69486C2.68811 1.69486 0.952897 3.52926 0.952897 5.78649V35.4291C0.952897 37.6801 2.68811 39.5145 4.81743 39.5145H123.188C125.318 39.5145 127.053 37.6801 127.053 35.4291V5.78027C127.053 3.52304 125.318 1.68864 123.188 1.68864H4.81743V1.69486Z" fill="#A7A9AC"/>
<path d="M64.5735 22.4698C62.3501 22.4698 60.5325 24.2607 60.5325 26.7231C60.5325 29.1856 62.3442 30.9764 64.5735 30.9764C66.8028 30.9764 68.6145 29.1731 68.6145 26.7231C68.6145 24.2731 66.8028 22.4698 64.5735 22.4698ZM64.5735 29.3037C63.3559 29.3037 62.303 28.2404 62.303 26.7231C62.303 25.2059 63.3559 24.1425 64.5735 24.1425C65.7911 24.1425 66.844 25.1872 66.844 26.7231C66.844 28.259 65.7911 29.3037 64.5735 29.3037ZM55.7622 22.4698C53.5387 22.4698 51.7212 24.2607 51.7212 26.7231C51.7212 29.1856 53.5328 30.9764 55.7622 30.9764C57.9915 30.9764 59.8031 29.1731 59.8031 26.7231C59.8031 24.2731 57.9915 22.4698 55.7622 22.4698ZM55.7622 29.3037C54.5446 29.3037 53.4917 28.2404 53.4917 26.7231C53.4917 25.2059 54.5446 24.1425 55.7622 24.1425C56.9797 24.1425 58.0326 25.1872 58.0326 26.7231C58.0326 28.259 56.9797 29.3037 55.7622 29.3037ZM45.2803 23.7756V25.5789H49.3624C49.2389 26.5925 48.9213 27.3325 48.4331 27.8486C47.839 28.4767 46.9096 29.1669 45.2803 29.1669C42.7627 29.1669 40.7981 27.0216 40.7981 24.3664C40.7981 21.7112 42.7627 19.5659 45.2803 19.5659C46.639 19.5659 47.6272 20.1317 48.3566 20.8531L49.5624 19.5783C48.539 18.5461 47.1861 17.7563 45.2803 17.7563C41.8334 17.7563 38.9394 20.7225 38.9394 24.3602C38.9394 27.9979 41.8334 30.964 45.2803 30.964C47.139 30.964 48.5448 30.3173 49.6389 29.1109C50.7683 27.917 51.1153 26.2443 51.1153 24.8887C51.1153 24.4721 51.0859 24.0803 51.0212 23.7632H45.2744L45.2803 23.7756ZM88.143 25.1748C87.8077 24.2234 86.7843 22.4698 84.6961 22.4698C82.608 22.4698 80.9022 24.1923 80.9022 26.7231C80.9022 29.1047 82.608 30.9764 84.8961 30.9764C86.7431 30.9764 87.8077 29.7825 88.2489 29.0923L86.8784 28.1284C86.4196 28.8373 85.7961 29.3037 84.8961 29.3037C83.9962 29.3037 83.355 28.8684 82.9433 28.0165L88.3254 25.666L88.143 25.181V25.1748ZM82.655 26.5925C82.608 24.9509 83.8609 24.1114 84.7608 24.1114C85.4608 24.1114 86.0549 24.4845 86.2549 25.0131L82.6609 26.5925H82.655ZM78.2788 30.7153H80.0493V18.2103H78.2788V30.7153ZM75.3848 23.415H75.326C74.9319 22.9175 74.1672 22.4636 73.2084 22.4636C71.1967 22.4636 69.3498 24.3353 69.3498 26.7355C69.3498 29.1358 71.1967 30.9702 73.2084 30.9702C74.1672 30.9702 74.9319 30.5163 75.326 30.0064H75.3848V30.6158C75.3848 32.2449 74.5613 33.1155 73.2378 33.1155C72.1555 33.1155 71.485 32.2947 71.2085 31.5982L69.6674 32.276C70.1086 33.4015 71.285 34.7882 73.2319 34.7882C75.3024 34.7882 77.0553 33.501 77.0553 30.3546V22.7185H75.3789V23.4088L75.3848 23.415ZM73.3555 29.2975C72.1379 29.2975 71.1144 28.2155 71.1144 26.7355C71.1144 25.2556 72.1379 24.1425 73.3555 24.1425C74.5731 24.1425 75.5024 25.2369 75.5024 26.7355C75.5024 28.2342 74.5554 29.2975 73.3555 29.2975ZM96.4191 18.2103H92.1899V30.7153H93.9545V25.9769H96.4191C98.3778 25.9769 100.301 24.4783 100.301 22.0967C100.301 19.7151 98.3778 18.2165 96.4191 18.2165V18.2103ZM96.4662 24.2358H93.9545V19.9514H96.4662C97.7838 19.9514 98.5367 21.108 98.5367 22.0967C98.5367 23.0854 97.7896 24.242 96.4662 24.242V24.2358ZM107.377 22.4387C106.101 22.4387 104.778 23.0357 104.231 24.3539L105.795 25.0442C106.13 24.3539 106.754 24.1301 107.407 24.1301C108.319 24.1301 109.248 24.7084 109.266 25.7406V25.8712C108.948 25.6784 108.26 25.3862 107.424 25.3862C105.736 25.3862 104.019 26.3687 104.019 28.2031C104.019 29.8758 105.401 30.9515 106.954 30.9515C108.142 30.9515 108.795 30.3857 109.207 29.7265H109.266V30.6904H110.971V25.8961C110.971 23.6762 109.407 22.4387 107.383 22.4387H107.377ZM107.166 29.2913C106.589 29.2913 105.783 28.9866 105.783 28.2279C105.783 27.2641 106.789 26.891 107.654 26.891C108.43 26.891 108.795 27.0651 109.266 27.3076C109.13 28.4642 108.183 29.285 107.166 29.285V29.2913ZM117.177 22.7123L115.154 28.1347H115.095L112.995 22.7123H111.095L114.242 30.2862L112.448 34.5022H114.289L119.142 22.7123H117.177ZM101.278 30.709H103.042V18.2041H101.278V30.709Z" fill="white"/>
<path d="M9.9819 8.26176C9.70544 8.56646 9.54662 9.04526 9.54662 9.66709V31.7669C9.54662 32.3887 9.71132 32.8613 9.9819 33.1722L10.0525 33.2468L21.7637 20.8662V20.574L10.0525 8.19336L9.9819 8.26798V8.26176Z" fill="#5BC9F4"/>
<path d="M25.6694 24.9945L21.7637 20.8655V20.5733L25.6694 16.4443L25.7576 16.5003L30.381 19.2799C31.7044 20.0758 31.7044 21.3692 30.381 22.1652L25.7576 24.9447L25.6694 25.0007V24.9945Z" fill="url(#paint0_linear_99_110)"/>
<path d="M25.7577 24.939L21.7637 20.7168L9.9819 33.172C10.4172 33.657 11.1348 33.7192 11.9465 33.2342L25.7577 24.939Z" fill="url(#paint1_linear_99_110)"/>
<path d="M25.7577 16.4943L11.9465 8.19914C11.1348 7.71411 10.4172 7.77008 9.9819 8.26132L21.7637 20.7165L25.7577 16.4943Z" fill="url(#paint2_linear_99_110)"/>
<path d="M43.4862 8.97039C43.1333 8.6346 42.6627 8.42318 42.1451 8.42318C40.9805 8.42318 40.0864 9.43676 40.0864 10.6866C40.0864 11.9365 40.9805 12.9377 42.1451 12.9377C43.1451 12.9377 43.8745 12.322 43.9215 11.352H42.3392V10.6618H44.7803C44.7803 12.7262 43.7392 13.7025 42.1451 13.7025C40.5511 13.7025 39.3335 12.3531 39.3335 10.6866C39.3335 9.02014 40.5628 7.66455 42.1451 7.66455C42.8804 7.66455 43.5451 7.96303 44.0274 8.44184L43.4862 8.97039Z" fill="white"/>
<path d="M49.0977 7.73291V8.47289H46.5508V10.3508H48.7742V11.097H46.5508V12.8754H49.1742V13.6154H45.7979V7.73291H49.0919H49.0977Z" fill="white"/>
<path d="M53.9681 7.73291V8.48532H52.28V13.6154H51.5212V8.48532H49.833V7.73291H53.9681Z" fill="white"/>
<path d="M57.5738 7.73291V13.6154H56.8209V7.73291H57.5738Z" fill="white"/>
<path d="M62.6971 7.73291V8.48532H61.009V13.6154H60.2502V8.48532H58.562V7.73291H62.6971Z" fill="white"/>
<path d="M67.9969 7.66455C69.5909 7.66455 70.8262 9.01392 70.8262 10.6866C70.8262 12.3594 69.5909 13.7025 67.9969 13.7025C66.4028 13.7025 65.1852 12.3531 65.1852 10.6866C65.1852 9.02014 66.4146 7.66455 67.9969 7.66455ZM67.9969 12.9314C69.1674 12.9314 70.0674 11.9303 70.0674 10.6866C70.0674 9.44298 69.1733 8.4294 67.9969 8.4294C66.8205 8.4294 65.9382 9.43676 65.9382 10.6866C65.9382 11.9365 66.8322 12.9314 67.9969 12.9314Z" fill="white"/>
<path d="M75.2671 13.6154L72.732 9.18177V13.6154H71.979V7.73291H72.7202L75.2318 12.1292V7.73291H75.9847V13.6154H75.2671Z" fill="white"/>
</g>
<g clip-path="url(#clip1_99_110)">
<path d="M123.188 46.7095H4.81742C2.41997 46.7095 0.476448 48.7641 0.476448 51.2986V80.9473C0.476448 83.4818 2.41997 85.5364 4.81742 85.5364H123.188C125.586 85.5364 127.529 83.4818 127.529 80.9473V51.2986C127.529 48.7641 125.586 46.7095 123.188 46.7095Z" fill="black"/>
<path d="M123.188 86.0332H4.81743C2.15872 86.0332 0 83.7511 0 80.9404V51.2979C0 48.4872 2.15872 46.2051 4.81743 46.2051H123.188C125.847 46.2051 128.006 48.4872 128.006 51.2979V80.9404C128.006 83.7511 125.847 86.0332 123.188 86.0332ZM4.81743 47.2124C2.68811 47.2124 0.952897 49.0468 0.952897 51.2979V80.9404C0.952897 83.1914 2.68811 85.0258 4.81743 85.0258H123.188C125.318 85.0258 127.053 83.1914 127.053 80.9404V51.2979C127.053 49.0406 125.318 47.2124 123.188 47.2124H4.81743Z" fill="#A7A9AC"/>
<path d="M42.6157 57.5289L42.0804 59.382H40.9158L42.898 52.8403H44.3391L46.3508 59.382H45.1391L44.5803 57.5289H42.6157ZM44.3862 56.6273L43.898 55.0167C43.7803 54.6188 43.6803 54.171 43.5862 53.7917H43.5686C43.4745 54.171 43.3862 54.625 43.2745 55.0167L42.798 56.6273H44.3862Z" fill="white"/>
<path d="M48.039 54.6562L48.7625 57.0565C48.8919 57.4731 48.9801 57.8524 49.0683 58.238H49.0977C49.1801 57.8524 49.2801 57.4794 49.4036 57.0565L50.1212 54.6562H51.3035L49.5977 59.3821H48.486L46.8214 54.6562H48.0449H48.039Z" fill="white"/>
<path d="M55.8033 58.2503C55.8033 58.6794 55.821 59.096 55.8739 59.3882H54.8563L54.774 58.8659H54.7445C54.4799 59.2328 54.0093 59.494 53.4211 59.494C52.5211 59.494 52.0153 58.8037 52.0153 58.0886C52.0153 56.9072 53.0152 56.2915 54.6681 56.304V56.2294C54.6681 55.9184 54.5504 55.4023 53.7564 55.4023C53.3152 55.4023 52.8564 55.5453 52.5564 55.7506L52.3388 54.9733C52.6682 54.7618 53.2505 54.5566 53.9563 54.5566C55.3916 54.5566 55.8033 55.5205 55.8033 56.5589V58.2565V58.2503ZM54.7034 57.075C53.9034 57.0626 53.1446 57.2429 53.1446 57.958C53.1446 58.4244 53.427 58.6358 53.7858 58.6358C54.2446 58.6358 54.5681 58.3249 54.674 57.9829C54.7034 57.8959 54.7034 57.8088 54.7034 57.7217V57.0688V57.075Z" fill="white"/>
<path d="M57.962 53.9785C57.5856 53.9785 57.3385 53.6862 57.3385 53.338C57.3385 52.9711 57.5974 52.6851 57.9738 52.6851C58.3503 52.6851 58.5973 52.9649 58.6091 53.338C58.6091 53.6862 58.362 53.9785 57.9738 53.9785H57.962ZM57.4032 59.3822V54.6563H58.5326V59.3822H57.4032Z" fill="white"/>
<path d="M60.1561 52.4858H61.2854V59.3881H60.1561V52.4858Z" fill="white"/>
<path d="M66.3911 58.2503C66.3911 58.6794 66.4087 59.096 66.4616 59.3882H65.4441L65.3617 58.8659H65.3323C65.0676 59.2328 64.597 59.494 64.0088 59.494C63.1089 59.494 62.603 58.8037 62.603 58.0886C62.603 56.9072 63.603 56.2915 65.2558 56.304V56.2294C65.2558 55.9184 65.1382 55.4023 64.35 55.4023C63.9088 55.4023 63.45 55.5453 63.15 55.7506L62.9324 54.9733C63.2618 54.7618 63.8441 54.5566 64.55 54.5566C65.9793 54.5566 66.3969 55.5205 66.3969 56.5589V58.2565L66.3911 58.2503ZM65.2911 57.075C64.4912 57.0626 63.7324 57.2429 63.7324 57.958C63.7324 58.4244 64.0147 58.6358 64.3735 58.6358C64.8323 58.6358 65.1558 58.3249 65.2617 57.9829C65.2911 57.8959 65.2911 57.8088 65.2911 57.7217V57.0688V57.075Z" fill="white"/>
<path d="M67.9851 52.4858H69.1145V55.3089H69.1321C69.4086 54.855 69.8968 54.5503 70.5673 54.5503C71.6614 54.5503 72.4379 55.5141 72.432 56.9506C72.432 58.6482 71.4144 59.4938 70.4027 59.4938C69.8262 59.4938 69.3086 59.2576 68.991 58.6793H68.9733L68.9204 59.3881H67.9557C67.9733 59.0648 67.991 58.5424 67.991 58.0699V52.4858H67.9851ZM69.1145 57.4356C69.1145 57.5351 69.1262 57.6284 69.1439 57.7154C69.2615 58.2004 69.6556 58.5487 70.1438 58.5487C70.8497 58.5487 71.285 57.9579 71.285 56.9941C71.285 56.1608 70.9085 55.4831 70.1556 55.4831C69.6968 55.4831 69.2733 55.8313 69.1556 56.3536C69.138 56.4407 69.1204 56.5464 69.1204 56.6645V57.4294L69.1145 57.4356Z" fill="white"/>
<path d="M73.7613 52.4858H74.8907V59.3881H73.7613V52.4858Z" fill="white"/>
<path d="M77.32 57.3552C77.3494 58.2071 77.9788 58.5802 78.6964 58.5802C79.2199 58.5802 79.5846 58.4932 79.9375 58.3688L80.1022 59.1834C79.714 59.3575 79.1846 59.4819 78.5434 59.4819C77.0906 59.4819 76.2377 58.5429 76.2377 57.0941C76.2377 55.782 76.9906 54.5508 78.4258 54.5508C79.861 54.5508 80.3551 55.8131 80.3551 56.8515C80.3551 57.0754 80.3375 57.2495 80.3198 57.3552H77.3259H77.32ZM79.2846 56.522C79.2963 56.0867 79.1081 55.3654 78.3552 55.3654C77.6553 55.3654 77.3611 56.037 77.32 56.522H79.2846Z" fill="white"/>
<path d="M85.9255 59.4943C84.6667 59.4943 83.6844 58.5802 83.6844 57.0567C83.6844 55.5333 84.649 54.5508 85.996 54.5508C87.343 54.5508 88.2195 55.5395 88.2195 56.9759C88.2195 58.7108 87.0607 59.4881 85.9313 59.4881H85.9196L85.9255 59.4943ZM85.9608 58.63C86.6019 58.63 87.0548 57.9708 87.0548 57.007C87.0548 56.267 86.7431 55.4151 85.9725 55.4151C85.202 55.4151 84.849 56.2422 84.849 57.0257C84.849 57.9397 85.2784 58.63 85.949 58.63H85.9608Z" fill="white"/>
<path d="M89.5488 56.0677C89.5488 55.5267 89.5312 55.0665 89.5135 54.6624H90.4959L90.5488 55.3712H90.5782C90.7782 55.0044 91.2664 54.5566 92.0134 54.5566C92.7604 54.5566 93.6016 55.0914 93.6016 56.5838V59.3882H92.4722V56.7206C92.4722 56.0428 92.2311 55.5267 91.6193 55.5267C91.1723 55.5267 90.8605 55.8687 90.737 56.2231C90.7017 56.3226 90.6841 56.4657 90.6841 56.6025V59.3882H89.5547V56.0677H89.5488Z" fill="white"/>
<path d="M98.8013 53.4432V54.6558H99.8778V55.5512H98.8013V57.6281C98.8013 58.2127 98.9484 58.4987 99.3778 58.4987C99.5778 58.4987 99.6895 58.4863 99.8189 58.4489L99.8366 59.3506C99.6719 59.419 99.366 59.475 99.019 59.475C98.5955 59.475 98.2602 59.3319 98.0484 59.0894C97.8014 58.8158 97.6896 58.3805 97.6896 57.7587V55.545H97.0544V54.6496H97.6896V53.7666L98.8013 53.437V53.4432Z" fill="white"/>
<path d="M101.131 52.4858H102.26V55.3027H102.278C102.413 55.0789 102.607 54.8923 102.836 54.768C103.066 54.6311 103.331 54.5565 103.619 54.5565C104.378 54.5565 105.178 55.0913 105.178 56.6023V59.3881H104.048V56.7267C104.048 56.0489 103.807 55.5204 103.183 55.5204C102.742 55.5204 102.431 55.8313 102.301 56.1919C102.266 56.2976 102.254 56.4282 102.254 56.5526V59.3881H101.125V52.4858H101.131Z" fill="white"/>
<path d="M107.583 57.3552C107.613 58.2071 108.242 58.5802 108.96 58.5802C109.483 58.5802 109.848 58.4932 110.201 58.3688L110.366 59.1834C109.977 59.3575 109.448 59.4819 108.807 59.4819C107.354 59.4819 106.501 58.5429 106.501 57.0941C106.501 55.782 107.254 54.5508 108.689 54.5508C110.124 54.5508 110.618 55.8131 110.618 56.8515C110.618 57.0754 110.601 57.2495 110.583 57.3552H107.589H107.583ZM109.548 56.522C109.56 56.0867 109.371 55.3654 108.619 55.3654C107.919 55.3654 107.624 56.037 107.583 56.522H109.548Z" fill="white"/>
<path d="M28.5693 65.7304C28.5399 62.4907 31.075 60.9174 31.1927 60.8428C29.7575 58.6291 27.5281 58.3244 26.7458 58.2995C24.8753 58.0943 23.0636 59.481 22.1108 59.481C21.1579 59.481 19.6697 58.3182 18.0933 58.3493C16.0581 58.3866 14.1582 59.6302 13.1112 61.5579C10.9583 65.5003 12.5641 71.2895 14.6287 74.4795C15.664 76.0403 16.8698 77.7814 18.4462 77.7192C19.9873 77.6508 20.5638 76.6808 22.4284 76.6808C24.293 76.6808 24.8165 77.7192 26.4282 77.6819C28.0869 77.6508 29.1281 76.1149 30.1221 74.5417C31.3162 72.7508 31.7927 70.991 31.8162 70.904C31.775 70.8916 28.5987 69.6106 28.5634 65.7242" fill="white"/>
<path d="M25.5224 56.2104C26.3517 55.1097 26.9223 53.6174 26.7635 52.1001C25.5635 52.1561 24.0577 52.9769 23.1931 54.0526C22.4284 54.9978 21.7402 56.5524 21.9166 58.0075C23.2695 58.1132 24.6518 57.2861 25.5224 56.2042" fill="white"/>
<path d="M50.8859 77.4702H48.7331L47.5566 73.5527H43.4627L42.3392 77.4702H40.2452L44.3039 64.1382H46.8096L50.8859 77.4702ZM47.2037 71.911L46.1391 68.4288C46.0273 68.0744 45.8156 67.2349 45.5038 65.9166H45.4685C45.345 66.4825 45.145 67.3219 44.8685 68.4288L43.8215 71.911H47.2096H47.2037Z" fill="white"/>
<path d="M61.3266 72.5461C61.3266 74.1815 60.909 75.4749 60.0737 76.4201C59.3267 77.2658 58.3973 77.6824 57.2856 77.6824C56.0857 77.6824 55.2269 77.2285 54.7034 76.3206H54.6681V81.3823H52.6446V71.0164C52.6446 69.9904 52.6211 68.9333 52.5682 67.8513H54.3446L54.4563 69.3748H54.4975C55.1681 68.2244 56.1915 67.6523 57.5621 67.6523C58.6326 67.6523 59.5326 68.1001 60.2443 68.9955C60.9619 69.8909 61.3207 71.0724 61.3207 72.5337M59.262 72.6145C59.262 71.6818 59.062 70.9045 58.662 70.3013C58.2267 69.6671 57.6385 69.3499 56.9033 69.3499C56.4033 69.3499 55.9504 69.524 55.5445 69.8723C55.1387 70.2267 54.874 70.6806 54.7504 71.2465C54.6857 71.5139 54.6563 71.7253 54.6563 71.8994V73.5037C54.6563 74.2002 54.8563 74.7909 55.2622 75.2697C55.668 75.7548 56.1974 75.9911 56.8445 75.9911C57.6032 75.9911 58.1973 75.6864 58.6208 75.0645C59.0444 74.4427 59.2561 73.6281 59.2561 72.6083" fill="white"/>
<path d="M71.7849 72.5461C71.7849 74.1815 71.3673 75.4749 70.5321 76.4201C69.785 77.2658 68.8557 77.6824 67.744 77.6824C66.5499 77.6824 65.6852 77.2285 65.1617 76.3206H65.1264V81.3823H63.1089V71.0164C63.1089 69.9904 63.0853 68.9333 63.0324 67.8513H64.8088L64.9206 69.3748H64.9617C65.6323 68.2244 66.6558 67.6523 68.0263 67.6523C69.0968 67.6523 69.9909 68.1001 70.7085 68.9955C71.4261 69.8909 71.7849 71.0724 71.7849 72.5337M69.7262 72.6145C69.7262 71.6818 69.5262 70.9045 69.1262 70.3013C68.691 69.6671 68.1028 69.3499 67.3675 69.3499C66.8675 69.3499 66.4146 69.524 66.0087 69.8723C65.6029 70.2267 65.3382 70.6806 65.2147 71.2465C65.15 71.5139 65.1205 71.7253 65.1205 71.8994V73.5037C65.1205 74.2002 65.3205 74.7909 65.7264 75.2697C66.1323 75.7548 66.6558 75.9911 67.3087 75.9911C68.0675 75.9911 68.6616 75.6864 69.0851 75.0645C69.5086 74.4427 69.7203 73.6281 69.7203 72.6083" fill="white"/>
<path d="M83.4785 73.7335C83.4785 74.8652 83.108 75.7918 82.355 76.5006C81.5316 77.2779 80.3904 77.6697 78.9199 77.6697C77.5612 77.6697 76.473 77.3961 75.6495 76.8427L76.12 75.0642C77.0082 75.6301 77.9788 75.9161 79.0434 75.9161C79.8022 75.9161 80.3963 75.7358 80.8198 75.3751C81.2433 75.0083 81.4551 74.5232 81.4551 73.9201C81.4551 73.3791 81.2786 72.9251 80.9316 72.552C80.5845 72.1789 80.0022 71.8369 79.1905 71.5198C76.9847 70.6492 75.8789 69.3745 75.8789 67.6956C75.8789 66.6011 76.2671 65.6995 77.0377 65.003C77.8082 64.3004 78.8376 63.9521 80.1257 63.9521C81.2728 63.9521 82.2256 64.1636 82.9844 64.5864L82.4786 66.3275C81.7668 65.9171 80.961 65.7119 80.0669 65.7119C79.3552 65.7119 78.8023 65.8985 78.4023 66.2653C78.067 66.5949 77.8964 66.9991 77.8964 67.4717C77.8964 68.0003 78.0905 68.4355 78.4729 68.7775C78.8082 69.0947 79.4199 69.4367 80.3081 69.8098C81.3904 70.2699 82.1904 70.8109 82.7021 71.4327C83.2138 72.0546 83.4668 72.8256 83.4668 73.7459" fill="white"/>
<path d="M90.1547 69.4617H87.9313V74.1317C87.9313 75.3194 88.3254 75.9101 89.1136 75.9101C89.4724 75.9101 89.7724 75.879 90.0076 75.8106L90.0606 77.4336C89.6665 77.589 89.1371 77.6699 88.4901 77.6699C87.6901 77.6699 87.0666 77.4149 86.6196 76.8988C86.1725 76.3827 85.9431 75.5183 85.9431 74.3058V69.4617H84.6138V67.8574H85.9431V66.0976L87.9254 65.4634V67.8574H90.1488V69.4617H90.1547Z" fill="white"/>
<path d="M100.201 72.5894C100.201 74.0694 99.8013 75.2819 99.0072 76.2271C98.172 77.2034 97.0602 77.6884 95.678 77.6884C94.2957 77.6884 93.2781 77.2221 92.4899 76.2831C91.6958 75.3503 91.3017 74.1689 91.3017 72.7449C91.3017 71.2525 91.7076 70.0337 92.5252 69.0885C93.3428 68.1371 94.4427 67.6646 95.825 67.6646C97.2073 67.6646 98.2308 68.1309 99.0425 69.0699C99.8189 69.984 100.201 71.153 100.201 72.5894ZM98.1073 72.6578C98.1073 71.7748 97.9249 71.01 97.5661 70.3757C97.1426 69.6109 96.5367 69.2253 95.7544 69.2253C94.9721 69.2253 94.3251 69.6109 93.9016 70.3757C93.5369 71.01 93.3604 71.7811 93.3604 72.6951C93.3604 73.6092 93.5369 74.343 93.9016 74.9773C94.3368 75.7421 94.9486 76.1276 95.7368 76.1276C96.525 76.1276 97.1132 75.7359 97.5485 74.9586C97.9249 74.3119 98.1073 73.547 98.1073 72.6578Z" fill="white"/>
<path d="M106.766 69.7415C106.566 69.7041 106.354 69.6855 106.13 69.6855C105.419 69.6855 104.872 69.9715 104.483 70.5374C104.148 71.0411 103.978 71.6691 103.978 72.434V77.477H101.96L101.978 70.8918C101.978 69.785 101.954 68.7776 101.901 67.8635H103.66L103.736 69.7041H103.789C104.001 69.0699 104.342 68.56 104.801 68.1807C105.248 67.8387 105.736 67.6646 106.26 67.6646C106.448 67.6646 106.613 67.677 106.766 67.7019V69.7415Z" fill="white"/>
<path d="M115.801 72.2097C115.801 72.5953 115.777 72.9124 115.73 73.1798H109.671C109.695 74.1312 109.989 74.8525 110.548 75.3562C111.06 75.8039 111.718 76.0278 112.53 76.0278C113.424 76.0278 114.242 75.8785 114.983 75.5738L115.301 77.06C114.442 77.458 113.424 77.6569 112.248 77.6569C110.842 77.6569 109.73 77.2154 108.93 76.3387C108.13 75.4619 107.724 74.2866 107.724 72.8067C107.724 71.3267 108.101 70.1515 108.848 69.1876C109.63 68.1616 110.695 67.6455 112.024 67.6455C113.354 67.6455 114.33 68.1616 115.001 69.1876C115.536 70.0085 115.801 71.0158 115.801 72.2159M113.877 71.6625C113.889 71.0283 113.759 70.481 113.483 70.0209C113.136 69.4302 112.595 69.1317 111.871 69.1317C111.213 69.1317 110.677 69.4239 110.266 70.0022C109.93 70.4624 109.73 71.0158 109.671 71.6625H113.877Z" fill="white"/>
</g>
<defs>
<linearGradient id="paint0_linear_99_110" x1="29.5222" y1="20.7163" x2="6.64675" y2="20.7163" gradientUnits="userSpaceOnUse">
<stop stop-color="#FEE000"/>
<stop offset="0.42" stop-color="#FBBC0E"/>
<stop offset="0.78" stop-color="#F9A318"/>
<stop offset="1" stop-color="#F99B1C"/>
</linearGradient>
<linearGradient id="paint1_linear_99_110" x1="23.5872" y1="23.0113" x2="0.881978" y2="44.4889" gradientUnits="userSpaceOnUse">
<stop stop-color="#EF4547"/>
<stop offset="1" stop-color="#C6186D"/>
</linearGradient>
<linearGradient id="paint2_linear_99_110" x1="1.97639" y1="-4.41776" x2="20.5155" y2="13.119" gradientUnits="userSpaceOnUse">
<stop stop-color="#279E6F"/>
<stop offset="0.04" stop-color="#2B9F6E"/>
<stop offset="0.46" stop-color="#52B16B"/>
<stop offset="0.8" stop-color="#6BBC69"/>
<stop offset="1" stop-color="#74C169"/>
</linearGradient>
<clipPath id="clip0_99_110">
<rect width="128" height="39.8281" fill="white" transform="translate(0 0.6875)"/>
</clipPath>
<clipPath id="clip1_99_110">
<rect width="128" height="39.8281" fill="white" transform="translate(0 46.2051)"/>
</clipPath>
</defs>
</svg>
