<svg width="25" height="17" viewBox="0 0 25 17" fill="none" xmlns="http://www.w3.org/2000/svg">
<path d="M16.2788 16.1146H8.13937C2.28918 16.1146 2.28918 13.9542 2.28918 12.0417V11.3333C2.28918 9.75375 2.28918 7.96875 7.12195 7.96875C8.33268 7.96875 8.78035 8.17417 9.41115 8.5C9.44168 8.52125 9.48237 8.53542 9.5129 8.56375L10.5507 9.32875C11.4257 9.97333 13.0128 9.97333 13.8878 9.32875L14.9256 8.56375C14.9561 8.5425 14.9866 8.52125 15.0273 8.5C15.6581 8.16708 16.1058 7.96875 17.3165 7.96875C22.1493 7.96875 22.1493 9.75375 22.1493 11.3333V12.0417C22.129 14.7475 20.1653 16.1146 16.2788 16.1146ZM7.12195 9.03125C3.81532 9.03125 3.81532 9.75375 3.81532 11.3333V12.0417C3.81532 13.9825 3.81532 15.0521 8.13937 15.0521H16.2788C19.3107 15.0521 20.6028 14.1525 20.6028 12.0417V11.3333C20.6028 9.75375 20.6028 9.03125 17.2962 9.03125C16.5636 9.03125 16.411 9.095 15.9735 9.32167L14.9866 10.0512C14.2541 10.5896 13.2672 10.8871 12.2091 10.8871C11.1509 10.8871 10.164 10.5896 9.4315 10.0512L8.4446 9.32167C8.00711 9.095 7.8545 9.03125 7.12195 9.03125Z" fill="#D7D7D7"/>
<path d="M19.331 9.03133C18.9139 9.03133 18.568 8.7905 18.568 8.50008V4.25008C18.568 2.6705 18.568 1.948 15.2613 1.948H9.1568C5.85017 1.948 5.85017 2.6705 5.85017 4.25008V8.50008C5.85017 8.7905 5.50425 9.03133 5.0871 9.03133C4.66996 9.03133 4.32404 8.7905 4.32404 8.50008V4.25008C4.32404 2.6705 4.32404 0.885498 9.1568 0.885498H15.2613C20.0941 0.885498 20.0941 2.6705 20.0941 4.25008V8.50008C20.0941 8.7905 19.7482 9.03133 19.331 9.03133Z" fill="#D7D7D7"/>
<path d="M14.1219 7.06934H10.7338C10.3167 7.06934 9.97076 6.8285 9.97076 6.53809C9.97076 6.24767 10.3167 6.00684 10.7338 6.00684H14.1219C14.539 6.00684 14.8849 6.24767 14.8849 6.53809C14.8849 6.8285 14.5492 7.06934 14.1219 7.06934Z" fill="#D7D7D7"/>
<path d="M14.9765 4.94434H9.88935C9.47221 4.94434 9.12628 4.7035 9.12628 4.41309C9.12628 4.12267 9.47221 3.88184 9.88935 3.88184H14.9765C15.3936 3.88184 15.7395 4.12267 15.7395 4.41309C15.7395 4.7035 15.4038 4.94434 14.9765 4.94434Z" fill="#D7D7D7"/>
</svg>
