<svg width="110" height="75" viewBox="0 0 110 75" fill="none" xmlns="http://www.w3.org/2000/svg">
<path d="M19.6735 15.976C18.0735 15.976 16.8255 15.288 15.9295 13.912C15.0175 15.288 13.7615 15.976 12.1615 15.976C10.8815 15.976 9.82553 15.568 8.99353 14.752C8.16153 13.92 7.74553 12.864 7.74553 11.584C7.74553 9.856 8.52153 8.568 10.0735 7.72L10.6495 7.408L11.2975 8.56C9.80953 9.376 9.06553 10.384 9.06553 11.584C9.06553 12.464 9.36153 13.192 9.95353 13.768C10.5455 14.344 11.2815 14.632 12.1615 14.632C13.0415 14.632 13.7695 14.344 14.3455 13.768C14.9215 13.192 15.2095 12.464 15.2095 11.584C15.2095 10.4 14.5055 9.392 13.0975 8.56L13.6975 7.456C15.5215 8.48 16.4735 9.784 16.5535 11.368H16.6255V11.584C16.6255 12.464 16.9135 13.192 17.4895 13.768C18.0655 14.344 18.7935 14.632 19.6735 14.632C20.5695 14.632 21.3055 14.352 21.8815 13.792C22.4735 13.216 22.7695 12.48 22.7695 11.584C22.7695 10.72 22.4655 10 21.8575 9.424C21.2655 8.832 20.5375 8.536 19.6735 8.536C19.5135 8.536 19.2095 8.584 18.7615 8.68C18.6335 8.072 18.5535 7.632 18.5215 7.36C18.9055 7.264 19.2895 7.216 19.6735 7.216C20.9695 7.216 22.0255 7.624 22.8415 8.44C23.6735 9.24 24.0895 10.288 24.0895 11.584C24.0895 12.864 23.6735 13.92 22.8415 14.752C22.0095 15.568 20.9535 15.976 19.6735 15.976ZM27.3218 15.976C27.0658 15.976 26.6658 15.912 26.1218 15.784V14.416C26.6338 14.56 27.0338 14.632 27.3218 14.632C28.2178 14.632 28.9458 14.352 29.5058 13.792C30.0818 13.216 30.3698 12.48 30.3698 11.584C30.3698 10.72 30.0738 10 29.4818 9.424C28.9058 8.832 28.1858 8.536 27.3218 8.536C25.9138 8.536 24.9378 9.312 24.3938 10.864C24.3778 10.944 24.3058 11.136 24.1778 11.44L23.0018 10.744L23.0978 10.408C23.7058 8.28 25.1138 7.216 27.3218 7.216C28.5858 7.216 29.6338 7.632 30.4658 8.464C31.2978 9.28 31.7138 10.32 31.7138 11.584C31.7138 12.88 31.3058 13.936 30.4898 14.752C29.6738 15.568 28.6178 15.976 27.3218 15.976ZM40.2899 22.432C40.1459 22.464 39.8259 22.48 39.3299 22.48H34.9859C33.5139 22.48 32.7779 21.744 32.7779 20.272L32.8019 13.216L32.9939 13.192L34.1219 12.544C34.9379 13.968 35.9459 14.68 37.1459 14.68C38.0259 14.68 38.7539 14.392 39.3299 13.816C39.9059 13.224 40.1939 12.488 40.1939 11.608C40.1939 10.744 39.8979 10.016 39.3059 9.424C38.7299 8.832 38.0099 8.536 37.1459 8.536C35.9459 8.536 34.9379 9.248 34.1219 10.672L32.9939 10.048C34.0659 8.16 35.4499 7.216 37.1459 7.216C38.4419 7.216 39.4899 7.624 40.2899 8.44C41.1059 9.256 41.5139 10.312 41.5139 11.608C41.5139 12.92 41.1139 13.984 40.3139 14.8C39.5139 15.616 38.4579 16.024 37.1459 16.024C36.0579 16.024 35.0659 15.64 34.1699 14.872V20.224C34.1699 20.832 34.4419 21.136 34.9859 21.136H39.3539C39.8659 21.136 40.1219 20.936 40.1219 20.536V19.36H41.5139V20.512C41.5139 21.616 41.1059 22.256 40.2899 22.432ZM39.1199 3.904C39.0879 3.92 39.0559 3.928 39.0239 3.928C38.9919 3.928 38.9759 3.912 38.9759 3.88C38.9279 3.368 38.7359 2.952 38.3999 2.632C38.0479 2.312 37.6159 2.152 37.1039 2.152C36.5279 2.152 36.0639 2.336 35.7119 2.704C35.3439 3.056 35.1599 3.52 35.1599 4.096C35.1599 4.64 35.3439 5.096 35.7119 5.464C36.0639 5.816 36.5119 5.992 37.0559 5.992C37.1679 5.992 37.3439 5.976 37.5839 5.944V7.336C37.3919 7.352 37.2319 7.36 37.1039 7.36C36.1919 7.36 35.4239 7.048 34.7999 6.424C34.1759 5.784 33.8639 5.008 33.8639 4.096C33.8639 3.184 34.1839 2.416 34.8239 1.792C35.4479 1.168 36.2159 0.855999 37.1279 0.855999C37.9599 0.855999 38.6559 1.104 39.2159 1.6C39.7759 2.08 40.1359 2.736 40.2959 3.568C39.9279 3.712 39.5359 3.824 39.1199 3.904ZM49.9199 10.672C49.1039 9.248 48.1039 8.536 46.9199 8.536C46.0399 8.536 45.3119 8.824 44.7359 9.4C44.1599 9.976 43.8719 10.704 43.8719 11.584C43.8719 12.896 44.5039 13.848 45.7679 14.44C45.8799 13.176 46.4319 12.272 47.4239 11.728C47.9199 11.456 48.4479 11.32 49.0079 11.32C49.5679 11.32 50.0239 11.448 50.3759 11.704C50.7919 12.008 50.9999 12.424 50.9999 12.952C50.9999 13.288 50.7919 13.744 50.3759 14.32C49.5759 15.424 48.4239 15.976 46.9199 15.976C45.6399 15.976 44.5839 15.568 43.7519 14.752C42.9359 13.92 42.5279 12.864 42.5279 11.584C42.5279 10.304 42.9359 9.256 43.7519 8.44C44.5839 7.624 45.6399 7.216 46.9199 7.216C48.6319 7.216 50.0079 8.16 51.0479 10.048L49.9199 10.672ZM48.8879 12.592C48.2959 12.592 47.7999 12.784 47.3999 13.168C46.9999 13.552 46.7919 14.04 46.7759 14.632H46.9199C47.8639 14.632 48.6399 14.304 49.2479 13.648C49.3439 13.488 49.4639 13.312 49.6079 13.12C49.6239 13.04 49.6319 12.976 49.6319 12.928C49.6319 12.704 49.3839 12.592 48.8879 12.592ZM56.6459 16C55.3499 16 54.2859 15.592 53.4539 14.776C52.6379 13.96 52.2299 12.904 52.2299 11.608C52.2299 9.8 53.0779 8.48 54.7739 7.648L55.6139 8.656C54.2379 9.504 53.5499 10.488 53.5499 11.608C53.5499 12.28 53.7419 12.888 54.1259 13.432C54.8299 12.664 55.6699 12.264 56.6459 12.232C57.6059 12.2 58.4779 12.528 59.2619 13.216C59.5499 12.72 59.6939 12.184 59.6939 11.608C59.6939 10.504 59.0059 9.528 57.6299 8.68L58.5419 7.696L58.9259 7.888C60.3019 8.576 60.9899 9.816 60.9899 11.608C60.9899 12.888 60.5819 13.944 59.7659 14.776C58.9659 15.592 57.9259 16 56.6459 16ZM56.6699 13.336C55.9659 13.432 55.3979 13.72 54.9659 14.2C55.4939 14.52 56.0539 14.68 56.6459 14.68C57.3019 14.68 57.9179 14.456 58.4939 14.008C57.9979 13.608 57.3899 13.384 56.6699 13.336ZM64.2359 15.976C63.9799 15.976 63.5799 15.912 63.0359 15.784V14.416C63.5479 14.56 63.9479 14.632 64.2359 14.632C65.1319 14.632 65.8599 14.352 66.4199 13.792C66.9959 13.216 67.2839 12.48 67.2839 11.584C67.2839 10.72 66.9879 10 66.3959 9.424C65.8199 8.832 65.0999 8.536 64.2359 8.536C62.8279 8.536 61.8519 9.312 61.3079 10.864C61.2919 10.944 61.2199 11.136 61.0919 11.44L59.9159 10.744L60.0119 10.408C60.6199 8.28 62.0279 7.216 64.2359 7.216C65.4999 7.216 66.5479 7.632 67.3799 8.464C68.2119 9.28 68.6279 10.32 68.6279 11.584C68.6279 12.88 68.2199 13.936 67.4039 14.752C66.5879 15.568 65.5319 15.976 64.2359 15.976ZM77.924 13.744C77.62 14.416 77.084 14.96 76.316 15.376C75.612 15.776 74.868 15.976 74.084 15.976C72.804 15.976 71.748 15.568 70.916 14.752C70.1 13.92 69.692 12.864 69.692 11.584C69.692 10.304 70.1 9.256 70.916 8.44C71.748 7.624 72.804 7.216 74.084 7.216C75.796 7.216 77.172 8.16 78.212 10.048L77.084 10.672C76.268 9.248 75.268 8.536 74.084 8.536C73.204 8.536 72.476 8.824 71.9 9.4C71.324 9.976 71.036 10.704 71.036 11.584C71.036 12.464 71.324 13.192 71.9 13.768C72.476 14.344 73.204 14.632 74.084 14.632C75.268 14.632 76.268 13.92 77.084 12.496L78.212 13.12L77.924 13.744ZM76.034 3.904C76.002 3.92 75.97 3.928 75.938 3.928C75.906 3.928 75.89 3.912 75.89 3.88C75.842 3.368 75.65 2.952 75.314 2.632C74.962 2.312 74.53 2.152 74.018 2.152C73.442 2.152 72.978 2.336 72.626 2.704C72.258 3.056 72.074 3.52 72.074 4.096C72.074 4.64 72.258 5.096 72.626 5.464C72.978 5.816 73.426 5.992 73.97 5.992C74.082 5.992 74.258 5.976 74.498 5.944V7.336C74.306 7.352 74.146 7.36 74.018 7.36C73.106 7.36 72.338 7.048 71.714 6.424C71.09 5.784 70.778 5.008 70.778 4.096C70.778 3.184 71.098 2.416 71.738 1.792C72.362 1.168 73.13 0.855999 74.042 0.855999C74.874 0.855999 75.57 1.104 76.13 1.6C76.69 2.08 77.05 2.736 77.21 3.568C76.842 3.712 76.45 3.824 76.034 3.904ZM81.074 11.056C80.578 11.056 80.17 10.896 79.85 10.576C79.546 10.256 79.394 9.848 79.394 9.352C79.394 8.872 79.554 8.472 79.874 8.152C80.194 7.816 80.594 7.648 81.074 7.648C81.554 7.648 81.954 7.816 82.274 8.152C82.594 8.472 82.754 8.872 82.754 9.352C82.754 9.848 82.594 10.256 82.274 10.576C81.97 10.896 81.57 11.056 81.074 11.056ZM81.074 15.688C80.578 15.688 80.17 15.528 79.85 15.208C79.546 14.888 79.394 14.48 79.394 13.984C79.394 13.504 79.554 13.104 79.874 12.784C80.194 12.448 80.594 12.28 81.074 12.28C81.57 12.28 81.97 12.44 82.274 12.76C82.594 13.08 82.754 13.488 82.754 13.984C82.754 14.48 82.594 14.888 82.274 15.208C81.97 15.528 81.57 15.688 81.074 15.688ZM81.074 8.8C80.738 8.8 80.57 8.984 80.57 9.352C80.57 9.688 80.738 9.856 81.074 9.856C81.442 9.856 81.626 9.688 81.626 9.352C81.626 8.984 81.442 8.8 81.074 8.8ZM81.074 13.456C80.738 13.456 80.57 13.632 80.57 13.984C80.57 14.352 80.738 14.536 81.074 14.536C81.442 14.536 81.626 14.352 81.626 13.984C81.626 13.632 81.442 13.456 81.074 13.456ZM88.7225 16H87.5465C86.2825 16 85.4665 15.944 85.0985 15.832C84.2665 15.576 83.8185 15.048 83.7545 14.248C83.6265 12.632 84.4825 11.824 86.3225 11.824C87.7945 11.824 88.6105 12.44 88.7705 13.672V14.704C90.1785 14.704 90.9385 14.464 91.0505 13.984C91.1625 13.44 90.6185 12.864 89.4185 12.256C89.0665 12.08 88.2185 11.672 86.8745 11.032C85.8985 10.568 85.4105 9.92 85.4105 9.088C85.4105 7.856 86.2825 7.24 88.0265 7.24C88.5545 7.24 89.0265 7.32 89.4425 7.48C90.2265 7.784 90.6185 8.224 90.6185 8.8C90.6185 8.928 90.5465 9.064 90.4025 9.208H89.0825C89.1785 9.08 89.2265 8.976 89.2265 8.896C89.2265 8.848 89.2105 8.784 89.1785 8.704C89.0345 8.656 88.6505 8.608 88.0265 8.56C87.1785 8.496 86.7545 8.688 86.7545 9.136C86.7545 9.392 87.2585 9.752 88.2665 10.216L89.5385 10.792C91.4905 11.672 92.4665 12.696 92.4665 13.864C92.4665 15.288 91.2185 16 88.7225 16ZM87.2345 13.432C87.0265 13.224 86.7145 13.12 86.2985 13.12C85.9785 13.12 85.6905 13.224 85.4345 13.432C85.1785 13.624 85.0665 13.872 85.0985 14.176C85.1305 14.56 85.9225 14.736 87.4745 14.704C87.4585 14 87.3785 13.576 87.2345 13.432ZM88.2485 22.48H86.2565V21.16H87.5765V15.928H88.8725V21.712C88.8725 22.224 88.6645 22.48 88.2485 22.48ZM101.736 13.744C101.432 14.416 100.896 14.96 100.128 15.376C99.4245 15.776 98.6805 15.976 97.8965 15.976C96.6165 15.976 95.5605 15.568 94.7285 14.752C93.9125 13.92 93.5045 12.864 93.5045 11.584C93.5045 10.304 93.9125 9.256 94.7285 8.44C95.5605 7.624 96.6165 7.216 97.8965 7.216C99.6085 7.216 100.984 8.16 102.024 10.048L100.896 10.672C100.08 9.248 99.0805 8.536 97.8965 8.536C97.0165 8.536 96.2885 8.824 95.7125 9.4C95.1365 9.976 94.8485 10.704 94.8485 11.584C94.8485 12.464 95.1365 13.192 95.7125 13.768C96.2885 14.344 97.0165 14.632 97.8965 14.632C99.0805 14.632 100.08 13.92 100.896 12.496L102.024 13.12L101.736 13.744ZM99.8465 3.904C99.8145 3.92 99.7825 3.928 99.7505 3.928C99.7185 3.928 99.7025 3.912 99.7025 3.88C99.6545 3.368 99.4625 2.952 99.1265 2.632C98.7745 2.312 98.3425 2.152 97.8305 2.152C97.2545 2.152 96.7905 2.336 96.4385 2.704C96.0705 3.056 95.8865 3.52 95.8865 4.096C95.8865 4.64 96.0705 5.096 96.4385 5.464C96.7905 5.816 97.2385 5.992 97.7825 5.992C97.8945 5.992 98.0705 5.976 98.3105 5.944V7.336C98.1185 7.352 97.9585 7.36 97.8305 7.36C96.9185 7.36 96.1505 7.048 95.5265 6.424C94.9025 5.784 94.5905 5.008 94.5905 4.096C94.5905 3.184 94.9105 2.416 95.5505 1.792C96.1745 1.168 96.9425 0.855999 97.8545 0.855999C98.6865 0.855999 99.3825 1.104 99.9425 1.6C100.502 2.08 100.862 2.736 101.022 3.568C100.654 3.712 100.262 3.824 99.8465 3.904ZM97.9985 20.272C97.5345 20.272 97.1425 20.104 96.8225 19.768C96.5025 19.448 96.3425 19.056 96.3425 18.592C96.3425 18.112 96.5025 17.712 96.8225 17.392C97.1265 17.072 97.5185 16.912 97.9985 16.912C98.4785 16.912 98.8865 17.072 99.2225 17.392C99.5425 17.712 99.7025 18.112 99.7025 18.592C99.7025 19.056 99.5345 19.448 99.1985 19.768C98.8625 20.104 98.4625 20.272 97.9985 20.272ZM97.9985 18.064C97.6625 18.064 97.4945 18.24 97.4945 18.592C97.4945 18.944 97.6625 19.12 97.9985 19.12C98.3665 19.12 98.5505 18.944 98.5505 18.592C98.5505 18.24 98.3665 18.064 97.9985 18.064ZM12.6657 41.976C11.0657 41.976 9.81772 41.288 8.92172 39.912C8.00972 41.288 6.75372 41.976 5.15372 41.976C3.87372 41.976 2.81772 41.568 1.98572 40.752C1.15372 39.92 0.737719 38.864 0.737719 37.584C0.737719 35.856 1.51372 34.568 3.06572 33.72L3.64172 33.408L4.28972 34.56C2.80172 35.376 2.05772 36.384 2.05772 37.584C2.05772 38.464 2.35372 39.192 2.94572 39.768C3.53772 40.344 4.27372 40.632 5.15372 40.632C6.03372 40.632 6.76172 40.344 7.33772 39.768C7.91372 39.192 8.20172 38.464 8.20172 37.584C8.20172 36.4 7.49772 35.392 6.08972 34.56L6.68972 33.456C8.51372 34.48 9.46572 35.784 9.54572 37.368H9.61772V37.584C9.61772 38.464 9.90572 39.192 10.4817 39.768C11.0577 40.344 11.7857 40.632 12.6657 40.632C13.5617 40.632 14.2977 40.352 14.8737 39.792C15.4657 39.216 15.7617 38.48 15.7617 37.584C15.7617 36.72 15.4577 36 14.8497 35.424C14.2577 34.832 13.5297 34.536 12.6657 34.536C12.5057 34.536 12.2017 34.584 11.7537 34.68C11.6257 34.072 11.5457 33.632 11.5137 33.36C11.8977 33.264 12.2817 33.216 12.6657 33.216C13.9617 33.216 15.0177 33.624 15.8337 34.44C16.6657 35.24 17.0817 36.288 17.0817 37.584C17.0817 38.864 16.6657 39.92 15.8337 40.752C15.0017 41.568 13.9457 41.976 12.6657 41.976ZM20.314 41.976C20.058 41.976 19.658 41.912 19.114 41.784V40.416C19.626 40.56 20.026 40.632 20.314 40.632C21.21 40.632 21.938 40.352 22.498 39.792C23.074 39.216 23.362 38.48 23.362 37.584C23.362 36.72 23.066 36 22.474 35.424C21.898 34.832 21.178 34.536 20.314 34.536C18.906 34.536 17.93 35.312 17.386 36.864C17.37 36.944 17.298 37.136 17.17 37.44L15.994 36.744L16.09 36.408C16.698 34.28 18.106 33.216 20.314 33.216C21.578 33.216 22.626 33.632 23.458 34.464C24.29 35.28 24.706 36.32 24.706 37.584C24.706 38.88 24.298 39.936 23.482 40.752C22.666 41.568 21.61 41.976 20.314 41.976ZM33.2821 48.432C33.1381 48.464 32.8181 48.48 32.3221 48.48H27.9781C26.5061 48.48 25.7701 47.744 25.7701 46.272L25.7941 39.216L25.9861 39.192L27.1141 38.544C27.9301 39.968 28.9381 40.68 30.1381 40.68C31.0181 40.68 31.7461 40.392 32.3221 39.816C32.8981 39.224 33.1861 38.488 33.1861 37.608C33.1861 36.744 32.8901 36.016 32.2981 35.424C31.7221 34.832 31.0021 34.536 30.1381 34.536C28.9381 34.536 27.9301 35.248 27.1141 36.672L25.9861 36.048C27.0581 34.16 28.4421 33.216 30.1381 33.216C31.4341 33.216 32.4821 33.624 33.2821 34.44C34.0981 35.256 34.5061 36.312 34.5061 37.608C34.5061 38.92 34.1061 39.984 33.3061 40.8C32.5061 41.616 31.4501 42.024 30.1381 42.024C29.0501 42.024 28.0581 41.64 27.1621 40.872V46.224C27.1621 46.832 27.4341 47.136 27.9781 47.136H32.3461C32.8581 47.136 33.1141 46.936 33.1141 46.536V45.36H34.5061V46.512C34.5061 47.616 34.0981 48.256 33.2821 48.432ZM32.1121 29.904C32.0801 29.92 32.0481 29.928 32.0161 29.928C31.9841 29.928 31.9681 29.912 31.9681 29.88C31.9201 29.368 31.7281 28.952 31.3921 28.632C31.0401 28.312 30.6081 28.152 30.0961 28.152C29.5201 28.152 29.0561 28.336 28.7041 28.704C28.3361 29.056 28.1521 29.52 28.1521 30.096C28.1521 30.64 28.3361 31.096 28.7041 31.464C29.0561 31.816 29.5041 31.992 30.0481 31.992C30.1601 31.992 30.3361 31.976 30.5761 31.944V33.336C30.3841 33.352 30.2241 33.36 30.0961 33.36C29.1841 33.36 28.4161 33.048 27.7921 32.424C27.1681 31.784 26.8561 31.008 26.8561 30.096C26.8561 29.184 27.1761 28.416 27.8161 27.792C28.4401 27.168 29.2081 26.856 30.1201 26.856C30.9521 26.856 31.6481 27.104 32.2081 27.6C32.7681 28.08 33.1281 28.736 33.2881 29.568C32.9201 29.712 32.5281 29.824 32.1121 29.904ZM39.6961 38.472V38.4H39.5761L39.6001 37.104H40.3921C41.5441 37.104 42.1761 36.688 42.2881 35.856C42.1601 34.992 41.2081 34.56 39.4321 34.56C38.1841 34.56 37.3681 34.928 36.9841 35.664C36.8561 35.92 36.9361 36.048 37.2241 36.048H37.4881L37.3921 37.272H37.2241C36.1201 37.272 35.5681 36.76 35.5681 35.736C35.5681 34.84 36.0161 34.176 36.9121 33.744C37.6001 33.408 38.4401 33.24 39.4321 33.24C41.1761 33.24 42.4241 33.712 43.1761 34.656C44.0561 33.728 45.1361 33.264 46.4161 33.264C47.4561 33.264 48.3921 33.608 49.2241 34.296C50.2641 35.144 50.7841 36.264 50.7841 37.656C50.7841 38.696 50.4401 39.632 49.7521 40.464C48.8721 41.52 47.7601 42.048 46.4161 42.048C45.9361 42.048 45.4561 41.976 44.9761 41.832C44.7681 41.768 44.6641 41.592 44.6641 41.304C44.6641 40.744 44.6801 40.416 44.7121 40.32C44.8721 39.824 45.0561 39.488 45.2641 39.312C46.0001 38.672 46.7041 38.352 47.3761 38.352C48.0961 38.352 48.6881 38.544 49.1521 38.928C49.3601 38.544 49.4641 38.12 49.4641 37.656C49.4641 36.776 49.1761 36.04 48.6001 35.448C48.0241 34.856 47.2961 34.56 46.4161 34.56C45.1361 34.56 44.2001 35.144 43.6081 36.312C43.4961 36.84 43.2001 37.304 42.7201 37.704C43.4401 38.168 43.7601 38.808 43.6801 39.624C43.5201 41.208 42.1041 42 39.4321 42C38.5841 42 37.8001 41.856 37.0801 41.568C36.1361 41.2 35.6401 40.656 35.5921 39.936L35.5681 39.528L36.8881 39.216C36.9041 39.44 36.9361 39.696 36.9841 39.984C37.0961 40.192 37.4721 40.368 38.1121 40.512C38.6081 40.624 39.0481 40.68 39.4321 40.68C41.3041 40.68 42.2721 40.28 42.3361 39.48C42.3841 38.776 41.6801 38.424 40.2241 38.424C40.1121 38.408 39.9361 38.424 39.6961 38.472ZM47.4721 39.336C47.0401 39.336 46.6241 39.592 46.2241 40.104C46.1601 40.184 46.0801 40.384 45.9841 40.704C46.1601 40.72 46.3041 40.728 46.4161 40.728C47.1521 40.728 47.9121 40.376 48.6961 39.672C48.4081 39.448 48.0001 39.336 47.4721 39.336ZM59.2012 36.672C58.3852 35.248 57.3852 34.536 56.2012 34.536C55.3212 34.536 54.5932 34.824 54.0172 35.4C53.4412 35.976 53.1532 36.704 53.1532 37.584C53.1532 38.896 53.7852 39.848 55.0492 40.44C55.1612 39.176 55.7132 38.272 56.7052 37.728C57.2012 37.456 57.7292 37.32 58.2892 37.32C58.8492 37.32 59.3052 37.448 59.6572 37.704C60.0732 38.008 60.2812 38.424 60.2812 38.952C60.2812 39.288 60.0732 39.744 59.6572 40.32C58.8572 41.424 57.7052 41.976 56.2012 41.976C54.9212 41.976 53.8652 41.568 53.0332 40.752C52.2172 39.92 51.8092 38.864 51.8092 37.584C51.8092 36.304 52.2172 35.256 53.0332 34.44C53.8652 33.624 54.9212 33.216 56.2012 33.216C57.9132 33.216 59.2892 34.16 60.3292 36.048L59.2012 36.672ZM58.1692 38.592C57.5772 38.592 57.0812 38.784 56.6812 39.168C56.2812 39.552 56.0732 40.04 56.0572 40.632H56.2012C57.1452 40.632 57.9212 40.304 58.5292 39.648C58.6252 39.488 58.7452 39.312 58.8892 39.12C58.9052 39.04 58.9132 38.976 58.9132 38.928C58.9132 38.704 58.6652 38.592 58.1692 38.592ZM73.4152 42.024C71.8152 42.024 70.5672 41.344 69.6712 39.984C68.7752 41.328 67.5272 42 65.9272 42C64.4872 42 63.1832 41.264 62.0152 39.792L63.0952 38.976C64.0072 40.112 64.9512 40.68 65.9272 40.68C66.8072 40.68 67.5352 40.424 68.1112 39.912C68.7032 39.384 68.9992 38.688 68.9992 37.824V37.344C68.9992 36.512 68.6952 35.84 68.0872 35.328C67.4952 34.816 66.7752 34.56 65.9272 34.56C64.7752 34.56 63.7832 35.248 62.9512 36.624L61.7992 35.952L62.1352 35.376C62.9672 33.952 64.2312 33.24 65.9272 33.24C67.2232 33.24 68.2872 33.648 69.1192 34.464C69.9512 35.264 70.3672 36.312 70.3672 37.608V37.848C70.3672 38.696 70.6552 39.384 71.2312 39.912C71.8232 40.44 72.5512 40.704 73.4152 40.704C74.3112 40.704 75.0552 40.416 75.6472 39.84C76.2392 39.248 76.5352 38.504 76.5352 37.608C76.5352 36.728 76.2312 36 75.6232 35.424C75.0312 34.848 74.2952 34.56 73.4152 34.56C73.0632 34.56 72.4952 34.704 71.7112 34.992L71.2792 33.72L71.8792 33.504C72.3272 33.344 72.8392 33.264 73.4152 33.264C74.7432 33.264 75.8152 33.656 76.6312 34.44C77.4472 35.224 77.8552 36.28 77.8552 37.608C77.8552 38.904 77.4392 39.968 76.6072 40.8C75.7752 41.616 74.7112 42.024 73.4152 42.024ZM80.5115 37.056C80.0155 37.056 79.6075 36.896 79.2875 36.576C78.9835 36.256 78.8315 35.848 78.8315 35.352C78.8315 34.872 78.9915 34.472 79.3115 34.152C79.6315 33.816 80.0315 33.648 80.5115 33.648C80.9915 33.648 81.3915 33.816 81.7115 34.152C82.0315 34.472 82.1915 34.872 82.1915 35.352C82.1915 35.848 82.0315 36.256 81.7115 36.576C81.4075 36.896 81.0075 37.056 80.5115 37.056ZM80.5115 41.688C80.0155 41.688 79.6075 41.528 79.2875 41.208C78.9835 40.888 78.8315 40.48 78.8315 39.984C78.8315 39.504 78.9915 39.104 79.3115 38.784C79.6315 38.448 80.0315 38.28 80.5115 38.28C81.0075 38.28 81.4075 38.44 81.7115 38.76C82.0315 39.08 82.1915 39.488 82.1915 39.984C82.1915 40.48 82.0315 40.888 81.7115 41.208C81.4075 41.528 81.0075 41.688 80.5115 41.688ZM80.5115 34.8C80.1755 34.8 80.0075 34.984 80.0075 35.352C80.0075 35.688 80.1755 35.856 80.5115 35.856C80.8795 35.856 81.0635 35.688 81.0635 35.352C81.0635 34.984 80.8795 34.8 80.5115 34.8ZM80.5115 39.456C80.1755 39.456 80.0075 39.632 80.0075 39.984C80.0075 40.352 80.1755 40.536 80.5115 40.536C80.8795 40.536 81.0635 40.352 81.0635 39.984C81.0635 39.632 80.8795 39.456 80.5115 39.456ZM87.512 42C86.248 42 85.2 41.584 84.368 40.752C83.552 39.92 83.144 38.872 83.144 37.608C83.144 36.344 83.552 35.304 84.368 34.488C85.2 33.656 86.248 33.24 87.512 33.24C88.792 33.24 89.84 33.648 90.656 34.464C91.488 35.28 91.904 36.328 91.904 37.608C91.904 38.872 91.488 39.92 90.656 40.752C89.824 41.584 88.776 42 87.512 42ZM87.512 34.56C86.968 34.56 86.448 34.704 85.952 34.992C86.608 35.712 86.936 36.584 86.936 37.608C86.84 38.616 86.432 39.448 85.712 40.104C86.256 40.488 86.856 40.68 87.512 40.68C88.392 40.68 89.128 40.392 89.72 39.816C90.312 39.224 90.608 38.488 90.608 37.608C90.608 36.728 90.312 36 89.72 35.424C89.128 34.848 88.392 34.56 87.512 34.56ZM85.136 35.736C84.688 36.312 84.464 36.936 84.464 37.608C84.464 38.184 84.624 38.728 84.944 39.24C85.408 38.824 85.696 38.264 85.808 37.56C85.744 36.856 85.52 36.248 85.136 35.736ZM87.518 33.36C86.606 33.36 85.838 33.048 85.214 32.424C84.59 31.784 84.278 31.008 84.278 30.096C84.278 29.184 84.598 28.416 85.238 27.792C85.862 27.168 86.63 26.856 87.542 26.856C88.454 26.856 89.214 27.168 89.822 27.792C90.43 28.416 90.734 29.184 90.734 30.096C90.734 30.976 90.422 31.744 89.798 32.4C89.158 33.04 88.398 33.36 87.518 33.36ZM87.518 28.152C86.942 28.152 86.478 28.336 86.126 28.704C85.758 29.056 85.574 29.52 85.574 30.096C85.574 30.64 85.758 31.096 86.126 31.464C86.478 31.816 86.926 31.992 87.47 31.992C88.03 31.992 88.494 31.816 88.862 31.464C89.214 31.112 89.39 30.656 89.39 30.096C89.39 29.536 89.222 29.072 88.886 28.704C88.534 28.336 88.078 28.152 87.518 28.152ZM104.822 41.976C104.23 41.976 103.598 41.832 102.926 41.544L103.43 40.344C104.038 40.536 104.502 40.632 104.822 40.632C105.718 40.632 106.454 40.352 107.03 39.792C107.622 39.216 107.918 38.48 107.918 37.584C107.918 36.72 107.614 36 107.006 35.424C106.414 34.832 105.686 34.536 104.822 34.536C103.926 34.536 103.19 34.824 102.614 35.4C102.054 35.96 101.774 36.688 101.774 37.584V37.728L101.75 37.776C101.686 39.056 101.246 40.08 100.43 40.848C99.63 41.6 98.59 41.976 97.31 41.976C96.03 41.976 94.974 41.568 94.142 40.752C93.31 39.92 92.894 38.864 92.894 37.584C92.894 36.272 93.302 35.216 94.118 34.416C94.934 33.616 95.998 33.216 97.31 33.216C98.91 33.216 100.166 33.896 101.078 35.256C101.974 33.896 103.222 33.216 104.822 33.216C106.118 33.216 107.174 33.624 107.99 34.44C108.822 35.24 109.238 36.288 109.238 37.584C109.238 38.864 108.822 39.92 107.99 40.752C107.158 41.568 106.102 41.976 104.822 41.976ZM97.31 34.536C96.43 34.536 95.694 34.824 95.102 35.4C94.51 35.976 94.214 36.704 94.214 37.584C94.214 38.464 94.51 39.192 95.102 39.768C95.694 40.344 96.43 40.632 97.31 40.632C98.19 40.632 98.918 40.344 99.494 39.768C100.07 39.192 100.358 38.464 100.358 37.584C100.358 36.704 100.07 35.976 99.494 35.4C98.918 34.824 98.19 34.536 97.31 34.536ZM106.854 29.904C106.822 29.92 106.79 29.928 106.758 29.928C106.726 29.928 106.71 29.912 106.71 29.88C106.662 29.368 106.47 28.952 106.134 28.632C105.782 28.312 105.35 28.152 104.838 28.152C104.262 28.152 103.798 28.336 103.446 28.704C103.078 29.056 102.894 29.52 102.894 30.096C102.894 30.64 103.078 31.096 103.446 31.464C103.798 31.816 104.246 31.992 104.79 31.992C104.902 31.992 105.078 31.976 105.318 31.944V33.336C105.126 33.352 104.966 33.36 104.838 33.36C103.926 33.36 103.158 33.048 102.534 32.424C101.91 31.784 101.598 31.008 101.598 30.096C101.598 29.184 101.918 28.416 102.558 27.792C103.182 27.168 103.95 26.856 104.862 26.856C105.694 26.856 106.39 27.104 106.95 27.6C107.51 28.08 107.87 28.736 108.03 29.568C107.662 29.712 107.27 29.824 106.854 29.904ZM8.75859 64.472V64.4H8.63859L8.66259 63.104H9.45459C10.6066 63.104 11.2386 62.688 11.3506 61.856C11.2226 60.992 10.2706 60.56 8.49459 60.56C7.24659 60.56 6.43059 60.928 6.04659 61.664C5.91859 61.92 5.99859 62.048 6.28659 62.048H6.55059L6.45459 63.272H6.28659C5.18259 63.272 4.63059 62.76 4.63059 61.736C4.63059 60.84 5.07859 60.176 5.97459 59.744C6.66259 59.408 7.50259 59.24 8.49459 59.24C10.2386 59.24 11.4866 59.712 12.2386 60.656C13.1186 59.728 14.1986 59.264 15.4786 59.264C16.5186 59.264 17.4546 59.608 18.2866 60.296C19.3266 61.144 19.8466 62.264 19.8466 63.656C19.8466 64.696 19.5026 65.632 18.8146 66.464C17.9346 67.52 16.8226 68.048 15.4786 68.048C14.9986 68.048 14.5186 67.976 14.0386 67.832C13.8306 67.768 13.7266 67.592 13.7266 67.304C13.7266 66.744 13.7426 66.416 13.7746 66.32C13.9346 65.824 14.1186 65.488 14.3266 65.312C15.0626 64.672 15.7666 64.352 16.4386 64.352C17.1586 64.352 17.7506 64.544 18.2146 64.928C18.4226 64.544 18.5266 64.12 18.5266 63.656C18.5266 62.776 18.2386 62.04 17.6626 61.448C17.0866 60.856 16.3586 60.56 15.4786 60.56C14.1986 60.56 13.2626 61.144 12.6706 62.312C12.5586 62.84 12.2626 63.304 11.7826 63.704C12.5026 64.168 12.8226 64.808 12.7426 65.624C12.5826 67.208 11.1666 68 8.49459 68C7.64659 68 6.86259 67.856 6.14259 67.568C5.19859 67.2 4.70259 66.656 4.65459 65.936L4.63059 65.528L5.95059 65.216C5.96659 65.44 5.99859 65.696 6.04659 65.984C6.15859 66.192 6.53459 66.368 7.17459 66.512C7.67059 66.624 8.11059 66.68 8.49459 66.68C10.3666 66.68 11.3346 66.28 11.3986 65.48C11.4466 64.776 10.7426 64.424 9.28659 64.424C9.17459 64.408 8.99859 64.424 8.75859 64.472ZM16.5346 65.336C16.1026 65.336 15.6866 65.592 15.2866 66.104C15.2226 66.184 15.1426 66.384 15.0466 66.704C15.2226 66.72 15.3666 66.728 15.4786 66.728C16.2146 66.728 16.9746 66.376 17.7586 65.672C17.4706 65.448 17.0626 65.336 16.5346 65.336ZM25.2637 67.976C23.7597 67.976 22.6077 67.424 21.8077 66.32C21.4077 65.76 21.2077 65.304 21.2077 64.952C21.2077 64.44 21.4157 64.032 21.8317 63.728C22.1997 63.456 22.6477 63.32 23.1757 63.32C24.3597 63.32 25.2637 63.832 25.8877 64.856C26.1917 65.352 26.3757 65.88 26.4397 66.44C27.7037 65.848 28.3357 64.896 28.3357 63.584C28.3357 62.704 28.0397 61.976 27.4477 61.4C26.8717 60.824 26.1437 60.536 25.2637 60.536C24.0957 60.536 23.1037 61.248 22.2877 62.672L21.1117 62.048C22.1837 60.16 23.5677 59.216 25.2637 59.216C26.5437 59.216 27.5997 59.624 28.4317 60.44C29.2637 61.256 29.6797 62.304 29.6797 63.584C29.6797 64.864 29.2637 65.92 28.4317 66.752C27.5997 67.568 26.5437 67.976 25.2637 67.976ZM23.2957 64.592C22.7997 64.592 22.5517 64.704 22.5517 64.928C22.5517 64.976 22.5677 65.04 22.5997 65.12C22.7437 65.312 22.8637 65.488 22.9597 65.648C23.5517 66.304 24.3197 66.632 25.2637 66.632H25.4317C25.4157 66.024 25.2077 65.536 24.8077 65.168C24.4077 64.784 23.9037 64.592 23.2957 64.592ZM31.0777 74.432C30.9817 74.432 30.8617 74.416 30.7177 74.384L28.4617 73.904C27.7737 73.76 27.4217 73.432 27.4057 72.92L27.3817 72.224V66.056H28.7017V72.536L30.5257 72.968V59.24H31.8457V73.712C31.8457 74.192 31.5897 74.432 31.0777 74.432ZM41.6802 64.04H41.6082C41.5282 65.64 40.5762 66.952 38.7522 67.976L38.1522 66.848C39.5602 66.032 40.2642 65.024 40.2642 63.824C40.2642 62.944 39.9762 62.216 39.4002 61.64C38.8242 61.064 38.0962 60.776 37.2162 60.776C36.3362 60.776 35.6002 61.064 35.0082 61.64C34.4162 62.216 34.1202 62.944 34.1202 63.824C34.1202 65.04 34.8642 66.048 36.3522 66.848L35.7042 68L35.1282 67.688C33.5762 66.84 32.8002 65.552 32.8002 63.824C32.8002 62.512 33.2082 61.456 34.0242 60.656C34.8402 59.856 35.9042 59.456 37.2162 59.456C38.8162 59.456 40.0722 60.136 40.9842 61.496C41.8802 60.136 43.1282 59.456 44.7282 59.456C46.0242 59.456 47.0802 59.864 47.8962 60.68C48.7282 61.48 49.1442 62.528 49.1442 63.824C49.1442 65.104 48.7282 66.16 47.8962 66.992C47.0642 67.808 46.0082 68.216 44.7282 68.216C44.3442 68.216 43.9602 68.168 43.5762 68.072C43.6082 67.784 43.6882 67.344 43.8162 66.752C44.2642 66.832 44.5682 66.872 44.7282 66.872C45.6242 66.872 46.3602 66.592 46.9362 66.032C47.5282 65.456 47.8242 64.72 47.8242 63.824C47.8242 62.96 47.5202 62.24 46.9122 61.664C46.3202 61.072 45.5922 60.776 44.7282 60.776C43.8322 60.776 43.0962 61.064 42.5202 61.64C41.9602 62.2 41.6802 62.928 41.6802 63.824V64.04ZM46.7605 55.904C46.7285 55.92 46.6965 55.928 46.6645 55.928C46.6325 55.928 46.6165 55.912 46.6165 55.88C46.5685 55.368 46.3765 54.952 46.0405 54.632C45.6885 54.312 45.2565 54.152 44.7445 54.152C44.1685 54.152 43.7045 54.336 43.3525 54.704C42.9845 55.056 42.8005 55.52 42.8005 56.096C42.8005 56.64 42.9845 57.096 43.3525 57.464C43.7045 57.816 44.1525 57.992 44.6965 57.992C44.8085 57.992 44.9845 57.976 45.2245 57.944V59.336C45.0325 59.352 44.8725 59.36 44.7445 59.36C43.8325 59.36 43.0645 59.048 42.4405 58.424C41.8165 57.784 41.5045 57.008 41.5045 56.096C41.5045 55.184 41.8245 54.416 42.4645 53.792C43.0885 53.168 43.8565 52.856 44.7685 52.856C45.6005 52.856 46.2965 53.104 46.8565 53.6C47.4165 54.08 47.7765 54.736 47.9365 55.568C47.5685 55.712 47.1765 55.824 46.7605 55.904ZM54.3445 64.472V64.4H54.2245L54.2485 63.104H55.0405C56.1925 63.104 56.8245 62.688 56.9365 61.856C56.8085 60.992 55.8565 60.56 54.0805 60.56C52.8325 60.56 52.0165 60.928 51.6325 61.664C51.5045 61.92 51.5845 62.048 51.8725 62.048H52.1365L52.0405 63.272H51.8725C50.7685 63.272 50.2165 62.76 50.2165 61.736C50.2165 60.84 50.6645 60.176 51.5605 59.744C52.2485 59.408 53.0885 59.24 54.0805 59.24C55.8245 59.24 57.0725 59.712 57.8245 60.656C58.7045 59.728 59.7845 59.264 61.0645 59.264C62.1045 59.264 63.0405 59.608 63.8725 60.296C64.9125 61.144 65.4325 62.264 65.4325 63.656C65.4325 64.696 65.0885 65.632 64.4005 66.464C63.5205 67.52 62.4085 68.048 61.0645 68.048C60.5845 68.048 60.1045 67.976 59.6245 67.832C59.4165 67.768 59.3125 67.592 59.3125 67.304C59.3125 66.744 59.3285 66.416 59.3605 66.32C59.5205 65.824 59.7045 65.488 59.9125 65.312C60.6485 64.672 61.3525 64.352 62.0245 64.352C62.7445 64.352 63.3365 64.544 63.8005 64.928C64.0085 64.544 64.1125 64.12 64.1125 63.656C64.1125 62.776 63.8245 62.04 63.2485 61.448C62.6725 60.856 61.9445 60.56 61.0645 60.56C59.7845 60.56 58.8485 61.144 58.2565 62.312C58.1445 62.84 57.8485 63.304 57.3685 63.704C58.0885 64.168 58.4085 64.808 58.3285 65.624C58.1685 67.208 56.7525 68 54.0805 68C53.2325 68 52.4485 67.856 51.7285 67.568C50.7845 67.2 50.2885 66.656 50.2405 65.936L50.2165 65.528L51.5365 65.216C51.5525 65.44 51.5845 65.696 51.6325 65.984C51.7445 66.192 52.1205 66.368 52.7605 66.512C53.2565 66.624 53.6965 66.68 54.0805 66.68C55.9525 66.68 56.9205 66.28 56.9845 65.48C57.0325 64.776 56.3285 64.424 54.8725 64.424C54.7605 64.408 54.5845 64.424 54.3445 64.472ZM62.1205 65.336C61.6885 65.336 61.2725 65.592 60.8725 66.104C60.8085 66.184 60.7285 66.384 60.6325 66.704C60.8085 66.72 60.9525 66.728 61.0645 66.728C61.8005 66.728 62.5605 66.376 63.3445 65.672C63.0565 65.448 62.6485 65.336 62.1205 65.336ZM78.3376 68C76.9776 68 75.8896 67.608 75.0736 66.824C74.2736 66.04 73.8736 64.968 73.8736 63.608C73.8736 62.728 73.5856 62 73.0096 61.424C72.4336 60.848 71.7056 60.56 70.8256 60.56C69.9616 60.56 69.2256 60.856 68.6176 61.448C68.0256 62.024 67.7296 62.744 67.7296 63.608C67.7296 64.552 68.0256 65.328 68.6176 65.936C69.2256 66.528 70.0016 66.8 70.9456 66.752L70.7296 68.072L70.0816 67.952C68.9776 67.744 68.0896 67.248 67.4176 66.464C66.7456 65.68 66.4096 64.728 66.4096 63.608C66.4096 62.328 66.8256 61.28 67.6576 60.464C68.4896 59.648 69.5456 59.24 70.8256 59.24C72.1216 59.24 73.1856 59.648 74.0176 60.464C74.8496 61.264 75.2656 62.312 75.2656 63.608C75.2656 64.504 75.5536 65.24 76.1296 65.816C76.7056 66.392 77.4416 66.68 78.3376 66.68C79.2176 66.68 79.9536 66.392 80.5456 65.816C81.1376 65.224 81.4336 64.488 81.4336 63.608C81.4336 62.728 81.1376 62 80.5456 61.424C79.9536 60.848 79.2176 60.56 78.3376 60.56C78.0336 60.56 77.5616 60.672 76.9216 60.896L77.0176 59.408C77.4656 59.296 77.9056 59.24 78.3376 59.24C79.6176 59.24 80.6736 59.648 81.5056 60.464C82.3376 61.28 82.7536 62.328 82.7536 63.608C82.7536 64.904 82.3376 65.96 81.5056 66.776C80.6896 67.592 79.6336 68 78.3376 68ZM92.6099 64.04H92.5379C92.4579 65.64 91.5059 66.952 89.6819 67.976L89.0819 66.848C90.4899 66.032 91.1939 65.024 91.1939 63.824C91.1939 62.944 90.9059 62.216 90.3299 61.64C89.7539 61.064 89.0259 60.776 88.1459 60.776C87.2659 60.776 86.5299 61.064 85.9379 61.64C85.3459 62.216 85.0499 62.944 85.0499 63.824C85.0499 65.04 85.7939 66.048 87.2819 66.848L86.6339 68L86.0579 67.688C84.5059 66.84 83.7299 65.552 83.7299 63.824C83.7299 62.512 84.1379 61.456 84.9539 60.656C85.7699 59.856 86.8339 59.456 88.1459 59.456C89.7459 59.456 91.0019 60.136 91.9139 61.496C92.8099 60.136 94.0579 59.456 95.6579 59.456C96.9539 59.456 98.0099 59.864 98.8259 60.68C99.6579 61.48 100.074 62.528 100.074 63.824C100.074 65.104 99.6579 66.16 98.8259 66.992C97.9939 67.808 96.9379 68.216 95.6579 68.216C95.2739 68.216 94.8899 68.168 94.5059 68.072C94.5379 67.784 94.6179 67.344 94.7459 66.752C95.1939 66.832 95.4979 66.872 95.6579 66.872C96.5539 66.872 97.2899 66.592 97.8659 66.032C98.4579 65.456 98.7539 64.72 98.7539 63.824C98.7539 62.96 98.4499 62.24 97.8419 61.664C97.2499 61.072 96.5219 60.776 95.6579 60.776C94.7619 60.776 94.0259 61.064 93.4499 61.64C92.8899 62.2 92.6099 62.928 92.6099 63.824V64.04ZM97.6902 55.904C97.6582 55.92 97.6262 55.928 97.5942 55.928C97.5622 55.928 97.5462 55.912 97.5462 55.88C97.4982 55.368 97.3062 54.952 96.9702 54.632C96.6182 54.312 96.1862 54.152 95.6742 54.152C95.0982 54.152 94.6342 54.336 94.2822 54.704C93.9142 55.056 93.7302 55.52 93.7302 56.096C93.7302 56.64 93.9142 57.096 94.2822 57.464C94.6342 57.816 95.0822 57.992 95.6262 57.992C95.7382 57.992 95.9142 57.976 96.1542 57.944V59.336C95.9622 59.352 95.8022 59.36 95.6742 59.36C94.7622 59.36 93.9942 59.048 93.3702 58.424C92.7462 57.784 92.4342 57.008 92.4342 56.096C92.4342 55.184 92.7542 54.416 93.3942 53.792C94.0182 53.168 94.7862 52.856 95.6982 52.856C96.5302 52.856 97.2262 53.104 97.7862 53.6C98.3462 54.08 98.7062 54.736 98.8662 55.568C98.4982 55.712 98.1062 55.824 97.6902 55.904ZM103.618 68V59.936H104.938V68H103.618ZM101.554 68V59.936H102.874V68H101.554Z" fill="white"/>
</svg>
