<svg width="136" height="49" viewBox="0 0 136 49" fill="none" xmlns="http://www.w3.org/2000/svg">
<path d="M8.30397 22.48C7.87197 22.48 7.65597 22.224 7.65597 21.712V11.608C7.65597 10.728 7.36797 10 6.79197 9.424C6.21597 8.832 5.48797 8.536 4.60797 8.536C3.72797 8.536 2.99997 8.832 2.42397 9.424C1.84797 10 1.55997 10.728 1.55997 11.608V11.704C1.87997 11.608 2.23197 11.56 2.61597 11.56C3.55997 11.56 4.38397 11.832 5.08797 12.376C5.85597 12.968 6.23997 13.72 6.23997 14.632C6.23997 15.592 5.76797 16.072 4.82397 16.072C4.64797 16.072 4.47997 16.056 4.31997 16.024C3.03997 15.944 2.03197 15.512 1.29597 14.728C0.575969 13.928 0.215969 12.888 0.215969 11.608C0.215969 10.328 0.623969 9.28 1.43997 8.464C2.27197 7.632 3.32797 7.216 4.60797 7.216C5.88797 7.216 6.94397 7.632 7.77597 8.464C8.60797 9.28 9.02397 10.328 9.02397 11.608V21.16H9.88797V22.48H8.30397ZM4.89597 14.44C4.89597 13.832 4.57597 13.352 3.93597 13C3.37597 12.68 2.77597 12.544 2.13597 12.592L1.79997 12.712C1.84797 12.888 1.93597 13.064 2.06397 13.24C2.78397 14.248 3.54397 14.752 4.34397 14.752C4.53597 14.752 4.67997 14.712 4.77597 14.632L4.89597 14.536V14.44ZM4.68597 22.48H2.69397V21.16H4.01397V15.928H5.30997V21.712C5.30997 22.224 5.10197 22.48 4.68597 22.48ZM18.174 13.744C17.87 14.416 17.334 14.96 16.566 15.376C15.862 15.776 15.118 15.976 14.334 15.976C13.054 15.976 11.998 15.568 11.166 14.752C10.35 13.92 9.94197 12.864 9.94197 11.584C9.94197 10.304 10.35 9.256 11.166 8.44C11.998 7.624 13.054 7.216 14.334 7.216C16.046 7.216 17.422 8.16 18.462 10.048L17.334 10.672C16.518 9.248 15.518 8.536 14.334 8.536C13.454 8.536 12.726 8.824 12.15 9.4C11.574 9.976 11.286 10.704 11.286 11.584C11.286 12.464 11.574 13.192 12.15 13.768C12.726 14.344 13.454 14.632 14.334 14.632C15.518 14.632 16.518 13.92 17.334 12.496L18.462 13.12L18.174 13.744ZM16.284 3.904C16.252 3.92 16.22 3.928 16.188 3.928C16.156 3.928 16.14 3.912 16.14 3.88C16.092 3.368 15.9 2.952 15.564 2.632C15.212 2.312 14.78 2.152 14.268 2.152C13.692 2.152 13.228 2.336 12.876 2.704C12.508 3.056 12.324 3.52 12.324 4.096C12.324 4.64 12.508 5.096 12.876 5.464C13.228 5.816 13.676 5.992 14.22 5.992C14.332 5.992 14.508 5.976 14.748 5.944V7.336C14.556 7.352 14.396 7.36 14.268 7.36C13.356 7.36 12.588 7.048 11.964 6.424C11.34 5.784 11.028 5.008 11.028 4.096C11.028 3.184 11.348 2.416 11.988 1.792C12.612 1.168 13.38 0.855999 14.292 0.855999C15.124 0.855999 15.82 1.104 16.38 1.6C16.94 2.08 17.3 2.736 17.46 3.568C17.092 3.712 16.7 3.824 16.284 3.904ZM21.324 11.056C20.828 11.056 20.42 10.896 20.1 10.576C19.796 10.256 19.644 9.848 19.644 9.352C19.644 8.872 19.804 8.472 20.124 8.152C20.444 7.816 20.844 7.648 21.324 7.648C21.804 7.648 22.204 7.816 22.524 8.152C22.844 8.472 23.004 8.872 23.004 9.352C23.004 9.848 22.844 10.256 22.524 10.576C22.22 10.896 21.82 11.056 21.324 11.056ZM21.324 15.688C20.828 15.688 20.42 15.528 20.1 15.208C19.796 14.888 19.644 14.48 19.644 13.984C19.644 13.504 19.804 13.104 20.124 12.784C20.444 12.448 20.844 12.28 21.324 12.28C21.82 12.28 22.22 12.44 22.524 12.76C22.844 13.08 23.004 13.488 23.004 13.984C23.004 14.48 22.844 14.888 22.524 15.208C22.22 15.528 21.82 15.688 21.324 15.688ZM21.324 8.8C20.988 8.8 20.82 8.984 20.82 9.352C20.82 9.688 20.988 9.856 21.324 9.856C21.692 9.856 21.876 9.688 21.876 9.352C21.876 8.984 21.692 8.8 21.324 8.8ZM21.324 13.456C20.988 13.456 20.82 13.632 20.82 13.984C20.82 14.352 20.988 14.536 21.324 14.536C21.692 14.536 21.876 14.352 21.876 13.984C21.876 13.632 21.692 13.456 21.324 13.456ZM35.8845 16C34.5245 16 33.4365 15.608 32.6205 14.824C31.8205 14.04 31.4205 12.968 31.4205 11.608C31.4205 10.728 31.1325 10 30.5565 9.424C29.9805 8.848 29.2525 8.56 28.3725 8.56C27.5085 8.56 26.7725 8.856 26.1645 9.448C25.5725 10.024 25.2765 10.744 25.2765 11.608C25.2765 12.552 25.5725 13.328 26.1645 13.936C26.7725 14.528 27.5485 14.8 28.4925 14.752L28.2765 16.072L27.6285 15.952C26.5245 15.744 25.6365 15.248 24.9645 14.464C24.2925 13.68 23.9565 12.728 23.9565 11.608C23.9565 10.328 24.3725 9.28 25.2045 8.464C26.0365 7.648 27.0925 7.24 28.3725 7.24C29.6685 7.24 30.7325 7.648 31.5645 8.464C32.3965 9.264 32.8125 10.312 32.8125 11.608C32.8125 12.504 33.1005 13.24 33.6765 13.816C34.2525 14.392 34.9885 14.68 35.8845 14.68C36.7645 14.68 37.5005 14.392 38.0925 13.816C38.6845 13.224 38.9805 12.488 38.9805 11.608C38.9805 10.728 38.6845 10 38.0925 9.424C37.5005 8.848 36.7645 8.56 35.8845 8.56C35.5805 8.56 35.1085 8.672 34.4685 8.896L34.5645 7.408C35.0125 7.296 35.4525 7.24 35.8845 7.24C37.1645 7.24 38.2205 7.648 39.0525 8.464C39.8845 9.28 40.3005 10.328 40.3005 11.608C40.3005 12.904 39.8845 13.96 39.0525 14.776C38.2365 15.592 37.1805 16 35.8845 16ZM49.5568 13.744C49.2528 14.416 48.7168 14.96 47.9488 15.376C47.2448 15.776 46.5008 15.976 45.7168 15.976C44.4368 15.976 43.3808 15.568 42.5488 14.752C41.7328 13.92 41.3248 12.864 41.3248 11.584C41.3248 10.304 41.7328 9.256 42.5488 8.44C43.3808 7.624 44.4368 7.216 45.7168 7.216C47.4288 7.216 48.8048 8.16 49.8448 10.048L48.7168 10.672C47.9008 9.248 46.9008 8.536 45.7168 8.536C44.8368 8.536 44.1088 8.824 43.5328 9.4C42.9568 9.976 42.6688 10.704 42.6688 11.584C42.6688 12.464 42.9568 13.192 43.5328 13.768C44.1088 14.344 44.8368 14.632 45.7168 14.632C46.9008 14.632 47.9008 13.92 48.7168 12.496L49.8448 13.12L49.5568 13.744ZM47.6668 3.904C47.6348 3.92 47.6028 3.928 47.5708 3.928C47.5388 3.928 47.5228 3.912 47.5228 3.88C47.4748 3.368 47.2828 2.952 46.9468 2.632C46.5948 2.312 46.1628 2.152 45.6508 2.152C45.0748 2.152 44.6108 2.336 44.2588 2.704C43.8908 3.056 43.7068 3.52 43.7068 4.096C43.7068 4.64 43.8908 5.096 44.2588 5.464C44.6108 5.816 45.0588 5.992 45.6028 5.992C45.7148 5.992 45.8908 5.976 46.1308 5.944V7.336C45.9388 7.352 45.7788 7.36 45.6508 7.36C44.7388 7.36 43.9708 7.048 43.3468 6.424C42.7228 5.784 42.4108 5.008 42.4108 4.096C42.4108 3.184 42.7308 2.416 43.3708 1.792C43.9948 1.168 44.7628 0.855999 45.6748 0.855999C46.5068 0.855999 47.2028 1.104 47.7628 1.6C48.3228 2.08 48.6828 2.736 48.8428 3.568C48.4748 3.712 48.0828 3.824 47.6668 3.904ZM52.7068 11.056C52.2108 11.056 51.8028 10.896 51.4828 10.576C51.1788 10.256 51.0268 9.848 51.0268 9.352C51.0268 8.872 51.1868 8.472 51.5068 8.152C51.8268 7.816 52.2268 7.648 52.7068 7.648C53.1868 7.648 53.5868 7.816 53.9068 8.152C54.2268 8.472 54.3868 8.872 54.3868 9.352C54.3868 9.848 54.2268 10.256 53.9068 10.576C53.6028 10.896 53.2028 11.056 52.7068 11.056ZM52.7068 15.688C52.2108 15.688 51.8028 15.528 51.4828 15.208C51.1788 14.888 51.0268 14.48 51.0268 13.984C51.0268 13.504 51.1868 13.104 51.5068 12.784C51.8268 12.448 52.2268 12.28 52.7068 12.28C53.2028 12.28 53.6028 12.44 53.9068 12.76C54.2268 13.08 54.3868 13.488 54.3868 13.984C54.3868 14.48 54.2268 14.888 53.9068 15.208C53.6028 15.528 53.2028 15.688 52.7068 15.688ZM52.7068 8.8C52.3708 8.8 52.2028 8.984 52.2028 9.352C52.2028 9.688 52.3708 9.856 52.7068 9.856C53.0748 9.856 53.2588 9.688 53.2588 9.352C53.2588 8.984 53.0748 8.8 52.7068 8.8ZM52.7068 13.456C52.3708 13.456 52.2028 13.632 52.2028 13.984C52.2028 14.352 52.3708 14.536 52.7068 14.536C53.0748 14.536 53.2588 14.352 53.2588 13.984C53.2588 13.632 53.0748 13.456 52.7068 13.456ZM66.4033 4.24H65.0113V2.992C65.0113 2.432 64.8193 2.152 64.4353 2.152H57.5953C57.2593 2.152 57.0353 2.232 56.9233 2.392C56.8273 2.536 56.7793 2.792 56.7793 3.16V20.224C56.7793 20.832 57.0513 21.136 57.5953 21.136H64.2193C64.7313 21.136 64.9873 20.936 64.9873 20.536V12.544H66.4033V20.512C66.4033 21.824 65.6673 22.48 64.1953 22.48H57.5953C56.1073 22.48 55.3633 21.744 55.3633 20.272L55.3393 3.04C55.3393 1.568 56.0913 0.831999 57.5953 0.831999H64.6033C65.8353 0.831999 66.4433 1.488 66.4273 2.8L66.4033 4.24ZM62.0053 16C60.7093 16 59.6453 15.592 58.8133 14.776C57.9973 13.96 57.5893 12.904 57.5893 11.608C57.5893 9.8 58.4373 8.48 60.1333 7.648L60.9733 8.656C59.5973 9.504 58.9093 10.488 58.9093 11.608C58.9093 12.28 59.1013 12.888 59.4853 13.432C60.1893 12.664 61.0293 12.264 62.0053 12.232C62.9653 12.2 63.8373 12.528 64.6213 13.216C64.9093 12.72 65.0533 12.184 65.0533 11.608C65.0533 10.504 64.3653 9.528 62.9893 8.68L63.9013 7.696L64.2853 7.888C65.6613 8.576 66.3493 9.816 66.3493 11.608C66.3493 12.888 65.9413 13.944 65.1253 14.776C64.3253 15.592 63.2853 16 62.0053 16ZM62.0293 13.336C61.3253 13.432 60.7573 13.72 60.3253 14.2C60.8533 14.52 61.4133 14.68 62.0053 14.68C62.6613 14.68 63.2773 14.456 63.8533 14.008C63.3573 13.608 62.7493 13.384 62.0293 13.336ZM75.6193 13.744C75.3153 14.416 74.7793 14.96 74.0113 15.376C73.3073 15.776 72.5633 15.976 71.7793 15.976C70.4993 15.976 69.4433 15.568 68.6113 14.752C67.7953 13.92 67.3873 12.864 67.3873 11.584C67.3873 10.304 67.7953 9.256 68.6113 8.44C69.4433 7.624 70.4993 7.216 71.7793 7.216C73.4913 7.216 74.8673 8.16 75.9073 10.048L74.7793 10.672C73.9633 9.248 72.9633 8.536 71.7793 8.536C70.8993 8.536 70.1713 8.824 69.5953 9.4C69.0193 9.976 68.7313 10.704 68.7313 11.584C68.7313 12.464 69.0193 13.192 69.5953 13.768C70.1713 14.344 70.8993 14.632 71.7793 14.632C72.9633 14.632 73.9633 13.92 74.7793 12.496L75.9073 13.12L75.6193 13.744ZM73.7293 3.904C73.6973 3.92 73.6653 3.928 73.6333 3.928C73.6013 3.928 73.5853 3.912 73.5853 3.88C73.5373 3.368 73.3453 2.952 73.0093 2.632C72.6573 2.312 72.2253 2.152 71.7133 2.152C71.1373 2.152 70.6733 2.336 70.3213 2.704C69.9533 3.056 69.7693 3.52 69.7693 4.096C69.7693 4.64 69.9533 5.096 70.3213 5.464C70.6733 5.816 71.1213 5.992 71.6653 5.992C71.7773 5.992 71.9533 5.976 72.1933 5.944V7.336C72.0013 7.352 71.8413 7.36 71.7133 7.36C70.8013 7.36 70.0333 7.048 69.4093 6.424C68.7853 5.784 68.4733 5.008 68.4733 4.096C68.4733 3.184 68.7933 2.416 69.4333 1.792C70.0573 1.168 70.8253 0.855999 71.7373 0.855999C72.5693 0.855999 73.2653 1.104 73.8253 1.6C74.3853 2.08 74.7453 2.736 74.9053 3.568C74.5373 3.712 74.1453 3.824 73.7293 3.904ZM88.9933 16.024C87.3933 16.024 86.1453 15.344 85.2493 13.984C84.3533 15.328 83.1053 16 81.5053 16C80.0653 16 78.7613 15.264 77.5933 13.792L78.6733 12.976C79.5853 14.112 80.5293 14.68 81.5053 14.68C82.3853 14.68 83.1133 14.424 83.6893 13.912C84.2813 13.384 84.5773 12.688 84.5773 11.824V11.344C84.5773 10.512 84.2733 9.84 83.6653 9.328C83.0733 8.816 82.3533 8.56 81.5053 8.56C80.3533 8.56 79.3613 9.248 78.5293 10.624L77.3773 9.952L77.7133 9.376C78.5453 7.952 79.8093 7.24 81.5053 7.24C82.8013 7.24 83.8653 7.648 84.6973 8.464C85.5293 9.264 85.9453 10.312 85.9453 11.608V11.848C85.9453 12.696 86.2333 13.384 86.8093 13.912C87.4013 14.44 88.1293 14.704 88.9933 14.704C89.8893 14.704 90.6333 14.416 91.2253 13.84C91.8173 13.248 92.1133 12.504 92.1133 11.608C92.1133 10.728 91.8093 10 91.2013 9.424C90.6093 8.848 89.8733 8.56 88.9933 8.56C88.6413 8.56 88.0733 8.704 87.2893 8.992L86.8573 7.72L87.4573 7.504C87.9053 7.344 88.4173 7.264 88.9933 7.264C90.3213 7.264 91.3933 7.656 92.2093 8.44C93.0253 9.224 93.4333 10.28 93.4333 11.608C93.4333 12.904 93.0173 13.968 92.1853 14.8C91.3533 15.616 90.2893 16.024 88.9933 16.024ZM96.6656 15.976C96.4096 15.976 96.0096 15.912 95.4656 15.784V14.416C95.9776 14.56 96.3776 14.632 96.6656 14.632C97.5616 14.632 98.2896 14.352 98.8496 13.792C99.4256 13.216 99.7136 12.48 99.7136 11.584C99.7136 10.72 99.4176 10 98.8256 9.424C98.2496 8.832 97.5296 8.536 96.6656 8.536C95.2576 8.536 94.2816 9.312 93.7376 10.864C93.7216 10.944 93.6496 11.136 93.5216 11.44L92.3456 10.744L92.4416 10.408C93.0496 8.28 94.4576 7.216 96.6656 7.216C97.9296 7.216 98.9776 7.632 99.8096 8.464C100.642 9.28 101.058 10.32 101.058 11.584C101.058 12.88 100.65 13.936 99.8336 14.752C99.0176 15.568 97.9616 15.976 96.6656 15.976ZM109.514 10.672C108.698 9.248 107.698 8.536 106.514 8.536C105.634 8.536 104.906 8.824 104.33 9.4C103.754 9.976 103.466 10.704 103.466 11.584C103.466 12.896 104.098 13.848 105.362 14.44C105.474 13.176 106.026 12.272 107.018 11.728C107.514 11.456 108.042 11.32 108.602 11.32C109.162 11.32 109.618 11.448 109.97 11.704C110.386 12.008 110.594 12.424 110.594 12.952C110.594 13.288 110.386 13.744 109.97 14.32C109.17 15.424 108.018 15.976 106.514 15.976C105.234 15.976 104.178 15.568 103.346 14.752C102.53 13.92 102.122 12.864 102.122 11.584C102.122 10.304 102.53 9.256 103.346 8.44C104.178 7.624 105.234 7.216 106.514 7.216C108.226 7.216 109.602 8.16 110.642 10.048L109.514 10.672ZM108.482 12.592C107.89 12.592 107.394 12.784 106.994 13.168C106.594 13.552 106.386 14.04 106.37 14.632H106.514C107.458 14.632 108.234 14.304 108.842 13.648C108.938 13.488 109.058 13.312 109.202 13.12C109.218 13.04 109.226 12.976 109.226 12.928C109.226 12.704 108.978 12.592 108.482 12.592ZM123.728 16.024C122.128 16.024 120.88 15.344 119.984 13.984C119.088 15.328 117.84 16 116.24 16C114.8 16 113.496 15.264 112.328 13.792L113.408 12.976C114.32 14.112 115.264 14.68 116.24 14.68C117.12 14.68 117.848 14.424 118.424 13.912C119.016 13.384 119.312 12.688 119.312 11.824V11.344C119.312 10.512 119.008 9.84 118.4 9.328C117.808 8.816 117.088 8.56 116.24 8.56C115.088 8.56 114.096 9.248 113.264 10.624L112.112 9.952L112.448 9.376C113.28 7.952 114.544 7.24 116.24 7.24C117.536 7.24 118.6 7.648 119.432 8.464C120.264 9.264 120.68 10.312 120.68 11.608V11.848C120.68 12.696 120.968 13.384 121.544 13.912C122.136 14.44 122.864 14.704 123.728 14.704C124.624 14.704 125.368 14.416 125.96 13.84C126.552 13.248 126.848 12.504 126.848 11.608C126.848 10.728 126.544 10 125.936 9.424C125.344 8.848 124.608 8.56 123.728 8.56C123.376 8.56 122.808 8.704 122.024 8.992L121.592 7.72L122.192 7.504C122.64 7.344 123.152 7.264 123.728 7.264C125.056 7.264 126.128 7.656 126.944 8.44C127.76 9.224 128.168 10.28 128.168 11.608C128.168 12.904 127.752 13.968 126.92 14.8C126.088 15.616 125.024 16.024 123.728 16.024ZM131.4 15.976C131.144 15.976 130.744 15.912 130.2 15.784V14.416C130.712 14.56 131.112 14.632 131.4 14.632C132.296 14.632 133.024 14.352 133.584 13.792C134.16 13.216 134.448 12.48 134.448 11.584C134.448 10.72 134.152 10 133.56 9.424C132.984 8.832 132.264 8.536 131.4 8.536C129.992 8.536 129.016 9.312 128.472 10.864C128.456 10.944 128.384 11.136 128.256 11.44L127.08 10.744L127.176 10.408C127.784 8.28 129.192 7.216 131.4 7.216C132.664 7.216 133.712 7.632 134.544 8.464C135.376 9.28 135.792 10.32 135.792 11.584C135.792 12.88 135.384 13.936 134.568 14.752C133.752 15.568 132.696 15.976 131.4 15.976ZM48.3066 36.672C47.4906 35.248 46.4906 34.536 45.3066 34.536C44.4266 34.536 43.6986 34.824 43.1226 35.4C42.5466 35.976 42.2586 36.704 42.2586 37.584C42.2586 38.896 42.8906 39.848 44.1546 40.44C44.2666 39.176 44.8186 38.272 45.8106 37.728C46.3066 37.456 46.8346 37.32 47.3946 37.32C47.9546 37.32 48.4106 37.448 48.7626 37.704C49.1786 38.008 49.3866 38.424 49.3866 38.952C49.3866 39.288 49.1786 39.744 48.7626 40.32C47.9626 41.424 46.8106 41.976 45.3066 41.976C44.0266 41.976 42.9706 41.568 42.1386 40.752C41.3226 39.92 40.9146 38.864 40.9146 37.584C40.9146 36.304 41.3226 35.256 42.1386 34.44C42.9706 33.624 44.0266 33.216 45.3066 33.216C47.0186 33.216 48.3946 34.16 49.4346 36.048L48.3066 36.672ZM47.2746 38.592C46.6826 38.592 46.1866 38.784 45.7866 39.168C45.3866 39.552 45.1786 40.04 45.1626 40.632H45.3066C46.2506 40.632 47.0266 40.304 47.6346 39.648C47.7306 39.488 47.8506 39.312 47.9946 39.12C48.0106 39.04 48.0186 38.976 48.0186 38.928C48.0186 38.704 47.7706 38.592 47.2746 38.592ZM54.9846 42C53.7206 42 52.6726 41.584 51.8406 40.752C51.0246 39.92 50.6166 38.872 50.6166 37.608C50.6166 36.344 51.0246 35.304 51.8406 34.488C52.6726 33.656 53.7206 33.24 54.9846 33.24C56.2646 33.24 57.3126 33.648 58.1286 34.464C58.9606 35.28 59.3766 36.328 59.3766 37.608C59.3766 38.872 58.9606 39.92 58.1286 40.752C57.2966 41.584 56.2486 42 54.9846 42ZM54.9846 34.56C54.4406 34.56 53.9206 34.704 53.4246 34.992C54.0806 35.712 54.4086 36.584 54.4086 37.608C54.3126 38.616 53.9046 39.448 53.1846 40.104C53.7286 40.488 54.3286 40.68 54.9846 40.68C55.8646 40.68 56.6006 40.392 57.1926 39.816C57.7846 39.224 58.0806 38.488 58.0806 37.608C58.0806 36.728 57.7846 36 57.1926 35.424C56.6006 34.848 55.8646 34.56 54.9846 34.56ZM52.6086 35.736C52.1606 36.312 51.9366 36.936 51.9366 37.608C51.9366 38.184 52.0966 38.728 52.4166 39.24C52.8806 38.824 53.1686 38.264 53.2806 37.56C53.2166 36.856 52.9926 36.248 52.6086 35.736ZM60.8706 48.432C60.7746 48.432 60.6546 48.416 60.5106 48.384L58.2546 47.904C57.5666 47.76 57.2146 47.432 57.1986 46.92L57.1746 46.224V40.056H58.4946V46.536L60.3186 46.968V33.24H61.6386V47.712C61.6386 48.192 61.3826 48.432 60.8706 48.432ZM64.2732 37.056C63.7772 37.056 63.3692 36.896 63.0492 36.576C62.7452 36.256 62.5932 35.848 62.5932 35.352C62.5932 34.872 62.7532 34.472 63.0732 34.152C63.3932 33.816 63.7932 33.648 64.2732 33.648C64.7532 33.648 65.1532 33.816 65.4732 34.152C65.7932 34.472 65.9532 34.872 65.9532 35.352C65.9532 35.848 65.7932 36.256 65.4732 36.576C65.1692 36.896 64.7692 37.056 64.2732 37.056ZM64.2732 41.688C63.7772 41.688 63.3692 41.528 63.0492 41.208C62.7452 40.888 62.5932 40.48 62.5932 39.984C62.5932 39.504 62.7532 39.104 63.0732 38.784C63.3932 38.448 63.7932 38.28 64.2732 38.28C64.7692 38.28 65.1692 38.44 65.4732 38.76C65.7932 39.08 65.9532 39.488 65.9532 39.984C65.9532 40.48 65.7932 40.888 65.4732 41.208C65.1692 41.528 64.7692 41.688 64.2732 41.688ZM64.2732 34.8C63.9372 34.8 63.7692 34.984 63.7692 35.352C63.7692 35.688 63.9372 35.856 64.2732 35.856C64.6412 35.856 64.8252 35.688 64.8252 35.352C64.8252 34.984 64.6412 34.8 64.2732 34.8ZM64.2732 39.456C63.9372 39.456 63.7692 39.632 63.7692 39.984C63.7692 40.352 63.9372 40.536 64.2732 40.536C64.6412 40.536 64.8252 40.352 64.8252 39.984C64.8252 39.632 64.6412 39.456 64.2732 39.456ZM71.9217 42H70.7457C69.4817 42 68.6657 41.944 68.2977 41.832C67.4657 41.576 67.0177 41.048 66.9537 40.248C66.8257 38.632 67.6817 37.824 69.5217 37.824C70.9937 37.824 71.8097 38.44 71.9697 39.672V40.704C73.3777 40.704 74.1377 40.464 74.2497 39.984C74.3617 39.44 73.8177 38.864 72.6177 38.256C72.2657 38.08 71.4177 37.672 70.0737 37.032C69.0977 36.568 68.6097 35.92 68.6097 35.088C68.6097 33.856 69.4817 33.24 71.2257 33.24C71.7537 33.24 72.2257 33.32 72.6417 33.48C73.4257 33.784 73.8177 34.224 73.8177 34.8C73.8177 34.928 73.7457 35.064 73.6017 35.208H72.2817C72.3777 35.08 72.4257 34.976 72.4257 34.896C72.4257 34.848 72.4097 34.784 72.3777 34.704C72.2337 34.656 71.8497 34.608 71.2257 34.56C70.3777 34.496 69.9537 34.688 69.9537 35.136C69.9537 35.392 70.4577 35.752 71.4657 36.216L72.7377 36.792C74.6897 37.672 75.6657 38.696 75.6657 39.864C75.6657 41.288 74.4177 42 71.9217 42ZM70.4337 39.432C70.2257 39.224 69.9137 39.12 69.4977 39.12C69.1777 39.12 68.8897 39.224 68.6337 39.432C68.3777 39.624 68.2657 39.872 68.2977 40.176C68.3297 40.56 69.1217 40.736 70.6737 40.704C70.6577 40 70.5777 39.576 70.4337 39.432ZM72.3837 48.48C71.9837 48.48 71.7837 48.224 71.7837 47.712V41.688H73.0797V47.16H74.4477V48.48H72.3837ZM70.3197 48.48H68.2797V47.16H69.6477V41.688H70.9437V47.712C70.9437 48.224 70.7357 48.48 70.3197 48.48ZM81.7197 42.048L81.7677 48.456L80.4237 48.48V42.048C79.2557 42.064 78.4637 42.008 78.0477 41.88C77.2157 41.624 76.7677 41.104 76.7037 40.32C76.5597 38.656 77.4157 37.824 79.2717 37.824C79.9117 37.824 80.4557 37.992 80.9037 38.328C81.3677 38.664 81.6397 39.136 81.7197 39.744V40.728C83.1277 40.728 83.8877 40.48 83.9997 39.984C84.1277 39.408 83.5837 38.84 82.3677 38.28C81.8397 38.04 80.9917 37.64 79.8237 37.08C78.8477 36.616 78.3597 35.952 78.3597 35.088C78.3597 33.856 79.2317 33.24 80.9757 33.24C81.4717 33.24 81.9437 33.32 82.3917 33.48C83.1757 33.768 83.5677 34.224 83.5677 34.848C83.5677 34.96 83.4957 35.08 83.3517 35.208H82.0317C82.1277 35.08 82.1757 34.984 82.1757 34.92C82.1757 34.872 82.1597 34.816 82.1277 34.752C81.9997 34.672 81.6157 34.608 80.9757 34.56C80.1277 34.48 79.7037 34.672 79.7037 35.136C79.7037 35.488 80.0877 35.824 80.8557 36.144C81.4797 36.4 82.0237 36.632 82.4877 36.84C84.4397 37.704 85.4157 38.72 85.4157 39.888C85.4157 41.296 84.1837 42.016 81.7197 42.048ZM80.1837 39.456C79.9757 39.264 79.6637 39.168 79.2477 39.168C78.9277 39.168 78.6397 39.264 78.3837 39.456C78.1277 39.648 78.0157 39.896 78.0477 40.2C78.0797 40.6 78.8717 40.776 80.4237 40.728C80.4077 40.024 80.3277 39.6 80.1837 39.456ZM83.0457 29.904C83.0137 29.92 82.9817 29.928 82.9497 29.928C82.9177 29.928 82.9017 29.912 82.9017 29.88C82.8537 29.368 82.6617 28.952 82.3257 28.632C81.9737 28.312 81.5417 28.152 81.0297 28.152C80.4537 28.152 79.9897 28.336 79.6377 28.704C79.2697 29.056 79.0857 29.52 79.0857 30.096C79.0857 30.64 79.2697 31.096 79.6377 31.464C79.9897 31.816 80.4377 31.992 80.9817 31.992C81.0937 31.992 81.2697 31.976 81.5097 31.944V33.336C81.3177 33.352 81.1577 33.36 81.0297 33.36C80.1177 33.36 79.3497 33.048 78.7257 32.424C78.1017 31.784 77.7897 31.008 77.7897 30.096C77.7897 29.184 78.1097 28.416 78.7497 27.792C79.3737 27.168 80.1417 26.856 81.0537 26.856C81.8857 26.856 82.5817 27.104 83.1417 27.6C83.7017 28.08 84.0617 28.736 84.2217 29.568C83.8537 29.712 83.4617 29.824 83.0457 29.904ZM88.0857 37.056C87.5897 37.056 87.1817 36.896 86.8617 36.576C86.5577 36.256 86.4057 35.848 86.4057 35.352C86.4057 34.872 86.5657 34.472 86.8857 34.152C87.2057 33.816 87.6057 33.648 88.0857 33.648C88.5657 33.648 88.9657 33.816 89.2857 34.152C89.6057 34.472 89.7657 34.872 89.7657 35.352C89.7657 35.848 89.6057 36.256 89.2857 36.576C88.9817 36.896 88.5817 37.056 88.0857 37.056ZM88.0857 41.688C87.5897 41.688 87.1817 41.528 86.8617 41.208C86.5577 40.888 86.4057 40.48 86.4057 39.984C86.4057 39.504 86.5657 39.104 86.8857 38.784C87.2057 38.448 87.6057 38.28 88.0857 38.28C88.5817 38.28 88.9817 38.44 89.2857 38.76C89.6057 39.08 89.7657 39.488 89.7657 39.984C89.7657 40.48 89.6057 40.888 89.2857 41.208C88.9817 41.528 88.5817 41.688 88.0857 41.688ZM88.0857 34.8C87.7497 34.8 87.5817 34.984 87.5817 35.352C87.5817 35.688 87.7497 35.856 88.0857 35.856C88.4537 35.856 88.6377 35.688 88.6377 35.352C88.6377 34.984 88.4537 34.8 88.0857 34.8ZM88.0857 39.456C87.7497 39.456 87.5817 39.632 87.5817 39.984C87.5817 40.352 87.7497 40.536 88.0857 40.536C88.4537 40.536 88.6377 40.352 88.6377 39.984C88.6377 39.632 88.4537 39.456 88.0857 39.456ZM93.2862 42V33.936H94.6062V42H93.2862ZM91.2222 42V33.936H92.5422V42H91.2222Z" fill="white"/>
</svg>
