<svg width="142" height="23" viewBox="0 0 142 23" fill="none" xmlns="http://www.w3.org/2000/svg">
<path d="M12.3767 15.976C11.7847 15.976 11.1527 15.832 10.4807 15.544L10.9847 14.344C11.5927 14.536 12.0567 14.632 12.3767 14.632C13.2727 14.632 14.0087 14.352 14.5847 13.792C15.1767 13.216 15.4727 12.48 15.4727 11.584C15.4727 10.72 15.1687 10 14.5607 9.424C13.9687 8.832 13.2407 8.536 12.3767 8.536C11.4807 8.536 10.7447 8.824 10.1687 9.4C9.60866 9.96 9.32866 10.688 9.32866 11.584V11.728L9.30466 11.776C9.24066 13.056 8.80066 14.08 7.98466 14.848C7.18466 15.6 6.14466 15.976 4.86466 15.976C3.58466 15.976 2.52866 15.568 1.69666 14.752C0.864656 13.92 0.448656 12.864 0.448656 11.584C0.448656 10.272 0.856656 9.216 1.67266 8.416C2.48866 7.616 3.55266 7.216 4.86466 7.216C6.46466 7.216 7.72066 7.896 8.63266 9.256C9.52866 7.896 10.7767 7.216 12.3767 7.216C13.6727 7.216 14.7287 7.624 15.5447 8.44C16.3767 9.24 16.7927 10.288 16.7927 11.584C16.7927 12.864 16.3767 13.92 15.5447 14.752C14.7127 15.568 13.6567 15.976 12.3767 15.976ZM4.86466 8.536C3.98466 8.536 3.24866 8.824 2.65666 9.4C2.06466 9.976 1.76866 10.704 1.76866 11.584C1.76866 12.464 2.06466 13.192 2.65666 13.768C3.24866 14.344 3.98466 14.632 4.86466 14.632C5.74466 14.632 6.47266 14.344 7.04866 13.768C7.62466 13.192 7.91266 12.464 7.91266 11.584C7.91266 10.704 7.62466 9.976 7.04866 9.4C6.47266 8.824 5.74466 8.536 4.86466 8.536ZM12.393 7.36C11.481 7.36 10.713 7.048 10.089 6.424C9.46497 5.784 9.15297 5.008 9.15297 4.096C9.15297 3.184 9.47297 2.416 10.113 1.792C10.737 1.168 11.505 0.855999 12.417 0.855999C13.329 0.855999 14.089 1.168 14.697 1.792C15.305 2.416 15.609 3.184 15.609 4.096C15.609 4.976 15.297 5.744 14.673 6.4C14.033 7.04 13.273 7.36 12.393 7.36ZM12.393 2.152C11.817 2.152 11.353 2.336 11.001 2.704C10.633 3.056 10.449 3.52 10.449 4.096C10.449 4.64 10.633 5.096 11.001 5.464C11.353 5.816 11.801 5.992 12.345 5.992C12.905 5.992 13.369 5.816 13.737 5.464C14.089 5.112 14.265 4.656 14.265 4.096C14.265 3.536 14.097 3.072 13.761 2.704C13.409 2.336 12.953 2.152 12.393 2.152ZM12.393 22.48C11.977 22.48 11.769 22.224 11.769 21.712V15.928H13.041V21.16H14.361V22.48H12.393ZM26.649 12.04H26.577C26.497 13.64 25.545 14.952 23.721 15.976L23.121 14.848C24.529 14.032 25.233 13.024 25.233 11.824C25.233 10.944 24.945 10.216 24.369 9.64C23.793 9.064 23.065 8.776 22.185 8.776C21.305 8.776 20.569 9.064 19.977 9.64C19.385 10.216 19.089 10.944 19.089 11.824C19.089 13.04 19.833 14.048 21.321 14.848L20.673 16L20.097 15.688C18.545 14.84 17.769 13.552 17.769 11.824C17.769 10.512 18.177 9.456 18.993 8.656C19.809 7.856 20.873 7.456 22.185 7.456C23.785 7.456 25.041 8.136 25.953 9.496C26.849 8.136 28.097 7.456 29.697 7.456C30.993 7.456 32.049 7.864 32.865 8.68C33.697 9.48 34.113 10.528 34.113 11.824C34.113 13.104 33.697 14.16 32.865 14.992C32.033 15.808 30.977 16.216 29.697 16.216C29.313 16.216 28.929 16.168 28.545 16.072C28.577 15.784 28.657 15.344 28.785 14.752C29.233 14.832 29.537 14.872 29.697 14.872C30.593 14.872 31.329 14.592 31.905 14.032C32.497 13.456 32.793 12.72 32.793 11.824C32.793 10.96 32.489 10.24 31.881 9.664C31.289 9.072 30.561 8.776 29.697 8.776C28.801 8.776 28.065 9.064 27.489 9.64C26.929 10.2 26.649 10.928 26.649 11.824V12.04ZM31.7293 3.904C31.6973 3.92 31.6653 3.928 31.6333 3.928C31.6013 3.928 31.5853 3.912 31.5853 3.88C31.5373 3.368 31.3453 2.952 31.0093 2.632C30.6573 2.312 30.2253 2.152 29.7133 2.152C29.1373 2.152 28.6733 2.336 28.3213 2.704C27.9533 3.056 27.7693 3.52 27.7693 4.096C27.7693 4.64 27.9533 5.096 28.3213 5.464C28.6733 5.816 29.1213 5.992 29.6653 5.992C29.7773 5.992 29.9533 5.976 30.1933 5.944V7.336C30.0013 7.352 29.8413 7.36 29.7133 7.36C28.8013 7.36 28.0333 7.048 27.4093 6.424C26.7853 5.784 26.4733 5.008 26.4733 4.096C26.4733 3.184 26.7933 2.416 27.4333 1.792C28.0573 1.168 28.8253 0.855999 29.7373 0.855999C30.5693 0.855999 31.2653 1.104 31.8253 1.6C32.3853 2.08 32.7453 2.736 32.9053 3.568C32.5373 3.712 32.1453 3.824 31.7293 3.904ZM43.2493 22.48C42.8173 22.48 42.6013 22.224 42.6013 21.712V11.608C42.6013 10.728 42.3133 10 41.7373 9.424C41.1613 8.832 40.4333 8.536 39.5533 8.536C38.6733 8.536 37.9453 8.832 37.3693 9.424C36.7933 10 36.5053 10.728 36.5053 11.608V11.704C36.8253 11.608 37.1773 11.56 37.5613 11.56C38.5053 11.56 39.3293 11.832 40.0333 12.376C40.8013 12.968 41.1853 13.72 41.1853 14.632C41.1853 15.592 40.7133 16.072 39.7693 16.072C39.5933 16.072 39.4253 16.056 39.2653 16.024C37.9853 15.944 36.9773 15.512 36.2413 14.728C35.5213 13.928 35.1613 12.888 35.1613 11.608C35.1613 10.328 35.5693 9.28 36.3853 8.464C37.2173 7.632 38.2733 7.216 39.5533 7.216C40.8333 7.216 41.8893 7.632 42.7213 8.464C43.5533 9.28 43.9693 10.328 43.9693 11.608V21.16H44.8333V22.48H43.2493ZM39.8413 14.44C39.8413 13.832 39.5213 13.352 38.8813 13C38.3213 12.68 37.7213 12.544 37.0813 12.592L36.7453 12.712C36.7933 12.888 36.8813 13.064 37.0093 13.24C37.7293 14.248 38.4893 14.752 39.2893 14.752C39.4813 14.752 39.6253 14.712 39.7213 14.632L39.8413 14.536V14.44ZM39.4633 7.36C38.5513 7.36 37.7833 7.048 37.1593 6.424C36.5353 5.784 36.2233 5.008 36.2233 4.096C36.2233 3.184 36.5433 2.416 37.1833 1.792C37.8073 1.168 38.5753 0.855999 39.4873 0.855999C40.3993 0.855999 41.1593 1.168 41.7673 1.792C42.3753 2.416 42.6793 3.184 42.6793 4.096C42.6793 4.976 42.3673 5.744 41.7433 6.4C41.1033 7.04 40.3433 7.36 39.4633 7.36ZM39.4633 2.152C38.8873 2.152 38.4233 2.336 38.0713 2.704C37.7033 3.056 37.5193 3.52 37.5193 4.096C37.5193 4.64 37.7033 5.096 38.0713 5.464C38.4233 5.816 38.8713 5.992 39.4153 5.992C39.9753 5.992 40.4393 5.816 40.8073 5.464C41.1593 5.112 41.3353 4.656 41.3353 4.096C41.3353 3.536 41.1673 3.072 40.8313 2.704C40.4793 2.336 40.0233 2.152 39.4633 2.152ZM39.4633 22.48C39.0473 22.48 38.8393 22.224 38.8393 21.712V15.928H40.1113V21.16H41.4313V22.48H39.4633ZM53.7193 12.04H53.6473C53.5673 13.64 52.6153 14.952 50.7913 15.976L50.1913 14.848C51.5993 14.032 52.3033 13.024 52.3033 11.824C52.3033 10.944 52.0153 10.216 51.4393 9.64C50.8633 9.064 50.1353 8.776 49.2553 8.776C48.3753 8.776 47.6393 9.064 47.0473 9.64C46.4553 10.216 46.1593 10.944 46.1593 11.824C46.1593 13.04 46.9033 14.048 48.3913 14.848L47.7433 16L47.1673 15.688C45.6153 14.84 44.8393 13.552 44.8393 11.824C44.8393 10.512 45.2473 9.456 46.0633 8.656C46.8793 7.856 47.9433 7.456 49.2553 7.456C50.8553 7.456 52.1113 8.136 53.0233 9.496C53.9193 8.136 55.1673 7.456 56.7673 7.456C58.0633 7.456 59.1193 7.864 59.9353 8.68C60.7673 9.48 61.1833 10.528 61.1833 11.824C61.1833 13.104 60.7673 14.16 59.9353 14.992C59.1033 15.808 58.0473 16.216 56.7673 16.216C56.3833 16.216 55.9993 16.168 55.6153 16.072C55.6473 15.784 55.7273 15.344 55.8553 14.752C56.3033 14.832 56.6073 14.872 56.7673 14.872C57.6633 14.872 58.3993 14.592 58.9753 14.032C59.5673 13.456 59.8633 12.72 59.8633 11.824C59.8633 10.96 59.5593 10.24 58.9513 9.664C58.3593 9.072 57.6313 8.776 56.7673 8.776C55.8713 8.776 55.1353 9.064 54.5593 9.64C53.9993 10.2 53.7193 10.928 53.7193 11.824V12.04ZM58.7996 3.904C58.7676 3.92 58.7356 3.928 58.7036 3.928C58.6716 3.928 58.6556 3.912 58.6556 3.88C58.6076 3.368 58.4156 2.952 58.0796 2.632C57.7276 2.312 57.2956 2.152 56.7836 2.152C56.2076 2.152 55.7436 2.336 55.3916 2.704C55.0236 3.056 54.8396 3.52 54.8396 4.096C54.8396 4.64 55.0236 5.096 55.3916 5.464C55.7436 5.816 56.1916 5.992 56.7356 5.992C56.8476 5.992 57.0236 5.976 57.2636 5.944V7.336C57.0716 7.352 56.9116 7.36 56.7836 7.36C55.8716 7.36 55.1036 7.048 54.4796 6.424C53.8556 5.784 53.5436 5.008 53.5436 4.096C53.5436 3.184 53.8636 2.416 54.5036 1.792C55.1276 1.168 55.8956 0.855999 56.8076 0.855999C57.6396 0.855999 58.3356 1.104 58.8956 1.6C59.4556 2.08 59.8156 2.736 59.9756 3.568C59.6076 3.712 59.2156 3.824 58.7996 3.904ZM69.5996 10.672C68.7836 9.248 67.7836 8.536 66.5996 8.536C65.7196 8.536 64.9916 8.824 64.4156 9.4C63.8396 9.976 63.5516 10.704 63.5516 11.584C63.5516 12.896 64.1836 13.848 65.4476 14.44C65.5596 13.176 66.1116 12.272 67.1036 11.728C67.5996 11.456 68.1276 11.32 68.6876 11.32C69.2476 11.32 69.7036 11.448 70.0556 11.704C70.4716 12.008 70.6796 12.424 70.6796 12.952C70.6796 13.288 70.4716 13.744 70.0556 14.32C69.2556 15.424 68.1036 15.976 66.5996 15.976C65.3196 15.976 64.2636 15.568 63.4316 14.752C62.6156 13.92 62.2076 12.864 62.2076 11.584C62.2076 10.304 62.6156 9.256 63.4316 8.44C64.2636 7.624 65.3196 7.216 66.5996 7.216C68.3116 7.216 69.6876 8.16 70.7276 10.048L69.5996 10.672ZM68.5676 12.592C67.9756 12.592 67.4796 12.784 67.0796 13.168C66.6796 13.552 66.4716 14.04 66.4556 14.632H66.5996C67.5436 14.632 68.3196 14.304 68.9276 13.648C69.0236 13.488 69.1436 13.312 69.2876 13.12C69.3036 13.04 69.3116 12.976 69.3116 12.928C69.3116 12.704 69.0636 12.592 68.5676 12.592ZM82.9736 4.24H81.5816V2.992C81.5816 2.432 81.3896 2.152 81.0056 2.152H74.1656C73.8296 2.152 73.6056 2.232 73.4936 2.392C73.3976 2.536 73.3496 2.792 73.3496 3.16V20.224C73.3496 20.832 73.6216 21.136 74.1656 21.136H80.7896C81.3016 21.136 81.5576 20.936 81.5576 20.536V12.544H82.9736V20.512C82.9736 21.824 82.2376 22.48 80.7656 22.48H74.1656C72.6776 22.48 71.9336 21.744 71.9336 20.272L71.9096 3.04C71.9096 1.568 72.6616 0.831999 74.1656 0.831999H81.1736C82.4056 0.831999 83.0136 1.488 82.9976 2.8L82.9736 4.24ZM78.5996 15.976C77.0956 15.976 75.9436 15.424 75.1436 14.32C74.7436 13.76 74.5436 13.304 74.5436 12.952C74.5436 12.44 74.7516 12.032 75.1676 11.728C75.5356 11.456 75.9836 11.32 76.5116 11.32C77.6956 11.32 78.5996 11.832 79.2236 12.856C79.5276 13.352 79.7116 13.88 79.7756 14.44C81.0396 13.848 81.6716 12.896 81.6716 11.584C81.6716 10.704 81.3756 9.976 80.7836 9.4C80.2076 8.824 79.4796 8.536 78.5996 8.536C77.4316 8.536 76.4396 9.248 75.6236 10.672L74.4476 10.048C75.5196 8.16 76.9036 7.216 78.5996 7.216C79.8796 7.216 80.9356 7.624 81.7676 8.44C82.5996 9.256 83.0156 10.304 83.0156 11.584C83.0156 12.864 82.5996 13.92 81.7676 14.752C80.9356 15.568 79.8796 15.976 78.5996 15.976ZM76.6316 12.592C76.1356 12.592 75.8876 12.704 75.8876 12.928C75.8876 12.976 75.9036 13.04 75.9356 13.12C76.0796 13.312 76.1996 13.488 76.2956 13.648C76.8876 14.304 77.6556 14.632 78.5996 14.632H78.7676C78.7516 14.024 78.5436 13.536 78.1436 13.168C77.7436 12.784 77.2396 12.592 76.6316 12.592ZM92.0696 22.48C91.6376 22.48 91.4216 22.224 91.4216 21.712V11.608C91.4216 10.728 91.1336 10 90.5576 9.424C89.9816 8.832 89.2536 8.536 88.3736 8.536C87.4936 8.536 86.7656 8.832 86.1896 9.424C85.6136 10 85.3256 10.728 85.3256 11.608V11.704C85.6456 11.608 85.9976 11.56 86.3816 11.56C87.3256 11.56 88.1496 11.832 88.8536 12.376C89.6216 12.968 90.0056 13.72 90.0056 14.632C90.0056 15.592 89.5336 16.072 88.5896 16.072C88.4136 16.072 88.2456 16.056 88.0856 16.024C86.8056 15.944 85.7976 15.512 85.0616 14.728C84.3416 13.928 83.9816 12.888 83.9816 11.608C83.9816 10.328 84.3896 9.28 85.2056 8.464C86.0376 7.632 87.0936 7.216 88.3736 7.216C89.6536 7.216 90.7096 7.632 91.5416 8.464C92.3736 9.28 92.7896 10.328 92.7896 11.608V21.16H93.6536V22.48H92.0696ZM88.6616 14.44C88.6616 13.832 88.3416 13.352 87.7016 13C87.1416 12.68 86.5416 12.544 85.9016 12.592L85.5656 12.712C85.6136 12.888 85.7016 13.064 85.8296 13.24C86.5496 14.248 87.3096 14.752 88.1096 14.752C88.3016 14.752 88.4456 14.712 88.5416 14.632L88.6616 14.536V14.44ZM95.9156 15.976C95.6596 15.976 95.2596 15.912 94.7156 15.784V14.416C95.2276 14.56 95.6276 14.632 95.9156 14.632C96.8116 14.632 97.5396 14.352 98.0996 13.792C98.6756 13.216 98.9636 12.48 98.9636 11.584C98.9636 10.72 98.6676 10 98.0756 9.424C97.4996 8.832 96.7796 8.536 95.9156 8.536C94.5076 8.536 93.5316 9.312 92.9876 10.864C92.9716 10.944 92.8996 11.136 92.7716 11.44L91.5956 10.744L91.6916 10.408C92.2996 8.28 93.7076 7.216 95.9156 7.216C97.1796 7.216 98.2276 7.632 99.0596 8.464C99.8916 9.28 100.308 10.32 100.308 11.584C100.308 12.88 99.8996 13.936 99.0836 14.752C98.2676 15.568 97.2116 15.976 95.9156 15.976ZM105.764 15.976C104.26 15.976 103.108 15.424 102.308 14.32C101.908 13.76 101.708 13.304 101.708 12.952C101.708 12.44 101.916 12.032 102.332 11.728C102.7 11.456 103.148 11.32 103.676 11.32C104.86 11.32 105.764 11.832 106.388 12.856C106.692 13.352 106.876 13.88 106.94 14.44C108.204 13.848 108.836 12.896 108.836 11.584C108.836 10.704 108.54 9.976 107.948 9.4C107.372 8.824 106.644 8.536 105.764 8.536C104.596 8.536 103.604 9.248 102.788 10.672L101.612 10.048C102.684 8.16 104.068 7.216 105.764 7.216C107.044 7.216 108.1 7.624 108.932 8.44C109.764 9.256 110.18 10.304 110.18 11.584C110.18 12.864 109.764 13.92 108.932 14.752C108.1 15.568 107.044 15.976 105.764 15.976ZM103.796 12.592C103.3 12.592 103.052 12.704 103.052 12.928C103.052 12.976 103.068 13.04 103.1 13.12C103.244 13.312 103.364 13.488 103.46 13.648C104.052 14.304 104.82 14.632 105.764 14.632H105.932C105.916 14.024 105.708 13.536 105.308 13.168C104.908 12.784 104.404 12.592 103.796 12.592ZM105.866 6.376C105.402 6.376 105.01 6.216 104.69 5.896C104.37 5.576 104.21 5.184 104.21 4.72C104.21 4.24 104.37 3.84 104.69 3.52C104.994 3.2 105.386 3.04 105.866 3.04C106.346 3.04 106.754 3.2 107.09 3.52C107.41 3.84 107.57 4.24 107.57 4.72C107.57 5.184 107.402 5.576 107.066 5.896C106.73 6.216 106.33 6.376 105.866 6.376ZM105.866 4.192C105.53 4.192 105.362 4.368 105.362 4.72C105.362 5.072 105.53 5.248 105.866 5.248C106.234 5.248 106.418 5.072 106.418 4.72C106.418 4.368 106.234 4.192 105.866 4.192ZM122.138 4.24H120.746V2.992C120.746 2.432 120.554 2.152 120.17 2.152H113.33C112.994 2.152 112.77 2.232 112.658 2.392C112.562 2.536 112.514 2.792 112.514 3.16V20.224C112.514 20.832 112.786 21.136 113.33 21.136H119.954C120.466 21.136 120.722 20.936 120.722 20.536V12.544H122.138V20.512C122.138 21.824 121.402 22.48 119.93 22.48H113.33C111.842 22.48 111.098 21.744 111.098 20.272L111.074 3.04C111.074 1.568 111.826 0.831999 113.33 0.831999H120.338C121.57 0.831999 122.178 1.488 122.162 2.8L122.138 4.24ZM117.764 15.976C116.26 15.976 115.108 15.424 114.308 14.32C113.908 13.76 113.708 13.304 113.708 12.952C113.708 12.44 113.916 12.032 114.332 11.728C114.7 11.456 115.148 11.32 115.676 11.32C116.86 11.32 117.764 11.832 118.388 12.856C118.692 13.352 118.876 13.88 118.94 14.44C120.204 13.848 120.836 12.896 120.836 11.584C120.836 10.704 120.54 9.976 119.948 9.4C119.372 8.824 118.644 8.536 117.764 8.536C116.596 8.536 115.604 9.248 114.788 10.672L113.612 10.048C114.684 8.16 116.068 7.216 117.764 7.216C119.044 7.216 120.1 7.624 120.932 8.44C121.764 9.256 122.18 10.304 122.18 11.584C122.18 12.864 121.764 13.92 120.932 14.752C120.1 15.568 119.044 15.976 117.764 15.976ZM115.796 12.592C115.3 12.592 115.052 12.704 115.052 12.928C115.052 12.976 115.068 13.04 115.1 13.12C115.244 13.312 115.364 13.488 115.46 13.648C116.052 14.304 116.82 14.632 117.764 14.632H117.932C117.916 14.024 117.708 13.536 117.308 13.168C116.908 12.784 116.404 12.592 115.796 12.592ZM131.354 13.744C131.05 14.416 130.514 14.96 129.746 15.376C129.042 15.776 128.298 15.976 127.514 15.976C126.234 15.976 125.178 15.568 124.346 14.752C123.53 13.92 123.122 12.864 123.122 11.584C123.122 10.304 123.53 9.256 124.346 8.44C125.178 7.624 126.234 7.216 127.514 7.216C129.226 7.216 130.602 8.16 131.642 10.048L130.514 10.672C129.698 9.248 128.698 8.536 127.514 8.536C126.634 8.536 125.906 8.824 125.33 9.4C124.754 9.976 124.466 10.704 124.466 11.584C124.466 12.464 124.754 13.192 125.33 13.768C125.906 14.344 126.634 14.632 127.514 14.632C128.698 14.632 129.698 13.92 130.514 12.496L131.642 13.12L131.354 13.744ZM129.464 3.904C129.432 3.92 129.4 3.928 129.368 3.928C129.336 3.928 129.32 3.912 129.32 3.88C129.272 3.368 129.08 2.952 128.744 2.632C128.392 2.312 127.96 2.152 127.448 2.152C126.872 2.152 126.408 2.336 126.056 2.704C125.688 3.056 125.504 3.52 125.504 4.096C125.504 4.64 125.688 5.096 126.056 5.464C126.408 5.816 126.856 5.992 127.4 5.992C127.512 5.992 127.688 5.976 127.928 5.944V7.336C127.736 7.352 127.576 7.36 127.448 7.36C126.536 7.36 125.768 7.048 125.144 6.424C124.52 5.784 124.208 5.008 124.208 4.096C124.208 3.184 124.528 2.416 125.168 1.792C125.792 1.168 126.56 0.855999 127.472 0.855999C128.304 0.855999 129 1.104 129.56 1.6C130.12 2.08 130.48 2.736 130.64 3.568C130.272 3.712 129.88 3.824 129.464 3.904ZM134.504 11.056C134.008 11.056 133.6 10.896 133.28 10.576C132.976 10.256 132.824 9.848 132.824 9.352C132.824 8.872 132.984 8.472 133.304 8.152C133.624 7.816 134.024 7.648 134.504 7.648C134.984 7.648 135.384 7.816 135.704 8.152C136.024 8.472 136.184 8.872 136.184 9.352C136.184 9.848 136.024 10.256 135.704 10.576C135.4 10.896 135 11.056 134.504 11.056ZM134.504 15.688C134.008 15.688 133.6 15.528 133.28 15.208C132.976 14.888 132.824 14.48 132.824 13.984C132.824 13.504 132.984 13.104 133.304 12.784C133.624 12.448 134.024 12.28 134.504 12.28C135 12.28 135.4 12.44 135.704 12.76C136.024 13.08 136.184 13.488 136.184 13.984C136.184 14.48 136.024 14.888 135.704 15.208C135.4 15.528 135 15.688 134.504 15.688ZM134.504 8.8C134.168 8.8 134 8.984 134 9.352C134 9.688 134.168 9.856 134.504 9.856C134.872 9.856 135.056 9.688 135.056 9.352C135.056 8.984 134.872 8.8 134.504 8.8ZM134.504 13.456C134.168 13.456 134 13.632 134 13.984C134 14.352 134.168 14.536 134.504 14.536C134.872 14.536 135.056 14.352 135.056 13.984C135.056 13.632 134.872 13.456 134.504 13.456ZM139.704 16V7.936H141.024V16H139.704ZM137.64 16V7.936H138.96V16H137.64Z" fill="white"/>
</svg>
