<svg width="105" height="49" viewBox="0 0 105 49" fill="none" xmlns="http://www.w3.org/2000/svg">
<path d="M22.0329 16C20.6729 16 19.5849 15.608 18.7689 14.824C17.9689 14.04 17.5689 12.968 17.5689 11.608C17.5689 10.728 17.2809 10 16.7049 9.424C16.1289 8.848 15.4009 8.56 14.5209 8.56C13.6569 8.56 12.9209 8.856 12.3129 9.448C11.7209 10.024 11.4249 10.744 11.4249 11.608C11.4249 12.552 11.7209 13.328 12.3129 13.936C12.9209 14.528 13.6969 14.8 14.6409 14.752L14.4249 16.072L13.7769 15.952C12.6729 15.744 11.7849 15.248 11.1129 14.464C10.4409 13.68 10.1049 12.728 10.1049 11.608C10.1049 10.328 10.5209 9.28 11.3529 8.464C12.1849 7.648 13.2409 7.24 14.5209 7.24C15.8169 7.24 16.8809 7.648 17.7129 8.464C18.5449 9.264 18.9609 10.312 18.9609 11.608C18.9609 12.504 19.2489 13.24 19.8249 13.816C20.4009 14.392 21.1369 14.68 22.0329 14.68C22.9129 14.68 23.6489 14.392 24.2409 13.816C24.8329 13.224 25.1289 12.488 25.1289 11.608C25.1289 10.728 24.8329 10 24.2409 9.424C23.6489 8.848 22.9129 8.56 22.0329 8.56C21.7289 8.56 21.2569 8.672 20.6169 8.896L20.7129 7.408C21.1609 7.296 21.6009 7.24 22.0329 7.24C23.3129 7.24 24.3689 7.648 25.2009 8.464C26.0329 9.28 26.4489 10.328 26.4489 11.608C26.4489 12.904 26.0329 13.96 25.2009 14.776C24.3849 15.592 23.3289 16 22.0329 16ZM22.2412 22.552C21.3292 22.552 20.5532 22.232 19.9132 21.592C19.2732 20.952 18.9532 20.176 18.9532 19.264C18.9532 18.336 19.2732 17.552 19.9132 16.912C20.5372 16.272 21.3132 15.952 22.2412 15.952C23.1692 15.952 23.9532 16.272 24.5932 16.912C25.2332 17.552 25.5532 18.336 25.5532 19.264C25.5532 20.192 25.2332 20.968 24.5932 21.592C23.9532 22.232 23.1692 22.552 22.2412 22.552ZM22.2412 17.2C21.6492 17.2 21.1692 17.392 20.8012 17.776C20.4172 18.176 20.2252 18.672 20.2252 19.264C20.2252 19.84 20.4172 20.32 20.8012 20.704C21.1852 21.088 21.6652 21.28 22.2412 21.28C22.8332 21.28 23.3292 21.088 23.7292 20.704C24.1132 20.336 24.3052 19.856 24.3052 19.264C24.3052 18.672 24.1132 18.176 23.7292 17.776C23.3292 17.392 22.8332 17.2 22.2412 17.2ZM39.4001 15.976C37.8001 15.976 36.5521 15.288 35.6561 13.912C34.7441 15.288 33.4881 15.976 31.8881 15.976C30.6081 15.976 29.5521 15.568 28.7201 14.752C27.8881 13.92 27.4721 12.864 27.4721 11.584C27.4721 9.856 28.2481 8.568 29.8001 7.72L30.3761 7.408L31.0241 8.56C29.5361 9.376 28.7921 10.384 28.7921 11.584C28.7921 12.464 29.0881 13.192 29.6801 13.768C30.2721 14.344 31.0081 14.632 31.8881 14.632C32.7681 14.632 33.4961 14.344 34.0721 13.768C34.6481 13.192 34.9361 12.464 34.9361 11.584C34.9361 10.4 34.2321 9.392 32.8241 8.56L33.4241 7.456C35.2481 8.48 36.2001 9.784 36.2801 11.368H36.3521V11.584C36.3521 12.464 36.6401 13.192 37.2161 13.768C37.7921 14.344 38.5201 14.632 39.4001 14.632C40.2961 14.632 41.0321 14.352 41.6081 13.792C42.2001 13.216 42.4961 12.48 42.4961 11.584C42.4961 10.72 42.1921 10 41.5841 9.424C40.9921 8.832 40.2641 8.536 39.4001 8.536C39.2401 8.536 38.9361 8.584 38.4881 8.68C38.3601 8.072 38.2801 7.632 38.2481 7.36C38.6321 7.264 39.0161 7.216 39.4001 7.216C40.6961 7.216 41.7521 7.624 42.5681 8.44C43.4001 9.24 43.8161 10.288 43.8161 11.584C43.8161 12.864 43.4001 13.92 42.5681 14.752C41.7361 15.568 40.6801 15.976 39.4001 15.976ZM41.4324 3.904C41.4004 3.92 41.3684 3.928 41.3364 3.928C41.3044 3.928 41.2884 3.912 41.2884 3.88C41.2404 3.368 41.0484 2.952 40.7124 2.632C40.3604 2.312 39.9284 2.152 39.4164 2.152C38.8404 2.152 38.3764 2.336 38.0244 2.704C37.6564 3.056 37.4724 3.52 37.4724 4.096C37.4724 4.64 37.6564 5.096 38.0244 5.464C38.3764 5.816 38.8244 5.992 39.3684 5.992C39.4804 5.992 39.6564 5.976 39.8964 5.944V7.336C39.7044 7.352 39.5444 7.36 39.4164 7.36C38.5044 7.36 37.7364 7.048 37.1124 6.424C36.4884 5.784 36.1764 5.008 36.1764 4.096C36.1764 3.184 36.4964 2.416 37.1364 1.792C37.7604 1.168 38.5284 0.855999 39.4404 0.855999C40.2724 0.855999 40.9684 1.104 41.5284 1.6C42.0884 2.08 42.4484 2.736 42.6084 3.568C42.2404 3.712 41.8484 3.824 41.4324 3.904ZM53.6724 12.04H53.6004C53.5204 13.64 52.5684 14.952 50.7444 15.976L50.1444 14.848C51.5524 14.032 52.2564 13.024 52.2564 11.824C52.2564 10.944 51.9684 10.216 51.3924 9.64C50.8164 9.064 50.0884 8.776 49.2084 8.776C48.3284 8.776 47.5924 9.064 47.0004 9.64C46.4084 10.216 46.1124 10.944 46.1124 11.824C46.1124 13.04 46.8564 14.048 48.3444 14.848L47.6964 16L47.1204 15.688C45.5684 14.84 44.7924 13.552 44.7924 11.824C44.7924 10.512 45.2004 9.456 46.0164 8.656C46.8324 7.856 47.8964 7.456 49.2084 7.456C50.8084 7.456 52.0644 8.136 52.9764 9.496C53.8724 8.136 55.1204 7.456 56.7204 7.456C58.0164 7.456 59.0724 7.864 59.8884 8.68C60.7204 9.48 61.1364 10.528 61.1364 11.824C61.1364 13.104 60.7204 14.16 59.8884 14.992C59.0564 15.808 58.0004 16.216 56.7204 16.216C56.3364 16.216 55.9524 16.168 55.5684 16.072C55.6004 15.784 55.6804 15.344 55.8084 14.752C56.2564 14.832 56.5604 14.872 56.7204 14.872C57.6164 14.872 58.3524 14.592 58.9284 14.032C59.5204 13.456 59.8164 12.72 59.8164 11.824C59.8164 10.96 59.5124 10.24 58.9044 9.664C58.3124 9.072 57.5844 8.776 56.7204 8.776C55.8244 8.776 55.0884 9.064 54.5124 9.64C53.9524 10.2 53.6724 10.928 53.6724 11.824V12.04ZM57.8407 22.48C57.4407 22.48 57.2407 22.224 57.2407 21.712V15.928H58.5607V21.16H59.7607V22.48H57.8407ZM55.1527 22.48V15.928H56.4487V22.48H55.1527ZM69.5527 10.672C68.7367 9.248 67.7367 8.536 66.5527 8.536C65.6727 8.536 64.9447 8.824 64.3687 9.4C63.7927 9.976 63.5047 10.704 63.5047 11.584C63.5047 12.896 64.1367 13.848 65.4007 14.44C65.5127 13.176 66.0647 12.272 67.0567 11.728C67.5527 11.456 68.0807 11.32 68.6407 11.32C69.2007 11.32 69.6567 11.448 70.0087 11.704C70.4247 12.008 70.6327 12.424 70.6327 12.952C70.6327 13.288 70.4247 13.744 70.0087 14.32C69.2087 15.424 68.0567 15.976 66.5527 15.976C65.2727 15.976 64.2167 15.568 63.3847 14.752C62.5687 13.92 62.1607 12.864 62.1607 11.584C62.1607 10.304 62.5687 9.256 63.3847 8.44C64.2167 7.624 65.2727 7.216 66.5527 7.216C68.2647 7.216 69.6407 8.16 70.6807 10.048L69.5527 10.672ZM68.5207 12.592C67.9287 12.592 67.4327 12.784 67.0327 13.168C66.6327 13.552 66.4247 14.04 66.4087 14.632H66.5527C67.4967 14.632 68.2727 14.304 68.8807 13.648C68.9767 13.488 69.0967 13.312 69.2407 13.12C69.2567 13.04 69.2647 12.976 69.2647 12.928C69.2647 12.704 69.0167 12.592 68.5207 12.592ZM83.7667 16.024C82.1667 16.024 80.9187 15.344 80.0227 13.984C79.1267 15.328 77.8787 16 76.2787 16C74.8387 16 73.5347 15.264 72.3667 13.792L73.4467 12.976C74.3587 14.112 75.3027 14.68 76.2787 14.68C77.1587 14.68 77.8867 14.424 78.4627 13.912C79.0547 13.384 79.3507 12.688 79.3507 11.824V11.344C79.3507 10.512 79.0467 9.84 78.4387 9.328C77.8467 8.816 77.1267 8.56 76.2787 8.56C75.1267 8.56 74.1347 9.248 73.3027 10.624L72.1507 9.952L72.4867 9.376C73.3187 7.952 74.5827 7.24 76.2787 7.24C77.5747 7.24 78.6387 7.648 79.4707 8.464C80.3027 9.264 80.7187 10.312 80.7187 11.608V11.848C80.7187 12.696 81.0067 13.384 81.5827 13.912C82.1747 14.44 82.9027 14.704 83.7667 14.704C84.6627 14.704 85.4067 14.416 85.9987 13.84C86.5907 13.248 86.8867 12.504 86.8867 11.608C86.8867 10.728 86.5827 10 85.9747 9.424C85.3827 8.848 84.6467 8.56 83.7667 8.56C83.4147 8.56 82.8467 8.704 82.0627 8.992L81.6307 7.72L82.2307 7.504C82.6787 7.344 83.1907 7.264 83.7667 7.264C85.0947 7.264 86.1667 7.656 86.9827 8.44C87.7987 9.224 88.2067 10.28 88.2067 11.608C88.2067 12.904 87.7907 13.968 86.9587 14.8C86.1267 15.616 85.0627 16.024 83.7667 16.024ZM91.439 15.976C91.183 15.976 90.783 15.912 90.239 15.784V14.416C90.751 14.56 91.151 14.632 91.439 14.632C92.335 14.632 93.063 14.352 93.623 13.792C94.199 13.216 94.487 12.48 94.487 11.584C94.487 10.72 94.191 10 93.599 9.424C93.023 8.832 92.303 8.536 91.439 8.536C90.031 8.536 89.055 9.312 88.511 10.864C88.495 10.944 88.423 11.136 88.295 11.44L87.119 10.744L87.215 10.408C87.823 8.28 89.231 7.216 91.439 7.216C92.703 7.216 93.751 7.632 94.583 8.464C95.415 9.28 95.831 10.32 95.831 11.584C95.831 12.88 95.423 13.936 94.607 14.752C93.791 15.568 92.735 15.976 91.439 15.976ZM5.344 42C4.08 42 3.032 41.584 2.2 40.752C1.384 39.92 0.976 38.872 0.976 37.608C0.976 36.344 1.384 35.304 2.2 34.488C3.032 33.656 4.08 33.24 5.344 33.24C6.624 33.24 7.672 33.648 8.488 34.464C9.32 35.28 9.736 36.328 9.736 37.608C9.736 38.872 9.32 39.92 8.488 40.752C7.656 41.584 6.608 42 5.344 42ZM5.344 34.56C4.8 34.56 4.28 34.704 3.784 34.992C4.44 35.712 4.768 36.584 4.768 37.608C4.672 38.616 4.264 39.448 3.544 40.104C4.088 40.488 4.688 40.68 5.344 40.68C6.224 40.68 6.96 40.392 7.552 39.816C8.144 39.224 8.44 38.488 8.44 37.608C8.44 36.728 8.144 36 7.552 35.424C6.96 34.848 6.224 34.56 5.344 34.56ZM2.968 35.736C2.52 36.312 2.296 36.936 2.296 37.608C2.296 38.184 2.456 38.728 2.776 39.24C3.24 38.824 3.528 38.264 3.64 37.56C3.576 36.856 3.352 36.248 2.968 35.736ZM5.35 33.36C4.438 33.36 3.67 33.048 3.046 32.424C2.422 31.784 2.11 31.008 2.11 30.096C2.11 29.184 2.43 28.416 3.07 27.792C3.694 27.168 4.462 26.856 5.374 26.856C6.286 26.856 7.046 27.168 7.654 27.792C8.262 28.416 8.566 29.184 8.566 30.096C8.566 30.976 8.254 31.744 7.63 32.4C6.99 33.04 6.23 33.36 5.35 33.36ZM5.35 28.152C4.774 28.152 4.31 28.336 3.958 28.704C3.59 29.056 3.406 29.52 3.406 30.096C3.406 30.256 3.422 30.44 3.454 30.648C3.998 30.232 4.598 29.992 5.254 29.928C5.91 29.928 6.55 30.136 7.174 30.552C7.206 30.36 7.222 30.208 7.222 30.096C7.222 29.536 7.054 29.072 6.718 28.704C6.366 28.336 5.91 28.152 5.35 28.152ZM5.278 30.984C4.814 31.032 4.398 31.208 4.03 31.512C4.414 31.832 4.838 31.992 5.302 31.992C5.814 31.992 6.27 31.8 6.67 31.416C6.27 31.144 5.806 31 5.278 30.984ZM12.406 37.056C11.91 37.056 11.502 36.896 11.182 36.576C10.878 36.256 10.726 35.848 10.726 35.352C10.726 34.872 10.886 34.472 11.206 34.152C11.526 33.816 11.926 33.648 12.406 33.648C12.886 33.648 13.286 33.816 13.606 34.152C13.926 34.472 14.086 34.872 14.086 35.352C14.086 35.848 13.926 36.256 13.606 36.576C13.302 36.896 12.902 37.056 12.406 37.056ZM12.406 41.688C11.91 41.688 11.502 41.528 11.182 41.208C10.878 40.888 10.726 40.48 10.726 39.984C10.726 39.504 10.886 39.104 11.206 38.784C11.526 38.448 11.926 38.28 12.406 38.28C12.902 38.28 13.302 38.44 13.606 38.76C13.926 39.08 14.086 39.488 14.086 39.984C14.086 40.48 13.926 40.888 13.606 41.208C13.302 41.528 12.902 41.688 12.406 41.688ZM12.406 34.8C12.07 34.8 11.902 34.984 11.902 35.352C11.902 35.688 12.07 35.856 12.406 35.856C12.774 35.856 12.958 35.688 12.958 35.352C12.958 34.984 12.774 34.8 12.406 34.8ZM12.406 39.456C12.07 39.456 11.902 39.632 11.902 39.984C11.902 40.352 12.07 40.536 12.406 40.536C12.774 40.536 12.958 40.352 12.958 39.984C12.958 39.632 12.774 39.456 12.406 39.456ZM20.1025 42.048L20.1505 48.456L18.8065 48.48V42.048C17.6385 42.064 16.8465 42.008 16.4305 41.88C15.5985 41.624 15.1505 41.104 15.0865 40.32C14.9425 38.656 15.7985 37.824 17.6545 37.824C18.2945 37.824 18.8385 37.992 19.2865 38.328C19.7505 38.664 20.0225 39.136 20.1025 39.744V40.728C21.5105 40.728 22.2705 40.48 22.3825 39.984C22.5105 39.408 21.9665 38.84 20.7505 38.28C20.2225 38.04 19.3745 37.64 18.2065 37.08C17.2305 36.616 16.7425 35.952 16.7425 35.088C16.7425 33.856 17.6145 33.24 19.3585 33.24C19.8545 33.24 20.3265 33.32 20.7745 33.48C21.5585 33.768 21.9505 34.224 21.9505 34.848C21.9505 34.96 21.8785 35.08 21.7345 35.208H20.4145C20.5105 35.08 20.5585 34.984 20.5585 34.92C20.5585 34.872 20.5425 34.816 20.5105 34.752C20.3825 34.672 19.9985 34.608 19.3585 34.56C18.5105 34.48 18.0865 34.672 18.0865 35.136C18.0865 35.488 18.4705 35.824 19.2385 36.144C19.8625 36.4 20.4065 36.632 20.8705 36.84C22.8225 37.704 23.7985 38.72 23.7985 39.888C23.7985 41.296 22.5665 42.016 20.1025 42.048ZM18.5665 39.456C18.3585 39.264 18.0465 39.168 17.6305 39.168C17.3105 39.168 17.0225 39.264 16.7665 39.456C16.5105 39.648 16.3985 39.896 16.4305 40.2C16.4625 40.6 17.2545 40.776 18.8065 40.728C18.7905 40.024 18.7105 39.6 18.5665 39.456ZM33.0685 39.744C32.7645 40.416 32.2285 40.96 31.4605 41.376C30.7565 41.776 30.0125 41.976 29.2285 41.976C27.9485 41.976 26.8925 41.568 26.0605 40.752C25.2445 39.92 24.8365 38.864 24.8365 37.584C24.8365 36.304 25.2445 35.256 26.0605 34.44C26.8925 33.624 27.9485 33.216 29.2285 33.216C30.9405 33.216 32.3165 34.16 33.3565 36.048L32.2285 36.672C31.4125 35.248 30.4125 34.536 29.2285 34.536C28.3485 34.536 27.6205 34.824 27.0445 35.4C26.4685 35.976 26.1805 36.704 26.1805 37.584C26.1805 38.464 26.4685 39.192 27.0445 39.768C27.6205 40.344 28.3485 40.632 29.2285 40.632C30.4125 40.632 31.4125 39.92 32.2285 38.496L33.3565 39.12L33.0685 39.744ZM31.1785 29.904C31.1465 29.92 31.1145 29.928 31.0825 29.928C31.0505 29.928 31.0345 29.912 31.0345 29.88C30.9865 29.368 30.7945 28.952 30.4585 28.632C30.1065 28.312 29.6745 28.152 29.1625 28.152C28.5865 28.152 28.1225 28.336 27.7705 28.704C27.4025 29.056 27.2185 29.52 27.2185 30.096C27.2185 30.64 27.4025 31.096 27.7705 31.464C28.1225 31.816 28.5705 31.992 29.1145 31.992C29.2265 31.992 29.4025 31.976 29.6425 31.944V33.336C29.4505 33.352 29.2905 33.36 29.1625 33.36C28.2505 33.36 27.4825 33.048 26.8585 32.424C26.2345 31.784 25.9225 31.008 25.9225 30.096C25.9225 29.184 26.2425 28.416 26.8825 27.792C27.5065 27.168 28.2745 26.856 29.1865 26.856C30.0185 26.856 30.7145 27.104 31.2745 27.6C31.8345 28.08 32.1945 28.736 32.3545 29.568C31.9865 29.712 31.5945 29.824 31.1785 29.904ZM36.2185 37.056C35.7225 37.056 35.3145 36.896 34.9945 36.576C34.6905 36.256 34.5385 35.848 34.5385 35.352C34.5385 34.872 34.6985 34.472 35.0185 34.152C35.3385 33.816 35.7385 33.648 36.2185 33.648C36.6985 33.648 37.0985 33.816 37.4185 34.152C37.7385 34.472 37.8985 34.872 37.8985 35.352C37.8985 35.848 37.7385 36.256 37.4185 36.576C37.1145 36.896 36.7145 37.056 36.2185 37.056ZM36.2185 41.688C35.7225 41.688 35.3145 41.528 34.9945 41.208C34.6905 40.888 34.5385 40.48 34.5385 39.984C34.5385 39.504 34.6985 39.104 35.0185 38.784C35.3385 38.448 35.7385 38.28 36.2185 38.28C36.7145 38.28 37.1145 38.44 37.4185 38.76C37.7385 39.08 37.8985 39.488 37.8985 39.984C37.8985 40.48 37.7385 40.888 37.4185 41.208C37.1145 41.528 36.7145 41.688 36.2185 41.688ZM36.2185 34.8C35.8825 34.8 35.7145 34.984 35.7145 35.352C35.7145 35.688 35.8825 35.856 36.2185 35.856C36.5865 35.856 36.7705 35.688 36.7705 35.352C36.7705 34.984 36.5865 34.8 36.2185 34.8ZM36.2185 39.456C35.8825 39.456 35.7145 39.632 35.7145 39.984C35.7145 40.352 35.8825 40.536 36.2185 40.536C36.5865 40.536 36.7705 40.352 36.7705 39.984C36.7705 39.632 36.5865 39.456 36.2185 39.456ZM50.755 42C50.227 42 49.715 41.912 49.219 41.736L48.619 41.52L49.051 40.272C49.835 40.544 50.403 40.68 50.755 40.68C51.651 40.68 52.395 40.392 52.987 39.816C53.579 39.24 53.875 38.504 53.875 37.608C53.875 36.728 53.571 36 52.963 35.424C52.371 34.848 51.635 34.56 50.755 34.56C49.875 34.56 49.147 34.824 48.571 35.352C47.995 35.864 47.707 36.552 47.707 37.416V37.608C47.707 38.904 47.291 39.968 46.459 40.8C45.627 41.616 44.563 42.024 43.267 42.024C41.571 42.024 40.307 41.312 39.475 39.888L39.139 39.312L40.291 38.616C41.123 40.008 42.115 40.704 43.267 40.704C44.115 40.704 44.835 40.448 45.427 39.936C46.035 39.424 46.339 38.752 46.339 37.92V37.416C46.339 36.568 46.043 35.88 45.451 35.352C44.859 34.824 44.131 34.56 43.267 34.56C42.291 34.56 41.347 35.136 40.435 36.288L39.355 35.448C40.523 33.992 41.827 33.264 43.267 33.264C44.867 33.264 46.115 33.936 47.011 35.28C47.907 33.92 49.155 33.24 50.755 33.24C52.051 33.24 53.115 33.648 53.947 34.464C54.779 35.264 55.195 36.312 55.195 37.608C55.195 38.92 54.779 39.984 53.947 40.8C53.131 41.6 52.067 42 50.755 42ZM50.9873 48.552C50.0753 48.552 49.2993 48.232 48.6593 47.592C48.0193 46.952 47.6993 46.176 47.6993 45.264C47.6993 44.336 48.0193 43.552 48.6593 42.912C49.2833 42.272 50.0593 41.952 50.9873 41.952C51.9153 41.952 52.6993 42.272 53.3393 42.912C53.9793 43.552 54.2993 44.336 54.2993 45.264C54.2993 46.192 53.9793 46.968 53.3393 47.592C52.6993 48.232 51.9153 48.552 50.9873 48.552ZM50.9873 43.2C50.3953 43.2 49.9153 43.392 49.5473 43.776C49.1633 44.176 48.9713 44.672 48.9713 45.264C48.9713 45.84 49.1633 46.32 49.5473 46.704C49.9313 47.088 50.4113 47.28 50.9873 47.28C51.5793 47.28 52.0753 47.088 52.4753 46.704C52.8593 46.336 53.0513 45.856 53.0513 45.264C53.0513 44.672 52.8593 44.176 52.4753 43.776C52.0753 43.392 51.5793 43.2 50.9873 43.2ZM68.1462 41.976C67.5542 41.976 66.9222 41.832 66.2502 41.544L66.7542 40.344C67.3622 40.536 67.8262 40.632 68.1462 40.632C69.0422 40.632 69.7782 40.352 70.3542 39.792C70.9462 39.216 71.2422 38.48 71.2422 37.584C71.2422 36.72 70.9382 36 70.3302 35.424C69.7382 34.832 69.0102 34.536 68.1462 34.536C67.2502 34.536 66.5142 34.824 65.9382 35.4C65.3782 35.96 65.0982 36.688 65.0982 37.584V37.728L65.0742 37.776C65.0102 39.056 64.5702 40.08 63.7542 40.848C62.9542 41.6 61.9142 41.976 60.6342 41.976C59.3542 41.976 58.2982 41.568 57.4662 40.752C56.6342 39.92 56.2182 38.864 56.2182 37.584C56.2182 36.272 56.6262 35.216 57.4422 34.416C58.2582 33.616 59.3222 33.216 60.6342 33.216C62.2342 33.216 63.4902 33.896 64.4022 35.256C65.2982 33.896 66.5462 33.216 68.1462 33.216C69.4422 33.216 70.4982 33.624 71.3142 34.44C72.1462 35.24 72.5622 36.288 72.5622 37.584C72.5622 38.864 72.1462 39.92 71.3142 40.752C70.4822 41.568 69.4262 41.976 68.1462 41.976ZM60.6342 34.536C59.7542 34.536 59.0182 34.824 58.4262 35.4C57.8342 35.976 57.5382 36.704 57.5382 37.584C57.5382 38.464 57.8342 39.192 58.4262 39.768C59.0182 40.344 59.7542 40.632 60.6342 40.632C61.5142 40.632 62.2422 40.344 62.8182 39.768C63.3942 39.192 63.6822 38.464 63.6822 37.584C63.6822 36.704 63.3942 35.976 62.8182 35.4C62.2422 34.824 61.5142 34.536 60.6342 34.536ZM70.1785 29.904C70.1465 29.92 70.1145 29.928 70.0825 29.928C70.0505 29.928 70.0345 29.912 70.0345 29.88C69.9865 29.368 69.7945 28.952 69.4585 28.632C69.1065 28.312 68.6745 28.152 68.1625 28.152C67.5865 28.152 67.1225 28.336 66.7705 28.704C66.4025 29.056 66.2185 29.52 66.2185 30.096C66.2185 30.64 66.4025 31.096 66.7705 31.464C67.1225 31.816 67.5705 31.992 68.1145 31.992C68.2265 31.992 68.4025 31.976 68.6425 31.944V33.336C68.4505 33.352 68.2905 33.36 68.1625 33.36C67.2505 33.36 66.4825 33.048 65.8585 32.424C65.2345 31.784 64.9225 31.008 64.9225 30.096C64.9225 29.184 65.2425 28.416 65.8825 27.792C66.5065 27.168 67.2745 26.856 68.1865 26.856C69.0185 26.856 69.7145 27.104 70.2745 27.6C70.8345 28.08 71.1945 28.736 71.3545 29.568C70.9865 29.712 70.5945 29.824 70.1785 29.904ZM82.4185 38.04H82.3465C82.2665 39.64 81.3145 40.952 79.4905 41.976L78.8905 40.848C80.2985 40.032 81.0025 39.024 81.0025 37.824C81.0025 36.944 80.7145 36.216 80.1385 35.64C79.5625 35.064 78.8345 34.776 77.9545 34.776C77.0745 34.776 76.3385 35.064 75.7465 35.64C75.1545 36.216 74.8585 36.944 74.8585 37.824C74.8585 39.04 75.6025 40.048 77.0905 40.848L76.4425 42L75.8665 41.688C74.3145 40.84 73.5385 39.552 73.5385 37.824C73.5385 36.512 73.9465 35.456 74.7625 34.656C75.5785 33.856 76.6425 33.456 77.9545 33.456C79.5545 33.456 80.8105 34.136 81.7225 35.496C82.6185 34.136 83.8665 33.456 85.4665 33.456C86.7625 33.456 87.8185 33.864 88.6345 34.68C89.4665 35.48 89.8825 36.528 89.8825 37.824C89.8825 39.104 89.4665 40.16 88.6345 40.992C87.8025 41.808 86.7465 42.216 85.4665 42.216C85.0825 42.216 84.6985 42.168 84.3145 42.072C84.3465 41.784 84.4265 41.344 84.5545 40.752C85.0025 40.832 85.3065 40.872 85.4665 40.872C86.3625 40.872 87.0985 40.592 87.6745 40.032C88.2665 39.456 88.5625 38.72 88.5625 37.824C88.5625 36.96 88.2585 36.24 87.6505 35.664C87.0585 35.072 86.3305 34.776 85.4665 34.776C84.5705 34.776 83.8345 35.064 83.2585 35.64C82.6985 36.2 82.4185 36.928 82.4185 37.824V38.04ZM99.1388 39.744C98.8348 40.416 98.2988 40.96 97.5308 41.376C96.8268 41.776 96.0828 41.976 95.2988 41.976C94.0188 41.976 92.9628 41.568 92.1308 40.752C91.3148 39.92 90.9068 38.864 90.9068 37.584C90.9068 36.304 91.3148 35.256 92.1308 34.44C92.9628 33.624 94.0188 33.216 95.2988 33.216C97.0108 33.216 98.3868 34.16 99.4268 36.048L98.2988 36.672C97.4828 35.248 96.4828 34.536 95.2988 34.536C94.4188 34.536 93.6908 34.824 93.1148 35.4C92.5388 35.976 92.2508 36.704 92.2508 37.584C92.2508 38.464 92.5388 39.192 93.1148 39.768C93.6908 40.344 94.4188 40.632 95.2988 40.632C96.4828 40.632 97.4828 39.92 98.2988 38.496L99.4268 39.12L99.1388 39.744ZM97.2488 29.904C97.2168 29.92 97.1848 29.928 97.1528 29.928C97.1208 29.928 97.1048 29.912 97.1048 29.88C97.0568 29.368 96.8648 28.952 96.5288 28.632C96.1768 28.312 95.7448 28.152 95.2328 28.152C94.6568 28.152 94.1928 28.336 93.8408 28.704C93.4728 29.056 93.2888 29.52 93.2888 30.096C93.2888 30.64 93.4728 31.096 93.8408 31.464C94.1928 31.816 94.6408 31.992 95.1848 31.992C95.2968 31.992 95.4728 31.976 95.7128 31.944V33.336C95.5208 33.352 95.3608 33.36 95.2328 33.36C94.3208 33.36 93.5528 33.048 92.9288 32.424C92.3048 31.784 91.9928 31.008 91.9928 30.096C91.9928 29.184 92.3128 28.416 92.9528 27.792C93.5768 27.168 94.3448 26.856 95.2568 26.856C96.0888 26.856 96.7848 27.104 97.3448 27.6C97.9048 28.08 98.2648 28.736 98.4248 29.568C98.0568 29.712 97.6648 29.824 97.2488 29.904ZM103.177 42V33.936H104.497V42H103.177ZM101.113 42V33.936H102.433V42H101.113Z" fill="white"/>
</svg>
