<svg width="177" height="85" viewBox="0 0 177 85" fill="none" xmlns="http://www.w3.org/2000/svg">
<path d="M13.8866 51.1C13.8866 51.694 13.4546 52.072 12.8426 52.072C12.1586 52.072 11.6726 51.496 11.6726 50.614C11.6726 48.994 13.0046 47.608 13.5806 47.302L14.0306 47.752C13.4546 48.256 12.8786 48.85 12.8246 49.966C13.4186 50.056 13.8866 50.578 13.8866 51.1ZM10.7546 51.1C10.7546 51.694 10.3226 52.072 9.71063 52.072C9.02663 52.072 8.54063 51.496 8.54063 50.614C8.54063 48.994 9.87263 47.608 10.4486 47.302L10.8986 47.752C10.3226 48.256 9.74663 48.85 9.69263 49.966C10.2866 50.056 10.7546 50.578 10.7546 51.1ZM23.846 60.982C22.646 60.982 21.71 60.466 21.038 59.434C20.354 60.466 19.412 60.982 18.212 60.982C17.252 60.982 16.46 60.676 15.836 60.064C15.212 59.44 14.9 58.648 14.9 57.688C14.9 56.704 15.206 55.912 15.818 55.312C16.43 54.712 17.228 54.412 18.212 54.412C19.412 54.412 20.354 54.922 21.038 55.942C21.71 54.922 22.646 54.412 23.846 54.412C24.818 54.412 25.61 54.718 26.222 55.33C26.846 55.93 27.158 56.716 27.158 57.688C27.158 58.648 26.846 59.44 26.222 60.064C25.598 60.676 24.806 60.982 23.846 60.982ZM23.846 55.402C23.174 55.402 22.622 55.618 22.19 56.05C21.77 56.47 21.56 57.016 21.56 57.688C21.56 58.348 21.776 58.894 22.208 59.326C22.64 59.758 23.186 59.974 23.846 59.974C24.518 59.974 25.07 59.764 25.502 59.344C25.946 58.912 26.168 58.36 26.168 57.688C26.168 57.04 25.94 56.5 25.484 56.068C25.04 55.624 24.494 55.402 23.846 55.402ZM18.212 55.402C17.552 55.402 17 55.618 16.556 56.05C16.112 56.482 15.89 57.028 15.89 57.688C15.89 58.348 16.112 58.894 16.556 59.326C17 59.758 17.552 59.974 18.212 59.974C18.872 59.974 19.418 59.758 19.85 59.326C20.282 58.894 20.498 58.348 20.498 57.688C20.498 57.028 20.282 56.482 19.85 56.05C19.418 55.618 18.872 55.402 18.212 55.402ZM29.5822 60.982C29.3902 60.982 29.0902 60.934 28.6822 60.838V59.812C29.0662 59.92 29.3662 59.974 29.5822 59.974C30.2542 59.974 30.8002 59.764 31.2202 59.344C31.6522 58.912 31.8682 58.36 31.8682 57.688C31.8682 57.04 31.6462 56.5 31.2022 56.068C30.7702 55.624 30.2302 55.402 29.5822 55.402C28.5262 55.402 27.7942 55.984 27.3862 57.148C27.3742 57.208 27.3202 57.352 27.2242 57.58L26.3422 57.058L26.4142 56.806C26.8702 55.21 27.9262 54.412 29.5822 54.412C30.5302 54.412 31.3162 54.724 31.9402 55.348C32.5642 55.96 32.8762 56.74 32.8762 57.688C32.8762 58.66 32.5702 59.452 31.9582 60.064C31.3462 60.676 30.5542 60.982 29.5822 60.982ZM34.8983 57.292C34.5263 57.292 34.2203 57.172 33.9803 56.932C33.7523 56.692 33.6382 56.386 33.6382 56.014C33.6382 55.654 33.7583 55.354 33.9983 55.114C34.2383 54.862 34.5383 54.736 34.8983 54.736C35.2583 54.736 35.5583 54.862 35.7983 55.114C36.0383 55.354 36.1583 55.654 36.1583 56.014C36.1583 56.386 36.0383 56.692 35.7983 56.932C35.5703 57.172 35.2703 57.292 34.8983 57.292ZM34.8983 60.766C34.5263 60.766 34.2203 60.646 33.9803 60.406C33.7523 60.166 33.6382 59.86 33.6382 59.488C33.6382 59.128 33.7583 58.828 33.9983 58.588C34.2383 58.336 34.5383 58.21 34.8983 58.21C35.2703 58.21 35.5703 58.33 35.7983 58.57C36.0383 58.81 36.1583 59.116 36.1583 59.488C36.1583 59.86 36.0383 60.166 35.7983 60.406C35.5703 60.646 35.2703 60.766 34.8983 60.766ZM34.8983 55.6C34.6463 55.6 34.5203 55.738 34.5203 56.014C34.5203 56.266 34.6463 56.392 34.8983 56.392C35.1743 56.392 35.3123 56.266 35.3123 56.014C35.3123 55.738 35.1743 55.6 34.8983 55.6ZM34.8983 59.092C34.6463 59.092 34.5203 59.224 34.5203 59.488C34.5203 59.764 34.6463 59.902 34.8983 59.902C35.1743 59.902 35.3123 59.764 35.3123 59.488C35.3123 59.224 35.1743 59.092 34.8983 59.092ZM40.1846 61C39.2126 61 38.4146 60.694 37.7906 60.082C37.1786 59.47 36.8726 58.678 36.8726 57.706C36.8726 56.758 37.1846 55.978 37.8086 55.366C38.4446 54.742 39.2366 54.43 40.1846 54.43C41.1326 54.43 41.9126 54.742 42.5246 55.366C43.1366 55.978 43.4426 56.758 43.4426 57.706C43.4426 58.654 43.1366 59.44 42.5246 60.064C41.9126 60.688 41.1326 61 40.1846 61ZM40.1846 55.42C39.5246 55.42 38.9726 55.636 38.5286 56.068C38.0846 56.5 37.8626 57.046 37.8626 57.706C37.8626 58.378 38.0786 58.93 38.5106 59.362C38.9546 59.794 39.5126 60.01 40.1846 60.01C40.8326 60.01 41.3726 59.788 41.8046 59.344C42.2486 58.9 42.4706 58.354 42.4706 57.706C42.4706 57.058 42.2486 56.518 41.8046 56.086C41.3726 55.642 40.8326 55.42 40.1846 55.42ZM53.1311 60.982C51.9311 60.982 50.9951 60.466 50.3231 59.434C49.6391 60.466 48.6971 60.982 47.4971 60.982C46.5371 60.982 45.7451 60.676 45.1211 60.064C44.4971 59.44 44.1851 58.648 44.1851 57.688C44.1851 56.392 44.7671 55.426 45.9311 54.79L46.3631 54.556L46.8491 55.42C45.7331 56.032 45.1751 56.788 45.1751 57.688C45.1751 58.348 45.3971 58.894 45.8411 59.326C46.2851 59.758 46.8371 59.974 47.4971 59.974C48.1571 59.974 48.7031 59.758 49.1351 59.326C49.5671 58.894 49.7831 58.348 49.7831 57.688C49.7831 56.8 49.2551 56.044 48.1991 55.42L48.6491 54.592C50.0171 55.36 50.7311 56.338 50.7911 57.526H50.8451V57.688C50.8451 58.348 51.0611 58.894 51.4931 59.326C51.9251 59.758 52.4711 59.974 53.1311 59.974C53.8031 59.974 54.3551 59.764 54.7871 59.344C55.2311 58.912 55.4531 58.36 55.4531 57.688C55.4531 57.04 55.2251 56.5 54.7691 56.068C54.3251 55.624 53.7791 55.402 53.1311 55.402C53.0111 55.402 52.7831 55.438 52.4471 55.51C52.3511 55.054 52.2911 54.724 52.2671 54.52C52.5551 54.448 52.8431 54.412 53.1311 54.412C54.1031 54.412 54.8951 54.718 55.5071 55.33C56.1311 55.93 56.4431 56.716 56.4431 57.688C56.4431 58.648 56.1311 59.44 55.5071 60.064C54.8831 60.676 54.0911 60.982 53.1311 60.982ZM54.6554 51.928C54.6314 51.94 54.6074 51.946 54.5834 51.946C54.5594 51.946 54.5474 51.934 54.5474 51.91C54.5114 51.526 54.3674 51.214 54.1154 50.974C53.8514 50.734 53.5274 50.614 53.1434 50.614C52.7114 50.614 52.3634 50.752 52.0994 51.028C51.8234 51.292 51.6854 51.64 51.6854 52.072C51.6854 52.48 51.8234 52.822 52.0994 53.098C52.3634 53.362 52.6994 53.494 53.1074 53.494C53.1914 53.494 53.3234 53.482 53.5034 53.458V54.502C53.3594 54.514 53.2394 54.52 53.1434 54.52C52.4594 54.52 51.8834 54.286 51.4154 53.818C50.9474 53.338 50.7134 52.756 50.7134 52.072C50.7134 51.388 50.9534 50.812 51.4334 50.344C51.9014 49.876 52.4774 49.642 53.1614 49.642C53.7854 49.642 54.3074 49.828 54.7274 50.2C55.1474 50.56 55.4174 51.052 55.5374 51.676C55.2614 51.784 54.9674 51.868 54.6554 51.928ZM63.2954 65.86C62.9714 65.86 62.8094 65.668 62.8094 65.284V57.706C62.8094 57.046 62.5934 56.5 62.1614 56.068C61.7294 55.624 61.1834 55.402 60.5234 55.402C59.8634 55.402 59.3174 55.624 58.8854 56.068C58.4534 56.5 58.2374 57.046 58.2374 57.706V57.778C58.4774 57.706 58.7414 57.67 59.0294 57.67C59.7374 57.67 60.3554 57.874 60.8834 58.282C61.4594 58.726 61.7474 59.29 61.7474 59.974C61.7474 60.694 61.3934 61.054 60.6854 61.054C60.5534 61.054 60.4274 61.042 60.3074 61.018C59.3474 60.958 58.5914 60.634 58.0394 60.046C57.4994 59.446 57.2294 58.666 57.2294 57.706C57.2294 56.746 57.5354 55.96 58.1474 55.348C58.7714 54.724 59.5634 54.412 60.5234 54.412C61.4834 54.412 62.2754 54.724 62.8994 55.348C63.5234 55.96 63.8354 56.746 63.8354 57.706V64.87H64.4834V65.86H63.2954ZM60.7394 59.83C60.7394 59.374 60.4994 59.014 60.0194 58.75C59.5994 58.51 59.1494 58.408 58.6694 58.444L58.4174 58.534C58.4534 58.666 58.5194 58.798 58.6154 58.93C59.1554 59.686 59.7254 60.064 60.3254 60.064C60.4694 60.064 60.5774 60.034 60.6494 59.974L60.7394 59.902V59.83ZM60.5819 65.86H59.0879V64.87H60.0779V60.946H61.0499V65.284C61.0499 65.668 60.8939 65.86 60.5819 65.86ZM60.4559 54.52C59.7719 54.52 59.1959 54.286 58.7279 53.818C58.2599 53.338 58.0259 52.756 58.0259 52.072C58.0259 51.388 58.2659 50.812 58.7459 50.344C59.2139 49.876 59.7899 49.642 60.4739 49.642C61.1579 49.642 61.7279 49.876 62.1839 50.344C62.6399 50.812 62.8679 51.388 62.8679 52.072C62.8679 52.732 62.6339 53.308 62.1659 53.8C61.6859 54.28 61.1159 54.52 60.4559 54.52ZM60.4559 50.614C60.0239 50.614 59.6759 50.752 59.4119 51.028C59.1359 51.292 58.9979 51.64 58.9979 52.072C58.9979 52.48 59.1359 52.822 59.4119 53.098C59.6759 53.362 60.0119 53.494 60.4199 53.494C60.8399 53.494 61.1879 53.362 61.4639 53.098C61.7279 52.834 61.8599 52.492 61.8599 52.072C61.8599 51.652 61.7339 51.304 61.4819 51.028C61.2179 50.752 60.8759 50.614 60.4559 50.614ZM75.1565 60.982C73.9565 60.982 73.0205 60.466 72.3485 59.434C71.6645 60.466 70.7225 60.982 69.5225 60.982C68.5625 60.982 67.7705 60.676 67.1465 60.064C66.5225 59.44 66.2105 58.648 66.2105 57.688C66.2105 56.392 66.7925 55.426 67.9565 54.79L68.3885 54.556L68.8745 55.42C67.7585 56.032 67.2005 56.788 67.2005 57.688C67.2005 58.348 67.4225 58.894 67.8665 59.326C68.3105 59.758 68.8625 59.974 69.5225 59.974C70.1825 59.974 70.7285 59.758 71.1605 59.326C71.5925 58.894 71.8085 58.348 71.8085 57.688C71.8085 56.8 71.2805 56.044 70.2245 55.42L70.6745 54.592C72.0425 55.36 72.7565 56.338 72.8165 57.526H72.8705V57.688C72.8705 58.348 73.0865 58.894 73.5185 59.326C73.9505 59.758 74.4965 59.974 75.1565 59.974C75.8285 59.974 76.3805 59.764 76.8125 59.344C77.2565 58.912 77.4785 58.36 77.4785 57.688C77.4785 57.04 77.2505 56.5 76.7945 56.068C76.3505 55.624 75.8045 55.402 75.1565 55.402C75.0365 55.402 74.8085 55.438 74.4725 55.51C74.3765 55.054 74.3165 54.724 74.2925 54.52C74.5805 54.448 74.8685 54.412 75.1565 54.412C76.1285 54.412 76.9205 54.718 77.5325 55.33C78.1565 55.93 78.4685 56.716 78.4685 57.688C78.4685 58.648 78.1565 59.44 77.5325 60.064C76.9085 60.676 76.1165 60.982 75.1565 60.982ZM75.2947 53.782C74.9467 53.782 74.6527 53.662 74.4127 53.422C74.1727 53.182 74.0527 52.888 74.0527 52.54C74.0527 52.18 74.1727 51.88 74.4127 51.64C74.6407 51.4 74.9347 51.28 75.2947 51.28C75.6547 51.28 75.9607 51.4 76.2127 51.64C76.4527 51.88 76.5728 52.18 76.5728 52.54C76.5728 52.888 76.4467 53.182 76.1947 53.422C75.9427 53.662 75.6427 53.782 75.2947 53.782ZM75.2947 52.144C75.0427 52.144 74.9167 52.276 74.9167 52.54C74.9167 52.804 75.0427 52.936 75.2947 52.936C75.5707 52.936 75.7087 52.804 75.7087 52.54C75.7087 52.276 75.5707 52.144 75.2947 52.144ZM75.1687 65.86C74.8567 65.86 74.7007 65.668 74.7007 65.284V60.946H75.6547V64.87H76.6447V65.86H75.1687ZM93.1868 52.18H92.1608V51.244C92.1608 50.824 92.0048 50.614 91.6928 50.614H80.8928C80.4728 50.614 80.2628 50.866 80.2628 51.37V64.168C80.2628 64.624 80.4728 64.852 80.8928 64.852H91.5488C91.9448 64.852 92.1428 64.702 92.1428 64.402V58.048H93.1868V64.384C93.1868 65.368 92.6348 65.86 91.5308 65.86H80.8928C79.7768 65.86 79.2188 65.308 79.2188 64.204L79.2007 51.28C79.2007 50.176 79.7648 49.624 80.8928 49.624H91.8188C92.7548 49.624 93.2168 50.116 93.2048 51.1L93.1868 52.18ZM87.5483 58.03H87.4943C87.4343 59.23 86.7203 60.214 85.3523 60.982L84.9023 60.136C85.9583 59.524 86.4863 58.768 86.4863 57.868C86.4863 57.208 86.2703 56.662 85.8383 56.23C85.4063 55.798 84.8603 55.582 84.2003 55.582C83.5403 55.582 82.9883 55.798 82.5443 56.23C82.1003 56.662 81.8783 57.208 81.8783 57.868C81.8783 58.78 82.4363 59.536 83.5522 60.136L83.0663 61L82.6343 60.766C81.4703 60.13 80.8882 59.164 80.8882 57.868C80.8882 56.884 81.1943 56.092 81.8063 55.492C82.4183 54.892 83.2163 54.592 84.2003 54.592C85.4003 54.592 86.3423 55.102 87.0263 56.122C87.6983 55.102 88.6343 54.592 89.8343 54.592C90.8063 54.592 91.5983 54.898 92.2103 55.51C92.8343 56.11 93.1463 56.896 93.1463 57.868C93.1463 58.828 92.8343 59.62 92.2103 60.244C91.5863 60.856 90.7943 61.162 89.8343 61.162C89.5463 61.162 89.2583 61.126 88.9703 61.054C88.9943 60.838 89.0543 60.508 89.1503 60.064C89.4863 60.124 89.7143 60.154 89.8343 60.154C90.5063 60.154 91.0583 59.944 91.4902 59.524C91.9342 59.092 92.1562 58.54 92.1562 57.868C92.1562 57.22 91.9283 56.68 91.4723 56.248C91.0283 55.804 90.4823 55.582 89.8343 55.582C89.1623 55.582 88.6103 55.798 88.1783 56.23C87.7583 56.65 87.5483 57.196 87.5483 57.868V58.03ZM94.8685 58.75L94.8865 58.768L94.9405 58.696V58.84C95.5765 59.632 96.2725 60.028 97.0285 60.028C97.6885 60.028 98.2345 59.836 98.6665 59.452C99.0985 59.056 99.3145 58.534 99.3145 57.886V57.526C99.3145 56.89 99.0925 56.38 98.6485 55.996C98.2165 55.612 97.6765 55.42 97.0285 55.42C96.1645 55.42 95.4145 55.942 94.7785 56.986L93.9145 56.482L94.1665 56.032C94.7665 54.964 95.7205 54.43 97.0285 54.43C98.0005 54.43 98.7925 54.742 99.4045 55.366C100.028 55.978 100.34 56.77 100.34 57.742V57.922C100.34 58.57 100.568 59.092 101.024 59.488C101.444 59.86 101.984 60.046 102.644 60.046C103.316 60.046 103.868 59.83 104.3 59.398C104.744 58.966 104.966 58.414 104.966 57.742C104.966 57.082 104.744 56.53 104.3 56.086C103.856 55.642 103.304 55.42 102.644 55.42C102.368 55.42 101.936 55.528 101.348 55.744L101.024 54.808L101.492 54.628C101.804 54.508 102.188 54.448 102.644 54.448C103.604 54.448 104.396 54.76 105.02 55.384C105.644 55.996 105.956 56.782 105.956 57.742C105.956 58.69 105.638 59.482 105.002 60.118C104.378 60.742 103.592 61.054 102.644 61.054C101.432 61.054 100.49 60.538 99.8185 59.506C99.1585 60.526 98.2285 61.036 97.0285 61.036C96.2725 61.036 95.5765 60.796 94.9405 60.316V64.168C94.9405 64.624 95.1505 64.852 95.5705 64.852H104.3C104.708 64.852 104.912 64.702 104.912 64.402V63.52H105.956V64.384C105.956 65.368 105.398 65.86 104.282 65.86H95.5705C94.4545 65.86 93.8965 65.308 93.8965 64.204V59.488L94.5985 58.984L94.8685 58.75ZM104.173 51.928C104.149 51.94 104.125 51.946 104.101 51.946C104.077 51.946 104.065 51.934 104.065 51.91C104.029 51.526 103.885 51.214 103.633 50.974C103.369 50.734 103.045 50.614 102.661 50.614C102.229 50.614 101.881 50.752 101.617 51.028C101.341 51.292 101.203 51.64 101.203 52.072C101.203 52.48 101.341 52.822 101.617 53.098C101.881 53.362 102.217 53.494 102.625 53.494C102.709 53.494 102.841 53.482 103.021 53.458V54.502C102.877 54.514 102.757 54.52 102.661 54.52C101.977 54.52 101.401 54.286 100.933 53.818C100.465 53.338 100.231 52.756 100.231 52.072C100.231 51.388 100.471 50.812 100.951 50.344C101.419 49.876 101.995 49.642 102.679 49.642C103.303 49.642 103.825 49.828 104.245 50.2C104.665 50.56 104.935 51.052 105.055 51.676C104.779 51.784 104.485 51.868 104.173 51.928ZM109.969 61C109.021 61 108.235 60.688 107.611 60.064C106.999 59.44 106.693 58.654 106.693 57.706C106.693 56.758 106.999 55.978 107.611 55.366C108.235 54.742 109.021 54.43 109.969 54.43C110.929 54.43 111.715 54.736 112.327 55.348C112.951 55.96 113.263 56.746 113.263 57.706C113.263 58.654 112.951 59.44 112.327 60.064C111.703 60.688 110.917 61 109.969 61ZM109.969 55.42C109.561 55.42 109.171 55.528 108.799 55.744C109.291 56.284 109.537 56.938 109.537 57.706C109.465 58.462 109.159 59.086 108.619 59.578C109.027 59.866 109.477 60.01 109.969 60.01C110.629 60.01 111.181 59.794 111.625 59.362C112.069 58.918 112.291 58.366 112.291 57.706C112.291 57.046 112.069 56.5 111.625 56.068C111.181 55.636 110.629 55.42 109.969 55.42ZM108.187 56.302C107.851 56.734 107.683 57.202 107.683 57.706C107.683 58.138 107.803 58.546 108.043 58.93C108.391 58.618 108.607 58.198 108.691 57.67C108.643 57.142 108.475 56.686 108.187 56.302ZM109.973 54.52C109.289 54.52 108.713 54.286 108.245 53.818C107.777 53.338 107.543 52.756 107.543 52.072C107.543 51.388 107.783 50.812 108.263 50.344C108.731 49.876 109.307 49.642 109.991 49.642C110.675 49.642 111.245 49.876 111.701 50.344C112.157 50.812 112.385 51.388 112.385 52.072C112.385 52.732 112.151 53.308 111.683 53.8C111.203 54.28 110.633 54.52 109.973 54.52ZM109.973 50.614C109.541 50.614 109.193 50.752 108.929 51.028C108.653 51.292 108.515 51.64 108.515 52.072C108.515 52.48 108.653 52.822 108.929 53.098C109.193 53.362 109.529 53.494 109.937 53.494C110.357 53.494 110.705 53.362 110.981 53.098C111.245 52.834 111.377 52.492 111.377 52.072C111.377 51.652 111.251 51.304 110.999 51.028C110.735 50.752 110.393 50.614 109.973 50.614ZM122.951 60.982C122.507 60.982 122.033 60.874 121.529 60.658L121.907 59.758C122.363 59.902 122.711 59.974 122.951 59.974C123.623 59.974 124.175 59.764 124.607 59.344C125.051 58.912 125.273 58.36 125.273 57.688C125.273 57.04 125.045 56.5 124.589 56.068C124.145 55.624 123.599 55.402 122.951 55.402C122.279 55.402 121.727 55.618 121.295 56.05C120.875 56.47 120.665 57.016 120.665 57.688V57.796L120.647 57.832C120.599 58.792 120.269 59.56 119.657 60.136C119.057 60.7 118.277 60.982 117.317 60.982C116.357 60.982 115.565 60.676 114.941 60.064C114.317 59.44 114.005 58.648 114.005 57.688C114.005 56.704 114.311 55.912 114.923 55.312C115.535 54.712 116.333 54.412 117.317 54.412C118.517 54.412 119.459 54.922 120.143 55.942C120.815 54.922 121.751 54.412 122.951 54.412C123.923 54.412 124.715 54.718 125.327 55.33C125.951 55.93 126.263 56.716 126.263 57.688C126.263 58.648 125.951 59.44 125.327 60.064C124.703 60.676 123.911 60.982 122.951 60.982ZM117.317 55.402C116.657 55.402 116.105 55.618 115.661 56.05C115.217 56.482 114.995 57.028 114.995 57.688C114.995 58.348 115.217 58.894 115.661 59.326C116.105 59.758 116.657 59.974 117.317 59.974C117.977 59.974 118.523 59.758 118.955 59.326C119.387 58.894 119.603 58.348 119.603 57.688C119.603 57.028 119.387 56.482 118.955 56.05C118.523 55.618 117.977 55.402 117.317 55.402ZM124.476 51.928C124.452 51.94 124.428 51.946 124.404 51.946C124.38 51.946 124.368 51.934 124.368 51.91C124.332 51.526 124.188 51.214 123.936 50.974C123.672 50.734 123.348 50.614 122.964 50.614C122.532 50.614 122.184 50.752 121.92 51.028C121.644 51.292 121.506 51.64 121.506 52.072C121.506 52.48 121.644 52.822 121.92 53.098C122.184 53.362 122.52 53.494 122.928 53.494C123.012 53.494 123.144 53.482 123.324 53.458V54.502C123.18 54.514 123.06 54.52 122.964 54.52C122.28 54.52 121.704 54.286 121.236 53.818C120.768 53.338 120.534 52.756 120.534 52.072C120.534 51.388 120.774 50.812 121.254 50.344C121.722 49.876 122.298 49.642 122.982 49.642C123.606 49.642 124.128 49.828 124.548 50.2C124.968 50.56 125.238 51.052 125.358 51.676C125.082 51.784 124.788 51.868 124.476 51.928ZM130.326 60.982C129.198 60.982 128.334 60.568 127.734 59.74C127.434 59.32 127.284 58.978 127.284 58.714C127.284 58.33 127.44 58.024 127.752 57.796C128.028 57.592 128.364 57.49 128.76 57.49C129.648 57.49 130.326 57.874 130.794 58.642C131.022 59.014 131.16 59.41 131.208 59.83C132.156 59.386 132.63 58.672 132.63 57.688C132.63 57.028 132.408 56.482 131.964 56.05C131.532 55.618 130.986 55.402 130.326 55.402C129.45 55.402 128.706 55.936 128.094 57.004L127.212 56.536C128.016 55.12 129.054 54.412 130.326 54.412C131.286 54.412 132.078 54.718 132.702 55.33C133.326 55.942 133.638 56.728 133.638 57.688C133.638 58.648 133.326 59.44 132.702 60.064C132.078 60.676 131.286 60.982 130.326 60.982ZM128.85 58.444C128.478 58.444 128.292 58.528 128.292 58.696C128.292 58.732 128.304 58.78 128.328 58.84C128.436 58.984 128.526 59.116 128.598 59.236C129.042 59.728 129.618 59.974 130.326 59.974H130.452C130.44 59.518 130.284 59.152 129.984 58.876C129.684 58.588 129.306 58.444 128.85 58.444ZM134.686 65.824C134.614 65.824 134.524 65.812 134.416 65.788L132.724 65.428C132.208 65.32 131.944 65.074 131.932 64.69L131.914 64.168V59.542H132.904V64.402L134.272 64.726V54.43H135.262V65.284C135.262 65.644 135.07 65.824 134.686 65.824ZM142.098 65.86C141.774 65.86 141.612 65.668 141.612 65.284V57.706C141.612 57.046 141.396 56.5 140.964 56.068C140.532 55.624 139.986 55.402 139.326 55.402C138.666 55.402 138.12 55.624 137.688 56.068C137.256 56.5 137.04 57.046 137.04 57.706V57.778C137.28 57.706 137.544 57.67 137.832 57.67C138.54 57.67 139.158 57.874 139.686 58.282C140.262 58.726 140.55 59.29 140.55 59.974C140.55 60.694 140.196 61.054 139.488 61.054C139.356 61.054 139.23 61.042 139.11 61.018C138.15 60.958 137.394 60.634 136.842 60.046C136.302 59.446 136.032 58.666 136.032 57.706C136.032 56.746 136.338 55.96 136.95 55.348C137.574 54.724 138.366 54.412 139.326 54.412C140.286 54.412 141.078 54.724 141.702 55.348C142.326 55.96 142.638 56.746 142.638 57.706V64.87H143.286V65.86H142.098ZM139.542 59.83C139.542 59.374 139.302 59.014 138.822 58.75C138.402 58.51 137.952 58.408 137.472 58.444L137.22 58.534C137.256 58.666 137.322 58.798 137.418 58.93C137.958 59.686 138.528 60.064 139.128 60.064C139.272 60.064 139.38 60.034 139.452 59.974L139.542 59.902V59.83ZM148.871 57.004C148.259 55.936 147.509 55.402 146.621 55.402C145.961 55.402 145.415 55.618 144.983 56.05C144.551 56.482 144.335 57.028 144.335 57.688C144.335 58.672 144.809 59.386 145.757 59.83C145.841 58.882 146.255 58.204 146.999 57.796C147.371 57.592 147.767 57.49 148.187 57.49C148.607 57.49 148.949 57.586 149.213 57.778C149.525 58.006 149.681 58.318 149.681 58.714C149.681 58.966 149.525 59.308 149.213 59.74C148.613 60.568 147.749 60.982 146.621 60.982C145.661 60.982 144.869 60.676 144.245 60.064C143.633 59.44 143.327 58.648 143.327 57.688C143.327 56.728 143.633 55.942 144.245 55.33C144.869 54.718 145.661 54.412 146.621 54.412C147.905 54.412 148.937 55.12 149.717 56.536L148.871 57.004ZM148.097 58.444C147.653 58.444 147.281 58.588 146.981 58.876C146.681 59.164 146.525 59.53 146.513 59.974H146.621C147.329 59.974 147.911 59.728 148.367 59.236C148.439 59.116 148.529 58.984 148.637 58.84C148.649 58.78 148.655 58.732 148.655 58.696C148.655 58.528 148.469 58.444 148.097 58.444ZM159.531 61.018C158.331 61.018 157.395 60.508 156.723 59.488C156.051 60.496 155.115 61 153.915 61C152.835 61 151.857 60.448 150.981 59.344L151.791 58.732C152.475 59.584 153.183 60.01 153.915 60.01C154.575 60.01 155.121 59.818 155.553 59.434C155.997 59.038 156.219 58.516 156.219 57.868V57.508C156.219 56.884 155.991 56.38 155.535 55.996C155.091 55.612 154.551 55.42 153.915 55.42C153.051 55.42 152.307 55.936 151.683 56.968L150.819 56.464L151.071 56.032C151.695 54.964 152.643 54.43 153.915 54.43C154.887 54.43 155.685 54.736 156.309 55.348C156.933 55.948 157.245 56.734 157.245 57.706V57.886C157.245 58.522 157.461 59.038 157.893 59.434C158.337 59.83 158.883 60.028 159.531 60.028C160.203 60.028 160.761 59.812 161.205 59.38C161.649 58.936 161.871 58.378 161.871 57.706C161.871 57.046 161.643 56.5 161.187 56.068C160.743 55.636 160.191 55.42 159.531 55.42C159.267 55.42 158.841 55.528 158.253 55.744L157.929 54.79L158.379 54.628C158.715 54.508 159.099 54.448 159.531 54.448C160.527 54.448 161.331 54.742 161.943 55.33C162.555 55.918 162.861 56.71 162.861 57.706C162.861 58.678 162.549 59.476 161.925 60.1C161.301 60.712 160.503 61.018 159.531 61.018ZM165.285 60.982C165.093 60.982 164.793 60.934 164.385 60.838V59.812C164.769 59.92 165.069 59.974 165.285 59.974C165.957 59.974 166.503 59.764 166.923 59.344C167.355 58.912 167.571 58.36 167.571 57.688C167.571 57.04 167.349 56.5 166.905 56.068C166.473 55.624 165.933 55.402 165.285 55.402C164.229 55.402 163.497 55.984 163.089 57.148C163.077 57.208 163.023 57.352 162.927 57.58L162.045 57.058L162.117 56.806C162.573 55.21 163.629 54.412 165.285 54.412C166.233 54.412 167.019 54.724 167.643 55.348C168.267 55.96 168.579 56.74 168.579 57.688C168.579 58.66 168.273 59.452 167.661 60.064C167.049 60.676 166.257 60.982 165.285 60.982ZM32.2096 77.354V77.3H32.1196L32.1376 76.328H32.7316C33.5956 76.328 34.0696 76.016 34.1536 75.392C34.0576 74.744 33.3436 74.42 32.0116 74.42C31.0756 74.42 30.4636 74.696 30.1756 75.248C30.0796 75.44 30.1396 75.536 30.3556 75.536H30.5536L30.4816 76.454H30.3556C29.5276 76.454 29.1136 76.07 29.1136 75.302C29.1136 74.63 29.4496 74.132 30.1216 73.808C30.6376 73.556 31.2676 73.43 32.0116 73.43C33.3196 73.43 34.2556 73.784 34.8196 74.492C35.4796 73.796 36.2896 73.448 37.2496 73.448C38.0296 73.448 38.7316 73.706 39.3556 74.222C40.1356 74.858 40.5256 75.698 40.5256 76.742C40.5256 77.522 40.2676 78.224 39.7516 78.848C39.0916 79.64 38.2576 80.036 37.2496 80.036C36.8896 80.036 36.5296 79.982 36.1696 79.874C36.0136 79.826 35.9356 79.694 35.9356 79.478C35.9356 79.058 35.9476 78.812 35.9716 78.74C36.0916 78.368 36.2296 78.116 36.3856 77.984C36.9376 77.504 37.4656 77.264 37.9696 77.264C38.5096 77.264 38.9536 77.408 39.3016 77.696C39.4576 77.408 39.5356 77.09 39.5356 76.742C39.5356 76.082 39.3196 75.53 38.8876 75.086C38.4556 74.642 37.9096 74.42 37.2496 74.42C36.2896 74.42 35.5876 74.858 35.1436 75.734C35.0596 76.13 34.8376 76.478 34.4776 76.778C35.0176 77.126 35.2576 77.606 35.1976 78.218C35.0776 79.406 34.0156 80 32.0116 80C31.3756 80 30.7876 79.892 30.2476 79.676C29.5396 79.4 29.1676 78.992 29.1316 78.452L29.1136 78.146L30.1036 77.912C30.1156 78.08 30.1396 78.272 30.1756 78.488C30.2596 78.644 30.5416 78.776 31.0216 78.884C31.3936 78.968 31.7236 79.01 32.0116 79.01C33.4156 79.01 34.1416 78.71 34.1896 78.11C34.2256 77.582 33.6976 77.318 32.6056 77.318C32.5216 77.306 32.3896 77.318 32.2096 77.354ZM38.0416 78.002C37.7176 78.002 37.4056 78.194 37.1056 78.578C37.0576 78.638 36.9976 78.788 36.9256 79.028C37.0576 79.04 37.1656 79.046 37.2496 79.046C37.8016 79.046 38.3716 78.782 38.9596 78.254C38.7436 78.086 38.4376 78.002 38.0416 78.002ZM47.4684 78.308C47.2404 78.812 46.8384 79.22 46.2624 79.532C45.7344 79.832 45.1764 79.982 44.5884 79.982C43.6284 79.982 42.8364 79.676 42.2124 79.064C41.6004 78.44 41.2944 77.648 41.2944 76.688C41.2944 75.728 41.6004 74.942 42.2124 74.33C42.8364 73.718 43.6284 73.412 44.5884 73.412C45.8724 73.412 46.9044 74.12 47.6844 75.536L46.8384 76.004C46.2264 74.936 45.4764 74.402 44.5884 74.402C43.9284 74.402 43.3824 74.618 42.9504 75.05C42.5184 75.482 42.3024 76.028 42.3024 76.688C42.3024 77.348 42.5184 77.894 42.9504 78.326C43.3824 78.758 43.9284 78.974 44.5884 78.974C45.4764 78.974 46.2264 78.44 46.8384 77.372L47.6844 77.84L47.4684 78.308ZM44.6649 84.86H43.1709V83.87H44.1609V79.946H45.1329V84.284C45.1329 84.668 44.9769 84.86 44.6649 84.86ZM50.2629 79.982C50.0709 79.982 49.7709 79.934 49.3629 79.838V78.812C49.7469 78.92 50.0469 78.974 50.2629 78.974C50.9349 78.974 51.4809 78.764 51.9009 78.344C52.3329 77.912 52.5489 77.36 52.5489 76.688C52.5489 76.04 52.3269 75.5 51.8829 75.068C51.4509 74.624 50.9109 74.402 50.2629 74.402C49.2069 74.402 48.4749 74.984 48.0669 76.148C48.0549 76.208 48.0009 76.352 47.9049 76.58L47.0229 76.058L47.0949 75.806C47.5509 74.21 48.6069 73.412 50.2629 73.412C51.2109 73.412 51.9969 73.724 52.6209 74.348C53.2449 74.96 53.5569 75.74 53.5569 76.688C53.5569 77.66 53.2509 78.452 52.6389 79.064C52.0269 79.676 51.2349 79.982 50.2629 79.982ZM55.5789 76.292C55.2069 76.292 54.9009 76.172 54.6609 75.932C54.4329 75.692 54.3189 75.386 54.3189 75.014C54.3189 74.654 54.4389 74.354 54.6789 74.114C54.9189 73.862 55.2189 73.736 55.5789 73.736C55.9389 73.736 56.2389 73.862 56.4789 74.114C56.7189 74.354 56.8389 74.654 56.8389 75.014C56.8389 75.386 56.7189 75.692 56.4789 75.932C56.2509 76.172 55.9509 76.292 55.5789 76.292ZM55.5789 79.766C55.2069 79.766 54.9009 79.646 54.6609 79.406C54.4329 79.166 54.3189 78.86 54.3189 78.488C54.3189 78.128 54.4389 77.828 54.6789 77.588C54.9189 77.336 55.2189 77.21 55.5789 77.21C55.9509 77.21 56.2509 77.33 56.4789 77.57C56.7189 77.81 56.8389 78.116 56.8389 78.488C56.8389 78.86 56.7189 79.166 56.4789 79.406C56.2509 79.646 55.9509 79.766 55.5789 79.766ZM55.5789 74.6C55.3269 74.6 55.2009 74.738 55.2009 75.014C55.2009 75.266 55.3269 75.392 55.5789 75.392C55.8549 75.392 55.9929 75.266 55.9929 75.014C55.9929 74.738 55.8549 74.6 55.5789 74.6ZM55.5789 78.092C55.3269 78.092 55.2009 78.224 55.2009 78.488C55.2009 78.764 55.3269 78.902 55.5789 78.902C55.8549 78.902 55.9929 78.764 55.9929 78.488C55.9929 78.224 55.8549 78.092 55.5789 78.092ZM66.4993 79.982C65.2993 79.982 64.3633 79.466 63.6913 78.434C63.0073 79.466 62.0653 79.982 60.8653 79.982C59.9053 79.982 59.1133 79.676 58.4893 79.064C57.8653 78.44 57.5533 77.648 57.5533 76.688C57.5533 75.392 58.1353 74.426 59.2993 73.79L59.7313 73.556L60.2173 74.42C59.1013 75.032 58.5433 75.788 58.5433 76.688C58.5433 77.348 58.7653 77.894 59.2093 78.326C59.6533 78.758 60.2053 78.974 60.8653 78.974C61.5253 78.974 62.0713 78.758 62.5033 78.326C62.9353 77.894 63.1513 77.348 63.1513 76.688C63.1513 75.8 62.6233 75.044 61.5673 74.42L62.0173 73.592C63.3853 74.36 64.0993 75.338 64.1593 76.526H64.2133V76.688C64.2133 77.348 64.4293 77.894 64.8613 78.326C65.2933 78.758 65.8393 78.974 66.4993 78.974C67.1713 78.974 67.7233 78.764 68.1553 78.344C68.5993 77.912 68.8213 77.36 68.8213 76.688C68.8213 76.04 68.5933 75.5 68.1373 75.068C67.6933 74.624 67.1473 74.402 66.4993 74.402C66.3793 74.402 66.1513 74.438 65.8153 74.51C65.7193 74.054 65.6593 73.724 65.6353 73.52C65.9233 73.448 66.2113 73.412 66.4993 73.412C67.4713 73.412 68.2633 73.718 68.8753 74.33C69.4993 74.93 69.8113 75.716 69.8113 76.688C69.8113 77.648 69.4993 78.44 68.8753 79.064C68.2513 79.676 67.4593 79.982 66.4993 79.982ZM72.2355 79.982C72.0435 79.982 71.7435 79.934 71.3355 79.838V78.812C71.7195 78.92 72.0195 78.974 72.2355 78.974C72.9075 78.974 73.4535 78.764 73.8735 78.344C74.3055 77.912 74.5215 77.36 74.5215 76.688C74.5215 76.04 74.2995 75.5 73.8555 75.068C73.4235 74.624 72.8835 74.402 72.2355 74.402C71.1795 74.402 70.4475 74.984 70.0395 76.148C70.0275 76.208 69.9735 76.352 69.8775 76.58L68.9955 76.058L69.0675 75.806C69.5235 74.21 70.5795 73.412 72.2355 73.412C73.1835 73.412 73.9695 73.724 74.5935 74.348C75.2175 74.96 75.5295 75.74 75.5295 76.688C75.5295 77.66 75.2235 78.452 74.6115 79.064C73.9995 79.676 73.2075 79.982 72.2355 79.982ZM81.9616 84.824C81.8536 84.848 81.6136 84.86 81.2416 84.86H77.9836C76.8796 84.86 76.3276 84.308 76.3276 83.204L76.3456 77.912L76.4896 77.894L77.3356 77.408C77.9476 78.476 78.7036 79.01 79.6036 79.01C80.2636 79.01 80.8096 78.794 81.2416 78.362C81.6736 77.918 81.8896 77.366 81.8896 76.706C81.8896 76.058 81.6676 75.512 81.2236 75.068C80.7916 74.624 80.2516 74.402 79.6036 74.402C78.7036 74.402 77.9476 74.936 77.3356 76.004L76.4896 75.536C77.2936 74.12 78.3316 73.412 79.6036 73.412C80.5756 73.412 81.3616 73.718 81.9616 74.33C82.5736 74.942 82.8796 75.734 82.8796 76.706C82.8796 77.69 82.5796 78.488 81.9796 79.1C81.3796 79.712 80.5876 80.018 79.6036 80.018C78.7876 80.018 78.0436 79.73 77.3716 79.154V83.168C77.3716 83.624 77.5756 83.852 77.9836 83.852H81.2596C81.6436 83.852 81.8356 83.702 81.8356 83.402V82.52H82.8796V83.384C82.8796 84.212 82.5736 84.692 81.9616 84.824ZM81.0841 70.928C81.0601 70.94 81.0361 70.946 81.0121 70.946C80.9881 70.946 80.9761 70.934 80.9761 70.91C80.9401 70.526 80.7961 70.214 80.5441 69.974C80.2801 69.734 79.9561 69.614 79.5721 69.614C79.1401 69.614 78.7921 69.752 78.5281 70.028C78.2521 70.292 78.1141 70.64 78.1141 71.072C78.1141 71.48 78.2521 71.822 78.5281 72.098C78.7921 72.362 79.1281 72.494 79.5361 72.494C79.6201 72.494 79.7521 72.482 79.9321 72.458V73.502C79.7881 73.514 79.6681 73.52 79.5721 73.52C78.8881 73.52 78.3121 73.286 77.8441 72.818C77.3761 72.338 77.1421 71.756 77.1421 71.072C77.1421 70.388 77.3821 69.812 77.8621 69.344C78.3301 68.876 78.9061 68.642 79.5901 68.642C80.2141 68.642 80.7361 68.828 81.1561 69.2C81.5761 69.56 81.8461 70.052 81.9661 70.676C81.6901 70.784 81.3961 70.868 81.0841 70.928ZM88.6387 80C87.6667 80 86.8687 79.694 86.2447 79.082C85.6327 78.47 85.3267 77.678 85.3267 76.706C85.3267 75.758 85.6387 74.978 86.2627 74.366C86.8987 73.742 87.6907 73.43 88.6387 73.43C89.5867 73.43 90.3667 73.742 90.9787 74.366C91.5907 74.978 91.8967 75.758 91.8967 76.706C91.8967 77.654 91.5907 78.44 90.9787 79.064C90.3667 79.688 89.5867 80 88.6387 80ZM88.6387 74.42C87.9787 74.42 87.4267 74.636 86.9827 75.068C86.5387 75.5 86.3167 76.046 86.3167 76.706C86.3167 77.378 86.5327 77.93 86.9647 78.362C87.4087 78.794 87.9667 79.01 88.6387 79.01C89.2867 79.01 89.8267 78.788 90.2587 78.344C90.7027 77.9 90.9247 77.354 90.9247 76.706C90.9247 76.058 90.7027 75.518 90.2587 75.086C89.8267 74.642 89.2867 74.42 88.6387 74.42ZM96.4372 80.036L96.4732 84.842L95.4652 84.86V80.036C94.5892 80.048 93.9952 80.006 93.6832 79.91C93.0592 79.718 92.7232 79.328 92.6752 78.74C92.5672 77.492 93.2092 76.868 94.6012 76.868C95.0812 76.868 95.4892 76.994 95.8252 77.246C96.1732 77.498 96.3772 77.852 96.4372 78.308V79.046C97.4932 79.046 98.0632 78.86 98.1472 78.488C98.2432 78.056 97.8352 77.63 96.9232 77.21C96.5272 77.03 95.8912 76.73 95.0152 76.31C94.2832 75.962 93.9172 75.464 93.9172 74.816C93.9172 73.892 94.5712 73.43 95.8792 73.43C96.2512 73.43 96.6052 73.49 96.9412 73.61C97.5292 73.826 97.8232 74.168 97.8232 74.636C97.8232 74.72 97.7692 74.81 97.6612 74.906H96.6712C96.7432 74.81 96.7792 74.738 96.7792 74.69C96.7792 74.654 96.7672 74.612 96.7432 74.564C96.6472 74.504 96.3592 74.456 95.8792 74.42C95.2432 74.36 94.9252 74.504 94.9252 74.852C94.9252 75.116 95.2132 75.368 95.7892 75.608C96.2572 75.8 96.6652 75.974 97.0132 76.13C98.4772 76.778 99.2092 77.54 99.2092 78.416C99.2092 79.472 98.2852 80.012 96.4372 80.036ZM95.2852 78.092C95.1292 77.948 94.8952 77.876 94.5832 77.876C94.3432 77.876 94.1272 77.948 93.9352 78.092C93.7432 78.236 93.6592 78.422 93.6832 78.65C93.7072 78.95 94.3012 79.082 95.4652 79.046C95.4532 78.518 95.3932 78.2 95.2852 78.092ZM97.4317 70.928C97.4077 70.94 97.3837 70.946 97.3597 70.946C97.3357 70.946 97.3237 70.934 97.3237 70.91C97.2877 70.526 97.1437 70.214 96.8917 69.974C96.6277 69.734 96.3037 69.614 95.9197 69.614C95.4877 69.614 95.1397 69.752 94.8757 70.028C94.5997 70.292 94.4617 70.64 94.4617 71.072C94.4617 71.48 94.5997 71.822 94.8757 72.098C95.1397 72.362 95.4757 72.494 95.8837 72.494C95.9677 72.494 96.0997 72.482 96.2797 72.458V73.502C96.1357 73.514 96.0157 73.52 95.9197 73.52C95.2357 73.52 94.6597 73.286 94.1917 72.818C93.7237 72.338 93.4897 71.756 93.4897 71.072C93.4897 70.388 93.7297 69.812 94.2097 69.344C94.6777 68.876 95.2537 68.642 95.9377 68.642C96.5617 68.642 97.0837 68.828 97.5037 69.2C97.9237 69.56 98.1937 70.052 98.3137 70.676C98.0377 70.784 97.7437 70.868 97.4317 70.928ZM105.532 76.004C104.92 74.936 104.17 74.402 103.282 74.402C102.622 74.402 102.076 74.618 101.644 75.05C101.212 75.482 100.996 76.028 100.996 76.688C100.996 77.672 101.47 78.386 102.418 78.83C102.502 77.882 102.916 77.204 103.66 76.796C104.032 76.592 104.428 76.49 104.848 76.49C105.268 76.49 105.61 76.586 105.874 76.778C106.186 77.006 106.342 77.318 106.342 77.714C106.342 77.966 106.186 78.308 105.874 78.74C105.274 79.568 104.41 79.982 103.282 79.982C102.322 79.982 101.53 79.676 100.906 79.064C100.294 78.44 99.9877 77.648 99.9877 76.688C99.9877 75.728 100.294 74.942 100.906 74.33C101.53 73.718 102.322 73.412 103.282 73.412C104.566 73.412 105.598 74.12 106.378 75.536L105.532 76.004ZM104.758 77.444C104.314 77.444 103.942 77.588 103.642 77.876C103.342 78.164 103.186 78.53 103.174 78.974H103.282C103.99 78.974 104.572 78.728 105.028 78.236C105.1 78.116 105.19 77.984 105.298 77.84C105.31 77.78 105.316 77.732 105.316 77.696C105.316 77.528 105.13 77.444 104.758 77.444ZM116.21 79.982C115.13 79.982 114.242 79.538 113.546 78.65L113.42 78.488C112.76 79.484 111.83 79.982 110.63 79.982C109.502 79.982 108.644 79.568 108.056 78.74C107.756 78.32 107.606 77.978 107.606 77.714C107.606 77.33 107.75 77.03 108.038 76.814C108.326 76.598 108.668 76.49 109.064 76.49C109.964 76.49 110.648 76.868 111.116 77.624C111.344 77.996 111.47 78.398 111.494 78.83C112.454 78.386 112.934 77.672 112.934 76.688C112.934 76.028 112.712 75.482 112.268 75.05C111.836 74.618 111.29 74.402 110.63 74.402C109.754 74.402 109.016 74.936 108.416 76.004L107.552 75.536C108.32 74.12 109.346 73.412 110.63 73.412C111.842 73.412 112.778 73.91 113.438 74.906C114.098 73.91 115.022 73.412 116.21 73.412C117.182 73.412 117.974 73.718 118.586 74.33C119.21 74.93 119.522 75.716 119.522 76.688C119.522 77.648 119.21 78.44 118.586 79.064C117.962 79.676 117.17 79.982 116.21 79.982ZM116.21 74.402C115.538 74.402 114.986 74.618 114.554 75.05C114.134 75.47 113.924 76.016 113.924 76.688C113.924 77.348 114.14 77.894 114.572 78.326C115.004 78.758 115.55 78.974 116.21 78.974C116.882 78.974 117.434 78.764 117.866 78.344C118.31 77.912 118.532 77.36 118.532 76.688C118.532 76.04 118.304 75.5 117.848 75.068C117.404 74.624 116.858 74.402 116.21 74.402ZM109.172 77.444C108.788 77.444 108.596 77.528 108.596 77.696C108.62 77.732 108.716 77.912 108.884 78.236C109.34 78.728 109.922 78.974 110.63 78.974H110.738C110.726 78.53 110.57 78.164 110.27 77.876C109.982 77.588 109.616 77.444 109.172 77.444ZM121.946 79.982C121.754 79.982 121.454 79.934 121.046 79.838V78.812C121.43 78.92 121.73 78.974 121.946 78.974C122.618 78.974 123.164 78.764 123.584 78.344C124.016 77.912 124.232 77.36 124.232 76.688C124.232 76.04 124.01 75.5 123.566 75.068C123.134 74.624 122.594 74.402 121.946 74.402C120.89 74.402 120.158 74.984 119.75 76.148C119.738 76.208 119.684 76.352 119.588 76.58L118.706 76.058L118.778 75.806C119.234 74.21 120.29 73.412 121.946 73.412C122.894 73.412 123.68 73.724 124.304 74.348C124.928 74.96 125.24 75.74 125.24 76.688C125.24 77.66 124.934 78.452 124.322 79.064C123.71 79.676 122.918 79.982 121.946 79.982ZM132.213 78.308C131.985 78.812 131.583 79.22 131.007 79.532C130.479 79.832 129.921 79.982 129.333 79.982C128.373 79.982 127.581 79.676 126.957 79.064C126.345 78.44 126.039 77.648 126.039 76.688C126.039 75.728 126.345 74.942 126.957 74.33C127.581 73.718 128.373 73.412 129.333 73.412C130.617 73.412 131.649 74.12 132.429 75.536L131.583 76.004C130.971 74.936 130.221 74.402 129.333 74.402C128.673 74.402 128.127 74.618 127.695 75.05C127.263 75.482 127.047 76.028 127.047 76.688C127.047 77.348 127.263 77.894 127.695 78.326C128.127 78.758 128.673 78.974 129.333 78.974C130.221 78.974 130.971 78.44 131.583 77.372L132.429 77.84L132.213 78.308ZM130.795 70.928C130.771 70.94 130.747 70.946 130.723 70.946C130.699 70.946 130.687 70.934 130.687 70.91C130.651 70.526 130.507 70.214 130.255 69.974C129.991 69.734 129.667 69.614 129.283 69.614C128.851 69.614 128.503 69.752 128.239 70.028C127.963 70.292 127.825 70.64 127.825 71.072C127.825 71.48 127.963 71.822 128.239 72.098C128.503 72.362 128.839 72.494 129.247 72.494C129.331 72.494 129.463 72.482 129.643 72.458V73.502C129.499 73.514 129.379 73.52 129.283 73.52C128.599 73.52 128.023 73.286 127.555 72.818C127.087 72.338 126.853 71.756 126.853 71.072C126.853 70.388 127.093 69.812 127.573 69.344C128.041 68.876 128.617 68.642 129.301 68.642C129.925 68.642 130.447 68.828 130.867 69.2C131.287 69.56 131.557 70.052 131.677 70.676C131.401 70.784 131.107 70.868 130.795 70.928ZM136.627 80C135.655 80 134.857 79.694 134.233 79.082C133.621 78.47 133.315 77.678 133.315 76.706C133.315 75.35 133.951 74.36 135.223 73.736L135.853 74.492C134.821 75.128 134.305 75.866 134.305 76.706C134.305 77.21 134.449 77.666 134.737 78.074C135.265 77.498 135.895 77.198 136.627 77.174C137.347 77.15 138.001 77.396 138.589 77.912C138.805 77.54 138.913 77.138 138.913 76.706C138.913 75.878 138.397 75.146 137.365 74.51L138.049 73.772L138.337 73.916C139.369 74.432 139.885 75.362 139.885 76.706C139.885 77.666 139.579 78.458 138.967 79.082C138.367 79.694 137.587 80 136.627 80ZM136.645 78.002C136.117 78.074 135.691 78.29 135.367 78.65C135.763 78.89 136.183 79.01 136.627 79.01C137.119 79.01 137.581 78.842 138.013 78.506C137.641 78.206 137.185 78.038 136.645 78.002ZM137.424 84.86C137.124 84.86 136.974 84.668 136.974 84.284V79.766H137.946V83.87H138.972V84.86H137.424ZM135.876 84.86H134.346V83.87H135.372V79.766H136.344V84.284C136.344 84.668 136.188 84.86 135.876 84.86ZM141.672 67.94C141.672 67.346 142.104 66.968 142.716 66.968C143.4 66.968 143.886 67.544 143.886 68.426C143.886 70.046 142.554 71.432 141.978 71.738L141.528 71.288C142.104 70.784 142.68 70.19 142.734 69.074C142.14 68.984 141.672 68.462 141.672 67.94ZM144.804 67.94C144.804 67.346 145.236 66.968 145.848 66.968C146.532 66.968 147.018 67.544 147.018 68.426C147.018 70.046 145.686 71.432 145.11 71.738L144.66 71.288C145.236 70.784 145.812 70.19 145.866 69.074C145.272 68.984 144.804 68.462 144.804 67.94Z" fill="white"/>
<path d="M44.0576 16.1992C43.5485 16.1992 43.0394 16.1826 42.5303 16.1494C42.0322 16.1162 41.5452 16.0664 41.0693 16C40.6045 15.9225 40.1452 15.8451 39.6914 15.7676V5.04297C40.3776 4.92122 41.0693 4.82161 41.7666 4.74414C42.4749 4.6556 43.2054 4.61133 43.958 4.61133C45.1533 4.61133 46.1882 4.85482 47.0625 5.3418C47.9479 5.81771 48.6341 6.4873 49.1211 7.35059C49.6081 8.2028 49.8516 9.19889 49.8516 10.3389C49.8516 11.1579 49.7188 11.9215 49.4531 12.6299C49.1875 13.3382 48.8057 13.9635 48.3076 14.5059C47.8096 15.0371 47.2008 15.4521 46.4814 15.751C45.762 16.0498 44.9541 16.1992 44.0576 16.1992ZM43.9912 14.1904C44.7549 14.1904 45.4079 14.0244 45.9502 13.6924C46.5036 13.3604 46.9242 12.9066 47.2119 12.3311C47.5107 11.7555 47.6602 11.1136 47.6602 10.4053C47.6602 9.6748 47.5107 9.02734 47.2119 8.46289C46.9242 7.88737 46.5036 7.43913 45.9502 7.11816C45.4079 6.78613 44.7549 6.62012 43.9912 6.62012C43.6481 6.62012 43.2884 6.63672 42.9121 6.66992C42.5358 6.70312 42.1761 6.7474 41.833 6.80273V14.0078C42.1872 14.0632 42.5524 14.1074 42.9287 14.1406C43.305 14.1738 43.6592 14.1904 43.9912 14.1904ZM51.9268 16V7.63281H53.8857V16H51.9268ZM53.8857 11.252V9.22656C54.1846 8.71745 54.5332 8.29688 54.9316 7.96484C55.3411 7.63281 55.7949 7.4668 56.293 7.4668C56.6029 7.4668 56.874 7.52214 57.1064 7.63281V9.84082C56.9404 9.74121 56.7689 9.66374 56.5918 9.6084C56.4147 9.55306 56.221 9.52539 56.0107 9.52539C55.5127 9.52539 55.0977 9.69141 54.7656 10.0234C54.4447 10.3555 54.1514 10.765 53.8857 11.252ZM60.3936 6.07227C60.0173 6.07227 59.6908 5.93945 59.4141 5.67383C59.1484 5.39714 59.0156 5.07617 59.0156 4.71094C59.0156 4.33464 59.1484 4.01367 59.4141 3.74805C59.6908 3.48242 60.0173 3.34961 60.3936 3.34961C60.6481 3.34961 60.8805 3.41048 61.0908 3.53223C61.3011 3.65397 61.4671 3.81999 61.5889 4.03027C61.7217 4.24056 61.7881 4.46745 61.7881 4.71094C61.7881 4.94336 61.7217 5.17025 61.5889 5.3916C61.4671 5.60189 61.3011 5.7679 61.0908 5.88965C60.8805 6.01139 60.6481 6.07227 60.3936 6.07227ZM59.6299 16V7.63281H61.5889V16H59.6299ZM58.2852 9.32617V7.63281H61.5889V9.32617H58.2852ZM66.9844 16L63.1162 7.63281H65.4072L67.5986 13.0117L69.9062 7.63281H72.1973L68.2295 16H66.9844ZM77.2109 16.249C76.5911 16.249 76.0101 16.1439 75.4678 15.9336C74.9365 15.7122 74.4606 15.4079 74.04 15.0205C73.6305 14.6221 73.3096 14.1572 73.0771 13.626C72.8558 13.0947 72.7451 12.5192 72.7451 11.8994C72.7451 11.0915 72.9277 10.3499 73.293 9.6748C73.6582 8.99967 74.1562 8.45736 74.7871 8.04785C75.418 7.63835 76.1374 7.43359 76.9453 7.43359C77.7754 7.43359 78.4837 7.61068 79.0703 7.96484C79.6569 8.31901 80.1051 8.80599 80.415 9.42578C80.7249 10.0456 80.8799 10.7594 80.8799 11.5674V12.4473H74.5547V11.0527H78.9873C78.9541 10.6211 78.8324 10.2669 78.6221 9.99023C78.4229 9.71354 78.1683 9.50879 77.8584 9.37598C77.5596 9.24316 77.2441 9.17676 76.9121 9.17676C76.4583 9.17676 76.0654 9.29297 75.7334 9.52539C75.4014 9.75781 75.1413 10.0788 74.9531 10.4883C74.776 10.8978 74.6875 11.3682 74.6875 11.8994C74.6875 12.3864 74.7926 12.8236 75.0029 13.2109C75.2243 13.5983 75.5286 13.9027 75.916 14.124C76.3145 14.3454 76.7682 14.4561 77.2773 14.4561C77.8971 14.4561 78.4505 14.3288 78.9375 14.0742C79.4355 13.8197 79.8395 13.554 80.1494 13.2773V15.1367C79.9834 15.3027 79.751 15.4743 79.4521 15.6514C79.1533 15.8174 78.8102 15.9557 78.4229 16.0664C78.0465 16.1882 77.6426 16.249 77.2109 16.249ZM82.8555 16V7.63281H84.8145V16H82.8555ZM84.8145 11.252V9.22656C85.1133 8.71745 85.4619 8.29688 85.8604 7.96484C86.2699 7.63281 86.7236 7.4668 87.2217 7.4668C87.5316 7.4668 87.8027 7.52214 88.0352 7.63281V9.84082C87.8691 9.74121 87.6976 9.66374 87.5205 9.6084C87.3434 9.55306 87.1497 9.52539 86.9395 9.52539C86.4414 9.52539 86.0264 9.69141 85.6943 10.0234C85.3734 10.3555 85.0801 10.765 84.8145 11.252ZM97.3818 16V4.87695H99.5234V16H97.3818ZM93.8789 6.75293V4.87695H103.043V6.75293H93.8789ZM108.754 16.249C108.134 16.249 107.553 16.1439 107.011 15.9336C106.479 15.7122 106.004 15.4079 105.583 15.0205C105.174 14.6221 104.853 14.1572 104.62 13.626C104.399 13.0947 104.288 12.5192 104.288 11.8994C104.288 11.0915 104.471 10.3499 104.836 9.6748C105.201 8.99967 105.699 8.45736 106.33 8.04785C106.961 7.63835 107.68 7.43359 108.488 7.43359C109.318 7.43359 110.027 7.61068 110.613 7.96484C111.2 8.31901 111.648 8.80599 111.958 9.42578C112.268 10.0456 112.423 10.7594 112.423 11.5674V12.4473H106.098V11.0527H110.53C110.497 10.6211 110.375 10.2669 110.165 9.99023C109.966 9.71354 109.711 9.50879 109.401 9.37598C109.103 9.24316 108.787 9.17676 108.455 9.17676C108.001 9.17676 107.608 9.29297 107.276 9.52539C106.944 9.75781 106.684 10.0788 106.496 10.4883C106.319 10.8978 106.23 11.3682 106.23 11.8994C106.23 12.3864 106.336 12.8236 106.546 13.2109C106.767 13.5983 107.072 13.9027 107.459 14.124C107.857 14.3454 108.311 14.4561 108.82 14.4561C109.44 14.4561 109.993 14.3288 110.48 14.0742C110.979 13.8197 111.382 13.554 111.692 13.2773V15.1367C111.526 15.3027 111.294 15.4743 110.995 15.6514C110.696 15.8174 110.353 15.9557 109.966 16.0664C109.59 16.1882 109.186 16.249 108.754 16.249ZM117.603 16.249C116.927 16.249 116.302 16.0775 115.727 15.7344C115.151 15.3913 114.686 14.8932 114.332 14.2402C113.989 13.5872 113.817 12.8014 113.817 11.8828C113.817 10.9531 113.989 10.1562 114.332 9.49219C114.686 8.82812 115.162 8.31901 115.76 7.96484C116.357 7.61068 117.021 7.43359 117.752 7.43359C118.206 7.43359 118.665 7.54427 119.13 7.76562C119.606 7.97591 120.004 8.25814 120.325 8.6123V7.63281H122.284V16H120.325V14.5889C120.071 15.0426 119.705 15.4355 119.229 15.7676C118.765 16.0885 118.222 16.249 117.603 16.249ZM118.067 14.29C118.466 14.29 118.837 14.1849 119.18 13.9746C119.523 13.7643 119.799 13.471 120.01 13.0947C120.22 12.7074 120.325 12.2536 120.325 11.7334L120.309 10.4551C120.01 10.112 119.678 9.84082 119.312 9.6416C118.958 9.44238 118.565 9.34277 118.134 9.34277C117.669 9.34277 117.265 9.46452 116.922 9.70801C116.579 9.9515 116.313 10.2669 116.125 10.6543C115.948 11.0306 115.859 11.4401 115.859 11.8828C115.859 12.3255 115.948 12.7295 116.125 13.0947C116.313 13.46 116.573 13.7533 116.905 13.9746C117.237 14.1849 117.625 14.29 118.067 14.29ZM135.831 16V11.1357C135.831 10.527 135.676 10.0788 135.366 9.79102C135.056 9.49219 134.647 9.34277 134.138 9.34277C133.728 9.34277 133.38 9.47559 133.092 9.74121C132.804 9.99577 132.527 10.3001 132.262 10.6543L131.863 9.19336C132.206 8.71745 132.61 8.30794 133.075 7.96484C133.54 7.61068 134.077 7.43359 134.686 7.43359C135.25 7.43359 135.77 7.56087 136.246 7.81543C136.722 8.06999 137.098 8.45182 137.375 8.96094C137.663 9.47005 137.807 10.1064 137.807 10.8701V16H135.831ZM124.907 16V7.63281H126.866V16H124.907ZM130.369 16L130.353 11.1357C130.353 10.527 130.198 10.0788 129.888 9.79102C129.589 9.49219 129.185 9.34277 128.676 9.34277C128.266 9.34277 127.907 9.47559 127.597 9.74121C127.287 9.99577 126.999 10.3001 126.733 10.6543V8.86133C126.91 8.62891 127.11 8.40755 127.331 8.19727C127.563 7.97591 127.835 7.79329 128.145 7.64941C128.454 7.50553 128.814 7.43359 129.224 7.43359C129.888 7.43359 130.485 7.61621 131.017 7.98145C131.559 8.33561 131.935 8.86133 132.146 9.55859L132.328 10.2725V16H130.369ZM1.85645 36V24.877H6.32227C6.83138 24.877 7.32943 24.9489 7.81641 25.0928C8.31445 25.2367 8.75716 25.4525 9.14453 25.7402C9.54297 26.028 9.8584 26.3988 10.0908 26.8525C10.3343 27.2952 10.4561 27.821 10.4561 28.4297C10.4561 29.1159 10.2679 29.6969 9.8916 30.1729C9.52637 30.6377 9.05046 30.9919 8.46387 31.2354C7.88835 31.4678 7.26855 31.584 6.60449 31.584C6.43848 31.584 6.22266 31.5674 5.95703 31.5342C5.70247 31.501 5.43132 31.4622 5.14355 31.418C4.85579 31.3737 4.58464 31.3294 4.33008 31.2852C4.08659 31.2298 3.90397 31.1855 3.78223 31.1523V29.7744C4.09212 29.8851 4.44076 29.9736 4.82812 30.04C5.21549 30.1064 5.60286 30.1396 5.99023 30.1396C6.69857 30.1396 7.25195 29.9847 7.65039 29.6748C8.0599 29.3649 8.26465 28.9499 8.26465 28.4297C8.26465 27.8763 8.04883 27.4613 7.61719 27.1846C7.18555 26.8968 6.6543 26.7529 6.02344 26.7529H3.99805V36H1.85645ZM8.04883 36L3.74902 31.1523L5.5752 30.4551L10.9375 36H8.04883ZM14.1914 26.0723C13.8151 26.0723 13.4886 25.9395 13.2119 25.6738C12.9463 25.3971 12.8135 25.0762 12.8135 24.7109C12.8135 24.3346 12.9463 24.0137 13.2119 23.748C13.4886 23.4824 13.8151 23.3496 14.1914 23.3496C14.446 23.3496 14.6784 23.4105 14.8887 23.5322C15.099 23.654 15.265 23.82 15.3867 24.0303C15.5195 24.2406 15.5859 24.4674 15.5859 24.7109C15.5859 24.9434 15.5195 25.1702 15.3867 25.3916C15.265 25.6019 15.099 25.7679 14.8887 25.8896C14.6784 26.0114 14.446 26.0723 14.1914 26.0723ZM13.4277 36V27.6328H15.3867V36H13.4277ZM12.083 29.3262V27.6328H15.3867V29.3262H12.083ZM21.2471 36.249C20.5719 36.249 19.9466 36.0775 19.3711 35.7344C18.7956 35.3913 18.3307 34.8932 17.9766 34.2402C17.6335 33.5872 17.4619 32.8014 17.4619 31.8828C17.4619 30.9531 17.6335 30.1562 17.9766 29.4922C18.3307 28.8281 18.8066 28.319 19.4043 27.9648C20.002 27.6107 20.666 27.4336 21.3965 27.4336C21.8503 27.4336 22.3096 27.5443 22.7744 27.7656C23.2503 27.9759 23.6488 28.2581 23.9697 28.6123V24.0469H25.9287V36H23.9697V34.5889C23.7152 35.0426 23.3499 35.4355 22.874 35.7676C22.4092 36.0885 21.8669 36.249 21.2471 36.249ZM21.7119 34.29C22.1104 34.29 22.4811 34.1849 22.8242 33.9746C23.1673 33.7643 23.444 33.471 23.6543 33.0947C23.8646 32.7074 23.9697 32.2536 23.9697 31.7334L23.9531 30.4551C23.6543 30.112 23.3223 29.8464 22.957 29.6582C22.6029 29.459 22.21 29.3594 21.7783 29.3594C21.3135 29.3594 20.9095 29.4811 20.5664 29.7246C20.2233 29.957 19.9577 30.2669 19.7695 30.6543C19.5924 31.0306 19.5039 31.4401 19.5039 31.8828C19.5039 32.3255 19.5924 32.7295 19.7695 33.0947C19.9577 33.46 20.2178 33.7533 20.5498 33.9746C20.8818 34.1849 21.2692 34.29 21.7119 34.29ZM32.4365 36.249C31.8167 36.249 31.2357 36.1439 30.6934 35.9336C30.1621 35.7122 29.6862 35.4079 29.2656 35.0205C28.8561 34.6221 28.5352 34.1572 28.3027 33.626C28.0814 33.0947 27.9707 32.5192 27.9707 31.8994C27.9707 31.0915 28.1533 30.3499 28.5186 29.6748C28.8838 28.9997 29.3818 28.4574 30.0127 28.0479C30.6436 27.6383 31.363 27.4336 32.1709 27.4336C33.001 27.4336 33.7093 27.6107 34.2959 27.9648C34.8825 28.319 35.3307 28.806 35.6406 29.4258C35.9505 30.0456 36.1055 30.7594 36.1055 31.5674V32.4473H29.7803V31.0527H34.2129C34.1797 30.6211 34.0579 30.2669 33.8477 29.9902C33.6484 29.7135 33.3939 29.5088 33.084 29.376C32.7852 29.2432 32.4697 29.1768 32.1377 29.1768C31.6839 29.1768 31.291 29.293 30.959 29.5254C30.627 29.7578 30.3669 30.0788 30.1787 30.4883C30.0016 30.8978 29.9131 31.3682 29.9131 31.8994C29.9131 32.3864 30.0182 32.8236 30.2285 33.2109C30.4499 33.5983 30.7542 33.9027 31.1416 34.124C31.54 34.3454 31.9938 34.4561 32.5029 34.4561C33.1227 34.4561 33.6761 34.3288 34.1631 34.0742C34.6611 33.8197 35.0651 33.554 35.375 33.2773V35.1367C35.209 35.3027 34.9766 35.4743 34.6777 35.6514C34.3789 35.8174 34.0358 35.9557 33.6484 36.0664C33.2721 36.1882 32.8682 36.249 32.4365 36.249ZM37.7656 32.6797V30.7871H42.7627V32.6797H37.7656ZM52.9229 36V24.877H55.0645V36H52.9229ZM45.3857 36V24.877H47.5273V36H45.3857ZM47.2617 31.3848V29.4424H53.3877V31.3848H47.2617ZM61.207 36.249C60.5319 36.249 59.9066 36.0775 59.3311 35.7344C58.7555 35.3913 58.2907 34.8932 57.9365 34.2402C57.5934 33.5872 57.4219 32.8014 57.4219 31.8828C57.4219 30.9531 57.5934 30.1562 57.9365 29.4922C58.2907 28.8281 58.7666 28.319 59.3643 27.9648C59.9619 27.6107 60.626 27.4336 61.3564 27.4336C61.8102 27.4336 62.2695 27.5443 62.7344 27.7656C63.2103 27.9759 63.6087 28.2581 63.9297 28.6123V27.6328H65.8887V36H63.9297V34.5889C63.6751 35.0426 63.3099 35.4355 62.834 35.7676C62.3691 36.0885 61.8268 36.249 61.207 36.249ZM61.6719 34.29C62.0703 34.29 62.4411 34.1849 62.7842 33.9746C63.1273 33.7643 63.404 33.471 63.6143 33.0947C63.8245 32.7074 63.9297 32.2536 63.9297 31.7334L63.9131 30.4551C63.6143 30.112 63.2822 29.8408 62.917 29.6416C62.5628 29.4424 62.1699 29.3428 61.7383 29.3428C61.2734 29.3428 60.8695 29.4645 60.5264 29.708C60.1833 29.9515 59.9176 30.2669 59.7295 30.6543C59.5524 31.0306 59.4639 31.4401 59.4639 31.8828C59.4639 32.3255 59.5524 32.7295 59.7295 33.0947C59.9176 33.46 60.1777 33.7533 60.5098 33.9746C60.8418 34.1849 61.2292 34.29 61.6719 34.29ZM70.1553 26.0723C69.779 26.0723 69.4525 25.9395 69.1758 25.6738C68.9102 25.3971 68.7773 25.0762 68.7773 24.7109C68.7773 24.3346 68.9102 24.0137 69.1758 23.748C69.4525 23.4824 69.779 23.3496 70.1553 23.3496C70.4098 23.3496 70.6423 23.4105 70.8525 23.5322C71.0628 23.654 71.2288 23.82 71.3506 24.0303C71.4834 24.2406 71.5498 24.4674 71.5498 24.7109C71.5498 24.9434 71.4834 25.1702 71.3506 25.3916C71.2288 25.6019 71.0628 25.7679 70.8525 25.8896C70.6423 26.0114 70.4098 26.0723 70.1553 26.0723ZM69.3916 36V27.6328H71.3506V36H69.3916ZM68.0469 29.3262V27.6328H71.3506V29.3262H68.0469ZM74.0068 36V24.0469H75.9658V36H74.0068ZM80.2324 26.0723C79.8561 26.0723 79.5296 25.9395 79.2529 25.6738C78.9873 25.3971 78.8545 25.0762 78.8545 24.7109C78.8545 24.3346 78.9873 24.0137 79.2529 23.748C79.5296 23.4824 79.8561 23.3496 80.2324 23.3496C80.487 23.3496 80.7194 23.4105 80.9297 23.5322C81.14 23.654 81.306 23.82 81.4277 24.0303C81.5605 24.2406 81.627 24.4674 81.627 24.7109C81.627 24.9434 81.5605 25.1702 81.4277 25.3916C81.306 25.6019 81.14 25.7679 80.9297 25.8896C80.7194 26.0114 80.487 26.0723 80.2324 26.0723ZM79.4688 36V27.6328H81.4277V36H79.4688ZM78.124 29.3262V27.6328H81.4277V29.3262H78.124ZM89.6787 36L89.6621 31.1357C89.6621 30.527 89.5182 30.0788 89.2305 29.791C88.9538 29.4922 88.5609 29.3428 88.0518 29.3428C87.6644 29.3428 87.2992 29.4756 86.9561 29.7412C86.613 29.9958 86.3086 30.3001 86.043 30.6543V28.8613C86.2201 28.6289 86.4359 28.4076 86.6904 28.1973C86.945 27.9759 87.2327 27.7933 87.5537 27.6494C87.8857 27.5055 88.2399 27.4336 88.6162 27.4336C89.1917 27.4336 89.7064 27.5609 90.1602 27.8154C90.6139 28.07 90.9736 28.4518 91.2393 28.9609C91.5049 29.4701 91.6377 30.1064 91.6377 30.8701V36H89.6787ZM84.084 36V27.6328H86.043V36H84.084ZM97.415 40.2334C96.917 40.2334 96.4798 40.1781 96.1035 40.0674C95.7383 39.9678 95.4118 39.835 95.124 39.6689C94.8363 39.5029 94.5596 39.3258 94.2939 39.1377V37.2451C94.5374 37.4001 94.7975 37.5661 95.0742 37.7432C95.3509 37.9202 95.6719 38.0752 96.0371 38.208C96.4134 38.3408 96.834 38.4072 97.2988 38.4072C97.8079 38.4072 98.2673 38.3132 98.6768 38.125C99.0863 37.9368 99.4072 37.6657 99.6396 37.3115C99.8831 36.9574 100.005 36.5534 100.005 36.0996V34.5889C99.7503 35.0426 99.3851 35.4355 98.9092 35.7676C98.4443 36.0885 97.902 36.249 97.2822 36.249C96.6071 36.249 95.9818 36.0775 95.4062 35.7344C94.8307 35.3913 94.3659 34.8932 94.0117 34.2402C93.6686 33.5872 93.4971 32.8014 93.4971 31.8828C93.4971 30.9531 93.6686 30.1562 94.0117 29.4922C94.3659 28.8281 94.8418 28.319 95.4395 27.9648C96.0371 27.6107 96.7012 27.4336 97.4316 27.4336C97.8854 27.4336 98.3447 27.5443 98.8096 27.7656C99.2855 27.9759 99.6839 28.2581 100.005 28.6123V27.6328H101.964V35.8008C101.964 36.7526 101.754 37.555 101.333 38.208C100.924 38.8721 100.37 39.3757 99.6729 39.7188C98.9867 40.0618 98.234 40.2334 97.415 40.2334ZM97.7471 34.29C98.1455 34.29 98.5107 34.1849 98.8428 33.9746C99.1859 33.7643 99.4626 33.471 99.6729 33.0947C99.8831 32.7074 99.9883 32.2536 99.9883 31.7334V30.4551C99.6895 30.112 99.3574 29.8464 98.9922 29.6582C98.638 29.459 98.2451 29.3594 97.8135 29.3594C97.3486 29.3594 96.9447 29.4811 96.6016 29.7246C96.2585 29.957 95.9928 30.2669 95.8047 30.6543C95.6276 31.0306 95.5391 31.4401 95.5391 31.8828C95.5391 32.3255 95.6276 32.7295 95.8047 33.0947C95.9928 33.46 96.2529 33.7533 96.585 33.9746C96.917 34.1849 97.3044 34.29 97.7471 34.29ZM114.896 36.249C114.089 36.249 113.33 36.1051 112.622 35.8174C111.914 35.5296 111.288 35.1312 110.746 34.6221C110.204 34.1019 109.778 33.4876 109.468 32.7793C109.169 32.0599 109.02 31.2796 109.02 30.4385C109.02 29.5973 109.169 28.8226 109.468 28.1143C109.778 27.3949 110.204 26.7806 110.746 26.2715C111.288 25.7513 111.914 25.3473 112.622 25.0596C113.33 24.7718 114.089 24.6279 114.896 24.6279C115.616 24.6279 116.23 24.7275 116.739 24.9268C117.248 25.126 117.691 25.3971 118.067 25.7402V27.9316C117.813 27.7214 117.536 27.5221 117.237 27.334C116.95 27.1458 116.623 26.9909 116.258 26.8691C115.893 26.7363 115.455 26.6699 114.946 26.6699C114.249 26.6699 113.618 26.8359 113.054 27.168C112.489 27.4889 112.041 27.9372 111.709 28.5127C111.377 29.0771 111.211 29.7191 111.211 30.4385C111.211 31.1579 111.377 31.7998 111.709 32.3643C112.041 32.9287 112.489 33.377 113.054 33.709C113.618 34.041 114.249 34.207 114.946 34.207C115.71 34.207 116.352 34.0853 116.872 33.8418C117.392 33.5983 117.857 33.3161 118.267 32.9951V35.1035C117.89 35.4355 117.414 35.7122 116.839 35.9336C116.263 36.1439 115.616 36.249 114.896 36.249ZM124.227 36.249C123.607 36.249 123.026 36.1383 122.483 35.917C121.952 35.6846 121.482 35.3691 121.072 34.9707C120.663 34.5723 120.342 34.1074 120.109 33.5762C119.877 33.0339 119.761 32.4583 119.761 31.8496C119.761 31.2298 119.877 30.6543 120.109 30.123C120.342 29.5918 120.663 29.127 121.072 28.7285C121.482 28.319 121.952 28.0036 122.483 27.7822C123.026 27.5498 123.607 27.4336 124.227 27.4336C124.835 27.4336 125.405 27.5498 125.937 27.7822C126.479 28.0036 126.955 28.319 127.364 28.7285C127.785 29.127 128.106 29.5918 128.327 30.123C128.56 30.6543 128.676 31.2298 128.676 31.8496C128.676 32.4583 128.56 33.0339 128.327 33.5762C128.106 34.1074 127.785 34.5723 127.364 34.9707C126.955 35.3691 126.479 35.6846 125.937 35.917C125.405 36.1383 124.835 36.249 124.227 36.249ZM124.227 34.3564C124.669 34.3564 125.068 34.2568 125.422 34.0576C125.787 33.8473 126.075 33.554 126.285 33.1777C126.495 32.8014 126.601 32.3587 126.601 31.8496C126.601 31.3294 126.495 30.8812 126.285 30.5049C126.075 30.1286 125.787 29.8408 125.422 29.6416C125.068 29.4313 124.669 29.3262 124.227 29.3262C123.795 29.3262 123.396 29.4313 123.031 29.6416C122.666 29.8408 122.373 30.1286 122.151 30.5049C121.941 30.8812 121.836 31.3294 121.836 31.8496C121.836 32.3587 121.941 32.8014 122.151 33.1777C122.373 33.554 122.666 33.8473 123.031 34.0576C123.396 34.2568 123.795 34.3564 124.227 34.3564ZM131.73 36.2988C131.376 36.2988 131.072 36.1715 130.817 35.917C130.563 35.6624 130.436 35.3581 130.436 35.0039C130.436 34.6497 130.563 34.3454 130.817 34.0908C131.072 33.8363 131.376 33.709 131.73 33.709C132.096 33.709 132.4 33.8363 132.644 34.0908C132.898 34.3454 133.025 34.6497 133.025 35.0039C133.025 35.3581 132.898 35.6624 132.644 35.917C132.4 36.1715 132.096 36.2988 131.73 36.2988ZM136.097 38.7725L134.669 38.5068L135.964 34.0742L137.724 34.5391L136.097 38.7725ZM145.377 36V24.877H147.519V34.0576H153.13V36H145.377ZM158.708 36.249C158.221 36.249 157.778 36.1439 157.38 35.9336C156.993 35.7122 156.683 35.4079 156.45 35.0205C156.229 34.6221 156.118 34.1572 156.118 33.626V29.293H154.69V28.3633C155.233 28.153 155.681 27.7933 156.035 27.2842C156.389 26.764 156.699 26.1165 156.965 25.3418H158.077V27.6328H160.65V29.293H158.077V33.1611C158.077 33.5374 158.177 33.8307 158.376 34.041C158.586 34.2513 158.874 34.3564 159.239 34.3564C159.571 34.3564 159.859 34.3122 160.103 34.2236C160.357 34.124 160.578 34.0189 160.767 33.9082V35.585C160.567 35.7842 160.291 35.9447 159.937 36.0664C159.593 36.1882 159.184 36.249 158.708 36.249ZM166.112 36.249C165.437 36.249 164.812 36.0775 164.236 35.7344C163.661 35.3913 163.196 34.8932 162.842 34.2402C162.499 33.5872 162.327 32.8014 162.327 31.8828C162.327 30.9531 162.499 30.1562 162.842 29.4922C163.196 28.8281 163.672 28.319 164.27 27.9648C164.867 27.6107 165.531 27.4336 166.262 27.4336C166.715 27.4336 167.175 27.5443 167.64 27.7656C168.116 27.9759 168.514 28.2581 168.835 28.6123V24.0469H170.794V36H168.835V34.5889C168.58 35.0426 168.215 35.4355 167.739 35.7676C167.274 36.0885 166.732 36.249 166.112 36.249ZM166.577 34.29C166.976 34.29 167.346 34.1849 167.689 33.9746C168.033 33.7643 168.309 33.471 168.52 33.0947C168.73 32.7074 168.835 32.2536 168.835 31.7334L168.818 30.4551C168.52 30.112 168.188 29.8464 167.822 29.6582C167.468 29.459 167.075 29.3594 166.644 29.3594C166.179 29.3594 165.775 29.4811 165.432 29.7246C165.089 29.957 164.823 30.2669 164.635 30.6543C164.458 31.0306 164.369 31.4401 164.369 31.8828C164.369 32.3255 164.458 32.7295 164.635 33.0947C164.823 33.46 165.083 33.7533 165.415 33.9746C165.747 34.1849 166.134 34.29 166.577 34.29ZM174.43 36.2988C174.076 36.2988 173.771 36.1715 173.517 35.917C173.262 35.6624 173.135 35.3581 173.135 35.0039C173.135 34.6497 173.262 34.3454 173.517 34.0908C173.771 33.8363 174.076 33.709 174.43 33.709C174.795 33.709 175.099 33.8363 175.343 34.0908C175.597 34.3454 175.725 34.6497 175.725 35.0039C175.725 35.3581 175.597 35.6624 175.343 35.917C175.099 36.1715 174.795 36.2988 174.43 36.2988Z" fill="white"/>
</svg>
