<svg width="17" height="17" viewBox="0 0 17 17" fill="none" xmlns="http://www.w3.org/2000/svg">
<path d="M7.07626 16.1358C6.65126 16.1358 6.24752 15.9233 5.97127 15.5479L5.12128 14.4146C5.12128 14.4217 5.08586 14.4004 5.07169 14.4004H4.80961C2.38711 14.4004 0.885437 13.7417 0.885437 10.4763V7.64292C0.885437 4.66084 2.70586 3.88167 4.23586 3.74709C4.40586 3.72584 4.60419 3.71875 4.80961 3.71875H9.34294C11.9071 3.71875 13.2671 5.07876 13.2671 7.64292V10.4763C13.2671 10.6817 13.26 10.88 13.2317 11.0713C13.1042 12.58 12.325 14.4004 9.34294 14.4004H9.05961L8.18126 15.5479C7.90501 15.9233 7.50126 16.1358 7.07626 16.1358ZM4.80961 4.78125C4.64669 4.78125 4.49086 4.78833 4.34211 4.8025C2.69877 4.94417 1.94794 5.84376 1.94794 7.64292V10.4763C1.94794 12.9058 2.69878 13.3379 4.80961 13.3379H5.09294C5.41169 13.3379 5.77293 13.515 5.97127 13.77L6.82127 14.9104C6.97711 15.1229 7.17544 15.1229 7.33127 14.9104L8.18126 13.7771C8.38668 13.5008 8.71253 13.3379 9.05961 13.3379H9.34294C11.1421 13.3379 12.0417 12.58 12.1763 10.965C12.1975 10.795 12.2046 10.6392 12.2046 10.4763V7.64292C12.2046 5.66667 11.3192 4.78125 9.34294 4.78125H4.80961Z" fill="#D7D7D7"/>
<path d="M7.07644 10.0512C6.67977 10.0512 6.3681 9.73244 6.3681 9.34285C6.3681 8.95327 6.68685 8.63452 7.07644 8.63452C7.46602 8.63452 7.78477 8.95327 7.78477 9.34285C7.78477 9.73244 7.4731 10.0512 7.07644 10.0512Z" fill="#D7D7D7"/>
<path d="M9.34285 10.0512C8.94619 10.0512 8.63452 9.73244 8.63452 9.34285C8.63452 8.95327 8.95327 8.63452 9.34285 8.63452C9.73244 8.63452 10.0512 8.95327 10.0512 9.34285C10.0512 9.73244 9.73244 10.0512 9.34285 10.0512Z" fill="#D7D7D7"/>
<path d="M4.81655 10.0512C4.41988 10.0512 4.10822 9.73244 4.10822 9.34285C4.10822 8.95327 4.42697 8.63452 4.81655 8.63452C5.20613 8.63452 5.52488 8.95327 5.52488 9.34285C5.52488 9.73244 5.20613 10.0512 4.81655 10.0512Z" fill="#D7D7D7"/>
<path d="M12.7076 11.5388C12.5659 11.5388 12.4243 11.4822 12.3251 11.3759C12.2118 11.2626 12.1622 11.0997 12.1835 10.9438C12.2047 10.7951 12.2118 10.6393 12.2118 10.4763V7.643C12.2118 5.66675 11.3264 4.78133 9.35012 4.78133H4.81677C4.65386 4.78133 4.49804 4.78841 4.34929 4.80258C4.19346 4.82383 4.03053 4.76716 3.9172 4.66091C3.80386 4.54757 3.74011 4.39176 3.75427 4.23592C3.88177 2.70592 4.66802 0.885498 7.65011 0.885498H12.1835C14.7476 0.885498 16.1076 2.2455 16.1076 4.80967V7.643C16.1076 10.6251 14.2872 11.4043 12.7572 11.5388C12.736 11.5388 12.7218 11.5388 12.7076 11.5388ZM4.90179 3.71883H9.34303C11.9072 3.71883 13.2672 5.07884 13.2672 7.643V10.3843C14.4714 10.0868 15.038 9.20134 15.038 7.643V4.80967C15.038 2.83342 14.1526 1.948 12.1764 1.948H7.64304C6.0847 1.948 5.20637 2.51466 4.90179 3.71883Z" fill="#D7D7D7"/>
</svg>
