<svg width="289" height="45" viewBox="0 0 289 45" fill="none" xmlns="http://www.w3.org/2000/svg">
<path d="M2.03906 6.54297L0.4375 5.99609L2.58594 0.976562L3.79688 1.28906L2.03906 6.54297ZM5.55469 6.54297L3.95312 5.99609L6.10156 0.976562L7.3125 1.28906L5.55469 6.54297ZM18.0138 14.98C16.6804 14.98 15.6404 14.4067 14.8938 13.26C14.1338 14.4067 13.0871 14.98 11.7538 14.98C10.6871 14.98 9.80708 14.64 9.11375 13.96C8.42042 13.2667 8.07375 12.3867 8.07375 11.32C8.07375 10.2267 8.41375 9.34667 9.09375 8.68C9.77375 8.01333 10.6604 7.68 11.7538 7.68C13.0871 7.68 14.1338 8.24667 14.8938 9.38C15.6404 8.24667 16.6804 7.68 18.0138 7.68C19.0938 7.68 19.9738 8.02 20.6538 8.7C21.3471 9.36667 21.6938 10.24 21.6938 11.32C21.6938 12.3867 21.3471 13.2667 20.6538 13.96C19.9604 14.64 19.0804 14.98 18.0138 14.98ZM18.0138 8.78C17.2671 8.78 16.6538 9.02 16.1738 9.5C15.7071 9.96667 15.4738 10.5733 15.4738 11.32C15.4738 12.0533 15.7138 12.66 16.1938 13.14C16.6738 13.62 17.2804 13.86 18.0138 13.86C18.7604 13.86 19.3738 13.6267 19.8537 13.16C20.3471 12.68 20.5938 12.0667 20.5938 11.32C20.5938 10.6 20.3404 10 19.8338 9.52C19.3404 9.02667 18.7338 8.78 18.0138 8.78ZM11.7538 8.78C11.0204 8.78 10.4071 9.02 9.91375 9.5C9.42042 9.98 9.17375 10.5867 9.17375 11.32C9.17375 12.0533 9.42042 12.66 9.91375 13.14C10.4071 13.62 11.0204 13.86 11.7538 13.86C12.4871 13.86 13.0938 13.62 13.5738 13.14C14.0538 12.66 14.2938 12.0533 14.2938 11.32C14.2938 10.5867 14.0538 9.98 13.5738 9.5C13.0938 9.02 12.4871 8.78 11.7538 8.78ZM24.3873 14.98C24.174 14.98 23.8407 14.9267 23.3873 14.82V13.68C23.814 13.8 24.1473 13.86 24.3873 13.86C25.134 13.86 25.7407 13.6267 26.2073 13.16C26.6873 12.68 26.9273 12.0667 26.9273 11.32C26.9273 10.6 26.6807 10 26.1873 9.52C25.7073 9.02667 25.1073 8.78 24.3873 8.78C23.214 8.78 22.4007 9.42667 21.9473 10.72C21.934 10.7867 21.874 10.9467 21.7673 11.2L20.7873 10.62L20.8673 10.34C21.374 8.56667 22.5473 7.68 24.3873 7.68C25.4407 7.68 26.314 8.02667 27.0073 8.72C27.7007 9.4 28.0473 10.2667 28.0473 11.32C28.0473 12.4 27.7073 13.28 27.0273 13.96C26.3473 14.64 25.4673 14.98 24.3873 14.98ZM30.2941 10.88C29.8807 10.88 29.5407 10.7467 29.2741 10.48C29.0207 10.2133 28.8941 9.87333 28.8941 9.46C28.8941 9.06 29.0274 8.72667 29.2941 8.46C29.5607 8.18 29.8941 8.04 30.2941 8.04C30.6941 8.04 31.0274 8.18 31.2941 8.46C31.5607 8.72667 31.6941 9.06 31.6941 9.46C31.6941 9.87333 31.5607 10.2133 31.2941 10.48C31.0407 10.7467 30.7074 10.88 30.2941 10.88ZM30.2941 14.74C29.8807 14.74 29.5407 14.6067 29.2741 14.34C29.0207 14.0733 28.8941 13.7333 28.8941 13.32C28.8941 12.92 29.0274 12.5867 29.2941 12.32C29.5607 12.04 29.8941 11.9 30.2941 11.9C30.7074 11.9 31.0407 12.0333 31.2941 12.3C31.5607 12.5667 31.6941 12.9067 31.6941 13.32C31.6941 13.7333 31.5607 14.0733 31.2941 14.34C31.0407 14.6067 30.7074 14.74 30.2941 14.74ZM30.2941 9C30.0141 9 29.8741 9.15333 29.8741 9.46C29.8741 9.74 30.0141 9.88 30.2941 9.88C30.6007 9.88 30.7541 9.74 30.7541 9.46C30.7541 9.15333 30.6007 9 30.2941 9ZM30.2941 12.88C30.0141 12.88 29.8741 13.0267 29.8741 13.32C29.8741 13.6267 30.0141 13.78 30.2941 13.78C30.6007 13.78 30.7541 13.6267 30.7541 13.32C30.7541 13.0267 30.6007 12.88 30.2941 12.88ZM36.1678 15C35.0878 15 34.2011 14.66 33.5078 13.98C32.8278 13.3 32.4878 12.42 32.4878 11.34C32.4878 10.2867 32.8345 9.42 33.5278 8.74C34.2345 8.04667 35.1145 7.7 36.1678 7.7C37.2211 7.7 38.0878 8.04667 38.7678 8.74C39.4478 9.42 39.7878 10.2867 39.7878 11.34C39.7878 12.3933 39.4478 13.2667 38.7678 13.96C38.0878 14.6533 37.2211 15 36.1678 15ZM36.1678 8.8C35.4345 8.8 34.8211 9.04 34.3278 9.52C33.8345 10 33.5878 10.6067 33.5878 11.34C33.5878 12.0867 33.8278 12.7 34.3078 13.18C34.8011 13.66 35.4211 13.9 36.1678 13.9C36.8878 13.9 37.4878 13.6533 37.9678 13.16C38.4611 12.6667 38.7078 12.06 38.7078 11.34C38.7078 10.62 38.4611 10.02 37.9678 9.54C37.4878 9.04667 36.8878 8.8 36.1678 8.8ZM50.5528 14.98C49.2195 14.98 48.1795 14.4067 47.4328 13.26C46.6728 14.4067 45.6261 14.98 44.2928 14.98C43.2261 14.98 42.3461 14.64 41.6528 13.96C40.9595 13.2667 40.6128 12.3867 40.6128 11.32C40.6128 9.88 41.2595 8.80667 42.5528 8.1L43.0328 7.84L43.5728 8.8C42.3328 9.48 41.7128 10.32 41.7128 11.32C41.7128 12.0533 41.9595 12.66 42.4528 13.14C42.9461 13.62 43.5595 13.86 44.2928 13.86C45.0261 13.86 45.6328 13.62 46.1128 13.14C46.5928 12.66 46.8328 12.0533 46.8328 11.32C46.8328 10.3333 46.2461 9.49333 45.0728 8.8L45.5728 7.88C47.0928 8.73333 47.8861 9.82 47.9528 11.14H48.0128V11.32C48.0128 12.0533 48.2528 12.66 48.7328 13.14C49.2128 13.62 49.8195 13.86 50.5528 13.86C51.2995 13.86 51.9128 13.6267 52.3928 13.16C52.8861 12.68 53.1328 12.0667 53.1328 11.32C53.1328 10.6 52.8795 10 52.3728 9.52C51.8795 9.02667 51.2728 8.78 50.5528 8.78C50.4195 8.78 50.1661 8.82 49.7928 8.9C49.6861 8.39333 49.6195 8.02667 49.5928 7.8C49.9128 7.72 50.2328 7.68 50.5528 7.68C51.6328 7.68 52.5128 8.02 53.1928 8.7C53.8861 9.36667 54.2328 10.24 54.2328 11.32C54.2328 12.3867 53.8861 13.2667 53.1928 13.96C52.4995 14.64 51.6195 14.98 50.5528 14.98ZM52.2464 4.92C52.2197 4.93333 52.1931 4.94 52.1664 4.94C52.1397 4.94 52.1264 4.92667 52.1264 4.9C52.0864 4.47333 51.9264 4.12667 51.6464 3.86C51.3531 3.59333 50.9931 3.46 50.5664 3.46C50.0864 3.46 49.6997 3.61333 49.4064 3.92C49.0997 4.21333 48.9464 4.6 48.9464 5.08C48.9464 5.53333 49.0997 5.91333 49.4064 6.22C49.6997 6.51333 50.0731 6.66 50.5264 6.66C50.6197 6.66 50.7664 6.64667 50.9664 6.62V7.78C50.8064 7.79333 50.6731 7.8 50.5664 7.8C49.8064 7.8 49.1664 7.54 48.6464 7.02C48.1264 6.48667 47.8664 5.84 47.8664 5.08C47.8664 4.32 48.1331 3.68 48.6664 3.16C49.1864 2.64 49.8264 2.38 50.5864 2.38C51.2797 2.38 51.8597 2.58667 52.3264 3C52.7931 3.4 53.0931 3.94667 53.2264 4.64C52.9197 4.76 52.5931 4.85333 52.2464 4.92ZM59.2264 15H58.2464C57.1931 15 56.5131 14.9533 56.2064 14.86C55.5131 14.6467 55.1397 14.2067 55.0864 13.54C54.9797 12.1933 55.6931 11.52 57.2264 11.52C58.4531 11.52 59.1331 12.0333 59.2664 13.06V13.92C60.4397 13.92 61.0731 13.72 61.1664 13.32C61.2597 12.8667 60.8064 12.3867 59.8064 11.88C59.5131 11.7333 58.8064 11.3933 57.6864 10.86C56.8731 10.4733 56.4664 9.93333 56.4664 9.24C56.4664 8.21333 57.1931 7.7 58.6464 7.7C59.0864 7.7 59.4797 7.76667 59.8264 7.9C60.4797 8.15333 60.8064 8.52 60.8064 9C60.8064 9.10667 60.7464 9.22 60.6264 9.34H59.5264C59.6064 9.23333 59.6464 9.14667 59.6464 9.08C59.6464 9.04 59.6331 8.98667 59.6064 8.92C59.4864 8.88 59.1664 8.84 58.6464 8.8C57.9397 8.74667 57.5864 8.90667 57.5864 9.28C57.5864 9.49333 58.0064 9.79333 58.8464 10.18L59.9064 10.66C61.5331 11.3933 62.3464 12.2467 62.3464 13.22C62.3464 14.4067 61.3064 15 59.2264 15ZM57.9864 12.86C57.8131 12.6867 57.5531 12.6 57.2064 12.6C56.9397 12.6 56.6997 12.6867 56.4864 12.86C56.2731 13.02 56.1797 13.2267 56.2064 13.48C56.2331 13.8 56.8931 13.9467 58.1864 13.92C58.1731 13.3333 58.1064 12.98 57.9864 12.86ZM58.8314 20.4H57.1714V19.3H58.2714V14.94H59.3514V19.76C59.3514 20.1867 59.1781 20.4 58.8314 20.4ZM70.0714 13.12C69.8181 13.68 69.3714 14.1333 68.7314 14.48C68.1447 14.8133 67.5247 14.98 66.8714 14.98C65.8047 14.98 64.9247 14.64 64.2314 13.96C63.5514 13.2667 63.2114 12.3867 63.2114 11.32C63.2114 10.2533 63.5514 9.38 64.2314 8.7C64.9247 8.02 65.8047 7.68 66.8714 7.68C68.2981 7.68 69.4447 8.46667 70.3114 10.04L69.3714 10.56C68.6914 9.37333 67.8581 8.78 66.8714 8.78C66.1381 8.78 65.5314 9.02 65.0514 9.5C64.5714 9.98 64.3314 10.5867 64.3314 11.32C64.3314 12.0533 64.5714 12.66 65.0514 13.14C65.5314 13.62 66.1381 13.86 66.8714 13.86C67.8581 13.86 68.6914 13.2667 69.3714 12.08L70.3114 12.6L70.0714 13.12ZM68.4964 4.92C68.4697 4.93333 68.4431 4.94 68.4164 4.94C68.3897 4.94 68.3764 4.92667 68.3764 4.9C68.3364 4.47333 68.1764 4.12667 67.8964 3.86C67.6031 3.59333 67.2431 3.46 66.8164 3.46C66.3364 3.46 65.9497 3.61333 65.6564 3.92C65.3497 4.21333 65.1964 4.6 65.1964 5.08C65.1964 5.53333 65.3497 5.91333 65.6564 6.22C65.9497 6.51333 66.3231 6.66 66.7764 6.66C66.8697 6.66 67.0164 6.64667 67.2164 6.62V7.78C67.0564 7.79333 66.9231 7.8 66.8164 7.8C66.0564 7.8 65.4164 7.54 64.8964 7.02C64.3764 6.48667 64.1164 5.84 64.1164 5.08C64.1164 4.32 64.3831 3.68 64.9164 3.16C65.4364 2.64 66.0764 2.38 66.8364 2.38C67.5297 2.38 68.1097 2.58667 68.5764 3C69.0431 3.4 69.3431 3.94667 69.4764 4.64C69.1697 4.76 68.8431 4.85333 68.4964 4.92ZM66.9564 18.56C66.5697 18.56 66.2431 18.42 65.9764 18.14C65.7097 17.8733 65.5764 17.5467 65.5764 17.16C65.5764 16.76 65.7097 16.4267 65.9764 16.16C66.2297 15.8933 66.5564 15.76 66.9564 15.76C67.3564 15.76 67.6964 15.8933 67.9764 16.16C68.2431 16.4267 68.3764 16.76 68.3764 17.16C68.3764 17.5467 68.2364 17.8733 67.9564 18.14C67.6764 18.42 67.3431 18.56 66.9564 18.56ZM66.9564 16.72C66.6764 16.72 66.5364 16.8667 66.5364 17.16C66.5364 17.4533 66.6764 17.6 66.9564 17.6C67.2631 17.6 67.4164 17.4533 67.4164 17.16C67.4164 16.8667 67.2631 16.72 66.9564 16.72ZM76.7305 12.06V12H76.6305L76.6505 10.92H77.3105C78.2705 10.92 78.7971 10.5733 78.8905 9.88C78.7838 9.16 77.9905 8.8 76.5105 8.8C75.4705 8.8 74.7905 9.10667 74.4705 9.72C74.3638 9.93333 74.4305 10.04 74.6705 10.04H74.8905L74.8105 11.06H74.6705C73.7505 11.06 73.2905 10.6333 73.2905 9.78C73.2905 9.03333 73.6638 8.48 74.4105 8.12C74.9838 7.84 75.6838 7.7 76.5105 7.7C77.9638 7.7 79.0038 8.09333 79.6305 8.88C80.3638 8.10667 81.2638 7.72 82.3305 7.72C83.1971 7.72 83.9771 8.00667 84.6705 8.58C85.5371 9.28667 85.9705 10.22 85.9705 11.38C85.9705 12.2467 85.6838 13.0267 85.1105 13.72C84.3771 14.6 83.4505 15.04 82.3305 15.04C81.9305 15.04 81.5305 14.98 81.1305 14.86C80.9571 14.8067 80.8705 14.66 80.8705 14.42C80.8705 13.9533 80.8838 13.68 80.9105 13.6C81.0438 13.1867 81.1971 12.9067 81.3705 12.76C81.9838 12.2267 82.5705 11.96 83.1305 11.96C83.7305 11.96 84.2238 12.12 84.6105 12.44C84.7838 12.12 84.8705 11.7667 84.8705 11.38C84.8705 10.6467 84.6305 10.0333 84.1505 9.54C83.6705 9.04667 83.0638 8.8 82.3305 8.8C81.2638 8.8 80.4838 9.28667 79.9905 10.26C79.8971 10.7 79.6505 11.0867 79.2505 11.42C79.8505 11.8067 80.1171 12.34 80.0505 13.02C79.9171 14.34 78.7371 15 76.5105 15C75.8038 15 75.1505 14.88 74.5505 14.64C73.7638 14.3333 73.3505 13.88 73.3105 13.28L73.2905 12.94L74.3905 12.68C74.4038 12.8667 74.4305 13.08 74.4705 13.32C74.5638 13.4933 74.8771 13.64 75.4105 13.76C75.8238 13.8533 76.1905 13.9 76.5105 13.9C78.0705 13.9 78.8771 13.5667 78.9305 12.9C78.9705 12.3133 78.3838 12.02 77.1705 12.02C77.0771 12.0067 76.9305 12.02 76.7305 12.06ZM83.2105 12.78C82.8505 12.78 82.5038 12.9933 82.1705 13.42C82.1171 13.4867 82.0505 13.6533 81.9705 13.92C82.1171 13.9333 82.2371 13.94 82.3305 13.94C82.9438 13.94 83.5771 13.6467 84.2305 13.06C83.9905 12.8733 83.6505 12.78 83.2105 12.78ZM91.0047 15.04L91.0447 20.38L89.9247 20.4V15.04C88.9514 15.0533 88.2914 15.0067 87.9447 14.9C87.2514 14.6867 86.878 14.2533 86.8247 13.6C86.7047 12.2133 87.418 11.52 88.9647 11.52C89.498 11.52 89.9514 11.66 90.3247 11.94C90.7114 12.22 90.938 12.6133 91.0047 13.12V13.94C92.178 13.94 92.8114 13.7333 92.9047 13.32C93.0114 12.84 92.558 12.3667 91.5447 11.9C91.1047 11.7 90.398 11.3667 89.4247 10.9C88.6114 10.5133 88.2047 9.96 88.2047 9.24C88.2047 8.21333 88.9314 7.7 90.3847 7.7C90.798 7.7 91.1914 7.76667 91.5647 7.9C92.218 8.14 92.5447 8.52 92.5447 9.04C92.5447 9.13333 92.4847 9.23333 92.3647 9.34H91.2647C91.3447 9.23333 91.3847 9.15333 91.3847 9.1C91.3847 9.06 91.3714 9.01333 91.3447 8.96C91.238 8.89333 90.918 8.84 90.3847 8.8C89.678 8.73333 89.3247 8.89333 89.3247 9.28C89.3247 9.57333 89.6447 9.85333 90.2847 10.12C90.8047 10.3333 91.258 10.5267 91.6447 10.7C93.2714 11.42 94.0847 12.2667 94.0847 13.24C94.0847 14.4133 93.058 15.0133 91.0047 15.04ZM89.7247 12.88C89.5514 12.72 89.2914 12.64 88.9447 12.64C88.678 12.64 88.438 12.72 88.2247 12.88C88.0114 13.04 87.918 13.2467 87.9447 13.5C87.9714 13.8333 88.6314 13.98 89.9247 13.94C89.9114 13.3533 89.8447 13 89.7247 12.88ZM90.4297 7.8C89.6697 7.8 89.0297 7.54 88.5097 7.02C87.9897 6.48667 87.7297 5.84 87.7297 5.08C87.7297 4.32 87.9964 3.68 88.5297 3.16C89.0497 2.64 89.6897 2.38 90.4497 2.38C91.2097 2.38 91.843 2.64 92.3497 3.16C92.8564 3.68 93.1097 4.32 93.1097 5.08C93.1097 5.81333 92.8497 6.45333 92.3297 7C91.7964 7.53333 91.163 7.8 90.4297 7.8ZM90.4297 3.46C89.9497 3.46 89.563 3.61333 89.2697 3.92C88.963 4.21333 88.8097 4.6 88.8097 5.08C88.8097 5.21333 88.823 5.36667 88.8497 5.54C89.303 5.19333 89.803 4.99333 90.3497 4.94C90.8964 4.94 91.4297 5.11333 91.9497 5.46C91.9764 5.3 91.9897 5.17333 91.9897 5.08C91.9897 4.61333 91.8497 4.22667 91.5697 3.92C91.2764 3.61333 90.8964 3.46 90.4297 3.46ZM90.3697 5.82C89.983 5.86 89.6364 6.00667 89.3297 6.26C89.6497 6.52667 90.003 6.66 90.3897 6.66C90.8164 6.66 91.1964 6.5 91.5297 6.18C91.1964 5.95333 90.8097 5.83333 90.3697 5.82ZM96.3097 10.88C95.8964 10.88 95.5564 10.7467 95.2897 10.48C95.0364 10.2133 94.9097 9.87333 94.9097 9.46C94.9097 9.06 95.043 8.72667 95.3097 8.46C95.5764 8.18 95.9097 8.04 96.3097 8.04C96.7097 8.04 97.043 8.18 97.3097 8.46C97.5764 8.72667 97.7097 9.06 97.7097 9.46C97.7097 9.87333 97.5764 10.2133 97.3097 10.48C97.0564 10.7467 96.723 10.88 96.3097 10.88ZM96.3097 14.74C95.8964 14.74 95.5564 14.6067 95.2897 14.34C95.0364 14.0733 94.9097 13.7333 94.9097 13.32C94.9097 12.92 95.043 12.5867 95.3097 12.32C95.5764 12.04 95.9097 11.9 96.3097 11.9C96.723 11.9 97.0564 12.0333 97.3097 12.3C97.5764 12.5667 97.7097 12.9067 97.7097 13.32C97.7097 13.7333 97.5764 14.0733 97.3097 14.34C97.0564 14.6067 96.723 14.74 96.3097 14.74ZM96.3097 9C96.0297 9 95.8897 9.15333 95.8897 9.46C95.8897 9.74 96.0297 9.88 96.3097 9.88C96.6164 9.88 96.7697 9.74 96.7697 9.46C96.7697 9.15333 96.6164 9 96.3097 9ZM96.3097 12.88C96.0297 12.88 95.8897 13.0267 95.8897 13.32C95.8897 13.6267 96.0297 13.78 96.3097 13.78C96.6164 13.78 96.7697 13.6267 96.7697 13.32C96.7697 13.0267 96.6164 12.88 96.3097 12.88ZM102.723 15.04L102.763 20.38L101.643 20.4V15.04C100.67 15.0533 100.01 15.0067 99.6634 14.9C98.9701 14.6867 98.5968 14.2533 98.5434 13.6C98.4234 12.2133 99.1368 11.52 100.683 11.52C101.217 11.52 101.67 11.66 102.043 11.94C102.43 12.22 102.657 12.6133 102.723 13.12V13.94C103.897 13.94 104.53 13.7333 104.623 13.32C104.73 12.84 104.277 12.3667 103.263 11.9C102.823 11.7 102.117 11.3667 101.143 10.9C100.33 10.5133 99.9234 9.96 99.9234 9.24C99.9234 8.21333 100.65 7.7 102.103 7.7C102.517 7.7 102.91 7.76667 103.283 7.9C103.937 8.14 104.263 8.52 104.263 9.04C104.263 9.13333 104.203 9.23333 104.083 9.34H102.983C103.063 9.23333 103.103 9.15333 103.103 9.1C103.103 9.06 103.09 9.01333 103.063 8.96C102.957 8.89333 102.637 8.84 102.103 8.8C101.397 8.73333 101.043 8.89333 101.043 9.28C101.043 9.57333 101.363 9.85333 102.003 10.12C102.523 10.3333 102.977 10.5267 103.363 10.7C104.99 11.42 105.803 12.2667 105.803 13.24C105.803 14.4133 104.777 15.0133 102.723 15.04ZM101.443 12.88C101.27 12.72 101.01 12.64 100.663 12.64C100.397 12.64 100.157 12.72 99.9434 12.88C99.7301 13.04 99.6368 13.2467 99.6634 13.5C99.6901 13.8333 100.35 13.98 101.643 13.94C101.63 13.3533 101.563 13 101.443 12.88ZM108.508 14.98C108.295 14.98 107.962 14.9267 107.508 14.82V13.68C107.935 13.8 108.268 13.86 108.508 13.86C109.255 13.86 109.862 13.6267 110.328 13.16C110.808 12.68 111.048 12.0667 111.048 11.32C111.048 10.6 110.802 10 110.308 9.52C109.828 9.02667 109.228 8.78 108.508 8.78C107.335 8.78 106.522 9.42667 106.068 10.72C106.055 10.7867 105.995 10.9467 105.888 11.2L104.908 10.62L104.988 10.34C105.495 8.56667 106.668 7.68 108.508 7.68C109.562 7.68 110.435 8.02667 111.128 8.72C111.822 9.4 112.168 10.2667 112.168 11.32C112.168 12.4 111.828 13.28 111.148 13.96C110.468 14.64 109.588 14.98 108.508 14.98ZM114.415 10.88C114.002 10.88 113.662 10.7467 113.395 10.48C113.142 10.2133 113.015 9.87333 113.015 9.46C113.015 9.06 113.148 8.72667 113.415 8.46C113.682 8.18 114.015 8.04 114.415 8.04C114.815 8.04 115.148 8.18 115.415 8.46C115.682 8.72667 115.815 9.06 115.815 9.46C115.815 9.87333 115.682 10.2133 115.415 10.48C115.162 10.7467 114.828 10.88 114.415 10.88ZM114.415 14.74C114.002 14.74 113.662 14.6067 113.395 14.34C113.142 14.0733 113.015 13.7333 113.015 13.32C113.015 12.92 113.148 12.5867 113.415 12.32C113.682 12.04 114.015 11.9 114.415 11.9C114.828 11.9 115.162 12.0333 115.415 12.3C115.682 12.5667 115.815 12.9067 115.815 13.32C115.815 13.7333 115.682 14.0733 115.415 14.34C115.162 14.6067 114.828 14.74 114.415 14.74ZM114.415 9C114.135 9 113.995 9.15333 113.995 9.46C113.995 9.74 114.135 9.88 114.415 9.88C114.722 9.88 114.875 9.74 114.875 9.46C114.875 9.15333 114.722 9 114.415 9ZM114.415 12.88C114.135 12.88 113.995 13.0267 113.995 13.32C113.995 13.6267 114.135 13.78 114.415 13.78C114.722 13.78 114.875 13.6267 114.875 13.32C114.875 13.0267 114.722 12.88 114.415 12.88ZM123.409 20.4C123.049 20.4 122.869 20.1867 122.869 19.76V11.34C122.869 10.6067 122.629 10 122.149 9.52C121.669 9.02667 121.062 8.78 120.329 8.78C119.596 8.78 118.989 9.02667 118.509 9.52C118.029 10 117.789 10.6067 117.789 11.34V11.42C118.056 11.34 118.349 11.3 118.669 11.3C119.456 11.3 120.142 11.5267 120.729 11.98C121.369 12.4733 121.689 13.1 121.689 13.86C121.689 14.66 121.296 15.06 120.509 15.06C120.362 15.06 120.222 15.0467 120.089 15.02C119.022 14.9533 118.182 14.5933 117.569 13.94C116.969 13.2733 116.669 12.4067 116.669 11.34C116.669 10.2733 117.009 9.4 117.689 8.72C118.382 8.02667 119.262 7.68 120.329 7.68C121.396 7.68 122.276 8.02667 122.969 8.72C123.662 9.4 124.009 10.2733 124.009 11.34V19.3H124.729V20.4H123.409ZM120.569 13.7C120.569 13.1933 120.302 12.7933 119.769 12.5C119.302 12.2333 118.802 12.12 118.269 12.16L117.989 12.26C118.029 12.4067 118.102 12.5533 118.209 12.7C118.809 13.54 119.442 13.96 120.109 13.96C120.269 13.96 120.389 13.9267 120.469 13.86L120.569 13.78V13.7ZM120.394 20.4H118.734V19.3H119.834V14.94H120.914V19.76C120.914 20.1867 120.741 20.4 120.394 20.4ZM120.254 7.8C119.494 7.8 118.854 7.54 118.334 7.02C117.814 6.48667 117.554 5.84 117.554 5.08C117.554 4.32 117.821 3.68 118.354 3.16C118.874 2.64 119.514 2.38 120.274 2.38C121.034 2.38 121.667 2.64 122.174 3.16C122.681 3.68 122.934 4.32 122.934 5.08C122.934 5.81333 122.674 6.45333 122.154 7C121.621 7.53333 120.987 7.8 120.254 7.8ZM120.254 3.46C119.774 3.46 119.387 3.61333 119.094 3.92C118.787 4.21333 118.634 4.6 118.634 5.08C118.634 5.53333 118.787 5.91333 119.094 6.22C119.387 6.51333 119.761 6.66 120.214 6.66C120.681 6.66 121.067 6.51333 121.374 6.22C121.667 5.92667 121.814 5.54667 121.814 5.08C121.814 4.61333 121.674 4.22667 121.394 3.92C121.101 3.61333 120.721 3.46 120.254 3.46ZM136.588 15C135.455 15 134.548 14.6733 133.868 14.02C133.201 13.3667 132.868 12.4733 132.868 11.34C132.868 10.6067 132.628 10 132.148 9.52C131.668 9.04 131.061 8.8 130.328 8.8C129.608 8.8 128.995 9.04667 128.488 9.54C127.995 10.02 127.748 10.62 127.748 11.34C127.748 12.1267 127.995 12.7733 128.488 13.28C128.995 13.7733 129.641 14 130.428 13.96L130.248 15.06L129.708 14.96C128.788 14.7867 128.048 14.3733 127.488 13.72C126.928 13.0667 126.648 12.2733 126.648 11.34C126.648 10.2733 126.995 9.4 127.688 8.72C128.381 8.04 129.261 7.7 130.328 7.7C131.408 7.7 132.295 8.04 132.988 8.72C133.681 9.38667 134.028 10.26 134.028 11.34C134.028 12.0867 134.268 12.7 134.748 13.18C135.228 13.66 135.841 13.9 136.588 13.9C137.321 13.9 137.935 13.66 138.428 13.18C138.921 12.6867 139.168 12.0733 139.168 11.34C139.168 10.6067 138.921 10 138.428 9.52C137.935 9.04 137.321 8.8 136.588 8.8C136.335 8.8 135.941 8.89333 135.408 9.08L135.488 7.84C135.861 7.74667 136.228 7.7 136.588 7.7C137.655 7.7 138.535 8.04 139.228 8.72C139.921 9.4 140.268 10.2733 140.268 11.34C140.268 12.42 139.921 13.3 139.228 13.98C138.548 14.66 137.668 15 136.588 15ZM137.522 20.4C137.188 20.4 137.022 20.1867 137.022 19.76V14.94H138.122V19.3H139.122V20.4H137.522ZM135.282 20.4V14.94H136.362V20.4H135.282ZM151.022 14.98C150.528 14.98 150.002 14.86 149.442 14.62L149.862 13.62C150.368 13.78 150.755 13.86 151.022 13.86C151.768 13.86 152.382 13.6267 152.862 13.16C153.355 12.68 153.602 12.0667 153.602 11.32C153.602 10.6 153.348 10 152.842 9.52C152.348 9.02667 151.742 8.78 151.022 8.78C150.275 8.78 149.662 9.02 149.182 9.5C148.715 9.96667 148.482 10.5733 148.482 11.32V11.44L148.462 11.48C148.408 12.5467 148.042 13.4 147.362 14.04C146.695 14.6667 145.828 14.98 144.762 14.98C143.695 14.98 142.815 14.64 142.122 13.96C141.428 13.2667 141.082 12.3867 141.082 11.32C141.082 10.2267 141.422 9.34667 142.102 8.68C142.782 8.01333 143.668 7.68 144.762 7.68C146.095 7.68 147.142 8.24667 147.902 9.38C148.648 8.24667 149.688 7.68 151.022 7.68C152.102 7.68 152.982 8.02 153.662 8.7C154.355 9.36667 154.702 10.24 154.702 11.32C154.702 12.3867 154.355 13.2667 153.662 13.96C152.968 14.64 152.088 14.98 151.022 14.98ZM144.762 8.78C144.028 8.78 143.415 9.02 142.922 9.5C142.428 9.98 142.182 10.5867 142.182 11.32C142.182 12.0533 142.428 12.66 142.922 13.14C143.415 13.62 144.028 13.86 144.762 13.86C145.495 13.86 146.102 13.62 146.582 13.14C147.062 12.66 147.302 12.0533 147.302 11.32C147.302 10.5867 147.062 9.98 146.582 9.5C146.102 9.02 145.495 8.78 144.762 8.78ZM151.035 7.8C150.275 7.8 149.635 7.54 149.115 7.02C148.595 6.48667 148.335 5.84 148.335 5.08C148.335 4.32 148.602 3.68 149.135 3.16C149.655 2.64 150.295 2.38 151.055 2.38C151.815 2.38 152.448 2.64 152.955 3.16C153.462 3.68 153.715 4.32 153.715 5.08C153.715 5.81333 153.455 6.45333 152.935 7C152.402 7.53333 151.768 7.8 151.035 7.8ZM151.035 3.46C150.555 3.46 150.168 3.61333 149.875 3.92C149.568 4.21333 149.415 4.6 149.415 5.08C149.415 5.53333 149.568 5.91333 149.875 6.22C150.168 6.51333 150.542 6.66 150.995 6.66C151.462 6.66 151.848 6.51333 152.155 6.22C152.448 5.92667 152.595 5.54667 152.595 5.08C152.595 4.61333 152.455 4.22667 152.175 3.92C151.882 3.61333 151.502 3.46 151.035 3.46ZM151.035 20.4C150.688 20.4 150.515 20.1867 150.515 19.76V14.94H151.575V19.3H152.675V20.4H151.035ZM162.415 13.12C162.162 13.68 161.715 14.1333 161.075 14.48C160.488 14.8133 159.868 14.98 159.215 14.98C158.148 14.98 157.268 14.64 156.575 13.96C155.895 13.2667 155.555 12.3867 155.555 11.32C155.555 10.2533 155.895 9.38 156.575 8.7C157.268 8.02 158.148 7.68 159.215 7.68C160.642 7.68 161.788 8.46667 162.655 10.04L161.715 10.56C161.035 9.37333 160.202 8.78 159.215 8.78C158.482 8.78 157.875 9.02 157.395 9.5C156.915 9.98 156.675 10.5867 156.675 11.32C156.675 12.0533 156.915 12.66 157.395 13.14C157.875 13.62 158.482 13.86 159.215 13.86C160.202 13.86 161.035 13.2667 161.715 12.08L162.655 12.6L162.415 13.12ZM160.84 4.92C160.813 4.93333 160.787 4.94 160.76 4.94C160.733 4.94 160.72 4.92667 160.72 4.9C160.68 4.47333 160.52 4.12667 160.24 3.86C159.947 3.59333 159.587 3.46 159.16 3.46C158.68 3.46 158.293 3.61333 158 3.92C157.693 4.21333 157.54 4.6 157.54 5.08C157.54 5.53333 157.693 5.91333 158 6.22C158.293 6.51333 158.667 6.66 159.12 6.66C159.213 6.66 159.36 6.64667 159.56 6.62V7.78C159.4 7.79333 159.267 7.8 159.16 7.8C158.4 7.8 157.76 7.54 157.24 7.02C156.72 6.48667 156.46 5.84 156.46 5.08C156.46 4.32 156.727 3.68 157.26 3.16C157.78 2.64 158.42 2.38 159.18 2.38C159.873 2.38 160.453 2.58667 160.92 3C161.387 3.4 161.687 3.94667 161.82 4.64C161.513 4.76 161.187 4.85333 160.84 4.92ZM165.04 10.88C164.627 10.88 164.287 10.7467 164.02 10.48C163.767 10.2133 163.64 9.87333 163.64 9.46C163.64 9.06 163.773 8.72667 164.04 8.46C164.307 8.18 164.64 8.04 165.04 8.04C165.44 8.04 165.773 8.18 166.04 8.46C166.307 8.72667 166.44 9.06 166.44 9.46C166.44 9.87333 166.307 10.2133 166.04 10.48C165.787 10.7467 165.453 10.88 165.04 10.88ZM165.04 14.74C164.627 14.74 164.287 14.6067 164.02 14.34C163.767 14.0733 163.64 13.7333 163.64 13.32C163.64 12.92 163.773 12.5867 164.04 12.32C164.307 12.04 164.64 11.9 165.04 11.9C165.453 11.9 165.787 12.0333 166.04 12.3C166.307 12.5667 166.44 12.9067 166.44 13.32C166.44 13.7333 166.307 14.0733 166.04 14.34C165.787 14.6067 165.453 14.74 165.04 14.74ZM165.04 9C164.76 9 164.62 9.15333 164.62 9.46C164.62 9.74 164.76 9.88 165.04 9.88C165.347 9.88 165.5 9.74 165.5 9.46C165.5 9.15333 165.347 9 165.04 9ZM165.04 12.88C164.76 12.88 164.62 13.0267 164.62 13.32C164.62 13.6267 164.76 13.78 165.04 13.78C165.347 13.78 165.5 13.6267 165.5 13.32C165.5 13.0267 165.347 12.88 165.04 12.88ZM177.154 15.02C175.821 15.02 174.781 14.4533 174.034 13.32C173.287 14.44 172.247 15 170.914 15C169.714 15 168.627 14.3867 167.654 13.16L168.554 12.48C169.314 13.4267 170.101 13.9 170.914 13.9C171.647 13.9 172.254 13.6867 172.734 13.26C173.227 12.82 173.474 12.24 173.474 11.52V11.12C173.474 10.4267 173.221 9.86667 172.714 9.44C172.221 9.01333 171.621 8.8 170.914 8.8C169.954 8.8 169.127 9.37333 168.434 10.52L167.474 9.96L167.754 9.48C168.447 8.29333 169.501 7.7 170.914 7.7C171.994 7.7 172.881 8.04 173.574 8.72C174.267 9.38667 174.614 10.26 174.614 11.34V11.54C174.614 12.2467 174.854 12.82 175.334 13.26C175.827 13.7 176.434 13.92 177.154 13.92C177.901 13.92 178.521 13.68 179.014 13.2C179.507 12.7067 179.754 12.0867 179.754 11.34C179.754 10.6067 179.501 10 178.994 9.52C178.501 9.04 177.887 8.8 177.154 8.8C176.861 8.8 176.387 8.92 175.734 9.16L175.374 8.1L175.874 7.92C176.247 7.78667 176.674 7.72 177.154 7.72C178.261 7.72 179.154 8.04667 179.834 8.7C180.514 9.35333 180.854 10.2333 180.854 11.34C180.854 12.42 180.507 13.3067 179.814 14C179.121 14.68 178.234 15.02 177.154 15.02ZM177.347 20.46C176.587 20.46 175.941 20.1933 175.407 19.66C174.874 19.1267 174.607 18.48 174.607 17.72C174.607 16.9467 174.874 16.2933 175.407 15.76C175.927 15.2267 176.574 14.96 177.347 14.96C178.121 14.96 178.774 15.2267 179.307 15.76C179.841 16.2933 180.107 16.9467 180.107 17.72C180.107 18.4933 179.841 19.14 179.307 19.66C178.774 20.1933 178.121 20.46 177.347 20.46ZM177.347 16C176.854 16 176.454 16.16 176.147 16.48C175.827 16.8133 175.667 17.2267 175.667 17.72C175.667 18.2 175.827 18.6 176.147 18.92C176.467 19.24 176.867 19.4 177.347 19.4C177.841 19.4 178.254 19.24 178.587 18.92C178.907 18.6133 179.067 18.2133 179.067 17.72C179.067 17.2267 178.907 16.8133 178.587 16.48C178.254 16.16 177.841 16 177.347 16ZM183.587 14.98C183.373 14.98 183.04 14.9267 182.587 14.82V13.68C183.013 13.8 183.347 13.86 183.587 13.86C184.333 13.86 184.94 13.6267 185.407 13.16C185.887 12.68 186.127 12.0667 186.127 11.32C186.127 10.6 185.88 10 185.387 9.52C184.907 9.02667 184.307 8.78 183.587 8.78C182.413 8.78 181.6 9.42667 181.147 10.72C181.133 10.7867 181.073 10.9467 180.967 11.2L179.987 10.62L180.067 10.34C180.573 8.56667 181.747 7.68 183.587 7.68C184.64 7.68 185.513 8.02667 186.207 8.72C186.9 9.4 187.247 10.2667 187.247 11.32C187.247 12.4 186.907 13.28 186.227 13.96C185.547 14.64 184.667 14.98 183.587 14.98ZM189.493 10.88C189.08 10.88 188.74 10.7467 188.473 10.48C188.22 10.2133 188.093 9.87333 188.093 9.46C188.093 9.06 188.227 8.72667 188.493 8.46C188.76 8.18 189.093 8.04 189.493 8.04C189.893 8.04 190.227 8.18 190.493 8.46C190.76 8.72667 190.893 9.06 190.893 9.46C190.893 9.87333 190.76 10.2133 190.493 10.48C190.24 10.7467 189.907 10.88 189.493 10.88ZM189.493 14.74C189.08 14.74 188.74 14.6067 188.473 14.34C188.22 14.0733 188.093 13.7333 188.093 13.32C188.093 12.92 188.227 12.5867 188.493 12.32C188.76 12.04 189.093 11.9 189.493 11.9C189.907 11.9 190.24 12.0333 190.493 12.3C190.76 12.5667 190.893 12.9067 190.893 13.32C190.893 13.7333 190.76 14.0733 190.493 14.34C190.24 14.6067 189.907 14.74 189.493 14.74ZM189.493 9C189.213 9 189.073 9.15333 189.073 9.46C189.073 9.74 189.213 9.88 189.493 9.88C189.8 9.88 189.953 9.74 189.953 9.46C189.953 9.15333 189.8 9 189.493 9ZM189.493 12.88C189.213 12.88 189.073 13.0267 189.073 13.32C189.073 13.6267 189.213 13.78 189.493 13.78C189.8 13.78 189.953 13.6267 189.953 13.32C189.953 13.0267 189.8 12.88 189.493 12.88ZM201.627 15C200.494 15 199.587 14.6733 198.907 14.02C198.24 13.3667 197.907 12.4733 197.907 11.34C197.907 10.6067 197.667 10 197.187 9.52C196.707 9.04 196.1 8.8 195.367 8.8C194.647 8.8 194.034 9.04667 193.527 9.54C193.034 10.02 192.787 10.62 192.787 11.34C192.787 12.1267 193.034 12.7733 193.527 13.28C194.034 13.7733 194.68 14 195.467 13.96L195.287 15.06L194.747 14.96C193.827 14.7867 193.087 14.3733 192.527 13.72C191.967 13.0667 191.687 12.2733 191.687 11.34C191.687 10.2733 192.034 9.4 192.727 8.72C193.42 8.04 194.3 7.7 195.367 7.7C196.447 7.7 197.334 8.04 198.027 8.72C198.72 9.38667 199.067 10.26 199.067 11.34C199.067 12.0867 199.307 12.7 199.787 13.18C200.267 13.66 200.88 13.9 201.627 13.9C202.36 13.9 202.974 13.66 203.467 13.18C203.96 12.6867 204.207 12.0733 204.207 11.34C204.207 10.6067 203.96 10 203.467 9.52C202.974 9.04 202.36 8.8 201.627 8.8C201.374 8.8 200.98 8.89333 200.447 9.08L200.527 7.84C200.9 7.74667 201.267 7.7 201.627 7.7C202.694 7.7 203.574 8.04 204.267 8.72C204.96 9.4 205.307 10.2733 205.307 11.34C205.307 12.42 204.96 13.3 204.267 13.98C203.587 14.66 202.707 15 201.627 15ZM208.001 14.98C207.787 14.98 207.454 14.9267 207.001 14.82V13.68C207.427 13.8 207.761 13.86 208.001 13.86C208.747 13.86 209.354 13.6267 209.821 13.16C210.301 12.68 210.541 12.0667 210.541 11.32C210.541 10.6 210.294 10 209.801 9.52C209.321 9.02667 208.721 8.78 208.001 8.78C206.827 8.78 206.014 9.42667 205.561 10.72C205.547 10.7867 205.487 10.9467 205.381 11.2L204.401 10.62L204.481 10.34C204.987 8.56667 206.161 7.68 208.001 7.68C209.054 7.68 209.927 8.02667 210.621 8.72C211.314 9.4 211.661 10.2667 211.661 11.32C211.661 12.4 211.321 13.28 210.641 13.96C209.961 14.64 209.081 14.98 208.001 14.98ZM218.707 10.56C218.027 9.37333 217.194 8.78 216.207 8.78C215.474 8.78 214.867 9.02 214.387 9.5C213.907 9.98 213.667 10.5867 213.667 11.32C213.667 12.4133 214.194 13.2067 215.247 13.7C215.341 12.6467 215.801 11.8933 216.627 11.44C217.041 11.2133 217.481 11.1 217.947 11.1C218.414 11.1 218.794 11.2067 219.087 11.42C219.434 11.6733 219.607 12.02 219.607 12.46C219.607 12.74 219.434 13.12 219.087 13.6C218.421 14.52 217.461 14.98 216.207 14.98C215.141 14.98 214.261 14.64 213.567 13.96C212.887 13.2667 212.547 12.3867 212.547 11.32C212.547 10.2533 212.887 9.38 213.567 8.7C214.261 8.02 215.141 7.68 216.207 7.68C217.634 7.68 218.781 8.46667 219.647 10.04L218.707 10.56ZM217.847 12.16C217.354 12.16 216.941 12.32 216.607 12.64C216.274 12.96 216.101 13.3667 216.087 13.86H216.207C216.994 13.86 217.641 13.5867 218.147 13.04C218.227 12.9067 218.327 12.76 218.447 12.6C218.461 12.5333 218.467 12.48 218.467 12.44C218.467 12.2533 218.261 12.16 217.847 12.16ZM227.432 20.4C227.072 20.4 226.892 20.1867 226.892 19.76V11.34C226.892 10.6067 226.652 10 226.172 9.52C225.692 9.02667 225.086 8.78 224.352 8.78C223.619 8.78 223.012 9.02667 222.532 9.52C222.052 10 221.812 10.6067 221.812 11.34V11.42C222.079 11.34 222.372 11.3 222.692 11.3C223.479 11.3 224.166 11.5267 224.752 11.98C225.392 12.4733 225.712 13.1 225.712 13.86C225.712 14.66 225.319 15.06 224.532 15.06C224.386 15.06 224.246 15.0467 224.112 15.02C223.046 14.9533 222.206 14.5933 221.592 13.94C220.992 13.2733 220.692 12.4067 220.692 11.34C220.692 10.2733 221.032 9.4 221.712 8.72C222.406 8.02667 223.286 7.68 224.352 7.68C225.419 7.68 226.299 8.02667 226.992 8.72C227.686 9.4 228.032 10.2733 228.032 11.34V19.3H228.752V20.4H227.432ZM224.592 13.7C224.592 13.1933 224.326 12.7933 223.792 12.5C223.326 12.2333 222.826 12.12 222.292 12.16L222.012 12.26C222.052 12.4067 222.126 12.5533 222.232 12.7C222.832 13.54 223.466 13.96 224.132 13.96C224.292 13.96 224.412 13.9267 224.492 13.86L224.592 13.78V13.7ZM230.157 10.88C229.744 10.88 229.404 10.7467 229.137 10.48C228.884 10.2133 228.757 9.87333 228.757 9.46C228.757 9.06 228.891 8.72667 229.157 8.46C229.424 8.18 229.757 8.04 230.157 8.04C230.557 8.04 230.891 8.18 231.157 8.46C231.424 8.72667 231.557 9.06 231.557 9.46C231.557 9.87333 231.424 10.2133 231.157 10.48C230.904 10.7467 230.571 10.88 230.157 10.88ZM230.157 14.74C229.744 14.74 229.404 14.6067 229.137 14.34C228.884 14.0733 228.757 13.7333 228.757 13.32C228.757 12.92 228.891 12.5867 229.157 12.32C229.424 12.04 229.757 11.9 230.157 11.9C230.571 11.9 230.904 12.0333 231.157 12.3C231.424 12.5667 231.557 12.9067 231.557 13.32C231.557 13.7333 231.424 14.0733 231.157 14.34C230.904 14.6067 230.571 14.74 230.157 14.74ZM230.157 9C229.877 9 229.737 9.15333 229.737 9.46C229.737 9.74 229.877 9.88 230.157 9.88C230.464 9.88 230.617 9.74 230.617 9.46C230.617 9.15333 230.464 9 230.157 9ZM230.157 12.88C229.877 12.88 229.737 13.0267 229.737 13.32C229.737 13.6267 229.877 13.78 230.157 13.78C230.464 13.78 230.617 13.6267 230.617 13.32C230.617 13.0267 230.464 12.88 230.157 12.88ZM235.871 12.06V12H235.771L235.791 10.92H236.451C237.411 10.92 237.938 10.5733 238.031 9.88C237.924 9.16 237.131 8.8 235.651 8.8C234.611 8.8 233.931 9.10667 233.611 9.72C233.504 9.93333 233.571 10.04 233.811 10.04H234.031L233.951 11.06H233.811C232.891 11.06 232.431 10.6333 232.431 9.78C232.431 9.03333 232.804 8.48 233.551 8.12C234.124 7.84 234.824 7.7 235.651 7.7C237.104 7.7 238.144 8.09333 238.771 8.88C239.504 8.10667 240.404 7.72 241.471 7.72C242.338 7.72 243.118 8.00667 243.811 8.58C244.678 9.28667 245.111 10.22 245.111 11.38C245.111 12.2467 244.824 13.0267 244.251 13.72C243.518 14.6 242.591 15.04 241.471 15.04C241.071 15.04 240.671 14.98 240.271 14.86C240.098 14.8067 240.011 14.66 240.011 14.42C240.011 13.9533 240.024 13.68 240.051 13.6C240.184 13.1867 240.338 12.9067 240.511 12.76C241.124 12.2267 241.711 11.96 242.271 11.96C242.871 11.96 243.364 12.12 243.751 12.44C243.924 12.12 244.011 11.7667 244.011 11.38C244.011 10.6467 243.771 10.0333 243.291 9.54C242.811 9.04667 242.204 8.8 241.471 8.8C240.404 8.8 239.624 9.28667 239.131 10.26C239.038 10.7 238.791 11.0867 238.391 11.42C238.991 11.8067 239.258 12.34 239.191 13.02C239.058 14.34 237.878 15 235.651 15C234.944 15 234.291 14.88 233.691 14.64C232.904 14.3333 232.491 13.88 232.451 13.28L232.431 12.94L233.531 12.68C233.544 12.8667 233.571 13.08 233.611 13.32C233.704 13.4933 234.018 13.64 234.551 13.76C234.964 13.8533 235.331 13.9 235.651 13.9C237.211 13.9 238.018 13.5667 238.071 12.9C238.111 12.3133 237.524 12.02 236.311 12.02C236.218 12.0067 236.071 12.02 235.871 12.06ZM242.351 12.78C241.991 12.78 241.644 12.9933 241.311 13.42C241.258 13.4867 241.191 13.6533 241.111 13.92C241.258 13.9333 241.378 13.94 241.471 13.94C242.084 13.94 242.718 13.6467 243.371 13.06C243.131 12.8733 242.791 12.78 242.351 12.78ZM255.865 14.98C254.665 14.98 253.679 14.4867 252.905 13.5L252.765 13.32C252.032 14.4267 250.999 14.98 249.665 14.98C248.412 14.98 247.459 14.52 246.805 13.6C246.472 13.1333 246.305 12.7533 246.305 12.46C246.305 12.0333 246.465 11.7 246.785 11.46C247.105 11.22 247.485 11.1 247.925 11.1C248.925 11.1 249.685 11.52 250.205 12.36C250.459 12.7733 250.599 13.22 250.625 13.7C251.692 13.2067 252.225 12.4133 252.225 11.32C252.225 10.5867 251.979 9.98 251.485 9.5C251.005 9.02 250.399 8.78 249.665 8.78C248.692 8.78 247.872 9.37333 247.205 10.56L246.245 10.04C247.099 8.46667 248.239 7.68 249.665 7.68C251.012 7.68 252.052 8.23333 252.785 9.34C253.519 8.23333 254.545 7.68 255.865 7.68C256.945 7.68 257.825 8.02 258.505 8.7C259.199 9.36667 259.545 10.24 259.545 11.32C259.545 12.3867 259.199 13.2667 258.505 13.96C257.812 14.64 256.932 14.98 255.865 14.98ZM255.865 8.78C255.119 8.78 254.505 9.02 254.025 9.5C253.559 9.96667 253.325 10.5733 253.325 11.32C253.325 12.0533 253.565 12.66 254.045 13.14C254.525 13.62 255.132 13.86 255.865 13.86C256.612 13.86 257.225 13.6267 257.705 13.16C258.199 12.68 258.445 12.0667 258.445 11.32C258.445 10.6 258.192 10 257.685 9.52C257.192 9.02667 256.585 8.78 255.865 8.78ZM248.045 12.16C247.619 12.16 247.405 12.2533 247.405 12.44C247.432 12.48 247.539 12.68 247.725 13.04C248.232 13.5867 248.879 13.86 249.665 13.86H249.785C249.772 13.3667 249.599 12.96 249.265 12.64C248.945 12.32 248.539 12.16 248.045 12.16ZM267.259 13.12C267.006 13.68 266.559 14.1333 265.919 14.48C265.332 14.8133 264.712 14.98 264.059 14.98C262.992 14.98 262.112 14.64 261.419 13.96C260.739 13.2667 260.399 12.3867 260.399 11.32C260.399 10.2533 260.739 9.38 261.419 8.7C262.112 8.02 262.992 7.68 264.059 7.68C265.486 7.68 266.632 8.46667 267.499 10.04L266.559 10.56C265.879 9.37333 265.046 8.78 264.059 8.78C263.326 8.78 262.719 9.02 262.239 9.5C261.759 9.98 261.519 10.5867 261.519 11.32C261.519 12.0533 261.759 12.66 262.239 13.14C262.719 13.62 263.326 13.86 264.059 13.86C265.046 13.86 265.879 13.2667 266.559 12.08L267.499 12.6L267.259 13.12ZM265.684 4.92C265.657 4.93333 265.631 4.94 265.604 4.94C265.577 4.94 265.564 4.92667 265.564 4.9C265.524 4.47333 265.364 4.12667 265.084 3.86C264.791 3.59333 264.431 3.46 264.004 3.46C263.524 3.46 263.137 3.61333 262.844 3.92C262.537 4.21333 262.384 4.6 262.384 5.08C262.384 5.53333 262.537 5.91333 262.844 6.22C263.137 6.51333 263.511 6.66 263.964 6.66C264.057 6.66 264.204 6.64667 264.404 6.62V7.78C264.244 7.79333 264.111 7.8 264.004 7.8C263.244 7.8 262.604 7.54 262.084 7.02C261.564 6.48667 261.304 5.84 261.304 5.08C261.304 4.32 261.571 3.68 262.104 3.16C262.624 2.64 263.264 2.38 264.024 2.38C264.717 2.38 265.297 2.58667 265.764 3C266.231 3.4 266.531 3.94667 266.664 4.64C266.357 4.76 266.031 4.85333 265.684 4.92ZM274.684 10.56C274.004 9.37333 273.171 8.78 272.184 8.78C271.451 8.78 270.844 9.02 270.364 9.5C269.884 9.98 269.644 10.5867 269.644 11.32C269.644 12.4133 270.171 13.2067 271.224 13.7C271.317 12.6467 271.777 11.8933 272.604 11.44C273.017 11.2133 273.457 11.1 273.924 11.1C274.391 11.1 274.771 11.2067 275.064 11.42C275.411 11.6733 275.584 12.02 275.584 12.46C275.584 12.74 275.411 13.12 275.064 13.6C274.397 14.52 273.437 14.98 272.184 14.98C271.117 14.98 270.237 14.64 269.544 13.96C268.864 13.2667 268.524 12.3867 268.524 11.32C268.524 10.2533 268.864 9.38 269.544 8.7C270.237 8.02 271.117 7.68 272.184 7.68C273.611 7.68 274.757 8.46667 275.624 10.04L274.684 10.56ZM273.824 12.16C273.331 12.16 272.917 12.32 272.584 12.64C272.251 12.96 272.077 13.3667 272.064 13.86H272.184C272.971 13.86 273.617 13.5867 274.124 13.04C274.204 12.9067 274.304 12.76 274.424 12.6C274.437 12.5333 274.444 12.48 274.444 12.44C274.444 12.2533 274.237 12.16 273.824 12.16ZM285.829 5.2H284.669V4.16C284.669 3.69333 284.509 3.46 284.189 3.46H278.489C278.209 3.46 278.022 3.52667 277.929 3.66C277.849 3.78 277.809 3.99333 277.809 4.3V18.52C277.809 19.0267 278.036 19.28 278.489 19.28H284.009C284.436 19.28 284.649 19.1133 284.649 18.78V12.12H285.829V18.76C285.829 19.8533 285.216 20.4 283.989 20.4H278.489C277.249 20.4 276.629 19.7867 276.629 18.56L276.609 4.2C276.609 2.97333 277.236 2.36 278.489 2.36H284.329C285.356 2.36 285.862 2.90667 285.849 4L285.829 5.2ZM282.164 15C281.084 15 280.197 14.66 279.504 13.98C278.824 13.3 278.484 12.42 278.484 11.34C278.484 9.83333 279.191 8.73333 280.604 8.04L281.304 8.88C280.157 9.58667 279.584 10.4067 279.584 11.34C279.584 12.0867 279.824 12.7 280.304 13.18C280.797 13.66 281.417 13.9 282.164 13.9C282.884 13.9 283.484 13.6533 283.964 13.16C284.457 12.6667 284.704 12.06 284.704 11.34C284.704 10.42 284.131 9.60667 282.984 8.9L283.744 8.08L284.064 8.24C285.211 8.81333 285.784 9.84667 285.784 11.34C285.784 12.4067 285.444 13.2867 284.764 13.98C284.097 14.66 283.231 15 282.164 15ZM287.029 15V8.28H288.069V15H287.029ZM106.647 34.56C105.967 33.3733 105.133 32.78 104.147 32.78C103.413 32.78 102.807 33.02 102.327 33.5C101.847 33.98 101.607 34.5867 101.607 35.32C101.607 36.4133 102.133 37.2067 103.187 37.7C103.28 36.6467 103.74 35.8933 104.567 35.44C104.98 35.2133 105.42 35.1 105.887 35.1C106.353 35.1 106.733 35.2067 107.027 35.42C107.373 35.6733 107.547 36.02 107.547 36.46C107.547 36.74 107.373 37.12 107.027 37.6C106.36 38.52 105.4 38.98 104.147 38.98C103.08 38.98 102.2 38.64 101.507 37.96C100.827 37.2667 100.487 36.3867 100.487 35.32C100.487 34.2533 100.827 33.38 101.507 32.7C102.2 32.02 103.08 31.68 104.147 31.68C105.573 31.68 106.72 32.4667 107.587 34.04L106.647 34.56ZM105.787 36.16C105.293 36.16 104.88 36.32 104.547 36.64C104.213 36.96 104.04 37.3667 104.027 37.86H104.147C104.933 37.86 105.58 37.5867 106.087 37.04C106.167 36.9067 106.267 36.76 106.387 36.6C106.4 36.5333 106.407 36.48 106.407 36.44C106.407 36.2533 106.2 36.16 105.787 36.16ZM112.252 39C111.172 39 110.285 38.66 109.592 37.98C108.912 37.3 108.572 36.42 108.572 35.34C108.572 33.8333 109.278 32.7333 110.692 32.04L111.392 32.88C110.245 33.5867 109.672 34.4067 109.672 35.34C109.672 36.0867 109.912 36.7 110.392 37.18C110.885 37.66 111.505 37.9 112.252 37.9C112.972 37.9 113.572 37.6533 114.052 37.16C114.545 36.6667 114.792 36.06 114.792 35.34C114.792 34.42 114.218 33.6067 113.072 32.9L113.832 32.08L114.152 32.24C115.298 32.8133 115.872 33.8467 115.872 35.34C115.872 36.4067 115.532 37.2867 114.852 37.98C114.185 38.66 113.318 39 112.252 39ZM117.117 44.36C117.037 44.36 116.937 44.3467 116.817 44.32L114.937 43.92C114.363 43.8 114.07 43.5267 114.057 43.1L114.037 42.52V37.38H115.137V42.78L116.657 43.14V31.7H117.757V43.76C117.757 44.16 117.543 44.36 117.117 44.36ZM120.432 38.98C120.219 38.98 119.886 38.9267 119.432 38.82V37.68C119.859 37.8 120.192 37.86 120.432 37.86C121.179 37.86 121.786 37.6267 122.252 37.16C122.732 36.68 122.972 36.0667 122.972 35.32C122.972 34.6 122.726 34 122.232 33.52C121.752 33.0267 121.152 32.78 120.432 32.78C119.259 32.78 118.446 33.4267 117.992 34.72C117.979 34.7867 117.919 34.9467 117.812 35.2L116.832 34.62L116.912 34.34C117.419 32.5667 118.592 31.68 120.432 31.68C121.486 31.68 122.359 32.0267 123.052 32.72C123.746 33.4 124.092 34.2667 124.092 35.32C124.092 36.4 123.752 37.28 123.072 37.96C122.392 38.64 121.512 38.98 120.432 38.98ZM122.139 28.92C122.112 28.9333 122.086 28.94 122.059 28.94C122.032 28.94 122.019 28.9267 122.019 28.9C121.979 28.4733 121.819 28.1267 121.539 27.86C121.246 27.5933 120.886 27.46 120.459 27.46C119.979 27.46 119.592 27.6133 119.299 27.92C118.992 28.2133 118.839 28.6 118.839 29.08C118.839 29.5333 118.992 29.9133 119.299 30.22C119.592 30.5133 119.966 30.66 120.419 30.66C120.512 30.66 120.659 30.6467 120.859 30.62V31.78C120.699 31.7933 120.566 31.8 120.459 31.8C119.699 31.8 119.059 31.54 118.539 31.02C118.019 30.4867 117.759 29.84 117.759 29.08C117.759 28.32 118.026 27.68 118.559 27.16C119.079 26.64 119.719 26.38 120.479 26.38C121.172 26.38 121.752 26.5867 122.219 27C122.686 27.4 122.986 27.9467 123.119 28.64C122.812 28.76 122.486 28.8533 122.139 28.92ZM131.739 44.4C131.379 44.4 131.199 44.1867 131.199 43.76V35.34C131.199 34.6067 130.959 34 130.479 33.52C129.999 33.0267 129.392 32.78 128.659 32.78C127.926 32.78 127.319 33.0267 126.839 33.52C126.359 34 126.119 34.6067 126.119 35.34V35.42C126.386 35.34 126.679 35.3 126.999 35.3C127.786 35.3 128.472 35.5267 129.059 35.98C129.699 36.4733 130.019 37.1 130.019 37.86C130.019 38.66 129.626 39.06 128.839 39.06C128.692 39.06 128.552 39.0467 128.419 39.02C127.352 38.9533 126.512 38.5933 125.899 37.94C125.299 37.2733 124.999 36.4067 124.999 35.34C124.999 34.2733 125.339 33.4 126.019 32.72C126.712 32.0267 127.592 31.68 128.659 31.68C129.726 31.68 130.606 32.0267 131.299 32.72C131.992 33.4 132.339 34.2733 132.339 35.34V43.3H133.059V44.4H131.739ZM128.899 37.7C128.899 37.1933 128.632 36.7933 128.099 36.5C127.632 36.2333 127.132 36.12 126.599 36.16L126.319 36.26C126.359 36.4067 126.432 36.5533 126.539 36.7C127.139 37.54 127.772 37.96 128.439 37.96C128.599 37.96 128.719 37.9267 128.799 37.86L128.899 37.78V37.7ZM128.704 44.46C128.037 44.46 127.437 44.2467 126.904 43.82C126.517 44.06 126.057 44.18 125.524 44.18C124.404 44.18 123.744 43.8 123.544 43.04L123.404 42.5L124.524 42.28C124.484 42.48 124.517 42.6533 124.624 42.8C124.677 43.0133 125.011 43.12 125.624 43.12C125.864 43.12 126.071 43.0667 126.244 42.96C126.057 42.56 125.964 42.1467 125.964 41.72C125.964 40.9333 126.224 40.2733 126.744 39.74C127.264 39.22 127.917 38.96 128.704 38.96C129.491 38.96 130.151 39.22 130.684 39.74C131.204 40.2733 131.464 40.9333 131.464 41.72C131.464 42.4933 131.197 43.14 130.664 43.66C130.131 44.1933 129.477 44.46 128.704 44.46ZM128.704 40C128.197 40 127.784 40.16 127.464 40.48C127.144 40.8 126.984 41.2133 126.984 41.72C126.984 42.2133 127.151 42.6133 127.484 42.92C127.804 43.24 128.211 43.4 128.704 43.4C129.211 43.4 129.624 43.2467 129.944 42.94C130.251 42.6333 130.404 42.2267 130.404 41.72C130.404 41.2133 130.251 40.8 129.944 40.48C129.624 40.16 129.211 40 128.704 40ZM139.964 37.12C139.711 37.68 139.264 38.1333 138.624 38.48C138.037 38.8133 137.417 38.98 136.764 38.98C135.697 38.98 134.817 38.64 134.124 37.96C133.444 37.2667 133.104 36.3867 133.104 35.32C133.104 34.2533 133.444 33.38 134.124 32.7C134.817 32.02 135.697 31.68 136.764 31.68C138.191 31.68 139.337 32.4667 140.204 34.04L139.264 34.56C138.584 33.3733 137.751 32.78 136.764 32.78C136.031 32.78 135.424 33.02 134.944 33.5C134.464 33.98 134.224 34.5867 134.224 35.32C134.224 36.0533 134.464 36.66 134.944 37.14C135.424 37.62 136.031 37.86 136.764 37.86C137.751 37.86 138.584 37.2667 139.264 36.08L140.204 36.6L139.964 37.12ZM138.389 28.92C138.362 28.9333 138.336 28.94 138.309 28.94C138.282 28.94 138.269 28.9267 138.269 28.9C138.229 28.4733 138.069 28.1267 137.789 27.86C137.496 27.5933 137.136 27.46 136.709 27.46C136.229 27.46 135.842 27.6133 135.549 27.92C135.242 28.2133 135.089 28.6 135.089 29.08C135.089 29.5333 135.242 29.9133 135.549 30.22C135.842 30.5133 136.216 30.66 136.669 30.66C136.762 30.66 136.909 30.6467 137.109 30.62V31.78C136.949 31.7933 136.816 31.8 136.709 31.8C135.949 31.8 135.309 31.54 134.789 31.02C134.269 30.4867 134.009 29.84 134.009 29.08C134.009 28.32 134.276 27.68 134.809 27.16C135.329 26.64 135.969 26.38 136.729 26.38C137.422 26.38 138.002 26.5867 138.469 27C138.936 27.4 139.236 27.9467 139.369 28.64C139.062 28.76 138.736 28.8533 138.389 28.92ZM149.303 34.56C148.623 33.3733 147.79 32.78 146.803 32.78C146.07 32.78 145.463 33.02 144.983 33.5C144.503 33.98 144.263 34.5867 144.263 35.32C144.263 36.4133 144.79 37.2067 145.843 37.7C145.936 36.6467 146.396 35.8933 147.223 35.44C147.636 35.2133 148.076 35.1 148.543 35.1C149.01 35.1 149.39 35.2067 149.683 35.42C150.03 35.6733 150.203 36.02 150.203 36.46C150.203 36.74 150.03 37.12 149.683 37.6C149.016 38.52 148.056 38.98 146.803 38.98C145.736 38.98 144.856 38.64 144.163 37.96C143.483 37.2667 143.143 36.3867 143.143 35.32C143.143 34.2533 143.483 33.38 144.163 32.7C144.856 32.02 145.736 31.68 146.803 31.68C148.23 31.68 149.376 32.4667 150.243 34.04L149.303 34.56ZM148.443 36.16C147.95 36.16 147.536 36.32 147.203 36.64C146.87 36.96 146.696 37.3667 146.683 37.86H146.803C147.59 37.86 148.236 37.5867 148.743 37.04C148.823 36.9067 148.923 36.76 149.043 36.6C149.056 36.5333 149.063 36.48 149.063 36.44C149.063 36.2533 148.856 36.16 148.443 36.16ZM154.868 39C153.815 39 152.941 38.6533 152.248 37.96C151.568 37.2667 151.228 36.3933 151.228 35.34C151.228 34.2867 151.568 33.42 152.248 32.74C152.941 32.0467 153.815 31.7 154.868 31.7C155.935 31.7 156.808 32.04 157.488 32.72C158.181 33.4 158.528 34.2733 158.528 35.34C158.528 36.3933 158.181 37.2667 157.488 37.96C156.795 38.6533 155.921 39 154.868 39ZM154.868 32.8C154.415 32.8 153.981 32.92 153.568 33.16C154.115 33.76 154.388 34.4867 154.388 35.34C154.308 36.18 153.968 36.8733 153.368 37.42C153.821 37.74 154.321 37.9 154.868 37.9C155.601 37.9 156.215 37.66 156.708 37.18C157.201 36.6867 157.448 36.0733 157.448 35.34C157.448 34.6067 157.201 34 156.708 33.52C156.215 33.04 155.601 32.8 154.868 32.8ZM152.888 33.78C152.515 34.26 152.328 34.78 152.328 35.34C152.328 35.82 152.461 36.2733 152.728 36.7C153.115 36.3533 153.355 35.8867 153.448 35.3C153.395 34.7133 153.208 34.2067 152.888 33.78ZM166.153 44.4C165.793 44.4 165.613 44.1867 165.613 43.76V35.34C165.613 34.6067 165.373 34 164.893 33.52C164.413 33.0267 163.806 32.78 163.073 32.78C162.34 32.78 161.733 33.0267 161.253 33.52C160.773 34 160.533 34.6067 160.533 35.34V35.42C160.8 35.34 161.093 35.3 161.413 35.3C162.2 35.3 162.886 35.5267 163.473 35.98C164.113 36.4733 164.433 37.1 164.433 37.86C164.433 38.66 164.04 39.06 163.253 39.06C163.106 39.06 162.966 39.0467 162.833 39.02C161.766 38.9533 160.926 38.5933 160.313 37.94C159.713 37.2733 159.413 36.4067 159.413 35.34C159.413 34.2733 159.753 33.4 160.433 32.72C161.126 32.0267 162.006 31.68 163.073 31.68C164.14 31.68 165.02 32.0267 165.713 32.72C166.406 33.4 166.753 34.2733 166.753 35.34V43.3H167.473V44.4H166.153ZM163.313 37.7C163.313 37.1933 163.046 36.7933 162.513 36.5C162.046 36.2333 161.546 36.12 161.013 36.16L160.733 36.26C160.773 36.4067 160.846 36.5533 160.953 36.7C161.553 37.54 162.186 37.96 162.853 37.96C163.013 37.96 163.133 37.9267 163.213 37.86L163.313 37.78V37.7ZM171.698 39.04L171.738 44.38L170.618 44.4V39.04C169.645 39.0533 168.985 39.0067 168.638 38.9C167.945 38.6867 167.571 38.2533 167.518 37.6C167.398 36.2133 168.111 35.52 169.658 35.52C170.191 35.52 170.645 35.66 171.018 35.94C171.405 36.22 171.631 36.6133 171.698 37.12V37.94C172.871 37.94 173.505 37.7333 173.598 37.32C173.705 36.84 173.251 36.3667 172.238 35.9C171.798 35.7 171.091 35.3667 170.118 34.9C169.305 34.5133 168.898 33.96 168.898 33.24C168.898 32.2133 169.625 31.7 171.078 31.7C171.491 31.7 171.885 31.7667 172.258 31.9C172.911 32.14 173.238 32.52 173.238 33.04C173.238 33.1333 173.178 33.2333 173.058 33.34H171.958C172.038 33.2333 172.078 33.1533 172.078 33.1C172.078 33.06 172.065 33.0133 172.038 32.96C171.931 32.8933 171.611 32.84 171.078 32.8C170.371 32.7333 170.018 32.8933 170.018 33.28C170.018 33.5733 170.338 33.8533 170.978 34.12C171.498 34.3333 171.951 34.5267 172.338 34.7C173.965 35.42 174.778 36.2667 174.778 37.24C174.778 38.4133 173.751 39.0133 171.698 39.04ZM170.418 36.88C170.245 36.72 169.985 36.64 169.638 36.64C169.371 36.64 169.131 36.72 168.918 36.88C168.705 37.04 168.611 37.2467 168.638 37.5C168.665 37.8333 169.325 37.98 170.618 37.94C170.605 37.3533 170.538 37 170.418 36.88ZM172.803 28.92C172.776 28.9333 172.75 28.94 172.723 28.94C172.696 28.94 172.683 28.9267 172.683 28.9C172.643 28.4733 172.483 28.1267 172.203 27.86C171.91 27.5933 171.55 27.46 171.123 27.46C170.643 27.46 170.256 27.6133 169.963 27.92C169.656 28.2133 169.503 28.6 169.503 29.08C169.503 29.5333 169.656 29.9133 169.963 30.22C170.256 30.5133 170.63 30.66 171.083 30.66C171.176 30.66 171.323 30.6467 171.523 30.62V31.78C171.363 31.7933 171.23 31.8 171.123 31.8C170.363 31.8 169.723 31.54 169.203 31.02C168.683 30.4867 168.423 29.84 168.423 29.08C168.423 28.32 168.69 27.68 169.223 27.16C169.743 26.64 170.383 26.38 171.143 26.38C171.836 26.38 172.416 26.5867 172.883 27C173.35 27.4 173.65 27.9467 173.783 28.64C173.476 28.76 173.15 28.8533 172.803 28.92ZM177.743 39V32.28H178.843V39H177.743ZM176.023 39V32.28H177.123V39H176.023ZM186.15 25.0938L187.752 25.6406L185.604 30.6602L184.393 30.3477L186.15 25.0938ZM182.635 25.0938L184.236 25.6406L182.088 30.6602L180.877 30.3477L182.635 25.0938Z" fill="black" fill-opacity="0.75"/>
</svg>
