<svg width="290" height="34" viewBox="0 0 290 34" fill="none" xmlns="http://www.w3.org/2000/svg">
<path d="M12.6417 18.39H12.5397C12.4264 20.6567 11.0777 22.5153 8.4937 23.966L7.6437 22.368C9.63837 21.212 10.6357 19.784 10.6357 18.084C10.6357 16.8373 10.2277 15.806 9.4117 14.99C8.5957 14.174 7.56437 13.766 6.3177 13.766C5.07104 13.766 4.02837 14.174 3.1897 14.99C2.35104 15.806 1.9317 16.8373 1.9317 18.084C1.9317 19.8067 2.9857 21.2347 5.0937 22.368L4.1757 24L3.3597 23.558C1.16104 22.3567 0.0617031 20.532 0.0617031 18.084C0.0617031 16.2253 0.639703 14.7293 1.7957 13.596C2.9517 12.4627 4.45904 11.896 6.3177 11.896C8.58437 11.896 10.3637 12.8593 11.6557 14.786C12.925 12.8593 14.693 11.896 16.9597 11.896C18.7957 11.896 20.2917 12.474 21.4477 13.63C22.6264 14.7633 23.2157 16.248 23.2157 18.084C23.2157 19.8973 22.6264 21.3933 21.4477 22.572C20.269 23.728 18.773 24.306 16.9597 24.306C16.4157 24.306 15.8717 24.238 15.3277 24.102C15.373 23.694 15.4864 23.0707 15.6677 22.232C16.3024 22.3453 16.733 22.402 16.9597 22.402C18.229 22.402 19.2717 22.0053 20.0877 21.212C20.9264 20.396 21.3457 19.3533 21.3457 18.084C21.3457 16.86 20.915 15.84 20.0537 15.024C19.215 14.1853 18.1837 13.766 16.9597 13.766C15.6904 13.766 14.6477 14.174 13.8317 14.99C13.0384 15.7833 12.6417 16.8147 12.6417 18.084V18.39ZM17.2548 33.282C15.9628 33.282 14.8635 32.8287 13.9568 31.922C13.0501 31.0153 12.5968 29.916 12.5968 28.624C12.5968 27.3093 13.0501 26.1987 13.9568 25.292C14.8408 24.3853 15.9401 23.932 17.2548 23.932C18.5695 23.932 19.6801 24.3853 20.5868 25.292C21.4935 26.1987 21.9468 27.3093 21.9468 28.624C21.9468 29.1907 21.8561 29.7347 21.6748 30.256L24.4968 31.038V11.59H26.4008V32.092C26.4008 32.772 26.0381 33.112 25.3128 33.112C25.1315 33.112 24.9501 33.0893 24.7688 33.044L20.5528 31.922C19.6461 32.8287 18.5468 33.282 17.2548 33.282ZM17.2548 25.7C16.4161 25.7 15.7361 25.972 15.2148 26.516C14.6708 27.0827 14.3988 27.7853 14.3988 28.624C14.3988 29.44 14.6708 30.12 15.2148 30.664C15.7588 31.208 16.4388 31.48 17.2548 31.48C18.0935 31.48 18.7961 31.208 19.3628 30.664C19.9068 30.1427 20.1788 29.4627 20.1788 28.624C20.1788 27.7853 19.9068 27.0827 19.3628 26.516C18.7961 25.972 18.0935 25.7 17.2548 25.7ZM34.8591 24H33.1931C31.4024 24 30.2464 23.9207 29.7251 23.762C28.5464 23.3993 27.9118 22.6513 27.8211 21.518C27.6398 19.2287 28.8524 18.084 31.4591 18.084C33.5444 18.084 34.7004 18.9567 34.9271 20.702V22.164C36.9218 22.164 37.9984 21.824 38.1571 21.144C38.3158 20.3733 37.5451 19.5573 35.8451 18.696C35.3464 18.4467 34.1451 17.8687 32.2411 16.962C30.8584 16.3047 30.1671 15.3867 30.1671 14.208C30.1671 12.4627 31.4024 11.59 33.8731 11.59C34.6211 11.59 35.2898 11.7033 35.8791 11.93C36.9898 12.3607 37.5451 12.984 37.5451 13.8C37.5451 13.9813 37.4431 14.174 37.2391 14.378H35.3691C35.5051 14.1967 35.5731 14.0493 35.5731 13.936C35.5731 13.868 35.5504 13.7773 35.5051 13.664C35.3011 13.596 34.7571 13.528 33.8731 13.46C32.6718 13.3693 32.0711 13.6413 32.0711 14.276C32.0711 14.6387 32.7851 15.1487 34.2131 15.806L36.0151 16.622C38.7804 17.8687 40.1631 19.3193 40.1631 20.974C40.1631 22.9913 38.3951 24 34.8591 24ZM32.7511 20.362C32.4564 20.0673 32.0144 19.92 31.4251 19.92C30.9718 19.92 30.5638 20.0673 30.2011 20.362C29.8384 20.634 29.6798 20.9853 29.7251 21.416C29.7704 21.96 30.8924 22.2093 33.0911 22.164C33.0684 21.1667 32.9551 20.566 32.7511 20.362ZM36.8056 6.864C36.7603 6.88667 36.7149 6.898 36.6696 6.898C36.6243 6.898 36.6016 6.87533 36.6016 6.83C36.5336 6.10467 36.2616 5.51533 35.7856 5.062C35.2869 4.60867 34.6749 4.382 33.9496 4.382C33.1336 4.382 32.4763 4.64267 31.9776 5.164C31.4563 5.66267 31.1956 6.32 31.1956 7.136C31.1956 7.90667 31.4563 8.55267 31.9776 9.074C32.4763 9.57267 33.1109 9.822 33.8816 9.822C34.0403 9.822 34.2896 9.79933 34.6296 9.754V11.726C34.3576 11.7487 34.1309 11.76 33.9496 11.76C32.6576 11.76 31.5696 11.318 30.6856 10.434C29.8016 9.52733 29.3596 8.428 29.3596 7.136C29.3596 5.844 29.8129 4.756 30.7196 3.872C31.6036 2.988 32.6916 2.546 33.9836 2.546C35.1623 2.546 36.1483 2.89733 36.9416 3.6C37.7349 4.28 38.2449 5.20933 38.4716 6.388C37.9503 6.592 37.3949 6.75067 36.8056 6.864ZM33.9496 33.18C33.3603 33.18 33.0656 32.8173 33.0656 32.092V23.898H34.8676V31.31H36.7376V33.18H33.9496ZM47.8216 24C45.9856 24 44.4783 23.422 43.2996 22.266C42.1436 21.11 41.5656 19.614 41.5656 17.778C41.5656 15.2167 42.7669 13.3467 45.1696 12.168L46.3596 13.596C44.4103 14.7973 43.4356 16.1913 43.4356 17.778C43.4356 19.0473 43.8436 20.09 44.6596 20.906C45.4983 21.722 46.5523 22.13 47.8216 22.13C49.0456 22.13 50.0656 21.7107 50.8816 20.872C51.7203 20.0333 52.1396 19.002 52.1396 17.778C52.1396 16.214 51.1649 14.8313 49.2156 13.63L50.5076 12.236L51.0516 12.508C53.0009 13.4827 53.9756 15.2393 53.9756 17.778C53.9756 19.5913 53.3976 21.0873 52.2416 22.266C51.1083 23.422 49.6349 24 47.8216 24ZM50.6181 6.864C50.5728 6.88667 50.5274 6.898 50.4821 6.898C50.4368 6.898 50.4141 6.87533 50.4141 6.83C50.3461 6.10467 50.0741 5.51533 49.5981 5.062C49.0994 4.60867 48.4874 4.382 47.7621 4.382C46.9461 4.382 46.2888 4.64267 45.7901 5.164C45.2688 5.66267 45.0081 6.32 45.0081 7.136C45.0081 7.90667 45.2688 8.55267 45.7901 9.074C46.2888 9.57267 46.9234 9.822 47.6941 9.822C47.8528 9.822 48.1021 9.79933 48.4421 9.754V11.726C48.1701 11.7487 47.9434 11.76 47.7621 11.76C46.4701 11.76 45.3821 11.318 44.4981 10.434C43.6141 9.52733 43.1721 8.428 43.1721 7.136C43.1721 5.844 43.6254 4.756 44.5321 3.872C45.4161 2.988 46.5041 2.546 47.7961 2.546C48.9748 2.546 49.9608 2.89733 50.7541 3.6C51.5474 4.28 52.0574 5.20933 52.2841 6.388C51.7628 6.592 51.2074 6.75067 50.6181 6.864ZM72.2761 23.966C71.4374 23.966 70.5421 23.762 69.5901 23.354L70.3041 21.654C71.1654 21.926 71.8228 22.062 72.2761 22.062C73.5454 22.062 74.5881 21.6653 75.4041 20.872C76.2428 20.056 76.6621 19.0133 76.6621 17.744C76.6621 16.52 76.2314 15.5 75.3701 14.684C74.5314 13.8453 73.5001 13.426 72.2761 13.426C71.0068 13.426 69.9641 13.834 69.1481 14.65C68.3548 15.4433 67.9581 16.4747 67.9581 17.744V17.948L67.9241 18.016C67.8334 19.8293 67.2101 21.28 66.0541 22.368C64.9208 23.4333 63.4474 23.966 61.6341 23.966C59.8208 23.966 58.3248 23.388 57.1461 22.232C55.9674 21.0533 55.3781 19.5573 55.3781 17.744C55.3781 15.8853 55.9561 14.3893 57.1121 13.256C58.2681 12.1227 59.7754 11.556 61.6341 11.556C63.9008 11.556 65.6801 12.5193 66.9721 14.446C68.2414 12.5193 70.0094 11.556 72.2761 11.556C74.1121 11.556 75.6081 12.134 76.7641 13.29C77.9428 14.4233 78.5321 15.908 78.5321 17.744C78.5321 19.5573 77.9428 21.0533 76.7641 22.232C75.5854 23.388 74.0894 23.966 72.2761 23.966ZM61.6341 13.426C60.3874 13.426 59.3448 13.834 58.5061 14.65C57.6674 15.466 57.2481 16.4973 57.2481 17.744C57.2481 18.9907 57.6674 20.022 58.5061 20.838C59.3448 21.654 60.3874 22.062 61.6341 22.062C62.8808 22.062 63.9121 21.654 64.7281 20.838C65.5441 20.022 65.9521 18.9907 65.9521 17.744C65.9521 16.4973 65.5441 15.466 64.7281 14.65C63.9121 13.834 62.8808 13.426 61.6341 13.426ZM72.2992 11.76C71.0072 11.76 69.9192 11.318 69.0352 10.434C68.1512 9.52733 67.7092 8.428 67.7092 7.136C67.7092 5.844 68.1626 4.756 69.0692 3.872C69.9532 2.988 71.0412 2.546 72.3332 2.546C73.6252 2.546 74.7019 2.988 75.5632 3.872C76.4246 4.756 76.8552 5.844 76.8552 7.136C76.8552 8.38267 76.4132 9.47067 75.5292 10.4C74.6226 11.3067 73.5459 11.76 72.2992 11.76ZM72.2992 4.382C71.4832 4.382 70.8259 4.64267 70.3272 5.164C69.8059 5.66267 69.5452 6.32 69.5452 7.136C69.5452 7.90667 69.8059 8.55267 70.3272 9.074C70.8259 9.57267 71.4606 9.822 72.2312 9.822C73.0246 9.822 73.6819 9.57267 74.2032 9.074C74.7019 8.57533 74.9512 7.92933 74.9512 7.136C74.9512 6.34267 74.7132 5.68533 74.2372 5.164C73.7386 4.64267 73.0926 4.382 72.2992 4.382ZM72.2992 33.18C71.7099 33.18 71.4152 32.8173 71.4152 32.092V23.898H73.2172V31.31H75.0872V33.18H72.2992ZM76.2092 30.052C75.5519 30.052 74.9966 29.814 74.5432 29.338C74.0899 28.8847 73.8632 28.3293 73.8632 27.672C73.8632 26.992 74.0899 26.4253 74.5432 25.972C74.9739 25.5187 75.5292 25.292 76.2092 25.292C76.8892 25.292 77.4672 25.5187 77.9432 25.972C78.3966 26.4253 78.6232 26.992 78.6232 27.672C78.6232 28.352 78.3966 28.9187 77.9432 29.372C77.4672 29.8253 76.8892 30.052 76.2092 30.052ZM76.2092 26.924C75.7332 26.924 75.4952 27.1733 75.4952 27.672C75.4952 28.1707 75.7332 28.42 76.2092 28.42C76.7306 28.42 76.9912 28.1707 76.9912 27.672C76.9912 27.1733 76.7306 26.924 76.2092 26.924ZM97.4252 6.966C97.1986 5.24333 96.2692 4.382 94.6372 4.382C93.7986 4.382 93.1299 4.64267 92.6312 5.164C92.1326 5.66267 91.8832 6.33133 91.8832 7.17C91.8832 8.50733 92.5292 9.38 93.8212 9.788C94.7732 9.788 95.6572 10.026 96.4732 10.502C97.2892 10.9553 97.8559 11.6013 98.1732 12.44C98.3772 12.984 98.4792 13.8793 98.4792 15.126V24H96.6092V15.126C96.6092 14.1967 96.5639 13.5847 96.4732 13.29C96.3372 12.6327 95.7252 12.1453 94.6372 11.828H94.2632L94.2972 11.93L93.9572 11.794C92.8012 11.59 91.8606 11.0687 91.1352 10.23C90.4099 9.36867 90.0472 8.34867 90.0472 7.17C90.0472 5.85533 90.4892 4.756 91.3732 3.872C92.2572 2.988 93.3566 2.546 94.6712 2.546C95.8726 2.546 96.8812 2.89733 97.6972 3.6C98.5132 4.30267 99.0346 5.25467 99.2612 6.456L97.4252 6.966ZM93.3452 24V14.888C93.2999 14.6613 93.0619 14.548 92.6312 14.548C92.5179 14.5707 92.2459 14.6953 91.8152 14.922C91.9512 15.1487 92.0646 15.33 92.1552 15.466L92.0192 15.568C92.0192 16.2027 91.7019 16.7013 91.0672 17.064C90.5232 17.3813 89.9112 17.54 89.2312 17.54C88.4606 17.54 87.6899 17.3473 86.9192 16.962C85.6499 16.3273 84.8792 15.228 84.6072 13.664C82.7939 14.412 81.8872 15.7607 81.8872 17.71C81.8872 19.6593 82.7826 21.008 84.5732 21.756C84.8452 20.9173 85.0832 20.328 85.2872 19.988C86.1712 18.56 87.5199 17.846 89.3332 17.846C91.1239 17.846 92.0192 18.5033 92.0192 19.818C92.0192 20.158 91.7246 20.7473 91.1352 21.586C90.0019 23.1727 88.3699 23.966 86.2392 23.966C84.4259 23.966 82.9299 23.3767 81.7512 22.198C80.5726 21.0193 79.9832 19.5233 79.9832 17.71C79.9832 15.8967 80.5726 14.4007 81.7512 13.222C82.9299 12.0433 84.4259 11.454 86.2392 11.454C87.9392 11.454 89.4126 12.1227 90.6592 13.46C91.3619 12.916 92.0079 12.644 92.5972 12.644C94.0932 12.644 94.9772 13.3353 95.2492 14.718V24H93.3452ZM86.2392 13.392H86.0352V13.46C86.0352 14.5707 86.6586 15.296 87.9052 15.636C88.0639 15.7267 88.3246 15.772 88.6872 15.772C89.3899 15.772 89.7866 15.6587 89.8772 15.432C88.8572 14.072 87.6446 13.392 86.2392 13.392ZM90.0812 19.818C90.0812 19.6367 89.7412 19.546 89.0612 19.546C88.5852 19.546 88.0299 19.6707 87.3952 19.92C86.5339 20.532 86.0806 21.246 86.0352 22.062H86.2392C87.5992 22.062 88.7099 21.586 89.5712 20.634C89.7072 20.4527 89.8546 20.2147 90.0132 19.92L90.0812 19.886V19.818ZM106.126 24C104.29 24 102.783 23.422 101.604 22.266C100.448 21.11 99.8703 19.614 99.8703 17.778C99.8703 15.2167 101.072 13.3467 103.474 12.168L104.664 13.596C102.715 14.7973 101.74 16.1913 101.74 17.778C101.74 18.73 102.012 19.5913 102.556 20.362C103.554 19.274 104.744 18.7073 106.126 18.662C107.486 18.6167 108.722 19.0813 109.832 20.056C110.24 19.3533 110.444 18.594 110.444 17.778C110.444 16.214 109.47 14.8313 107.52 13.63L108.812 12.236L109.356 12.508C111.306 13.4827 112.28 15.2393 112.28 17.778C112.28 19.5913 111.702 21.0873 110.546 22.266C109.413 23.422 107.94 24 106.126 24ZM106.16 20.226C105.163 20.362 104.358 20.77 103.746 21.45C104.494 21.9033 105.288 22.13 106.126 22.13C107.056 22.13 107.928 21.8127 108.744 21.178C108.042 20.6113 107.18 20.294 106.16 20.226ZM119.871 24C118.08 24 116.595 23.4107 115.417 22.232C114.261 21.0533 113.683 19.5687 113.683 17.778C113.683 15.9873 114.261 14.514 115.417 13.358C116.595 12.1793 118.08 11.59 119.871 11.59C121.684 11.59 123.169 12.168 124.325 13.324C125.503 14.48 126.093 15.9647 126.093 17.778C126.093 19.5687 125.503 21.0533 124.325 22.232C123.146 23.4107 121.661 24 119.871 24ZM119.871 13.46C119.1 13.46 118.363 13.664 117.661 14.072C118.59 15.092 119.055 16.3273 119.055 17.778C118.919 19.206 118.341 20.3847 117.321 21.314C118.091 21.858 118.941 22.13 119.871 22.13C121.117 22.13 122.16 21.722 122.999 20.906C123.837 20.0673 124.257 19.0247 124.257 17.778C124.257 16.5313 123.837 15.5 122.999 14.684C122.16 13.868 121.117 13.46 119.871 13.46ZM116.505 15.126C115.87 15.942 115.553 16.826 115.553 17.778C115.553 18.594 115.779 19.3647 116.233 20.09C116.89 19.5007 117.298 18.7073 117.457 17.71C117.366 16.7127 117.049 15.8513 116.505 15.126ZM122.735 6.864C122.69 6.88667 122.645 6.898 122.599 6.898C122.554 6.898 122.531 6.87533 122.531 6.83C122.463 6.10467 122.191 5.51533 121.715 5.062C121.217 4.60867 120.605 4.382 119.879 4.382C119.063 4.382 118.406 4.64267 117.907 5.164C117.386 5.66267 117.125 6.32 117.125 7.136C117.125 7.90667 117.386 8.55267 117.907 9.074C118.406 9.57267 119.041 9.822 119.811 9.822C119.97 9.822 120.219 9.79933 120.559 9.754V11.726C120.287 11.7487 120.061 11.76 119.879 11.76C118.587 11.76 117.499 11.318 116.615 10.434C115.731 9.52733 115.289 8.428 115.289 7.136C115.289 5.844 115.743 4.756 116.649 3.872C117.533 2.988 118.621 2.546 119.913 2.546C121.092 2.546 122.078 2.89733 122.871 3.6C123.665 4.28 124.175 5.20933 124.401 6.388C123.88 6.592 123.325 6.75067 122.735 6.864ZM139.055 33.18C138.443 33.18 138.137 32.8173 138.137 32.092V17.778C138.137 16.5313 137.729 15.5 136.913 14.684C136.097 13.8453 135.066 13.426 133.819 13.426C132.573 13.426 131.541 13.8453 130.725 14.684C129.909 15.5 129.501 16.5313 129.501 17.778V17.914C129.955 17.778 130.453 17.71 130.997 17.71C132.335 17.71 133.502 18.0953 134.499 18.866C135.587 19.7047 136.131 20.77 136.131 22.062C136.131 23.422 135.463 24.102 134.125 24.102C133.876 24.102 133.638 24.0793 133.411 24.034C131.598 23.9207 130.17 23.3087 129.127 22.198C128.107 21.0647 127.597 19.5913 127.597 17.778C127.597 15.9647 128.175 14.48 129.331 13.324C130.51 12.1453 132.006 11.556 133.819 11.556C135.633 11.556 137.129 12.1453 138.307 13.324C139.486 14.48 140.075 15.9647 140.075 17.778V31.31H141.299V33.18H139.055ZM134.227 21.79C134.227 20.9287 133.774 20.2487 132.867 19.75C132.074 19.2967 131.224 19.104 130.317 19.172L129.841 19.342C129.909 19.5913 130.034 19.8407 130.215 20.09C131.235 21.518 132.312 22.232 133.445 22.232C133.717 22.232 133.921 22.1753 134.057 22.062L134.227 21.926V21.79ZM133.93 33.18H131.108V31.31H132.978V23.898H134.814V32.092C134.814 32.8173 134.519 33.18 133.93 33.18ZM153.038 20.804C152.607 21.756 151.848 22.5267 150.76 23.116C149.762 23.6827 148.708 23.966 147.598 23.966C145.784 23.966 144.288 23.388 143.11 22.232C141.954 21.0533 141.376 19.5573 141.376 17.744C141.376 15.9307 141.954 14.446 143.11 13.29C144.288 12.134 145.784 11.556 147.598 11.556C150.023 11.556 151.972 12.8933 153.446 15.568L151.848 16.452C150.692 14.4347 149.275 13.426 147.598 13.426C146.351 13.426 145.32 13.834 144.504 14.65C143.688 15.466 143.28 16.4973 143.28 17.744C143.28 18.9907 143.688 20.022 144.504 20.838C145.32 21.654 146.351 22.062 147.598 22.062C149.275 22.062 150.692 21.0533 151.848 19.036L153.446 19.92L153.038 20.804ZM150.642 7.872C150.6 7.89333 150.557 7.904 150.514 7.904C150.472 7.904 150.45 7.88267 150.45 7.84C150.386 7.15733 150.13 6.60267 149.682 6.176C149.213 5.74933 148.637 5.536 147.954 5.536C147.186 5.536 146.568 5.78133 146.098 6.272C145.608 6.74133 145.362 7.36 145.362 8.128C145.362 8.85333 145.608 9.46133 146.098 9.952C146.568 10.4213 147.165 10.656 147.89 10.656C148.04 10.656 148.274 10.6347 148.594 10.592V12.448C148.338 12.4693 148.125 12.48 147.954 12.48C146.738 12.48 145.714 12.064 144.882 11.232C144.05 10.3787 143.634 9.344 143.634 8.128C143.634 6.912 144.061 5.888 144.914 5.056C145.746 4.224 146.77 3.808 147.986 3.808C149.096 3.808 150.024 4.13867 150.77 4.8C151.517 5.44 151.997 6.31467 152.21 7.424C151.72 7.616 151.197 7.76533 150.642 7.872ZM165.467 30.25C164.613 29.3542 163.8 28.1771 163.029 26.7188C162.258 25.2812 161.623 23.6667 161.123 21.875C160.644 20.0833 160.404 18.2396 160.404 16.3438C160.404 14.9896 160.54 13.6354 160.811 12.2812C161.102 10.9271 161.488 9.625 161.967 8.375C162.446 7.125 162.988 5.98958 163.592 4.96875C164.196 3.94792 164.821 3.10417 165.467 2.4375H168.311C167.686 3.14583 167.081 4.04167 166.498 5.125C165.936 6.20833 165.436 7.39583 164.998 8.6875C164.561 9.97917 164.217 11.2917 163.967 12.625C163.717 13.9375 163.592 15.1771 163.592 16.3438C163.592 17.5938 163.717 18.8854 163.967 20.2188C164.217 21.5521 164.561 22.8438 164.998 24.0938C165.436 25.3646 165.936 26.5312 166.498 27.5938C167.081 28.6562 167.686 29.5417 168.311 30.25H165.467ZM172.998 24V3.0625H173.873L182.811 12.6562L191.592 3.0625H192.467V24H189.654V8.84375L183.186 15.75H182.436L175.811 8.84375V24H172.998ZM201.061 5.125C200.456 5.125 199.946 4.90625 199.529 4.46875C199.133 4.03125 198.936 3.54167 198.936 3C198.936 2.4375 199.133 1.94792 199.529 1.53125C199.946 1.09375 200.456 0.875 201.061 0.875C201.456 0.875 201.811 0.979167 202.123 1.1875C202.456 1.375 202.717 1.63542 202.904 1.96875C203.092 2.28125 203.186 2.625 203.186 3C203.186 3.35417 203.092 3.69792 202.904 4.03125C202.717 4.36458 202.456 4.63542 202.123 4.84375C201.811 5.03125 201.456 5.125 201.061 5.125ZM200.092 24V8.375H202.654V24H200.092ZM197.623 10.7812V8.375H202.654V10.7812H197.623ZM211.904 24.4688C211.3 24.4688 210.665 24.3854 209.998 24.2188C209.352 24.0729 208.769 23.8958 208.248 23.6875C207.727 23.4583 207.342 23.2604 207.092 23.0938V20.3438C207.383 20.5521 207.79 20.7917 208.311 21.0625C208.852 21.3125 209.425 21.5312 210.029 21.7188C210.633 21.8854 211.196 21.9688 211.717 21.9688C212.696 21.9688 213.467 21.75 214.029 21.3125C214.613 20.875 214.904 20.3333 214.904 19.6875C214.904 19.1875 214.706 18.7917 214.311 18.5C213.936 18.2083 213.383 17.9271 212.654 17.6562L210.342 16.8125C209.133 16.3542 208.331 15.7812 207.936 15.0938C207.54 14.3854 207.342 13.5833 207.342 12.6875C207.342 11.7917 207.561 11 207.998 10.3125C208.456 9.625 209.102 9.08333 209.936 8.6875C210.769 8.27083 211.738 8.0625 212.842 8.0625C213.758 8.0625 214.613 8.19792 215.404 8.46875C216.196 8.71875 216.769 8.97917 217.123 9.25V12C216.686 11.6667 216.092 11.3438 215.342 11.0312C214.592 10.7188 213.821 10.5625 213.029 10.5625C212.05 10.5625 211.311 10.7917 210.811 11.25C210.331 11.7083 210.092 12.1875 210.092 12.6875C210.092 13.0833 210.227 13.4896 210.498 13.9062C210.79 14.3021 211.29 14.625 211.998 14.875L214.623 15.8125C215.644 16.1667 216.404 16.6771 216.904 17.3438C217.404 18.0104 217.654 18.7917 217.654 19.6875C217.654 20.5625 217.404 21.3646 216.904 22.0938C216.425 22.8229 215.748 23.4062 214.873 23.8438C214.019 24.2604 213.029 24.4688 211.904 24.4688ZM225.279 24.4688C224.675 24.4688 224.04 24.3854 223.373 24.2188C222.727 24.0729 222.144 23.8958 221.623 23.6875C221.102 23.4583 220.717 23.2604 220.467 23.0938V20.3438C220.758 20.5521 221.165 20.7917 221.686 21.0625C222.227 21.3125 222.8 21.5312 223.404 21.7188C224.008 21.8854 224.571 21.9688 225.092 21.9688C226.071 21.9688 226.842 21.75 227.404 21.3125C227.988 20.875 228.279 20.3333 228.279 19.6875C228.279 19.1875 228.081 18.7917 227.686 18.5C227.311 18.2083 226.758 17.9271 226.029 17.6562L223.717 16.8125C222.508 16.3542 221.706 15.7812 221.311 15.0938C220.915 14.3854 220.717 13.5833 220.717 12.6875C220.717 11.7917 220.936 11 221.373 10.3125C221.831 9.625 222.477 9.08333 223.311 8.6875C224.144 8.27083 225.113 8.0625 226.217 8.0625C227.133 8.0625 227.988 8.19792 228.779 8.46875C229.571 8.71875 230.144 8.97917 230.498 9.25V12C230.061 11.6667 229.467 11.3438 228.717 11.0312C227.967 10.7188 227.196 10.5625 226.404 10.5625C225.425 10.5625 224.686 10.7917 224.186 11.25C223.706 11.7083 223.467 12.1875 223.467 12.6875C223.467 13.0833 223.602 13.4896 223.873 13.9062C224.165 14.3021 224.665 14.625 225.373 14.875L227.998 15.8125C229.019 16.1667 229.779 16.6771 230.279 17.3438C230.779 18.0104 231.029 18.7917 231.029 19.6875C231.029 20.5625 230.779 21.3646 230.279 22.0938C229.8 22.8229 229.123 23.4062 228.248 23.8438C227.394 24.2604 226.404 24.4688 225.279 24.4688ZM237.436 5.125C236.831 5.125 236.321 4.90625 235.904 4.46875C235.508 4.03125 235.311 3.54167 235.311 3C235.311 2.4375 235.508 1.94792 235.904 1.53125C236.321 1.09375 236.831 0.875 237.436 0.875C237.831 0.875 238.186 0.979167 238.498 1.1875C238.831 1.375 239.092 1.63542 239.279 1.96875C239.467 2.28125 239.561 2.625 239.561 3C239.561 3.35417 239.467 3.69792 239.279 4.03125C239.092 4.36458 238.831 4.63542 238.498 4.84375C238.186 5.03125 237.831 5.125 237.436 5.125ZM236.467 24V8.375H239.029V24H236.467ZM233.998 10.7812V8.375H239.029V10.7812H233.998ZM251.623 24.4688C250.436 24.4688 249.342 24.2604 248.342 23.8438C247.363 23.4062 246.498 22.8125 245.748 22.0625C245.019 21.2917 244.456 20.4167 244.061 19.4375C243.665 18.4375 243.467 17.3854 243.467 16.2812C243.467 15.1771 243.665 14.1354 244.061 13.1562C244.456 12.1562 245.019 11.2812 245.748 10.5312C246.498 9.76042 247.363 9.15625 248.342 8.71875C249.342 8.28125 250.436 8.0625 251.623 8.0625C252.811 8.0625 253.894 8.28125 254.873 8.71875C255.873 9.15625 256.738 9.76042 257.467 10.5312C258.217 11.2812 258.79 12.1562 259.186 13.1562C259.581 14.1354 259.779 15.1771 259.779 16.2812C259.779 17.3854 259.581 18.4375 259.186 19.4375C258.79 20.4167 258.217 21.2917 257.467 22.0625C256.738 22.8125 255.873 23.4062 254.873 23.8438C253.894 24.2604 252.811 24.4688 251.623 24.4688ZM251.623 21.9688C252.748 21.9688 253.717 21.7083 254.529 21.1875C255.363 20.6458 255.998 19.9479 256.436 19.0938C256.894 18.2188 257.123 17.2812 257.123 16.2812C257.123 15.2604 256.894 14.3229 256.436 13.4688C255.998 12.5938 255.363 11.8958 254.529 11.375C253.717 10.8333 252.748 10.5625 251.623 10.5625C250.519 10.5625 249.55 10.8333 248.717 11.375C247.883 11.8958 247.238 12.5938 246.779 13.4688C246.342 14.3229 246.123 15.2604 246.123 16.2812C246.123 17.2812 246.342 18.2188 246.779 19.0938C247.238 19.9479 247.883 20.6458 248.717 21.1875C249.55 21.7083 250.519 21.9688 251.623 21.9688ZM274.873 24L274.842 14.7188C274.842 13.3646 274.54 12.3333 273.936 11.625C273.352 10.9167 272.446 10.5625 271.217 10.5625C270.383 10.5625 269.55 10.875 268.717 11.5C267.904 12.1042 267.186 12.8125 266.561 13.625V10.8438C266.894 10.4271 267.321 10.0104 267.842 9.59375C268.363 9.15625 268.946 8.79167 269.592 8.5C270.258 8.20833 270.946 8.0625 271.654 8.0625C272.717 8.0625 273.686 8.30208 274.561 8.78125C275.436 9.23958 276.133 9.94792 276.654 10.9062C277.175 11.8438 277.436 13.0312 277.436 14.4688V24H274.873ZM263.998 24V8.375H266.561V24H263.998ZM284.654 30.25H281.811C282.436 29.5417 283.029 28.6562 283.592 27.5938C284.175 26.5312 284.686 25.3646 285.123 24.0938C285.561 22.8438 285.904 21.5521 286.154 20.2188C286.404 18.8854 286.529 17.5938 286.529 16.3438C286.529 15.1771 286.404 13.9375 286.154 12.625C285.904 11.2917 285.561 9.97917 285.123 8.6875C284.686 7.39583 284.175 6.20833 283.592 5.125C283.029 4.04167 282.436 3.14583 281.811 2.4375H284.654C285.3 3.10417 285.925 3.94792 286.529 4.96875C287.133 5.98958 287.675 7.125 288.154 8.375C288.633 9.625 289.008 10.9271 289.279 12.2812C289.571 13.6354 289.717 14.9896 289.717 16.3438C289.717 18.2396 289.467 20.0833 288.967 21.875C288.488 23.6667 287.863 25.2812 287.092 26.7188C286.321 28.1771 285.508 29.3542 284.654 30.25Z" fill="black"/>
</svg>
