<svg width="120" height="47" viewBox="0 0 120 47" fill="none" xmlns="http://www.w3.org/2000/svg">
<path d="M7.39181 4.9C7.39181 5.626 6.86381 6.088 6.11581 6.088C5.27981 6.088 4.68581 5.384 4.68581 4.306C4.68581 2.326 6.31381 0.632 7.01781 0.257999L7.56781 0.807999C6.86381 1.424 6.15981 2.15 6.09381 3.514C6.81981 3.624 7.39181 4.262 7.39181 4.9ZM3.56381 4.9C3.56381 5.626 3.03581 6.088 2.28781 6.088C1.45181 6.088 0.857813 5.384 0.857813 4.306C0.857813 2.326 2.48581 0.632 3.18981 0.257999L3.73981 0.807999C3.03581 1.424 2.33181 2.15 2.26581 3.514C2.99181 3.624 3.56381 4.262 3.56381 4.9ZM12.5023 13.766V13.7H12.3923L12.4143 12.512H13.1403C14.1963 12.512 14.7757 12.1307 14.8783 11.368C14.761 10.576 13.8883 10.18 12.2603 10.18C11.1163 10.18 10.3683 10.5173 10.0163 11.192C9.89901 11.4267 9.97234 11.544 10.2363 11.544H10.4783L10.3903 12.666H10.2363C9.22434 12.666 8.71834 12.1967 8.71834 11.258C8.71834 10.4367 9.12901 9.828 9.95034 9.432C10.581 9.124 11.351 8.97 12.2603 8.97C13.859 8.97 15.003 9.40267 15.6923 10.268C16.499 9.41733 17.489 8.992 18.6623 8.992C19.6157 8.992 20.4737 9.30733 21.2363 9.938C22.1897 10.7153 22.6663 11.742 22.6663 13.018C22.6663 13.9713 22.351 14.8293 21.7203 15.592C20.9137 16.56 19.8943 17.044 18.6623 17.044C18.2223 17.044 17.7823 16.978 17.3423 16.846C17.1517 16.7873 17.0563 16.626 17.0563 16.362C17.0563 15.8487 17.071 15.548 17.1003 15.46C17.247 15.0053 17.4157 14.6973 17.6063 14.536C18.281 13.9493 18.9263 13.656 19.5423 13.656C20.2023 13.656 20.745 13.832 21.1703 14.184C21.361 13.832 21.4563 13.4433 21.4563 13.018C21.4563 12.2113 21.1923 11.5367 20.6643 10.994C20.1363 10.4513 19.469 10.18 18.6623 10.18C17.489 10.18 16.631 10.7153 16.0883 11.786C15.9857 12.27 15.7143 12.6953 15.2743 13.062C15.9343 13.4873 16.2277 14.074 16.1543 14.822C16.0077 16.274 14.7097 17 12.2603 17C11.483 17 10.7643 16.868 10.1043 16.604C9.23901 16.2667 8.78434 15.768 8.74034 15.108L8.71834 14.734L9.92834 14.448C9.94301 14.6533 9.97234 14.888 10.0163 15.152C10.119 15.3427 10.4637 15.504 11.0503 15.636C11.505 15.7387 11.9083 15.79 12.2603 15.79C13.9763 15.79 14.8637 15.4233 14.9223 14.69C14.9663 14.0447 14.321 13.722 12.9863 13.722C12.8837 13.7073 12.7223 13.722 12.5023 13.766ZM19.6303 14.558C19.2343 14.558 18.853 14.7927 18.4863 15.262C18.4277 15.3353 18.3543 15.5187 18.2663 15.812C18.4277 15.8267 18.5597 15.834 18.6623 15.834C19.337 15.834 20.0337 15.5113 20.7523 14.866C20.4883 14.6607 20.1143 14.558 19.6303 14.558ZM27.632 16.978C26.2533 16.978 25.1973 16.472 24.464 15.46C24.0973 14.9467 23.914 14.5287 23.914 14.206C23.914 13.7367 24.1047 13.3627 24.486 13.084C24.8233 12.8347 25.234 12.71 25.718 12.71C26.8033 12.71 27.632 13.1793 28.204 14.118C28.4827 14.5727 28.6513 15.0567 28.71 15.57C29.8687 15.0273 30.448 14.1547 30.448 12.952C30.448 12.1453 30.1767 11.478 29.634 10.95C29.106 10.422 28.4387 10.158 27.632 10.158C26.5613 10.158 25.652 10.8107 24.904 12.116L23.826 11.544C24.8087 9.81333 26.0773 8.948 27.632 8.948C28.8053 8.948 29.7733 9.322 30.536 10.07C31.2987 10.818 31.68 11.7787 31.68 12.952C31.68 14.1253 31.2987 15.0933 30.536 15.856C29.7733 16.604 28.8053 16.978 27.632 16.978ZM25.828 13.876C25.3733 13.876 25.146 13.9787 25.146 14.184C25.146 14.228 25.1607 14.2867 25.19 14.36C25.322 14.536 25.432 14.6973 25.52 14.844C26.0627 15.4453 26.7667 15.746 27.632 15.746H27.786C27.7713 15.1887 27.5807 14.7413 27.214 14.404C26.8473 14.052 26.3853 13.876 25.828 13.876ZM27.5715 22.94C27.1902 22.94 26.9995 22.7053 26.9995 22.236V16.934H28.1655V21.73H29.3755V22.94H27.5715ZM36.5475 17C35.3595 17 34.3842 16.626 33.6215 15.878C32.8735 15.13 32.4995 14.162 32.4995 12.974C32.4995 11.3167 33.2768 10.1067 34.8315 9.344L35.6015 10.268C34.3402 11.0453 33.7095 11.9473 33.7095 12.974C33.7095 13.7953 33.9735 14.47 34.5015 14.998C35.0442 15.526 35.7262 15.79 36.5475 15.79C37.3395 15.79 37.9995 15.5187 38.5275 14.976C39.0702 14.4333 39.3415 13.766 39.3415 12.974C39.3415 11.962 38.7108 11.0673 37.4495 10.29L38.2855 9.388L38.6375 9.564C39.8988 10.1947 40.5295 11.3313 40.5295 12.974C40.5295 14.1473 40.1555 15.1153 39.4075 15.878C38.6742 16.626 37.7208 17 36.5475 17ZM38.907 8.42L32.945 5.648L33.539 4.372L39.567 7.1L38.907 8.42ZM58.6554 22.94H45.6534C44.2894 22.94 43.6074 22.2653 43.6074 20.916L43.5854 5.12C43.5854 3.77067 44.2748 3.096 45.6534 3.096H54.6074V4.306H45.6534C45.1401 4.306 44.8834 4.614 44.8834 5.23V20.872C44.8834 21.4293 45.1401 21.708 45.6534 21.708H58.6774C59.1614 21.708 59.4034 21.5247 59.4034 21.158V13.392H60.6794V21.136C60.6794 22.3387 60.0048 22.94 58.6554 22.94ZM53.7879 13.37H53.7219C53.6486 14.8367 52.7759 16.0393 51.1039 16.978L50.5539 15.944C51.8446 15.196 52.4899 14.272 52.4899 13.172C52.4899 12.3653 52.2259 11.698 51.6979 11.17C51.1699 10.642 50.5026 10.378 49.6959 10.378C48.8893 10.378 48.2146 10.642 47.6719 11.17C47.1293 11.698 46.8579 12.3653 46.8579 13.172C46.8579 14.2867 47.5399 15.2107 48.9039 15.944L48.3099 17L47.7819 16.714C46.3593 15.9367 45.6479 14.756 45.6479 13.172C45.6479 11.9693 46.0219 11.0013 46.7699 10.268C47.5179 9.53467 48.4933 9.168 49.6959 9.168C51.1626 9.168 52.3139 9.79133 53.1499 11.038C53.9713 9.79133 55.1153 9.168 56.5819 9.168C57.7699 9.168 58.7379 9.542 59.4859 10.29C60.2486 11.0233 60.6299 11.984 60.6299 13.172C60.6299 14.3453 60.2486 15.3133 59.4859 16.076C58.7233 16.824 57.7553 17.198 56.5819 17.198C56.2299 17.198 55.8779 17.154 55.5259 17.066C55.5553 16.802 55.6286 16.3987 55.7459 15.856C56.1566 15.9293 56.4353 15.966 56.5819 15.966C57.4033 15.966 58.0779 15.7093 58.6059 15.196C59.1486 14.668 59.4199 13.9933 59.4199 13.172C59.4199 12.38 59.1413 11.72 58.5839 11.192C58.0413 10.6493 57.3739 10.378 56.5819 10.378C55.7606 10.378 55.0859 10.642 54.5579 11.17C54.0446 11.6833 53.7879 12.3507 53.7879 13.172V13.37ZM56.5969 9.08C55.7609 9.08 55.0569 8.794 54.4849 8.222C53.9129 7.63533 53.6269 6.924 53.6269 6.088C53.6269 5.252 53.9202 4.548 54.5069 3.976C55.0789 3.404 55.7829 3.118 56.6189 3.118C57.4549 3.118 58.1515 3.404 58.7089 3.976C59.2662 4.548 59.5449 5.252 59.5449 6.088C59.5449 6.89467 59.2589 7.59867 58.6869 8.2C58.1002 8.78667 57.4035 9.08 56.5969 9.08ZM56.5969 4.306C56.0689 4.306 55.6435 4.47467 55.3209 4.812C54.9835 5.13467 54.8149 5.56 54.8149 6.088C54.8149 6.58667 54.9835 7.00467 55.3209 7.342C55.6435 7.66467 56.0542 7.826 56.5529 7.826C57.0662 7.826 57.4915 7.66467 57.8289 7.342C58.1515 7.01933 58.3129 6.60133 58.3129 6.088C58.3129 5.57467 58.1589 5.14933 57.8509 4.812C57.5282 4.47467 57.1102 4.306 56.5969 4.306ZM62.0969 22.94C61.7302 22.94 61.5469 22.7053 61.5469 22.236V8.97H62.7129V21.73H63.7029V22.94H62.0969ZM74.4999 16.978C73.9572 16.978 73.3779 16.846 72.7619 16.582L73.2239 15.482C73.7812 15.658 74.2066 15.746 74.4999 15.746C75.3212 15.746 75.9959 15.4893 76.5239 14.976C77.0666 14.448 77.3379 13.7733 77.3379 12.952C77.3379 12.16 77.0592 11.5 76.5019 10.972C75.9592 10.4293 75.2919 10.158 74.4999 10.158C73.6786 10.158 73.0039 10.422 72.4759 10.95C71.9626 11.4633 71.7059 12.1307 71.7059 12.952V13.084L71.6839 13.128C71.6252 14.3013 71.2219 15.24 70.4739 15.944C69.7406 16.6333 68.7872 16.978 67.6139 16.978C66.4406 16.978 65.4726 16.604 64.7099 15.856C63.9472 15.0933 63.5659 14.1253 63.5659 12.952C63.5659 11.7493 63.9399 10.7813 64.6879 10.048C65.4359 9.31467 66.4112 8.948 67.6139 8.948C69.0806 8.948 70.2319 9.57133 71.0679 10.818C71.8892 9.57133 73.0332 8.948 74.4999 8.948C75.6879 8.948 76.6559 9.322 77.4039 10.07C78.1666 10.8033 78.5479 11.764 78.5479 12.952C78.5479 14.1253 78.1666 15.0933 77.4039 15.856C76.6412 16.604 75.6732 16.978 74.4999 16.978ZM67.6139 10.158C66.8072 10.158 66.1326 10.422 65.5899 10.95C65.0472 11.478 64.7759 12.1453 64.7759 12.952C64.7759 13.7587 65.0472 14.426 65.5899 14.954C66.1326 15.482 66.8072 15.746 67.6139 15.746C68.4206 15.746 69.0879 15.482 69.6159 14.954C70.1439 14.426 70.4079 13.7587 70.4079 12.952C70.4079 12.1453 70.1439 11.478 69.6159 10.95C69.0879 10.422 68.4206 10.158 67.6139 10.158ZM87.0328 14.932C86.7542 15.548 86.2628 16.0467 85.5588 16.428C84.9135 16.7947 84.2315 16.978 83.5128 16.978C82.3395 16.978 81.3715 16.604 80.6088 15.856C79.8608 15.0933 79.4868 14.1253 79.4868 12.952C79.4868 11.7787 79.8608 10.818 80.6088 10.07C81.3715 9.322 82.3395 8.948 83.5128 8.948C85.0822 8.948 86.3435 9.81333 87.2968 11.544L86.2628 12.116C85.5148 10.8107 84.5982 10.158 83.5128 10.158C82.7062 10.158 82.0388 10.422 81.5108 10.95C80.9828 11.478 80.7188 12.1453 80.7188 12.952C80.7188 13.7587 80.9828 14.426 81.5108 14.954C82.0388 15.482 82.7062 15.746 83.5128 15.746C84.5982 15.746 85.5148 15.0933 86.2628 13.788L87.2968 14.36L87.0328 14.932ZM85.3003 5.912C85.271 5.92667 85.2417 5.934 85.2123 5.934C85.183 5.934 85.1683 5.91933 85.1683 5.89C85.1243 5.42067 84.9483 5.03933 84.6403 4.746C84.3177 4.45267 83.9217 4.306 83.4523 4.306C82.9243 4.306 82.499 4.47467 82.1763 4.812C81.839 5.13467 81.6703 5.56 81.6703 6.088C81.6703 6.58667 81.839 7.00467 82.1763 7.342C82.499 7.66467 82.9097 7.826 83.4083 7.826C83.511 7.826 83.6723 7.81133 83.8923 7.782V9.058C83.7163 9.07267 83.5697 9.08 83.4523 9.08C82.6163 9.08 81.9123 8.794 81.3403 8.222C80.7683 7.63533 80.4823 6.924 80.4823 6.088C80.4823 5.252 80.7757 4.548 81.3623 3.976C81.9343 3.404 82.6383 3.118 83.4743 3.118C84.237 3.118 84.875 3.34533 85.3883 3.8C85.9017 4.24 86.2317 4.84133 86.3783 5.604C86.041 5.736 85.6817 5.83867 85.3003 5.912ZM92.4283 17C91.2403 17 90.265 16.626 89.5023 15.878C88.7543 15.13 88.3803 14.162 88.3803 12.974C88.3803 11.3167 89.1577 10.1067 90.7123 9.344L91.4823 10.268C90.221 11.0453 89.5903 11.9473 89.5903 12.974C89.5903 13.59 89.7663 14.1473 90.1183 14.646C90.7637 13.942 91.5337 13.5753 92.4283 13.546C93.3083 13.5167 94.1077 13.8173 94.8263 14.448C95.0903 13.9933 95.2223 13.502 95.2223 12.974C95.2223 11.962 94.5917 11.0673 93.3303 10.29L94.1663 9.388L94.5183 9.564C95.7797 10.1947 96.4103 11.3313 96.4103 12.974C96.4103 14.1473 96.0363 15.1153 95.2883 15.878C94.555 16.626 93.6017 17 92.4283 17ZM92.4503 14.558C91.805 14.646 91.2843 14.91 90.8883 15.35C91.3723 15.6433 91.8857 15.79 92.4283 15.79C93.0297 15.79 93.5943 15.5847 94.1223 15.174C93.6677 14.8073 93.1103 14.602 92.4503 14.558ZM92.5438 22.94H90.7178V21.73H91.9278V16.934H93.1158V22.236C93.1158 22.7053 92.9252 22.94 92.5438 22.94ZM99.3858 16.978C99.1512 16.978 98.7845 16.9193 98.2858 16.802V15.548C98.7552 15.68 99.1218 15.746 99.3858 15.746C100.207 15.746 100.875 15.4893 101.388 14.976C101.916 14.448 102.18 13.7733 102.18 12.952C102.18 12.16 101.909 11.5 101.366 10.972C100.838 10.4293 100.178 10.158 99.3858 10.158C98.0952 10.158 97.2005 10.8693 96.7018 12.292C96.6872 12.3653 96.6212 12.5413 96.5038 12.82L95.4258 12.182L95.5138 11.874C96.0712 9.92333 97.3618 8.948 99.3858 8.948C100.545 8.948 101.505 9.32933 102.268 10.092C103.031 10.84 103.412 11.7933 103.412 12.952C103.412 14.14 103.038 15.108 102.29 15.856C101.542 16.604 100.574 16.978 99.3858 16.978ZM115.277 16.978C113.811 16.978 112.667 16.3473 111.845 15.086C111.009 16.3473 109.858 16.978 108.391 16.978C107.218 16.978 106.25 16.604 105.487 15.856C104.725 15.0933 104.343 14.1253 104.343 12.952C104.343 11.368 105.055 10.1873 106.477 9.41L107.005 9.124L107.599 10.18C106.235 10.928 105.553 11.852 105.553 12.952C105.553 13.7587 105.825 14.426 106.367 14.954C106.91 15.482 107.585 15.746 108.391 15.746C109.198 15.746 109.865 15.482 110.393 14.954C110.921 14.426 111.185 13.7587 111.185 12.952C111.185 11.8667 110.54 10.9427 109.249 10.18L109.799 9.168C111.471 10.1067 112.344 11.302 112.417 12.754H112.483V12.952C112.483 13.7587 112.747 14.426 113.275 14.954C113.803 15.482 114.471 15.746 115.277 15.746C116.099 15.746 116.773 15.4893 117.301 14.976C117.844 14.448 118.115 13.7733 118.115 12.952C118.115 12.16 117.837 11.5 117.279 10.972C116.737 10.4293 116.069 10.158 115.277 10.158C115.131 10.158 114.852 10.202 114.441 10.29C114.324 9.73267 114.251 9.32933 114.221 9.08C114.573 8.992 114.925 8.948 115.277 8.948C116.465 8.948 117.433 9.322 118.181 10.07C118.944 10.8033 119.325 11.764 119.325 12.952C119.325 14.1253 118.944 15.0933 118.181 15.856C117.419 16.604 116.451 16.978 115.277 16.978ZM116.304 22.94C115.938 22.94 115.754 22.7053 115.754 22.236V16.934H116.964V21.73H118.064V22.94H116.304ZM113.84 22.94V16.934H115.028V22.94H113.84ZM20.7984 41C19.6397 41 18.6791 40.6187 17.9164 39.856C17.1684 39.0933 16.7944 38.1327 16.7944 36.974C16.7944 35.8153 17.1684 34.862 17.9164 34.114C18.6791 33.3513 19.6397 32.97 20.7984 32.97C21.9717 32.97 22.9324 33.344 23.6804 34.092C24.4431 34.84 24.8244 35.8007 24.8244 36.974C24.8244 38.1327 24.4431 39.0933 23.6804 39.856C22.9177 40.6187 21.9571 41 20.7984 41ZM20.7984 34.18C20.2997 34.18 19.8231 34.312 19.3684 34.576C19.9697 35.236 20.2704 36.0353 20.2704 36.974C20.1824 37.898 19.8084 38.6607 19.1484 39.262C19.6471 39.614 20.1971 39.79 20.7984 39.79C21.6051 39.79 22.2797 39.526 22.8224 38.998C23.3651 38.4553 23.6364 37.7807 23.6364 36.974C23.6364 36.1673 23.3651 35.5 22.8224 34.972C22.2797 34.444 21.6051 34.18 20.7984 34.18ZM18.6204 35.258C18.2097 35.786 18.0044 36.358 18.0044 36.974C18.0044 37.502 18.1511 38.0007 18.4444 38.47C18.8697 38.0887 19.1337 37.5753 19.2364 36.93C19.1777 36.2847 18.9724 35.7273 18.6204 35.258ZM20.8039 33.08C19.9679 33.08 19.2639 32.794 18.6919 32.222C18.1199 31.6353 17.8339 30.924 17.8339 30.088C17.8339 29.252 18.1272 28.548 18.7139 27.976C19.2859 27.404 19.9899 27.118 20.8259 27.118C21.6619 27.118 22.3586 27.404 22.9159 27.976C23.4732 28.548 23.7519 29.252 23.7519 30.088C23.7519 30.8947 23.4659 31.5987 22.8939 32.2C22.3072 32.7867 21.6106 33.08 20.8039 33.08ZM20.8039 28.306C20.2759 28.306 19.8506 28.4747 19.5279 28.812C19.1906 29.1347 19.0219 29.56 19.0219 30.088C19.0219 30.2347 19.0366 30.4033 19.0659 30.594C19.5646 30.2127 20.1146 29.9927 20.7159 29.934C21.3172 29.934 21.9039 30.1247 22.4759 30.506C22.5052 30.33 22.5199 30.1907 22.5199 30.088C22.5199 29.5747 22.3659 29.1493 22.0579 28.812C21.7352 28.4747 21.3172 28.306 20.8039 28.306ZM20.7379 30.902C20.3126 30.946 19.9312 31.1073 19.5939 31.386C19.9459 31.6793 20.3346 31.826 20.7599 31.826C21.2292 31.826 21.6472 31.65 22.0139 31.298C21.6472 31.0487 21.2219 30.9167 20.7379 30.902ZM27.2719 36.468C26.8172 36.468 26.4432 36.3213 26.1499 36.028C25.8712 35.7347 25.7319 35.3607 25.7319 34.906C25.7319 34.466 25.8786 34.0993 26.1719 33.806C26.4652 33.498 26.8319 33.344 27.2719 33.344C27.7119 33.344 28.0786 33.498 28.3719 33.806C28.6652 34.0993 28.8119 34.466 28.8119 34.906C28.8119 35.3607 28.6652 35.7347 28.3719 36.028C28.0932 36.3213 27.7266 36.468 27.2719 36.468ZM27.2719 40.714C26.8172 40.714 26.4432 40.5673 26.1499 40.274C25.8712 39.9807 25.7319 39.6067 25.7319 39.152C25.7319 38.712 25.8786 38.3453 26.1719 38.052C26.4652 37.744 26.8319 37.59 27.2719 37.59C27.7266 37.59 28.0932 37.7367 28.3719 38.03C28.6652 38.3233 28.8119 38.6973 28.8119 39.152C28.8119 39.6067 28.6652 39.9807 28.3719 40.274C28.0932 40.5673 27.7266 40.714 27.2719 40.714ZM27.2719 34.4C26.9639 34.4 26.8099 34.5687 26.8099 34.906C26.8099 35.214 26.9639 35.368 27.2719 35.368C27.6092 35.368 27.7779 35.214 27.7779 34.906C27.7779 34.5687 27.6092 34.4 27.2719 34.4ZM27.2719 38.668C26.9639 38.668 26.8099 38.8293 26.8099 39.152C26.8099 39.4893 26.9639 39.658 27.2719 39.658C27.6092 39.658 27.7779 39.4893 27.7779 39.152C27.7779 38.8293 27.6092 38.668 27.2719 38.668ZM34.327 41.044L34.371 46.918L33.139 46.94V41.044C32.0684 41.0587 31.3424 41.0073 30.961 40.89C30.1984 40.6553 29.7877 40.1787 29.729 39.46C29.597 37.9347 30.3817 37.172 32.083 37.172C32.6697 37.172 33.1684 37.326 33.579 37.634C34.0044 37.942 34.2537 38.3747 34.327 38.932V39.834C35.6177 39.834 36.3144 39.6067 36.417 39.152C36.5344 38.624 36.0357 38.1033 34.921 37.59C34.437 37.37 33.6597 37.0033 32.589 36.49C31.6944 36.0647 31.247 35.456 31.247 34.664C31.247 33.5347 32.0464 32.97 33.645 32.97C34.0997 32.97 34.5324 33.0433 34.943 33.19C35.6617 33.454 36.021 33.872 36.021 34.444C36.021 34.5467 35.955 34.6567 35.823 34.774H34.613C34.701 34.6567 34.745 34.5687 34.745 34.51C34.745 34.466 34.7304 34.4147 34.701 34.356C34.5837 34.2827 34.2317 34.224 33.645 34.18C32.8677 34.1067 32.479 34.2827 32.479 34.708C32.479 35.0307 32.831 35.3387 33.535 35.632C34.107 35.8667 34.6057 36.0793 35.031 36.27C36.8204 37.062 37.715 37.9933 37.715 39.064C37.715 40.3547 36.5857 41.0147 34.327 41.044ZM32.919 38.668C32.7284 38.492 32.4424 38.404 32.061 38.404C31.7677 38.404 31.5037 38.492 31.269 38.668C31.0344 38.844 30.9317 39.0713 30.961 39.35C30.9904 39.7167 31.7164 39.878 33.139 39.834C33.1244 39.1887 33.051 38.8 32.919 38.668ZM46.2125 38.932C45.9339 39.548 45.4425 40.0467 44.7385 40.428C44.0932 40.7947 43.4112 40.978 42.6925 40.978C41.5192 40.978 40.5512 40.604 39.7885 39.856C39.0405 39.0933 38.6665 38.1253 38.6665 36.952C38.6665 35.7787 39.0405 34.818 39.7885 34.07C40.5512 33.322 41.5192 32.948 42.6925 32.948C44.2619 32.948 45.5232 33.8133 46.4765 35.544L45.4425 36.116C44.6945 34.8107 43.7779 34.158 42.6925 34.158C41.8859 34.158 41.2185 34.422 40.6905 34.95C40.1625 35.478 39.8985 36.1453 39.8985 36.952C39.8985 37.7587 40.1625 38.426 40.6905 38.954C41.2185 39.482 41.8859 39.746 42.6925 39.746C43.7779 39.746 44.6945 39.0933 45.4425 37.788L46.4765 38.36L46.2125 38.932ZM44.48 29.912C44.4507 29.9267 44.4214 29.934 44.392 29.934C44.3627 29.934 44.348 29.9193 44.348 29.89C44.304 29.4207 44.128 29.0393 43.82 28.746C43.4974 28.4527 43.1014 28.306 42.632 28.306C42.104 28.306 41.6787 28.4747 41.356 28.812C41.0187 29.1347 40.85 29.56 40.85 30.088C40.85 30.5867 41.0187 31.0047 41.356 31.342C41.6787 31.6647 42.0894 31.826 42.588 31.826C42.6907 31.826 42.852 31.8113 43.072 31.782V33.058C42.896 33.0727 42.7494 33.08 42.632 33.08C41.796 33.08 41.092 32.794 40.52 32.222C39.948 31.6353 39.662 30.924 39.662 30.088C39.662 29.252 39.9554 28.548 40.542 27.976C41.114 27.404 41.818 27.118 42.654 27.118C43.4167 27.118 44.0547 27.3453 44.568 27.8C45.0814 28.24 45.4114 28.8413 45.558 29.604C45.2207 29.736 44.8614 29.8387 44.48 29.912ZM49.1 36.468C48.6454 36.468 48.2714 36.3213 47.978 36.028C47.6994 35.7347 47.56 35.3607 47.56 34.906C47.56 34.466 47.7067 34.0993 48 33.806C48.2934 33.498 48.66 33.344 49.1 33.344C49.54 33.344 49.9067 33.498 50.2 33.806C50.4934 34.0993 50.64 34.466 50.64 34.906C50.64 35.3607 50.4934 35.7347 50.2 36.028C49.9214 36.3213 49.5547 36.468 49.1 36.468ZM49.1 40.714C48.6454 40.714 48.2714 40.5673 47.978 40.274C47.6994 39.9807 47.56 39.6067 47.56 39.152C47.56 38.712 47.7067 38.3453 48 38.052C48.2934 37.744 48.66 37.59 49.1 37.59C49.5547 37.59 49.9214 37.7367 50.2 38.03C50.4934 38.3233 50.64 38.6973 50.64 39.152C50.64 39.6067 50.4934 39.9807 50.2 40.274C49.9214 40.5673 49.5547 40.714 49.1 40.714ZM49.1 34.4C48.792 34.4 48.638 34.5687 48.638 34.906C48.638 35.214 48.792 35.368 49.1 35.368C49.4374 35.368 49.606 35.214 49.606 34.906C49.606 34.5687 49.4374 34.4 49.1 34.4ZM49.1 38.668C48.792 38.668 48.638 38.8293 48.638 39.152C48.638 39.4893 48.792 39.658 49.1 39.658C49.4374 39.658 49.606 39.4893 49.606 39.152C49.606 38.8293 49.4374 38.668 49.1 38.668ZM62.4472 41C61.2005 41 60.2032 40.6407 59.4552 39.922C58.7218 39.2033 58.3552 38.2207 58.3552 36.974C58.3552 36.1673 58.0912 35.5 57.5632 34.972C57.0352 34.444 56.3678 34.18 55.5612 34.18C54.7692 34.18 54.0945 34.4513 53.5372 34.994C52.9945 35.522 52.7232 36.182 52.7232 36.974C52.7232 37.8393 52.9945 38.5507 53.5372 39.108C54.0945 39.6507 54.8058 39.9 55.6712 39.856L55.4732 41.066L54.8792 40.956C53.8672 40.7653 53.0532 40.3107 52.4372 39.592C51.8212 38.8733 51.5132 38.0007 51.5132 36.974C51.5132 35.8007 51.8945 34.84 52.6572 34.092C53.4198 33.344 54.3878 32.97 55.5612 32.97C56.7492 32.97 57.7245 33.344 58.4872 34.092C59.2498 34.8253 59.6312 35.786 59.6312 36.974C59.6312 37.7953 59.8952 38.47 60.4232 38.998C60.9512 39.526 61.6258 39.79 62.4472 39.79C63.2538 39.79 63.9285 39.526 64.4712 38.998C65.0138 38.4553 65.2852 37.7807 65.2852 36.974C65.2852 36.1673 65.0138 35.5 64.4712 34.972C63.9285 34.444 63.2538 34.18 62.4472 34.18C62.1685 34.18 61.7358 34.2827 61.1492 34.488L61.2372 33.124C61.6478 33.0213 62.0512 32.97 62.4472 32.97C63.6205 32.97 64.5885 33.344 65.3512 34.092C66.1138 34.84 66.4952 35.8007 66.4952 36.974C66.4952 38.162 66.1138 39.13 65.3512 39.878C64.6032 40.626 63.6352 41 62.4472 41ZM62.4621 33.08C61.6261 33.08 60.9221 32.794 60.3501 32.222C59.7781 31.6353 59.4921 30.924 59.4921 30.088C59.4921 29.252 59.7854 28.548 60.3721 27.976C60.9441 27.404 61.6481 27.118 62.4841 27.118C63.3201 27.118 64.0168 27.404 64.5741 27.976C65.1314 28.548 65.4101 29.252 65.4101 30.088C65.4101 30.8947 65.1241 31.5987 64.5521 32.2C63.9654 32.7867 63.2688 33.08 62.4621 33.08ZM62.4621 28.306C61.9341 28.306 61.5088 28.4747 61.1861 28.812C60.8488 29.1347 60.6801 29.56 60.6801 30.088C60.6801 30.5867 60.8488 31.0047 61.1861 31.342C61.5088 31.6647 61.9194 31.826 62.4181 31.826C62.9314 31.826 63.3568 31.6647 63.6941 31.342C64.0168 31.0193 64.1781 30.6013 64.1781 30.088C64.1781 29.5747 64.0241 29.1493 63.7161 28.812C63.3934 28.4747 62.9754 28.306 62.4621 28.306ZM62.4621 46.94C62.0808 46.94 61.8901 46.7053 61.8901 46.236V40.934H63.0561V45.73H64.2661V46.94H62.4621ZM75.5301 37.37H75.4641C75.3908 38.8367 74.5181 40.0393 72.8461 40.978L72.2961 39.944C73.5868 39.196 74.2321 38.272 74.2321 37.172C74.2321 36.3653 73.9681 35.698 73.4401 35.17C72.9121 34.642 72.2448 34.378 71.4381 34.378C70.6314 34.378 69.9568 34.642 69.4141 35.17C68.8714 35.698 68.6001 36.3653 68.6001 37.172C68.6001 38.2867 69.2821 39.2107 70.6461 39.944L70.0521 41L69.5241 40.714C68.1014 39.9367 67.3901 38.756 67.3901 37.172C67.3901 35.9693 67.7641 35.0013 68.5121 34.268C69.2601 33.5347 70.2354 33.168 71.4381 33.168C72.9048 33.168 74.0561 33.7913 74.8921 35.038C75.7134 33.7913 76.8574 33.168 78.3241 33.168C79.5121 33.168 80.4801 33.542 81.2281 34.29C81.9908 35.0233 82.3721 35.984 82.3721 37.172C82.3721 38.3453 81.9908 39.3133 81.2281 40.076C80.4654 40.824 79.4974 41.198 78.3241 41.198C77.9721 41.198 77.6201 41.154 77.2681 41.066C77.2974 40.802 77.3708 40.3987 77.4881 39.856C77.8988 39.9293 78.1774 39.966 78.3241 39.966C79.1454 39.966 79.8201 39.7093 80.3481 39.196C80.8908 38.668 81.1621 37.9933 81.1621 37.172C81.1621 36.38 80.8834 35.72 80.3261 35.192C79.7834 34.6493 79.1161 34.378 78.3241 34.378C77.5028 34.378 76.8281 34.642 76.3001 35.17C75.7868 35.6833 75.5301 36.3507 75.5301 37.172V37.37ZM80.1871 29.912C80.1577 29.9267 80.1284 29.934 80.0991 29.934C80.0697 29.934 80.0551 29.9193 80.0551 29.89C80.0111 29.4207 79.8351 29.0393 79.5271 28.746C79.2044 28.4527 78.8084 28.306 78.3391 28.306C77.8111 28.306 77.3857 28.4747 77.0631 28.812C76.7257 29.1347 76.5571 29.56 76.5571 30.088C76.5571 30.5867 76.7257 31.0047 77.0631 31.342C77.3857 31.6647 77.7964 31.826 78.2951 31.826C78.3977 31.826 78.5591 31.8113 78.7791 31.782V33.058C78.6031 33.0727 78.4564 33.08 78.3391 33.08C77.5031 33.08 76.7991 32.794 76.2271 32.222C75.6551 31.6353 75.3691 30.924 75.3691 30.088C75.3691 29.252 75.6624 28.548 76.2491 27.976C76.8211 27.404 77.5251 27.118 78.3611 27.118C79.1237 27.118 79.7617 27.3453 80.2751 27.8C80.7884 28.24 81.1184 28.8413 81.2651 29.604C80.9277 29.736 80.5684 29.8387 80.1871 29.912ZM87.3151 41C86.1271 41 85.1517 40.626 84.3891 39.878C83.6411 39.13 83.2671 38.162 83.2671 36.974C83.2671 35.3167 84.0444 34.1067 85.5991 33.344L86.3691 34.268C85.1077 35.0453 84.4771 35.9473 84.4771 36.974C84.4771 37.7953 84.7411 38.47 85.2691 38.998C85.8117 39.526 86.4937 39.79 87.3151 39.79C88.1071 39.79 88.7671 39.5187 89.2951 38.976C89.8377 38.4333 90.1091 37.766 90.1091 36.974C90.1091 35.962 89.4784 35.0673 88.2171 34.29L89.0531 33.388L89.4051 33.564C90.6664 34.1947 91.2971 35.3313 91.2971 36.974C91.2971 38.1473 90.9231 39.1153 90.1751 39.878C89.4417 40.626 88.4884 41 87.3151 41ZM92.1386 41V30C92.1386 29.9267 92.1312 29.8827 92.1166 29.868C91.9406 28.8267 91.3686 28.306 90.4006 28.306C89.8726 28.306 89.4472 28.4747 89.1246 28.812C88.7872 29.1493 88.6186 29.582 88.6186 30.11C88.6186 30.3007 88.6479 30.4987 88.7066 30.704L87.5406 30.968C87.4672 30.66 87.4306 30.374 87.4306 30.11C87.4306 29.2593 87.7166 28.548 88.2886 27.976C88.8606 27.404 89.5719 27.118 90.4226 27.118C91.2146 27.118 91.8819 27.3673 92.4246 27.866C92.9819 28.3647 93.2972 29.01 93.3706 29.802V41H92.1386ZM95.5216 26.26C95.5216 25.534 96.0496 25.072 96.7976 25.072C97.6336 25.072 98.2276 25.776 98.2276 26.854C98.2276 28.834 96.5996 30.528 95.8956 30.902L95.3456 30.352C96.0496 29.736 96.7536 29.01 96.8196 27.646C96.0936 27.536 95.5216 26.898 95.5216 26.26ZM99.3496 26.26C99.3496 25.534 99.8776 25.072 100.626 25.072C101.462 25.072 102.056 25.776 102.056 26.854C102.056 28.834 100.428 30.528 99.7236 30.902L99.1736 30.352C99.8776 29.736 100.582 29.01 100.648 27.646C99.9216 27.536 99.3496 26.898 99.3496 26.26Z" fill="white"/>
</svg>
