<svg width="274" height="40" viewBox="0 0 274 40" fill="none" xmlns="http://www.w3.org/2000/svg">
<g clip-path="url(#clip0_25_135)">
<path d="M125.688 0.505859H4.91516C2.46907 0.505859 0.486115 2.56933 0.486115 5.11476V34.8915C0.486115 37.4369 2.46907 39.5004 4.91516 39.5004H125.688C128.134 39.5004 130.117 37.4369 130.117 34.8915V5.11476C130.117 2.56933 128.134 0.505859 125.688 0.505859Z" fill="black"/>
<path d="M125.688 40H4.91516C2.20252 40 0 37.708 0 34.8852V5.11475C0 2.29196 2.20252 0 4.91516 0H125.688C128.4 0 130.603 2.29196 130.603 5.11475V34.8852C130.603 37.708 128.4 40 125.688 40ZM4.91516 1.01171C2.74265 1.01171 0.97223 2.85402 0.97223 5.121V34.8915C0.97223 37.1522 2.74265 38.9945 4.91516 38.9945H125.688C127.86 38.9945 129.631 37.1522 129.631 34.8915V5.11475C129.631 2.84777 127.86 1.00546 125.688 1.00546H4.91516V1.01171Z" fill="#A7A9AC"/>
<path d="M65.8836 21.8766C63.6151 21.8766 61.7606 23.6752 61.7606 26.1483C61.7606 28.6214 63.6091 30.4199 65.8836 30.4199C68.1581 30.4199 70.0066 28.6089 70.0066 26.1483C70.0066 23.6877 68.1581 21.8766 65.8836 21.8766ZM65.8836 28.74C64.6413 28.74 63.567 27.6721 63.567 26.1483C63.567 24.6245 64.6413 23.5566 65.8836 23.5566C67.1259 23.5566 68.2001 24.6057 68.2001 26.1483C68.2001 27.6908 67.1259 28.74 65.8836 28.74ZM56.8935 21.8766C54.6249 21.8766 52.7705 23.6752 52.7705 26.1483C52.7705 28.6214 54.6189 30.4199 56.8935 30.4199C59.168 30.4199 61.0164 28.6089 61.0164 26.1483C61.0164 23.6877 59.168 21.8766 56.8935 21.8766ZM56.8935 28.74C55.6512 28.74 54.5769 27.6721 54.5769 26.1483C54.5769 24.6245 55.6512 23.5566 56.8935 23.5566C58.1358 23.5566 59.21 24.6057 59.21 26.1483C59.21 27.6908 58.1358 28.74 56.8935 28.74ZM46.1989 23.1881V24.9992H50.3639C50.2379 26.0171 49.9138 26.7603 49.4157 27.2787C48.8095 27.9094 47.8613 28.6026 46.1989 28.6026C43.6303 28.6026 41.6259 26.4481 41.6259 23.7814C41.6259 21.1147 43.6303 18.9602 46.1989 18.9602C47.5853 18.9602 48.5935 19.5285 49.3377 20.2529L50.568 18.9726C49.5237 17.936 48.1434 17.1428 46.1989 17.1428C42.6821 17.1428 39.7294 20.1217 39.7294 23.7751C39.7294 27.4285 42.6821 30.4075 46.1989 30.4075C48.0954 30.4075 49.5297 29.758 50.646 28.5464C51.7983 27.3473 52.1523 25.6674 52.1523 24.306C52.1523 23.8876 52.1223 23.4941 52.0563 23.1756H46.1929L46.1989 23.1881ZM89.9313 24.5933C89.5892 23.6377 88.545 21.8766 86.4145 21.8766C84.2839 21.8766 82.5435 23.6065 82.5435 26.1483C82.5435 28.5402 84.2839 30.4199 86.6185 30.4199C88.5029 30.4199 89.5892 29.2209 90.0393 28.5277L88.641 27.5597C88.1729 28.2716 87.5367 28.74 86.6185 28.74C85.7003 28.74 85.0461 28.3029 84.626 27.4473L90.1173 25.0866L89.9313 24.5995V24.5933ZM84.332 26.0171C84.2839 24.3684 85.5623 23.5253 86.4805 23.5253C87.1946 23.5253 87.8008 23.9 88.0048 24.4309L84.338 26.0171H84.332ZM79.8669 30.1577H81.6733V17.5987H79.8669V30.1577ZM76.9142 22.8259H76.8542C76.4521 22.3263 75.6719 21.8704 74.6937 21.8704C72.6412 21.8704 70.7567 23.7502 70.7567 26.1608C70.7567 28.5714 72.6412 30.4137 74.6937 30.4137C75.6719 30.4137 76.4521 29.9578 76.8542 29.4457H76.9142V30.0577C76.9142 31.694 76.074 32.5683 74.7237 32.5683C73.6194 32.5683 72.9353 31.7439 72.6532 31.0445L71.0808 31.7252C71.5309 32.8555 72.7312 34.2482 74.7177 34.2482C76.8302 34.2482 78.6186 32.9555 78.6186 29.7954V22.1264H76.9082V22.8196L76.9142 22.8259ZM74.8437 28.7338C73.6014 28.7338 72.5572 27.6471 72.5572 26.1608C72.5572 24.6744 73.6014 23.5566 74.8437 23.5566C76.086 23.5566 77.0342 24.6557 77.0342 26.1608C77.0342 27.6659 76.068 28.7338 74.8437 28.7338ZM98.3753 17.5987H94.0603V30.1577H95.8607V25.3989H98.3753C100.374 25.3989 102.336 23.8938 102.336 21.5019C102.336 19.11 100.374 17.605 98.3753 17.605V17.5987ZM98.4233 23.6502H95.8607V19.3473H98.4233C99.7676 19.3473 100.536 20.5089 100.536 21.5019C100.536 22.4949 99.7736 23.6565 98.4233 23.6565V23.6502ZM109.556 21.8454C108.254 21.8454 106.903 22.4449 106.345 23.7689L107.942 24.4621C108.284 23.7689 108.92 23.5441 109.586 23.5441C110.516 23.5441 111.464 24.1249 111.482 25.1616V25.2927C111.158 25.0991 110.456 24.8056 109.604 24.8056C107.882 24.8056 106.129 25.7923 106.129 27.6346C106.129 29.3146 107.539 30.395 109.124 30.395C110.336 30.395 111.002 29.8267 111.422 29.1647H111.482V30.1327H113.223V25.3177C113.223 23.0882 111.626 21.8454 109.562 21.8454H109.556ZM109.34 28.7275C108.752 28.7275 107.93 28.4215 107.93 27.6596C107.93 26.6916 108.956 26.3169 109.838 26.3169C110.63 26.3169 111.002 26.4918 111.482 26.7353C111.344 27.8969 110.378 28.7213 109.34 28.7213V28.7275ZM119.554 22.1202L117.49 27.5659H117.43L115.287 22.1202H113.349L116.56 29.7267L114.729 33.9609H116.608L121.559 22.1202H119.554ZM103.332 30.1514H105.133V17.5925H103.332V30.1514Z" fill="white"/>
<path d="M10.1844 7.60654C9.90234 7.91255 9.7403 8.39342 9.7403 9.01794V31.2131C9.7403 31.8376 9.90834 32.3122 10.1844 32.6245L10.2564 32.6994L22.2053 20.2654V19.9719L10.2564 7.53784L10.1844 7.61278V7.60654Z" fill="#5BC9F4"/>
<path d="M26.1902 24.4121L22.2053 20.2654V19.9718L26.1902 15.8251L26.2802 15.8813L30.9973 18.6728C32.3477 19.4722 32.3477 20.7712 30.9973 21.5706L26.2802 24.3622L26.1902 24.4184V24.4121Z" fill="url(#paint0_linear_25_135)"/>
<path d="M26.2802 24.3559L22.2053 20.1155L10.1844 32.6245C10.6285 33.1116 11.3607 33.174 12.1889 32.6869L26.2802 24.3559Z" fill="url(#paint1_linear_25_135)"/>
<path d="M26.2802 15.8751L12.1889 7.5441C11.3607 7.05698 10.6285 7.11318 10.1844 7.60655L22.2053 20.1155L26.2802 15.8751Z" fill="url(#paint2_linear_25_135)"/>
<path d="M44.3685 8.31856C44.0084 7.98132 43.5283 7.76898 43.0002 7.76898C41.8119 7.76898 40.8997 8.78694 40.8997 10.0422C40.8997 11.2975 41.8119 12.3029 43.0002 12.3029C44.0204 12.3029 44.7646 11.6847 44.8126 10.7104H43.1982V10.0172H45.6888C45.6888 12.0906 44.6266 13.0711 43.0002 13.0711C41.3738 13.0711 40.1315 11.7159 40.1315 10.0422C40.1315 8.36852 41.3858 7.00708 43.0002 7.00708C43.7504 7.00708 44.4285 7.30685 44.9206 7.78772L44.3685 8.31856Z" fill="white"/>
<path d="M50.0939 7.07581V7.81898H47.4952V9.705H49.7638V10.4544H47.4952V12.2405H50.1719V12.9837H46.7271V7.07581H50.0879H50.0939Z" fill="white"/>
<path d="M55.063 7.07581V7.83147H53.3406V12.9837H52.5664V7.83147H50.844V7.07581H55.063Z" fill="white"/>
<path d="M58.7419 7.07581V12.9837H57.9737V7.07581H58.7419Z" fill="white"/>
<path d="M63.9691 7.07581V7.83147H62.2467V12.9837H61.4725V7.83147H59.7501V7.07581H63.9691Z" fill="white"/>
<path d="M69.3764 7.00708C71.0028 7.00708 72.2631 8.36227 72.2631 10.0422C72.2631 11.7221 71.0028 13.0711 69.3764 13.0711C67.75 13.0711 66.5077 11.7159 66.5077 10.0422C66.5077 8.36852 67.762 7.00708 69.3764 7.00708ZM69.3764 12.2967C70.5707 12.2967 71.4889 11.2912 71.4889 10.0422C71.4889 8.79318 70.5767 7.77523 69.3764 7.77523C68.1761 7.77523 67.2759 8.78694 67.2759 10.0422C67.2759 11.2975 68.1881 12.2967 69.3764 12.2967Z" fill="white"/>
<path d="M76.7942 12.9837L74.2076 8.53092V12.9837H73.4394V7.07581H74.1956L76.7582 11.4911V7.07581H77.5263V12.9837H76.7942Z" fill="white"/>
</g>
<g clip-path="url(#clip1_25_135)">
<path d="M268.116 0.505859H147.343C144.897 0.505859 142.914 2.56933 142.914 5.11476V34.8915C142.914 37.4369 144.897 39.5004 147.343 39.5004H268.116C270.562 39.5004 272.545 37.4369 272.545 34.8915V5.11476C272.545 2.56933 270.562 0.505859 268.116 0.505859Z" fill="black"/>
<path d="M268.116 40H147.343C144.63 40 142.428 37.708 142.428 34.8852V5.11475C142.428 2.29196 144.63 0 147.343 0H268.116C270.828 0 273.031 2.29196 273.031 5.11475V34.8852C273.031 37.708 270.828 40 268.116 40ZM147.343 1.01171C145.171 1.01171 143.4 2.85402 143.4 5.11475V34.8852C143.4 37.146 145.171 38.9883 147.343 38.9883H268.116C270.288 38.9883 272.059 37.146 272.059 34.8852V5.11475C272.059 2.84777 270.288 1.01171 268.116 1.01171H147.343Z" fill="#A7A9AC"/>
<path d="M185.908 11.3724L185.362 13.2334H184.174L186.196 6.66357H187.667L189.719 13.2334H188.483L187.913 11.3724H185.908ZM187.715 10.4669L187.216 8.84937C187.096 8.44968 186.994 8.00003 186.898 7.61908H186.88C186.784 8.00003 186.694 8.45592 186.58 8.84937L186.094 10.4669H187.715Z" fill="white"/>
<path d="M191.441 8.48718L192.18 10.8978C192.312 11.3162 192.402 11.6972 192.492 12.0844H192.522C192.606 11.6972 192.708 11.3225 192.834 10.8978L193.566 8.48718H194.772L193.032 13.2335H191.898L190.199 8.48718H191.447H191.441Z" fill="white"/>
<path d="M199.363 12.0968C199.363 12.5277 199.381 12.9461 199.435 13.2397H198.397L198.313 12.7151H198.283C198.013 13.0835 197.533 13.3458 196.933 13.3458C196.015 13.3458 195.498 12.6526 195.498 11.9344C195.498 10.7479 196.519 10.1296 198.205 10.1421V10.0671C198.205 9.75489 198.085 9.23654 197.275 9.23654C196.825 9.23654 196.357 9.38018 196.051 9.58627L195.829 8.80563C196.165 8.5933 196.759 8.38721 197.479 8.38721C198.943 8.38721 199.363 9.3552 199.363 10.3981V12.1031V12.0968ZM198.241 10.9165C197.425 10.904 196.651 11.0851 196.651 11.8033C196.651 12.2717 196.939 12.484 197.305 12.484C197.773 12.484 198.103 12.1718 198.211 11.8283C198.241 11.7408 198.241 11.6534 198.241 11.566V10.9102V10.9165Z" fill="white"/>
<path d="M201.566 7.80643C201.182 7.80643 200.93 7.51291 200.93 7.16318C200.93 6.79472 201.194 6.50745 201.578 6.50745C201.962 6.50745 202.214 6.78848 202.226 7.16318C202.226 7.51291 201.974 7.80643 201.578 7.80643H201.566ZM200.996 13.2334V8.48715H202.148V13.2334H200.996Z" fill="white"/>
<path d="M203.804 6.30762H204.957V13.2397H203.804V6.30762Z" fill="white"/>
<path d="M210.166 12.0968C210.166 12.5277 210.184 12.9461 210.238 13.2397H209.2L209.116 12.7151H209.086C208.816 13.0835 208.335 13.3458 207.735 13.3458C206.817 13.3458 206.301 12.6526 206.301 11.9344C206.301 10.7479 207.321 10.1296 209.008 10.1421V10.0671C209.008 9.75489 208.888 9.23654 208.083 9.23654C207.633 9.23654 207.165 9.38018 206.859 9.58627L206.637 8.80563C206.973 8.5933 207.567 8.38721 208.287 8.38721C209.746 8.38721 210.172 9.3552 210.172 10.3981V12.1031L210.166 12.0968ZM209.044 10.9165C208.227 10.904 207.453 11.0851 207.453 11.8033C207.453 12.2717 207.741 12.484 208.107 12.484C208.576 12.484 208.906 12.1718 209.014 11.8283C209.044 11.7408 209.044 11.6534 209.044 11.566V10.9102V10.9165Z" fill="white"/>
<path d="M211.792 6.30762H212.945V9.1429H212.963C213.245 8.68701 213.743 8.381 214.427 8.381C215.543 8.381 216.335 9.34899 216.329 10.7916C216.329 12.4965 215.291 13.3459 214.259 13.3459C213.671 13.3459 213.143 13.1086 212.819 12.5278H212.801L212.747 13.2397H211.762C211.78 12.915 211.798 12.3904 211.798 11.9157V6.30762H211.792ZM212.945 11.2787C212.945 11.3787 212.957 11.4723 212.975 11.5598C213.095 12.0469 213.497 12.3966 213.995 12.3966C214.715 12.3966 215.159 11.8033 215.159 10.8353C215.159 9.99848 214.775 9.31777 214.007 9.31777C213.539 9.31777 213.107 9.66749 212.987 10.1921C212.969 10.2795 212.951 10.3857 212.951 10.5043V11.2725L212.945 11.2787Z" fill="white"/>
<path d="M217.686 6.30762H218.838V13.2397H217.686V6.30762Z" fill="white"/>
<path d="M221.317 11.1975C221.347 12.0531 221.989 12.4278 222.721 12.4278C223.255 12.4278 223.627 12.3404 223.987 12.2155L224.155 13.0336C223.759 13.2085 223.219 13.3334 222.565 13.3334C221.082 13.3334 220.212 12.3903 220.212 10.9352C220.212 9.61752 220.98 8.38098 222.445 8.38098C223.909 8.38098 224.413 9.64874 224.413 10.6917C224.413 10.9165 224.395 11.0914 224.377 11.1975H221.323H221.317ZM223.321 10.3607C223.333 9.92353 223.141 9.19909 222.373 9.19909C221.659 9.19909 221.359 9.87357 221.317 10.3607H223.321Z" fill="white"/>
<path d="M230.097 13.3459C228.812 13.3459 227.81 12.4278 227.81 10.8978C227.81 9.36771 228.794 8.38098 230.169 8.38098C231.543 8.38098 232.437 9.37396 232.437 10.8166C232.437 12.559 231.255 13.3396 230.103 13.3396H230.091L230.097 13.3459ZM230.133 12.4778C230.787 12.4778 231.249 11.8158 231.249 10.8478C231.249 10.1046 230.931 9.24905 230.145 9.24905C229.358 9.24905 228.998 10.0797 228.998 10.8665C228.998 11.7846 229.436 12.4778 230.121 12.4778H230.133Z" fill="white"/>
<path d="M233.793 9.90477C233.793 9.36145 233.775 8.89931 233.757 8.49337H234.76L234.814 9.20532H234.844C235.048 8.83686 235.546 8.38721 236.308 8.38721C237.07 8.38721 237.928 8.92429 237.928 10.4231V13.2397H236.776V10.5605C236.776 9.87979 236.53 9.36145 235.906 9.36145C235.45 9.36145 235.132 9.70493 235.006 10.0609C234.97 10.1608 234.952 10.3045 234.952 10.4419V13.2397H233.799V9.90477H233.793Z" fill="white"/>
<path d="M243.234 7.26931V8.48711H244.332V9.3864H243.234V11.4723C243.234 12.0593 243.384 12.3466 243.822 12.3466C244.026 12.3466 244.14 12.3341 244.272 12.2966L244.29 13.2022C244.122 13.2709 243.81 13.3271 243.456 13.3271C243.024 13.3271 242.682 13.1834 242.466 12.9399C242.213 12.6651 242.099 12.2279 242.099 11.6034V9.38016H241.451V8.48086H242.099V7.59405L243.234 7.26306V7.26931Z" fill="white"/>
<path d="M245.61 6.30762H246.763V9.13666H246.781C246.919 8.91183 247.117 8.72448 247.351 8.59958C247.585 8.46218 247.855 8.38724 248.149 8.38724C248.923 8.38724 249.739 8.92432 249.739 10.4419V13.2397H248.587V10.5668C248.587 9.88607 248.341 9.35524 247.705 9.35524C247.255 9.35524 246.937 9.66749 246.805 10.0297C246.769 10.1359 246.757 10.267 246.757 10.3919V13.2397H245.604V6.30762H245.61Z" fill="white"/>
<path d="M252.194 11.1975C252.224 12.0531 252.866 12.4278 253.598 12.4278C254.132 12.4278 254.504 12.3404 254.864 12.2155L255.033 13.0336C254.636 13.2085 254.096 13.3334 253.442 13.3334C251.96 13.3334 251.09 12.3903 251.09 10.9352C251.09 9.61752 251.858 8.38098 253.322 8.38098C254.786 8.38098 255.291 9.64874 255.291 10.6917C255.291 10.9165 255.273 11.0914 255.255 11.1975H252.2H252.194ZM254.198 10.3607C254.21 9.92353 254.018 9.19909 253.25 9.19909C252.536 9.19909 252.236 9.87357 252.194 10.3607H254.198Z" fill="white"/>
<path d="M171.577 19.6097C171.547 16.356 174.133 14.776 174.253 14.701C172.789 12.4778 170.515 12.1718 169.716 12.1468C167.808 11.9407 165.959 13.3334 164.987 13.3334C164.015 13.3334 162.497 12.1655 160.888 12.1967C158.812 12.2342 156.873 13.4832 155.805 15.4192C153.609 19.3786 155.247 25.1928 157.353 28.3966C158.41 29.9641 159.64 31.7127 161.248 31.6503C162.821 31.5816 163.409 30.6074 165.311 30.6074C167.214 30.6074 167.748 31.6503 169.392 31.6128C171.085 31.5816 172.147 30.0391 173.161 28.459C174.379 26.6604 174.866 24.8931 174.89 24.8056C174.848 24.7932 171.607 23.5067 171.571 19.6035" fill="white"/>
<path d="M168.468 10.0484C169.314 8.94305 169.896 7.44422 169.734 5.92041C168.51 5.97662 166.974 6.80097 166.091 7.88138C165.311 8.83064 164.609 10.3919 164.789 11.8533C166.169 11.9594 167.58 11.1288 168.468 10.0422" fill="white"/>
<path d="M194.346 31.4005H192.15L190.949 27.4661H186.772L185.626 31.4005H183.49L187.631 18.011H190.187L194.346 31.4005ZM190.589 25.8174L189.503 22.3201C189.389 21.9641 189.173 21.1211 188.855 19.7971H188.819C188.693 20.3654 188.489 21.2085 188.207 22.3201L187.138 25.8174H190.595H190.589Z" fill="white"/>
<path d="M204.999 26.4543C204.999 28.0968 204.573 29.3958 203.72 30.345C202.958 31.1944 202.01 31.6128 200.876 31.6128C199.651 31.6128 198.775 31.1569 198.241 30.2451H198.205V35.3287H196.141V24.918C196.141 23.8876 196.117 22.8259 196.063 21.7393H197.875L197.989 23.2693H198.031C198.715 22.114 199.759 21.5394 201.158 21.5394C202.25 21.5394 203.168 21.9891 203.894 22.8884C204.627 23.7877 204.993 24.9742 204.993 26.4418M202.892 26.523C202.892 25.5863 202.688 24.8056 202.28 24.1998C201.836 23.5628 201.236 23.2443 200.486 23.2443C199.975 23.2443 199.513 23.4192 199.099 23.7689C198.685 24.1249 198.415 24.5808 198.289 25.1491C198.223 25.4176 198.193 25.63 198.193 25.8048V27.4161C198.193 28.1155 198.397 28.7088 198.811 29.1897C199.225 29.6768 199.765 29.9141 200.426 29.9141C201.2 29.9141 201.806 29.6081 202.238 28.9836C202.67 28.3591 202.886 27.541 202.886 26.5168" fill="white"/>
<path d="M215.669 26.4543C215.669 28.0968 215.243 29.3958 214.391 30.345C213.629 31.1944 212.681 31.6128 211.546 31.6128C210.328 31.6128 209.446 31.1569 208.912 30.2451H208.876V35.3287H206.817V24.918C206.817 23.8876 206.793 22.8259 206.739 21.7393H208.552L208.666 23.2693H208.708C209.392 22.114 210.436 21.5394 211.834 21.5394C212.927 21.5394 213.839 21.9891 214.571 22.8884C215.303 23.7877 215.669 24.9742 215.669 26.4418M213.569 26.523C213.569 25.5863 213.365 24.8056 212.957 24.1998C212.512 23.5628 211.912 23.2443 211.162 23.2443C210.652 23.2443 210.19 23.4192 209.776 23.7689C209.362 24.1249 209.092 24.5808 208.966 25.1491C208.9 25.4176 208.87 25.63 208.87 25.8048V27.4161C208.87 28.1155 209.074 28.7088 209.488 29.1897C209.902 29.6768 210.436 29.9141 211.102 29.9141C211.876 29.9141 212.482 29.6081 212.915 28.9836C213.347 28.3591 213.563 27.541 213.563 26.5168" fill="white"/>
<path d="M227.6 27.6472C227.6 28.7838 227.222 29.7143 226.454 30.4263C225.614 31.2069 224.449 31.6003 222.949 31.6003C221.563 31.6003 220.452 31.3256 219.612 30.7697L220.092 28.9836C220.998 29.5519 221.989 29.8392 223.075 29.8392C223.849 29.8392 224.455 29.6581 224.887 29.2959C225.319 28.9274 225.536 28.4403 225.536 27.8345C225.536 27.2912 225.356 26.8353 225.001 26.4606C224.647 26.0859 224.053 25.7424 223.225 25.4239C220.974 24.5496 219.846 23.2694 219.846 21.5832C219.846 20.484 220.242 19.5785 221.028 18.879C221.815 18.1733 222.865 17.8236 224.179 17.8236C225.35 17.8236 226.322 18.0359 227.096 18.4606L226.58 20.2092C225.854 19.7971 225.031 19.591 224.119 19.591C223.393 19.591 222.829 19.7783 222.421 20.1468C222.079 20.4778 221.905 20.8837 221.905 21.3583C221.905 21.8892 222.103 22.3263 222.493 22.6698C222.835 22.9883 223.459 23.3318 224.365 23.7065C225.47 24.1687 226.286 24.712 226.808 25.3365C227.33 25.961 227.588 26.7354 227.588 27.6597" fill="white"/>
<path d="M234.412 23.3568H232.143V28.0469C232.143 29.2397 232.545 29.833 233.349 29.833C233.715 29.833 234.022 29.8018 234.262 29.7331L234.316 31.363C233.914 31.5192 233.373 31.6004 232.713 31.6004C231.897 31.6004 231.261 31.3443 230.805 30.826C230.349 30.3076 230.115 29.4395 230.115 28.2217V23.3568H228.758V21.7456H230.115V19.9782L232.137 19.3412V21.7456H234.406V23.3568H234.412Z" fill="white"/>
<path d="M244.662 26.4981C244.662 27.9845 244.254 29.2023 243.444 30.1515C242.592 31.132 241.457 31.6191 240.047 31.6191C238.637 31.6191 237.598 31.1508 236.794 30.2077C235.984 29.271 235.582 28.0844 235.582 26.6543C235.582 25.1554 235.996 23.9314 236.83 22.9821C237.664 22.0266 238.787 21.552 240.197 21.552C241.607 21.552 242.652 22.0204 243.48 22.9634C244.272 23.8814 244.662 25.0555 244.662 26.4981ZM242.526 26.5668C242.526 25.68 242.34 24.9119 241.973 24.2749C241.541 23.5067 240.923 23.1195 240.125 23.1195C239.327 23.1195 238.667 23.5067 238.235 24.2749C237.862 24.9119 237.682 25.6863 237.682 26.6043C237.682 27.5223 237.862 28.2593 238.235 28.8963C238.679 29.6644 239.303 30.0516 240.107 30.0516C240.911 30.0516 241.511 29.6582 241.955 28.8775C242.34 28.228 242.526 27.4599 242.526 26.5668Z" fill="white"/>
<path d="M251.36 23.6379C251.156 23.6004 250.94 23.5817 250.711 23.5817C249.985 23.5817 249.427 23.8689 249.031 24.4372C248.689 24.9431 248.515 25.5739 248.515 26.342V31.4068H246.456L246.474 24.7932C246.474 23.6816 246.45 22.6699 246.396 21.7518H248.191L248.269 23.6004H248.323C248.539 22.9634 248.887 22.4513 249.355 22.0703C249.811 21.7269 250.309 21.552 250.844 21.552C251.036 21.552 251.204 21.5645 251.36 21.5895V23.6379Z" fill="white"/>
<path d="M260.578 26.1171C260.578 26.5043 260.554 26.8228 260.506 27.0914H254.324C254.348 28.0469 254.648 28.7713 255.219 29.2772C255.741 29.7268 256.413 29.9516 257.241 29.9516C258.153 29.9516 258.987 29.8017 259.744 29.4957L260.068 30.9883C259.192 31.388 258.153 31.5878 256.953 31.5878C255.519 31.5878 254.384 31.1444 253.568 30.2639C252.752 29.3833 252.338 28.203 252.338 26.7167C252.338 25.2303 252.722 24.05 253.484 23.082C254.282 22.0515 255.369 21.5332 256.725 21.5332C258.081 21.5332 259.077 22.0515 259.762 23.082C260.308 23.9063 260.578 24.9181 260.578 26.1234M258.615 25.5676C258.627 24.9305 258.495 24.381 258.213 23.9188C257.859 23.3256 257.307 23.0258 256.569 23.0258C255.897 23.0258 255.351 23.3193 254.931 23.9001C254.588 24.3622 254.384 24.9181 254.324 25.5676H258.615Z" fill="white"/>
</g>
<defs>
<linearGradient id="paint0_linear_25_135" x1="30.1211" y1="20.1155" x2="6.7816" y2="20.1155" gradientUnits="userSpaceOnUse">
<stop stop-color="#FEE000"/>
<stop offset="0.42" stop-color="#FBBC0E"/>
<stop offset="0.78" stop-color="#F9A318"/>
<stop offset="1" stop-color="#F99B1C"/>
</linearGradient>
<linearGradient id="paint1_linear_25_135" x1="24.0657" y1="22.4199" x2="1.24537" y2="44.3498" gradientUnits="userSpaceOnUse">
<stop stop-color="#EF4547"/>
<stop offset="1" stop-color="#C6186D"/>
</linearGradient>
<linearGradient id="paint2_linear_25_135" x1="2.01648" y1="-5.12725" x2="20.6496" y2="12.7788" gradientUnits="userSpaceOnUse">
<stop stop-color="#279E6F"/>
<stop offset="0.04" stop-color="#2B9F6E"/>
<stop offset="0.46" stop-color="#52B16B"/>
<stop offset="0.8" stop-color="#6BBC69"/>
<stop offset="1" stop-color="#74C169"/>
</linearGradient>
<clipPath id="clip0_25_135">
<rect width="130.597" height="40" fill="white"/>
</clipPath>
<clipPath id="clip1_25_135">
<rect width="130.597" height="40" fill="white" transform="translate(142.428)"/>
</clipPath>
</defs>
</svg>
