<svg width="287" height="109" viewBox="0 0 287 109" fill="none" xmlns="http://www.w3.org/2000/svg">
<path d="M12.904 18.976C12.312 18.976 11.68 18.832 11.008 18.544L11.512 17.344C12.12 17.536 12.584 17.632 12.904 17.632C13.8 17.632 14.536 17.352 15.112 16.792C15.704 16.216 16 15.48 16 14.584C16 13.72 15.696 13 15.088 12.424C14.496 11.832 13.768 11.536 12.904 11.536C12.008 11.536 11.272 11.824 10.696 12.4C10.136 12.96 9.856 13.688 9.856 14.584V14.728L9.832 14.776C9.768 16.056 9.328 17.08 8.512 17.848C7.712 18.6 6.672 18.976 5.392 18.976C4.112 18.976 3.056 18.568 2.224 17.752C1.392 16.92 0.976 15.864 0.976 14.584C0.976 13.272 1.384 12.216 2.2 11.416C3.016 10.616 4.08 10.216 5.392 10.216C6.992 10.216 8.248 10.896 9.16 12.256C10.056 10.896 11.304 10.216 12.904 10.216C14.2 10.216 15.256 10.624 16.072 11.44C16.904 12.24 17.32 13.288 17.32 14.584C17.32 15.864 16.904 16.92 16.072 17.752C15.24 18.568 14.184 18.976 12.904 18.976ZM5.392 11.536C4.512 11.536 3.776 11.824 3.184 12.4C2.592 12.976 2.296 13.704 2.296 14.584C2.296 15.464 2.592 16.192 3.184 16.768C3.776 17.344 4.512 17.632 5.392 17.632C6.272 17.632 7 17.344 7.576 16.768C8.152 16.192 8.44 15.464 8.44 14.584C8.44 13.704 8.152 12.976 7.576 12.4C7 11.824 6.272 11.536 5.392 11.536ZM30.2243 18.976C29.6323 18.976 29.0003 18.832 28.3283 18.544L28.8323 17.344C29.4403 17.536 29.9043 17.632 30.2243 17.632C31.1203 17.632 31.8563 17.352 32.4323 16.792C33.0243 16.216 33.3203 15.48 33.3203 14.584C33.3203 13.72 33.0163 13 32.4083 12.424C31.8163 11.832 31.0883 11.536 30.2243 11.536C29.3283 11.536 28.5923 11.824 28.0163 12.4C27.4563 12.96 27.1763 13.688 27.1763 14.584V14.728L27.1523 14.776C27.0883 16.056 26.6483 17.08 25.8323 17.848C25.0323 18.6 23.9923 18.976 22.7123 18.976C21.4323 18.976 20.3763 18.568 19.5443 17.752C18.7123 16.92 18.2963 15.864 18.2963 14.584C18.2963 13.272 18.7043 12.216 19.5203 11.416C20.3363 10.616 21.4003 10.216 22.7123 10.216C24.3123 10.216 25.5683 10.896 26.4803 12.256C27.3763 10.896 28.6243 10.216 30.2243 10.216C31.5203 10.216 32.5763 10.624 33.3923 11.44C34.2243 12.24 34.6403 13.288 34.6403 14.584C34.6403 15.864 34.2243 16.92 33.3923 17.752C32.5603 18.568 31.5043 18.976 30.2243 18.976ZM22.7123 11.536C21.8323 11.536 21.0963 11.824 20.5043 12.4C19.9123 12.976 19.6163 13.704 19.6163 14.584C19.6163 15.464 19.9123 16.192 20.5043 16.768C21.0963 17.344 21.8323 17.632 22.7123 17.632C23.5923 17.632 24.3203 17.344 24.8963 16.768C25.4723 16.192 25.7603 15.464 25.7603 14.584C25.7603 13.704 25.4723 12.976 24.8963 12.4C24.3203 11.824 23.5923 11.536 22.7123 11.536ZM32.2566 6.904C32.2246 6.92 32.1926 6.928 32.1606 6.928C32.1286 6.928 32.1126 6.912 32.1126 6.88C32.0646 6.368 31.8726 5.952 31.5366 5.632C31.1846 5.312 30.7526 5.152 30.2406 5.152C29.6646 5.152 29.2006 5.336 28.8486 5.704C28.4806 6.056 28.2966 6.52 28.2966 7.096C28.2966 7.64 28.4806 8.096 28.8486 8.464C29.2006 8.816 29.6486 8.992 30.1926 8.992C30.3046 8.992 30.4806 8.976 30.7206 8.944V10.336C30.5286 10.352 30.3686 10.36 30.2406 10.36C29.3286 10.36 28.5606 10.048 27.9366 9.424C27.3126 8.784 27.0006 8.008 27.0006 7.096C27.0006 6.184 27.3206 5.416 27.9606 4.792C28.5846 4.168 29.3526 3.856 30.2646 3.856C31.0966 3.856 31.7926 4.104 32.3526 4.6C32.9126 5.08 33.2726 5.736 33.4326 6.568C33.0646 6.712 32.6726 6.824 32.2566 6.904ZM40.6326 19H39.4566C38.1926 19 37.3766 18.944 37.0086 18.832C36.1766 18.576 35.7286 18.048 35.6646 17.248C35.5366 15.632 36.3926 14.824 38.2326 14.824C39.7046 14.824 40.5206 15.44 40.6806 16.672V17.704C42.0886 17.704 42.8486 17.464 42.9606 16.984C43.0726 16.44 42.5286 15.864 41.3286 15.256C40.9766 15.08 40.1286 14.672 38.7846 14.032C37.8086 13.568 37.3206 12.92 37.3206 12.088C37.3206 10.856 38.1926 10.24 39.9366 10.24C40.4646 10.24 40.9366 10.32 41.3526 10.48C42.1366 10.784 42.5286 11.224 42.5286 11.8C42.5286 11.928 42.4566 12.064 42.3126 12.208H40.9926C41.0886 12.08 41.1366 11.976 41.1366 11.896C41.1366 11.848 41.1206 11.784 41.0886 11.704C40.9446 11.656 40.5606 11.608 39.9366 11.56C39.0886 11.496 38.6646 11.688 38.6646 12.136C38.6646 12.392 39.1686 12.752 40.1766 13.216L41.4486 13.792C43.4006 14.672 44.3766 15.696 44.3766 16.864C44.3766 18.288 43.1286 19 40.6326 19ZM39.1446 16.432C38.9366 16.224 38.6246 16.12 38.2086 16.12C37.8886 16.12 37.6006 16.224 37.3446 16.432C37.0886 16.624 36.9766 16.872 37.0086 17.176C37.0406 17.56 37.8326 17.736 39.3846 17.704C39.3686 17 39.2886 16.576 39.1446 16.432ZM39.9906 10.36C39.0786 10.36 38.3106 10.048 37.6866 9.424C37.0626 8.784 36.7506 8.008 36.7506 7.096C36.7506 6.184 37.0706 5.416 37.7106 4.792C38.3346 4.168 39.1026 3.856 40.0146 3.856C40.9266 3.856 41.6866 4.168 42.2946 4.792C42.9026 5.416 43.2066 6.184 43.2066 7.096C43.2066 7.976 42.8946 8.744 42.2706 9.4C41.6306 10.04 40.8706 10.36 39.9906 10.36ZM39.9906 5.152C39.4146 5.152 38.9506 5.336 38.5986 5.704C38.2306 6.056 38.0466 6.52 38.0466 7.096C38.0466 7.64 38.2306 8.096 38.5986 8.464C38.9506 8.816 39.3986 8.992 39.9426 8.992C40.5026 8.992 40.9666 8.816 41.3346 8.464C41.6866 8.112 41.8626 7.656 41.8626 7.096C41.8626 6.536 41.6946 6.072 41.3586 5.704C41.0066 5.336 40.5506 5.152 39.9906 5.152ZM39.9906 25.48C39.5746 25.48 39.3666 25.224 39.3666 24.712V18.928H40.6386V24.16H41.9586V25.48H39.9906ZM53.6466 16.744C53.3426 17.416 52.8066 17.96 52.0386 18.376C51.3346 18.776 50.5906 18.976 49.8066 18.976C48.5266 18.976 47.4706 18.568 46.6386 17.752C45.8226 16.92 45.4146 15.864 45.4146 14.584C45.4146 13.304 45.8226 12.256 46.6386 11.44C47.4706 10.624 48.5266 10.216 49.8066 10.216C51.5186 10.216 52.8946 11.16 53.9346 13.048L52.8066 13.672C51.9906 12.248 50.9906 11.536 49.8066 11.536C48.9266 11.536 48.1986 11.824 47.6226 12.4C47.0466 12.976 46.7586 13.704 46.7586 14.584C46.7586 15.464 47.0466 16.192 47.6226 16.768C48.1986 17.344 48.9266 17.632 49.8066 17.632C50.9906 17.632 51.9906 16.92 52.8066 15.496L53.9346 16.12L53.6466 16.744ZM51.7566 6.904C51.7246 6.92 51.6926 6.928 51.6606 6.928C51.6286 6.928 51.6126 6.912 51.6126 6.88C51.5646 6.368 51.3726 5.952 51.0366 5.632C50.6846 5.312 50.2526 5.152 49.7406 5.152C49.1646 5.152 48.7006 5.336 48.3486 5.704C47.9806 6.056 47.7966 6.52 47.7966 7.096C47.7966 7.64 47.9806 8.096 48.3486 8.464C48.7006 8.816 49.1486 8.992 49.6926 8.992C49.8046 8.992 49.9806 8.976 50.2206 8.944V10.336C50.0286 10.352 49.8686 10.36 49.7406 10.36C48.8286 10.36 48.0606 10.048 47.4366 9.424C46.8126 8.784 46.5006 8.008 46.5006 7.096C46.5006 6.184 46.8206 5.416 47.4606 4.792C48.0846 4.168 48.8526 3.856 49.7646 3.856C50.5966 3.856 51.2926 4.104 51.8526 4.6C52.4126 5.08 52.7726 5.736 52.9326 6.568C52.5646 6.712 52.1726 6.824 51.7566 6.904ZM62.5566 13.672C61.7406 12.248 60.7406 11.536 59.5566 11.536C58.6766 11.536 57.9486 11.824 57.3726 12.4C56.7966 12.976 56.5086 13.704 56.5086 14.584C56.5086 15.896 57.1406 16.848 58.4046 17.44C58.5166 16.176 59.0686 15.272 60.0606 14.728C60.5566 14.456 61.0846 14.32 61.6446 14.32C62.2046 14.32 62.6606 14.448 63.0126 14.704C63.4286 15.008 63.6366 15.424 63.6366 15.952C63.6366 16.288 63.4286 16.744 63.0126 17.32C62.2126 18.424 61.0606 18.976 59.5566 18.976C58.2766 18.976 57.2206 18.568 56.3886 17.752C55.5726 16.92 55.1646 15.864 55.1646 14.584C55.1646 13.304 55.5726 12.256 56.3886 11.44C57.2206 10.624 58.2766 10.216 59.5566 10.216C61.2686 10.216 62.6446 11.16 63.6846 13.048L62.5566 13.672ZM61.5246 15.592C60.9326 15.592 60.4366 15.784 60.0366 16.168C59.6366 16.552 59.4286 17.04 59.4126 17.632H59.5566C60.5006 17.632 61.2766 17.304 61.8846 16.648C61.9806 16.488 62.1006 16.312 62.2446 16.12C62.2606 16.04 62.2686 15.976 62.2686 15.928C62.2686 15.704 62.0206 15.592 61.5246 15.592ZM76.7706 19.024C75.1706 19.024 73.9226 18.344 73.0266 16.984C72.1306 18.328 70.8826 19 69.2826 19C67.8426 19 66.5386 18.264 65.3706 16.792L66.4506 15.976C67.3626 17.112 68.3066 17.68 69.2826 17.68C70.1626 17.68 70.8906 17.424 71.4666 16.912C72.0586 16.384 72.3546 15.688 72.3546 14.824V14.344C72.3546 13.512 72.0506 12.84 71.4426 12.328C70.8506 11.816 70.1306 11.56 69.2826 11.56C68.1306 11.56 67.1386 12.248 66.3066 13.624L65.1546 12.952L65.4906 12.376C66.3226 10.952 67.5866 10.24 69.2826 10.24C70.5786 10.24 71.6426 10.648 72.4746 11.464C73.3066 12.264 73.7226 13.312 73.7226 14.608V14.848C73.7226 15.696 74.0106 16.384 74.5866 16.912C75.1786 17.44 75.9066 17.704 76.7706 17.704C77.6666 17.704 78.4106 17.416 79.0026 16.84C79.5946 16.248 79.8906 15.504 79.8906 14.608C79.8906 13.728 79.5866 13 78.9786 12.424C78.3866 11.848 77.6506 11.56 76.7706 11.56C76.4186 11.56 75.8506 11.704 75.0666 11.992L74.6346 10.72L75.2346 10.504C75.6826 10.344 76.1946 10.264 76.7706 10.264C78.0986 10.264 79.1706 10.656 79.9866 11.44C80.8026 12.224 81.2106 13.28 81.2106 14.608C81.2106 15.904 80.7946 16.968 79.9626 17.8C79.1306 18.616 78.0666 19.024 76.7706 19.024ZM84.4429 18.976C84.1869 18.976 83.7869 18.912 83.2429 18.784V17.416C83.7549 17.56 84.1549 17.632 84.4429 17.632C85.3389 17.632 86.0669 17.352 86.6269 16.792C87.2029 16.216 87.4909 15.48 87.4909 14.584C87.4909 13.72 87.1949 13 86.6029 12.424C86.0269 11.832 85.3069 11.536 84.4429 11.536C83.0349 11.536 82.0589 12.312 81.5149 13.864C81.4989 13.944 81.4269 14.136 81.2989 14.44L80.1229 13.744L80.2189 13.408C80.8269 11.28 82.2349 10.216 84.4429 10.216C85.7069 10.216 86.7549 10.632 87.5869 11.464C88.4189 12.28 88.8349 13.32 88.8349 14.584C88.8349 15.88 88.4269 16.936 87.6109 17.752C86.7949 18.568 85.7389 18.976 84.4429 18.976ZM94.867 19H93.691C92.427 19 91.611 18.944 91.243 18.832C90.411 18.576 89.963 18.048 89.899 17.248C89.771 15.632 90.627 14.824 92.467 14.824C93.939 14.824 94.755 15.44 94.915 16.672V17.704C96.323 17.704 97.083 17.464 97.195 16.984C97.307 16.44 96.763 15.864 95.563 15.256C95.211 15.08 94.363 14.672 93.019 14.032C92.043 13.568 91.555 12.92 91.555 12.088C91.555 10.856 92.427 10.24 94.171 10.24C94.699 10.24 95.171 10.32 95.587 10.48C96.371 10.784 96.763 11.224 96.763 11.8C96.763 11.928 96.691 12.064 96.547 12.208H95.227C95.323 12.08 95.371 11.976 95.371 11.896C95.371 11.848 95.355 11.784 95.323 11.704C95.179 11.656 94.795 11.608 94.171 11.56C93.323 11.496 92.899 11.688 92.899 12.136C92.899 12.392 93.403 12.752 94.411 13.216L95.683 13.792C97.635 14.672 98.611 15.696 98.611 16.864C98.611 18.288 97.363 19 94.867 19ZM93.379 16.432C93.171 16.224 92.859 16.12 92.443 16.12C92.123 16.12 91.835 16.224 91.579 16.432C91.323 16.624 91.211 16.872 91.243 17.176C91.275 17.56 92.067 17.736 93.619 17.704C93.603 17 93.523 16.576 93.379 16.432ZM95.329 25.48C94.929 25.48 94.729 25.224 94.729 24.712V18.688H96.025V24.16H97.393V25.48H95.329ZM93.265 25.48H91.225V24.16H92.593V18.688H93.889V24.712C93.889 25.224 93.681 25.48 93.265 25.48ZM104.665 19.048L104.713 25.456L103.369 25.48V19.048C102.201 19.064 101.409 19.008 100.993 18.88C100.161 18.624 99.713 18.104 99.649 17.32C99.505 15.656 100.361 14.824 102.217 14.824C102.857 14.824 103.401 14.992 103.849 15.328C104.313 15.664 104.585 16.136 104.665 16.744V17.728C106.073 17.728 106.833 17.48 106.945 16.984C107.073 16.408 106.529 15.84 105.313 15.28C104.785 15.04 103.937 14.64 102.769 14.08C101.793 13.616 101.305 12.952 101.305 12.088C101.305 10.856 102.177 10.24 103.921 10.24C104.417 10.24 104.889 10.32 105.337 10.48C106.121 10.768 106.513 11.224 106.513 11.848C106.513 11.96 106.441 12.08 106.297 12.208H104.977C105.073 12.08 105.121 11.984 105.121 11.92C105.121 11.872 105.105 11.816 105.073 11.752C104.945 11.672 104.561 11.608 103.921 11.56C103.073 11.48 102.649 11.672 102.649 12.136C102.649 12.488 103.033 12.824 103.801 13.144C104.425 13.4 104.969 13.632 105.433 13.84C107.385 14.704 108.361 15.72 108.361 16.888C108.361 18.296 107.129 19.016 104.665 19.048ZM103.129 16.456C102.921 16.264 102.609 16.168 102.193 16.168C101.873 16.168 101.585 16.264 101.329 16.456C101.073 16.648 100.961 16.896 100.993 17.2C101.025 17.6 101.817 17.776 103.369 17.728C103.353 17.024 103.273 16.6 103.129 16.456ZM105.991 6.904C105.959 6.92 105.927 6.928 105.895 6.928C105.863 6.928 105.847 6.912 105.847 6.88C105.799 6.368 105.607 5.952 105.271 5.632C104.919 5.312 104.487 5.152 103.975 5.152C103.399 5.152 102.935 5.336 102.583 5.704C102.215 6.056 102.031 6.52 102.031 7.096C102.031 7.64 102.215 8.096 102.583 8.464C102.935 8.816 103.383 8.992 103.927 8.992C104.039 8.992 104.215 8.976 104.455 8.944V10.336C104.263 10.352 104.103 10.36 103.975 10.36C103.063 10.36 102.295 10.048 101.671 9.424C101.047 8.784 100.735 8.008 100.735 7.096C100.735 6.184 101.055 5.416 101.695 4.792C102.319 4.168 103.087 3.856 103.999 3.856C104.831 3.856 105.527 4.104 106.087 4.6C106.647 5.08 107.007 5.736 107.167 6.568C106.799 6.712 106.407 6.824 105.991 6.904ZM111.031 14.056C110.535 14.056 110.127 13.896 109.807 13.576C109.503 13.256 109.351 12.848 109.351 12.352C109.351 11.872 109.511 11.472 109.831 11.152C110.151 10.816 110.551 10.648 111.031 10.648C111.511 10.648 111.911 10.816 112.231 11.152C112.551 11.472 112.711 11.872 112.711 12.352C112.711 12.848 112.551 13.256 112.231 13.576C111.927 13.896 111.527 14.056 111.031 14.056ZM111.031 18.688C110.535 18.688 110.127 18.528 109.807 18.208C109.503 17.888 109.351 17.48 109.351 16.984C109.351 16.504 109.511 16.104 109.831 15.784C110.151 15.448 110.551 15.28 111.031 15.28C111.527 15.28 111.927 15.44 112.231 15.76C112.551 16.08 112.711 16.488 112.711 16.984C112.711 17.48 112.551 17.888 112.231 18.208C111.927 18.528 111.527 18.688 111.031 18.688ZM111.031 11.8C110.695 11.8 110.527 11.984 110.527 12.352C110.527 12.688 110.695 12.856 111.031 12.856C111.399 12.856 111.583 12.688 111.583 12.352C111.583 11.984 111.399 11.8 111.031 11.8ZM111.031 16.456C110.695 16.456 110.527 16.632 110.527 16.984C110.527 17.352 110.695 17.536 111.031 17.536C111.399 17.536 111.583 17.352 111.583 16.984C111.583 16.632 111.399 16.456 111.031 16.456ZM125.592 18.976C123.992 18.976 122.744 18.288 121.848 16.912C120.936 18.288 119.68 18.976 118.08 18.976C116.8 18.976 115.744 18.568 114.912 17.752C114.08 16.92 113.663 15.864 113.663 14.584C113.663 13.272 114.072 12.216 114.888 11.416C115.704 10.616 116.768 10.216 118.08 10.216C119.68 10.216 120.936 10.896 121.848 12.256C122.744 10.896 123.992 10.216 125.592 10.216C126.888 10.216 127.944 10.624 128.76 11.44C129.592 12.24 130.008 13.288 130.008 14.584C130.008 15.864 129.592 16.92 128.76 17.752C127.928 18.568 126.872 18.976 125.592 18.976ZM125.592 11.536C124.696 11.536 123.96 11.824 123.384 12.4C122.824 12.96 122.544 13.688 122.544 14.584C122.544 15.464 122.832 16.192 123.408 16.768C123.984 17.344 124.712 17.632 125.592 17.632C126.488 17.632 127.224 17.352 127.799 16.792C128.391 16.216 128.688 15.48 128.688 14.584C128.688 13.72 128.384 13 127.776 12.424C127.184 11.832 126.456 11.536 125.592 11.536ZM118.08 11.536C117.2 11.536 116.464 11.824 115.872 12.4C115.28 12.976 114.984 13.704 114.984 14.584C114.984 15.464 115.28 16.192 115.872 16.768C116.464 17.344 117.2 17.632 118.08 17.632C118.96 17.632 119.688 17.344 120.264 16.768C120.84 16.192 121.128 15.464 121.128 14.584C121.128 13.704 120.84 12.976 120.264 12.4C119.688 11.824 118.96 11.536 118.08 11.536ZM133.24 18.976C132.984 18.976 132.584 18.912 132.04 18.784V17.416C132.552 17.56 132.952 17.632 133.24 17.632C134.136 17.632 134.864 17.352 135.424 16.792C136 16.216 136.288 15.48 136.288 14.584C136.288 13.72 135.992 13 135.4 12.424C134.824 11.832 134.104 11.536 133.24 11.536C131.832 11.536 130.856 12.312 130.312 13.864C130.296 13.944 130.224 14.136 130.096 14.44L128.92 13.744L129.016 13.408C129.624 11.28 131.032 10.216 133.24 10.216C134.504 10.216 135.552 10.632 136.384 11.464C137.216 12.28 137.632 13.32 137.632 14.584C137.632 15.88 137.224 16.936 136.408 17.752C135.592 18.568 134.536 18.976 133.24 18.976ZM140.328 14.056C139.832 14.056 139.424 13.896 139.104 13.576C138.8 13.256 138.648 12.848 138.648 12.352C138.648 11.872 138.808 11.472 139.128 11.152C139.448 10.816 139.848 10.648 140.328 10.648C140.808 10.648 141.208 10.816 141.528 11.152C141.848 11.472 142.008 11.872 142.008 12.352C142.008 12.848 141.848 13.256 141.528 13.576C141.224 13.896 140.824 14.056 140.328 14.056ZM140.328 18.688C139.832 18.688 139.424 18.528 139.104 18.208C138.8 17.888 138.648 17.48 138.648 16.984C138.648 16.504 138.808 16.104 139.128 15.784C139.448 15.448 139.848 15.28 140.328 15.28C140.824 15.28 141.224 15.44 141.528 15.76C141.848 16.08 142.008 16.488 142.008 16.984C142.008 17.48 141.848 17.888 141.528 18.208C141.224 18.528 140.824 18.688 140.328 18.688ZM140.328 11.8C139.992 11.8 139.824 11.984 139.824 12.352C139.824 12.688 139.992 12.856 140.328 12.856C140.696 12.856 140.88 12.688 140.88 12.352C140.88 11.984 140.696 11.8 140.328 11.8ZM140.328 16.456C139.992 16.456 139.824 16.632 139.824 16.984C139.824 17.352 139.992 17.536 140.328 17.536C140.696 17.536 140.88 17.352 140.88 16.984C140.88 16.632 140.696 16.456 140.328 16.456ZM147.376 19C146.08 19 145.016 18.592 144.184 17.776C143.368 16.96 142.96 15.904 142.96 14.608C142.96 12.8 143.808 11.48 145.504 10.648L146.344 11.656C144.968 12.504 144.28 13.488 144.28 14.608C144.28 15.28 144.472 15.888 144.856 16.432C145.56 15.664 146.4 15.264 147.376 15.232C148.336 15.2 149.208 15.528 149.992 16.216C150.28 15.72 150.424 15.184 150.424 14.608C150.424 13.504 149.736 12.528 148.36 11.68L149.272 10.696L149.656 10.888C151.032 11.576 151.72 12.816 151.72 14.608C151.72 15.888 151.312 16.944 150.496 17.776C149.696 18.592 148.656 19 147.376 19ZM147.4 16.336C146.696 16.432 146.128 16.72 145.696 17.2C146.224 17.52 146.784 17.68 147.376 17.68C148.032 17.68 148.648 17.456 149.224 17.008C148.728 16.608 148.12 16.384 147.4 16.336ZM153.214 25.432C153.118 25.432 152.998 25.416 152.854 25.384L150.598 24.904C149.91 24.76 149.558 24.432 149.542 23.92L149.518 23.224V17.056H150.838V23.536L152.662 23.968V10.24H153.982V24.712C153.982 25.192 153.726 25.432 153.214 25.432ZM157.193 18.976C156.937 18.976 156.537 18.912 155.993 18.784V17.416C156.505 17.56 156.905 17.632 157.193 17.632C158.089 17.632 158.817 17.352 159.377 16.792C159.953 16.216 160.241 15.48 160.241 14.584C160.241 13.72 159.945 13 159.353 12.424C158.777 11.832 158.057 11.536 157.193 11.536C155.785 11.536 154.809 12.312 154.265 13.864C154.249 13.944 154.177 14.136 154.049 14.44L152.873 13.744L152.969 13.408C153.577 11.28 154.985 10.216 157.193 10.216C158.457 10.216 159.505 10.632 160.337 11.464C161.169 12.28 161.585 13.32 161.585 14.584C161.585 15.88 161.177 16.936 160.361 17.752C159.545 18.568 158.489 18.976 157.193 18.976ZM164.281 14.056C163.785 14.056 163.377 13.896 163.057 13.576C162.753 13.256 162.601 12.848 162.601 12.352C162.601 11.872 162.761 11.472 163.081 11.152C163.401 10.816 163.801 10.648 164.281 10.648C164.761 10.648 165.161 10.816 165.481 11.152C165.801 11.472 165.961 11.872 165.961 12.352C165.961 12.848 165.801 13.256 165.481 13.576C165.177 13.896 164.777 14.056 164.281 14.056ZM164.281 18.688C163.785 18.688 163.377 18.528 163.057 18.208C162.753 17.888 162.601 17.48 162.601 16.984C162.601 16.504 162.761 16.104 163.081 15.784C163.401 15.448 163.801 15.28 164.281 15.28C164.777 15.28 165.177 15.44 165.481 15.76C165.801 16.08 165.961 16.488 165.961 16.984C165.961 17.48 165.801 17.888 165.481 18.208C165.177 18.528 164.777 18.688 164.281 18.688ZM164.281 11.8C163.945 11.8 163.777 11.984 163.777 12.352C163.777 12.688 163.945 12.856 164.281 12.856C164.649 12.856 164.833 12.688 164.833 12.352C164.833 11.984 164.649 11.8 164.281 11.8ZM164.281 16.456C163.945 16.456 163.777 16.632 163.777 16.984C163.777 17.352 163.945 17.536 164.281 17.536C164.649 17.536 164.833 17.352 164.833 16.984C164.833 16.632 164.649 16.456 164.281 16.456Z" fill="white"/>
<path d="M3.38281 48.543L1.78125 47.9961L3.92969 42.9766L5.14062 43.2891L3.38281 48.543ZM6.89844 48.543L5.29688 47.9961L7.44531 42.9766L8.65625 43.2891L6.89844 48.543ZM19.3575 56.98C18.8642 56.98 18.3375 56.86 17.7775 56.62L18.1975 55.62C18.7042 55.78 19.0908 55.86 19.3575 55.86C20.1042 55.86 20.7175 55.6267 21.1975 55.16C21.6908 54.68 21.9375 54.0667 21.9375 53.32C21.9375 52.6 21.6842 52 21.1775 51.52C20.6842 51.0267 20.0775 50.78 19.3575 50.78C18.6108 50.78 17.9975 51.02 17.5175 51.5C17.0508 51.9667 16.8175 52.5733 16.8175 53.32V53.44L16.7975 53.48C16.7442 54.5467 16.3775 55.4 15.6975 56.04C15.0308 56.6667 14.1642 56.98 13.0975 56.98C12.0308 56.98 11.1508 56.64 10.4575 55.96C9.76417 55.2667 9.4175 54.3867 9.4175 53.32C9.4175 52.2267 9.7575 51.3467 10.4375 50.68C11.1175 50.0133 12.0042 49.68 13.0975 49.68C14.4308 49.68 15.4775 50.2467 16.2375 51.38C16.9842 50.2467 18.0242 49.68 19.3575 49.68C20.4375 49.68 21.3175 50.02 21.9975 50.7C22.6908 51.3667 23.0375 52.24 23.0375 53.32C23.0375 54.3867 22.6908 55.2667 21.9975 55.96C21.3042 56.64 20.4242 56.98 19.3575 56.98ZM13.0975 50.78C12.3642 50.78 11.7508 51.02 11.2575 51.5C10.7642 51.98 10.5175 52.5867 10.5175 53.32C10.5175 54.0533 10.7642 54.66 11.2575 55.14C11.7508 55.62 12.3642 55.86 13.0975 55.86C13.8308 55.86 14.4375 55.62 14.9175 55.14C15.3975 54.66 15.6375 54.0533 15.6375 53.32C15.6375 52.5867 15.3975 51.98 14.9175 51.5C14.4375 51.02 13.8308 50.78 13.0975 50.78ZM27.4911 57C26.4378 57 25.5644 56.6533 24.8711 55.96C24.1911 55.2667 23.8511 54.3933 23.8511 53.34C23.8511 52.2867 24.1911 51.42 24.8711 50.74C25.5644 50.0467 26.4378 49.7 27.4911 49.7C28.5578 49.7 29.4311 50.04 30.1111 50.72C30.8044 51.4 31.1511 52.2733 31.1511 53.34C31.1511 54.3933 30.8044 55.2667 30.1111 55.96C29.4178 56.6533 28.5444 57 27.4911 57ZM27.4911 50.8C27.0378 50.8 26.6044 50.92 26.1911 51.16C26.7378 51.76 27.0111 52.4867 27.0111 53.34C26.9311 54.18 26.5911 54.8733 25.9911 55.42C26.4444 55.74 26.9444 55.9 27.4911 55.9C28.2244 55.9 28.8378 55.66 29.3311 55.18C29.8244 54.6867 30.0711 54.0733 30.0711 53.34C30.0711 52.6067 29.8244 52 29.3311 51.52C28.8378 51.04 28.2244 50.8 27.4911 50.8ZM25.5111 51.78C25.1378 52.26 24.9511 52.78 24.9511 53.34C24.9511 53.82 25.0844 54.2733 25.3511 54.7C25.7378 54.3533 25.9778 53.8867 26.0711 53.3C26.0178 52.7133 25.8311 52.2067 25.5111 51.78ZM29.1761 46.92C29.1494 46.9333 29.1228 46.94 29.0961 46.94C29.0694 46.94 29.0561 46.9267 29.0561 46.9C29.0161 46.4733 28.8561 46.1267 28.5761 45.86C28.2828 45.5933 27.9228 45.46 27.4961 45.46C27.0161 45.46 26.6294 45.6133 26.3361 45.92C26.0294 46.2133 25.8761 46.6 25.8761 47.08C25.8761 47.5333 26.0294 47.9133 26.3361 48.22C26.6294 48.5133 27.0028 48.66 27.4561 48.66C27.5494 48.66 27.6961 48.6467 27.8961 48.62V49.78C27.7361 49.7933 27.6028 49.8 27.4961 49.8C26.7361 49.8 26.0961 49.54 25.5761 49.02C25.0561 48.4867 24.7961 47.84 24.7961 47.08C24.7961 46.32 25.0628 45.68 25.5961 45.16C26.1161 44.64 26.7561 44.38 27.5161 44.38C28.2094 44.38 28.7894 44.5867 29.2561 45C29.7228 45.4 30.0228 45.9467 30.1561 46.64C29.8494 46.76 29.5228 46.8533 29.1761 46.92ZM39.3761 53.7H39.3161C39.2494 55.0333 38.4561 56.1267 36.9361 56.98L36.4361 56.04C37.6094 55.36 38.1961 54.52 38.1961 53.52C38.1961 52.7867 37.9561 52.18 37.4761 51.7C36.9961 51.22 36.3894 50.98 35.6561 50.98C34.9228 50.98 34.3094 51.22 33.8161 51.7C33.3228 52.18 33.0761 52.7867 33.0761 53.52C33.0761 54.5333 33.6961 55.3733 34.9361 56.04L34.3961 57L33.9161 56.74C32.6228 56.0333 31.9761 54.96 31.9761 53.52C31.9761 52.4267 32.3161 51.5467 32.9961 50.88C33.6761 50.2133 34.5628 49.88 35.6561 49.88C36.9894 49.88 38.0361 50.4467 38.7961 51.58C39.5428 50.4467 40.5828 49.88 41.9161 49.88C42.9961 49.88 43.8761 50.22 44.5561 50.9C45.2494 51.5667 45.5961 52.44 45.5961 53.52C45.5961 54.5867 45.2494 55.4667 44.5561 56.16C43.8628 56.84 42.9828 57.18 41.9161 57.18C41.5961 57.18 41.2761 57.14 40.9561 57.06C40.9828 56.82 41.0494 56.4533 41.1561 55.96C41.5294 56.0267 41.7828 56.06 41.9161 56.06C42.6628 56.06 43.2761 55.8267 43.7561 55.36C44.2494 54.88 44.4961 54.2667 44.4961 53.52C44.4961 52.8 44.2428 52.2 43.7361 51.72C43.2428 51.2267 42.6361 50.98 41.9161 50.98C41.1694 50.98 40.5561 51.22 40.0761 51.7C39.6094 52.1667 39.3761 52.7733 39.3761 53.52V53.7ZM41.9297 49.8C41.1697 49.8 40.5297 49.54 40.0097 49.02C39.4897 48.4867 39.2297 47.84 39.2297 47.08C39.2297 46.32 39.4964 45.68 40.0297 45.16C40.5497 44.64 41.1897 44.38 41.9497 44.38C42.7097 44.38 43.343 44.64 43.8497 45.16C44.3564 45.68 44.6097 46.32 44.6097 47.08C44.6097 47.8133 44.3497 48.4533 43.8297 49C43.2964 49.5333 42.663 49.8 41.9297 49.8ZM41.9297 45.46C41.4497 45.46 41.063 45.6133 40.7697 45.92C40.463 46.2133 40.3097 46.6 40.3097 47.08C40.3097 47.2133 40.323 47.3667 40.3497 47.54C40.803 47.1933 41.303 46.9933 41.8497 46.94C42.3964 46.94 42.9297 47.1133 43.4497 47.46C43.4764 47.3 43.4897 47.1733 43.4897 47.08C43.4897 46.6133 43.3497 46.2267 43.0697 45.92C42.7764 45.6133 42.3964 45.46 41.9297 45.46ZM41.8697 47.82C41.483 47.86 41.1364 48.0067 40.8297 48.26C41.1497 48.5267 41.503 48.66 41.8897 48.66C42.3164 48.66 42.6964 48.5 43.0297 48.18C42.6964 47.9533 42.3097 47.8333 41.8697 47.82ZM56.3497 57C55.2164 57 54.3097 56.6733 53.6297 56.02C52.963 55.3667 52.6297 54.4733 52.6297 53.34C52.6297 52.6067 52.3897 52 51.9097 51.52C51.4297 51.04 50.823 50.8 50.0897 50.8C49.3697 50.8 48.7564 51.0467 48.2497 51.54C47.7564 52.02 47.5097 52.62 47.5097 53.34C47.5097 54.1267 47.7564 54.7733 48.2497 55.28C48.7564 55.7733 49.403 56 50.1897 55.96L50.0097 57.06L49.4697 56.96C48.5497 56.7867 47.8097 56.3733 47.2497 55.72C46.6897 55.0667 46.4097 54.2733 46.4097 53.34C46.4097 52.2733 46.7564 51.4 47.4497 50.72C48.143 50.04 49.023 49.7 50.0897 49.7C51.1697 49.7 52.0564 50.04 52.7497 50.72C53.443 51.3867 53.7897 52.26 53.7897 53.34C53.7897 54.0867 54.0297 54.7 54.5097 55.18C54.9897 55.66 55.603 55.9 56.3497 55.9C57.083 55.9 57.6964 55.66 58.1897 55.18C58.683 54.6867 58.9297 54.0733 58.9297 53.34C58.9297 52.6067 58.683 52 58.1897 51.52C57.6964 51.04 57.083 50.8 56.3497 50.8C56.0964 50.8 55.703 50.8933 55.1697 51.08L55.2497 49.84C55.623 49.7467 55.9897 49.7 56.3497 49.7C57.4164 49.7 58.2964 50.04 58.9897 50.72C59.683 51.4 60.0297 52.2733 60.0297 53.34C60.0297 54.42 59.683 55.3 58.9897 55.98C58.3097 56.66 57.4297 57 56.3497 57ZM56.3633 49.8C55.6033 49.8 54.9633 49.54 54.4433 49.02C53.9233 48.4867 53.6633 47.84 53.6633 47.08C53.6633 46.32 53.9299 45.68 54.4633 45.16C54.9833 44.64 55.6233 44.38 56.3833 44.38C57.1433 44.38 57.7766 44.64 58.2833 45.16C58.7899 45.68 59.0433 46.32 59.0433 47.08C59.0433 47.8133 58.7833 48.4533 58.2633 49C57.7299 49.5333 57.0966 49.8 56.3633 49.8ZM56.3633 45.46C55.8833 45.46 55.4966 45.6133 55.2033 45.92C54.8966 46.2133 54.7433 46.6 54.7433 47.08C54.7433 47.5333 54.8966 47.9133 55.2033 48.22C55.4966 48.5133 55.8699 48.66 56.3233 48.66C56.7899 48.66 57.1766 48.5133 57.4833 48.22C57.7766 47.9267 57.9233 47.5467 57.9233 47.08C57.9233 46.6133 57.7833 46.2267 57.5033 45.92C57.2099 45.6133 56.8299 45.46 56.3633 45.46ZM56.3633 62.4C56.0166 62.4 55.8433 62.1867 55.8433 61.76V56.94H56.9033V61.3H58.0033V62.4H56.3633ZM64.5233 57C63.4433 57 62.5566 56.66 61.8633 55.98C61.1833 55.3 60.8433 54.42 60.8433 53.34C60.8433 51.8333 61.5499 50.7333 62.9633 50.04L63.6633 50.88C62.5166 51.5867 61.9433 52.4067 61.9433 53.34C61.9433 53.9 62.1033 54.4067 62.4233 54.86C63.0099 54.22 63.7099 53.8867 64.5233 53.86C65.3233 53.8333 66.0499 54.1067 66.7033 54.68C66.9433 54.2667 67.0633 53.82 67.0633 53.34C67.0633 52.42 66.4899 51.6067 65.3433 50.9L66.1033 50.08L66.4233 50.24C67.5699 50.8133 68.1433 51.8467 68.1433 53.34C68.1433 54.4067 67.8033 55.2867 67.1233 55.98C66.4566 56.66 65.5899 57 64.5233 57ZM64.5433 54.78C63.9566 54.86 63.4833 55.1 63.1233 55.5C63.5633 55.7667 64.0299 55.9 64.5233 55.9C65.0699 55.9 65.5833 55.7133 66.0633 55.34C65.6499 55.0067 65.1433 54.82 64.5433 54.78ZM64.4883 49.8C63.7283 49.8 63.0883 49.54 62.5683 49.02C62.0483 48.4867 61.7883 47.84 61.7883 47.08C61.7883 46.32 62.0549 45.68 62.5883 45.16C63.1083 44.64 63.7483 44.38 64.5083 44.38C65.2683 44.38 65.9016 44.64 66.4083 45.16C66.9149 45.68 67.1683 46.32 67.1683 47.08C67.1683 47.8133 66.9083 48.4533 66.3883 49C65.8549 49.5333 65.2216 49.8 64.4883 49.8ZM64.4883 45.46C64.0083 45.46 63.6216 45.6133 63.3283 45.92C63.0216 46.2133 62.8683 46.6 62.8683 47.08C62.8683 47.2133 62.8816 47.3667 62.9083 47.54C63.3616 47.1933 63.8616 46.9933 64.4083 46.94C64.9549 46.94 65.4883 47.1133 66.0083 47.46C66.0349 47.3 66.0483 47.1733 66.0483 47.08C66.0483 46.6133 65.9083 46.2267 65.6283 45.92C65.3349 45.6133 64.9549 45.46 64.4883 45.46ZM64.4283 47.82C64.0416 47.86 63.6949 48.0067 63.3883 48.26C63.7083 48.5267 64.0616 48.66 64.4483 48.66C64.8749 48.66 65.2549 48.5 65.5883 48.18C65.2549 47.9533 64.8683 47.8333 64.4283 47.82ZM78.9083 56.98C78.4149 56.98 77.8883 56.86 77.3283 56.62L77.7483 55.62C78.2549 55.78 78.6416 55.86 78.9083 55.86C79.6549 55.86 80.2683 55.6267 80.7483 55.16C81.2416 54.68 81.4883 54.0667 81.4883 53.32C81.4883 52.6 81.2349 52 80.7283 51.52C80.2349 51.0267 79.6283 50.78 78.9083 50.78C78.1616 50.78 77.5483 51.02 77.0683 51.5C76.6016 51.9667 76.3683 52.5733 76.3683 53.32V53.44L76.3483 53.48C76.2949 54.5467 75.9283 55.4 75.2483 56.04C74.5816 56.6667 73.7149 56.98 72.6483 56.98C71.5816 56.98 70.7016 56.64 70.0083 55.96C69.3149 55.2667 68.9683 54.3867 68.9683 53.32C68.9683 52.2267 69.3083 51.3467 69.9883 50.68C70.6683 50.0133 71.5549 49.68 72.6483 49.68C73.9816 49.68 75.0283 50.2467 75.7883 51.38C76.5349 50.2467 77.5749 49.68 78.9083 49.68C79.9883 49.68 80.8683 50.02 81.5483 50.7C82.2416 51.3667 82.5883 52.24 82.5883 53.32C82.5883 54.3867 82.2416 55.2667 81.5483 55.96C80.8549 56.64 79.9749 56.98 78.9083 56.98ZM72.6483 50.78C71.9149 50.78 71.3016 51.02 70.8083 51.5C70.3149 51.98 70.0683 52.5867 70.0683 53.32C70.0683 54.0533 70.3149 54.66 70.8083 55.14C71.3016 55.62 71.9149 55.86 72.6483 55.86C73.3816 55.86 73.9883 55.62 74.4683 55.14C74.9483 54.66 75.1883 54.0533 75.1883 53.32C75.1883 52.5867 74.9483 51.98 74.4683 51.5C73.9883 51.02 73.3816 50.78 72.6483 50.78ZM85.2819 56.98C85.0685 56.98 84.7352 56.9267 84.2819 56.82V55.68C84.7085 55.8 85.0419 55.86 85.2819 55.86C86.0285 55.86 86.6352 55.6267 87.1019 55.16C87.5819 54.68 87.8219 54.0667 87.8219 53.32C87.8219 52.6 87.5752 52 87.0819 51.52C86.6019 51.0267 86.0019 50.78 85.2819 50.78C84.1085 50.78 83.2952 51.4267 82.8419 52.72C82.8285 52.7867 82.7685 52.9467 82.6619 53.2L81.6819 52.62L81.7619 52.34C82.2685 50.5667 83.4419 49.68 85.2819 49.68C86.3352 49.68 87.2085 50.0267 87.9019 50.72C88.5952 51.4 88.9419 52.2667 88.9419 53.32C88.9419 54.4 88.6019 55.28 87.9219 55.96C87.2419 56.64 86.3619 56.98 85.2819 56.98ZM99.7286 57C98.5953 57 97.6886 56.6733 97.0086 56.02C96.3419 55.3667 96.0086 54.4733 96.0086 53.34C96.0086 52.6067 95.7686 52 95.2886 51.52C94.8086 51.04 94.2019 50.8 93.4686 50.8C92.7486 50.8 92.1353 51.0467 91.6286 51.54C91.1353 52.02 90.8886 52.62 90.8886 53.34C90.8886 54.1267 91.1353 54.7733 91.6286 55.28C92.1353 55.7733 92.7819 56 93.5686 55.96L93.3886 57.06L92.8486 56.96C91.9286 56.7867 91.1886 56.3733 90.6286 55.72C90.0686 55.0667 89.7886 54.2733 89.7886 53.34C89.7886 52.2733 90.1353 51.4 90.8286 50.72C91.5219 50.04 92.4019 49.7 93.4686 49.7C94.5486 49.7 95.4353 50.04 96.1286 50.72C96.8219 51.3867 97.1686 52.26 97.1686 53.34C97.1686 54.0867 97.4086 54.7 97.8886 55.18C98.3686 55.66 98.9819 55.9 99.7286 55.9C100.462 55.9 101.075 55.66 101.569 55.18C102.062 54.6867 102.309 54.0733 102.309 53.34C102.309 52.6067 102.062 52 101.569 51.52C101.075 51.04 100.462 50.8 99.7286 50.8C99.4753 50.8 99.0819 50.8933 98.5486 51.08L98.6286 49.84C99.0019 49.7467 99.3686 49.7 99.7286 49.7C100.795 49.7 101.675 50.04 102.369 50.72C103.062 51.4 103.409 52.2733 103.409 53.34C103.409 54.42 103.062 55.3 102.369 55.98C101.689 56.66 100.809 57 99.7286 57ZM104.622 62.36C104.529 62.36 104.422 62.3467 104.302 62.32L102.402 61.92C101.842 61.8 101.556 61.5267 101.542 61.1L101.522 60.52V55.38H102.622V60.78L104.162 61.14V50.2H105.282V61.76C105.282 62.16 105.062 62.36 104.622 62.36ZM100.342 62.4H98.6222V61.3H99.7622V56.9H100.862V61.76C100.862 62.1867 100.689 62.4 100.342 62.4ZM112.978 55.12C112.724 55.68 112.278 56.1333 111.638 56.48C111.051 56.8133 110.431 56.98 109.778 56.98C108.711 56.98 107.831 56.64 107.138 55.96C106.458 55.2667 106.118 54.3867 106.118 53.32C106.118 52.2533 106.458 51.38 107.138 50.7C107.831 50.02 108.711 49.68 109.778 49.68C111.204 49.68 112.351 50.4667 113.218 52.04L112.278 52.56C111.598 51.3733 110.764 50.78 109.778 50.78C109.044 50.78 108.438 51.02 107.958 51.5C107.478 51.98 107.238 52.5867 107.238 53.32C107.238 54.0533 107.478 54.66 107.958 55.14C108.438 55.62 109.044 55.86 109.778 55.86C110.764 55.86 111.598 55.2667 112.278 54.08L113.218 54.6L112.978 55.12ZM111.403 46.92C111.376 46.9333 111.349 46.94 111.323 46.94C111.296 46.94 111.283 46.9267 111.283 46.9C111.243 46.4733 111.083 46.1267 110.803 45.86C110.509 45.5933 110.149 45.46 109.723 45.46C109.243 45.46 108.856 45.6133 108.563 45.92C108.256 46.2133 108.103 46.6 108.103 47.08C108.103 47.5333 108.256 47.9133 108.563 48.22C108.856 48.5133 109.229 48.66 109.683 48.66C109.776 48.66 109.923 48.6467 110.123 48.62V49.78C109.963 49.7933 109.829 49.8 109.723 49.8C108.963 49.8 108.323 49.54 107.803 49.02C107.283 48.4867 107.023 47.84 107.023 47.08C107.023 46.32 107.289 45.68 107.823 45.16C108.343 44.64 108.983 44.38 109.743 44.38C110.436 44.38 111.016 44.5867 111.483 45C111.949 45.4 112.249 45.9467 112.383 46.64C112.076 46.76 111.749 46.8533 111.403 46.92ZM119.667 57V49.4414C119.374 49.6953 119.071 49.8711 118.759 49.9688C118.446 50.0664 118.134 50.1445 117.821 50.2031V48.9434C118.388 48.7969 118.881 48.5576 119.301 48.2256C119.721 47.8936 120.067 47.5469 120.341 47.1855H120.985V57H119.667ZM117.719 57V55.8281H123.036V57H117.719ZM125.834 59.5928L124.926 59.3584L125.951 55.2715L127.152 55.6816L125.834 59.5928ZM133.202 57V54.832H128.72V54.3486C129.276 53.7529 129.867 53.0889 130.492 52.3564C131.127 51.624 131.747 50.8281 132.353 49.9688C132.968 49.0996 133.529 48.1719 134.037 47.1855H134.521V53.7188H136.059V54.832H134.521V57H133.202ZM130.771 53.7188H133.202V50.4082C132.812 51.0137 132.416 51.5996 132.016 52.166C131.615 52.7227 131.2 53.2402 130.771 53.7188ZM140.453 57.2197C139.828 57.2197 139.281 57.0732 138.812 56.7803C138.344 56.4873 137.958 56.0967 137.655 55.6084C137.353 55.1104 137.123 54.5586 136.967 53.9531C136.82 53.3379 136.747 52.7178 136.747 52.0928C136.747 51.458 136.82 50.8379 136.967 50.2324C137.123 49.627 137.353 49.0801 137.655 48.5918C137.958 48.0938 138.344 47.6982 138.812 47.4053C139.281 47.1123 139.828 46.9658 140.453 46.9658C141.088 46.9658 141.635 47.1123 142.094 47.4053C142.562 47.6982 142.948 48.0938 143.251 48.5918C143.554 49.0801 143.778 49.627 143.925 50.2324C144.081 50.8379 144.159 51.458 144.159 52.0928C144.159 52.7178 144.081 53.3379 143.925 53.9531C143.778 54.5586 143.554 55.1104 143.251 55.6084C142.948 56.0967 142.562 56.4873 142.094 56.7803C141.635 57.0732 141.088 57.2197 140.453 57.2197ZM140.453 55.9307C140.854 55.9307 141.205 55.8232 141.508 55.6084C141.82 55.3838 142.079 55.0908 142.284 54.7295C142.489 54.3584 142.646 53.9482 142.753 53.499C142.86 53.04 142.914 52.5713 142.914 52.0928C142.914 51.6143 142.86 51.1504 142.753 50.7012C142.646 50.2422 142.489 49.832 142.284 49.4707C142.079 49.0996 141.82 48.8066 141.508 48.5918C141.205 48.3672 140.854 48.2549 140.453 48.2549C140.053 48.2549 139.696 48.3672 139.384 48.5918C139.081 48.8066 138.827 49.0996 138.622 49.4707C138.417 49.832 138.261 50.2422 138.153 50.7012C138.046 51.1504 137.992 51.6143 137.992 52.0928C137.992 52.5713 138.046 53.04 138.153 53.499C138.261 53.9482 138.417 54.3584 138.622 54.7295C138.827 55.0908 139.081 55.3838 139.384 55.6084C139.696 55.8232 140.053 55.9307 140.453 55.9307ZM148.51 57.2197C147.885 57.2197 147.338 57.0732 146.869 56.7803C146.4 56.4873 146.015 56.0967 145.712 55.6084C145.409 55.1104 145.18 54.5586 145.023 53.9531C144.877 53.3379 144.804 52.7178 144.804 52.0928C144.804 51.458 144.877 50.8379 145.023 50.2324C145.18 49.627 145.409 49.0801 145.712 48.5918C146.015 48.0938 146.4 47.6982 146.869 47.4053C147.338 47.1123 147.885 46.9658 148.51 46.9658C149.145 46.9658 149.691 47.1123 150.15 47.4053C150.619 47.6982 151.005 48.0938 151.308 48.5918C151.61 49.0801 151.835 49.627 151.981 50.2324C152.138 50.8379 152.216 51.458 152.216 52.0928C152.216 52.7178 152.138 53.3379 151.981 53.9531C151.835 54.5586 151.61 55.1104 151.308 55.6084C151.005 56.0967 150.619 56.4873 150.15 56.7803C149.691 57.0732 149.145 57.2197 148.51 57.2197ZM148.51 55.9307C148.91 55.9307 149.262 55.8232 149.564 55.6084C149.877 55.3838 150.136 55.0908 150.341 54.7295C150.546 54.3584 150.702 53.9482 150.81 53.499C150.917 53.04 150.971 52.5713 150.971 52.0928C150.971 51.6143 150.917 51.1504 150.81 50.7012C150.702 50.2422 150.546 49.832 150.341 49.4707C150.136 49.0996 149.877 48.8066 149.564 48.5918C149.262 48.3672 148.91 48.2549 148.51 48.2549C148.109 48.2549 147.753 48.3672 147.44 48.5918C147.138 48.8066 146.884 49.0996 146.679 49.4707C146.474 49.832 146.317 50.2422 146.21 50.7012C146.103 51.1504 146.049 51.6143 146.049 52.0928C146.049 52.5713 146.103 53.04 146.21 53.499C146.317 53.9482 146.474 54.3584 146.679 54.7295C146.884 55.0908 147.138 55.3838 147.44 55.6084C147.753 55.8232 148.109 55.9307 148.51 55.9307ZM158.5 57V47.1855H158.91L163.1 51.6826L167.216 47.1855H167.626V57H166.308V49.8955L163.275 53.1328H162.924L159.818 49.8955V57H158.5ZM170.849 57V47.1855H171.259L175.448 51.6826L179.564 47.1855H179.975V57H178.656V49.8955L175.624 53.1328H175.272L172.167 49.8955V57H170.849ZM184.047 54.2168L183.622 53.0742L189.145 47.1855H190.844L184.047 54.2168ZM183.197 57V47.1855H184.516V57H183.197ZM189.452 57L185.263 52.1807L186.259 51.1699L191.283 57H189.452ZM199.984 57H199.004C197.951 57 197.271 56.9533 196.964 56.86C196.271 56.6467 195.898 56.2067 195.844 55.54C195.738 54.1933 196.451 53.52 197.984 53.52C199.211 53.52 199.891 54.0333 200.024 55.06V55.92C201.198 55.92 201.831 55.72 201.924 55.32C202.018 54.8667 201.564 54.3867 200.564 53.88C200.271 53.7333 199.564 53.3933 198.444 52.86C197.631 52.4733 197.224 51.9333 197.224 51.24C197.224 50.2133 197.951 49.7 199.404 49.7C199.844 49.7 200.238 49.7667 200.584 49.9C201.238 50.1533 201.564 50.52 201.564 51C201.564 51.1067 201.504 51.22 201.384 51.34H200.284C200.364 51.2333 200.404 51.1467 200.404 51.08C200.404 51.04 200.391 50.9867 200.364 50.92C200.244 50.88 199.924 50.84 199.404 50.8C198.698 50.7467 198.344 50.9067 198.344 51.28C198.344 51.4933 198.764 51.7933 199.604 52.18L200.664 52.66C202.291 53.3933 203.104 54.2467 203.104 55.22C203.104 56.4067 202.064 57 199.984 57ZM198.744 54.86C198.571 54.6867 198.311 54.6 197.964 54.6C197.698 54.6 197.458 54.6867 197.244 54.86C197.031 55.02 196.938 55.2267 196.964 55.48C196.991 55.8 197.651 55.9467 198.944 55.92C198.931 55.3333 198.864 54.98 198.744 54.86ZM200.369 62.4C200.036 62.4 199.869 62.1867 199.869 61.76V56.74H200.949V61.3H202.089V62.4H200.369ZM198.649 62.4H196.949V61.3H198.089V56.74H199.169V61.76C199.169 62.1867 198.996 62.4 198.649 62.4ZM208.149 57.04L208.189 62.38L207.069 62.4V57.04C206.096 57.0533 205.436 57.0067 205.089 56.9C204.396 56.6867 204.023 56.2533 203.969 55.6C203.849 54.2133 204.563 53.52 206.109 53.52C206.643 53.52 207.096 53.66 207.469 53.94C207.856 54.22 208.083 54.6133 208.149 55.12V55.94C209.323 55.94 209.956 55.7333 210.049 55.32C210.156 54.84 209.703 54.3667 208.689 53.9C208.249 53.7 207.543 53.3667 206.569 52.9C205.756 52.5133 205.349 51.96 205.349 51.24C205.349 50.2133 206.076 49.7 207.529 49.7C207.943 49.7 208.336 49.7667 208.709 49.9C209.363 50.14 209.689 50.52 209.689 51.04C209.689 51.1333 209.629 51.2333 209.509 51.34H208.409C208.489 51.2333 208.529 51.1533 208.529 51.1C208.529 51.06 208.516 51.0133 208.489 50.96C208.383 50.8933 208.063 50.84 207.529 50.8C206.823 50.7333 206.469 50.8933 206.469 51.28C206.469 51.5733 206.789 51.8533 207.429 52.12C207.949 52.3333 208.403 52.5267 208.789 52.7C210.416 53.42 211.229 54.2667 211.229 55.24C211.229 56.4133 210.203 57.0133 208.149 57.04ZM206.869 54.88C206.696 54.72 206.436 54.64 206.089 54.64C205.823 54.64 205.583 54.72 205.369 54.88C205.156 55.04 205.063 55.2467 205.089 55.5C205.116 55.8333 205.776 55.98 207.069 55.94C207.056 55.3533 206.989 55 206.869 54.88ZM209.254 46.92C209.228 46.9333 209.201 46.94 209.174 46.94C209.148 46.94 209.134 46.9267 209.134 46.9C209.094 46.4733 208.934 46.1267 208.654 45.86C208.361 45.5933 208.001 45.46 207.574 45.46C207.094 45.46 206.708 45.6133 206.414 45.92C206.108 46.2133 205.954 46.6 205.954 47.08C205.954 47.5333 206.108 47.9133 206.414 48.22C206.708 48.5133 207.081 48.66 207.534 48.66C207.628 48.66 207.774 48.6467 207.974 48.62V49.78C207.814 49.7933 207.681 49.8 207.574 49.8C206.814 49.8 206.174 49.54 205.654 49.02C205.134 48.4867 204.874 47.84 204.874 47.08C204.874 46.32 205.141 45.68 205.674 45.16C206.194 44.64 206.834 44.38 207.594 44.38C208.288 44.38 208.868 44.5867 209.334 45C209.801 45.4 210.101 45.9467 210.234 46.64C209.928 46.76 209.601 46.8533 209.254 46.92ZM213.454 52.88C213.041 52.88 212.701 52.7467 212.434 52.48C212.181 52.2133 212.054 51.8733 212.054 51.46C212.054 51.06 212.188 50.7267 212.454 50.46C212.721 50.18 213.054 50.04 213.454 50.04C213.854 50.04 214.188 50.18 214.454 50.46C214.721 50.7267 214.854 51.06 214.854 51.46C214.854 51.8733 214.721 52.2133 214.454 52.48C214.201 52.7467 213.868 52.88 213.454 52.88ZM213.454 56.74C213.041 56.74 212.701 56.6067 212.434 56.34C212.181 56.0733 212.054 55.7333 212.054 55.32C212.054 54.92 212.188 54.5867 212.454 54.32C212.721 54.04 213.054 53.9 213.454 53.9C213.868 53.9 214.201 54.0333 214.454 54.3C214.721 54.5667 214.854 54.9067 214.854 55.32C214.854 55.7333 214.721 56.0733 214.454 56.34C214.201 56.6067 213.868 56.74 213.454 56.74ZM213.454 51C213.174 51 213.034 51.1533 213.034 51.46C213.034 51.74 213.174 51.88 213.454 51.88C213.761 51.88 213.914 51.74 213.914 51.46C213.914 51.1533 213.761 51 213.454 51ZM213.454 54.88C213.174 54.88 213.034 55.0267 213.034 55.32C213.034 55.6267 213.174 55.78 213.454 55.78C213.761 55.78 213.914 55.6267 213.914 55.32C213.914 55.0267 213.761 54.88 213.454 54.88ZM224.868 47.2H223.708V46.16C223.708 45.6933 223.548 45.46 223.228 45.46H217.528C217.248 45.46 217.061 45.5267 216.968 45.66C216.888 45.78 216.848 45.9933 216.848 46.3V60.52C216.848 61.0267 217.075 61.28 217.528 61.28H223.048C223.475 61.28 223.688 61.1133 223.688 60.78V54.12H224.868V60.76C224.868 61.8533 224.255 62.4 223.028 62.4H217.528C216.288 62.4 215.668 61.7867 215.668 60.56L215.648 46.2C215.648 44.9733 216.275 44.36 217.528 44.36H223.368C224.395 44.36 224.901 44.9067 224.888 46L224.868 47.2ZM221.203 57C220.136 57 219.256 56.66 218.563 55.98C217.87 55.2867 217.523 54.4067 217.523 53.34C217.523 51.8333 218.23 50.7333 219.643 50.04L220.343 50.9C219.196 51.6067 218.623 52.42 218.623 53.34C218.623 54.0867 218.863 54.7 219.343 55.18C219.836 55.66 220.456 55.9 221.203 55.9C222.336 55.9 223.116 55.3667 223.543 54.3C222.45 54.2333 221.683 53.7733 221.243 52.92C221.016 52.48 220.903 52.04 220.903 51.6C220.903 51.1467 221.023 50.76 221.263 50.44C221.503 50.1067 221.843 49.94 222.283 49.94C222.523 49.94 222.796 50.04 223.103 50.24C224.25 51 224.823 52.0333 224.823 53.34C224.823 54.4067 224.483 55.2867 223.803 55.98C223.136 56.66 222.27 57 221.203 57ZM223.743 53.34C223.743 52.4867 223.296 51.7533 222.403 51.14C222.35 51.1 222.303 51.08 222.263 51.08C222.05 51.08 221.943 51.2933 221.943 51.72C221.943 51.9867 222.036 52.3133 222.223 52.7C222.61 53.1933 223.116 53.44 223.743 53.44V53.34ZM232.548 55.12C232.295 55.68 231.848 56.1333 231.208 56.48C230.621 56.8133 230.001 56.98 229.348 56.98C228.281 56.98 227.401 56.64 226.708 55.96C226.028 55.2667 225.688 54.3867 225.688 53.32C225.688 52.2533 226.028 51.38 226.708 50.7C227.401 50.02 228.281 49.68 229.348 49.68C230.775 49.68 231.921 50.4667 232.788 52.04L231.848 52.56C231.168 51.3733 230.335 50.78 229.348 50.78C228.615 50.78 228.008 51.02 227.528 51.5C227.048 51.98 226.808 52.5867 226.808 53.32C226.808 54.0533 227.048 54.66 227.528 55.14C228.008 55.62 228.615 55.86 229.348 55.86C230.335 55.86 231.168 55.2667 231.848 54.08L232.788 54.6L232.548 55.12ZM230.973 46.92C230.946 46.9333 230.92 46.94 230.893 46.94C230.866 46.94 230.853 46.9267 230.853 46.9C230.813 46.4733 230.653 46.1267 230.373 45.86C230.08 45.5933 229.72 45.46 229.293 45.46C228.813 45.46 228.426 45.6133 228.133 45.92C227.826 46.2133 227.673 46.6 227.673 47.08C227.673 47.5333 227.826 47.9133 228.133 48.22C228.426 48.5133 228.8 48.66 229.253 48.66C229.346 48.66 229.493 48.6467 229.693 48.62V49.78C229.533 49.7933 229.4 49.8 229.293 49.8C228.533 49.8 227.893 49.54 227.373 49.02C226.853 48.4867 226.593 47.84 226.593 47.08C226.593 46.32 226.86 45.68 227.393 45.16C227.913 44.64 228.553 44.38 229.313 44.38C230.006 44.38 230.586 44.5867 231.053 45C231.52 45.4 231.82 45.9467 231.953 46.64C231.646 46.76 231.32 46.8533 230.973 46.92ZM229.433 60.56C229.046 60.56 228.72 60.42 228.453 60.14C228.186 59.8733 228.053 59.5467 228.053 59.16C228.053 58.76 228.186 58.4267 228.453 58.16C228.706 57.8933 229.033 57.76 229.433 57.76C229.833 57.76 230.173 57.8933 230.453 58.16C230.72 58.4267 230.853 58.76 230.853 59.16C230.853 59.5467 230.713 59.8733 230.433 60.14C230.153 60.42 229.82 60.56 229.433 60.56ZM229.433 58.72C229.153 58.72 229.013 58.8667 229.013 59.16C229.013 59.4533 229.153 59.6 229.433 59.6C229.74 59.6 229.893 59.4533 229.893 59.16C229.893 58.8667 229.74 58.72 229.433 58.72ZM10.9 79.02C9.56667 79.02 8.52667 78.4533 7.78 77.32C7.03333 78.44 5.99333 79 4.66 79C3.46 79 2.37333 78.3867 1.4 77.16L2.3 76.48C3.06 77.4267 3.84667 77.9 4.66 77.9C5.39333 77.9 6 77.6867 6.48 77.26C6.97333 76.82 7.22 76.24 7.22 75.52V75.12C7.22 74.4267 6.96667 73.8667 6.46 73.44C5.96667 73.0133 5.36667 72.8 4.66 72.8C3.7 72.8 2.87333 73.3733 2.18 74.52L1.22 73.96L1.5 73.48C2.19333 72.2933 3.24667 71.7 4.66 71.7C5.74 71.7 6.62667 72.04 7.32 72.72C8.01333 73.3867 8.36 74.26 8.36 75.34V75.54C8.36 76.2467 8.6 76.82 9.08 77.26C9.57333 77.7 10.18 77.92 10.9 77.92C11.6467 77.92 12.2667 77.68 12.76 77.2C13.2533 76.7067 13.5 76.0867 13.5 75.34C13.5 74.6067 13.2467 74 12.74 73.52C12.2467 73.04 11.6333 72.8 10.9 72.8C10.6067 72.8 10.1333 72.92 9.48 73.16L9.12 72.1L9.62 71.92C9.99333 71.7867 10.42 71.72 10.9 71.72C12.0067 71.72 12.9 72.0467 13.58 72.7C14.26 73.3533 14.6 74.2333 14.6 75.34C14.6 76.42 14.2533 77.3067 13.56 78C12.8667 78.68 11.98 79.02 10.9 79.02ZM22.3136 77.12C22.0603 77.68 21.6136 78.1333 20.9736 78.48C20.3869 78.8133 19.7669 78.98 19.1136 78.98C18.0469 78.98 17.1669 78.64 16.4736 77.96C15.7936 77.2667 15.4536 76.3867 15.4536 75.32C15.4536 74.2533 15.7936 73.38 16.4736 72.7C17.1669 72.02 18.0469 71.68 19.1136 71.68C20.5403 71.68 21.6869 72.4667 22.5536 74.04L21.6136 74.56C20.9336 73.3733 20.1003 72.78 19.1136 72.78C18.3803 72.78 17.7736 73.02 17.2936 73.5C16.8136 73.98 16.5736 74.5867 16.5736 75.32C16.5736 76.0533 16.8136 76.66 17.2936 77.14C17.7736 77.62 18.3803 77.86 19.1136 77.86C20.1003 77.86 20.9336 77.2667 21.6136 76.08L22.5536 76.6L22.3136 77.12ZM20.7386 68.92C20.7119 68.9333 20.6853 68.94 20.6586 68.94C20.6319 68.94 20.6186 68.9267 20.6186 68.9C20.5786 68.4733 20.4186 68.1267 20.1386 67.86C19.8453 67.5933 19.4853 67.46 19.0586 67.46C18.5786 67.46 18.1919 67.6133 17.8986 67.92C17.5919 68.2133 17.4386 68.6 17.4386 69.08C17.4386 69.5333 17.5919 69.9133 17.8986 70.22C18.1919 70.5133 18.5653 70.66 19.0186 70.66C19.1119 70.66 19.2586 70.6467 19.4586 70.62V71.78C19.2986 71.7933 19.1653 71.8 19.0586 71.8C18.2986 71.8 17.6586 71.54 17.1386 71.02C16.6186 70.4867 16.3586 69.84 16.3586 69.08C16.3586 68.32 16.6253 67.68 17.1586 67.16C17.6786 66.64 18.3186 66.38 19.0786 66.38C19.7719 66.38 20.3519 66.5867 20.8186 67C21.2853 67.4 21.5853 67.9467 21.7186 68.64C21.4119 68.76 21.0853 68.8533 20.7386 68.92ZM19.1986 82.56C18.8119 82.56 18.4853 82.42 18.2186 82.14C17.9519 81.8733 17.8186 81.5467 17.8186 81.16C17.8186 80.76 17.9519 80.4267 18.2186 80.16C18.4719 79.8933 18.7986 79.76 19.1986 79.76C19.5986 79.76 19.9386 79.8933 20.2186 80.16C20.4853 80.4267 20.6186 80.76 20.6186 81.16C20.6186 81.5467 20.4786 81.8733 20.1986 82.14C19.9186 82.42 19.5853 82.56 19.1986 82.56ZM19.1986 80.72C18.9186 80.72 18.7786 80.8667 18.7786 81.16C18.7786 81.4533 18.9186 81.6 19.1986 81.6C19.5053 81.6 19.6586 81.4533 19.6586 81.16C19.6586 80.8667 19.5053 80.72 19.1986 80.72ZM27.0586 76.06V76H26.9586L26.9786 74.92H27.6386C28.5986 74.92 29.1253 74.5733 29.2186 73.88C29.1119 73.16 28.3186 72.8 26.8386 72.8C25.7986 72.8 25.1186 73.1067 24.7986 73.72C24.6919 73.9333 24.7586 74.04 24.9986 74.04H25.2186L25.1386 75.06H24.9986C24.0786 75.06 23.6186 74.6333 23.6186 73.78C23.6186 73.0333 23.9919 72.48 24.7386 72.12C25.3119 71.84 26.0119 71.7 26.8386 71.7C28.2919 71.7 29.3319 72.0933 29.9586 72.88C30.6919 72.1067 31.5919 71.72 32.6586 71.72C33.5253 71.72 34.3053 72.0067 34.9986 72.58C35.8653 73.2867 36.2986 74.22 36.2986 75.38C36.2986 76.2467 36.0119 77.0267 35.4386 77.72C34.7053 78.6 33.7786 79.04 32.6586 79.04C32.2586 79.04 31.8586 78.98 31.4586 78.86C31.2853 78.8067 31.1986 78.66 31.1986 78.42C31.1986 77.9533 31.2119 77.68 31.2386 77.6C31.3719 77.1867 31.5253 76.9067 31.6986 76.76C32.3119 76.2267 32.8986 75.96 33.4586 75.96C34.0586 75.96 34.5519 76.12 34.9386 76.44C35.1119 76.12 35.1986 75.7667 35.1986 75.38C35.1986 74.6467 34.9586 74.0333 34.4786 73.54C33.9986 73.0467 33.3919 72.8 32.6586 72.8C31.5919 72.8 30.8119 73.2867 30.3186 74.26C30.2253 74.7 29.9786 75.0867 29.5786 75.42C30.1786 75.8067 30.4453 76.34 30.3786 77.02C30.2453 78.34 29.0653 79 26.8386 79C26.1319 79 25.4786 78.88 24.8786 78.64C24.0919 78.3333 23.6786 77.88 23.6386 77.28L23.6186 76.94L24.7186 76.68C24.7319 76.8667 24.7586 77.08 24.7986 77.32C24.8919 77.4933 25.2053 77.64 25.7386 77.76C26.1519 77.8533 26.5186 77.9 26.8386 77.9C28.3986 77.9 29.2053 77.5667 29.2586 76.9C29.2986 76.3133 28.7119 76.02 27.4986 76.02C27.4053 76.0067 27.2586 76.02 27.0586 76.06ZM33.5386 76.78C33.1786 76.78 32.8319 76.9933 32.4986 77.42C32.4453 77.4867 32.3786 77.6533 32.2986 77.92C32.4453 77.9333 32.5653 77.94 32.6586 77.94C33.2719 77.94 33.9053 77.6467 34.5586 77.06C34.3186 76.8733 33.9786 76.78 33.5386 76.78ZM47.0528 78.98C46.5595 78.98 46.0328 78.86 45.4728 78.62L45.8928 77.62C46.3995 77.78 46.7861 77.86 47.0528 77.86C47.7995 77.86 48.4128 77.6267 48.8928 77.16C49.3861 76.68 49.6328 76.0667 49.6328 75.32C49.6328 74.6 49.3795 74 48.8728 73.52C48.3795 73.0267 47.7728 72.78 47.0528 72.78C46.3061 72.78 45.6928 73.02 45.2128 73.5C44.7461 73.9667 44.5128 74.5733 44.5128 75.32V75.44L44.4928 75.48C44.4395 76.5467 44.0728 77.4 43.3928 78.04C42.7261 78.6667 41.8595 78.98 40.7928 78.98C39.7261 78.98 38.8461 78.64 38.1528 77.96C37.4595 77.2667 37.1128 76.3867 37.1128 75.32C37.1128 74.2267 37.4528 73.3467 38.1328 72.68C38.8128 72.0133 39.6995 71.68 40.7928 71.68C42.1261 71.68 43.1728 72.2467 43.9328 73.38C44.6795 72.2467 45.7195 71.68 47.0528 71.68C48.1328 71.68 49.0128 72.02 49.6928 72.7C50.3861 73.3667 50.7328 74.24 50.7328 75.32C50.7328 76.3867 50.3861 77.2667 49.6928 77.96C48.9995 78.64 48.1195 78.98 47.0528 78.98ZM40.7928 72.78C40.0595 72.78 39.4461 73.02 38.9528 73.5C38.4595 73.98 38.2128 74.5867 38.2128 75.32C38.2128 76.0533 38.4595 76.66 38.9528 77.14C39.4461 77.62 40.0595 77.86 40.7928 77.86C41.5261 77.86 42.1328 77.62 42.6128 77.14C43.0928 76.66 43.3328 76.0533 43.3328 75.32C43.3328 74.5867 43.0928 73.98 42.6128 73.5C42.1328 73.02 41.5261 72.78 40.7928 72.78ZM47.2264 84.46C46.4664 84.46 45.8197 84.1933 45.2864 83.66C44.7531 83.1267 44.4864 82.48 44.4864 81.72C44.4864 80.9467 44.7531 80.2933 45.2864 79.76C45.8064 79.2267 46.4531 78.96 47.2264 78.96C47.9997 78.96 48.6531 79.2267 49.1864 79.76C49.7197 80.2933 49.9864 80.9467 49.9864 81.72C49.9864 82.4933 49.7197 83.14 49.1864 83.66C48.6531 84.1933 47.9997 84.46 47.2264 84.46ZM47.2264 80C46.7331 80 46.3331 80.16 46.0264 80.48C45.7064 80.8133 45.5464 81.2267 45.5464 81.72C45.5464 82.2 45.7064 82.6 46.0264 82.92C46.3464 83.24 46.7464 83.4 47.2264 83.4C47.7197 83.4 48.1331 83.24 48.4664 82.92C48.7864 82.6133 48.9464 82.2133 48.9464 81.72C48.9464 81.2267 48.7864 80.8133 48.4664 80.48C48.1331 80.16 47.7197 80 47.2264 80ZM58.9855 75.7H58.9255C58.8588 77.0333 58.0655 78.1267 56.5455 78.98L56.0455 78.04C57.2188 77.36 57.8055 76.52 57.8055 75.52C57.8055 74.7867 57.5655 74.18 57.0855 73.7C56.6055 73.22 55.9988 72.98 55.2655 72.98C54.5321 72.98 53.9188 73.22 53.4255 73.7C52.9321 74.18 52.6855 74.7867 52.6855 75.52C52.6855 76.5333 53.3055 77.3733 54.5455 78.04L54.0055 79L53.5255 78.74C52.2321 78.0333 51.5855 76.96 51.5855 75.52C51.5855 74.4267 51.9255 73.5467 52.6055 72.88C53.2855 72.2133 54.1721 71.88 55.2655 71.88C56.5988 71.88 57.6455 72.4467 58.4055 73.58C59.1521 72.4467 60.1921 71.88 61.5255 71.88C62.6055 71.88 63.4855 72.22 64.1655 72.9C64.8588 73.5667 65.2055 74.44 65.2055 75.52C65.2055 76.5867 64.8588 77.4667 64.1655 78.16C63.4721 78.84 62.5921 79.18 61.5255 79.18C61.2055 79.18 60.8855 79.14 60.5655 79.06C60.5921 78.82 60.6588 78.4533 60.7655 77.96C61.1388 78.0267 61.3921 78.06 61.5255 78.06C62.2721 78.06 62.8855 77.8267 63.3655 77.36C63.8588 76.88 64.1055 76.2667 64.1055 75.52C64.1055 74.8 63.8521 74.2 63.3455 73.72C62.8521 73.2267 62.2455 72.98 61.5255 72.98C60.7788 72.98 60.1655 73.22 59.6855 73.7C59.2188 74.1667 58.9855 74.7733 58.9855 75.52V75.7ZM63.2191 68.92C63.1924 68.9333 63.1657 68.94 63.1391 68.94C63.1124 68.94 63.0991 68.9267 63.0991 68.9C63.0591 68.4733 62.8991 68.1267 62.6191 67.86C62.3257 67.5933 61.9657 67.46 61.5391 67.46C61.0591 67.46 60.6724 67.6133 60.3791 67.92C60.0724 68.2133 59.9191 68.6 59.9191 69.08C59.9191 69.5333 60.0724 69.9133 60.3791 70.22C60.6724 70.5133 61.0457 70.66 61.4991 70.66C61.5924 70.66 61.7391 70.6467 61.9391 70.62V71.78C61.7791 71.7933 61.6457 71.8 61.5391 71.8C60.7791 71.8 60.1391 71.54 59.6191 71.02C59.0991 70.4867 58.8391 69.84 58.8391 69.08C58.8391 68.32 59.1057 67.68 59.6391 67.16C60.1591 66.64 60.7991 66.38 61.5591 66.38C62.2524 66.38 62.8324 66.5867 63.2991 67C63.7657 67.4 64.0657 67.9467 64.1991 68.64C63.8924 68.76 63.5657 68.8533 63.2191 68.92ZM71.4531 76.06V76H71.3531L71.3731 74.92H72.0331C72.9931 74.92 73.5198 74.5733 73.6131 73.88C73.5065 73.16 72.7131 72.8 71.2331 72.8C70.1931 72.8 69.5131 73.1067 69.1931 73.72C69.0865 73.9333 69.1531 74.04 69.3931 74.04H69.6131L69.5331 75.06H69.3931C68.4731 75.06 68.0131 74.6333 68.0131 73.78C68.0131 73.0333 68.3865 72.48 69.1331 72.12C69.7065 71.84 70.4065 71.7 71.2331 71.7C72.6865 71.7 73.7265 72.0933 74.3531 72.88C75.0865 72.1067 75.9865 71.72 77.0531 71.72C77.9198 71.72 78.6998 72.0067 79.3931 72.58C80.2598 73.2867 80.6931 74.22 80.6931 75.38C80.6931 76.2467 80.4065 77.0267 79.8331 77.72C79.0998 78.6 78.1731 79.04 77.0531 79.04C76.6531 79.04 76.2531 78.98 75.8531 78.86C75.6798 78.8067 75.5931 78.66 75.5931 78.42C75.5931 77.9533 75.6065 77.68 75.6331 77.6C75.7665 77.1867 75.9198 76.9067 76.0931 76.76C76.7065 76.2267 77.2931 75.96 77.8531 75.96C78.4531 75.96 78.9465 76.12 79.3331 76.44C79.5065 76.12 79.5931 75.7667 79.5931 75.38C79.5931 74.6467 79.3531 74.0333 78.8731 73.54C78.3931 73.0467 77.7865 72.8 77.0531 72.8C75.9865 72.8 75.2065 73.2867 74.7131 74.26C74.6198 74.7 74.3731 75.0867 73.9731 75.42C74.5731 75.8067 74.8398 76.34 74.7731 77.02C74.6398 78.34 73.4598 79 71.2331 79C70.5265 79 69.8731 78.88 69.2731 78.64C68.4865 78.3333 68.0731 77.88 68.0331 77.28L68.0131 76.94L69.1131 76.68C69.1265 76.8667 69.1531 77.08 69.1931 77.32C69.2865 77.4933 69.5998 77.64 70.1331 77.76C70.5465 77.8533 70.9131 77.9 71.2331 77.9C72.7931 77.9 73.5998 77.5667 73.6531 76.9C73.6931 76.3133 73.1065 76.02 71.8931 76.02C71.7998 76.0067 71.6531 76.02 71.4531 76.06ZM77.9331 76.78C77.5731 76.78 77.2265 76.9933 76.8931 77.42C76.8398 77.4867 76.7731 77.6533 76.6931 77.92C76.8398 77.9333 76.9598 77.94 77.0531 77.94C77.6665 77.94 78.2998 77.6467 78.9531 77.06C78.7131 76.8733 78.3731 76.78 77.9331 76.78ZM87.7073 74.56C87.0273 73.3733 86.194 72.78 85.2073 72.78C84.474 72.78 83.8673 73.02 83.3873 73.5C82.9073 73.98 82.6673 74.5867 82.6673 75.32C82.6673 76.4133 83.194 77.2067 84.2473 77.7C84.3407 76.6467 84.8007 75.8933 85.6273 75.44C86.0407 75.2133 86.4807 75.1 86.9473 75.1C87.414 75.1 87.794 75.2067 88.0873 75.42C88.434 75.6733 88.6073 76.02 88.6073 76.46C88.6073 76.74 88.434 77.12 88.0873 77.6C87.4207 78.52 86.4607 78.98 85.2073 78.98C84.1407 78.98 83.2607 78.64 82.5673 77.96C81.8873 77.2667 81.5473 76.3867 81.5473 75.32C81.5473 74.2533 81.8873 73.38 82.5673 72.7C83.2607 72.02 84.1407 71.68 85.2073 71.68C86.634 71.68 87.7807 72.4667 88.6473 74.04L87.7073 74.56ZM86.8473 76.16C86.354 76.16 85.9407 76.32 85.6073 76.64C85.274 76.96 85.1007 77.3667 85.0873 77.86H85.2073C85.994 77.86 86.6407 77.5867 87.1473 77.04C87.2273 76.9067 87.3273 76.76 87.4473 76.6C87.4607 76.5333 87.4673 76.48 87.4673 76.44C87.4673 76.2533 87.2607 76.16 86.8473 76.16ZM97.0323 75.7H96.9723C96.9057 77.0333 96.1123 78.1267 94.5923 78.98L94.0923 78.04C95.2657 77.36 95.8523 76.52 95.8523 75.52C95.8523 74.7867 95.6123 74.18 95.1323 73.7C94.6523 73.22 94.0457 72.98 93.3123 72.98C92.579 72.98 91.9657 73.22 91.4723 73.7C90.979 74.18 90.7323 74.7867 90.7323 75.52C90.7323 76.5333 91.3523 77.3733 92.5923 78.04L92.0523 79L91.5723 78.74C90.279 78.0333 89.6323 76.96 89.6323 75.52C89.6323 74.4267 89.9723 73.5467 90.6523 72.88C91.3323 72.2133 92.219 71.88 93.3123 71.88C94.6457 71.88 95.6923 72.4467 96.4523 73.58C97.199 72.4467 98.239 71.88 99.5723 71.88C100.652 71.88 101.532 72.22 102.212 72.9C102.906 73.5667 103.252 74.44 103.252 75.52C103.252 76.5867 102.906 77.4667 102.212 78.16C101.519 78.84 100.639 79.18 99.5723 79.18C99.2523 79.18 98.9323 79.14 98.6123 79.06C98.639 78.82 98.7057 78.4533 98.8123 77.96C99.1857 78.0267 99.439 78.06 99.5723 78.06C100.319 78.06 100.932 77.8267 101.412 77.36C101.906 76.88 102.152 76.2667 102.152 75.52C102.152 74.8 101.899 74.2 101.392 73.72C100.899 73.2267 100.292 72.98 99.5723 72.98C98.8257 72.98 98.2123 73.22 97.7323 73.7C97.2657 74.1667 97.0323 74.7733 97.0323 75.52V75.7ZM105.946 78.98C105.733 78.98 105.399 78.9267 104.946 78.82V77.68C105.373 77.8 105.706 77.86 105.946 77.86C106.693 77.86 107.299 77.6267 107.766 77.16C108.246 76.68 108.486 76.0667 108.486 75.32C108.486 74.6 108.239 74 107.746 73.52C107.266 73.0267 106.666 72.78 105.946 72.78C104.773 72.78 103.959 73.4267 103.506 74.72C103.493 74.7867 103.433 74.9467 103.326 75.2L102.346 74.62L102.426 74.34C102.933 72.5667 104.106 71.68 105.946 71.68C106.999 71.68 107.873 72.0267 108.566 72.72C109.259 73.4 109.606 74.2667 109.606 75.32C109.606 76.4 109.266 77.28 108.586 77.96C107.906 78.64 107.026 78.98 105.946 78.98ZM117.353 77.12C117.099 77.68 116.653 78.1333 116.013 78.48C115.426 78.8133 114.806 78.98 114.153 78.98C113.086 78.98 112.206 78.64 111.513 77.96C110.833 77.2667 110.493 76.3867 110.493 75.32C110.493 74.2533 110.833 73.38 111.513 72.7C112.206 72.02 113.086 71.68 114.153 71.68C115.579 71.68 116.726 72.4667 117.593 74.04L116.653 74.56C115.973 73.3733 115.139 72.78 114.153 72.78C113.419 72.78 112.813 73.02 112.333 73.5C111.853 73.98 111.613 74.5867 111.613 75.32C111.613 76.0533 111.853 76.66 112.333 77.14C112.813 77.62 113.419 77.86 114.153 77.86C115.139 77.86 115.973 77.2667 116.653 76.08L117.593 76.6L117.353 77.12ZM115.778 68.92C115.751 68.9333 115.724 68.94 115.698 68.94C115.671 68.94 115.658 68.9267 115.658 68.9C115.618 68.4733 115.458 68.1267 115.178 67.86C114.884 67.5933 114.524 67.46 114.098 67.46C113.618 67.46 113.231 67.6133 112.938 67.92C112.631 68.2133 112.478 68.6 112.478 69.08C112.478 69.5333 112.631 69.9133 112.938 70.22C113.231 70.5133 113.604 70.66 114.058 70.66C114.151 70.66 114.298 70.6467 114.498 70.62V71.78C114.338 71.7933 114.204 71.8 114.098 71.8C113.338 71.8 112.698 71.54 112.178 71.02C111.658 70.4867 111.398 69.84 111.398 69.08C111.398 68.32 111.664 67.68 112.198 67.16C112.718 66.64 113.358 66.38 114.118 66.38C114.811 66.38 115.391 66.5867 115.858 67C116.324 67.4 116.624 67.9467 116.758 68.64C116.451 68.76 116.124 68.8533 115.778 68.92ZM119.978 74.88C119.564 74.88 119.224 74.7467 118.958 74.48C118.704 74.2133 118.578 73.8733 118.578 73.46C118.578 73.06 118.711 72.7267 118.978 72.46C119.244 72.18 119.578 72.04 119.978 72.04C120.378 72.04 120.711 72.18 120.978 72.46C121.244 72.7267 121.378 73.06 121.378 73.46C121.378 73.8733 121.244 74.2133 120.978 74.48C120.724 74.7467 120.391 74.88 119.978 74.88ZM119.978 78.74C119.564 78.74 119.224 78.6067 118.958 78.34C118.704 78.0733 118.578 77.7333 118.578 77.32C118.578 76.92 118.711 76.5867 118.978 76.32C119.244 76.04 119.578 75.9 119.978 75.9C120.391 75.9 120.724 76.0333 120.978 76.3C121.244 76.5667 121.378 76.9067 121.378 77.32C121.378 77.7333 121.244 78.0733 120.978 78.34C120.724 78.6067 120.391 78.74 119.978 78.74ZM119.978 73C119.698 73 119.558 73.1533 119.558 73.46C119.558 73.74 119.698 73.88 119.978 73.88C120.284 73.88 120.438 73.74 120.438 73.46C120.438 73.1533 120.284 73 119.978 73ZM119.978 76.88C119.698 76.88 119.558 77.0267 119.558 77.32C119.558 77.6267 119.698 77.78 119.978 77.78C120.284 77.78 120.438 77.6267 120.438 77.32C120.438 77.0267 120.284 76.88 119.978 76.88ZM132.111 78.98C130.911 78.98 129.925 78.4867 129.151 77.5L129.011 77.32C128.278 78.4267 127.245 78.98 125.911 78.98C124.658 78.98 123.705 78.52 123.051 77.6C122.718 77.1333 122.551 76.7533 122.551 76.46C122.551 76.0333 122.711 75.7 123.031 75.46C123.351 75.22 123.731 75.1 124.171 75.1C125.171 75.1 125.931 75.52 126.451 76.36C126.705 76.7733 126.845 77.22 126.871 77.7C127.938 77.2067 128.471 76.4133 128.471 75.32C128.471 74.5867 128.225 73.98 127.731 73.5C127.251 73.02 126.645 72.78 125.911 72.78C124.938 72.78 124.118 73.3733 123.451 74.56L122.491 74.04C123.345 72.4667 124.485 71.68 125.911 71.68C127.258 71.68 128.298 72.2333 129.031 73.34C129.765 72.2333 130.791 71.68 132.111 71.68C133.191 71.68 134.071 72.02 134.751 72.7C135.445 73.3667 135.791 74.24 135.791 75.32C135.791 76.3867 135.445 77.2667 134.751 77.96C134.058 78.64 133.178 78.98 132.111 78.98ZM132.111 72.78C131.365 72.78 130.751 73.02 130.271 73.5C129.805 73.9667 129.571 74.5733 129.571 75.32C129.571 76.0533 129.811 76.66 130.291 77.14C130.771 77.62 131.378 77.86 132.111 77.86C132.858 77.86 133.471 77.6267 133.951 77.16C134.445 76.68 134.691 76.0667 134.691 75.32C134.691 74.6 134.438 74 133.931 73.52C133.438 73.0267 132.831 72.78 132.111 72.78ZM124.291 76.16C123.865 76.16 123.651 76.2533 123.651 76.44C123.678 76.48 123.785 76.68 123.971 77.04C124.478 77.5867 125.125 77.86 125.911 77.86H126.031C126.018 77.3667 125.845 76.96 125.511 76.64C125.191 76.32 124.785 76.16 124.291 76.16ZM132.265 70.98C131.878 70.98 131.552 70.8467 131.285 70.58C131.018 70.3133 130.885 69.9867 130.885 69.6C130.885 69.2 131.018 68.8667 131.285 68.6C131.538 68.3333 131.865 68.2 132.265 68.2C132.665 68.2 133.005 68.3333 133.285 68.6C133.552 68.8667 133.685 69.2 133.685 69.6C133.685 69.9867 133.545 70.3133 133.265 70.58C132.985 70.8467 132.652 70.98 132.265 70.98ZM132.265 69.16C131.985 69.16 131.845 69.3067 131.845 69.6C131.845 69.8933 131.985 70.04 132.265 70.04C132.572 70.04 132.725 69.8933 132.725 69.6C132.725 69.3067 132.572 69.16 132.265 69.16ZM132.125 84.4C131.778 84.4 131.605 84.1867 131.605 83.76V78.94H132.665V83.3H133.765V84.4H132.125ZM138.005 74.88C137.592 74.88 137.252 74.7467 136.985 74.48C136.732 74.2133 136.605 73.8733 136.605 73.46C136.605 73.06 136.738 72.7267 137.005 72.46C137.272 72.18 137.605 72.04 138.005 72.04C138.405 72.04 138.738 72.18 139.005 72.46C139.272 72.7267 139.405 73.06 139.405 73.46C139.405 73.8733 139.272 74.2133 139.005 74.48C138.752 74.7467 138.418 74.88 138.005 74.88ZM138.005 78.74C137.592 78.74 137.252 78.6067 136.985 78.34C136.732 78.0733 136.605 77.7333 136.605 77.32C136.605 76.92 136.738 76.5867 137.005 76.32C137.272 76.04 137.605 75.9 138.005 75.9C138.418 75.9 138.752 76.0333 139.005 76.3C139.272 76.5667 139.405 76.9067 139.405 77.32C139.405 77.7333 139.272 78.0733 139.005 78.34C138.752 78.6067 138.418 78.74 138.005 78.74ZM138.005 73C137.725 73 137.585 73.1533 137.585 73.46C137.585 73.74 137.725 73.88 138.005 73.88C138.312 73.88 138.465 73.74 138.465 73.46C138.465 73.1533 138.312 73 138.005 73ZM138.005 76.88C137.725 76.88 137.585 77.0267 137.585 77.32C137.585 77.6267 137.725 77.78 138.005 77.78C138.312 77.78 138.465 77.6267 138.465 77.32C138.465 77.0267 138.312 76.88 138.005 76.88ZM150.139 78.98C149.645 78.98 149.119 78.86 148.559 78.62L148.979 77.62C149.485 77.78 149.872 77.86 150.139 77.86C150.885 77.86 151.499 77.6267 151.979 77.16C152.472 76.68 152.719 76.0667 152.719 75.32C152.719 74.6 152.465 74 151.959 73.52C151.465 73.0267 150.859 72.78 150.139 72.78C149.392 72.78 148.779 73.02 148.299 73.5C147.832 73.9667 147.599 74.5733 147.599 75.32V75.44L147.579 75.48C147.525 76.5467 147.159 77.4 146.479 78.04C145.812 78.6667 144.945 78.98 143.879 78.98C142.812 78.98 141.932 78.64 141.239 77.96C140.545 77.2667 140.199 76.3867 140.199 75.32C140.199 74.2267 140.539 73.3467 141.219 72.68C141.899 72.0133 142.785 71.68 143.879 71.68C145.212 71.68 146.259 72.2467 147.019 73.38C147.765 72.2467 148.805 71.68 150.139 71.68C151.219 71.68 152.099 72.02 152.779 72.7C153.472 73.3667 153.819 74.24 153.819 75.32C153.819 76.3867 153.472 77.2667 152.779 77.96C152.085 78.64 151.205 78.98 150.139 78.98ZM143.879 72.78C143.145 72.78 142.532 73.02 142.039 73.5C141.545 73.98 141.299 74.5867 141.299 75.32C141.299 76.0533 141.545 76.66 142.039 77.14C142.532 77.62 143.145 77.86 143.879 77.86C144.612 77.86 145.219 77.62 145.699 77.14C146.179 76.66 146.419 76.0533 146.419 75.32C146.419 74.5867 146.179 73.98 145.699 73.5C145.219 73.02 144.612 72.78 143.879 72.78ZM158.852 79.04L158.892 84.38L157.772 84.4V79.04C156.799 79.0533 156.139 79.0067 155.792 78.9C155.099 78.6867 154.726 78.2533 154.672 77.6C154.552 76.2133 155.266 75.52 156.812 75.52C157.346 75.52 157.799 75.66 158.172 75.94C158.559 76.22 158.786 76.6133 158.852 77.12V77.94C160.026 77.94 160.659 77.7333 160.752 77.32C160.859 76.84 160.406 76.3667 159.392 75.9C158.952 75.7 158.246 75.3667 157.272 74.9C156.459 74.5133 156.052 73.96 156.052 73.24C156.052 72.2133 156.779 71.7 158.232 71.7C158.646 71.7 159.039 71.7667 159.412 71.9C160.066 72.14 160.392 72.52 160.392 73.04C160.392 73.1333 160.332 73.2333 160.212 73.34H159.112C159.192 73.2333 159.232 73.1533 159.232 73.1C159.232 73.06 159.219 73.0133 159.192 72.96C159.086 72.8933 158.766 72.84 158.232 72.8C157.526 72.7333 157.172 72.8933 157.172 73.28C157.172 73.5733 157.492 73.8533 158.132 74.12C158.652 74.3333 159.106 74.5267 159.492 74.7C161.119 75.42 161.932 76.2667 161.932 77.24C161.932 78.4133 160.906 79.0133 158.852 79.04ZM157.572 76.88C157.399 76.72 157.139 76.64 156.792 76.64C156.526 76.64 156.286 76.72 156.072 76.88C155.859 77.04 155.766 77.2467 155.792 77.5C155.819 77.8333 156.479 77.98 157.772 77.94C157.759 77.3533 157.692 77 157.572 76.88ZM159.957 68.92C159.931 68.9333 159.904 68.94 159.877 68.94C159.851 68.94 159.837 68.9267 159.837 68.9C159.797 68.4733 159.637 68.1267 159.357 67.86C159.064 67.5933 158.704 67.46 158.277 67.46C157.797 67.46 157.411 67.6133 157.117 67.92C156.811 68.2133 156.657 68.6 156.657 69.08C156.657 69.5333 156.811 69.9133 157.117 70.22C157.411 70.5133 157.784 70.66 158.237 70.66C158.331 70.66 158.477 70.6467 158.677 70.62V71.78C158.517 71.7933 158.384 71.8 158.277 71.8C157.517 71.8 156.877 71.54 156.357 71.02C155.837 70.4867 155.577 69.84 155.577 69.08C155.577 68.32 155.844 67.68 156.377 67.16C156.897 66.64 157.537 66.38 158.297 66.38C158.991 66.38 159.571 66.5867 160.037 67C160.504 67.4 160.804 67.9467 160.937 68.64C160.631 68.76 160.304 68.8533 159.957 68.92ZM166.437 79C165.371 79 164.491 78.66 163.797 77.98C163.104 77.2867 162.757 76.4067 162.757 75.34C162.757 73.8333 163.464 72.7333 164.877 72.04L165.577 72.9C164.431 73.6067 163.857 74.42 163.857 75.34C163.857 76.0867 164.097 76.7 164.577 77.18C165.071 77.66 165.691 77.9 166.437 77.9C167.571 77.9 168.351 77.3667 168.777 76.3C167.684 76.2333 166.917 75.7733 166.477 74.92C166.251 74.48 166.137 74.04 166.137 73.6C166.137 73.1467 166.257 72.76 166.497 72.44C166.737 72.1067 167.077 71.94 167.517 71.94C167.757 71.94 168.031 72.04 168.337 72.24C169.484 73 170.057 74.0333 170.057 75.34C170.057 76.4067 169.717 77.2867 169.037 77.98C168.371 78.66 167.504 79 166.437 79ZM168.977 75.34C168.977 74.4867 168.531 73.7533 167.637 73.14C167.584 73.1 167.537 73.08 167.497 73.08C167.284 73.08 167.177 73.2933 167.177 73.72C167.177 73.9867 167.271 74.3133 167.457 74.7C167.844 75.1933 168.351 75.44 168.977 75.44V75.34ZM166.402 71.8C165.642 71.8 165.002 71.54 164.482 71.02C163.962 70.4867 163.702 69.84 163.702 69.08C163.702 68.32 163.969 67.68 164.502 67.16C165.022 66.64 165.662 66.38 166.422 66.38C167.182 66.38 167.816 66.64 168.322 67.16C168.829 67.68 169.082 68.32 169.082 69.08C169.082 69.8133 168.822 70.4533 168.302 71C167.769 71.5333 167.136 71.8 166.402 71.8ZM166.402 67.46C165.922 67.46 165.536 67.6133 165.242 67.92C164.936 68.2133 164.782 68.6 164.782 69.08C164.782 69.5333 164.936 69.9133 165.242 70.22C165.536 70.5133 165.909 70.66 166.362 70.66C166.829 70.66 167.216 70.5133 167.522 70.22C167.816 69.9267 167.962 69.5467 167.962 69.08C167.962 68.6133 167.822 68.2267 167.542 67.92C167.249 67.6133 166.869 67.46 166.402 67.46ZM166.402 84.4C166.056 84.4 165.882 84.1867 165.882 83.76V78.94H166.942V83.3H168.042V84.4H166.402ZM172.282 74.88C171.869 74.88 171.529 74.7467 171.262 74.48C171.009 74.2133 170.882 73.8733 170.882 73.46C170.882 73.06 171.016 72.7267 171.282 72.46C171.549 72.18 171.882 72.04 172.282 72.04C172.682 72.04 173.016 72.18 173.282 72.46C173.549 72.7267 173.682 73.06 173.682 73.46C173.682 73.8733 173.549 74.2133 173.282 74.48C173.029 74.7467 172.696 74.88 172.282 74.88ZM172.282 78.74C171.869 78.74 171.529 78.6067 171.262 78.34C171.009 78.0733 170.882 77.7333 170.882 77.32C170.882 76.92 171.016 76.5867 171.282 76.32C171.549 76.04 171.882 75.9 172.282 75.9C172.696 75.9 173.029 76.0333 173.282 76.3C173.549 76.5667 173.682 76.9067 173.682 77.32C173.682 77.7333 173.549 78.0733 173.282 78.34C173.029 78.6067 172.696 78.74 172.282 78.74ZM172.282 73C172.002 73 171.862 73.1533 171.862 73.46C171.862 73.74 172.002 73.88 172.282 73.88C172.589 73.88 172.742 73.74 172.742 73.46C172.742 73.1533 172.589 73 172.282 73ZM172.282 76.88C172.002 76.88 171.862 77.0267 171.862 77.32C171.862 77.6267 172.002 77.78 172.282 77.78C172.589 77.78 172.742 77.6267 172.742 77.32C172.742 77.0267 172.589 76.88 172.282 76.88ZM181.876 75.7H181.816C181.749 77.0333 180.956 78.1267 179.436 78.98L178.936 78.04C180.109 77.36 180.696 76.52 180.696 75.52C180.696 74.7867 180.456 74.18 179.976 73.7C179.496 73.22 178.889 72.98 178.156 72.98C177.423 72.98 176.809 73.22 176.316 73.7C175.823 74.18 175.576 74.7867 175.576 75.52C175.576 76.5333 176.196 77.3733 177.436 78.04L176.896 79L176.416 78.74C175.123 78.0333 174.476 76.96 174.476 75.52C174.476 74.4267 174.816 73.5467 175.496 72.88C176.176 72.2133 177.063 71.88 178.156 71.88C179.489 71.88 180.536 72.4467 181.296 73.58C182.043 72.4467 183.083 71.88 184.416 71.88C185.496 71.88 186.376 72.22 187.056 72.9C187.749 73.5667 188.096 74.44 188.096 75.52C188.096 76.5867 187.749 77.4667 187.056 78.16C186.363 78.84 185.483 79.18 184.416 79.18C184.096 79.18 183.776 79.14 183.456 79.06C183.483 78.82 183.549 78.4533 183.656 77.96C184.029 78.0267 184.283 78.06 184.416 78.06C185.163 78.06 185.776 77.8267 186.256 77.36C186.749 76.88 186.996 76.2667 186.996 75.52C186.996 74.8 186.743 74.2 186.236 73.72C185.743 73.2267 185.136 72.98 184.416 72.98C183.669 72.98 183.056 73.22 182.576 73.7C182.109 74.1667 181.876 74.7733 181.876 75.52V75.7ZM184.43 71.8C183.67 71.8 183.03 71.54 182.51 71.02C181.99 70.4867 181.73 69.84 181.73 69.08C181.73 68.32 181.996 67.68 182.53 67.16C183.05 66.64 183.69 66.38 184.45 66.38C185.21 66.38 185.843 66.64 186.35 67.16C186.856 67.68 187.11 68.32 187.11 69.08C187.11 69.8133 186.85 70.4533 186.33 71C185.796 71.5333 185.163 71.8 184.43 71.8ZM184.43 67.46C183.95 67.46 183.563 67.6133 183.27 67.92C182.963 68.2133 182.81 68.6 182.81 69.08C182.81 69.5333 182.963 69.9133 183.27 70.22C183.563 70.5133 183.936 70.66 184.39 70.66C184.856 70.66 185.243 70.5133 185.55 70.22C185.843 69.9267 185.99 69.5467 185.99 69.08C185.99 68.6133 185.85 68.2267 185.57 67.92C185.276 67.6133 184.896 67.46 184.43 67.46ZM184.43 84.4C184.083 84.4 183.91 84.1867 183.91 83.76V78.94H184.97V83.3H186.07V84.4H184.43ZM7.18 98.56C6.5 97.3733 5.66667 96.78 4.68 96.78C3.94667 96.78 3.34 97.02 2.86 97.5C2.38 97.98 2.14 98.5867 2.14 99.32C2.14 100.413 2.66667 101.207 3.72 101.7C3.81333 100.647 4.27333 99.8933 5.1 99.44C5.51333 99.2133 5.95333 99.1 6.42 99.1C6.88667 99.1 7.26667 99.2067 7.56 99.42C7.90667 99.6733 8.08 100.02 8.08 100.46C8.08 100.74 7.90667 101.12 7.56 101.6C6.89333 102.52 5.93333 102.98 4.68 102.98C3.61333 102.98 2.73333 102.64 2.04 101.96C1.36 101.267 1.02 100.387 1.02 99.32C1.02 98.2533 1.36 97.38 2.04 96.7C2.73333 96.02 3.61333 95.68 4.68 95.68C6.10667 95.68 7.25333 96.4667 8.12 98.04L7.18 98.56ZM6.32 100.16C5.82667 100.16 5.41333 100.32 5.08 100.64C4.74667 100.96 4.57333 101.367 4.56 101.86H4.68C5.46667 101.86 6.11333 101.587 6.62 101.04C6.7 100.907 6.8 100.76 6.92 100.6C6.93333 100.533 6.94 100.48 6.94 100.44C6.94 100.253 6.73333 100.16 6.32 100.16ZM12.785 103C11.705 103 10.8183 102.66 10.125 101.98C9.445 101.3 9.105 100.42 9.105 99.34C9.105 97.8333 9.81167 96.7333 11.225 96.04L11.925 96.88C10.7783 97.5867 10.205 98.4067 10.205 99.34C10.205 100.087 10.445 100.7 10.925 101.18C11.4183 101.66 12.0383 101.9 12.785 101.9C13.505 101.9 14.105 101.653 14.585 101.16C15.0783 100.667 15.325 100.06 15.325 99.34C15.325 98.42 14.7517 97.6067 13.605 96.9L14.365 96.08L14.685 96.24C15.8317 96.8133 16.405 97.8467 16.405 99.34C16.405 100.407 16.065 101.287 15.385 101.98C14.7183 102.66 13.8517 103 12.785 103ZM18.63 98.88C18.2167 98.88 17.8767 98.7467 17.61 98.48C17.3567 98.2133 17.23 97.8733 17.23 97.46C17.23 97.06 17.3633 96.7267 17.63 96.46C17.8967 96.18 18.23 96.04 18.63 96.04C19.03 96.04 19.3633 96.18 19.63 96.46C19.8967 96.7267 20.03 97.06 20.03 97.46C20.03 97.8733 19.8967 98.2133 19.63 98.48C19.3767 98.7467 19.0433 98.88 18.63 98.88ZM18.63 102.74C18.2167 102.74 17.8767 102.607 17.61 102.34C17.3567 102.073 17.23 101.733 17.23 101.32C17.23 100.92 17.3633 100.587 17.63 100.32C17.8967 100.04 18.23 99.9 18.63 99.9C19.0433 99.9 19.3767 100.033 19.63 100.3C19.8967 100.567 20.03 100.907 20.03 101.32C20.03 101.733 19.8967 102.073 19.63 102.34C19.3767 102.607 19.0433 102.74 18.63 102.74ZM18.63 97C18.35 97 18.21 97.1533 18.21 97.46C18.21 97.74 18.35 97.88 18.63 97.88C18.9367 97.88 19.09 97.74 19.09 97.46C19.09 97.1533 18.9367 97 18.63 97ZM18.63 100.88C18.35 100.88 18.21 101.027 18.21 101.32C18.21 101.627 18.35 101.78 18.63 101.78C18.9367 101.78 19.09 101.627 19.09 101.32C19.09 101.027 18.9367 100.88 18.63 100.88ZM27.0238 98.56C26.3438 97.3733 25.5104 96.78 24.5238 96.78C23.7904 96.78 23.1838 97.02 22.7038 97.5C22.2238 97.98 21.9838 98.5867 21.9838 99.32C21.9838 100.413 22.5104 101.207 23.5638 101.7C23.6571 100.647 24.1171 99.8933 24.9438 99.44C25.3571 99.2133 25.7971 99.1 26.2638 99.1C26.7304 99.1 27.1104 99.2067 27.4038 99.42C27.7504 99.6733 27.9238 100.02 27.9238 100.46C27.9238 100.74 27.7504 101.12 27.4038 101.6C26.7371 102.52 25.7771 102.98 24.5238 102.98C23.4571 102.98 22.5771 102.64 21.8838 101.96C21.2038 101.267 20.8638 100.387 20.8638 99.32C20.8638 98.2533 21.2038 97.38 21.8838 96.7C22.5771 96.02 23.4571 95.68 24.5238 95.68C25.9504 95.68 27.0971 96.4667 27.9638 98.04L27.0238 98.56ZM26.1638 100.16C25.6704 100.16 25.2571 100.32 24.9238 100.64C24.5904 100.96 24.4171 101.367 24.4038 101.86H24.5238C25.3104 101.86 25.9571 101.587 26.4638 101.04C26.5438 100.907 26.6438 100.76 26.7638 100.6C26.7771 100.533 26.7838 100.48 26.7838 100.44C26.7838 100.253 26.5771 100.16 26.1638 100.16ZM38.8888 102.98C37.6888 102.98 36.7021 102.487 35.9288 101.5L35.7888 101.32C35.0554 102.427 34.0221 102.98 32.6888 102.98C31.4354 102.98 30.4821 102.52 29.8288 101.6C29.4954 101.133 29.3288 100.753 29.3288 100.46C29.3288 100.033 29.4888 99.7 29.8088 99.46C30.1288 99.22 30.5088 99.1 30.9488 99.1C31.9488 99.1 32.7088 99.52 33.2288 100.36C33.4821 100.773 33.6221 101.22 33.6488 101.7C34.7154 101.207 35.2488 100.413 35.2488 99.32C35.2488 98.5867 35.0021 97.98 34.5088 97.5C34.0288 97.02 33.4221 96.78 32.6888 96.78C31.7154 96.78 30.8954 97.3733 30.2288 98.56L29.2688 98.04C30.1221 96.4667 31.2621 95.68 32.6888 95.68C34.0354 95.68 35.0754 96.2333 35.8088 97.34C36.5421 96.2333 37.5688 95.68 38.8888 95.68C39.9688 95.68 40.8488 96.02 41.5288 96.7C42.2221 97.3667 42.5688 98.24 42.5688 99.32C42.5688 100.387 42.2221 101.267 41.5288 101.96C40.8354 102.64 39.9554 102.98 38.8888 102.98ZM38.8888 96.78C38.1421 96.78 37.5288 97.02 37.0488 97.5C36.5821 97.9667 36.3488 98.5733 36.3488 99.32C36.3488 100.053 36.5888 100.66 37.0688 101.14C37.5488 101.62 38.1554 101.86 38.8888 101.86C39.6354 101.86 40.2488 101.627 40.7287 101.16C41.2221 100.68 41.4688 100.067 41.4688 99.32C41.4688 98.6 41.2154 98 40.7088 97.52C40.2154 97.0267 39.6088 96.78 38.8888 96.78ZM31.0688 100.16C30.6421 100.16 30.4288 100.253 30.4288 100.44C30.4554 100.48 30.5621 100.68 30.7488 101.04C31.2554 101.587 31.9021 101.86 32.6888 101.86H32.8088C32.7954 101.367 32.6221 100.96 32.2888 100.64C31.9688 100.32 31.5621 100.16 31.0688 100.16ZM45.2623 102.98C45.049 102.98 44.7157 102.927 44.2623 102.82V101.68C44.689 101.8 45.0223 101.86 45.2623 101.86C46.009 101.86 46.6157 101.627 47.0823 101.16C47.5623 100.68 47.8023 100.067 47.8023 99.32C47.8023 98.6 47.5557 98 47.0623 97.52C46.5823 97.0267 45.9823 96.78 45.2623 96.78C44.089 96.78 43.2757 97.4267 42.8223 98.72C42.809 98.7867 42.749 98.9467 42.6423 99.2L41.6623 98.62L41.7423 98.34C42.249 96.5667 43.4223 95.68 45.2623 95.68C46.3157 95.68 47.189 96.0267 47.8823 96.72C48.5757 97.4 48.9223 98.2667 48.9223 99.32C48.9223 100.4 48.5823 101.28 47.9023 101.96C47.2223 102.64 46.3423 102.98 45.2623 102.98ZM56.6691 101.12C56.4157 101.68 55.9691 102.133 55.3291 102.48C54.7424 102.813 54.1224 102.98 53.4691 102.98C52.4024 102.98 51.5224 102.64 50.8291 101.96C50.1491 101.267 49.8091 100.387 49.8091 99.32C49.8091 98.2533 50.1491 97.38 50.8291 96.7C51.5224 96.02 52.4024 95.68 53.4691 95.68C54.8957 95.68 56.0424 96.4667 56.9091 98.04L55.9691 98.56C55.2891 97.3733 54.4557 96.78 53.4691 96.78C52.7357 96.78 52.1291 97.02 51.6491 97.5C51.1691 97.98 50.9291 98.5867 50.9291 99.32C50.9291 100.053 51.1691 100.66 51.6491 101.14C52.1291 101.62 52.7357 101.86 53.4691 101.86C54.4557 101.86 55.2891 101.267 55.9691 100.08L56.9091 100.6L56.6691 101.12ZM55.0941 92.92C55.0674 92.9333 55.0407 92.94 55.0141 92.94C54.9874 92.94 54.9741 92.9267 54.9741 92.9C54.9341 92.4733 54.7741 92.1267 54.4941 91.86C54.2007 91.5933 53.8407 91.46 53.4141 91.46C52.9341 91.46 52.5474 91.6133 52.2541 91.92C51.9474 92.2133 51.7941 92.6 51.7941 93.08C51.7941 93.5333 51.9474 93.9133 52.2541 94.22C52.5474 94.5133 52.9207 94.66 53.3741 94.66C53.4674 94.66 53.6141 94.6467 53.8141 94.62V95.78C53.6541 95.7933 53.5207 95.8 53.4141 95.8C52.6541 95.8 52.0141 95.54 51.4941 95.02C50.9741 94.4867 50.7141 93.84 50.7141 93.08C50.7141 92.32 50.9807 91.68 51.5141 91.16C52.0341 90.64 52.6741 90.38 53.4341 90.38C54.1274 90.38 54.7074 90.5867 55.1741 91C55.6407 91.4 55.9407 91.9467 56.0741 92.64C55.7674 92.76 55.4407 92.8533 55.0941 92.92ZM61.5741 103C60.4941 103 59.6074 102.66 58.9141 101.98C58.2341 101.3 57.8941 100.42 57.8941 99.34C57.8941 97.8333 58.6007 96.7333 60.0141 96.04L60.7141 96.88C59.5674 97.5867 58.9941 98.4067 58.9941 99.34C58.9941 100.087 59.2341 100.7 59.7141 101.18C60.2074 101.66 60.8274 101.9 61.5741 101.9C62.2941 101.9 62.8941 101.653 63.3741 101.16C63.8674 100.667 64.1141 100.06 64.1141 99.34C64.1141 98.42 63.5407 97.6067 62.3941 96.9L63.1541 96.08L63.4741 96.24C64.6207 96.8133 65.1941 97.8467 65.1941 99.34C65.1941 100.407 64.8541 101.287 64.1741 101.98C63.5074 102.66 62.6407 103 61.5741 103ZM65.9591 103V93C65.9591 92.9333 65.9524 92.8933 65.9391 92.88C65.7791 91.9333 65.2591 91.46 64.3791 91.46C63.8991 91.46 63.5124 91.6133 63.2191 91.92C62.9124 92.2267 62.7591 92.62 62.7591 93.1C62.7591 93.2733 62.7857 93.4533 62.8391 93.64L61.7791 93.88C61.7124 93.6 61.6791 93.34 61.6791 93.1C61.6791 92.3267 61.9391 91.68 62.4591 91.16C62.9791 90.64 63.6257 90.38 64.3991 90.38C65.1191 90.38 65.7257 90.6067 66.2191 91.06C66.7257 91.5133 67.0124 92.1 67.0791 92.82V103H65.9591ZM77.7945 103.02C76.4612 103.02 75.4212 102.453 74.6745 101.32C73.9279 102.44 72.8879 103 71.5545 103C70.3545 103 69.2679 102.387 68.2945 101.16L69.1945 100.48C69.9545 101.427 70.7412 101.9 71.5545 101.9C72.2879 101.9 72.8945 101.687 73.3745 101.26C73.8679 100.82 74.1145 100.24 74.1145 99.52V99.12C74.1145 98.4267 73.8612 97.8667 73.3545 97.44C72.8612 97.0133 72.2612 96.8 71.5545 96.8C70.5945 96.8 69.7679 97.3733 69.0745 98.52L68.1145 97.96L68.3945 97.48C69.0879 96.2933 70.1412 95.7 71.5545 95.7C72.6345 95.7 73.5212 96.04 74.2145 96.72C74.9079 97.3867 75.2545 98.26 75.2545 99.34V99.54C75.2545 100.247 75.4945 100.82 75.9745 101.26C76.4679 101.7 77.0745 101.92 77.7945 101.92C78.5412 101.92 79.1612 101.68 79.6545 101.2C80.1479 100.707 80.3945 100.087 80.3945 99.34C80.3945 98.6067 80.1412 98 79.6345 97.52C79.1412 97.04 78.5279 96.8 77.7945 96.8C77.5012 96.8 77.0279 96.92 76.3745 97.16L76.0145 96.1L76.5145 95.92C76.8879 95.7867 77.3145 95.72 77.7945 95.72C78.9012 95.72 79.7945 96.0467 80.4745 96.7C81.1545 97.3533 81.4945 98.2333 81.4945 99.34C81.4945 100.42 81.1479 101.307 80.4545 102C79.7612 102.68 78.8745 103.02 77.7945 103.02ZM83.4081 100.5L83.4281 100.52L83.4881 100.44V100.6C84.1948 101.48 84.9681 101.92 85.8081 101.92C86.5415 101.92 87.1481 101.707 87.6281 101.28C88.1081 100.84 88.3481 100.26 88.3481 99.54V99.14C88.3481 98.4333 88.1015 97.8667 87.6081 97.44C87.1281 97.0133 86.5281 96.8 85.8081 96.8C84.8481 96.8 84.0148 97.38 83.3081 98.54L82.3481 97.98L82.6281 97.48C83.2948 96.2933 84.3548 95.7 85.8081 95.7C86.8881 95.7 87.7681 96.0467 88.4481 96.74C89.1415 97.42 89.4881 98.3 89.4881 99.38V99.58C89.4881 100.3 89.7415 100.88 90.2481 101.32C90.7148 101.733 91.3148 101.94 92.0481 101.94C92.7948 101.94 93.4081 101.7 93.8881 101.22C94.3815 100.74 94.6281 100.127 94.6281 99.38C94.6281 98.6467 94.3815 98.0333 93.8881 97.54C93.3948 97.0467 92.7815 96.8 92.0481 96.8C91.7415 96.8 91.2615 96.92 90.6081 97.16L90.2481 96.12L90.7681 95.92C91.1148 95.7867 91.5415 95.72 92.0481 95.72C93.1148 95.72 93.9948 96.0667 94.6881 96.76C95.3815 97.44 95.7281 98.3133 95.7281 99.38C95.7281 100.433 95.3748 101.313 94.6681 102.02C93.9748 102.713 93.1015 103.06 92.0481 103.06C90.7015 103.06 89.6548 102.487 88.9081 101.34C88.1748 102.473 87.1415 103.04 85.8081 103.04C84.9681 103.04 84.1948 102.773 83.4881 102.24V106.52C83.4881 107.027 83.7215 107.28 84.1881 107.28H93.8881C94.3415 107.28 94.5681 107.113 94.5681 106.78V105.8H95.7281V106.76C95.7281 107.853 95.1081 108.4 93.8681 108.4H84.1881C82.9481 108.4 82.3281 107.787 82.3281 106.56V101.32L83.1081 100.76L83.4081 100.5ZM93.7464 92.92C93.7197 92.9333 93.6931 92.94 93.6664 92.94C93.6397 92.94 93.6264 92.9267 93.6264 92.9C93.5864 92.4733 93.4264 92.1267 93.1464 91.86C92.8531 91.5933 92.4931 91.46 92.0664 91.46C91.5864 91.46 91.1997 91.6133 90.9064 91.92C90.5997 92.2133 90.4464 92.6 90.4464 93.08C90.4464 93.5333 90.5997 93.9133 90.9064 94.22C91.1997 94.5133 91.5731 94.66 92.0264 94.66C92.1197 94.66 92.2664 94.6467 92.4664 94.62V95.78C92.3064 95.7933 92.1731 95.8 92.0664 95.8C91.3064 95.8 90.6664 95.54 90.1464 95.02C89.6264 94.4867 89.3664 93.84 89.3664 93.08C89.3664 92.32 89.6331 91.68 90.1664 91.16C90.6864 90.64 91.3264 90.38 92.0864 90.38C92.7797 90.38 93.3597 90.5867 93.8264 91C94.2931 91.4 94.5931 91.9467 94.7264 92.64C94.4197 92.76 94.0931 92.8533 93.7464 92.92ZM98.6864 103V96.28H99.7864V103H98.6864ZM96.9664 103V96.28H98.0664V103H96.9664ZM107.094 89.0938L108.695 89.6406L106.547 94.6602L105.336 94.3477L107.094 89.0938ZM103.578 89.0938L105.18 89.6406L103.031 94.6602L101.82 94.3477L103.578 89.0938Z" fill="white" fill-opacity="0.65"/>
</svg>
