<svg width="287" height="87" viewBox="0 0 287 87" fill="none" xmlns="http://www.w3.org/2000/svg">
<path d="M8.416 13.672C7.6 12.248 6.6 11.536 5.416 11.536C4.536 11.536 3.808 11.824 3.232 12.4C2.656 12.976 2.368 13.704 2.368 14.584C2.368 15.896 3 16.848 4.264 17.44C4.376 16.176 4.928 15.272 5.92 14.728C6.416 14.456 6.944 14.32 7.504 14.32C8.064 14.32 8.52 14.448 8.872 14.704C9.288 15.008 9.496 15.424 9.496 15.952C9.496 16.288 9.288 16.744 8.872 17.32C8.072 18.424 6.92 18.976 5.416 18.976C4.136 18.976 3.08 18.568 2.248 17.752C1.432 16.92 1.024 15.864 1.024 14.584C1.024 13.304 1.432 12.256 2.248 11.44C3.08 10.624 4.136 10.216 5.416 10.216C7.128 10.216 8.504 11.16 9.544 13.048L8.416 13.672ZM7.384 15.592C6.792 15.592 6.296 15.784 5.896 16.168C5.496 16.552 5.288 17.04 5.272 17.632H5.416C6.36 17.632 7.136 17.304 7.744 16.648C7.84 16.488 7.96 16.312 8.104 16.12C8.12 16.04 8.128 15.976 8.128 15.928C8.128 15.704 7.88 15.592 7.384 15.592ZM22.63 19C22.102 19 21.59 18.912 21.094 18.736L20.494 18.52L20.926 17.272C21.71 17.544 22.278 17.68 22.63 17.68C23.526 17.68 24.27 17.392 24.862 16.816C25.454 16.24 25.75 15.504 25.75 14.608C25.75 13.728 25.446 13 24.838 12.424C24.246 11.848 23.51 11.56 22.63 11.56C21.75 11.56 21.022 11.824 20.446 12.352C19.87 12.864 19.582 13.552 19.582 14.416V14.608C19.582 15.904 19.166 16.968 18.334 17.8C17.502 18.616 16.438 19.024 15.142 19.024C13.446 19.024 12.182 18.312 11.35 16.888L11.014 16.312L12.166 15.616C12.998 17.008 13.99 17.704 15.142 17.704C15.99 17.704 16.71 17.448 17.302 16.936C17.91 16.424 18.214 15.752 18.214 14.92V14.416C18.214 13.568 17.918 12.88 17.326 12.352C16.734 11.824 16.006 11.56 15.142 11.56C14.166 11.56 13.222 12.136 12.31 13.288L11.23 12.448C12.398 10.992 13.702 10.264 15.142 10.264C16.742 10.264 17.99 10.936 18.886 12.28C19.782 10.92 21.03 10.24 22.63 10.24C23.926 10.24 24.99 10.648 25.822 11.464C26.654 12.264 27.07 13.312 27.07 14.608C27.07 15.92 26.654 16.984 25.822 17.8C25.006 18.6 23.942 19 22.63 19ZM29.7263 14.056C29.2303 14.056 28.8223 13.896 28.5023 13.576C28.1983 13.256 28.0463 12.848 28.0463 12.352C28.0463 11.872 28.2063 11.472 28.5263 11.152C28.8463 10.816 29.2463 10.648 29.7263 10.648C30.2063 10.648 30.6063 10.816 30.9263 11.152C31.2463 11.472 31.4063 11.872 31.4063 12.352C31.4063 12.848 31.2463 13.256 30.9263 13.576C30.6223 13.896 30.2223 14.056 29.7263 14.056ZM29.7263 18.688C29.2303 18.688 28.8223 18.528 28.5023 18.208C28.1983 17.888 28.0463 17.48 28.0463 16.984C28.0463 16.504 28.2063 16.104 28.5263 15.784C28.8463 15.448 29.2463 15.28 29.7263 15.28C30.2223 15.28 30.6223 15.44 30.9263 15.76C31.2463 16.08 31.4063 16.488 31.4063 16.984C31.4063 17.48 31.2463 17.888 30.9263 18.208C30.6223 18.528 30.2223 18.688 29.7263 18.688ZM29.7263 11.8C29.3903 11.8 29.2223 11.984 29.2223 12.352C29.2223 12.688 29.3903 12.856 29.7263 12.856C30.0943 12.856 30.2783 12.688 30.2783 12.352C30.2783 11.984 30.0943 11.8 29.7263 11.8ZM29.7263 16.456C29.3903 16.456 29.2223 16.632 29.2223 16.984C29.2223 17.352 29.3903 17.536 29.7263 17.536C30.0943 17.536 30.2783 17.352 30.2783 16.984C30.2783 16.632 30.0943 16.456 29.7263 16.456ZM41.2388 15.04H41.1668C41.0868 16.64 40.1348 17.952 38.3108 18.976L37.7108 17.848C39.1188 17.032 39.8228 16.024 39.8228 14.824C39.8228 13.944 39.5348 13.216 38.9588 12.64C38.3828 12.064 37.6548 11.776 36.7748 11.776C35.8948 11.776 35.1588 12.064 34.5668 12.64C33.9748 13.216 33.6788 13.944 33.6788 14.824C33.6788 16.04 34.4228 17.048 35.9108 17.848L35.2628 19L34.6868 18.688C33.1348 17.84 32.3588 16.552 32.3588 14.824C32.3588 13.512 32.7668 12.456 33.5828 11.656C34.3988 10.856 35.4628 10.456 36.7748 10.456C38.3748 10.456 39.6308 11.136 40.5428 12.496C41.4388 11.136 42.6868 10.456 44.2868 10.456C45.5828 10.456 46.6388 10.864 47.4548 11.68C48.2868 12.48 48.7028 13.528 48.7028 14.824C48.7028 16.104 48.2868 17.16 47.4548 17.992C46.6228 18.808 45.5668 19.216 44.2868 19.216C43.9028 19.216 43.5188 19.168 43.1348 19.072C43.1668 18.784 43.2468 18.344 43.3748 17.752C43.8228 17.832 44.1268 17.872 44.2868 17.872C45.1828 17.872 45.9188 17.592 46.4948 17.032C47.0868 16.456 47.3828 15.72 47.3828 14.824C47.3828 13.96 47.0788 13.24 46.4708 12.664C45.8788 12.072 45.1508 11.776 44.2868 11.776C43.3908 11.776 42.6548 12.064 42.0788 12.64C41.5188 13.2 41.2388 13.928 41.2388 14.824V15.04ZM57.9591 16.744C57.6551 17.416 57.1191 17.96 56.3511 18.376C55.6471 18.776 54.9031 18.976 54.1191 18.976C52.8391 18.976 51.7831 18.568 50.9511 17.752C50.1351 16.92 49.7271 15.864 49.7271 14.584C49.7271 13.304 50.1351 12.256 50.9511 11.44C51.7831 10.624 52.8391 10.216 54.1191 10.216C55.8311 10.216 57.2071 11.16 58.2471 13.048L57.1191 13.672C56.3031 12.248 55.3031 11.536 54.1191 11.536C53.2391 11.536 52.5111 11.824 51.9351 12.4C51.3591 12.976 51.0711 13.704 51.0711 14.584C51.0711 15.464 51.3591 16.192 51.9351 16.768C52.5111 17.344 53.2391 17.632 54.1191 17.632C55.3031 17.632 56.3031 16.92 57.1191 15.496L58.2471 16.12L57.9591 16.744ZM56.0691 6.904C56.0371 6.92 56.0051 6.928 55.9731 6.928C55.9411 6.928 55.9251 6.912 55.9251 6.88C55.8771 6.368 55.6851 5.952 55.3491 5.632C54.9971 5.312 54.5651 5.152 54.0531 5.152C53.4771 5.152 53.0131 5.336 52.6611 5.704C52.2931 6.056 52.1091 6.52 52.1091 7.096C52.1091 7.64 52.2931 8.096 52.6611 8.464C53.0131 8.816 53.4611 8.992 54.0051 8.992C54.1171 8.992 54.2931 8.976 54.5331 8.944V10.336C54.3411 10.352 54.1811 10.36 54.0531 10.36C53.1411 10.36 52.3731 10.048 51.7491 9.424C51.1251 8.784 50.8131 8.008 50.8131 7.096C50.8131 6.184 51.1331 5.416 51.7731 4.792C52.3971 4.168 53.1651 3.856 54.0771 3.856C54.9091 3.856 55.6051 4.104 56.1651 4.6C56.7251 5.08 57.0851 5.736 57.2451 6.568C56.8771 6.712 56.4851 6.824 56.0691 6.904ZM61.1091 14.056C60.6131 14.056 60.2051 13.896 59.8851 13.576C59.5811 13.256 59.4291 12.848 59.4291 12.352C59.4291 11.872 59.5891 11.472 59.9091 11.152C60.2291 10.816 60.6291 10.648 61.1091 10.648C61.5891 10.648 61.9891 10.816 62.3091 11.152C62.6291 11.472 62.7891 11.872 62.7891 12.352C62.7891 12.848 62.6291 13.256 62.3091 13.576C62.0051 13.896 61.6051 14.056 61.1091 14.056ZM61.1091 18.688C60.6131 18.688 60.2051 18.528 59.8851 18.208C59.5811 17.888 59.4291 17.48 59.4291 16.984C59.4291 16.504 59.5891 16.104 59.9091 15.784C60.2291 15.448 60.6291 15.28 61.1091 15.28C61.6051 15.28 62.0051 15.44 62.3091 15.76C62.6291 16.08 62.7891 16.488 62.7891 16.984C62.7891 17.48 62.6291 17.888 62.3091 18.208C62.0051 18.528 61.6051 18.688 61.1091 18.688ZM61.1091 11.8C60.7731 11.8 60.6051 11.984 60.6051 12.352C60.6051 12.688 60.7731 12.856 61.1091 12.856C61.4771 12.856 61.6611 12.688 61.6611 12.352C61.6611 11.984 61.4771 11.8 61.1091 11.8ZM61.1091 16.456C60.7731 16.456 60.6051 16.632 60.6051 16.984C60.6051 17.352 60.7731 17.536 61.1091 17.536C61.4771 17.536 61.6611 17.352 61.6611 16.984C61.6611 16.632 61.4771 16.456 61.1091 16.456ZM71.1816 13.672C70.3656 12.248 69.3656 11.536 68.1816 11.536C67.3016 11.536 66.5736 11.824 65.9976 12.4C65.4216 12.976 65.1336 13.704 65.1336 14.584C65.1336 15.896 65.7656 16.848 67.0296 17.44C67.1416 16.176 67.6936 15.272 68.6856 14.728C69.1816 14.456 69.7096 14.32 70.2696 14.32C70.8296 14.32 71.2856 14.448 71.6376 14.704C72.0536 15.008 72.2616 15.424 72.2616 15.952C72.2616 16.288 72.0536 16.744 71.6376 17.32C70.8376 18.424 69.6856 18.976 68.1816 18.976C66.9016 18.976 65.8456 18.568 65.0136 17.752C64.1976 16.92 63.7896 15.864 63.7896 14.584C63.7896 13.304 64.1976 12.256 65.0136 11.44C65.8456 10.624 66.9016 10.216 68.1816 10.216C69.8936 10.216 71.2696 11.16 72.3096 13.048L71.1816 13.672ZM70.1496 15.592C69.5576 15.592 69.0616 15.784 68.6616 16.168C68.2616 16.552 68.0536 17.04 68.0376 17.632H68.1816C69.1256 17.632 69.9016 17.304 70.5096 16.648C70.6056 16.488 70.7256 16.312 70.8696 16.12C70.8856 16.04 70.8936 15.976 70.8936 15.928C70.8936 15.704 70.6456 15.592 70.1496 15.592ZM81.6516 25.48C81.2196 25.48 81.0036 25.224 81.0036 24.712V14.608C81.0036 13.728 80.7156 13 80.1396 12.424C79.5636 11.832 78.8356 11.536 77.9556 11.536C77.0756 11.536 76.3476 11.832 75.7716 12.424C75.1956 13 74.9076 13.728 74.9076 14.608V14.704C75.2276 14.608 75.5796 14.56 75.9636 14.56C76.9076 14.56 77.7316 14.832 78.4356 15.376C79.2036 15.968 79.5876 16.72 79.5876 17.632C79.5876 18.592 79.1156 19.072 78.1716 19.072C77.9956 19.072 77.8276 19.056 77.6676 19.024C76.3876 18.944 75.3796 18.512 74.6436 17.728C73.9236 16.928 73.5636 15.888 73.5636 14.608C73.5636 13.328 73.9716 12.28 74.7876 11.464C75.6196 10.632 76.6756 10.216 77.9556 10.216C79.2356 10.216 80.2916 10.632 81.1236 11.464C81.9556 12.28 82.3716 13.328 82.3716 14.608V24.16H83.2356V25.48H81.6516ZM78.2436 17.44C78.2436 16.832 77.9236 16.352 77.2836 16C76.7236 15.68 76.1236 15.544 75.4836 15.592L75.1476 15.712C75.1956 15.888 75.2836 16.064 75.4116 16.24C76.1316 17.248 76.8916 17.752 77.6916 17.752C77.8836 17.752 78.0276 17.712 78.1236 17.632L78.2436 17.536V17.44ZM84.9216 14.056C84.4256 14.056 84.0176 13.896 83.6976 13.576C83.3936 13.256 83.2416 12.848 83.2416 12.352C83.2416 11.872 83.4016 11.472 83.7216 11.152C84.0416 10.816 84.4416 10.648 84.9216 10.648C85.4016 10.648 85.8016 10.816 86.1216 11.152C86.4416 11.472 86.6016 11.872 86.6016 12.352C86.6016 12.848 86.4416 13.256 86.1216 13.576C85.8176 13.896 85.4176 14.056 84.9216 14.056ZM84.9216 18.688C84.4256 18.688 84.0176 18.528 83.6976 18.208C83.3936 17.888 83.2416 17.48 83.2416 16.984C83.2416 16.504 83.4016 16.104 83.7216 15.784C84.0416 15.448 84.4416 15.28 84.9216 15.28C85.4176 15.28 85.8176 15.44 86.1216 15.76C86.4416 16.08 86.6016 16.488 86.6016 16.984C86.6016 17.48 86.4416 17.888 86.1216 18.208C85.8176 18.528 85.4176 18.688 84.9216 18.688ZM84.9216 11.8C84.5856 11.8 84.4176 11.984 84.4176 12.352C84.4176 12.688 84.5856 12.856 84.9216 12.856C85.2896 12.856 85.4736 12.688 85.4736 12.352C85.4736 11.984 85.2896 11.8 84.9216 11.8ZM84.9216 16.456C84.5856 16.456 84.4176 16.632 84.4176 16.984C84.4176 17.352 84.5856 17.536 84.9216 17.536C85.2896 17.536 85.4736 17.352 85.4736 16.984C85.4736 16.632 85.2896 16.456 84.9216 16.456ZM94.267 19C92.971 19 91.907 18.592 91.075 17.776C90.259 16.96 89.851 15.904 89.851 14.608C89.851 12.8 90.699 11.48 92.395 10.648L93.235 11.656C91.859 12.504 91.171 13.488 91.171 14.608C91.171 15.504 91.459 16.24 92.035 16.816C92.627 17.392 93.371 17.68 94.267 17.68C95.131 17.68 95.851 17.384 96.427 16.792C97.019 16.2 97.315 15.472 97.315 14.608C97.315 13.504 96.627 12.528 95.251 11.68L96.163 10.696L96.547 10.888C97.923 11.576 98.611 12.816 98.611 14.608C98.611 15.888 98.203 16.944 97.387 17.776C96.587 18.592 95.547 19 94.267 19ZM111.529 18.976C109.929 18.976 108.681 18.288 107.785 16.912C106.873 18.288 105.617 18.976 104.017 18.976C102.737 18.976 101.681 18.568 100.849 17.752C100.017 16.92 99.601 15.864 99.601 14.584C99.601 13.272 100.009 12.216 100.825 11.416C101.641 10.616 102.705 10.216 104.017 10.216C105.617 10.216 106.873 10.896 107.785 12.256C108.681 10.896 109.929 10.216 111.529 10.216C112.825 10.216 113.881 10.624 114.697 11.44C115.529 12.24 115.945 13.288 115.945 14.584C115.945 15.864 115.529 16.92 114.697 17.752C113.865 18.568 112.809 18.976 111.529 18.976ZM111.529 11.536C110.633 11.536 109.897 11.824 109.321 12.4C108.761 12.96 108.481 13.688 108.481 14.584C108.481 15.464 108.769 16.192 109.345 16.768C109.921 17.344 110.649 17.632 111.529 17.632C112.425 17.632 113.161 17.352 113.737 16.792C114.329 16.216 114.625 15.48 114.625 14.584C114.625 13.72 114.321 13 113.713 12.424C113.121 11.832 112.393 11.536 111.529 11.536ZM104.017 11.536C103.137 11.536 102.401 11.824 101.809 12.4C101.217 12.976 100.921 13.704 100.921 14.584C100.921 15.464 101.217 16.192 101.809 16.768C102.401 17.344 103.137 17.632 104.017 17.632C104.897 17.632 105.625 17.344 106.201 16.768C106.777 16.192 107.065 15.464 107.065 14.584C107.065 13.704 106.777 12.976 106.201 12.4C105.625 11.824 104.897 11.536 104.017 11.536ZM121.337 19C120.041 19 118.977 18.592 118.145 17.776C117.329 16.96 116.921 15.904 116.921 14.608C116.921 12.8 117.769 11.48 119.465 10.648L120.305 11.656C118.929 12.504 118.241 13.488 118.241 14.608C118.241 15.28 118.433 15.888 118.817 16.432C119.521 15.664 120.361 15.264 121.337 15.232C122.297 15.2 123.169 15.528 123.953 16.216C124.241 15.72 124.385 15.184 124.385 14.608C124.385 13.504 123.697 12.528 122.321 11.68L123.233 10.696L123.617 10.888C124.993 11.576 125.681 12.816 125.681 14.608C125.681 15.888 125.273 16.944 124.457 17.776C123.657 18.592 122.617 19 121.337 19ZM121.361 16.336C120.657 16.432 120.089 16.72 119.657 17.2C120.185 17.52 120.745 17.68 121.337 17.68C121.993 17.68 122.609 17.456 123.185 17.008C122.689 16.608 122.081 16.384 121.361 16.336Z" fill="white"/>
<path d="M3.38281 48.543L1.78125 47.9961L3.92969 42.9766L5.14062 43.2891L3.38281 48.543ZM6.89844 48.543L5.29688 47.9961L7.44531 42.9766L8.65625 43.2891L6.89844 48.543ZM19.3575 56.98C18.0242 56.98 16.9842 56.4067 16.2375 55.26C15.4775 56.4067 14.4308 56.98 13.0975 56.98C12.0308 56.98 11.1508 56.64 10.4575 55.96C9.76417 55.2667 9.4175 54.3867 9.4175 53.32C9.4175 51.88 10.0642 50.8067 11.3575 50.1L11.8375 49.84L12.3775 50.8C11.1375 51.48 10.5175 52.32 10.5175 53.32C10.5175 54.0533 10.7642 54.66 11.2575 55.14C11.7508 55.62 12.3642 55.86 13.0975 55.86C13.8308 55.86 14.4375 55.62 14.9175 55.14C15.3975 54.66 15.6375 54.0533 15.6375 53.32C15.6375 52.3333 15.0508 51.4933 13.8775 50.8L14.3775 49.88C15.8975 50.7333 16.6908 51.82 16.7575 53.14H16.8175V53.32C16.8175 54.0533 17.0575 54.66 17.5375 55.14C18.0175 55.62 18.6242 55.86 19.3575 55.86C20.1042 55.86 20.7175 55.6267 21.1975 55.16C21.6908 54.68 21.9375 54.0667 21.9375 53.32C21.9375 52.6 21.6842 52 21.1775 51.52C20.6842 51.0267 20.0775 50.78 19.3575 50.78C19.2242 50.78 18.9708 50.82 18.5975 50.9C18.4908 50.3933 18.4242 50.0267 18.3975 49.8C18.7175 49.72 19.0375 49.68 19.3575 49.68C20.4375 49.68 21.3175 50.02 21.9975 50.7C22.6908 51.3667 23.0375 52.24 23.0375 53.32C23.0375 54.3867 22.6908 55.2667 21.9975 55.96C21.3042 56.64 20.4242 56.98 19.3575 56.98ZM25.7311 56.98C25.5178 56.98 25.1844 56.9267 24.7311 56.82V55.68C25.1578 55.8 25.4911 55.86 25.7311 55.86C26.4778 55.86 27.0844 55.6267 27.5511 55.16C28.0311 54.68 28.2711 54.0667 28.2711 53.32C28.2711 52.6 28.0244 52 27.5311 51.52C27.0511 51.0267 26.4511 50.78 25.7311 50.78C24.5578 50.78 23.7444 51.4267 23.2911 52.72C23.2778 52.7867 23.2178 52.9467 23.1111 53.2L22.1311 52.62L22.2111 52.34C22.7178 50.5667 23.8911 49.68 25.7311 49.68C26.7844 49.68 27.6578 50.0267 28.3511 50.72C29.0444 51.4 29.3911 52.2667 29.3911 53.32C29.3911 54.4 29.0511 55.28 28.3711 55.96C27.6911 56.64 26.8111 56.98 25.7311 56.98ZM36.5378 62.36C36.4178 62.3867 36.1511 62.4 35.7378 62.4H32.1178C30.8911 62.4 30.2778 61.7867 30.2778 60.56L30.2978 54.68L30.4578 54.66L31.3978 54.12C32.0778 55.3067 32.9178 55.9 33.9178 55.9C34.6511 55.9 35.2578 55.66 35.7378 55.18C36.2178 54.6867 36.4578 54.0733 36.4578 53.34C36.4578 52.62 36.2111 52.0133 35.7178 51.52C35.2378 51.0267 34.6378 50.78 33.9178 50.78C32.9178 50.78 32.0778 51.3733 31.3978 52.56L30.4578 52.04C31.3511 50.4667 32.5045 49.68 33.9178 49.68C34.9978 49.68 35.8711 50.02 36.5378 50.7C37.2178 51.38 37.5578 52.26 37.5578 53.34C37.5578 54.4333 37.2245 55.32 36.5578 56C35.8911 56.68 35.0111 57.02 33.9178 57.02C33.0111 57.02 32.1845 56.7 31.4378 56.06V60.52C31.4378 61.0267 31.6645 61.28 32.1178 61.28H35.7578C36.1845 61.28 36.3978 61.1133 36.3978 60.78V59.8H37.5578V60.76C37.5578 61.68 37.2178 62.2133 36.5378 62.36ZM35.5628 46.92C35.5361 46.9333 35.5095 46.94 35.4828 46.94C35.4561 46.94 35.4428 46.9267 35.4428 46.9C35.4028 46.4733 35.2428 46.1267 34.9628 45.86C34.6695 45.5933 34.3095 45.46 33.8828 45.46C33.4028 45.46 33.0161 45.6133 32.7228 45.92C32.4161 46.2133 32.2628 46.6 32.2628 47.08C32.2628 47.5333 32.4161 47.9133 32.7228 48.22C33.0161 48.5133 33.3895 48.66 33.8428 48.66C33.9361 48.66 34.0828 48.6467 34.2828 48.62V49.78C34.1228 49.7933 33.9895 49.8 33.8828 49.8C33.1228 49.8 32.4828 49.54 31.9628 49.02C31.4428 48.4867 31.1828 47.84 31.1828 47.08C31.1828 46.32 31.4495 45.68 31.9828 45.16C32.5028 44.64 33.1428 44.38 33.9028 44.38C34.5961 44.38 35.1761 44.5867 35.6428 45C36.1095 45.4 36.4095 45.9467 36.5428 46.64C36.2361 46.76 35.9095 46.8533 35.5628 46.92ZM41.8828 54.06V54H41.7828L41.8028 52.92H42.4628C43.4228 52.92 43.9495 52.5733 44.0428 51.88C43.9361 51.16 43.1428 50.8 41.6628 50.8C40.6228 50.8 39.9428 51.1067 39.6228 51.72C39.5161 51.9333 39.5828 52.04 39.8228 52.04H40.0428L39.9628 53.06H39.8228C38.9028 53.06 38.4428 52.6333 38.4428 51.78C38.4428 51.0333 38.8161 50.48 39.5628 50.12C40.1361 49.84 40.8361 49.7 41.6628 49.7C43.1161 49.7 44.1561 50.0933 44.7828 50.88C45.5161 50.1067 46.4161 49.72 47.4828 49.72C48.3495 49.72 49.1295 50.0067 49.8228 50.58C50.6895 51.2867 51.1228 52.22 51.1228 53.38C51.1228 54.2467 50.8361 55.0267 50.2628 55.72C49.5295 56.6 48.6028 57.04 47.4828 57.04C47.0828 57.04 46.6828 56.98 46.2828 56.86C46.1095 56.8067 46.0228 56.66 46.0228 56.42C46.0228 55.9533 46.0361 55.68 46.0628 55.6C46.1961 55.1867 46.3495 54.9067 46.5228 54.76C47.1361 54.2267 47.7228 53.96 48.2828 53.96C48.8828 53.96 49.3761 54.12 49.7628 54.44C49.9361 54.12 50.0228 53.7667 50.0228 53.38C50.0228 52.6467 49.7828 52.0333 49.3028 51.54C48.8228 51.0467 48.2161 50.8 47.4828 50.8C46.4161 50.8 45.6361 51.2867 45.1428 52.26C45.0495 52.7 44.8028 53.0867 44.4028 53.42C45.0028 53.8067 45.2695 54.34 45.2028 55.02C45.0695 56.34 43.8895 57 41.6628 57C40.9561 57 40.3028 56.88 39.7028 56.64C38.9161 56.3333 38.5028 55.88 38.4628 55.28L38.4428 54.94L39.5428 54.68C39.5561 54.8667 39.5828 55.08 39.6228 55.32C39.7161 55.4933 40.0295 55.64 40.5628 55.76C40.9761 55.8533 41.3428 55.9 41.6628 55.9C43.2228 55.9 44.0295 55.5667 44.0828 54.9C44.1228 54.3133 43.5361 54.02 42.3228 54.02C42.2295 54.0067 42.0828 54.02 41.8828 54.06ZM48.3628 54.78C48.0028 54.78 47.6561 54.9933 47.3228 55.42C47.2695 55.4867 47.2028 55.6533 47.1228 55.92C47.2695 55.9333 47.3895 55.94 47.4828 55.94C48.0961 55.94 48.7295 55.6467 49.3828 55.06C49.1428 54.8733 48.8028 54.78 48.3628 54.78ZM53.817 56.98C53.6037 56.98 53.2704 56.9267 52.817 56.82V55.68C53.2437 55.8 53.577 55.86 53.817 55.86C54.5637 55.86 55.1704 55.6267 55.637 55.16C56.117 54.68 56.357 54.0667 56.357 53.32C56.357 52.6 56.1104 52 55.617 51.52C55.137 51.0267 54.537 50.78 53.817 50.78C52.6437 50.78 51.8304 51.4267 51.377 52.72C51.3637 52.7867 51.3037 52.9467 51.197 53.2L50.217 52.62L50.297 52.34C50.8037 50.5667 51.977 49.68 53.817 49.68C54.8704 49.68 55.7437 50.0267 56.437 50.72C57.1304 51.4 57.477 52.2667 57.477 53.32C57.477 54.4 57.137 55.28 56.457 55.96C55.777 56.64 54.897 56.98 53.817 56.98ZM59.7238 52.88C59.3104 52.88 58.9704 52.7467 58.7038 52.48C58.4504 52.2133 58.3237 51.8733 58.3237 51.46C58.3237 51.06 58.4571 50.7267 58.7238 50.46C58.9904 50.18 59.3238 50.04 59.7238 50.04C60.1238 50.04 60.4571 50.18 60.7238 50.46C60.9904 50.7267 61.1238 51.06 61.1238 51.46C61.1238 51.8733 60.9904 52.2133 60.7238 52.48C60.4704 52.7467 60.1371 52.88 59.7238 52.88ZM59.7238 56.74C59.3104 56.74 58.9704 56.6067 58.7038 56.34C58.4504 56.0733 58.3237 55.7333 58.3237 55.32C58.3237 54.92 58.4571 54.5867 58.7238 54.32C58.9904 54.04 59.3238 53.9 59.7238 53.9C60.1371 53.9 60.4704 54.0333 60.7238 54.3C60.9904 54.5667 61.1238 54.9067 61.1238 55.32C61.1238 55.7333 60.9904 56.0733 60.7238 56.34C60.4704 56.6067 60.1371 56.74 59.7238 56.74ZM59.7238 51C59.4438 51 59.3038 51.1533 59.3038 51.46C59.3038 51.74 59.4438 51.88 59.7238 51.88C60.0304 51.88 60.1838 51.74 60.1838 51.46C60.1838 51.1533 60.0304 51 59.7238 51ZM59.7238 54.88C59.4438 54.88 59.3038 55.0267 59.3038 55.32C59.3038 55.6267 59.4438 55.78 59.7238 55.78C60.0304 55.78 60.1838 55.6267 60.1838 55.32C60.1838 55.0267 60.0304 54.88 59.7238 54.88ZM71.8575 57C70.7242 57 69.8175 56.6733 69.1375 56.02C68.4708 55.3667 68.1375 54.4733 68.1375 53.34C68.1375 52.6067 67.8975 52 67.4175 51.52C66.9375 51.04 66.3308 50.8 65.5975 50.8C64.8775 50.8 64.2642 51.0467 63.7575 51.54C63.2642 52.02 63.0175 52.62 63.0175 53.34C63.0175 54.1267 63.2642 54.7733 63.7575 55.28C64.2642 55.7733 64.9108 56 65.6975 55.96L65.5175 57.06L64.9775 56.96C64.0575 56.7867 63.3175 56.3733 62.7575 55.72C62.1975 55.0667 61.9175 54.2733 61.9175 53.34C61.9175 52.2733 62.2642 51.4 62.9575 50.72C63.6508 50.04 64.5308 49.7 65.5975 49.7C66.6775 49.7 67.5642 50.04 68.2575 50.72C68.9508 51.3867 69.2975 52.26 69.2975 53.34C69.2975 54.0867 69.5375 54.7 70.0175 55.18C70.4975 55.66 71.1108 55.9 71.8575 55.9C72.5908 55.9 73.2042 55.66 73.6975 55.18C74.1908 54.6867 74.4375 54.0733 74.4375 53.34C74.4375 52.6067 74.1908 52 73.6975 51.52C73.2042 51.04 72.5908 50.8 71.8575 50.8C71.6042 50.8 71.2108 50.8933 70.6775 51.08L70.7575 49.84C71.1308 49.7467 71.4975 49.7 71.8575 49.7C72.9242 49.7 73.8042 50.04 74.4975 50.72C75.1908 51.4 75.5375 52.2733 75.5375 53.34C75.5375 54.42 75.1908 55.3 74.4975 55.98C73.8175 56.66 72.9375 57 71.8575 57ZM72.0111 48.98C71.6244 48.98 71.2978 48.8467 71.0311 48.58C70.7644 48.3133 70.6311 47.9867 70.6311 47.6C70.6311 47.2 70.7644 46.8667 71.0311 46.6C71.2844 46.3333 71.6111 46.2 72.0111 46.2C72.4111 46.2 72.7511 46.3333 73.0311 46.6C73.2978 46.8667 73.4311 47.2 73.4311 47.6C73.4311 47.9867 73.2911 48.3133 73.0111 48.58C72.7311 48.8467 72.3978 48.98 72.0111 48.98ZM72.0111 47.16C71.7311 47.16 71.5911 47.3067 71.5911 47.6C71.5911 47.8933 71.7311 48.04 72.0111 48.04C72.3178 48.04 72.4711 47.8933 72.4711 47.6C72.4711 47.3067 72.3178 47.16 72.0111 47.16ZM71.8711 62.4C71.5244 62.4 71.3511 62.1867 71.3511 61.76V56.94H72.4111V61.3H73.5111V62.4H71.8711ZM77.7511 52.88C77.3378 52.88 76.9978 52.7467 76.7311 52.48C76.4778 52.2133 76.3511 51.8733 76.3511 51.46C76.3511 51.06 76.4844 50.7267 76.7511 50.46C77.0178 50.18 77.3511 50.04 77.7511 50.04C78.1511 50.04 78.4844 50.18 78.7511 50.46C79.0178 50.7267 79.1511 51.06 79.1511 51.46C79.1511 51.8733 79.0178 52.2133 78.7511 52.48C78.4978 52.7467 78.1644 52.88 77.7511 52.88ZM77.7511 56.74C77.3378 56.74 76.9978 56.6067 76.7311 56.34C76.4778 56.0733 76.3511 55.7333 76.3511 55.32C76.3511 54.92 76.4844 54.5867 76.7511 54.32C77.0178 54.04 77.3511 53.9 77.7511 53.9C78.1644 53.9 78.4978 54.0333 78.7511 54.3C79.0178 54.5667 79.1511 54.9067 79.1511 55.32C79.1511 55.7333 79.0178 56.0733 78.7511 56.34C78.4978 56.6067 78.1644 56.74 77.7511 56.74ZM77.7511 51C77.4711 51 77.3311 51.1533 77.3311 51.46C77.3311 51.74 77.4711 51.88 77.7511 51.88C78.0578 51.88 78.2111 51.74 78.2111 51.46C78.2111 51.1533 78.0578 51 77.7511 51ZM77.7511 54.88C77.4711 54.88 77.3311 55.0267 77.3311 55.32C77.3311 55.6267 77.4711 55.78 77.7511 55.78C78.0578 55.78 78.2111 55.6267 78.2111 55.32C78.2111 55.0267 78.0578 54.88 77.7511 54.88ZM87.3448 53.7H87.2848C87.2182 55.0333 86.4248 56.1267 84.9048 56.98L84.4048 56.04C85.5782 55.36 86.1648 54.52 86.1648 53.52C86.1648 52.7867 85.9248 52.18 85.4448 51.7C84.9648 51.22 84.3582 50.98 83.6248 50.98C82.8915 50.98 82.2782 51.22 81.7848 51.7C81.2915 52.18 81.0448 52.7867 81.0448 53.52C81.0448 54.5333 81.6648 55.3733 82.9048 56.04L82.3648 57L81.8848 56.74C80.5915 56.0333 79.9448 54.96 79.9448 53.52C79.9448 52.4267 80.2848 51.5467 80.9648 50.88C81.6448 50.2133 82.5315 49.88 83.6248 49.88C84.9582 49.88 86.0048 50.4467 86.7648 51.58C87.5115 50.4467 88.5515 49.88 89.8848 49.88C90.9648 49.88 91.8448 50.22 92.5248 50.9C93.2182 51.5667 93.5648 52.44 93.5648 53.52C93.5648 54.5867 93.2182 55.4667 92.5248 56.16C91.8315 56.84 90.9515 57.18 89.8848 57.18C89.5648 57.18 89.2448 57.14 88.9248 57.06C88.9515 56.82 89.0182 56.4533 89.1248 55.96C89.4982 56.0267 89.7515 56.06 89.8848 56.06C90.6315 56.06 91.2448 55.8267 91.7248 55.36C92.2182 54.88 92.4648 54.2667 92.4648 53.52C92.4648 52.8 92.2115 52.2 91.7048 51.72C91.2115 51.2267 90.6048 50.98 89.8848 50.98C89.1382 50.98 88.5248 51.22 88.0448 51.7C87.5782 52.1667 87.3448 52.7733 87.3448 53.52V53.7ZM89.8984 49.8C89.1384 49.8 88.4984 49.54 87.9784 49.02C87.4584 48.4867 87.1984 47.84 87.1984 47.08C87.1984 46.32 87.4651 45.68 87.9984 45.16C88.5184 44.64 89.1584 44.38 89.9184 44.38C90.6784 44.38 91.3118 44.64 91.8184 45.16C92.3251 45.68 92.5784 46.32 92.5784 47.08C92.5784 47.8133 92.3184 48.4533 91.7984 49C91.2651 49.5333 90.6318 49.8 89.8984 49.8ZM89.8984 45.46C89.4184 45.46 89.0318 45.6133 88.7384 45.92C88.4318 46.2133 88.2784 46.6 88.2784 47.08C88.2784 47.5333 88.4318 47.9133 88.7384 48.22C89.0318 48.5133 89.4051 48.66 89.8584 48.66C90.3251 48.66 90.7118 48.5133 91.0184 48.22C91.3118 47.9267 91.4584 47.5467 91.4584 47.08C91.4584 46.6133 91.3184 46.2267 91.0384 45.92C90.7451 45.6133 90.3651 45.46 89.8984 45.46ZM89.8984 62.4C89.5518 62.4 89.3784 62.1867 89.3784 61.76V56.94H90.4384V61.3H91.5384V62.4H89.8984ZM99.9725 57C98.8925 57 98.0058 56.66 97.3125 55.98C96.6325 55.3 96.2925 54.42 96.2925 53.34C96.2925 51.8333 96.9992 50.7333 98.4125 50.04L99.1125 50.88C97.9658 51.5867 97.3925 52.4067 97.3925 53.34C97.3925 54.0867 97.6325 54.7 98.1125 55.18C98.6058 55.66 99.2258 55.9 99.9725 55.9C100.693 55.9 101.293 55.6533 101.773 55.16C102.266 54.6667 102.513 54.06 102.513 53.34C102.513 52.42 101.939 51.6067 100.793 50.9L101.553 50.08L101.873 50.24C103.019 50.8133 103.593 51.8467 103.593 53.34C103.593 54.4067 103.253 55.2867 102.573 55.98C101.906 56.66 101.039 57 99.9725 57ZM100.077 48.98C99.6908 48.98 99.3642 48.8467 99.0975 48.58C98.8308 48.3133 98.6975 47.9867 98.6975 47.6C98.6975 47.2 98.8308 46.8667 99.0975 46.6C99.3508 46.3333 99.6775 46.2 100.077 46.2C100.477 46.2 100.817 46.3333 101.097 46.6C101.364 46.8667 101.498 47.2 101.498 47.6C101.498 47.9867 101.357 48.3133 101.077 48.58C100.797 48.8467 100.464 48.98 100.077 48.98ZM100.077 47.16C99.7975 47.16 99.6575 47.3067 99.6575 47.6C99.6575 47.8933 99.7975 48.04 100.077 48.04C100.384 48.04 100.537 47.8933 100.537 47.6C100.537 47.3067 100.384 47.16 100.077 47.16ZM99.9375 62.4C99.5908 62.4 99.4175 62.1867 99.4175 61.76V56.94H100.477V61.3H101.577V62.4H99.9375ZM108.098 57C107.018 57 106.131 56.66 105.438 55.98C104.758 55.3 104.417 54.42 104.417 53.34C104.417 51.8333 105.124 50.7333 106.538 50.04L107.238 50.88C106.091 51.5867 105.518 52.4067 105.518 53.34C105.518 53.9 105.678 54.4067 105.998 54.86C106.584 54.22 107.284 53.8867 108.098 53.86C108.898 53.8333 109.624 54.1067 110.278 54.68C110.518 54.2667 110.638 53.82 110.638 53.34C110.638 52.42 110.064 51.6067 108.918 50.9L109.678 50.08L109.998 50.24C111.144 50.8133 111.718 51.8467 111.718 53.34C111.718 54.4067 111.378 55.2867 110.698 55.98C110.031 56.66 109.164 57 108.098 57ZM108.118 54.78C107.531 54.86 107.058 55.1 106.698 55.5C107.138 55.7667 107.604 55.9 108.098 55.9C108.644 55.9 109.158 55.7133 109.638 55.34C109.224 55.0067 108.718 54.82 108.118 54.78ZM108.202 62.4H106.542V61.3H107.642V56.94H108.722V61.76C108.722 62.1867 108.549 62.4 108.202 62.4ZM116.763 57.04L116.803 62.38L115.683 62.4V57.04C114.709 57.0533 114.049 57.0067 113.703 56.9C113.009 56.6867 112.636 56.2533 112.583 55.6C112.462 54.2133 113.176 53.52 114.723 53.52C115.256 53.52 115.709 53.66 116.083 53.94C116.469 54.22 116.696 54.6133 116.763 55.12V55.94C117.936 55.94 118.569 55.7333 118.663 55.32C118.769 54.84 118.316 54.3667 117.303 53.9C116.863 53.7 116.156 53.3667 115.183 52.9C114.369 52.5133 113.963 51.96 113.963 51.24C113.963 50.2133 114.689 49.7 116.143 49.7C116.556 49.7 116.949 49.7667 117.323 49.9C117.976 50.14 118.303 50.52 118.303 51.04C118.303 51.1333 118.243 51.2333 118.123 51.34H117.023C117.103 51.2333 117.143 51.1533 117.143 51.1C117.143 51.06 117.129 51.0133 117.103 50.96C116.996 50.8933 116.676 50.84 116.143 50.8C115.436 50.7333 115.083 50.8933 115.083 51.28C115.083 51.5733 115.403 51.8533 116.043 52.12C116.563 52.3333 117.016 52.5267 117.403 52.7C119.029 53.42 119.843 54.2667 119.843 55.24C119.843 56.4133 118.816 57.0133 116.763 57.04ZM115.483 54.88C115.309 54.72 115.049 54.64 114.703 54.64C114.436 54.64 114.196 54.72 113.983 54.88C113.769 55.04 113.676 55.2467 113.703 55.5C113.729 55.8333 114.389 55.98 115.683 55.94C115.669 55.3533 115.603 55 115.483 54.88ZM117.867 46.92C117.841 46.9333 117.814 46.94 117.787 46.94C117.761 46.94 117.748 46.9267 117.748 46.9C117.707 46.4733 117.547 46.1267 117.267 45.86C116.974 45.5933 116.614 45.46 116.187 45.46C115.707 45.46 115.321 45.6133 115.027 45.92C114.721 46.2133 114.567 46.6 114.567 47.08C114.567 47.5333 114.721 47.9133 115.027 48.22C115.321 48.5133 115.694 48.66 116.147 48.66C116.241 48.66 116.387 48.6467 116.587 48.62V49.78C116.427 49.7933 116.294 49.8 116.187 49.8C115.427 49.8 114.787 49.54 114.267 49.02C113.747 48.4867 113.487 47.84 113.487 47.08C113.487 46.32 113.754 45.68 114.287 45.16C114.807 44.64 115.447 44.38 116.207 44.38C116.901 44.38 117.481 44.5867 117.947 45C118.414 45.4 118.714 45.9467 118.847 46.64C118.541 46.76 118.214 46.8533 117.867 46.92ZM124.308 57C123.254 57 122.381 56.6533 121.688 55.96C121.008 55.2667 120.667 54.3933 120.667 53.34C120.667 52.2867 121.008 51.42 121.688 50.74C122.381 50.0467 123.254 49.7 124.308 49.7C125.374 49.7 126.248 50.04 126.928 50.72C127.621 51.4 127.968 52.2733 127.968 53.34C127.968 54.3933 127.621 55.2667 126.928 55.96C126.234 56.6533 125.361 57 124.308 57ZM124.308 50.8C123.854 50.8 123.421 50.92 123.008 51.16C123.554 51.76 123.828 52.4867 123.828 53.34C123.748 54.18 123.408 54.8733 122.808 55.42C123.261 55.74 123.761 55.9 124.308 55.9C125.041 55.9 125.654 55.66 126.148 55.18C126.641 54.6867 126.888 54.0733 126.888 53.34C126.888 52.6067 126.641 52 126.148 51.52C125.654 51.04 125.041 50.8 124.308 50.8ZM122.328 51.78C121.954 52.26 121.768 52.78 121.768 53.34C121.768 53.82 121.901 54.2733 122.168 54.7C122.554 54.3533 122.794 53.8867 122.888 53.3C122.834 52.7133 122.648 52.2067 122.328 51.78ZM132.433 57C131.379 57 130.506 56.6533 129.813 55.96C129.133 55.2667 128.792 54.3933 128.792 53.34C128.792 52.2867 129.133 51.42 129.813 50.74C130.506 50.0467 131.379 49.7 132.433 49.7C133.499 49.7 134.373 50.04 135.053 50.72C135.746 51.4 136.093 52.2733 136.093 53.34C136.093 54.3933 135.746 55.2667 135.053 55.96C134.359 56.6533 133.486 57 132.433 57ZM132.433 50.8C131.979 50.8 131.546 50.92 131.133 51.16C131.679 51.76 131.953 52.4867 131.953 53.34C131.873 54.18 131.533 54.8733 130.933 55.42C131.386 55.74 131.886 55.9 132.433 55.9C133.166 55.9 133.779 55.66 134.273 55.18C134.766 54.6867 135.013 54.0733 135.013 53.34C135.013 52.6067 134.766 52 134.273 51.52C133.779 51.04 133.166 50.8 132.433 50.8ZM130.453 51.78C130.079 52.26 129.893 52.78 129.893 53.34C129.893 53.82 130.026 54.2733 130.293 54.7C130.679 54.3533 130.919 53.8867 131.013 53.3C130.959 52.7133 130.773 52.2067 130.453 51.78ZM134.117 46.92C134.091 46.9333 134.064 46.94 134.037 46.94C134.011 46.94 133.998 46.9267 133.998 46.9C133.957 46.4733 133.797 46.1267 133.517 45.86C133.224 45.5933 132.864 45.46 132.437 45.46C131.957 45.46 131.571 45.6133 131.277 45.92C130.971 46.2133 130.817 46.6 130.817 47.08C130.817 47.5333 130.971 47.9133 131.277 48.22C131.571 48.5133 131.944 48.66 132.397 48.66C132.491 48.66 132.637 48.6467 132.837 48.62V49.78C132.677 49.7933 132.544 49.8 132.437 49.8C131.677 49.8 131.037 49.54 130.517 49.02C129.997 48.4867 129.737 47.84 129.737 47.08C129.737 46.32 130.004 45.68 130.537 45.16C131.057 44.64 131.697 44.38 132.457 44.38C133.151 44.38 133.731 44.5867 134.197 45C134.664 45.4 134.964 45.9467 135.097 46.64C134.791 46.76 134.464 46.8533 134.117 46.92ZM143.118 52.56C142.438 51.3733 141.604 50.78 140.618 50.78C139.884 50.78 139.278 51.02 138.798 51.5C138.318 51.98 138.078 52.5867 138.078 53.32C138.078 54.4133 138.604 55.2067 139.658 55.7C139.751 54.6467 140.211 53.8933 141.038 53.44C141.451 53.2133 141.891 53.1 142.358 53.1C142.824 53.1 143.204 53.2067 143.498 53.42C143.844 53.6733 144.018 54.02 144.018 54.46C144.018 54.74 143.844 55.12 143.498 55.6C142.831 56.52 141.871 56.98 140.618 56.98C139.551 56.98 138.671 56.64 137.978 55.96C137.298 55.2667 136.958 54.3867 136.958 53.32C136.958 52.2533 137.298 51.38 137.978 50.7C138.671 50.02 139.551 49.68 140.618 49.68C142.044 49.68 143.191 50.4667 144.058 52.04L143.118 52.56ZM142.258 54.16C141.764 54.16 141.351 54.32 141.018 54.64C140.684 54.96 140.511 55.3667 140.498 55.86H140.618C141.404 55.86 142.051 55.5867 142.558 55.04C142.638 54.9067 142.738 54.76 142.858 54.6C142.871 54.5333 142.878 54.48 142.878 54.44C142.878 54.2533 142.671 54.16 142.258 54.16ZM154.983 56.98C153.783 56.98 152.796 56.4867 152.023 55.5L151.883 55.32C151.149 56.4267 150.116 56.98 148.783 56.98C147.529 56.98 146.576 56.52 145.923 55.6C145.589 55.1333 145.423 54.7533 145.423 54.46C145.423 54.0333 145.583 53.7 145.903 53.46C146.223 53.22 146.603 53.1 147.043 53.1C148.043 53.1 148.803 53.52 149.323 54.36C149.576 54.7733 149.716 55.22 149.743 55.7C150.809 55.2067 151.343 54.4133 151.343 53.32C151.343 52.5867 151.096 51.98 150.603 51.5C150.123 51.02 149.516 50.78 148.783 50.78C147.809 50.78 146.989 51.3733 146.323 52.56L145.363 52.04C146.216 50.4667 147.356 49.68 148.783 49.68C150.129 49.68 151.169 50.2333 151.903 51.34C152.636 50.2333 153.663 49.68 154.983 49.68C156.063 49.68 156.943 50.02 157.623 50.7C158.316 51.3667 158.663 52.24 158.663 53.32C158.663 54.3867 158.316 55.2667 157.623 55.96C156.929 56.64 156.049 56.98 154.983 56.98ZM154.983 50.78C154.236 50.78 153.623 51.02 153.143 51.5C152.676 51.9667 152.443 52.5733 152.443 53.32C152.443 54.0533 152.683 54.66 153.163 55.14C153.643 55.62 154.249 55.86 154.983 55.86C155.729 55.86 156.343 55.6267 156.822 55.16C157.316 54.68 157.562 54.0667 157.562 53.32C157.562 52.6 157.309 52 156.803 51.52C156.309 51.0267 155.703 50.78 154.983 50.78ZM147.163 54.16C146.736 54.16 146.523 54.2533 146.523 54.44C146.549 54.48 146.656 54.68 146.843 55.04C147.349 55.5867 147.996 55.86 148.783 55.86H148.903C148.889 55.3667 148.716 54.96 148.383 54.64C148.063 54.32 147.656 54.16 147.163 54.16ZM160.876 52.88C160.463 52.88 160.123 52.7467 159.856 52.48C159.603 52.2133 159.476 51.8733 159.476 51.46C159.476 51.06 159.609 50.7267 159.876 50.46C160.143 50.18 160.476 50.04 160.876 50.04C161.276 50.04 161.609 50.18 161.876 50.46C162.143 50.7267 162.276 51.06 162.276 51.46C162.276 51.8733 162.143 52.2133 161.876 52.48C161.623 52.7467 161.289 52.88 160.876 52.88ZM160.876 56.74C160.463 56.74 160.123 56.6067 159.856 56.34C159.603 56.0733 159.476 55.7333 159.476 55.32C159.476 54.92 159.609 54.5867 159.876 54.32C160.143 54.04 160.476 53.9 160.876 53.9C161.289 53.9 161.623 54.0333 161.876 54.3C162.143 54.5667 162.276 54.9067 162.276 55.32C162.276 55.7333 162.143 56.0733 161.876 56.34C161.623 56.6067 161.289 56.74 160.876 56.74ZM160.876 51C160.596 51 160.456 51.1533 160.456 51.46C160.456 51.74 160.596 51.88 160.876 51.88C161.183 51.88 161.336 51.74 161.336 51.46C161.336 51.1533 161.183 51 160.876 51ZM160.876 54.88C160.596 54.88 160.456 55.0267 160.456 55.32C160.456 55.6267 160.596 55.78 160.876 55.78C161.183 55.78 161.336 55.6267 161.336 55.32C161.336 55.0267 161.183 54.88 160.876 54.88ZM170.45 62.4H164.95C163.71 62.4 163.09 61.7867 163.09 60.56L163.07 46.2C163.07 44.9733 163.697 44.36 164.95 44.36H166.79L166.77 45.46H164.95C164.67 45.46 164.483 45.5267 164.39 45.66C164.31 45.78 164.27 45.9933 164.27 46.3V60.52C164.27 61.0267 164.497 61.28 164.95 61.28H170.47C170.897 61.28 171.11 61.1133 171.11 60.78V53.72H172.29V60.76C172.29 61.8533 171.677 62.4 170.45 62.4ZM168.625 57C167.545 57 166.658 56.66 165.965 55.98C165.285 55.3 164.945 54.42 164.945 53.34C164.945 51.8333 165.652 50.7333 167.065 50.04L167.765 50.88C166.618 51.5867 166.045 52.4067 166.045 53.34C166.045 54.0867 166.285 54.7 166.765 55.18C167.258 55.66 167.878 55.9 168.625 55.9C169.345 55.9 169.945 55.6533 170.425 55.16C170.918 54.6667 171.165 54.06 171.165 53.34C171.165 52.42 170.592 51.6067 169.445 50.9L170.205 50.08L170.525 50.24C171.672 50.8133 172.245 51.8467 172.245 53.34C172.245 54.4067 171.905 55.2867 171.225 55.98C170.558 56.66 169.692 57 168.625 57ZM168.59 49.8C167.83 49.8 167.19 49.54 166.67 49.02C166.15 48.4867 165.89 47.84 165.89 47.08C165.89 46.32 166.157 45.68 166.69 45.16C167.21 44.64 167.85 44.38 168.61 44.38C169.37 44.38 170.003 44.64 170.51 45.16C171.017 45.68 171.27 46.32 171.27 47.08C171.27 47.8133 171.01 48.4533 170.49 49C169.957 49.5333 169.323 49.8 168.59 49.8ZM168.59 45.46C168.11 45.46 167.723 45.6133 167.43 45.92C167.123 46.2133 166.97 46.6 166.97 47.08C166.97 47.2133 166.983 47.3667 167.01 47.54C167.463 47.1933 167.963 46.9933 168.51 46.94C169.057 46.94 169.59 47.1133 170.11 47.46C170.137 47.3 170.15 47.1733 170.15 47.08C170.15 46.6133 170.01 46.2267 169.73 45.92C169.437 45.6133 169.057 45.46 168.59 45.46ZM168.53 47.82C168.143 47.86 167.797 48.0067 167.49 48.26C167.81 48.5267 168.163 48.66 168.55 48.66C168.977 48.66 169.357 48.5 169.69 48.18C169.357 47.9533 168.97 47.8333 168.53 47.82ZM174.47 52.88C174.057 52.88 173.717 52.7467 173.45 52.48C173.197 52.2133 173.07 51.8733 173.07 51.46C173.07 51.06 173.203 50.7267 173.47 50.46C173.737 50.18 174.07 50.04 174.47 50.04C174.87 50.04 175.203 50.18 175.47 50.46C175.737 50.7267 175.87 51.06 175.87 51.46C175.87 51.8733 175.737 52.2133 175.47 52.48C175.217 52.7467 174.883 52.88 174.47 52.88ZM174.47 56.74C174.057 56.74 173.717 56.6067 173.45 56.34C173.197 56.0733 173.07 55.7333 173.07 55.32C173.07 54.92 173.203 54.5867 173.47 54.32C173.737 54.04 174.07 53.9 174.47 53.9C174.883 53.9 175.217 54.0333 175.47 54.3C175.737 54.5667 175.87 54.9067 175.87 55.32C175.87 55.7333 175.737 56.0733 175.47 56.34C175.217 56.6067 174.883 56.74 174.47 56.74ZM174.47 51C174.19 51 174.05 51.1533 174.05 51.46C174.05 51.74 174.19 51.88 174.47 51.88C174.777 51.88 174.93 51.74 174.93 51.46C174.93 51.1533 174.777 51 174.47 51ZM174.47 54.88C174.19 54.88 174.05 55.0267 174.05 55.32C174.05 55.6267 174.19 55.78 174.47 55.78C174.777 55.78 174.93 55.6267 174.93 55.32C174.93 55.0267 174.777 54.88 174.47 54.88ZM188.518 56.98C187.184 56.98 186.144 56.4067 185.398 55.26C184.638 56.4067 183.591 56.98 182.258 56.98C181.191 56.98 180.311 56.64 179.618 55.96C178.924 55.2667 178.578 54.3867 178.578 53.32C178.578 51.88 179.224 50.8067 180.518 50.1L180.998 49.84L181.538 50.8C180.298 51.48 179.678 52.32 179.678 53.32C179.678 54.0533 179.924 54.66 180.418 55.14C180.911 55.62 181.524 55.86 182.258 55.86C182.991 55.86 183.598 55.62 184.078 55.14C184.558 54.66 184.798 54.0533 184.798 53.32C184.798 52.3333 184.211 51.4933 183.038 50.8L183.538 49.88C185.058 50.7333 185.851 51.82 185.918 53.14H185.978V53.32C185.978 54.0533 186.218 54.66 186.698 55.14C187.178 55.62 187.784 55.86 188.518 55.86C189.264 55.86 189.878 55.6267 190.358 55.16C190.851 54.68 191.098 54.0667 191.098 53.32C191.098 52.6 190.844 52 190.338 51.52C189.844 51.0267 189.238 50.78 188.518 50.78C188.384 50.78 188.131 50.82 187.758 50.9C187.651 50.3933 187.584 50.0267 187.558 49.8C187.878 49.72 188.198 49.68 188.518 49.68C189.598 49.68 190.478 50.02 191.158 50.7C191.851 51.3667 192.198 52.24 192.198 53.32C192.198 54.3867 191.851 55.2667 191.158 55.96C190.464 56.64 189.584 56.98 188.518 56.98ZM194.891 56.98C194.678 56.98 194.345 56.9267 193.891 56.82V55.68C194.318 55.8 194.651 55.86 194.891 55.86C195.638 55.86 196.245 55.6267 196.711 55.16C197.191 54.68 197.431 54.0667 197.431 53.32C197.431 52.6 197.185 52 196.691 51.52C196.211 51.0267 195.611 50.78 194.891 50.78C193.718 50.78 192.905 51.4267 192.451 52.72C192.438 52.7867 192.378 52.9467 192.271 53.2L191.291 52.62L191.371 52.34C191.878 50.5667 193.051 49.68 194.891 49.68C195.945 49.68 196.818 50.0267 197.511 50.72C198.205 51.4 198.551 52.2667 198.551 53.32C198.551 54.4 198.211 55.28 197.531 55.96C196.851 56.64 195.971 56.98 194.891 56.98ZM205.698 62.36C205.578 62.3867 205.311 62.4 204.898 62.4H201.278C200.051 62.4 199.438 61.7867 199.438 60.56L199.458 54.68L199.618 54.66L200.558 54.12C201.238 55.3067 202.078 55.9 203.078 55.9C203.811 55.9 204.418 55.66 204.898 55.18C205.378 54.6867 205.618 54.0733 205.618 53.34C205.618 52.62 205.371 52.0133 204.878 51.52C204.398 51.0267 203.798 50.78 203.078 50.78C202.078 50.78 201.238 51.3733 200.558 52.56L199.618 52.04C200.511 50.4667 201.665 49.68 203.078 49.68C204.158 49.68 205.031 50.02 205.698 50.7C206.378 51.38 206.718 52.26 206.718 53.34C206.718 54.4333 206.385 55.32 205.718 56C205.051 56.68 204.171 57.02 203.078 57.02C202.171 57.02 201.345 56.7 200.598 56.06V60.52C200.598 61.0267 200.825 61.28 201.278 61.28H204.918C205.345 61.28 205.558 61.1133 205.558 60.78V59.8H206.718V60.76C206.718 61.68 206.378 62.2133 205.698 62.36ZM204.723 46.92C204.696 46.9333 204.67 46.94 204.643 46.94C204.616 46.94 204.603 46.9267 204.603 46.9C204.563 46.4733 204.403 46.1267 204.123 45.86C203.83 45.5933 203.47 45.46 203.043 45.46C202.563 45.46 202.176 45.6133 201.883 45.92C201.576 46.2133 201.423 46.6 201.423 47.08C201.423 47.5333 201.576 47.9133 201.883 48.22C202.176 48.5133 202.55 48.66 203.003 48.66C203.096 48.66 203.243 48.6467 203.443 48.62V49.78C203.283 49.7933 203.15 49.8 203.043 49.8C202.283 49.8 201.643 49.54 201.123 49.02C200.603 48.4867 200.343 47.84 200.343 47.08C200.343 46.32 200.61 45.68 201.143 45.16C201.663 44.64 202.303 44.38 203.063 44.38C203.756 44.38 204.336 44.5867 204.803 45C205.27 45.4 205.57 45.9467 205.703 46.64C205.396 46.76 205.07 46.8533 204.723 46.92ZM213.723 52.56C213.043 51.3733 212.21 50.78 211.223 50.78C210.49 50.78 209.883 51.02 209.403 51.5C208.923 51.98 208.683 52.5867 208.683 53.32C208.683 54.4133 209.21 55.2067 210.263 55.7C210.356 54.6467 210.816 53.8933 211.643 53.44C212.056 53.2133 212.496 53.1 212.963 53.1C213.43 53.1 213.81 53.2067 214.103 53.42C214.45 53.6733 214.623 54.02 214.623 54.46C214.623 54.74 214.45 55.12 214.103 55.6C213.436 56.52 212.476 56.98 211.223 56.98C210.156 56.98 209.276 56.64 208.583 55.96C207.903 55.2667 207.563 54.3867 207.563 53.32C207.563 52.2533 207.903 51.38 208.583 50.7C209.276 50.02 210.156 49.68 211.223 49.68C212.65 49.68 213.796 50.4667 214.663 52.04L213.723 52.56ZM212.863 54.16C212.37 54.16 211.956 54.32 211.623 54.64C211.29 54.96 211.116 55.3667 211.103 55.86H211.223C212.01 55.86 212.656 55.5867 213.163 55.04C213.243 54.9067 213.343 54.76 213.463 54.6C213.476 54.5333 213.483 54.48 213.483 54.44C213.483 54.2533 213.276 54.16 212.863 54.16ZM219.328 57C218.248 57 217.361 56.66 216.668 55.98C215.988 55.3 215.648 54.42 215.648 53.34C215.648 51.8333 216.355 50.7333 217.768 50.04L218.468 50.88C217.321 51.5867 216.748 52.4067 216.748 53.34C216.748 53.9 216.908 54.4067 217.228 54.86C217.815 54.22 218.515 53.8867 219.328 53.86C220.128 53.8333 220.855 54.1067 221.508 54.68C221.748 54.2667 221.868 53.82 221.868 53.34C221.868 52.42 221.295 51.6067 220.148 50.9L220.908 50.08L221.228 50.24C222.375 50.8133 222.948 51.8467 222.948 53.34C222.948 54.4067 222.608 55.2867 221.928 55.98C221.261 56.66 220.395 57 219.328 57ZM219.348 54.78C218.761 54.86 218.288 55.1 217.928 55.5C218.368 55.7667 218.835 55.9 219.328 55.9C219.875 55.9 220.388 55.7133 220.868 55.34C220.455 55.0067 219.948 54.82 219.348 54.78ZM225.653 56.98C225.44 56.98 225.106 56.9267 224.653 56.82V55.68C225.08 55.8 225.413 55.86 225.653 55.86C226.4 55.86 227.006 55.6267 227.473 55.16C227.953 54.68 228.193 54.0667 228.193 53.32C228.193 52.6 227.946 52 227.453 51.52C226.973 51.0267 226.373 50.78 225.653 50.78C224.48 50.78 223.666 51.4267 223.213 52.72C223.2 52.7867 223.14 52.9467 223.033 53.2L222.053 52.62L222.133 52.34C222.64 50.5667 223.813 49.68 225.653 49.68C226.706 49.68 227.58 50.0267 228.273 50.72C228.966 51.4 229.313 52.2667 229.313 53.32C229.313 54.4 228.973 55.28 228.293 55.96C227.613 56.64 226.733 56.98 225.653 56.98ZM237.06 55.12C236.806 55.68 236.36 56.1333 235.72 56.48C235.133 56.8133 234.513 56.98 233.86 56.98C232.793 56.98 231.913 56.64 231.22 55.96C230.54 55.2667 230.2 54.3867 230.2 53.32C230.2 52.2533 230.54 51.38 231.22 50.7C231.913 50.02 232.793 49.68 233.86 49.68C235.286 49.68 236.433 50.4667 237.3 52.04L236.36 52.56C235.68 51.3733 234.846 50.78 233.86 50.78C233.126 50.78 232.52 51.02 232.04 51.5C231.56 51.98 231.32 52.5867 231.32 53.32C231.32 54.0533 231.56 54.66 232.04 55.14C232.52 55.62 233.126 55.86 233.86 55.86C234.846 55.86 235.68 55.2667 236.36 54.08L237.3 54.6L237.06 55.12ZM235.485 46.92C235.458 46.9333 235.431 46.94 235.405 46.94C235.378 46.94 235.365 46.9267 235.365 46.9C235.325 46.4733 235.165 46.1267 234.885 45.86C234.591 45.5933 234.231 45.46 233.805 45.46C233.325 45.46 232.938 45.6133 232.645 45.92C232.338 46.2133 232.185 46.6 232.185 47.08C232.185 47.5333 232.338 47.9133 232.645 48.22C232.938 48.5133 233.311 48.66 233.765 48.66C233.858 48.66 234.005 48.6467 234.205 48.62V49.78C234.045 49.7933 233.911 49.8 233.805 49.8C233.045 49.8 232.405 49.54 231.885 49.02C231.365 48.4867 231.105 47.84 231.105 47.08C231.105 46.32 231.371 45.68 231.905 45.16C232.425 44.64 233.065 44.38 233.825 44.38C234.518 44.38 235.098 44.5867 235.565 45C236.031 45.4 236.331 45.9467 236.465 46.64C236.158 46.76 235.831 46.8533 235.485 46.92ZM239.685 52.88C239.271 52.88 238.931 52.7467 238.665 52.48C238.411 52.2133 238.285 51.8733 238.285 51.46C238.285 51.06 238.418 50.7267 238.685 50.46C238.951 50.18 239.285 50.04 239.685 50.04C240.085 50.04 240.418 50.18 240.685 50.46C240.951 50.7267 241.085 51.06 241.085 51.46C241.085 51.8733 240.951 52.2133 240.685 52.48C240.431 52.7467 240.098 52.88 239.685 52.88ZM239.685 56.74C239.271 56.74 238.931 56.6067 238.665 56.34C238.411 56.0733 238.285 55.7333 238.285 55.32C238.285 54.92 238.418 54.5867 238.685 54.32C238.951 54.04 239.285 53.9 239.685 53.9C240.098 53.9 240.431 54.0333 240.685 54.3C240.951 54.5667 241.085 54.9067 241.085 55.32C241.085 55.7333 240.951 56.0733 240.685 56.34C240.431 56.6067 240.098 56.74 239.685 56.74ZM239.685 51C239.405 51 239.265 51.1533 239.265 51.46C239.265 51.74 239.405 51.88 239.685 51.88C239.991 51.88 240.145 51.74 240.145 51.46C240.145 51.1533 239.991 51 239.685 51ZM239.685 54.88C239.405 54.88 239.265 55.0267 239.265 55.32C239.265 55.6267 239.405 55.78 239.685 55.78C239.991 55.78 240.145 55.6267 240.145 55.32C240.145 55.0267 239.991 54.88 239.685 54.88ZM245.558 57C244.478 57 243.592 56.66 242.898 55.98C242.218 55.3 241.878 54.42 241.878 53.34C241.878 51.8333 242.585 50.7333 243.998 50.04L244.698 50.88C243.552 51.5867 242.978 52.4067 242.978 53.34C242.978 53.9 243.138 54.4067 243.458 54.86C244.045 54.22 244.745 53.8867 245.558 53.86C246.358 53.8333 247.085 54.1067 247.738 54.68C247.978 54.2667 248.098 53.82 248.098 53.34C248.098 52.42 247.525 51.6067 246.378 50.9L247.138 50.08L247.458 50.24C248.605 50.8133 249.178 51.8467 249.178 53.34C249.178 54.4067 248.838 55.2867 248.158 55.98C247.492 56.66 246.625 57 245.558 57ZM245.578 54.78C244.992 54.86 244.518 55.1 244.158 55.5C244.598 55.7667 245.065 55.9 245.558 55.9C246.105 55.9 246.618 55.7133 247.098 55.34C246.685 55.0067 246.178 54.82 245.578 54.78ZM250.423 62.36C250.343 62.36 250.243 62.3467 250.123 62.32L248.243 61.92C247.67 61.8 247.377 61.5267 247.363 61.1L247.343 60.52V55.38H248.443V60.78L249.963 61.14V49.7H251.063V61.76C251.063 62.16 250.85 62.36 250.423 62.36ZM253.739 56.98C253.526 56.98 253.192 56.9267 252.739 56.82V55.68C253.166 55.8 253.499 55.86 253.739 55.86C254.486 55.86 255.092 55.6267 255.559 55.16C256.039 54.68 256.279 54.0667 256.279 53.32C256.279 52.6 256.032 52 255.539 51.52C255.059 51.0267 254.459 50.78 253.739 50.78C252.566 50.78 251.752 51.4267 251.299 52.72C251.286 52.7867 251.226 52.9467 251.119 53.2L250.139 52.62L250.219 52.34C250.726 50.5667 251.899 49.68 253.739 49.68C254.792 49.68 255.666 50.0267 256.359 50.72C257.052 51.4 257.399 52.2667 257.399 53.32C257.399 54.4 257.059 55.28 256.379 55.96C255.699 56.64 254.819 56.98 253.739 56.98ZM259.646 52.88C259.232 52.88 258.892 52.7467 258.626 52.48C258.372 52.2133 258.246 51.8733 258.246 51.46C258.246 51.06 258.379 50.7267 258.646 50.46C258.912 50.18 259.246 50.04 259.646 50.04C260.046 50.04 260.379 50.18 260.646 50.46C260.912 50.7267 261.046 51.06 261.046 51.46C261.046 51.8733 260.912 52.2133 260.646 52.48C260.392 52.7467 260.059 52.88 259.646 52.88ZM259.646 56.74C259.232 56.74 258.892 56.6067 258.626 56.34C258.372 56.0733 258.246 55.7333 258.246 55.32C258.246 54.92 258.379 54.5867 258.646 54.32C258.912 54.04 259.246 53.9 259.646 53.9C260.059 53.9 260.392 54.0333 260.646 54.3C260.912 54.5667 261.046 54.9067 261.046 55.32C261.046 55.7333 260.912 56.0733 260.646 56.34C260.392 56.6067 260.059 56.74 259.646 56.74ZM259.646 51C259.366 51 259.226 51.1533 259.226 51.46C259.226 51.74 259.366 51.88 259.646 51.88C259.952 51.88 260.106 51.74 260.106 51.46C260.106 51.1533 259.952 51 259.646 51ZM259.646 54.88C259.366 54.88 259.226 55.0267 259.226 55.32C259.226 55.6267 259.366 55.78 259.646 55.78C259.952 55.78 260.106 55.6267 260.106 55.32C260.106 55.0267 259.952 54.88 259.646 54.88ZM4.62 81C3.56667 81 2.69333 80.6533 2 79.96C1.32 79.2667 0.98 78.3933 0.98 77.34C0.98 76.2867 1.32 75.42 2 74.74C2.69333 74.0467 3.56667 73.7 4.62 73.7C5.68667 73.7 6.56 74.04 7.24 74.72C7.93333 75.4 8.28 76.2733 8.28 77.34C8.28 78.3933 7.93333 79.2667 7.24 79.96C6.54667 80.6533 5.67333 81 4.62 81ZM4.62 74.8C4.16667 74.8 3.73333 74.92 3.32 75.16C3.86667 75.76 4.14 76.4867 4.14 77.34C4.06 78.18 3.72 78.8733 3.12 79.42C3.57333 79.74 4.07333 79.9 4.62 79.9C5.35333 79.9 5.96667 79.66 6.46 79.18C6.95333 78.6867 7.2 78.0733 7.2 77.34C7.2 76.6067 6.95333 76 6.46 75.52C5.96667 75.04 5.35333 74.8 4.62 74.8ZM2.64 75.78C2.26667 76.26 2.08 76.78 2.08 77.34C2.08 77.82 2.21333 78.2733 2.48 78.7C2.86667 78.3533 3.10667 77.8867 3.2 77.3C3.14667 76.7133 2.96 76.2067 2.64 75.78ZM4.625 73.8C3.865 73.8 3.225 73.54 2.705 73.02C2.185 72.4867 1.925 71.84 1.925 71.08C1.925 70.32 2.19167 69.68 2.725 69.16C3.245 68.64 3.885 68.38 4.645 68.38C5.405 68.38 6.03833 68.64 6.545 69.16C7.05167 69.68 7.305 70.32 7.305 71.08C7.305 71.8133 7.045 72.4533 6.525 73C5.99167 73.5333 5.35833 73.8 4.625 73.8ZM4.625 69.46C4.145 69.46 3.75833 69.6133 3.465 69.92C3.15833 70.2133 3.005 70.6 3.005 71.08C3.005 71.5333 3.15833 71.9133 3.465 72.22C3.75833 72.5133 4.13167 72.66 4.585 72.66C5.05167 72.66 5.43833 72.5133 5.745 72.22C6.03833 71.9267 6.185 71.5467 6.185 71.08C6.185 70.6133 6.045 70.2267 5.765 69.92C5.47167 69.6133 5.09167 69.46 4.625 69.46ZM19.045 80.98C18.5517 80.98 18.025 80.86 17.465 80.62L17.885 79.62C18.3917 79.78 18.7783 79.86 19.045 79.86C19.7917 79.86 20.405 79.6267 20.885 79.16C21.3783 78.68 21.625 78.0667 21.625 77.32C21.625 76.6 21.3717 76 20.865 75.52C20.3717 75.0267 19.765 74.78 19.045 74.78C18.2983 74.78 17.685 75.02 17.205 75.5C16.7383 75.9667 16.505 76.5733 16.505 77.32V77.44L16.485 77.48C16.4317 78.5467 16.065 79.4 15.385 80.04C14.7183 80.6667 13.8517 80.98 12.785 80.98C11.7183 80.98 10.8383 80.64 10.145 79.96C9.45167 79.2667 9.105 78.3867 9.105 77.32C9.105 76.2267 9.445 75.3467 10.125 74.68C10.805 74.0133 11.6917 73.68 12.785 73.68C14.1183 73.68 15.165 74.2467 15.925 75.38C16.6717 74.2467 17.7117 73.68 19.045 73.68C20.125 73.68 21.005 74.02 21.685 74.7C22.3783 75.3667 22.725 76.24 22.725 77.32C22.725 78.3867 22.3783 79.2667 21.685 79.96C20.9917 80.64 20.1117 80.98 19.045 80.98ZM12.785 74.78C12.0517 74.78 11.4383 75.02 10.945 75.5C10.4517 75.98 10.205 76.5867 10.205 77.32C10.205 78.0533 10.4517 78.66 10.945 79.14C11.4383 79.62 12.0517 79.86 12.785 79.86C13.5183 79.86 14.125 79.62 14.605 79.14C15.085 78.66 15.325 78.0533 15.325 77.32C15.325 76.5867 15.085 75.98 14.605 75.5C14.125 75.02 13.5183 74.78 12.785 74.78ZM20.7386 70.92C20.7119 70.9333 20.6853 70.94 20.6586 70.94C20.6319 70.94 20.6186 70.9267 20.6186 70.9C20.5786 70.4733 20.4186 70.1267 20.1386 69.86C19.8453 69.5933 19.4853 69.46 19.0586 69.46C18.5786 69.46 18.1919 69.6133 17.8986 69.92C17.5919 70.2133 17.4386 70.6 17.4386 71.08C17.4386 71.5333 17.5919 71.9133 17.8986 72.22C18.1919 72.5133 18.5653 72.66 19.0186 72.66C19.1119 72.66 19.2586 72.6467 19.4586 72.62V73.78C19.2986 73.7933 19.1653 73.8 19.0586 73.8C18.2986 73.8 17.6586 73.54 17.1386 73.02C16.6186 72.4867 16.3586 71.84 16.3586 71.08C16.3586 70.32 16.6253 69.68 17.1586 69.16C17.6786 68.64 18.3186 68.38 19.0786 68.38C19.7719 68.38 20.3519 68.5867 20.8186 69C21.2853 69.4 21.5853 69.9467 21.7186 70.64C21.4119 70.76 21.0853 70.8533 20.7386 70.92ZM29.7386 76.56C29.0586 75.3733 28.2253 74.78 27.2386 74.78C26.5053 74.78 25.8986 75.02 25.4186 75.5C24.9386 75.98 24.6986 76.5867 24.6986 77.32C24.6986 78.4133 25.2253 79.2067 26.2786 79.7C26.3719 78.6467 26.8319 77.8933 27.6586 77.44C28.0719 77.2133 28.5119 77.1 28.9786 77.1C29.4453 77.1 29.8253 77.2067 30.1186 77.42C30.4653 77.6733 30.6386 78.02 30.6386 78.46C30.6386 78.74 30.4653 79.12 30.1186 79.6C29.4519 80.52 28.4919 80.98 27.2386 80.98C26.1719 80.98 25.2919 80.64 24.5986 79.96C23.9186 79.2667 23.5786 78.3867 23.5786 77.32C23.5786 76.2533 23.9186 75.38 24.5986 74.7C25.2919 74.02 26.1719 73.68 27.2386 73.68C28.6653 73.68 29.8119 74.4667 30.6786 76.04L29.7386 76.56ZM28.8786 78.16C28.3853 78.16 27.9719 78.32 27.6386 78.64C27.3053 78.96 27.1319 79.3667 27.1186 79.86H27.2386C28.0253 79.86 28.6719 79.5867 29.1786 79.04C29.2586 78.9067 29.3586 78.76 29.4786 78.6C29.4919 78.5333 29.4986 78.48 29.4986 78.44C29.4986 78.2533 29.2919 78.16 28.8786 78.16ZM35.1836 78.06V78H35.0836L35.1036 76.92H35.7636C36.7236 76.92 37.2503 76.5733 37.3436 75.88C37.2369 75.16 36.4436 74.8 34.9636 74.8C33.9236 74.8 33.2436 75.1067 32.9236 75.72C32.8169 75.9333 32.8836 76.04 33.1236 76.04H33.3436L33.2636 77.06H33.1236C32.2036 77.06 31.7436 76.6333 31.7436 75.78C31.7436 75.0333 32.1169 74.48 32.8636 74.12C33.4369 73.84 34.1369 73.7 34.9636 73.7C36.4169 73.7 37.4569 74.0933 38.0836 74.88C38.8169 74.1067 39.7169 73.72 40.7836 73.72C41.6503 73.72 42.4303 74.0067 43.1236 74.58C43.9903 75.2867 44.4236 76.22 44.4236 77.38C44.4236 78.2467 44.1369 79.0267 43.5636 79.72C42.8303 80.6 41.9036 81.04 40.7836 81.04C40.3836 81.04 39.9836 80.98 39.5836 80.86C39.4103 80.8067 39.3236 80.66 39.3236 80.42C39.3236 79.9533 39.3369 79.68 39.3636 79.6C39.4969 79.1867 39.6503 78.9067 39.8236 78.76C40.4369 78.2267 41.0236 77.96 41.5836 77.96C42.1836 77.96 42.6769 78.12 43.0636 78.44C43.2369 78.12 43.3236 77.7667 43.3236 77.38C43.3236 76.6467 43.0836 76.0333 42.6036 75.54C42.1236 75.0467 41.5169 74.8 40.7836 74.8C39.7169 74.8 38.9369 75.2867 38.4436 76.26C38.3503 76.7 38.1036 77.0867 37.7036 77.42C38.3036 77.8067 38.5703 78.34 38.5036 79.02C38.3703 80.34 37.1903 81 34.9636 81C34.2569 81 33.6036 80.88 33.0036 80.64C32.2169 80.3333 31.8036 79.88 31.7636 79.28L31.7436 78.94L32.8436 78.68C32.8569 78.8667 32.8836 79.08 32.9236 79.32C33.0169 79.4933 33.3303 79.64 33.8636 79.76C34.2769 79.8533 34.6436 79.9 34.9636 79.9C36.5236 79.9 37.3303 79.5667 37.3836 78.9C37.4236 78.3133 36.8369 78.02 35.6236 78.02C35.5303 78.0067 35.3836 78.02 35.1836 78.06ZM41.6636 78.78C41.3036 78.78 40.9569 78.9933 40.6236 79.42C40.5703 79.4867 40.5036 79.6533 40.4236 79.92C40.5703 79.9333 40.6903 79.94 40.7836 79.94C41.3969 79.94 42.0303 79.6467 42.6836 79.06C42.4436 78.8733 42.1036 78.78 41.6636 78.78ZM46.6378 76.88C46.2245 76.88 45.8845 76.7467 45.6178 76.48C45.3645 76.2133 45.2378 75.8733 45.2378 75.46C45.2378 75.06 45.3711 74.7267 45.6378 74.46C45.9045 74.18 46.2378 74.04 46.6378 74.04C47.0378 74.04 47.3711 74.18 47.6378 74.46C47.9045 74.7267 48.0378 75.06 48.0378 75.46C48.0378 75.8733 47.9045 76.2133 47.6378 76.48C47.3845 76.7467 47.0511 76.88 46.6378 76.88ZM46.6378 80.74C46.2245 80.74 45.8845 80.6067 45.6178 80.34C45.3645 80.0733 45.2378 79.7333 45.2378 79.32C45.2378 78.92 45.3711 78.5867 45.6378 78.32C45.9045 78.04 46.2378 77.9 46.6378 77.9C47.0511 77.9 47.3845 78.0333 47.6378 78.3C47.9045 78.5667 48.0378 78.9067 48.0378 79.32C48.0378 79.7333 47.9045 80.0733 47.6378 80.34C47.3845 80.6067 47.0511 80.74 46.6378 80.74ZM46.6378 75C46.3578 75 46.2178 75.1533 46.2178 75.46C46.2178 75.74 46.3578 75.88 46.6378 75.88C46.9445 75.88 47.0978 75.74 47.0978 75.46C47.0978 75.1533 46.9445 75 46.6378 75ZM46.6378 78.88C46.3578 78.88 46.2178 79.0267 46.2178 79.32C46.2178 79.6267 46.3578 79.78 46.6378 79.78C46.9445 79.78 47.0978 79.6267 47.0978 79.32C47.0978 79.0267 46.9445 78.88 46.6378 78.88ZM52.5316 80.98C51.2782 80.98 50.3182 80.52 49.6516 79.6C49.3182 79.1333 49.1516 78.7533 49.1516 78.46C49.1516 78.0333 49.3249 77.6933 49.6716 77.44C49.9782 77.2133 50.3516 77.1 50.7916 77.1C51.7782 77.1 52.5316 77.5267 53.0516 78.38C53.3049 78.7933 53.4582 79.2333 53.5116 79.7C54.5649 79.2067 55.0916 78.4133 55.0916 77.32C55.0916 76.5867 54.8449 75.98 54.3516 75.5C53.8716 75.02 53.2649 74.78 52.5316 74.78C51.5582 74.78 50.7316 75.3733 50.0516 76.56L49.0716 76.04C49.9649 74.4667 51.1182 73.68 52.5316 73.68C53.5982 73.68 54.4782 74.02 55.1716 74.7C55.8649 75.38 56.2116 76.2533 56.2116 77.32C56.2116 78.3867 55.8649 79.2667 55.1716 79.96C54.4782 80.64 53.5982 80.98 52.5316 80.98ZM50.8916 78.16C50.4782 78.16 50.2716 78.2533 50.2716 78.44C50.2716 78.48 50.2849 78.5333 50.3116 78.6C50.4316 78.76 50.5316 78.9067 50.6116 79.04C51.1049 79.5867 51.7449 79.86 52.5316 79.86H52.6716C52.6582 79.3533 52.4849 78.9467 52.1516 78.64C51.8182 78.32 51.3982 78.16 50.8916 78.16ZM57.3766 86.36C57.2966 86.36 57.1966 86.3467 57.0766 86.32L55.1966 85.92C54.6232 85.8 54.3299 85.5267 54.3166 85.1L54.2966 84.52V79.38H55.3966V84.78L56.9166 85.14V73.7H58.0166V85.76C58.0166 86.16 57.8032 86.36 57.3766 86.36ZM62.492 81C61.412 81 60.5254 80.66 59.832 79.98C59.152 79.3 58.812 78.42 58.812 77.34C58.812 75.8333 59.5187 74.7333 60.932 74.04L61.632 74.88C60.4854 75.5867 59.912 76.4067 59.912 77.34C59.912 77.9 60.072 78.4067 60.392 78.86C60.9787 78.22 61.6787 77.8867 62.492 77.86C63.292 77.8333 64.0187 78.1067 64.672 78.68C64.912 78.2667 65.032 77.82 65.032 77.34C65.032 76.42 64.4587 75.6067 63.312 74.9L64.072 74.08L64.392 74.24C65.5387 74.8133 66.112 75.8467 66.112 77.34C66.112 78.4067 65.772 79.2867 65.092 79.98C64.4254 80.66 63.5587 81 62.492 81ZM62.512 78.78C61.9254 78.86 61.452 79.1 61.092 79.5C61.532 79.7667 61.9987 79.9 62.492 79.9C63.0387 79.9 63.552 79.7133 64.032 79.34C63.6187 79.0067 63.112 78.82 62.512 78.78ZM64.137 70.92C64.1104 70.9333 64.0837 70.94 64.057 70.94C64.0304 70.94 64.017 70.9267 64.017 70.9C63.977 70.4733 63.817 70.1267 63.537 69.86C63.2437 69.5933 62.8837 69.46 62.457 69.46C61.977 69.46 61.5904 69.6133 61.297 69.92C60.9904 70.2133 60.837 70.6 60.837 71.08C60.837 71.5333 60.9904 71.9133 61.297 72.22C61.5904 72.5133 61.9637 72.66 62.417 72.66C62.5104 72.66 62.657 72.6467 62.857 72.62V73.78C62.697 73.7933 62.5637 73.8 62.457 73.8C61.697 73.8 61.057 73.54 60.537 73.02C60.017 72.4867 59.757 71.84 59.757 71.08C59.757 70.32 60.0237 69.68 60.557 69.16C61.077 68.64 61.717 68.38 62.477 68.38C63.1704 68.38 63.7504 68.5867 64.217 69C64.6837 69.4 64.9837 69.9467 65.117 70.64C64.8104 70.76 64.4837 70.8533 64.137 70.92ZM68.337 76.88C67.9237 76.88 67.5837 76.7467 67.317 76.48C67.0637 76.2133 66.937 75.8733 66.937 75.46C66.937 75.06 67.0704 74.7267 67.337 74.46C67.6037 74.18 67.937 74.04 68.337 74.04C68.737 74.04 69.0704 74.18 69.337 74.46C69.6037 74.7267 69.737 75.06 69.737 75.46C69.737 75.8733 69.6037 76.2133 69.337 76.48C69.0837 76.7467 68.7504 76.88 68.337 76.88ZM68.337 80.74C67.9237 80.74 67.5837 80.6067 67.317 80.34C67.0637 80.0733 66.937 79.7333 66.937 79.32C66.937 78.92 67.0704 78.5867 67.337 78.32C67.6037 78.04 67.937 77.9 68.337 77.9C68.7504 77.9 69.0837 78.0333 69.337 78.3C69.6037 78.5667 69.737 78.9067 69.737 79.32C69.737 79.7333 69.6037 80.0733 69.337 80.34C69.0837 80.6067 68.7504 80.74 68.337 80.74ZM68.337 75C68.057 75 67.917 75.1533 67.917 75.46C67.917 75.74 68.057 75.88 68.337 75.88C68.6437 75.88 68.797 75.74 68.797 75.46C68.797 75.1533 68.6437 75 68.337 75ZM68.337 78.88C68.057 78.88 67.917 79.0267 67.917 79.32C67.917 79.6267 68.057 79.78 68.337 79.78C68.6437 79.78 68.797 79.6267 68.797 79.32C68.797 79.0267 68.6437 78.88 68.337 78.88ZM80.4508 81.02C79.1174 81.02 78.0774 80.4533 77.3308 79.32C76.5841 80.44 75.5441 81 74.2108 81C73.0108 81 71.9241 80.3867 70.9508 79.16L71.8508 78.48C72.6108 79.4267 73.3974 79.9 74.2108 79.9C74.9441 79.9 75.5508 79.6867 76.0308 79.26C76.5241 78.82 76.7708 78.24 76.7708 77.52V77.12C76.7708 76.4267 76.5174 75.8667 76.0108 75.44C75.5174 75.0133 74.9174 74.8 74.2108 74.8C73.2508 74.8 72.4241 75.3733 71.7308 76.52L70.7708 75.96L71.0508 75.48C71.7441 74.2933 72.7974 73.7 74.2108 73.7C75.2908 73.7 76.1774 74.04 76.8708 74.72C77.5641 75.3867 77.9108 76.26 77.9108 77.34V77.54C77.9108 78.2467 78.1508 78.82 78.6308 79.26C79.1241 79.7 79.7308 79.92 80.4508 79.92C81.1974 79.92 81.8174 79.68 82.3108 79.2C82.8041 78.7067 83.0508 78.0867 83.0508 77.34C83.0508 76.6067 82.7974 76 82.2908 75.52C81.7974 75.04 81.1841 74.8 80.4508 74.8C80.1574 74.8 79.6841 74.92 79.0308 75.16L78.6708 74.1L79.1708 73.92C79.5441 73.7867 79.9708 73.72 80.4508 73.72C81.5574 73.72 82.4508 74.0467 83.1308 74.7C83.8108 75.3533 84.1508 76.2333 84.1508 77.34C84.1508 78.42 83.8041 79.3067 83.1108 80C82.4174 80.68 81.5308 81.02 80.4508 81.02ZM86.8444 80.98C86.631 80.98 86.2977 80.9267 85.8444 80.82V79.68C86.271 79.8 86.6044 79.86 86.8444 79.86C87.591 79.86 88.1977 79.6267 88.6644 79.16C89.1444 78.68 89.3844 78.0667 89.3844 77.32C89.3844 76.6 89.1377 76 88.6444 75.52C88.1644 75.0267 87.5644 74.78 86.8444 74.78C85.671 74.78 84.8577 75.4267 84.4044 76.72C84.391 76.7867 84.331 76.9467 84.2244 77.2L83.2444 76.62L83.3244 76.34C83.831 74.5667 85.0044 73.68 86.8444 73.68C87.8977 73.68 88.771 74.0267 89.4644 74.72C90.1577 75.4 90.5044 76.2667 90.5044 77.32C90.5044 78.4 90.1644 79.28 89.4844 79.96C88.8044 80.64 87.9244 80.98 86.8444 80.98ZM95.0311 81C93.9511 81 93.0644 80.66 92.3711 79.98C91.6911 79.3 91.3511 78.42 91.3511 77.34C91.3511 75.8333 92.0578 74.7333 93.4711 74.04L94.1711 74.88C93.0244 75.5867 92.4511 76.4067 92.4511 77.34C92.4511 77.9 92.6111 78.4067 92.9311 78.86C93.5178 78.22 94.2178 77.8867 95.0311 77.86C95.8311 77.8333 96.5578 78.1067 97.2111 78.68C97.4511 78.2667 97.5711 77.82 97.5711 77.34C97.5711 76.42 96.9978 75.6067 95.8511 74.9L96.6111 74.08L96.9311 74.24C98.0778 74.8133 98.6511 75.8467 98.6511 77.34C98.6511 78.4067 98.3111 79.2867 97.6311 79.98C96.9644 80.66 96.0978 81 95.0311 81ZM95.0511 78.78C94.4644 78.86 93.9911 79.1 93.6311 79.5C94.0711 79.7667 94.5378 79.9 95.0311 79.9C95.5778 79.9 96.0911 79.7133 96.5711 79.34C96.1578 79.0067 95.6511 78.82 95.0511 78.78ZM95.9161 86.4C95.5828 86.4 95.4161 86.1867 95.4161 85.76V80.74H96.4961V85.3H97.6361V86.4H95.9161ZM94.1961 86.4H92.4961V85.3H93.6361V80.74H94.7161V85.76C94.7161 86.1867 94.5428 86.4 94.1961 86.4ZM102.996 78.06V78H102.896L102.916 76.92H103.576C104.536 76.92 105.063 76.5733 105.156 75.88C105.049 75.16 104.256 74.8 102.776 74.8C101.736 74.8 101.056 75.1067 100.736 75.72C100.629 75.9333 100.696 76.04 100.936 76.04H101.156L101.076 77.06H100.936C100.016 77.06 99.5561 76.6333 99.5561 75.78C99.5561 75.0333 99.9294 74.48 100.676 74.12C101.249 73.84 101.949 73.7 102.776 73.7C104.229 73.7 105.269 74.0933 105.896 74.88C106.629 74.1067 107.529 73.72 108.596 73.72C109.463 73.72 110.243 74.0067 110.936 74.58C111.803 75.2867 112.236 76.22 112.236 77.38C112.236 78.2467 111.949 79.0267 111.376 79.72C110.643 80.6 109.716 81.04 108.596 81.04C108.196 81.04 107.796 80.98 107.396 80.86C107.223 80.8067 107.136 80.66 107.136 80.42C107.136 79.9533 107.149 79.68 107.176 79.6C107.309 79.1867 107.463 78.9067 107.636 78.76C108.249 78.2267 108.836 77.96 109.396 77.96C109.996 77.96 110.489 78.12 110.876 78.44C111.049 78.12 111.136 77.7667 111.136 77.38C111.136 76.6467 110.896 76.0333 110.416 75.54C109.936 75.0467 109.329 74.8 108.596 74.8C107.529 74.8 106.749 75.2867 106.256 76.26C106.163 76.7 105.916 77.0867 105.516 77.42C106.116 77.8067 106.383 78.34 106.316 79.02C106.183 80.34 105.003 81 102.776 81C102.069 81 101.416 80.88 100.816 80.64C100.029 80.3333 99.6161 79.88 99.5761 79.28L99.5561 78.94L100.656 78.68C100.669 78.8667 100.696 79.08 100.736 79.32C100.829 79.4933 101.143 79.64 101.676 79.76C102.089 79.8533 102.456 79.9 102.776 79.9C104.336 79.9 105.143 79.5667 105.196 78.9C105.236 78.3133 104.649 78.02 103.436 78.02C103.343 78.0067 103.196 78.02 102.996 78.06ZM109.476 78.78C109.116 78.78 108.769 78.9933 108.436 79.42C108.383 79.4867 108.316 79.6533 108.236 79.92C108.383 79.9333 108.503 79.94 108.596 79.94C109.209 79.94 109.843 79.6467 110.496 79.06C110.256 78.8733 109.916 78.78 109.476 78.78ZM122.99 80.98C122.497 80.98 121.97 80.86 121.41 80.62L121.83 79.62C122.337 79.78 122.724 79.86 122.99 79.86C123.737 79.86 124.35 79.6267 124.83 79.16C125.324 78.68 125.57 78.0667 125.57 77.32C125.57 76.6 125.317 76 124.81 75.52C124.317 75.0267 123.71 74.78 122.99 74.78C122.244 74.78 121.63 75.02 121.15 75.5C120.684 75.9667 120.45 76.5733 120.45 77.32V77.44L120.43 77.48C120.377 78.5467 120.01 79.4 119.33 80.04C118.664 80.6667 117.797 80.98 116.73 80.98C115.664 80.98 114.784 80.64 114.09 79.96C113.397 79.2667 113.05 78.3867 113.05 77.32C113.05 76.2267 113.39 75.3467 114.07 74.68C114.75 74.0133 115.637 73.68 116.73 73.68C118.064 73.68 119.11 74.2467 119.87 75.38C120.617 74.2467 121.657 73.68 122.99 73.68C124.07 73.68 124.95 74.02 125.63 74.7C126.324 75.3667 126.67 76.24 126.67 77.32C126.67 78.3867 126.324 79.2667 125.63 79.96C124.937 80.64 124.057 80.98 122.99 80.98ZM116.73 74.78C115.997 74.78 115.384 75.02 114.89 75.5C114.397 75.98 114.15 76.5867 114.15 77.32C114.15 78.0533 114.397 78.66 114.89 79.14C115.384 79.62 115.997 79.86 116.73 79.86C117.464 79.86 118.07 79.62 118.55 79.14C119.03 78.66 119.27 78.0533 119.27 77.32C119.27 76.5867 119.03 75.98 118.55 75.5C118.07 75.02 117.464 74.78 116.73 74.78ZM123.164 86.46C122.404 86.46 121.757 86.1933 121.224 85.66C120.691 85.1267 120.424 84.48 120.424 83.72C120.424 82.9467 120.691 82.2933 121.224 81.76C121.744 81.2267 122.391 80.96 123.164 80.96C123.937 80.96 124.591 81.2267 125.124 81.76C125.657 82.2933 125.924 82.9467 125.924 83.72C125.924 84.4933 125.657 85.14 125.124 85.66C124.591 86.1933 123.937 86.46 123.164 86.46ZM123.164 82C122.671 82 122.271 82.16 121.964 82.48C121.644 82.8133 121.484 83.2267 121.484 83.72C121.484 84.2 121.644 84.6 121.964 84.92C122.284 85.24 122.684 85.4 123.164 85.4C123.657 85.4 124.071 85.24 124.404 84.92C124.724 84.6133 124.884 84.2133 124.884 83.72C124.884 83.2267 124.724 82.8133 124.404 82.48C124.071 82.16 123.657 82 123.164 82ZM134.923 77.7H134.863C134.796 79.0333 134.003 80.1267 132.483 80.98L131.983 80.04C133.156 79.36 133.743 78.52 133.743 77.52C133.743 76.7867 133.503 76.18 133.023 75.7C132.543 75.22 131.936 74.98 131.203 74.98C130.47 74.98 129.856 75.22 129.363 75.7C128.87 76.18 128.623 76.7867 128.623 77.52C128.623 78.5333 129.243 79.3733 130.483 80.04L129.943 81L129.463 80.74C128.17 80.0333 127.523 78.96 127.523 77.52C127.523 76.4267 127.863 75.5467 128.543 74.88C129.223 74.2133 130.11 73.88 131.203 73.88C132.536 73.88 133.583 74.4467 134.343 75.58C135.09 74.4467 136.13 73.88 137.463 73.88C138.543 73.88 139.423 74.22 140.103 74.9C140.796 75.5667 141.143 76.44 141.143 77.52C141.143 78.5867 140.796 79.4667 140.103 80.16C139.41 80.84 138.53 81.18 137.463 81.18C137.143 81.18 136.823 81.14 136.503 81.06C136.53 80.82 136.596 80.4533 136.703 79.96C137.076 80.0267 137.33 80.06 137.463 80.06C138.21 80.06 138.823 79.8267 139.303 79.36C139.796 78.88 140.043 78.2667 140.043 77.52C140.043 76.8 139.79 76.2 139.283 75.72C138.79 75.2267 138.183 74.98 137.463 74.98C136.716 74.98 136.103 75.22 135.623 75.7C135.156 76.1667 134.923 76.7733 134.923 77.52V77.7ZM139.157 70.92C139.13 70.9333 139.103 70.94 139.077 70.94C139.05 70.94 139.037 70.9267 139.037 70.9C138.997 70.4733 138.837 70.1267 138.557 69.86C138.263 69.5933 137.903 69.46 137.477 69.46C136.997 69.46 136.61 69.6133 136.317 69.92C136.01 70.2133 135.857 70.6 135.857 71.08C135.857 71.5333 136.01 71.9133 136.317 72.22C136.61 72.5133 136.983 72.66 137.437 72.66C137.53 72.66 137.677 72.6467 137.877 72.62V73.78C137.717 73.7933 137.583 73.8 137.477 73.8C136.717 73.8 136.077 73.54 135.557 73.02C135.037 72.4867 134.777 71.84 134.777 71.08C134.777 70.32 135.043 69.68 135.577 69.16C136.097 68.64 136.737 68.38 137.497 68.38C138.19 68.38 138.77 68.5867 139.237 69C139.703 69.4 140.003 69.9467 140.137 70.64C139.83 70.76 139.503 70.8533 139.157 70.92ZM147.391 78.06V78H147.291L147.311 76.92H147.971C148.931 76.92 149.457 76.5733 149.551 75.88C149.444 75.16 148.651 74.8 147.171 74.8C146.131 74.8 145.451 75.1067 145.131 75.72C145.024 75.9333 145.091 76.04 145.331 76.04H145.551L145.471 77.06H145.331C144.411 77.06 143.951 76.6333 143.951 75.78C143.951 75.0333 144.324 74.48 145.071 74.12C145.644 73.84 146.344 73.7 147.171 73.7C148.624 73.7 149.664 74.0933 150.291 74.88C151.024 74.1067 151.924 73.72 152.991 73.72C153.857 73.72 154.637 74.0067 155.331 74.58C156.197 75.2867 156.631 76.22 156.631 77.38C156.631 78.2467 156.344 79.0267 155.771 79.72C155.037 80.6 154.111 81.04 152.991 81.04C152.591 81.04 152.191 80.98 151.791 80.86C151.617 80.8067 151.531 80.66 151.531 80.42C151.531 79.9533 151.544 79.68 151.571 79.6C151.704 79.1867 151.857 78.9067 152.031 78.76C152.644 78.2267 153.231 77.96 153.791 77.96C154.391 77.96 154.884 78.12 155.271 78.44C155.444 78.12 155.531 77.7667 155.531 77.38C155.531 76.6467 155.291 76.0333 154.811 75.54C154.331 75.0467 153.724 74.8 152.991 74.8C151.924 74.8 151.144 75.2867 150.651 76.26C150.557 76.7 150.311 77.0867 149.911 77.42C150.511 77.8067 150.777 78.34 150.711 79.02C150.577 80.34 149.397 81 147.171 81C146.464 81 145.811 80.88 145.211 80.64C144.424 80.3333 144.011 79.88 143.971 79.28L143.951 78.94L145.051 78.68C145.064 78.8667 145.091 79.08 145.131 79.32C145.224 79.4933 145.537 79.64 146.071 79.76C146.484 79.8533 146.851 79.9 147.171 79.9C148.731 79.9 149.537 79.5667 149.591 78.9C149.631 78.3133 149.044 78.02 147.831 78.02C147.737 78.0067 147.591 78.02 147.391 78.06ZM153.871 78.78C153.511 78.78 153.164 78.9933 152.831 79.42C152.777 79.4867 152.711 79.6533 152.631 79.92C152.777 79.9333 152.897 79.94 152.991 79.94C153.604 79.94 154.237 79.6467 154.891 79.06C154.651 78.8733 154.311 78.78 153.871 78.78ZM159.325 80.98C159.112 80.98 158.778 80.9267 158.325 80.82V79.68C158.752 79.8 159.085 79.86 159.325 79.86C160.072 79.86 160.678 79.6267 161.145 79.16C161.625 78.68 161.865 78.0667 161.865 77.32C161.865 76.6 161.618 76 161.125 75.52C160.645 75.0267 160.045 74.78 159.325 74.78C158.152 74.78 157.338 75.4267 156.885 76.72C156.872 76.7867 156.812 76.9467 156.705 77.2L155.725 76.62L155.805 76.34C156.312 74.5667 157.485 73.68 159.325 73.68C160.378 73.68 161.252 74.0267 161.945 74.72C162.638 75.4 162.985 76.2667 162.985 77.32C162.985 78.4 162.645 79.28 161.965 79.96C161.285 80.64 160.405 80.98 159.325 80.98ZM167.512 81C166.432 81 165.545 80.66 164.852 79.98C164.172 79.3 163.832 78.42 163.832 77.34C163.832 75.8333 164.538 74.7333 165.952 74.04L166.652 74.88C165.505 75.5867 164.932 76.4067 164.932 77.34C164.932 77.9 165.092 78.4067 165.412 78.86C165.998 78.22 166.698 77.8867 167.512 77.86C168.312 77.8333 169.038 78.1067 169.692 78.68C169.932 78.2667 170.052 77.82 170.052 77.34C170.052 76.42 169.478 75.6067 168.332 74.9L169.092 74.08L169.412 74.24C170.558 74.8133 171.132 75.8467 171.132 77.34C171.132 78.4067 170.792 79.2867 170.112 79.98C169.445 80.66 168.578 81 167.512 81ZM167.532 78.78C166.945 78.86 166.472 79.1 166.112 79.5C166.552 79.7667 167.018 79.9 167.512 79.9C168.058 79.9 168.572 79.7133 169.052 79.34C168.638 79.0067 168.132 78.82 167.532 78.78ZM175.657 80.98C174.403 80.98 173.443 80.52 172.777 79.6C172.443 79.1333 172.277 78.7533 172.277 78.46C172.277 78.0333 172.45 77.6933 172.797 77.44C173.103 77.2133 173.477 77.1 173.917 77.1C174.903 77.1 175.657 77.5267 176.177 78.38C176.43 78.7933 176.583 79.2333 176.637 79.7C177.69 79.2067 178.217 78.4133 178.217 77.32C178.217 76.5867 177.97 75.98 177.477 75.5C176.997 75.02 176.39 74.78 175.657 74.78C174.683 74.78 173.857 75.3733 173.177 76.56L172.197 76.04C173.09 74.4667 174.243 73.68 175.657 73.68C176.723 73.68 177.603 74.02 178.297 74.7C178.99 75.38 179.337 76.2533 179.337 77.32C179.337 78.3867 178.99 79.2667 178.297 79.96C177.603 80.64 176.723 80.98 175.657 80.98ZM174.017 78.16C173.603 78.16 173.397 78.2533 173.397 78.44C173.397 78.48 173.41 78.5333 173.437 78.6C173.557 78.76 173.657 78.9067 173.737 79.04C174.23 79.5867 174.87 79.86 175.657 79.86H175.797C175.783 79.3533 175.61 78.9467 175.277 78.64C174.943 78.32 174.523 78.16 174.017 78.16ZM175.742 72.98C175.355 72.98 175.028 72.8467 174.762 72.58C174.495 72.3133 174.362 71.9867 174.362 71.6C174.362 71.2 174.495 70.8667 174.762 70.6C175.015 70.3333 175.342 70.2 175.742 70.2C176.142 70.2 176.482 70.3333 176.762 70.6C177.028 70.8667 177.162 71.2 177.162 71.6C177.162 71.9867 177.022 72.3133 176.742 72.58C176.462 72.8467 176.128 72.98 175.742 72.98ZM175.742 71.16C175.462 71.16 175.322 71.3067 175.322 71.6C175.322 71.8933 175.462 72.04 175.742 72.04C176.048 72.04 176.202 71.8933 176.202 71.6C176.202 71.3067 176.048 71.16 175.742 71.16ZM183.602 78.06V78H183.502L183.522 76.92H184.182C185.142 76.92 185.668 76.5733 185.762 75.88C185.655 75.16 184.862 74.8 183.382 74.8C182.342 74.8 181.662 75.1067 181.342 75.72C181.235 75.9333 181.302 76.04 181.542 76.04H181.762L181.682 77.06H181.542C180.622 77.06 180.162 76.6333 180.162 75.78C180.162 75.0333 180.535 74.48 181.282 74.12C181.855 73.84 182.555 73.7 183.382 73.7C184.835 73.7 185.875 74.0933 186.502 74.88C187.235 74.1067 188.135 73.72 189.202 73.72C190.068 73.72 190.848 74.0067 191.542 74.58C192.408 75.2867 192.842 76.22 192.842 77.38C192.842 78.2467 192.555 79.0267 191.982 79.72C191.248 80.6 190.322 81.04 189.202 81.04C188.802 81.04 188.402 80.98 188.002 80.86C187.828 80.8067 187.742 80.66 187.742 80.42C187.742 79.9533 187.755 79.68 187.782 79.6C187.915 79.1867 188.068 78.9067 188.242 78.76C188.855 78.2267 189.442 77.96 190.002 77.96C190.602 77.96 191.095 78.12 191.482 78.44C191.655 78.12 191.742 77.7667 191.742 77.38C191.742 76.6467 191.502 76.0333 191.022 75.54C190.542 75.0467 189.935 74.8 189.202 74.8C188.135 74.8 187.355 75.2867 186.862 76.26C186.768 76.7 186.522 77.0867 186.122 77.42C186.722 77.8067 186.988 78.34 186.922 79.02C186.788 80.34 185.608 81 183.382 81C182.675 81 182.022 80.88 181.422 80.64C180.635 80.3333 180.222 79.88 180.182 79.28L180.162 78.94L181.262 78.68C181.275 78.8667 181.302 79.08 181.342 79.32C181.435 79.4933 181.748 79.64 182.282 79.76C182.695 79.8533 183.062 79.9 183.382 79.9C184.942 79.9 185.748 79.5667 185.802 78.9C185.842 78.3133 185.255 78.02 184.042 78.02C183.948 78.0067 183.802 78.02 183.602 78.06ZM190.082 78.78C189.722 78.78 189.375 78.9933 189.042 79.42C188.988 79.4867 188.922 79.6533 188.842 79.92C188.988 79.9333 189.108 79.94 189.202 79.94C189.815 79.94 190.448 79.6467 191.102 79.06C190.862 78.8733 190.522 78.78 190.082 78.78ZM202.876 71.2H201.716V70.16C201.716 69.6933 201.556 69.46 201.236 69.46H195.536C195.256 69.46 195.069 69.5267 194.976 69.66C194.896 69.78 194.856 69.9933 194.856 70.3V84.52C194.856 85.0267 195.082 85.28 195.536 85.28H201.056C201.482 85.28 201.696 85.1133 201.696 84.78V78.12H202.876V84.76C202.876 85.8533 202.262 86.4 201.036 86.4H195.536C194.296 86.4 193.676 85.7867 193.676 84.56L193.656 70.2C193.656 68.9733 194.282 68.36 195.536 68.36H201.376C202.402 68.36 202.909 68.9067 202.896 70L202.876 71.2ZM199.211 81C198.131 81 197.244 80.66 196.551 79.98C195.871 79.3 195.531 78.42 195.531 77.34C195.531 75.8333 196.237 74.7333 197.651 74.04L198.351 74.88C197.204 75.5867 196.631 76.4067 196.631 77.34C196.631 78.0867 196.871 78.7 197.351 79.18C197.844 79.66 198.464 79.9 199.211 79.9C199.931 79.9 200.531 79.6533 201.011 79.16C201.504 78.6667 201.751 78.06 201.751 77.34C201.751 76.42 201.177 75.6067 200.031 74.9L200.791 74.08L201.111 74.24C202.257 74.8133 202.831 75.8467 202.831 77.34C202.831 78.4067 202.491 79.2867 201.811 79.98C201.144 80.66 200.277 81 199.211 81ZM204.756 78.5L204.776 78.52L204.836 78.44V78.6C205.542 79.48 206.316 79.92 207.156 79.92C207.889 79.92 208.496 79.7067 208.976 79.28C209.456 78.84 209.696 78.26 209.696 77.54V77.14C209.696 76.4333 209.449 75.8667 208.956 75.44C208.476 75.0133 207.876 74.8 207.156 74.8C206.196 74.8 205.362 75.38 204.656 76.54L203.696 75.98L203.976 75.48C204.642 74.2933 205.702 73.7 207.156 73.7C208.236 73.7 209.116 74.0467 209.796 74.74C210.489 75.42 210.836 76.3 210.836 77.38V77.58C210.836 78.3 211.089 78.88 211.596 79.32C212.062 79.7333 212.662 79.94 213.396 79.94C214.142 79.94 214.756 79.7 215.236 79.22C215.729 78.74 215.976 78.1267 215.976 77.38C215.976 76.6467 215.729 76.0333 215.236 75.54C214.742 75.0467 214.129 74.8 213.396 74.8C213.089 74.8 212.609 74.92 211.956 75.16L211.596 74.12L212.116 73.92C212.462 73.7867 212.889 73.72 213.396 73.72C214.462 73.72 215.342 74.0667 216.036 74.76C216.729 75.44 217.076 76.3133 217.076 77.38C217.076 78.4333 216.722 79.3133 216.016 80.02C215.322 80.7133 214.449 81.06 213.396 81.06C212.049 81.06 211.002 80.4867 210.256 79.34C209.522 80.4733 208.489 81.04 207.156 81.04C206.316 81.04 205.542 80.7733 204.836 80.24V84.52C204.836 85.0267 205.069 85.28 205.536 85.28H215.236C215.689 85.28 215.916 85.1133 215.916 84.78V83.8H217.076V84.76C217.076 85.8533 216.456 86.4 215.216 86.4H205.536C204.296 86.4 203.676 85.7867 203.676 84.56V79.32L204.456 78.76L204.756 78.5ZM215.094 70.92C215.067 70.9333 215.041 70.94 215.014 70.94C214.987 70.94 214.974 70.9267 214.974 70.9C214.934 70.4733 214.774 70.1267 214.494 69.86C214.201 69.5933 213.841 69.46 213.414 69.46C212.934 69.46 212.547 69.6133 212.254 69.92C211.947 70.2133 211.794 70.6 211.794 71.08C211.794 71.5333 211.947 71.9133 212.254 72.22C212.547 72.5133 212.921 72.66 213.374 72.66C213.467 72.66 213.614 72.6467 213.814 72.62V73.78C213.654 73.7933 213.521 73.8 213.414 73.8C212.654 73.8 212.014 73.54 211.494 73.02C210.974 72.4867 210.714 71.84 210.714 71.08C210.714 70.32 210.981 69.68 211.514 69.16C212.034 68.64 212.674 68.38 213.434 68.38C214.127 68.38 214.707 68.5867 215.174 69C215.641 69.4 215.941 69.9467 216.074 70.64C215.767 70.76 215.441 70.8533 215.094 70.92ZM213.554 84.56C213.167 84.56 212.841 84.42 212.574 84.14C212.307 83.8733 212.174 83.5467 212.174 83.16C212.174 82.76 212.307 82.4267 212.574 82.16C212.827 81.8933 213.154 81.76 213.554 81.76C213.954 81.76 214.294 81.8933 214.574 82.16C214.841 82.4267 214.974 82.76 214.974 83.16C214.974 83.5467 214.834 83.8733 214.554 84.14C214.274 84.42 213.941 84.56 213.554 84.56ZM213.554 82.72C213.274 82.72 213.134 82.8667 213.134 83.16C213.134 83.4533 213.274 83.6 213.554 83.6C213.861 83.6 214.014 83.4533 214.014 83.16C214.014 82.8667 213.861 82.72 213.554 82.72ZM224.694 86.4C224.334 86.4 224.154 86.1867 224.154 85.76V77.34C224.154 76.6067 223.914 76 223.434 75.52C222.954 75.0267 222.347 74.78 221.614 74.78C220.881 74.78 220.274 75.0267 219.794 75.52C219.314 76 219.074 76.6067 219.074 77.34V77.42C219.341 77.34 219.634 77.3 219.954 77.3C220.741 77.3 221.427 77.5267 222.014 77.98C222.654 78.4733 222.974 79.1 222.974 79.86C222.974 80.66 222.581 81.06 221.794 81.06C221.647 81.06 221.507 81.0467 221.374 81.02C220.307 80.9533 219.467 80.5933 218.854 79.94C218.254 79.2733 217.954 78.4067 217.954 77.34C217.954 76.2733 218.294 75.4 218.974 74.72C219.667 74.0267 220.547 73.68 221.614 73.68C222.681 73.68 223.561 74.0267 224.254 74.72C224.947 75.4 225.294 76.2733 225.294 77.34V85.3H226.014V86.4H224.694ZM221.854 79.7C221.854 79.1933 221.587 78.7933 221.054 78.5C220.587 78.2333 220.087 78.12 219.554 78.16L219.274 78.26C219.314 78.4067 219.387 78.5533 219.494 78.7C220.094 79.54 220.727 79.96 221.394 79.96C221.554 79.96 221.674 79.9267 221.754 79.86L221.854 79.78V79.7ZM221.679 86.4H220.019V85.3H221.119V80.94H222.199V85.76C222.199 86.1867 222.026 86.4 221.679 86.4ZM221.539 73.8C220.779 73.8 220.139 73.54 219.619 73.02C219.099 72.4867 218.839 71.84 218.839 71.08C218.839 70.32 219.106 69.68 219.639 69.16C220.159 68.64 220.799 68.38 221.559 68.38C222.319 68.38 222.952 68.64 223.459 69.16C223.966 69.68 224.219 70.32 224.219 71.08C224.219 71.8133 223.959 72.4533 223.439 73C222.906 73.5333 222.272 73.8 221.539 73.8ZM221.539 69.46C221.059 69.46 220.672 69.6133 220.379 69.92C220.072 70.2133 219.919 70.6 219.919 71.08C219.919 71.5333 220.072 71.9133 220.379 72.22C220.672 72.5133 221.046 72.66 221.499 72.66C221.966 72.66 222.352 72.5133 222.659 72.22C222.952 71.9267 223.099 71.5467 223.099 71.08C223.099 70.6133 222.959 70.2267 222.679 69.92C222.386 69.6133 222.006 69.46 221.539 69.46ZM229.699 81C228.619 81 227.732 80.66 227.039 79.98C226.359 79.3 226.019 78.42 226.019 77.34C226.019 75.8333 226.726 74.7333 228.139 74.04L228.839 74.88C227.692 75.5867 227.119 76.4067 227.119 77.34C227.119 78.0867 227.359 78.7 227.839 79.18C228.332 79.66 228.952 79.9 229.699 79.9C230.419 79.9 231.019 79.6533 231.499 79.16C231.992 78.6667 232.239 78.06 232.239 77.34C232.239 76.42 231.666 75.6067 230.519 74.9L231.279 74.08L231.599 74.24C232.746 74.8133 233.319 75.8467 233.319 77.34C233.319 78.4067 232.979 79.2867 232.299 79.98C231.632 80.66 230.766 81 229.699 81ZM234.084 81V71C234.084 70.9333 234.077 70.8933 234.064 70.88C233.904 69.9333 233.384 69.46 232.504 69.46C232.024 69.46 231.637 69.6133 231.344 69.92C231.037 70.2267 230.884 70.62 230.884 71.1C230.884 71.2733 230.911 71.4533 230.964 71.64L229.904 71.88C229.837 71.6 229.804 71.34 229.804 71.1C229.804 70.3267 230.064 69.68 230.584 69.16C231.104 68.64 231.751 68.38 232.524 68.38C233.244 68.38 233.851 68.6067 234.344 69.06C234.851 69.5133 235.137 70.1 235.204 70.82V81H234.084ZM245.92 81.02C244.586 81.02 243.546 80.4533 242.8 79.32C242.053 80.44 241.013 81 239.68 81C238.48 81 237.393 80.3867 236.42 79.16L237.32 78.48C238.08 79.4267 238.866 79.9 239.68 79.9C240.413 79.9 241.02 79.6867 241.5 79.26C241.993 78.82 242.24 78.24 242.24 77.52V77.12C242.24 76.4267 241.986 75.8667 241.48 75.44C240.986 75.0133 240.386 74.8 239.68 74.8C238.72 74.8 237.893 75.3733 237.2 76.52L236.24 75.96L236.52 75.48C237.213 74.2933 238.266 73.7 239.68 73.7C240.76 73.7 241.646 74.04 242.34 74.72C243.033 75.3867 243.38 76.26 243.38 77.34V77.54C243.38 78.2467 243.62 78.82 244.1 79.26C244.593 79.7 245.2 79.92 245.92 79.92C246.666 79.92 247.286 79.68 247.78 79.2C248.273 78.7067 248.52 78.0867 248.52 77.34C248.52 76.6067 248.266 76 247.76 75.52C247.266 75.04 246.653 74.8 245.92 74.8C245.626 74.8 245.153 74.92 244.5 75.16L244.14 74.1L244.64 73.92C245.013 73.7867 245.44 73.72 245.92 73.72C247.026 73.72 247.92 74.0467 248.6 74.7C249.28 75.3533 249.62 76.2333 249.62 77.34C249.62 78.42 249.273 79.3067 248.58 80C247.886 80.68 247 81.02 245.92 81.02ZM251.533 78.5L251.553 78.52L251.613 78.44V78.6C252.32 79.48 253.093 79.92 253.933 79.92C254.666 79.92 255.273 79.7067 255.753 79.28C256.233 78.84 256.473 78.26 256.473 77.54V77.14C256.473 76.4333 256.226 75.8667 255.733 75.44C255.253 75.0133 254.653 74.8 253.933 74.8C252.973 74.8 252.14 75.38 251.433 76.54L250.473 75.98L250.753 75.48C251.42 74.2933 252.48 73.7 253.933 73.7C255.013 73.7 255.893 74.0467 256.573 74.74C257.266 75.42 257.613 76.3 257.613 77.38V77.58C257.613 78.3 257.866 78.88 258.373 79.32C258.84 79.7333 259.44 79.94 260.173 79.94C260.92 79.94 261.533 79.7 262.013 79.22C262.506 78.74 262.753 78.1267 262.753 77.38C262.753 76.6467 262.506 76.0333 262.013 75.54C261.52 75.0467 260.906 74.8 260.173 74.8C259.866 74.8 259.386 74.92 258.733 75.16L258.373 74.12L258.893 73.92C259.24 73.7867 259.666 73.72 260.173 73.72C261.24 73.72 262.12 74.0667 262.813 74.76C263.506 75.44 263.853 76.3133 263.853 77.38C263.853 78.4333 263.5 79.3133 262.793 80.02C262.1 80.7133 261.226 81.06 260.173 81.06C258.826 81.06 257.78 80.4867 257.033 79.34C256.3 80.4733 255.266 81.04 253.933 81.04C253.093 81.04 252.32 80.7733 251.613 80.24V84.52C251.613 85.0267 251.846 85.28 252.313 85.28H262.013C262.466 85.28 262.693 85.1133 262.693 84.78V83.8H263.853V84.76C263.853 85.8533 263.233 86.4 261.993 86.4H252.313C251.073 86.4 250.453 85.7867 250.453 84.56V79.32L251.233 78.76L251.533 78.5ZM261.871 70.92C261.845 70.9333 261.818 70.94 261.791 70.94C261.765 70.94 261.751 70.9267 261.751 70.9C261.711 70.4733 261.551 70.1267 261.271 69.86C260.978 69.5933 260.618 69.46 260.191 69.46C259.711 69.46 259.325 69.6133 259.031 69.92C258.725 70.2133 258.571 70.6 258.571 71.08C258.571 71.5333 258.725 71.9133 259.031 72.22C259.325 72.5133 259.698 72.66 260.151 72.66C260.245 72.66 260.391 72.6467 260.591 72.62V73.78C260.431 73.7933 260.298 73.8 260.191 73.8C259.431 73.8 258.791 73.54 258.271 73.02C257.751 72.4867 257.491 71.84 257.491 71.08C257.491 70.32 257.758 69.68 258.291 69.16C258.811 68.64 259.451 68.38 260.211 68.38C260.905 68.38 261.485 68.5867 261.951 69C262.418 69.4 262.718 69.9467 262.851 70.64C262.545 70.76 262.218 70.8533 261.871 70.92ZM266.811 81V74.28H267.911V81H266.811ZM265.091 81V74.28H266.191V81H265.091ZM275.219 67.0938L276.82 67.6406L274.672 72.6602L273.461 72.3477L275.219 67.0938ZM271.703 67.0938L273.305 67.6406L271.156 72.6602L269.945 72.3477L271.703 67.0938Z" fill="white" fill-opacity="0.65"/>
</svg>
