<svg width="17" height="17" viewBox="0 0 17 17" fill="none" xmlns="http://www.w3.org/2000/svg">
<rect width="17" height="17" fill="white"/>
<path d="M15.1087 5.60991C14.8183 5.60991 14.5775 5.36908 14.5775 5.07866V3.78949C14.5775 3.27241 14.1596 2.85449 13.6425 2.85449H3.35749C2.8404 2.85449 2.42249 3.27241 2.42249 3.78949V5.08574C2.42249 5.37616 2.18165 5.61699 1.89124 5.61699C1.60082 5.61699 1.35999 5.37616 1.35999 5.07866V3.78949C1.35999 2.68449 2.25957 1.79199 3.35749 1.79199H13.6425C14.7475 1.79199 15.64 2.69158 15.64 3.78949V5.08574C15.64 5.37616 15.4062 5.60991 15.1087 5.60991Z" fill="#D7D7D7"/>
<path d="M8.5 15.2078C8.20958 15.2078 7.96875 14.967 7.96875 14.6765V2.91113C7.96875 2.62072 8.20958 2.37988 8.5 2.37988C8.79042 2.37988 9.03125 2.62072 9.03125 2.91113V14.6765C9.03125 14.974 8.79042 15.2078 8.5 15.2078Z" fill="#D7D7D7"/>
<path d="M11.2908 15.208H5.70917C5.41875 15.208 5.17792 14.9672 5.17792 14.6768C5.17792 14.3863 5.41875 14.1455 5.70917 14.1455H11.2908C11.5812 14.1455 11.8221 14.3863 11.8221 14.6768C11.8221 14.9672 11.5812 15.208 11.2908 15.208Z" fill="#D7D7D7"/>
</svg>
