<svg width="176" height="32" viewBox="0 0 176 32" fill="none" xmlns="http://www.w3.org/2000/svg">
<path d="M16.83 22.034C14.5633 22.034 12.7953 21.0707 11.526 19.144C10.2567 21.048 8.48867 22 6.222 22C4.182 22 2.33467 20.9573 0.68 18.872L2.21 17.716C3.502 19.3253 4.83933 20.13 6.222 20.13C7.46867 20.13 8.5 19.7673 9.316 19.042C10.1547 18.294 10.574 17.308 10.574 16.084V15.404C10.574 14.2253 10.1433 13.2733 9.282 12.548C8.44333 11.8227 7.42333 11.46 6.222 11.46C4.59 11.46 3.18467 12.4347 2.006 14.384L0.374 13.432L0.85 12.616C2.02867 10.5987 3.81933 9.59 6.222 9.59C8.058 9.59 9.56533 10.168 10.744 11.324C11.9227 12.4573 12.512 13.942 12.512 15.778V16.118C12.512 17.3193 12.92 18.294 13.736 19.042C14.5747 19.79 15.606 20.164 16.83 20.164C18.0993 20.164 19.1533 19.756 19.992 18.94C20.8307 18.1013 21.25 17.0473 21.25 15.778C21.25 14.5313 20.8193 13.5 19.958 12.684C19.1193 11.868 18.0767 11.46 16.83 11.46C16.3313 11.46 15.5267 11.664 14.416 12.072L13.804 10.27L14.654 9.964C15.2887 9.73733 16.014 9.624 16.83 9.624C18.7113 9.624 20.23 10.1793 21.386 11.29C22.542 12.4007 23.12 13.8967 23.12 15.778C23.12 17.614 22.5307 19.1213 21.352 20.3C20.1733 21.456 18.666 22.034 16.83 22.034ZM37.0831 16.39H36.9811C36.8678 18.6567 35.5191 20.5153 32.9351 21.966L32.0851 20.368C34.0798 19.212 35.0771 17.784 35.0771 16.084C35.0771 14.8373 34.6691 13.806 33.8531 12.99C33.0371 12.174 32.0058 11.766 30.7591 11.766C29.5124 11.766 28.4698 12.174 27.6311 12.99C26.7924 13.806 26.3731 14.8373 26.3731 16.084C26.3731 17.8067 27.4271 19.2347 29.5351 20.368L28.6171 22L27.8011 21.558C25.6024 20.3567 24.5031 18.532 24.5031 16.084C24.5031 14.2253 25.0811 12.7293 26.2371 11.596C27.3931 10.4627 28.9004 9.896 30.7591 9.896C33.0258 9.896 34.8051 10.8593 36.0971 12.786C37.3664 10.8593 39.1344 9.896 41.4011 9.896C43.2371 9.896 44.7331 10.474 45.8891 11.63C47.0678 12.7633 47.6571 14.248 47.6571 16.084C47.6571 17.8973 47.0678 19.3933 45.8891 20.572C44.7104 21.728 43.2144 22.306 41.4011 22.306C40.8571 22.306 40.3131 22.238 39.7691 22.102C39.8144 21.694 39.9278 21.0707 40.1091 20.232C40.7438 20.3453 41.1744 20.402 41.4011 20.402C42.6704 20.402 43.7131 20.0053 44.5291 19.212C45.3678 18.396 45.7871 17.3533 45.7871 16.084C45.7871 14.86 45.3564 13.84 44.4951 13.024C43.6564 12.1853 42.6251 11.766 41.4011 11.766C40.1318 11.766 39.0891 12.174 38.2731 12.99C37.4798 13.7833 37.0831 14.8147 37.0831 16.084V16.39ZM44.2802 4.864C44.2349 4.88667 44.1896 4.898 44.1442 4.898C44.0989 4.898 44.0762 4.87533 44.0762 4.83C44.0082 4.10467 43.7362 3.51533 43.2602 3.062C42.7616 2.60867 42.1496 2.382 41.4242 2.382C40.6082 2.382 39.9509 2.64267 39.4522 3.164C38.9309 3.66267 38.6702 4.32 38.6702 5.136C38.6702 5.90667 38.9309 6.55267 39.4522 7.074C39.9509 7.57267 40.5856 7.822 41.3562 7.822C41.5149 7.822 41.7642 7.79933 42.1042 7.754V9.726C41.8322 9.74867 41.6056 9.76 41.4242 9.76C40.1322 9.76 39.0442 9.318 38.1602 8.434C37.2762 7.52733 36.8342 6.428 36.8342 5.136C36.8342 3.844 37.2876 2.756 38.1942 1.872C39.0782 0.987999 40.1662 0.545999 41.4582 0.545999C42.6369 0.545999 43.6229 0.897332 44.4162 1.6C45.2096 2.28 45.7196 3.20933 45.9462 4.388C45.4249 4.592 44.8696 4.75067 44.2802 4.864ZM59.5802 14.452C58.4242 12.4347 57.0076 11.426 55.3302 11.426C54.0836 11.426 53.0522 11.834 52.2362 12.65C51.4202 13.466 51.0122 14.4973 51.0122 15.744C51.0122 17.6027 51.9076 18.9513 53.6982 19.79C53.8569 17.9993 54.6389 16.7187 56.0442 15.948C56.7469 15.5627 57.4949 15.37 58.2882 15.37C59.0816 15.37 59.7276 15.5513 60.2262 15.914C60.8156 16.3447 61.1102 16.934 61.1102 17.682C61.1102 18.158 60.8156 18.804 60.2262 19.62C59.0929 21.184 57.4609 21.966 55.3302 21.966C53.5169 21.966 52.0209 21.388 50.8422 20.232C49.6862 19.0533 49.1082 17.5573 49.1082 15.744C49.1082 13.9307 49.6862 12.446 50.8422 11.29C52.0209 10.134 53.5169 9.556 55.3302 9.556C57.7556 9.556 59.7049 10.8933 61.1782 13.568L59.5802 14.452ZM58.1182 17.172C57.2796 17.172 56.5769 17.444 56.0102 17.988C55.4436 18.532 55.1489 19.2233 55.1262 20.062H55.3302C56.6676 20.062 57.7669 19.5973 58.6282 18.668C58.7642 18.4413 58.9342 18.192 59.1382 17.92C59.1609 17.8067 59.1722 17.716 59.1722 17.648C59.1722 17.3307 58.8209 17.172 58.1182 17.172ZM79.7167 22.034C77.4501 22.034 75.6821 21.0707 74.4127 19.144C73.1434 21.048 71.3754 22 69.1087 22C67.0687 22 65.2214 20.9573 63.5667 18.872L65.0967 17.716C66.3887 19.3253 67.7261 20.13 69.1087 20.13C70.3554 20.13 71.3867 19.7673 72.2027 19.042C73.0414 18.294 73.4607 17.308 73.4607 16.084V15.404C73.4607 14.2253 73.0301 13.2733 72.1687 12.548C71.3301 11.8227 70.3101 11.46 69.1087 11.46C67.4767 11.46 66.0714 12.4347 64.8927 14.384L63.2607 13.432L63.7367 12.616C64.9154 10.5987 66.7061 9.59 69.1087 9.59C70.9447 9.59 72.4521 10.168 73.6307 11.324C74.8094 12.4573 75.3987 13.942 75.3987 15.778V16.118C75.3987 17.3193 75.8067 18.294 76.6227 19.042C77.4614 19.79 78.4927 20.164 79.7167 20.164C80.9861 20.164 82.0401 19.756 82.8787 18.94C83.7174 18.1013 84.1367 17.0473 84.1367 15.778C84.1367 14.5313 83.7061 13.5 82.8447 12.684C82.0061 11.868 80.9634 11.46 79.7167 11.46C79.2181 11.46 78.4134 11.664 77.3027 12.072L76.6907 10.27L77.5407 9.964C78.1754 9.73733 78.9007 9.624 79.7167 9.624C81.5981 9.624 83.1167 10.1793 84.2727 11.29C85.4287 12.4007 86.0067 13.8967 86.0067 15.778C86.0067 17.614 85.4174 19.1213 84.2387 20.3C83.0601 21.456 81.5527 22.034 79.7167 22.034ZM93.6798 21.966C91.5492 21.966 89.9172 21.184 88.7838 19.62C88.2172 18.8267 87.9338 18.1807 87.9338 17.682C87.9338 16.9567 88.2285 16.3787 88.8178 15.948C89.3392 15.5627 89.9738 15.37 90.7218 15.37C92.3992 15.37 93.6798 16.0953 94.5638 17.546C94.9945 18.2487 95.2552 18.9967 95.3458 19.79C97.1365 18.9513 98.0318 17.6027 98.0318 15.744C98.0318 14.4973 97.6125 13.466 96.7738 12.65C95.9578 11.834 94.9265 11.426 93.6798 11.426C92.0252 11.426 90.6198 12.4347 89.4638 14.452L87.7978 13.568C89.3165 10.8933 91.2772 9.556 93.6798 9.556C95.4932 9.556 96.9892 10.134 98.1678 11.29C99.3465 12.446 99.9358 13.9307 99.9358 15.744C99.9358 17.5573 99.3465 19.0533 98.1678 20.232C96.9892 21.388 95.4932 21.966 93.6798 21.966ZM90.8918 17.172C90.1892 17.172 89.8378 17.3307 89.8378 17.648C89.8378 17.716 89.8605 17.8067 89.9058 17.92C90.1098 18.192 90.2798 18.4413 90.4158 18.668C91.2545 19.5973 92.3425 20.062 93.6798 20.062H93.9178C93.8952 19.2007 93.6005 18.5093 93.0338 17.988C92.4672 17.444 91.7532 17.172 90.8918 17.172ZM93.8243 8.366C93.167 8.366 92.6117 8.13933 92.1583 7.686C91.705 7.23267 91.4783 6.67733 91.4783 6.02C91.4783 5.34 91.705 4.77333 92.1583 4.32C92.589 3.86667 93.1443 3.64 93.8243 3.64C94.5043 3.64 95.0823 3.86667 95.5583 4.32C96.0117 4.77333 96.2383 5.34 96.2383 6.02C96.2383 6.67733 96.0003 7.23267 95.5243 7.686C95.0483 8.13933 94.4817 8.366 93.8243 8.366ZM93.8243 5.272C93.3483 5.272 93.1103 5.52133 93.1103 6.02C93.1103 6.51867 93.3483 6.768 93.8243 6.768C94.3457 6.768 94.6063 6.51867 94.6063 6.02C94.6063 5.52133 94.3457 5.272 93.8243 5.272ZM107.492 21.966C105.362 21.966 103.73 21.184 102.596 19.62C102.03 18.8267 101.746 18.1807 101.746 17.682C101.746 16.9567 102.041 16.3787 102.63 15.948C103.152 15.5627 103.786 15.37 104.534 15.37C106.212 15.37 107.492 16.0953 108.376 17.546C108.807 18.2487 109.068 18.9967 109.158 19.79C110.949 18.9513 111.844 17.6027 111.844 15.744C111.844 14.4973 111.425 13.466 110.586 12.65C109.77 11.834 108.739 11.426 107.492 11.426C105.838 11.426 104.432 12.4347 103.276 14.452L101.61 13.568C103.129 10.8933 105.09 9.556 107.492 9.556C109.306 9.556 110.802 10.134 111.98 11.29C113.159 12.446 113.748 13.9307 113.748 15.744C113.748 17.5573 113.159 19.0533 111.98 20.232C110.802 21.388 109.306 21.966 107.492 21.966ZM104.704 17.172C104.002 17.172 103.65 17.3307 103.65 17.648C103.65 17.716 103.673 17.8067 103.718 17.92C103.922 18.192 104.092 18.4413 104.228 18.668C105.067 19.5973 106.155 20.062 107.492 20.062H107.73C107.708 19.2007 107.413 18.5093 106.846 17.988C106.28 17.444 105.566 17.172 104.704 17.172ZM115.729 31.112C115.593 31.112 115.423 31.0893 115.219 31.044L112.023 30.364C111.048 30.16 110.549 29.6953 110.527 28.97L110.493 27.984V19.246H112.363V28.426L114.947 29.038V9.59H116.817V30.092C116.817 30.772 116.454 31.112 115.729 31.112ZM130.749 16.39H130.647C130.534 18.6567 129.185 20.5153 126.601 21.966L125.751 20.368C127.746 19.212 128.743 17.784 128.743 16.084C128.743 14.8373 128.335 13.806 127.519 12.99C126.703 12.174 125.672 11.766 124.425 11.766C123.178 11.766 122.136 12.174 121.297 12.99C120.458 13.806 120.039 14.8373 120.039 16.084C120.039 17.8067 121.093 19.2347 123.201 20.368L122.283 22L121.467 21.558C119.268 20.3567 118.169 18.532 118.169 16.084C118.169 14.2253 118.747 12.7293 119.903 11.596C121.059 10.4627 122.566 9.896 124.425 9.896C126.692 9.896 128.471 10.8593 129.763 12.786C131.032 10.8593 132.8 9.896 135.067 9.896C136.903 9.896 138.399 10.474 139.555 11.63C140.734 12.7633 141.323 14.248 141.323 16.084C141.323 17.8973 140.734 19.3933 139.555 20.572C138.376 21.728 136.88 22.306 135.067 22.306C134.523 22.306 133.979 22.238 133.435 22.102C133.48 21.694 133.594 21.0707 133.775 20.232C134.41 20.3453 134.84 20.402 135.067 20.402C136.336 20.402 137.379 20.0053 138.195 19.212C139.034 18.396 139.453 17.3533 139.453 16.084C139.453 14.86 139.022 13.84 138.161 13.024C137.322 12.1853 136.291 11.766 135.067 11.766C133.798 11.766 132.755 12.174 131.939 12.99C131.146 13.7833 130.749 14.8147 130.749 16.084V16.39ZM137.946 4.864C137.901 4.88667 137.856 4.898 137.81 4.898C137.765 4.898 137.742 4.87533 137.742 4.83C137.674 4.10467 137.402 3.51533 136.926 3.062C136.428 2.60867 135.816 2.382 135.09 2.382C134.274 2.382 133.617 2.64267 133.118 3.164C132.597 3.66267 132.336 4.32 132.336 5.136C132.336 5.90667 132.597 6.55267 133.118 7.074C133.617 7.57267 134.252 7.822 135.022 7.822C135.181 7.822 135.43 7.79933 135.77 7.754V9.726C135.498 9.74867 135.272 9.76 135.09 9.76C133.798 9.76 132.71 9.318 131.826 8.434C130.942 7.52733 130.5 6.428 130.5 5.136C130.5 3.844 130.954 2.756 131.86 1.872C132.744 0.987999 133.832 0.545999 135.124 0.545999C136.303 0.545999 137.289 0.897332 138.082 1.6C138.876 2.28 139.386 3.20933 139.612 4.388C139.091 4.592 138.536 4.75067 137.946 4.864ZM148.962 22C147.126 22 145.619 21.422 144.44 20.266C143.284 19.11 142.706 17.614 142.706 15.778C142.706 13.2167 143.908 11.3467 146.31 10.168L147.5 11.596C145.551 12.7973 144.576 14.1913 144.576 15.778C144.576 16.73 144.848 17.5913 145.392 18.362C146.39 17.274 147.58 16.7073 148.962 16.662C150.322 16.6167 151.558 17.0813 152.668 18.056C153.076 17.3533 153.28 16.594 153.28 15.778C153.28 14.214 152.306 12.8313 150.356 11.63L151.648 10.236L152.192 10.508C154.142 11.4827 155.116 13.2393 155.116 15.778C155.116 17.5913 154.538 19.0873 153.382 20.266C152.249 21.422 150.776 22 148.962 22ZM148.996 18.226C147.999 18.362 147.194 18.77 146.582 19.45C147.33 19.9033 148.124 20.13 148.962 20.13C149.892 20.13 150.764 19.8127 151.58 19.178C150.878 18.6113 150.016 18.294 148.996 18.226ZM157.233 31.112C157.097 31.112 156.927 31.0893 156.723 31.044L153.527 30.364C152.552 30.16 152.053 29.6953 152.031 28.97L151.997 27.984V19.246H153.867V28.426L156.451 29.038V9.59H158.321V30.092C158.321 30.772 157.958 31.112 157.233 31.112ZM162.869 21.966C162.506 21.966 161.94 21.8753 161.169 21.694V19.756C161.894 19.96 162.461 20.062 162.869 20.062C164.138 20.062 165.17 19.6653 165.963 18.872C166.779 18.056 167.187 17.0133 167.187 15.744C167.187 14.52 166.768 13.5 165.929 12.684C165.113 11.8453 164.093 11.426 162.869 11.426C160.874 11.426 159.492 12.5253 158.721 14.724C158.698 14.8373 158.596 15.1093 158.415 15.54L156.749 14.554L156.885 14.078C157.746 11.0633 159.741 9.556 162.869 9.556C164.66 9.556 166.144 10.1453 167.323 11.324C168.502 12.48 169.091 13.9533 169.091 15.744C169.091 17.58 168.513 19.076 167.357 20.232C166.201 21.388 164.705 21.966 162.869 21.966ZM172.91 14.996C172.208 14.996 171.63 14.7693 171.176 14.316C170.746 13.8627 170.53 13.2847 170.53 12.582C170.53 11.902 170.757 11.3353 171.21 10.882C171.664 10.406 172.23 10.168 172.91 10.168C173.59 10.168 174.157 10.406 174.61 10.882C175.064 11.3353 175.29 11.902 175.29 12.582C175.29 13.2847 175.064 13.8627 174.61 14.316C174.18 14.7693 173.613 14.996 172.91 14.996ZM172.91 21.558C172.208 21.558 171.63 21.3313 171.176 20.878C170.746 20.4247 170.53 19.8467 170.53 19.144C170.53 18.464 170.757 17.8973 171.21 17.444C171.664 16.968 172.23 16.73 172.91 16.73C173.613 16.73 174.18 16.9567 174.61 17.41C175.064 17.8633 175.29 18.4413 175.29 19.144C175.29 19.8467 175.064 20.4247 174.61 20.878C174.18 21.3313 173.613 21.558 172.91 21.558ZM172.91 11.8C172.434 11.8 172.196 12.0607 172.196 12.582C172.196 13.058 172.434 13.296 172.91 13.296C173.432 13.296 173.692 13.058 173.692 12.582C173.692 12.0607 173.432 11.8 172.91 11.8ZM172.91 18.396C172.434 18.396 172.196 18.6453 172.196 19.144C172.196 19.6653 172.434 19.926 172.91 19.926C173.432 19.926 173.692 19.6653 173.692 19.144C173.692 18.6453 173.432 18.396 172.91 18.396Z" fill="#E3803D"/>
</svg>
