<svg width="412" height="267" viewBox="0 0 412 267" fill="none" xmlns="http://www.w3.org/2000/svg">
<g clip-path="url(#clip0_35_251)">
<path d="M263.686 162.418L262.629 179.066L264.59 179.191L265.647 162.543L263.686 162.418Z" fill="#1A1A1A"/>
<path d="M263.273 179.07L264.335 162.468L263.69 162.428L262.628 179.07L264.593 179.199V179.159L263.273 179.07Z" fill="#4D4D4D"/>
<path d="M264.633 164.417C266.025 164.417 267.154 163.287 267.154 161.892C267.154 160.497 266.025 159.367 264.633 159.367C263.241 159.367 262.112 160.497 262.112 161.892C262.112 163.287 263.241 164.417 264.633 164.417Z" fill="#333333"/>
<g style="mix-blend-mode:screen">
<path d="M262.926 162.787C262.926 161.395 264.058 160.262 265.447 160.262C265.953 160.262 266.429 160.421 266.826 160.679C266.4 159.904 265.586 159.367 264.633 159.367C263.244 159.367 262.112 160.5 262.112 161.892C262.112 162.777 262.569 163.542 263.254 164C263.055 163.642 262.926 163.224 262.926 162.787Z" fill="#333333"/>
</g>
<path d="M273.029 177.191C272.731 176.068 271.66 175.322 270.498 175.432L258.817 176.565C257.656 176.674 256.753 177.609 256.664 178.772L256.118 186.596L275.064 184.767L273.029 177.191Z" fill="#1A1A1A"/>
<path d="M316.491 108.807L278.757 122.789L280.461 127.404L318.196 113.422L316.491 108.807Z" fill="#4D4D4D"/>
<path d="M321.629 141.075C321.659 140.459 321.668 139.843 321.688 139.226C321.708 138.66 321.728 138.093 321.738 137.526C321.758 136.681 321.758 135.836 321.748 134.991C321.748 134.673 321.748 134.355 321.748 134.027C321.738 133.023 321.708 132.019 321.678 131.025C321.678 130.876 321.678 130.736 321.668 130.587C321.629 129.454 321.569 128.331 321.49 127.197C321.48 127.008 321.46 126.83 321.44 126.641L298.287 142.974C296.193 145.072 295.022 147.915 295.022 150.877V171.714L248.476 185.492H202.804V216.479H315.783L321.391 144.674C321.48 143.471 321.559 142.268 321.619 141.065L321.629 141.075Z" fill="#333333"/>
<path d="M165.092 44.5166H162.085V173.742H165.092V44.5166Z" fill="#999999"/>
<path d="M162.839 44.5166H162.085V173.742H162.839V44.5166Z" fill="#CCCCCC"/>
<path d="M166.471 129.633H151.932V182.848H166.471V129.633Z" fill="#0C5C8E"/>
<g style="mix-blend-mode:multiply">
<path d="M155.187 129.633H151.932V182.848H155.187V129.633Z" fill="#CCCCCC"/>
</g>
<path d="M188.245 190.244L186.628 190.354C182.043 190.672 178.043 187.172 177.725 182.58L172.466 97.4434C172.148 92.8506 175.641 88.8443 180.226 88.5262L181.844 88.4168C186.429 88.0987 190.429 91.598 190.746 96.1908L196.006 181.327C196.324 185.92 192.83 189.926 188.245 190.244Z" fill="#333333"/>
<path d="M243.167 182.689V180.273C243.167 175.606 239.39 171.823 234.731 171.823H184.663C180.004 171.823 176.227 175.606 176.227 180.273V182.689C176.227 187.356 180.004 191.139 184.663 191.139H234.731C239.39 191.139 243.167 187.356 243.167 182.689Z" fill="#333333"/>
<path d="M46.4262 144.028H91.4927C95.8197 144.028 99.3329 147.547 99.3329 151.881V154.695H46.4262V144.028Z" fill="#333333"/>
<path d="M21.655 45.8486C20.5236 48.0059 18.8861 51.3461 16.4844 56.595L16.3454 56.8933V156.494H19.3525V57.5593C21.3969 53.1057 23.7093 48.3339 25.0491 45.8486H21.655Z" fill="#999999"/>
<path d="M21.655 45.8486C20.5236 48.0059 18.8861 51.3461 16.4844 56.595L16.3454 56.8933V156.494H17.0997V57.6488L17.2386 57.3506C19.948 51.4455 21.6847 47.9462 22.8062 45.8486H21.655Z" fill="#CCCCCC"/>
<path d="M59.6809 202.49C62.2828 191.343 55.371 180.194 44.2431 177.588C33.1152 174.982 21.985 181.905 19.3832 193.052C16.7813 204.199 23.6931 215.348 34.821 217.954C45.9489 220.56 57.0791 213.637 59.6809 202.49Z" fill="#4D4D4D"/>
<g style="mix-blend-mode:multiply">
<path d="M39.5287 177.052C28.1058 177.052 18.8364 186.327 18.8364 197.78C18.8364 209.232 28.0959 218.507 39.5287 218.507C50.9616 218.507 60.221 209.232 60.221 197.78C60.221 186.327 50.9616 177.052 39.5287 177.052ZM39.5287 216.002C29.4853 216.002 21.3374 207.84 21.3374 197.78C21.3374 187.719 29.4853 179.557 39.5287 179.557C49.5722 179.557 57.7201 187.719 57.7201 197.78C57.7201 207.84 49.5722 216.002 39.5287 216.002Z" fill="#CCCCCC"/>
</g>
<g style="mix-blend-mode:multiply">
<path d="M58.2262 192.262V188.952C57.8491 188.147 57.4224 187.361 56.946 186.616H22.1115C20.0472 189.837 18.8364 193.664 18.8364 197.78C18.8364 198.794 18.9357 199.778 19.0746 200.762H49.86C54.4848 200.762 58.2262 196.955 58.2262 192.262Z" fill="#CCCCCC"/>
</g>
<path d="M370.953 189.717C349.844 191.228 333.955 209.59 335.453 230.735C336.962 251.88 355.292 267.795 376.401 266.294C397.51 264.783 413.399 246.422 411.901 225.277C410.392 204.132 392.062 188.216 370.953 189.717ZM375.27 250.388C362.924 251.273 352.206 241.968 351.332 229.601C350.449 217.235 359.738 206.498 372.084 205.623C384.43 204.739 395.148 214.043 396.022 226.41C396.905 238.777 387.616 249.514 375.27 250.388Z" fill="#333333"/>
<path d="M392.157 236.8C397.01 226.576 392.67 214.346 382.463 209.485C372.256 204.624 360.047 208.971 355.194 219.195C350.341 229.419 354.681 241.649 364.888 246.51C375.095 251.371 387.304 247.024 392.157 236.8Z" fill="#CCCCCC"/>
<path d="M373.245 221.827C369.841 222.066 367.281 225.038 367.519 228.448C367.757 231.858 370.725 234.423 374.129 234.184C377.533 233.946 380.093 230.973 379.855 227.563C379.617 224.154 376.649 221.589 373.245 221.827Z" fill="#333333"/>
<path d="M374.565 216.608C374.635 217.543 373.93 218.358 372.997 218.418C372.064 218.487 371.251 217.781 371.191 216.847C371.122 215.913 371.826 215.097 372.759 215.038C373.692 214.968 374.506 215.674 374.565 216.608Z" fill="#333333"/>
<path d="M374.119 216.638C374.168 217.324 373.652 217.921 372.967 217.97C372.283 218.02 371.687 217.503 371.638 216.817C371.588 216.131 372.104 215.535 372.789 215.485C373.474 215.435 374.069 215.952 374.119 216.638Z" fill="#666666"/>
<path d="M372.461 217.583L371.935 216.797L372.342 215.942L373.295 215.873L373.831 216.658L373.414 217.523L372.461 217.583Z" fill="#333333"/>
<path d="M376.322 241.183C376.391 242.117 375.687 242.933 374.754 242.992C373.821 243.062 373.007 242.356 372.948 241.421C372.888 240.487 373.583 239.672 374.516 239.612C375.449 239.543 376.262 240.248 376.322 241.183Z" fill="#333333"/>
<path d="M375.865 241.213C375.915 241.899 375.399 242.495 374.714 242.545C374.029 242.594 373.434 242.078 373.384 241.392C373.335 240.706 373.851 240.109 374.536 240.059C375.22 240.01 375.816 240.527 375.865 241.213Z" fill="#666666"/>
<path d="M374.218 242.157L373.682 241.372L374.099 240.517L375.042 240.447L375.578 241.233L375.161 242.088L374.218 242.157Z" fill="#333333"/>
<path d="M386.137 229.83C385.204 229.9 384.39 229.194 384.331 228.259C384.261 227.325 384.966 226.51 385.899 226.45C386.832 226.38 387.646 227.086 387.705 228.021C387.775 228.955 387.07 229.77 386.137 229.83Z" fill="#333333"/>
<path d="M386.107 229.383C385.423 229.432 384.827 228.915 384.777 228.229C384.728 227.544 385.244 226.947 385.929 226.897C386.613 226.848 387.209 227.365 387.259 228.051C387.308 228.736 386.792 229.333 386.107 229.383Z" fill="#666666"/>
<path d="M385.165 227.723L385.949 227.186L386.812 227.603L386.872 228.558L386.088 229.085L385.234 228.677L385.165 227.723Z" fill="#333333"/>
<path d="M361.614 231.59C360.681 231.659 359.867 230.953 359.808 230.019C359.738 229.084 360.443 228.269 361.376 228.21C362.309 228.14 363.123 228.846 363.182 229.78C363.252 230.715 362.547 231.53 361.614 231.59Z" fill="#333333"/>
<path d="M361.574 231.132C360.89 231.182 360.294 230.665 360.244 229.979C360.195 229.293 360.711 228.697 361.396 228.647C362.08 228.597 362.676 229.114 362.726 229.8C362.775 230.486 362.259 231.082 361.574 231.132Z" fill="#666666"/>
<path d="M360.632 229.482L361.425 228.945L362.279 229.363L362.338 230.307L361.554 230.844L360.701 230.427L360.632 229.482Z" fill="#333333"/>
<g style="mix-blend-mode:multiply">
<path d="M372.223 207.562C360.949 208.367 352.464 218.169 353.268 229.462C354.071 240.755 363.857 249.255 375.131 248.45C386.405 247.645 394.89 237.843 394.087 226.549C393.283 215.256 383.497 206.757 372.223 207.562ZM375.012 246.78C364.661 247.515 355.669 239.712 354.925 229.343C354.191 218.974 361.981 209.968 372.332 209.222C382.683 208.486 391.675 216.29 392.419 226.659C393.154 237.027 385.363 246.034 375.012 246.78Z" fill="#CCCCCC"/>
</g>
<path d="M370.953 189.717C349.844 191.228 333.955 209.59 335.453 230.735C336.962 251.88 355.292 267.795 376.401 266.294C397.51 264.783 413.399 246.422 411.901 225.277C410.392 204.132 392.062 188.216 370.953 189.717ZM375.27 250.388C362.924 251.273 352.206 241.968 351.332 229.601C350.449 217.235 359.738 206.498 372.084 205.623C384.43 204.739 395.148 214.043 396.022 226.41C396.905 238.777 387.616 249.514 375.27 250.388Z" fill="#333333"/>
<g style="mix-blend-mode:multiply">
<path d="M370.953 189.717C349.844 191.228 333.955 209.59 335.453 230.735C336.962 251.88 355.292 267.795 376.401 266.294C397.51 264.783 413.399 246.422 411.901 225.277C410.392 204.132 392.062 188.216 370.953 189.717ZM376.074 261.572C357.565 262.894 341.487 248.937 340.167 230.397C338.848 211.856 352.781 195.752 371.29 194.43C389.799 193.107 405.877 207.065 407.197 225.605C408.517 244.145 394.583 260.25 376.074 261.572Z" fill="#CCCCCC"/>
</g>
<g style="mix-blend-mode:multiply">
<path d="M372.997 218.398C367.698 218.776 363.718 223.388 364.095 228.687C364.472 233.996 369.077 237.982 374.367 237.604C379.666 237.226 383.646 232.614 383.269 227.315C382.892 222.006 378.287 218.02 372.997 218.398ZM374.268 236.222C369.732 236.55 365.802 233.131 365.475 228.588C365.147 224.044 368.561 220.108 373.096 219.78C377.632 219.452 381.562 222.871 381.889 227.414C382.217 231.958 378.803 235.894 374.268 236.222Z" fill="#E6E6E6"/>
</g>
<g style="mix-blend-mode:multiply">
<path d="M370.467 190.045C370.139 190.145 369.97 190.523 370.089 190.89L370.863 193.406C370.973 193.773 371.33 193.992 371.657 193.893C371.985 193.793 372.154 193.416 372.035 193.048L371.26 190.533C371.151 190.165 370.794 189.946 370.467 190.045Z" fill="#CCCCCC"/>
</g>
<g style="mix-blend-mode:multiply">
<path d="M377.096 190.065C376.759 190.105 376.53 190.453 376.57 190.831L376.897 193.435C376.947 193.813 377.255 194.091 377.592 194.052C377.93 194.012 378.158 193.664 378.118 193.286L377.791 190.682C377.741 190.304 377.433 190.026 377.096 190.065Z" fill="#CCCCCC"/>
</g>
<g style="mix-blend-mode:multiply">
<path d="M383.616 191.238C383.279 191.219 382.991 191.517 382.971 191.905L382.842 194.529C382.822 194.917 383.08 195.245 383.418 195.255C383.755 195.275 384.043 194.976 384.063 194.589L384.192 191.964C384.212 191.576 383.954 191.258 383.616 191.238Z" fill="#CCCCCC"/>
</g>
<g style="mix-blend-mode:multiply">
<path d="M389.839 193.525C389.511 193.445 389.174 193.694 389.085 194.072L388.499 196.636C388.41 197.014 388.608 197.382 388.946 197.452C389.273 197.531 389.611 197.283 389.7 196.905L390.285 194.34C390.375 193.962 390.176 193.594 389.839 193.525Z" fill="#CCCCCC"/>
</g>
<g style="mix-blend-mode:multiply">
<path d="M395.575 196.855C395.268 196.726 394.89 196.905 394.742 197.263L393.719 199.688C393.57 200.046 393.699 200.434 394.017 200.573C394.335 200.712 394.702 200.523 394.851 200.166L395.873 197.74C396.022 197.382 395.893 196.994 395.575 196.855Z" fill="#CCCCCC"/>
</g>
<g style="mix-blend-mode:multiply">
<path d="M400.637 201.14C400.349 200.961 399.952 201.07 399.743 201.398L398.324 203.605C398.116 203.933 398.175 204.341 398.463 204.52C398.751 204.699 399.148 204.589 399.356 204.261L400.775 202.054C400.984 201.726 400.924 201.319 400.637 201.14Z" fill="#CCCCCC"/>
</g>
<g style="mix-blend-mode:multiply">
<path d="M404.884 206.23C404.636 206.001 404.219 206.041 403.961 206.329L402.175 208.258C401.917 208.536 401.907 208.954 402.155 209.182C402.403 209.411 402.82 209.371 403.078 209.083L404.864 207.154C405.122 206.876 405.132 206.458 404.884 206.22V206.23Z" fill="#CCCCCC"/>
</g>
<g style="mix-blend-mode:multiply">
<path d="M408.179 211.996C407.971 211.727 407.564 211.697 407.256 211.926L405.162 213.517C404.854 213.745 404.775 214.153 404.974 214.431C405.182 214.7 405.589 214.729 405.896 214.501L407.991 212.91C408.298 212.681 408.378 212.274 408.179 211.996Z" fill="#CCCCCC"/>
</g>
<g style="mix-blend-mode:multiply">
<path d="M410.432 218.239C410.273 217.94 409.876 217.831 409.529 218.01L407.197 219.213C406.859 219.392 406.7 219.779 406.859 220.078C407.018 220.376 407.415 220.485 407.762 220.306L410.095 219.103C410.432 218.924 410.591 218.537 410.432 218.239Z" fill="#CCCCCC"/>
</g>
<g style="mix-blend-mode:multiply">
<path d="M411.573 224.78C411.474 224.452 411.097 224.283 410.73 224.402L408.219 225.178C407.852 225.287 407.633 225.645 407.733 225.973C407.832 226.301 408.209 226.47 408.576 226.351L411.087 225.575C411.454 225.466 411.672 225.108 411.573 224.78Z" fill="#CCCCCC"/>
</g>
<g style="mix-blend-mode:multiply">
<path d="M411.553 231.421C411.514 231.083 411.166 230.854 410.789 230.894L408.189 231.222C407.812 231.271 407.534 231.58 407.574 231.918C407.613 232.256 407.961 232.484 408.338 232.444L410.938 232.116C411.315 232.067 411.593 231.759 411.553 231.421Z" fill="#CCCCCC"/>
</g>
<g style="mix-blend-mode:multiply">
<path d="M410.382 237.952C410.402 237.614 410.104 237.326 409.717 237.306L407.097 237.177C406.71 237.157 406.393 237.415 406.373 237.753C406.353 238.091 406.651 238.379 407.038 238.399L409.658 238.529C410.045 238.548 410.362 238.29 410.382 237.952Z" fill="#CCCCCC"/>
</g>
<g style="mix-blend-mode:multiply">
<path d="M408.1 244.185C408.179 243.857 407.931 243.519 407.554 243.429L404.993 242.843C404.616 242.753 404.249 242.952 404.18 243.29C404.1 243.618 404.348 243.956 404.725 244.046L407.286 244.632C407.663 244.722 408.03 244.523 408.1 244.185Z" fill="#CCCCCC"/>
</g>
<g style="mix-blend-mode:multiply">
<path d="M404.775 249.931C404.904 249.623 404.725 249.245 404.368 249.096L401.947 248.072C401.589 247.923 401.202 248.052 401.063 248.37C400.934 248.678 401.113 249.056 401.47 249.205L403.892 250.229C404.249 250.378 404.636 250.249 404.775 249.931Z" fill="#CCCCCC"/>
</g>
<g style="mix-blend-mode:multiply">
<path d="M400.498 255.001C400.676 254.713 400.567 254.315 400.24 254.106L398.036 252.685C397.709 252.476 397.302 252.536 397.123 252.824C396.945 253.112 397.054 253.51 397.381 253.719L399.585 255.14C399.912 255.349 400.319 255.289 400.498 255.001Z" fill="#CCCCCC"/>
</g>
<g style="mix-blend-mode:multiply">
<path d="M395.416 259.256C395.645 259.007 395.605 258.59 395.317 258.331L393.392 256.542C393.114 256.284 392.697 256.274 392.469 256.522C392.241 256.771 392.28 257.188 392.568 257.447L394.493 259.236C394.771 259.495 395.188 259.505 395.416 259.256Z" fill="#CCCCCC"/>
</g>
<g style="mix-blend-mode:multiply">
<path d="M389.66 262.556C389.928 262.348 389.958 261.94 389.73 261.632L388.142 259.534C387.914 259.226 387.507 259.147 387.229 259.345C386.961 259.554 386.931 259.962 387.159 260.27L388.747 262.368C388.975 262.676 389.382 262.755 389.66 262.556Z" fill="#CCCCCC"/>
</g>
<g style="mix-blend-mode:multiply">
<path d="M383.428 264.813C383.725 264.654 383.835 264.256 383.656 263.908L382.455 261.572C382.277 261.224 381.889 261.075 381.592 261.234C381.294 261.393 381.185 261.791 381.363 262.139L382.564 264.475C382.743 264.813 383.13 264.972 383.428 264.813Z" fill="#CCCCCC"/>
</g>
<g style="mix-blend-mode:multiply">
<path d="M376.897 265.956C377.225 265.857 377.394 265.479 377.275 265.111L376.501 262.596C376.391 262.228 376.034 262.01 375.707 262.109C375.379 262.208 375.21 262.586 375.329 262.954L376.104 265.469C376.213 265.837 376.57 266.056 376.897 265.956Z" fill="#CCCCCC"/>
</g>
<g style="mix-blend-mode:multiply">
<path d="M370.268 265.936C370.605 265.897 370.834 265.549 370.784 265.171L370.457 262.566C370.407 262.189 370.099 261.91 369.762 261.95C369.424 261.99 369.196 262.338 369.246 262.716L369.573 265.32C369.623 265.698 369.931 265.976 370.268 265.936Z" fill="#CCCCCC"/>
</g>
<g style="mix-blend-mode:multiply">
<path d="M363.748 264.763C364.085 264.783 364.373 264.485 364.393 264.097L364.522 261.473C364.542 261.085 364.284 260.767 363.946 260.747C363.609 260.727 363.321 261.025 363.301 261.413L363.172 264.038C363.152 264.425 363.41 264.743 363.748 264.763Z" fill="#CCCCCC"/>
</g>
<g style="mix-blend-mode:multiply">
<path d="M357.525 262.477C357.853 262.556 358.19 262.308 358.279 261.93L358.865 259.365C358.954 258.987 358.756 258.62 358.418 258.55C358.091 258.47 357.753 258.719 357.664 259.097L357.079 261.662C356.989 262.039 357.188 262.407 357.525 262.477Z" fill="#CCCCCC"/>
</g>
<g style="mix-blend-mode:multiply">
<path d="M351.789 259.147C352.097 259.276 352.474 259.097 352.622 258.739L353.645 256.313C353.794 255.956 353.665 255.568 353.347 255.429C353.039 255.299 352.662 255.478 352.513 255.836L351.491 258.262C351.342 258.62 351.471 259.007 351.789 259.147Z" fill="#CCCCCC"/>
</g>
<g style="mix-blend-mode:multiply">
<path d="M346.727 254.862C347.015 255.041 347.412 254.932 347.621 254.604L349.04 252.397C349.248 252.069 349.189 251.661 348.901 251.482C348.613 251.303 348.216 251.412 348.008 251.74L346.588 253.947C346.38 254.275 346.44 254.683 346.727 254.872V254.862Z" fill="#CCCCCC"/>
</g>
<g style="mix-blend-mode:multiply">
<path d="M342.48 249.772C342.728 250.001 343.145 249.961 343.403 249.673L345.189 247.744C345.447 247.466 345.457 247.048 345.209 246.82C344.961 246.591 344.544 246.631 344.286 246.919L342.5 248.848C342.242 249.126 342.232 249.543 342.48 249.772Z" fill="#CCCCCC"/>
</g>
<g style="mix-blend-mode:multiply">
<path d="M339.185 244.006C339.393 244.274 339.8 244.304 340.108 244.076L342.202 242.485C342.51 242.256 342.589 241.849 342.391 241.57C342.182 241.302 341.775 241.272 341.468 241.501L339.374 243.091C339.066 243.32 338.986 243.728 339.185 244.006Z" fill="#CCCCCC"/>
</g>
<g style="mix-blend-mode:multiply">
<path d="M336.932 237.763C337.091 238.061 337.488 238.171 337.835 237.992L340.167 236.789C340.505 236.61 340.664 236.222 340.505 235.924C340.346 235.626 339.949 235.516 339.602 235.695L337.27 236.898C336.932 237.077 336.773 237.465 336.932 237.763Z" fill="#CCCCCC"/>
</g>
<g style="mix-blend-mode:multiply">
<path d="M335.791 231.222C335.89 231.55 336.267 231.719 336.634 231.6L339.145 230.824C339.512 230.715 339.731 230.357 339.632 230.029C339.532 229.701 339.155 229.532 338.788 229.651L336.277 230.426C335.91 230.536 335.692 230.894 335.791 231.222Z" fill="#CCCCCC"/>
</g>
<g style="mix-blend-mode:multiply">
<path d="M335.811 224.581C335.85 224.919 336.198 225.148 336.575 225.098L339.175 224.77C339.552 224.72 339.83 224.412 339.79 224.074C339.751 223.736 339.403 223.507 339.026 223.547L336.426 223.875C336.049 223.925 335.771 224.233 335.811 224.571V224.581Z" fill="#CCCCCC"/>
</g>
<g style="mix-blend-mode:multiply">
<path d="M336.982 218.05C336.962 218.388 337.26 218.676 337.647 218.696L340.267 218.825C340.654 218.845 340.971 218.587 340.991 218.249C341.011 217.911 340.713 217.622 340.326 217.602L337.706 217.473C337.319 217.453 337.002 217.712 336.982 218.05Z" fill="#CCCCCC"/>
</g>
<g style="mix-blend-mode:multiply">
<path d="M339.264 211.817C339.185 212.145 339.433 212.483 339.81 212.572L342.371 213.159C342.748 213.248 343.115 213.049 343.184 212.711C343.264 212.383 343.016 212.045 342.639 211.956L340.078 211.369C339.701 211.28 339.334 211.479 339.264 211.817Z" fill="#CCCCCC"/>
</g>
<g style="mix-blend-mode:multiply">
<path d="M342.589 206.071C342.46 206.379 342.639 206.757 342.996 206.906L345.417 207.93C345.775 208.079 346.162 207.95 346.301 207.631C346.43 207.323 346.251 206.946 345.894 206.796L343.472 205.772C343.115 205.623 342.728 205.753 342.589 206.071Z" fill="#CCCCCC"/>
</g>
<g style="mix-blend-mode:multiply">
<path d="M346.866 201.001C346.688 201.289 346.797 201.687 347.124 201.895L349.328 203.317C349.655 203.526 350.062 203.466 350.241 203.178C350.419 202.89 350.31 202.492 349.983 202.283L347.779 200.862C347.452 200.653 347.045 200.712 346.866 201.001Z" fill="#CCCCCC"/>
</g>
<g style="mix-blend-mode:multiply">
<path d="M351.948 196.746C351.719 196.994 351.759 197.412 352.047 197.67L353.972 199.46C354.25 199.718 354.667 199.728 354.895 199.48C355.123 199.231 355.084 198.814 354.796 198.555L352.871 196.766C352.593 196.507 352.176 196.497 351.938 196.746H351.948Z" fill="#CCCCCC"/>
</g>
<g style="mix-blend-mode:multiply">
<path d="M357.704 193.445C357.436 193.654 357.406 194.062 357.634 194.37L359.222 196.467C359.45 196.776 359.857 196.855 360.135 196.656C360.403 196.448 360.433 196.04 360.205 195.732L358.617 193.634C358.389 193.326 357.982 193.246 357.704 193.445Z" fill="#CCCCCC"/>
</g>
<g style="mix-blend-mode:multiply">
<path d="M363.936 191.189C363.639 191.348 363.529 191.745 363.708 192.093L364.909 194.43C365.088 194.768 365.475 194.927 365.772 194.768C366.07 194.608 366.179 194.211 366.001 193.863L364.8 191.527C364.621 191.189 364.234 191.03 363.936 191.189Z" fill="#CCCCCC"/>
</g>
<g style="mix-blend-mode:multiply">
<path d="M373.94 189.916C373.613 189.986 373.404 190.354 373.484 190.731L374.029 193.306C374.109 193.684 374.446 193.932 374.774 193.863C375.101 193.793 375.31 193.425 375.23 193.048L374.684 190.473C374.605 190.095 374.268 189.847 373.94 189.916Z" fill="#CCCCCC"/>
</g>
<g style="mix-blend-mode:multiply">
<path d="M380.54 190.532C380.202 190.542 379.934 190.87 379.954 191.248L380.044 193.873C380.053 194.26 380.341 194.559 380.679 194.549C381.016 194.539 381.284 194.211 381.264 193.833L381.175 191.208C381.165 190.821 380.877 190.523 380.54 190.532Z" fill="#CCCCCC"/>
</g>
<g style="mix-blend-mode:multiply">
<path d="M386.921 192.302C386.584 192.252 386.266 192.521 386.216 192.908L385.849 195.513C385.8 195.891 386.028 196.239 386.355 196.288C386.693 196.338 387.01 196.07 387.06 195.682L387.427 193.077C387.477 192.7 387.249 192.352 386.921 192.302Z" fill="#CCCCCC"/>
</g>
<g style="mix-blend-mode:multiply">
<path d="M392.915 195.145C392.598 195.036 392.241 195.255 392.121 195.622L391.308 198.128C391.189 198.495 391.357 198.873 391.675 198.982C391.992 199.092 392.35 198.873 392.479 198.505L393.293 196C393.412 195.632 393.243 195.255 392.925 195.145H392.915Z" fill="#CCCCCC"/>
</g>
<g style="mix-blend-mode:multiply">
<path d="M398.314 198.993C398.017 198.833 397.63 198.983 397.441 199.321L396.21 201.647C396.032 201.985 396.121 202.392 396.429 202.551C396.726 202.711 397.113 202.561 397.302 202.223L398.533 199.897C398.711 199.559 398.622 199.152 398.314 198.993Z" fill="#CCCCCC"/>
</g>
<g style="mix-blend-mode:multiply">
<path d="M402.969 203.715C402.701 203.506 402.294 203.585 402.056 203.884L400.438 205.951C400.2 206.26 400.23 206.667 400.488 206.876C400.746 207.085 401.163 207.005 401.401 206.707L403.018 204.639C403.257 204.331 403.227 203.923 402.969 203.715Z" fill="#CCCCCC"/>
</g>
<g style="mix-blend-mode:multiply">
<path d="M406.74 209.182C406.512 208.934 406.095 208.934 405.807 209.192L403.852 210.952C403.564 211.21 403.515 211.628 403.743 211.876C403.971 212.125 404.388 212.125 404.676 211.866L406.631 210.107C406.919 209.848 406.968 209.431 406.74 209.182Z" fill="#CCCCCC"/>
</g>
<g style="mix-blend-mode:multiply">
<path d="M409.499 215.216C409.32 214.928 408.914 214.859 408.586 215.067L406.363 216.459C406.035 216.668 405.916 217.065 406.095 217.354C406.274 217.642 406.68 217.712 407.008 217.503L409.231 216.111C409.559 215.902 409.678 215.505 409.499 215.216Z" fill="#CCCCCC"/>
</g>
<g style="mix-blend-mode:multiply">
<path d="M411.166 221.639C411.037 221.32 410.65 221.181 410.293 221.33L407.862 222.315C407.504 222.454 407.316 222.832 407.445 223.15C407.574 223.468 407.961 223.607 408.318 223.458L410.75 222.474C411.107 222.325 411.295 221.957 411.166 221.639Z" fill="#CCCCCC"/>
</g>
<g style="mix-blend-mode:multiply">
<path d="M411.702 228.259C411.633 227.931 411.266 227.723 410.888 227.802L408.318 228.349C407.941 228.428 407.693 228.766 407.762 229.094C407.832 229.422 408.199 229.631 408.566 229.552L411.137 229.005C411.514 228.925 411.762 228.587 411.692 228.259H411.702Z" fill="#CCCCCC"/>
</g>
<g style="mix-blend-mode:multiply">
<path d="M411.087 234.87C411.077 234.532 410.75 234.264 410.372 234.284L407.752 234.373C407.365 234.383 407.068 234.671 407.077 235.009C407.087 235.347 407.415 235.616 407.792 235.596L410.412 235.507C410.799 235.497 411.097 235.208 411.087 234.87Z" fill="#CCCCCC"/>
</g>
<g style="mix-blend-mode:multiply">
<path d="M409.32 241.262C409.37 240.924 409.102 240.606 408.715 240.556L406.115 240.189C405.738 240.139 405.39 240.368 405.341 240.696C405.291 241.034 405.559 241.352 405.946 241.401L408.546 241.769C408.923 241.819 409.271 241.59 409.32 241.262Z" fill="#CCCCCC"/>
</g>
<g style="mix-blend-mode:multiply">
<path d="M406.482 247.267C406.591 246.949 406.373 246.591 406.006 246.462L403.505 245.647C403.138 245.527 402.76 245.696 402.651 246.014C402.542 246.332 402.76 246.69 403.128 246.82L405.629 247.635C405.996 247.754 406.373 247.585 406.482 247.267Z" fill="#CCCCCC"/>
</g>
<g style="mix-blend-mode:multiply">
<path d="M402.641 252.675C402.8 252.377 402.651 251.989 402.314 251.8L400.001 250.567C399.664 250.388 399.257 250.478 399.098 250.786C398.94 251.084 399.088 251.472 399.426 251.661L401.738 252.893C402.076 253.072 402.482 252.983 402.641 252.675Z" fill="#CCCCCC"/>
</g>
<g style="mix-blend-mode:multiply">
<path d="M397.927 257.337C398.136 257.069 398.056 256.661 397.759 256.423L395.694 254.802C395.387 254.564 394.98 254.594 394.771 254.852C394.563 255.111 394.642 255.528 394.94 255.767L397.004 257.387C397.312 257.626 397.719 257.596 397.927 257.337Z" fill="#CCCCCC"/>
</g>
<g style="mix-blend-mode:multiply">
<path d="M392.469 261.115C392.717 260.886 392.717 260.469 392.469 260.18L390.712 258.222C390.454 257.934 390.037 257.884 389.789 258.113C389.541 258.341 389.541 258.759 389.789 259.047L391.546 261.006C391.804 261.294 392.221 261.344 392.469 261.115Z" fill="#CCCCCC"/>
</g>
<g style="mix-blend-mode:multiply">
<path d="M386.445 263.878C386.733 263.699 386.802 263.292 386.594 262.964L385.204 260.737C384.996 260.409 384.599 260.29 384.311 260.469C384.023 260.648 383.954 261.055 384.162 261.383L385.552 263.61C385.76 263.938 386.157 264.057 386.445 263.878Z" fill="#CCCCCC"/>
</g>
<g style="mix-blend-mode:multiply">
<path d="M380.034 265.549C380.351 265.419 380.49 265.032 380.341 264.674L379.359 262.238C379.22 261.88 378.843 261.692 378.525 261.821C378.208 261.95 378.069 262.338 378.217 262.696L379.2 265.131C379.339 265.489 379.716 265.678 380.034 265.549Z" fill="#CCCCCC"/>
</g>
<g style="mix-blend-mode:multiply">
<path d="M373.424 266.086C373.751 266.016 373.96 265.648 373.881 265.27L373.335 262.696C373.255 262.318 372.918 262.069 372.59 262.139C372.263 262.208 372.054 262.576 372.134 262.944L372.68 265.519C372.759 265.897 373.096 266.145 373.424 266.076V266.086Z" fill="#CCCCCC"/>
</g>
<g style="mix-blend-mode:multiply">
<path d="M366.824 265.469C367.162 265.459 367.43 265.131 367.41 264.753L367.32 262.129C367.311 261.741 367.023 261.443 366.685 261.453C366.348 261.463 366.08 261.791 366.1 262.169L366.189 264.793C366.199 265.181 366.487 265.479 366.824 265.469Z" fill="#CCCCCC"/>
</g>
<g style="mix-blend-mode:multiply">
<path d="M360.443 263.7C360.78 263.749 361.098 263.481 361.148 263.093L361.515 260.489C361.564 260.111 361.336 259.763 361.009 259.713C360.671 259.663 360.354 259.932 360.304 260.32L359.937 262.924C359.887 263.302 360.115 263.65 360.443 263.7Z" fill="#CCCCCC"/>
</g>
<g style="mix-blend-mode:multiply">
<path d="M354.449 260.856C354.766 260.966 355.123 260.747 355.243 260.379L356.056 257.874C356.175 257.506 356.007 257.129 355.689 257.019C355.372 256.91 355.014 257.129 354.895 257.496L354.081 260.002C353.962 260.369 354.131 260.747 354.449 260.856Z" fill="#CCCCCC"/>
</g>
<g style="mix-blend-mode:multiply">
<path d="M349.05 257.009C349.347 257.168 349.735 257.019 349.923 256.681L351.154 254.355C351.332 254.017 351.243 253.609 350.935 253.45C350.638 253.291 350.251 253.44 350.062 253.778L348.831 256.105C348.653 256.443 348.742 256.85 349.05 257.009Z" fill="#CCCCCC"/>
</g>
<g style="mix-blend-mode:multiply">
<path d="M344.395 252.287C344.663 252.496 345.07 252.416 345.308 252.118L346.926 250.05C347.164 249.742 347.134 249.335 346.876 249.126C346.608 248.917 346.201 248.997 345.963 249.295L344.346 251.363C344.107 251.671 344.137 252.078 344.395 252.287Z" fill="#CCCCCC"/>
</g>
<g style="mix-blend-mode:multiply">
<path d="M340.624 246.819C340.852 247.068 341.269 247.068 341.557 246.809L343.512 245.05C343.8 244.791 343.849 244.374 343.621 244.125C343.393 243.877 342.976 243.877 342.688 244.125L340.733 245.885C340.445 246.143 340.396 246.561 340.624 246.809V246.819Z" fill="#CCCCCC"/>
</g>
<g style="mix-blend-mode:multiply">
<path d="M337.865 240.785C338.044 241.073 338.451 241.143 338.778 240.934L341.001 239.543C341.329 239.334 341.448 238.936 341.269 238.648C341.09 238.36 340.684 238.29 340.356 238.499L338.133 239.89C337.805 240.099 337.686 240.497 337.865 240.785Z" fill="#CCCCCC"/>
</g>
<g style="mix-blend-mode:multiply">
<path d="M336.198 234.363C336.327 234.681 336.714 234.821 337.071 234.671L339.503 233.687C339.86 233.538 340.048 233.17 339.919 232.852C339.79 232.534 339.403 232.395 339.046 232.544L336.615 233.528C336.257 233.677 336.069 234.045 336.198 234.363Z" fill="#CCCCCC"/>
</g>
<g style="mix-blend-mode:multiply">
<path d="M335.662 227.742C335.731 228.07 336.098 228.279 336.466 228.2L339.036 227.653C339.413 227.573 339.661 227.235 339.592 226.907C339.522 226.579 339.155 226.371 338.788 226.45L336.218 226.997C335.84 227.076 335.592 227.414 335.662 227.742Z" fill="#CCCCCC"/>
</g>
<g style="mix-blend-mode:multiply">
<path d="M336.277 221.132C336.287 221.47 336.614 221.738 336.992 221.718L339.612 221.629C339.999 221.619 340.296 221.33 340.287 220.992C340.277 220.654 339.949 220.386 339.572 220.406L336.952 220.495C336.565 220.505 336.267 220.794 336.277 221.132Z" fill="#CCCCCC"/>
</g>
<g style="mix-blend-mode:multiply">
<path d="M338.044 214.739C337.994 215.077 338.262 215.395 338.649 215.445L341.249 215.813C341.626 215.863 341.974 215.634 342.023 215.306C342.073 214.968 341.805 214.65 341.418 214.6L338.818 214.232C338.441 214.183 338.093 214.411 338.044 214.739Z" fill="#CCCCCC"/>
</g>
<g style="mix-blend-mode:multiply">
<path d="M340.882 208.735C340.773 209.053 340.991 209.411 341.358 209.54L343.859 210.355C344.226 210.475 344.604 210.305 344.713 209.987C344.822 209.669 344.604 209.311 344.236 209.182L341.735 208.367C341.368 208.248 340.991 208.417 340.882 208.735Z" fill="#CCCCCC"/>
</g>
<g style="mix-blend-mode:multiply">
<path d="M344.723 203.327C344.564 203.625 344.713 204.013 345.05 204.202L347.363 205.434C347.7 205.613 348.107 205.524 348.266 205.216C348.425 204.918 348.276 204.53 347.938 204.341L345.626 203.108C345.288 202.929 344.882 203.019 344.723 203.327Z" fill="#CCCCCC"/>
</g>
<g style="mix-blend-mode:multiply">
<path d="M349.437 198.664C349.228 198.933 349.308 199.34 349.605 199.579L351.67 201.199C351.977 201.438 352.384 201.418 352.593 201.15C352.801 200.881 352.722 200.474 352.424 200.235L350.36 198.615C350.052 198.376 349.645 198.406 349.437 198.664Z" fill="#CCCCCC"/>
</g>
<g style="mix-blend-mode:multiply">
<path d="M354.895 194.887C354.647 195.116 354.647 195.533 354.895 195.821L356.652 197.78C356.91 198.068 357.327 198.118 357.575 197.889C357.823 197.661 357.823 197.243 357.575 196.955L355.818 194.996C355.56 194.708 355.143 194.658 354.895 194.887Z" fill="#CCCCCC"/>
</g>
<g style="mix-blend-mode:multiply">
<path d="M360.919 192.123C360.631 192.302 360.562 192.71 360.77 193.038L362.16 195.265C362.368 195.593 362.765 195.712 363.053 195.533C363.341 195.354 363.41 194.946 363.202 194.618L361.812 192.392C361.604 192.064 361.207 191.944 360.919 192.123Z" fill="#CCCCCC"/>
</g>
<g style="mix-blend-mode:multiply">
<path d="M367.33 190.453C367.013 190.582 366.874 190.97 367.023 191.328L368.005 193.763C368.144 194.121 368.521 194.31 368.839 194.181C369.156 194.052 369.295 193.664 369.147 193.306L368.164 190.871C368.025 190.513 367.648 190.324 367.33 190.453Z" fill="#CCCCCC"/>
</g>
<path d="M369.573 225.605L372.154 230.516C372.759 231.669 374.188 232.097 375.349 231.48C376.51 230.864 376.967 229.432 376.362 228.289L373.781 223.378L369.573 225.605Z" fill="#B3B3B3"/>
<path d="M364.086 201.237L356.835 205.066L368.633 227.482L375.884 223.652L364.086 201.237Z" fill="#999999"/>
<g style="mix-blend-mode:multiply">
<path d="M364.09 201.228L361.948 202.359L373.746 224.774L375.888 223.643L364.09 201.228Z" fill="#CCCCCC"/>
</g>
<path d="M356.063 182.868L346.24 188.056L358.038 210.471L367.861 205.283L356.063 182.868Z" fill="#F7BA6B"/>
<g style="mix-blend-mode:multiply">
<path d="M366.583 205.973L359.331 209.802L360.081 211.227L367.333 207.397L366.583 205.973Z" fill="#CCCCCC"/>
</g>
<g style="mix-blend-mode:multiply">
<path d="M367.447 204.484L357.623 209.673L358.049 210.482L367.872 205.293L367.447 204.484Z" fill="#E6E6E6"/>
</g>
<g style="mix-blend-mode:multiply">
<path d="M372.729 231.222C373.444 231.818 374.476 231.958 375.359 231.49C376.243 231.023 376.709 230.089 376.62 229.164L372.719 231.222H372.729Z" fill="#CCCCCC"/>
</g>
<g style="mix-blend-mode:multiply">
<path d="M374.371 224.513L370.157 226.738L370.393 227.186L374.607 224.961L374.371 224.513Z" fill="#CCCCCC"/>
</g>
<path d="M373.851 230.307C372.918 230.377 372.104 229.671 372.045 228.737C371.975 227.802 372.68 226.987 373.613 226.927C374.545 226.858 375.359 227.564 375.419 228.498C375.488 229.433 374.784 230.248 373.851 230.307Z" fill="#333333"/>
<path d="M373.811 229.86C373.126 229.91 372.531 229.393 372.481 228.707C372.432 228.021 372.948 227.424 373.632 227.375C374.317 227.325 374.913 227.842 374.962 228.528C375.012 229.214 374.496 229.81 373.811 229.86Z" fill="#666666"/>
<path d="M372.868 228.2L373.662 227.673L374.516 228.08L374.585 229.035L373.791 229.572L372.938 229.154L372.868 228.2Z" fill="#333333"/>
<g style="mix-blend-mode:multiply">
<path d="M356.063 182.933L352.182 184.982L363.976 207.399L367.857 205.35L356.063 182.933Z" fill="#CCCCCC"/>
</g>
<path d="M402.85 189.24C397.61 179.905 388.777 172.42 377.453 168.821C377.294 168.771 377.146 168.712 376.997 168.672C353.198 161.375 327.603 173.941 319.813 196.736C319.416 197.899 319.088 199.072 318.8 200.245C319.048 200.325 319.296 200.414 319.555 200.494C324.159 201.905 328.824 202.591 333.409 202.641C341.696 192.64 355.004 186.546 369.663 185.88C376.421 185.572 383.457 186.407 390.424 188.544C393.65 189.538 396.716 190.761 399.604 192.193C401.708 193.237 403.951 191.209 402.85 189.25V189.24Z" fill="#0C5C8E"/>
<g style="mix-blend-mode:multiply">
<path d="M392.528 186.526C385.026 184.22 377.423 183.375 370.119 183.792C354.419 184.697 340.098 191.507 330.997 202.551C331.801 202.601 332.605 202.631 333.399 202.641C341.686 192.64 354.994 186.546 369.653 185.88C376.411 185.572 383.448 186.407 390.414 188.544C393.64 189.538 396.707 190.761 399.595 192.193C401.153 192.968 402.78 192.053 403.078 190.731C402.85 190.682 402.621 190.612 402.393 190.493C399.297 188.932 395.992 187.6 392.518 186.536L392.528 186.526Z" fill="#CCCCCC"/>
</g>
<g style="mix-blend-mode:multiply">
<path d="M381.076 176.237C381.284 176.297 381.483 176.376 381.691 176.436C388.827 178.673 395.258 181.963 400.845 186.029C395.486 178.196 387.437 171.992 377.443 168.811C377.285 168.761 377.136 168.702 376.987 168.662C358.736 163.065 339.443 169.159 327.921 182.58C342.629 173.404 362.13 170.501 381.076 176.227V176.237Z" fill="#CCCCCC"/>
</g>
<path d="M322.492 46.8727H285.335L311.446 86.1204C319.545 104.522 314.126 124.642 312.558 144.684L306.246 225.516H333.786C338.212 225.516 341.984 222.305 342.698 217.93L357.743 125.915C359.47 115.338 357.376 104.482 351.819 95.316L322.482 46.8727H322.492Z" fill="#CCCCCC"/>
<path d="M358.25 116.183C355.659 117.435 352.831 118.111 349.933 118.111H311.714C311.655 117.674 311.575 117.236 311.506 116.799C312.915 125.985 313.282 135.339 312.548 144.674L306.236 225.506H333.776C338.202 225.506 341.974 222.295 342.688 217.921L357.734 125.905C358.26 122.664 358.418 119.403 358.24 116.173L358.25 116.183Z" fill="#1D6AA3"/>
<path d="M322.492 46.8727H285.335L302.614 86.1204C307.119 96.3598 310.176 107.126 311.724 118.121H349.943C352.851 118.121 355.679 117.435 358.269 116.183C357.873 108.856 355.679 101.678 351.829 95.316L322.492 46.8727Z" fill="#F7BA6B"/>
<g style="mix-blend-mode:multiply">
<path d="M357.743 125.915C359.47 115.338 357.376 104.482 351.819 95.316L322.482 46.8727H299.309L340.098 102.026C345.844 109.8 348.325 119.513 347.015 129.096L333.786 225.525C334.064 225.525 334.332 225.516 334.61 225.486C338.401 225.138 341.577 222.444 342.529 218.746C342.599 218.477 342.658 218.209 342.698 217.94L357.743 125.925V125.915Z" fill="#CCCCCC"/>
</g>
<path d="M310.136 58.8518L341.855 101.489C345.388 106.241 351.352 107.921 356.563 106.142C355.471 102.364 353.883 98.7258 351.819 95.316L322.482 46.8727H307.794C306.802 50.8889 307.516 55.3326 310.136 58.8518Z" fill="#CCCCCC"/>
<g style="mix-blend-mode:screen">
<path d="M311.446 57.4798L340.029 95.8925C337.299 85.8818 335.463 76.0698 334.511 66.7052L322.492 46.8627H308.846C308.31 50.5011 309.124 54.3484 311.446 57.4699V57.4798Z" fill="#666666"/>
</g>
<path d="M310.136 58.8517L341.855 101.489C342.083 101.798 342.331 102.096 342.579 102.384C342.668 102.484 342.758 102.573 342.847 102.662C343.016 102.841 343.184 103.02 343.363 103.189C343.472 103.299 343.591 103.398 343.71 103.507C343.869 103.647 344.028 103.786 344.187 103.925C344.326 104.034 344.455 104.134 344.594 104.233C344.743 104.343 344.901 104.462 345.06 104.571C345.209 104.671 345.368 104.77 345.517 104.869C345.666 104.959 345.814 105.048 345.963 105.138C346.132 105.237 346.301 105.327 346.479 105.416C346.618 105.486 346.757 105.555 346.896 105.615C347.085 105.704 347.273 105.794 347.472 105.864C347.591 105.913 347.72 105.963 347.839 106.003C348.057 106.082 348.266 106.162 348.484 106.231C348.583 106.261 348.673 106.291 348.772 106.311C349.02 106.38 349.268 106.45 349.526 106.51C349.566 106.51 349.615 106.53 349.655 106.54C351.918 107.027 354.3 106.907 356.543 106.142C356.503 106.023 356.483 105.903 356.443 105.784C356.384 105.585 356.314 105.396 356.255 105.207C351.471 106.172 346.34 104.392 343.165 100.127L311.446 57.4898C309.124 54.3683 308.31 50.521 308.846 46.8826H307.794C306.802 50.8988 307.516 55.3425 310.136 58.8617V58.8517Z" fill="#4D4D4D"/>
<g style="mix-blend-mode:multiply">
<path d="M327.831 105.585L296.877 46.8727H285.335L302.614 86.1204C307.119 96.3598 310.176 107.126 311.724 118.121C311.665 117.684 311.585 117.246 311.516 116.809C312.806 125.229 313.213 133.788 312.707 142.348C312.697 142.716 312.687 143.083 312.657 143.451L306.246 225.525H319.138L331.206 123.768C331.95 117.505 330.769 111.172 327.831 105.595V105.585Z" fill="#CCCCCC"/>
</g>
<g style="mix-blend-mode:multiply">
<path d="M141.621 197.909C138.623 192.262 132.768 188.723 126.377 188.723L81.9256 188.674H21.2282C17.5959 188.674 14.6583 185.681 14.6583 182.003V151.205H11.7604V184.906C11.7604 188.594 14.698 191.576 18.3303 191.576H79.0277L123.479 191.626C129.87 191.626 135.726 195.165 138.723 200.812L150.672 223.368C151.366 224.69 152.736 225.516 154.225 225.516H333.786L334.163 222.613H157.123C155.634 222.613 154.264 221.788 153.57 220.465L141.621 197.909Z" fill="#CCCCCC"/>
</g>
<path d="M343.006 27.2189C309.511 19.087 36.1048 1.004 7.01652 8.86747C3.52315 9.74229 0.605386 10.7961 0.178639 13.7585C-0.694705 19.8226 1.65737 28.3124 7.06615 36.5636C11.5222 43.3633 17.1592 48.6421 22.5779 51.5847H320.2C323.306 51.5847 326.402 51.0081 329.201 49.8152C338.331 45.9282 345.209 38.5518 347.631 29.6246C346.668 28.2826 345.298 27.7458 343.006 27.2089V27.2189Z" fill="#333333"/>
<g style="mix-blend-mode:screen">
<path d="M7.01653 15.3491C36.1048 7.4757 309.511 25.5686 343.006 33.7005C344.127 33.9689 345.02 34.2274 345.765 34.5853C346.539 33.0046 347.174 31.3544 347.631 29.6346C346.668 28.2925 345.298 27.7557 343.006 27.2189C309.511 19.087 36.1048 1.004 7.01653 8.86747C3.52315 9.74229 0.605388 10.7961 0.17864 13.7585C-0.0893178 15.5778 -0.0496203 17.6256 0.267959 19.8127C0.903119 17.1683 3.70179 16.1643 7.01653 15.3392V15.3491Z" fill="#1A1A1A"/>
</g>
<g style="mix-blend-mode:multiply">
<path d="M329.638 47.0416C326.71 48.2842 323.485 48.8906 320.239 48.8906H18.4097C19.7991 49.9345 21.1984 50.849 22.5779 51.6046H320.2C323.306 51.6046 326.402 51.028 329.201 49.835C338.331 45.948 345.209 38.5717 347.631 29.6445C347.631 29.6445 347.621 29.6346 347.611 29.6246C344.375 37.2893 337.895 43.5423 329.638 47.0515V47.0416Z" fill="#CCCCCC"/>
</g>
<path d="M50.9715 151.205H25.0491V92.5424C25.0491 89.8583 27.2225 87.6812 29.9021 87.6812H34.507C40.2731 87.6812 45.1062 92.0652 45.6719 97.8112L50.9616 151.215L50.9715 151.205Z" fill="#333333"/>
<path d="M237.748 216.221V188.892H172.277C170.868 188.892 169.558 188.196 168.764 187.033L144.31 151.205H11.7604V184.906C11.7604 188.594 14.698 191.576 18.3303 191.576H79.0277L123.479 191.626C129.87 191.626 135.726 195.165 138.723 200.812L150.672 223.368C151.366 224.69 152.736 225.516 154.225 225.516H333.151V216.221H237.748Z" fill="#1D6AA3"/>
<path d="M172.277 188.892C170.868 188.892 169.558 188.196 168.764 187.033L144.31 151.205H11.7604V153.154H142.365L166.819 188.982C167.613 190.145 168.933 190.841 170.332 190.841H237.748V188.892H172.277Z" fill="#F7BA6B"/>
<g style="mix-blend-mode:multiply">
<path d="M11.7604 153.154V184.906C11.7604 188.445 14.4796 191.338 17.9036 191.557V153.154H11.7604Z" fill="#E6E6E6"/>
</g>
<path d="M296.014 122.286L293.771 116.55C293.592 116.093 293.086 115.864 292.63 116.033L288.65 117.505L276.979 121.829C276.513 121.998 276.274 122.515 276.453 122.982L278.587 128.758C278.755 129.225 279.272 129.464 279.738 129.285L292.699 124.483L295.498 123.45C295.964 123.271 296.203 122.754 296.024 122.286H296.014Z" fill="#333333"/>
<path d="M102.598 190.234C81.4393 190.234 64.2801 207.423 64.2801 228.617C64.2801 249.812 81.4393 267 102.598 267C123.757 267 140.916 249.812 140.916 228.617C140.916 207.423 123.757 190.234 102.598 190.234ZM102.598 251.064C90.2224 251.064 80.1988 241.014 80.1988 228.627C80.1988 216.24 90.2323 206.19 102.598 206.19C114.964 206.19 124.997 216.24 124.997 228.627C124.997 241.014 114.964 251.064 102.598 251.064Z" fill="#333333"/>
<path d="M107.1 248.602C118.126 246.119 125.056 235.152 122.577 224.106C120.098 213.061 109.149 206.12 98.1227 208.603C87.0959 211.086 80.1665 222.053 82.6454 233.099C85.1244 244.144 96.0729 251.085 107.1 248.602Z" fill="#CCCCCC"/>
<path d="M102.598 222.424C99.1841 222.424 96.4152 225.197 96.4152 228.617C96.4152 232.037 99.1841 234.811 102.598 234.811C106.012 234.811 108.781 232.037 108.781 228.617C108.781 225.197 106.012 222.424 102.598 222.424Z" fill="#333333"/>
<path d="M102.598 219.014C103.535 219.014 104.295 218.253 104.295 217.314C104.295 216.375 103.535 215.614 102.598 215.614C101.661 215.614 100.901 216.375 100.901 217.314C100.901 218.253 101.661 219.014 102.598 219.014Z" fill="#333333"/>
<path d="M103.839 217.314C103.839 218 103.283 218.557 102.598 218.557C101.913 218.557 101.358 218 101.358 217.314C101.358 216.628 101.913 216.072 102.598 216.072C103.283 216.072 103.839 216.628 103.839 217.314Z" fill="#666666"/>
<path d="M102.122 218.139L101.645 217.314L102.122 216.499H103.064L103.541 217.314L103.064 218.139H102.122Z" fill="#333333"/>
<path d="M102.598 243.658C103.535 243.658 104.295 242.897 104.295 241.958C104.295 241.019 103.535 240.258 102.598 240.258C101.661 240.258 100.901 241.019 100.901 241.958C100.901 242.897 101.661 243.658 102.598 243.658Z" fill="#333333"/>
<path d="M103.839 241.958C103.839 242.644 103.283 243.201 102.598 243.201C101.913 243.201 101.358 242.644 101.358 241.958C101.358 241.272 101.913 240.716 102.598 240.716C103.283 240.716 103.839 241.272 103.839 241.958Z" fill="#666666"/>
<path d="M102.122 242.783L101.645 241.958L102.122 241.133H103.064L103.541 241.958L103.064 242.783H102.122Z" fill="#333333"/>
<path d="M114.894 231.341C115.832 231.341 116.591 230.58 116.591 229.641C116.591 228.703 115.832 227.941 114.894 227.941C113.957 227.941 113.197 228.703 113.197 229.641C113.197 230.58 113.957 231.341 114.894 231.341Z" fill="#333333"/>
<path d="M114.894 230.884C114.21 230.884 113.654 230.327 113.654 229.641C113.654 228.955 114.21 228.399 114.894 228.399C115.579 228.399 116.135 228.955 116.135 229.641C116.135 230.327 115.579 230.884 114.894 230.884Z" fill="#666666"/>
<path d="M114.071 229.164L114.894 228.687L115.718 229.164V230.109L114.894 230.586L114.071 230.109V229.164Z" fill="#333333"/>
<path d="M90.3018 231.341C91.239 231.341 91.9988 230.58 91.9988 229.641C91.9988 228.703 91.239 227.941 90.3018 227.941C89.3645 227.941 88.6047 228.703 88.6047 229.641C88.6047 230.58 89.3645 231.341 90.3018 231.341Z" fill="#333333"/>
<path d="M90.3018 230.884C89.617 230.884 89.0612 230.327 89.0612 229.641C89.0612 228.955 89.617 228.399 90.3018 228.399C90.9866 228.399 91.5423 228.955 91.5423 229.641C91.5423 230.327 90.9866 230.884 90.3018 230.884Z" fill="#666666"/>
<path d="M89.4781 229.164L90.3018 228.687L91.1156 229.164V230.109L90.3018 230.586L89.4781 230.109V229.164Z" fill="#333333"/>
<g style="mix-blend-mode:multiply">
<path d="M102.598 208.128C91.2942 208.128 82.134 217.304 82.134 228.627C82.134 239.95 91.2942 249.126 102.598 249.126C113.902 249.126 123.062 239.95 123.062 228.627C123.062 217.304 113.902 208.128 102.598 208.128ZM102.598 247.446C92.2172 247.446 83.8013 239.016 83.8013 228.617C83.8013 218.219 92.2172 209.789 102.598 209.789C112.979 209.789 121.395 218.219 121.395 228.617C121.395 239.016 112.979 247.446 102.598 247.446Z" fill="#CCCCCC"/>
</g>
<path d="M102.598 190.234C81.4393 190.234 64.2801 207.423 64.2801 228.617C64.2801 249.812 81.4393 267 102.598 267C123.757 267 140.916 249.812 140.916 228.617C140.916 207.423 123.757 190.234 102.598 190.234ZM102.598 251.064C90.2224 251.064 80.1988 241.014 80.1988 228.627C80.1988 216.24 90.2323 206.19 102.598 206.19C114.964 206.19 124.997 216.24 124.997 228.627C124.997 241.014 114.964 251.064 102.598 251.064Z" fill="#333333"/>
<g style="mix-blend-mode:multiply">
<path d="M102.598 190.234C81.4393 190.234 64.2801 207.423 64.2801 228.617C64.2801 249.812 81.4393 267 102.598 267C123.757 267 140.916 249.812 140.916 228.617C140.916 207.423 123.757 190.234 102.598 190.234ZM102.598 262.278C84.0395 262.278 68.9942 247.207 68.9942 228.617C68.9942 210.027 84.0395 194.956 102.598 194.956C121.157 194.956 136.202 210.027 136.202 228.617C136.202 247.207 121.157 262.278 102.598 262.278Z" fill="#CCCCCC"/>
</g>
<g style="mix-blend-mode:multiply">
<path d="M102.598 218.984C97.2885 218.984 92.9814 223.299 92.9814 228.617C92.9814 233.936 97.2885 238.25 102.598 238.25C107.908 238.25 112.215 233.936 112.215 228.617C112.215 223.299 107.908 218.984 102.598 218.984ZM102.598 236.858C98.0527 236.858 94.3708 233.17 94.3708 228.617C94.3708 224.064 98.0527 220.376 102.598 220.376C107.143 220.376 110.825 224.064 110.825 228.617C110.825 233.17 107.143 236.858 102.598 236.858Z" fill="#E6E6E6"/>
</g>
<g style="mix-blend-mode:multiply">
<path d="M102.082 190.533C101.754 190.612 101.556 190.98 101.645 191.348L102.241 193.913C102.33 194.29 102.668 194.529 102.995 194.449C103.323 194.37 103.521 194.002 103.432 193.634L102.836 191.069C102.747 190.692 102.409 190.453 102.082 190.533Z" fill="#CCCCCC"/>
</g>
<g style="mix-blend-mode:multiply">
<path d="M108.692 191.02C108.354 191.04 108.096 191.368 108.116 191.745L108.255 194.37C108.275 194.758 108.563 195.056 108.9 195.036C109.237 195.016 109.495 194.688 109.476 194.31L109.337 191.686C109.317 191.298 109.029 191 108.692 191.02Z" fill="#CCCCCC"/>
</g>
<g style="mix-blend-mode:multiply">
<path d="M115.113 192.66C114.775 192.62 114.468 192.899 114.418 193.276L114.1 195.891C114.051 196.269 114.289 196.617 114.626 196.656C114.964 196.696 115.271 196.418 115.321 196.04L115.639 193.426C115.688 193.038 115.45 192.7 115.113 192.66Z" fill="#CCCCCC"/>
</g>
<g style="mix-blend-mode:multiply">
<path d="M121.157 195.384C120.829 195.284 120.482 195.503 120.363 195.871L119.598 198.386C119.489 198.754 119.658 199.132 119.986 199.231C120.313 199.331 120.66 199.112 120.779 198.744L121.544 196.229C121.653 195.861 121.484 195.483 121.157 195.384Z" fill="#CCCCCC"/>
</g>
<g style="mix-blend-mode:multiply">
<path d="M126.645 199.112C126.347 198.963 125.96 199.112 125.781 199.46L124.59 201.806C124.412 202.154 124.521 202.551 124.819 202.71C125.116 202.86 125.503 202.71 125.682 202.363L126.873 200.016C127.052 199.668 126.943 199.271 126.645 199.112Z" fill="#CCCCCC"/>
</g>
<g style="mix-blend-mode:multiply">
<path d="M131.389 203.744C131.121 203.546 130.714 203.625 130.476 203.933L128.898 206.041C128.669 206.349 128.699 206.767 128.967 206.965C129.235 207.164 129.642 207.085 129.88 206.776L131.458 204.669C131.686 204.361 131.657 203.943 131.389 203.744Z" fill="#CCCCCC"/>
</g>
<g style="mix-blend-mode:multiply">
<path d="M135.269 209.133C135.041 208.884 134.624 208.894 134.346 209.162L132.431 210.962C132.153 211.23 132.113 211.638 132.341 211.886C132.57 212.135 132.986 212.125 133.264 211.856L135.18 210.057C135.458 209.789 135.497 209.381 135.269 209.133Z" fill="#CCCCCC"/>
</g>
<g style="mix-blend-mode:multiply">
<path d="M138.147 215.107C137.959 214.819 137.552 214.759 137.224 214.978L135.021 216.419C134.703 216.628 134.584 217.036 134.773 217.314C134.961 217.593 135.368 217.662 135.696 217.443L137.899 216.002C138.217 215.793 138.336 215.386 138.147 215.107Z" fill="#CCCCCC"/>
</g>
<g style="mix-blend-mode:multiply">
<path d="M139.943 221.499C139.814 221.191 139.417 221.062 139.06 221.211L136.649 222.245C136.291 222.394 136.113 222.772 136.252 223.08C136.381 223.388 136.778 223.517 137.135 223.368L139.546 222.334C139.904 222.185 140.082 221.808 139.943 221.499Z" fill="#CCCCCC"/>
</g>
<g style="mix-blend-mode:multiply">
<path d="M140.618 228.1C140.539 227.772 140.172 227.573 139.804 227.663L137.244 228.259C136.867 228.349 136.629 228.687 136.708 229.015C136.787 229.343 137.155 229.542 137.522 229.452L140.082 228.856C140.459 228.766 140.698 228.428 140.618 228.1Z" fill="#CCCCCC"/>
</g>
<g style="mix-blend-mode:multiply">
<path d="M140.122 234.731C140.102 234.393 139.775 234.135 139.398 234.154L136.778 234.294C136.391 234.313 136.093 234.602 136.113 234.95C136.132 235.298 136.46 235.546 136.837 235.526L139.457 235.387C139.844 235.367 140.142 235.079 140.122 234.731Z" fill="#CCCCCC"/>
</g>
<g style="mix-blend-mode:multiply">
<path d="M138.494 241.163C138.534 240.825 138.256 240.517 137.879 240.467L135.269 240.149C134.892 240.099 134.545 240.338 134.505 240.676C134.465 241.014 134.743 241.322 135.12 241.372L137.73 241.69C138.107 241.739 138.455 241.501 138.494 241.163Z" fill="#CCCCCC"/>
</g>
<g style="mix-blend-mode:multiply">
<path d="M135.775 247.217C135.874 246.889 135.656 246.541 135.289 246.422L132.778 245.656C132.411 245.547 132.034 245.716 131.934 246.044C131.835 246.372 132.054 246.72 132.421 246.839L134.932 247.605C135.299 247.714 135.676 247.545 135.775 247.217Z" fill="#CCCCCC"/>
</g>
<g style="mix-blend-mode:multiply">
<path d="M132.054 252.705C132.202 252.406 132.054 252.019 131.706 251.84L129.364 250.647C129.017 250.468 128.62 250.577 128.461 250.875C128.312 251.174 128.461 251.561 128.808 251.74L131.15 252.933C131.498 253.112 131.895 253.003 132.054 252.705Z" fill="#CCCCCC"/>
</g>
<g style="mix-blend-mode:multiply">
<path d="M127.429 257.467C127.627 257.198 127.548 256.791 127.24 256.552L125.136 254.971C124.829 254.743 124.412 254.772 124.213 255.041C124.015 255.309 124.094 255.717 124.402 255.956L126.506 257.536C126.814 257.765 127.23 257.735 127.429 257.467Z" fill="#CCCCCC"/>
</g>
<g style="mix-blend-mode:multiply">
<path d="M122.05 261.344C122.298 261.115 122.288 260.697 122.02 260.419L120.224 258.5C119.966 258.222 119.549 258.182 119.301 258.411C119.053 258.64 119.063 259.057 119.331 259.335L121.127 261.254C121.385 261.532 121.802 261.572 122.05 261.344Z" fill="#CCCCCC"/>
</g>
<g style="mix-blend-mode:multiply">
<path d="M116.075 264.227C116.363 264.038 116.423 263.63 116.204 263.302L114.765 261.095C114.557 260.777 114.15 260.658 113.872 260.847C113.594 261.035 113.525 261.443 113.743 261.771L115.182 263.978C115.391 264.296 115.797 264.415 116.075 264.227Z" fill="#CCCCCC"/>
</g>
<g style="mix-blend-mode:multiply">
<path d="M109.704 266.036C110.012 265.907 110.141 265.509 109.992 265.151L108.96 262.735C108.811 262.378 108.434 262.199 108.126 262.338C107.818 262.467 107.689 262.865 107.838 263.223L108.87 265.638C109.019 265.996 109.396 266.175 109.704 266.036Z" fill="#CCCCCC"/>
</g>
<g style="mix-blend-mode:multiply">
<path d="M103.104 266.702C103.432 266.622 103.63 266.255 103.541 265.887L102.945 263.322C102.856 262.944 102.519 262.706 102.191 262.785C101.864 262.865 101.665 263.232 101.754 263.6L102.35 266.165C102.439 266.543 102.777 266.781 103.104 266.702Z" fill="#CCCCCC"/>
</g>
<g style="mix-blend-mode:multiply">
<path d="M96.4946 266.215C96.832 266.195 97.09 265.867 97.0702 265.489L96.9312 262.865C96.9114 262.477 96.6236 262.179 96.2862 262.198C95.9487 262.218 95.6907 262.546 95.7106 262.924L95.8495 265.549C95.8693 265.936 96.1572 266.235 96.4946 266.215Z" fill="#CCCCCC"/>
</g>
<g style="mix-blend-mode:multiply">
<path d="M90.0735 264.584C90.4109 264.624 90.7186 264.346 90.7682 263.968L91.0858 261.353C91.1354 260.966 90.8972 260.628 90.5598 260.588C90.2224 260.548 89.9147 260.827 89.8651 261.204L89.5475 263.819C89.4979 264.207 89.7361 264.545 90.0735 264.584Z" fill="#CCCCCC"/>
</g>
<g style="mix-blend-mode:multiply">
<path d="M84.0296 261.86C84.3571 261.96 84.7044 261.741 84.8235 261.373L85.5877 258.858C85.6969 258.49 85.5282 258.113 85.2007 258.013C84.8731 257.914 84.5258 258.133 84.4067 258.5L83.6425 261.015C83.5334 261.383 83.7021 261.761 84.0296 261.86Z" fill="#CCCCCC"/>
</g>
<g style="mix-blend-mode:multiply">
<path d="M78.5513 258.123C78.8491 258.272 79.2361 258.123 79.4147 257.775L80.6057 255.429C80.7843 255.081 80.6751 254.683 80.3774 254.524C80.0797 254.365 79.6926 254.524 79.514 254.872L78.3231 257.218C78.1444 257.566 78.2536 257.964 78.5513 258.123Z" fill="#CCCCCC"/>
</g>
<g style="mix-blend-mode:multiply">
<path d="M73.7976 253.49C74.0655 253.689 74.4724 253.609 74.7106 253.301L76.2886 251.194C76.5168 250.885 76.4871 250.468 76.2191 250.269C75.9512 250.07 75.5442 250.15 75.3061 250.458L73.7281 252.565C73.4998 252.874 73.5296 253.291 73.7976 253.49Z" fill="#CCCCCC"/>
</g>
<g style="mix-blend-mode:multiply">
<path d="M69.9271 248.102C70.1553 248.35 70.5721 248.34 70.85 248.072L72.7654 246.273C73.0433 246.004 73.083 245.597 72.8548 245.348C72.6265 245.1 72.2097 245.11 71.9318 245.378L70.0164 247.177C69.7385 247.446 69.6988 247.853 69.9271 248.102Z" fill="#CCCCCC"/>
</g>
<g style="mix-blend-mode:multiply">
<path d="M67.0391 242.127C67.2276 242.416 67.6345 242.475 67.962 242.257L70.1652 240.815C70.4828 240.606 70.6019 240.199 70.4134 239.92C70.2248 239.632 69.8179 239.573 69.4904 239.791L67.2872 241.233C66.9696 241.441 66.8505 241.849 67.0391 242.127Z" fill="#CCCCCC"/>
</g>
<g style="mix-blend-mode:multiply">
<path d="M65.2428 235.735C65.3718 236.043 65.7688 236.173 66.126 236.023L68.5377 234.99C68.8949 234.84 69.0736 234.463 68.9346 234.154C68.7957 233.846 68.4086 233.717 68.0514 233.866L65.6397 234.9C65.2825 235.049 65.1038 235.427 65.2428 235.735Z" fill="#CCCCCC"/>
</g>
<g style="mix-blend-mode:multiply">
<path d="M64.5778 229.134C64.6572 229.462 65.0244 229.661 65.3916 229.572L67.9521 228.975C68.3292 228.886 68.5674 228.548 68.488 228.22C68.4086 227.892 68.0414 227.693 67.6742 227.782L65.1137 228.379C64.7366 228.468 64.4984 228.806 64.5778 229.134Z" fill="#CCCCCC"/>
</g>
<g style="mix-blend-mode:multiply">
<path d="M65.0641 222.513C65.084 222.851 65.4115 223.11 65.7886 223.09L68.4086 222.951C68.7957 222.931 69.0934 222.643 69.0736 222.295C69.0537 221.957 68.7262 221.698 68.3491 221.718L65.7291 221.857C65.342 221.877 65.0443 222.165 65.0641 222.513Z" fill="#CCCCCC"/>
</g>
<g style="mix-blend-mode:multiply">
<path d="M66.6917 216.072C66.652 216.41 66.9299 216.718 67.307 216.767L69.9171 217.086C70.2943 217.135 70.6416 216.897 70.6813 216.559C70.721 216.221 70.4431 215.912 70.066 215.863L67.4559 215.545C67.0788 215.495 66.7314 215.734 66.6917 216.072Z" fill="#CCCCCC"/>
</g>
<g style="mix-blend-mode:multiply">
<path d="M69.411 210.017C69.3118 210.345 69.5301 210.693 69.8973 210.813L72.4081 211.578C72.7754 211.687 73.1525 211.518 73.2517 211.19C73.351 210.862 73.1326 210.514 72.7654 210.395L70.2546 209.63C69.8874 209.52 69.5102 209.689 69.411 210.017Z" fill="#CCCCCC"/>
</g>
<g style="mix-blend-mode:multiply">
<path d="M73.1426 204.53C72.9937 204.828 73.1426 205.216 73.4899 205.395L75.8321 206.588C76.1794 206.767 76.5764 206.657 76.7352 206.359C76.884 206.061 76.7352 205.673 76.3878 205.494L74.0457 204.301C73.6983 204.122 73.3013 204.232 73.1426 204.53Z" fill="#CCCCCC"/>
</g>
<g style="mix-blend-mode:multiply">
<path d="M77.7673 199.778C77.5688 200.046 77.6482 200.454 77.9559 200.693L80.0598 202.273C80.3675 202.502 80.7843 202.472 80.9828 202.204C81.1813 201.935 81.1019 201.528 80.7942 201.289L78.6903 199.708C78.3826 199.48 77.9658 199.51 77.7673 199.778Z" fill="#CCCCCC"/>
</g>
<g style="mix-blend-mode:multiply">
<path d="M83.1364 195.891C82.8883 196.12 82.8982 196.537 83.1662 196.815L84.9625 198.734C85.2205 199.012 85.6373 199.052 85.8854 198.824C86.1335 198.595 86.1236 198.177 85.8557 197.899L84.0594 195.98C83.8013 195.702 83.3845 195.662 83.1364 195.891Z" fill="#CCCCCC"/>
</g>
<g style="mix-blend-mode:multiply">
<path d="M89.1108 193.008C88.823 193.197 88.7635 193.604 88.9818 193.933L90.4209 196.139C90.6293 196.458 91.0362 196.577 91.3141 196.388C91.6019 196.199 91.6614 195.792 91.4431 195.463L90.004 193.257C89.7956 192.938 89.3887 192.819 89.1108 193.008Z" fill="#CCCCCC"/>
</g>
<g style="mix-blend-mode:multiply">
<path d="M95.4922 191.199C95.1846 191.328 95.0556 191.725 95.2044 192.083L96.2366 194.499C96.3854 194.857 96.7625 195.036 97.0702 194.897C97.3779 194.767 97.5069 194.37 97.358 194.012L96.3259 191.596C96.177 191.238 95.7999 191.059 95.4922 191.199Z" fill="#CCCCCC"/>
</g>
<g style="mix-blend-mode:multiply">
<path d="M105.556 190.642C105.218 190.692 104.99 191.04 105.039 191.417L105.397 194.022C105.446 194.4 105.764 194.678 106.101 194.628C106.439 194.579 106.667 194.231 106.617 193.853L106.26 191.248C106.211 190.871 105.893 190.592 105.556 190.642Z" fill="#CCCCCC"/>
</g>
<g style="mix-blend-mode:multiply">
<path d="M112.096 191.736C111.758 191.726 111.47 192.024 111.461 192.412L111.361 195.036C111.351 195.424 111.609 195.742 111.947 195.752C112.284 195.762 112.572 195.464 112.582 195.076L112.681 192.451C112.691 192.064 112.433 191.746 112.096 191.736Z" fill="#CCCCCC"/>
</g>
<g style="mix-blend-mode:multiply">
<path d="M118.338 193.952C118.011 193.883 117.673 194.131 117.594 194.509L117.038 197.084C116.959 197.462 117.157 197.819 117.495 197.899C117.832 197.979 118.159 197.72 118.239 197.342L118.795 194.768C118.874 194.39 118.676 194.032 118.338 193.952Z" fill="#CCCCCC"/>
</g>
<g style="mix-blend-mode:multiply">
<path d="M124.114 197.213C123.797 197.084 123.429 197.273 123.28 197.631L122.288 200.066C122.139 200.424 122.288 200.812 122.596 200.941C122.903 201.07 123.28 200.881 123.429 200.524L124.422 198.088C124.571 197.73 124.422 197.342 124.114 197.213Z" fill="#CCCCCC"/>
</g>
<g style="mix-blend-mode:multiply">
<path d="M129.225 201.438C128.937 201.259 128.54 201.378 128.332 201.707L126.933 203.933C126.724 204.261 126.794 204.669 127.081 204.848C127.369 205.027 127.766 204.908 127.975 204.58L129.374 202.353C129.582 202.025 129.513 201.617 129.225 201.438Z" fill="#CCCCCC"/>
</g>
<g style="mix-blend-mode:multiply">
<path d="M133.532 206.478C133.284 206.25 132.867 206.299 132.609 206.588L130.853 208.536C130.595 208.824 130.585 209.242 130.843 209.471C131.091 209.699 131.508 209.649 131.766 209.361L133.522 207.413C133.78 207.124 133.79 206.707 133.532 206.478Z" fill="#CCCCCC"/>
</g>
<g style="mix-blend-mode:multiply">
<path d="M136.907 212.204C136.698 211.936 136.281 211.916 135.984 212.145L133.909 213.755C133.602 213.994 133.532 214.401 133.741 214.67C133.949 214.938 134.366 214.958 134.664 214.73L136.738 213.119C137.046 212.88 137.115 212.473 136.907 212.204Z" fill="#CCCCCC"/>
</g>
<g style="mix-blend-mode:multiply">
<path d="M139.229 218.418C139.07 218.119 138.663 218.02 138.326 218.199L136.003 219.432C135.666 219.611 135.517 219.998 135.676 220.297C135.835 220.595 136.242 220.694 136.579 220.515L138.901 219.283C139.239 219.104 139.388 218.716 139.229 218.418Z" fill="#CCCCCC"/>
</g>
<g style="mix-blend-mode:multiply">
<path d="M140.44 224.949C140.34 224.631 139.953 224.462 139.586 224.581L137.085 225.386C136.718 225.506 136.51 225.863 136.609 226.182C136.708 226.5 137.095 226.669 137.462 226.549L139.963 225.744C140.33 225.625 140.539 225.267 140.44 224.949Z" fill="#CCCCCC"/>
</g>
<g style="mix-blend-mode:multiply">
<path d="M140.499 231.58C140.45 231.242 140.102 231.013 139.725 231.063L137.125 231.421C136.748 231.47 136.47 231.788 136.52 232.126C136.569 232.464 136.917 232.693 137.294 232.643L139.894 232.285C140.271 232.236 140.549 231.918 140.499 231.58Z" fill="#CCCCCC"/>
</g>
<g style="mix-blend-mode:multiply">
<path d="M139.417 238.131C139.427 237.793 139.13 237.505 138.743 237.495L136.123 237.395C135.736 237.385 135.418 237.644 135.408 237.982C135.398 238.32 135.696 238.608 136.083 238.618L138.703 238.717C139.09 238.727 139.408 238.469 139.417 238.131Z" fill="#CCCCCC"/>
</g>
<g style="mix-blend-mode:multiply">
<path d="M137.204 244.394C137.274 244.066 137.026 243.728 136.649 243.648L134.078 243.092C133.701 243.012 133.344 243.211 133.264 243.549C133.185 243.887 133.443 244.215 133.82 244.295L136.391 244.851C136.768 244.931 137.125 244.732 137.204 244.394Z" fill="#CCCCCC"/>
</g>
<g style="mix-blend-mode:multiply">
<path d="M133.939 250.17C134.068 249.852 133.88 249.484 133.522 249.335L131.091 248.341C130.734 248.191 130.347 248.341 130.218 248.649C130.089 248.967 130.277 249.335 130.634 249.484L133.066 250.478C133.423 250.627 133.81 250.478 133.939 250.17Z" fill="#CCCCCC"/>
</g>
<g style="mix-blend-mode:multiply">
<path d="M129.731 255.299C129.91 255.011 129.791 254.613 129.463 254.405L127.24 253.003C126.913 252.794 126.506 252.864 126.327 253.152C126.149 253.44 126.268 253.838 126.595 254.047L128.818 255.448C129.146 255.657 129.553 255.588 129.731 255.299Z" fill="#CCCCCC"/>
</g>
<g style="mix-blend-mode:multiply">
<path d="M124.69 259.614C124.918 259.365 124.868 258.948 124.581 258.689L122.635 256.93C122.348 256.671 121.931 256.661 121.702 256.92C121.474 257.168 121.524 257.586 121.812 257.844L123.757 259.604C124.045 259.862 124.461 259.872 124.69 259.614Z" fill="#CCCCCC"/>
</g>
<g style="mix-blend-mode:multiply">
<path d="M118.983 262.984C119.251 262.775 119.271 262.358 119.043 262.059L117.435 259.982C117.197 259.674 116.79 259.604 116.522 259.813C116.254 260.022 116.234 260.439 116.462 260.737L118.07 262.815C118.308 263.123 118.715 263.193 118.983 262.994V262.984Z" fill="#CCCCCC"/>
</g>
<g style="mix-blend-mode:multiply">
<path d="M112.78 265.31C113.078 265.151 113.177 264.743 112.999 264.405L111.768 262.079C111.59 261.741 111.202 261.592 110.905 261.751C110.607 261.91 110.508 262.318 110.686 262.656L111.917 264.982C112.096 265.32 112.483 265.469 112.78 265.31Z" fill="#CCCCCC"/>
</g>
<g style="mix-blend-mode:multiply">
<path d="M106.26 266.533C106.578 266.433 106.746 266.046 106.627 265.678L105.823 263.173C105.704 262.805 105.347 262.596 105.03 262.696C104.712 262.795 104.543 263.183 104.662 263.551L105.466 266.056C105.585 266.424 105.943 266.632 106.26 266.533Z" fill="#CCCCCC"/>
</g>
<g style="mix-blend-mode:multiply">
<path d="M99.6307 266.593C99.9681 266.543 100.196 266.195 100.147 265.817L99.7895 263.212C99.7399 262.835 99.4223 262.556 99.0848 262.606C98.7474 262.656 98.5192 263.004 98.5688 263.382L98.9261 265.986C98.9757 266.364 99.2933 266.642 99.6307 266.593Z" fill="#CCCCCC"/>
</g>
<g style="mix-blend-mode:multiply">
<path d="M93.1004 265.499C93.4379 265.509 93.7257 265.211 93.7356 264.823L93.8349 262.198C93.8448 261.811 93.5867 261.493 93.2493 261.483C92.9119 261.473 92.6241 261.771 92.6142 262.159L92.5149 264.783C92.505 265.171 92.763 265.489 93.1004 265.499Z" fill="#CCCCCC"/>
</g>
<g style="mix-blend-mode:multiply">
<path d="M86.8481 263.282C87.1756 263.352 87.513 263.103 87.5924 262.725L88.1482 260.151C88.2276 259.773 88.0291 259.415 87.6917 259.335C87.3642 259.266 87.0267 259.514 86.9473 259.892L86.3916 262.467C86.3122 262.845 86.5107 263.203 86.8481 263.282Z" fill="#CCCCCC"/>
</g>
<g style="mix-blend-mode:multiply">
<path d="M81.082 260.021C81.3996 260.151 81.7668 259.962 81.9157 259.604L82.9081 257.168C83.057 256.81 82.9081 256.423 82.6005 256.293C82.2829 256.164 81.9157 256.353 81.7668 256.711L80.7744 259.147C80.6255 259.504 80.7744 259.892 81.082 260.021Z" fill="#CCCCCC"/>
</g>
<g style="mix-blend-mode:multiply">
<path d="M75.9611 255.806C76.2489 255.985 76.6459 255.866 76.8543 255.538L78.2536 253.311C78.462 252.983 78.3925 252.576 78.1047 252.397C77.8169 252.218 77.42 252.337 77.2115 252.665L75.8122 254.892C75.6038 255.22 75.6733 255.627 75.9611 255.806Z" fill="#CCCCCC"/>
</g>
<g style="mix-blend-mode:multiply">
<path d="M71.6539 250.756C71.902 250.985 72.3188 250.935 72.5769 250.647L74.3335 248.698C74.5915 248.41 74.6014 247.993 74.3434 247.764C74.0953 247.535 73.6785 247.585 73.4204 247.873L71.6638 249.822C71.4058 250.11 71.3959 250.528 71.6539 250.756Z" fill="#CCCCCC"/>
</g>
<g style="mix-blend-mode:multiply">
<path d="M68.2895 245.04C68.4979 245.308 68.9148 245.328 69.2125 245.1L71.2867 243.489C71.5944 243.251 71.6638 242.843 71.4554 242.575C71.247 242.306 70.8302 242.286 70.5324 242.515L68.4583 244.125C68.1506 244.364 68.0811 244.772 68.2796 245.04H68.2895Z" fill="#CCCCCC"/>
</g>
<g style="mix-blend-mode:multiply">
<path d="M65.9573 238.817C66.1161 239.115 66.523 239.214 66.8604 239.036L69.1827 237.803C69.5202 237.624 69.669 237.236 69.5102 236.938C69.3514 236.64 68.9445 236.54 68.6071 236.719L66.2848 237.952C65.9474 238.131 65.7985 238.519 65.9573 238.817Z" fill="#CCCCCC"/>
</g>
<g style="mix-blend-mode:multiply">
<path d="M64.7465 232.295C64.8458 232.613 65.2328 232.782 65.6 232.663L68.101 231.858C68.4682 231.739 68.6766 231.381 68.5773 231.063C68.4781 230.745 68.0911 230.576 67.7239 230.695L65.2229 231.5C64.8557 231.619 64.6473 231.977 64.7465 232.295Z" fill="#CCCCCC"/>
</g>
<g style="mix-blend-mode:multiply">
<path d="M64.687 225.655C64.7366 225.993 65.084 226.221 65.4611 226.172L68.0613 225.814C68.4384 225.764 68.7163 225.446 68.6667 225.108C68.6171 224.77 68.2697 224.541 67.8926 224.591L65.2924 224.949C64.9153 224.999 64.6374 225.317 64.687 225.655Z" fill="#CCCCCC"/>
</g>
<g style="mix-blend-mode:multiply">
<path d="M65.7787 219.104C65.7688 219.442 66.0665 219.73 66.4535 219.74L69.0736 219.839C69.4606 219.849 69.7782 219.591 69.7881 219.253C69.798 218.915 69.5003 218.626 69.1133 218.617L66.4932 218.517C66.1062 218.507 65.7886 218.766 65.7787 219.104Z" fill="#CCCCCC"/>
</g>
<g style="mix-blend-mode:multiply">
<path d="M67.9819 212.84C67.9124 213.169 68.1605 213.507 68.5376 213.586L71.1081 214.143C71.4852 214.222 71.8425 214.023 71.9219 213.685C72.0012 213.347 71.7432 213.019 71.3661 212.94L68.7957 212.383C68.4186 212.304 68.0613 212.502 67.9819 212.84Z" fill="#CCCCCC"/>
</g>
<g style="mix-blend-mode:multiply">
<path d="M71.247 207.065C71.118 207.383 71.3065 207.751 71.6638 207.9L74.0953 208.894C74.4526 209.043 74.8396 208.894 74.9686 208.586C75.0977 208.268 74.9091 207.9 74.5518 207.751L72.1203 206.757C71.7631 206.607 71.376 206.757 71.247 207.065Z" fill="#CCCCCC"/>
</g>
<g style="mix-blend-mode:multiply">
<path d="M75.4549 201.935C75.2763 202.223 75.3954 202.621 75.7229 202.83L77.9459 204.232C78.2734 204.44 78.6803 204.371 78.859 204.082C79.0376 203.794 78.9185 203.397 78.591 203.188L76.368 201.786C76.0405 201.577 75.6336 201.647 75.4549 201.935Z" fill="#CCCCCC"/>
</g>
<g style="mix-blend-mode:multiply">
<path d="M80.4965 197.621C80.2682 197.869 80.3179 198.287 80.6057 198.545L82.5509 200.305C82.8387 200.563 83.2555 200.573 83.4837 200.315C83.712 200.066 83.6624 199.649 83.3746 199.39L81.4294 197.631C81.1416 197.372 80.7248 197.362 80.4965 197.621Z" fill="#CCCCCC"/>
</g>
<g style="mix-blend-mode:multiply">
<path d="M86.203 194.251C85.9351 194.459 85.9152 194.877 86.1435 195.175L87.7512 197.253C87.9894 197.561 88.3963 197.631 88.6643 197.432C88.9322 197.223 88.9521 196.805 88.7238 196.507L87.1161 194.429C86.8779 194.121 86.471 194.052 86.203 194.26V194.251Z" fill="#CCCCCC"/>
</g>
<g style="mix-blend-mode:multiply">
<path d="M92.4057 191.924C92.108 192.083 92.0088 192.491 92.1874 192.829L93.418 195.155C93.5967 195.493 93.9837 195.642 94.2814 195.483C94.5792 195.324 94.6784 194.917 94.4998 194.579L93.2692 192.252C93.0905 191.914 92.7035 191.765 92.4057 191.924Z" fill="#CCCCCC"/>
</g>
<g style="mix-blend-mode:multiply">
<path d="M98.9261 190.711C98.6085 190.811 98.4398 191.199 98.5588 191.566L99.3627 194.072C99.4818 194.439 99.8391 194.648 100.157 194.549C100.474 194.449 100.643 194.062 100.524 193.694L99.72 191.189C99.6009 190.821 99.2436 190.612 98.9261 190.711Z" fill="#CCCCCC"/>
</g>
<path d="M105.585 175.839C88.5352 174.845 72.7754 183.604 62.0372 198.068C59.4668 201.527 61.8189 206.468 66.1161 206.727C67.5353 206.806 68.9545 206.349 70.1256 205.335C79.8614 196.895 91.8698 192.193 104.593 192.938C117.147 193.674 128.382 199.579 137.026 208.874C138.316 210.256 139.963 211.041 141.7 211.151L150.453 211.658C142.325 191.358 125.633 177.013 105.585 175.839Z" fill="#0C5C8E"/>
<g style="mix-blend-mode:multiply">
<path d="M104.801 189.339C89.7659 188.465 75.7427 195.165 65.2725 206.677L66.1161 206.727C67.5353 206.806 68.9545 206.349 70.1255 205.335C79.8614 196.895 91.8698 192.193 104.593 192.938C117.147 193.674 128.382 199.579 137.026 208.874C138.316 210.256 139.963 211.041 141.7 211.15L142.047 211.17C132.986 198.515 119.827 190.224 104.801 189.349V189.339Z" fill="#CCCCCC"/>
</g>
<path d="M8.24715 162.866V177.142C8.24715 179.428 9.80527 181.347 11.9092 181.923V158.084C9.80527 158.671 8.24715 160.58 8.24715 162.866Z" fill="#C1272D"/>
<path d="M8.24715 162.866V165.689H11.9092V158.084C9.80527 158.671 8.24715 160.58 8.24715 162.866Z" fill="#FBB03B"/>
<path d="M145.134 132.804H17.1294V135.2H145.134V132.804Z" fill="#E6E6E6"/>
<g style="mix-blend-mode:multiply">
<path d="M145.134 132.804H17.1294V133.629H145.134V132.804Z" fill="#CCCCCC"/>
</g>
<path d="M141.998 148.789H19.8686C17.9135 148.789 16.3256 147.04 16.3256 144.883V124.523C16.3256 122.366 17.9135 120.616 19.8686 120.616H141.998C143.953 120.616 145.541 122.366 145.541 124.523V144.883C145.541 147.04 143.953 148.789 141.998 148.789ZM19.8686 122.416C18.8166 122.416 17.9532 123.36 17.9532 124.523V144.883C17.9532 146.046 18.8166 146.99 19.8686 146.99H141.998C143.05 146.99 143.913 146.046 143.913 144.883V124.523C143.913 123.36 143.05 122.416 141.998 122.416H19.8686Z" fill="#E6E6E6"/>
<g style="mix-blend-mode:multiply">
<path d="M18.3601 123.231C17.9135 123.618 17.6157 124.215 17.6157 124.881V145.24C17.6157 146.404 18.4792 147.348 19.5311 147.348H141.66C142.276 147.348 142.812 147.02 143.159 146.533C142.831 146.811 142.425 146.99 141.988 146.99H19.8686C18.8166 146.99 17.9532 146.046 17.9532 144.883V124.523C17.9532 124.036 18.112 123.589 18.37 123.231H18.3601Z" fill="#CCCCCC"/>
<path d="M141.998 120.616H19.8686C18.8067 120.616 17.8639 121.143 17.2088 121.958C17.8341 121.352 18.638 120.974 19.5311 120.974H141.66C143.615 120.974 145.203 122.724 145.203 124.881V145.24C145.203 146.225 144.856 147.119 144.31 147.805C145.054 147.09 145.531 146.046 145.531 144.883V124.523C145.531 122.366 143.943 120.616 141.988 120.616H141.998Z" fill="#CCCCCC"/>
</g>
<path d="M11.3038 182.281C9.94421 182.281 8.84261 183.405 8.84261 184.786V194.946C8.84261 196.328 9.94421 197.451 11.3038 197.451H56.6979C61.6501 197.451 65.6695 193.376 65.6695 188.335V182.281H11.3038Z" fill="#CCCCCC"/>
<g style="mix-blend-mode:multiply">
<path d="M65.6695 182.281H11.3039C10.4404 182.281 9.67625 182.739 9.23958 183.424H65.6695V182.281Z" fill="#CCCCCC"/>
<path d="M11.3039 197.442H56.6979C58.3255 197.442 59.8439 196.994 61.1539 196.229H9.19989C9.63656 196.954 10.4107 197.442 11.3039 197.442Z" fill="#CCCCCC"/>
</g>
<path d="M364.929 138.789C366.244 138.789 367.311 131.881 367.311 123.36C367.311 114.839 366.244 107.931 364.929 107.931C363.613 107.931 362.547 114.839 362.547 123.36C362.547 131.881 363.613 138.789 364.929 138.789Z" fill="#E6E6E6"/>
<path d="M364.77 107.931H354.21C352.622 110.228 351.392 113.061 350.628 116.252C350.072 118.588 349.744 121.103 349.744 123.738C349.744 126.929 350.201 129.951 351.015 132.685C351.689 134.961 352.603 137.019 353.714 138.798H364.77C363.609 137.735 362.725 131.243 362.725 123.37C362.725 115.496 363.619 108.995 364.77 107.941V107.931Z" fill="#1D6AA3"/>
<g style="mix-blend-mode:multiply">
<path d="M351.293 124.583C351.293 120.169 351.898 115.964 352.96 112.047C353.347 110.625 353.794 109.254 354.3 107.921H354.2C352.613 110.218 351.382 113.051 350.618 116.242C350.062 118.578 349.735 121.093 349.735 123.728C349.735 126.919 350.191 129.941 351.005 132.675C351.561 134.544 352.275 136.254 353.139 137.795C351.958 133.699 351.293 129.245 351.293 124.583Z" fill="#CCCCCC"/>
</g>
<g style="mix-blend-mode:multiply">
<path d="M364.77 107.931H362.993C361.832 108.995 360.949 115.487 360.949 123.36C360.949 131.234 361.842 137.735 362.993 138.789H364.77C363.609 137.725 362.726 131.234 362.726 123.36C362.726 115.487 363.619 108.985 364.77 107.931Z" fill="#CCCCCC"/>
</g>
<path d="M364.929 107.931C363.619 107.931 362.547 114.841 362.547 123.36C362.547 131.88 363.609 138.789 364.929 138.789C366.249 138.789 367.311 131.88 367.311 123.36C367.311 114.841 366.249 107.931 364.929 107.931ZM364.929 138.153C364.174 137.347 363.142 131.87 363.142 123.36C363.142 114.85 364.174 109.373 364.929 108.568C365.683 109.373 366.715 114.841 366.715 123.36C366.715 131.88 365.683 137.347 364.929 138.153Z" fill="#808080"/>
<path d="M363.142 123.36C363.142 125.428 363.202 127.307 363.311 128.997C363.629 125.09 364.859 121.66 366.636 119.244C366.378 113.111 365.564 109.234 364.939 108.568C364.184 109.373 363.152 114.85 363.152 123.36H363.142Z" fill="#F2F2F2"/>
<g style="mix-blend-mode:multiply">
<path d="M361.346 132.019H351.888C352.186 133.957 352.593 135.846 353.109 137.655C353.109 137.685 353.119 137.715 353.129 137.745C353.208 137.894 353.287 138.043 353.367 138.182H362.587C362.071 137.099 361.634 134.892 361.336 132.009L361.346 132.019Z" fill="#E6E6E6"/>
</g>
<g style="mix-blend-mode:screen">
<path d="M352.97 112.057C352.791 112.713 352.632 113.389 352.474 114.055H361.416C361.604 112.435 361.832 111.073 362.09 110.029H353.565C353.347 110.695 353.149 111.371 352.96 112.057H352.97Z" fill="#333333"/>
</g>
<path d="M357.167 133.768V133.739H357.118C357.138 133.739 357.157 133.758 357.167 133.768Z" fill="#E6E6E6"/>
<path d="M351.521 151.732C350.102 151.295 350.171 146.911 351.69 141.92C353 137.616 354.965 134.275 356.394 133.739H346.102C343.512 133.739 341.08 134.077 338.907 134.673C333.478 136.144 329.737 139.226 329.737 142.785C329.737 145.718 332.268 148.312 336.178 149.963C338.401 151.155 340.892 151.831 343.482 151.831H351.858L351.888 151.742C351.759 151.762 351.64 151.762 351.521 151.722V151.732Z" fill="#B3B3B3"/>
<g style="mix-blend-mode:multiply">
<path d="M338.53 149.963C338.927 150.181 339.344 150.37 339.761 150.549H349.109C348.871 149.396 348.941 147.626 349.298 145.559H332.893C333.935 147.328 335.92 148.849 338.53 149.953V149.963Z" fill="#E6E6E6"/>
</g>
<path d="M340.773 134.812C338.5 135.488 336.545 136.443 335.066 137.606H351.789C352.315 136.482 352.871 135.528 353.407 134.812H340.773Z" fill="#F2F2F2"/>
<g style="mix-blend-mode:multiply">
<path d="M332.089 142.785C332.089 139.216 335.83 136.144 341.259 134.673C343.433 134.086 345.874 133.739 348.454 133.739H346.092C343.502 133.739 341.071 134.077 338.897 134.673C333.469 136.144 329.727 139.226 329.727 142.785C329.727 145.718 332.258 148.312 336.168 149.963C338.391 151.155 340.882 151.831 343.472 151.831H345.834C343.244 151.831 340.743 151.165 338.53 149.963C334.62 148.312 332.089 145.708 332.089 142.785Z" fill="#CCCCCC"/>
</g>
<path d="M356.85 143.501C355.332 148.481 352.95 152.17 351.521 151.732C350.102 151.295 350.171 146.911 351.69 141.92C353.208 136.93 355.59 133.251 357.019 133.689C358.438 134.126 358.369 138.51 356.85 143.501Z" fill="#E6E6E6"/>
<g style="mix-blend-mode:multiply">
<path d="M356.85 143.501C355.332 148.481 352.95 152.17 351.521 151.732C350.102 151.295 350.171 146.911 351.69 141.92C353.208 136.93 355.59 133.251 357.019 133.689C358.438 134.126 358.369 138.51 356.85 143.501Z" fill="#E6E6E6"/>
</g>
<path d="M350.171 141.9C348.752 146.682 348.593 150.927 349.735 151.832H351.858L351.888 151.742C351.759 151.762 351.64 151.762 351.521 151.722C350.102 151.285 350.171 146.901 351.69 141.91C353 137.606 354.965 134.266 356.394 133.729H354.439C353.069 134.723 351.362 137.894 350.171 141.89V141.9Z" fill="#666666"/>
<path d="M357.019 133.689C355.6 133.251 353.208 136.94 351.69 141.92C350.171 146.901 350.092 151.295 351.521 151.732C352.94 152.169 355.332 148.481 356.85 143.501C358.369 138.52 358.448 134.126 357.019 133.689ZM356.364 143.352C354.816 148.441 352.652 151.255 351.759 151.255H351.67C351.412 151.165 350.975 150.499 351.015 148.541C351.045 146.732 351.461 144.435 352.186 142.069C353.734 136.989 355.888 134.176 356.87 134.176C357.724 134.434 357.952 138.142 356.364 143.352Z" fill="#808080"/>
<path d="M357.287 139.425C357.773 136.363 357.495 134.365 356.87 134.176C355.878 134.176 353.734 136.989 352.186 142.069C351.709 143.64 351.382 145.161 351.193 146.553C352.712 143.063 354.975 140.469 357.297 139.425H357.287Z" fill="#F2F2F2"/>
<path d="M298.733 0H302.246C303.487 0 304.519 1.09353 304.608 2.49523L305.71 19.3157C305.809 20.8864 304.728 22.2185 303.348 22.2185H297.632C296.252 22.2185 295.17 20.8864 295.27 19.3157L296.371 2.49523C296.461 1.08359 297.493 0 298.733 0Z" fill="#CCCCCC"/>
<g style="mix-blend-mode:multiply">
<path d="M296.381 2.49526C296.461 1.24268 297.284 0.24856 298.336 0.0397949C298.207 0.377795 298.128 0.755559 298.108 1.16315L297.006 20.5882C296.977 21.1548 297.066 21.6917 297.245 22.1688C296.064 21.9402 295.19 20.7274 295.28 19.3157L296.381 2.49526Z" fill="#E6E6E6"/>
</g>
<path d="M308.38 25.5489L292.044 23.7396V21.2742C292.044 20.1607 292.947 19.2561 294.059 19.2561H306.365C307.477 19.2561 308.38 20.1607 308.38 21.2742V25.5489Z" fill="#CCCCCC"/>
<g style="mix-blend-mode:multiply">
<path d="M308.201 20.439C307.883 19.7332 307.179 19.2461 306.365 19.2461H294.059C293.235 19.2461 292.54 19.7332 292.223 20.439H308.201Z" fill="#CCCCCC"/>
</g>
<path d="M304.033 19.2461H305.71L304.608 2.49522C304.559 1.68999 304.192 1.00405 303.666 0.546753C303.11 3.0221 302.792 5.97463 302.792 9.15581C302.792 12.9931 303.259 16.5023 304.043 19.2362L304.033 19.2461Z" fill="#E6E6E6"/>
</g>
<defs>
<clipPath id="clip0_35_251">
<rect width="412" height="267" fill="white"/>
</clipPath>
</defs>
</svg>
