<svg width="334" height="34" viewBox="0 0 334 34" fill="none" xmlns="http://www.w3.org/2000/svg">
<path d="M12.8917 18.39H12.7897C12.6764 20.6567 11.3277 22.5153 8.7437 23.966L7.8937 22.368C9.88837 21.212 10.8857 19.784 10.8857 18.084C10.8857 16.8373 10.4777 15.806 9.6617 14.99C8.8457 14.174 7.81437 13.766 6.5677 13.766C5.32104 13.766 4.27837 14.174 3.4397 14.99C2.60104 15.806 2.1817 16.8373 2.1817 18.084C2.1817 19.8067 3.2357 21.2347 5.3437 22.368L4.4257 24L3.6097 23.558C1.41104 22.3567 0.311703 20.532 0.311703 18.084C0.311703 16.2253 0.889703 14.7293 2.0457 13.596C3.2017 12.4627 4.70904 11.896 6.5677 11.896C8.83437 11.896 10.6137 12.8593 11.9057 14.786C13.175 12.8593 14.943 11.896 17.2097 11.896C19.0457 11.896 20.5417 12.474 21.6977 13.63C22.8764 14.7633 23.4657 16.248 23.4657 18.084C23.4657 19.8973 22.8764 21.3933 21.6977 22.572C20.519 23.728 19.023 24.306 17.2097 24.306C16.6657 24.306 16.1217 24.238 15.5777 24.102C15.623 23.694 15.7364 23.0707 15.9177 22.232C16.5524 22.3453 16.983 22.402 17.2097 22.402C18.479 22.402 19.5217 22.0053 20.3377 21.212C21.1764 20.396 21.5957 19.3533 21.5957 18.084C21.5957 16.86 21.165 15.84 20.3037 15.024C19.465 14.1853 18.4337 13.766 17.2097 13.766C15.9404 13.766 14.8977 14.174 14.0817 14.99C13.2884 15.7833 12.8917 16.8147 12.8917 18.084V18.39ZM17.5048 33.282C16.2128 33.282 15.1135 32.8287 14.2068 31.922C13.3001 31.0153 12.8468 29.916 12.8468 28.624C12.8468 27.3093 13.3001 26.1987 14.2068 25.292C15.0908 24.3853 16.1901 23.932 17.5048 23.932C18.8195 23.932 19.9301 24.3853 20.8368 25.292C21.7435 26.1987 22.1968 27.3093 22.1968 28.624C22.1968 29.1907 22.1061 29.7347 21.9248 30.256L24.7468 31.038V11.59H26.6508V32.092C26.6508 32.772 26.2881 33.112 25.5628 33.112C25.3815 33.112 25.2001 33.0893 25.0188 33.044L20.8028 31.922C19.8961 32.8287 18.7968 33.282 17.5048 33.282ZM17.5048 25.7C16.6661 25.7 15.9861 25.972 15.4648 26.516C14.9208 27.0827 14.6488 27.7853 14.6488 28.624C14.6488 29.44 14.9208 30.12 15.4648 30.664C16.0088 31.208 16.6888 31.48 17.5048 31.48C18.3435 31.48 19.0461 31.208 19.6128 30.664C20.1568 30.1427 20.4288 29.4627 20.4288 28.624C20.4288 27.7853 20.1568 27.0827 19.6128 26.516C19.0461 25.972 18.3435 25.7 17.5048 25.7ZM35.1091 24H33.4431C31.6524 24 30.4964 23.9207 29.9751 23.762C28.7964 23.3993 28.1618 22.6513 28.0711 21.518C27.8898 19.2287 29.1024 18.084 31.7091 18.084C33.7944 18.084 34.9504 18.9567 35.1771 20.702V22.164C37.1718 22.164 38.2484 21.824 38.4071 21.144C38.5658 20.3733 37.7951 19.5573 36.0951 18.696C35.5964 18.4467 34.3951 17.8687 32.4911 16.962C31.1084 16.3047 30.4171 15.3867 30.4171 14.208C30.4171 12.4627 31.6524 11.59 34.1231 11.59C34.8711 11.59 35.5398 11.7033 36.1291 11.93C37.2398 12.3607 37.7951 12.984 37.7951 13.8C37.7951 13.9813 37.6931 14.174 37.4891 14.378H35.6191C35.7551 14.1967 35.8231 14.0493 35.8231 13.936C35.8231 13.868 35.8004 13.7773 35.7551 13.664C35.5511 13.596 35.0071 13.528 34.1231 13.46C32.9218 13.3693 32.3211 13.6413 32.3211 14.276C32.3211 14.6387 33.0351 15.1487 34.4631 15.806L36.2651 16.622C39.0304 17.8687 40.4131 19.3193 40.4131 20.974C40.4131 22.9913 38.6451 24 35.1091 24ZM33.0011 20.362C32.7064 20.0673 32.2644 19.92 31.6751 19.92C31.2218 19.92 30.8138 20.0673 30.4511 20.362C30.0884 20.634 29.9298 20.9853 29.9751 21.416C30.0204 21.96 31.1424 22.2093 33.3411 22.164C33.3184 21.1667 33.2051 20.566 33.0011 20.362ZM37.0556 6.864C37.0103 6.88667 36.9649 6.898 36.9196 6.898C36.8743 6.898 36.8516 6.87533 36.8516 6.83C36.7836 6.10467 36.5116 5.51533 36.0356 5.062C35.5369 4.60867 34.9249 4.382 34.1996 4.382C33.3836 4.382 32.7263 4.64267 32.2276 5.164C31.7063 5.66267 31.4456 6.32 31.4456 7.136C31.4456 7.90667 31.7063 8.55267 32.2276 9.074C32.7263 9.57267 33.3609 9.822 34.1316 9.822C34.2903 9.822 34.5396 9.79933 34.8796 9.754V11.726C34.6076 11.7487 34.3809 11.76 34.1996 11.76C32.9076 11.76 31.8196 11.318 30.9356 10.434C30.0516 9.52733 29.6096 8.428 29.6096 7.136C29.6096 5.844 30.0629 4.756 30.9696 3.872C31.8536 2.988 32.9416 2.546 34.2336 2.546C35.4123 2.546 36.3983 2.89733 37.1916 3.6C37.9849 4.28 38.4949 5.20933 38.7216 6.388C38.2003 6.592 37.6449 6.75067 37.0556 6.864ZM34.1996 33.18C33.6103 33.18 33.3156 32.8173 33.3156 32.092V23.898H35.1176V31.31H36.9876V33.18H34.1996ZM48.0716 24C46.2356 24 44.7283 23.422 43.5496 22.266C42.3936 21.11 41.8156 19.614 41.8156 17.778C41.8156 15.2167 43.0169 13.3467 45.4196 12.168L46.6096 13.596C44.6603 14.7973 43.6856 16.1913 43.6856 17.778C43.6856 19.0473 44.0936 20.09 44.9096 20.906C45.7483 21.722 46.8023 22.13 48.0716 22.13C49.2956 22.13 50.3156 21.7107 51.1316 20.872C51.9703 20.0333 52.3896 19.002 52.3896 17.778C52.3896 16.214 51.4149 14.8313 49.4656 13.63L50.7576 12.236L51.3016 12.508C53.2509 13.4827 54.2256 15.2393 54.2256 17.778C54.2256 19.5913 53.6476 21.0873 52.4916 22.266C51.3583 23.422 49.8849 24 48.0716 24ZM50.8681 6.864C50.8228 6.88667 50.7774 6.898 50.7321 6.898C50.6868 6.898 50.6641 6.87533 50.6641 6.83C50.5961 6.10467 50.3241 5.51533 49.8481 5.062C49.3494 4.60867 48.7374 4.382 48.0121 4.382C47.1961 4.382 46.5388 4.64267 46.0401 5.164C45.5188 5.66267 45.2581 6.32 45.2581 7.136C45.2581 7.90667 45.5188 8.55267 46.0401 9.074C46.5388 9.57267 47.1734 9.822 47.9441 9.822C48.1028 9.822 48.3521 9.79933 48.6921 9.754V11.726C48.4201 11.7487 48.1934 11.76 48.0121 11.76C46.7201 11.76 45.6321 11.318 44.7481 10.434C43.8641 9.52733 43.4221 8.428 43.4221 7.136C43.4221 5.844 43.8754 4.756 44.7821 3.872C45.6661 2.988 46.7541 2.546 48.0461 2.546C49.2248 2.546 50.2108 2.89733 51.0041 3.6C51.7974 4.28 52.3074 5.20933 52.5341 6.388C52.0128 6.592 51.4574 6.75067 50.8681 6.864ZM72.5261 23.966C71.6874 23.966 70.7921 23.762 69.8401 23.354L70.5541 21.654C71.4154 21.926 72.0728 22.062 72.5261 22.062C73.7954 22.062 74.8381 21.6653 75.6541 20.872C76.4928 20.056 76.9121 19.0133 76.9121 17.744C76.9121 16.52 76.4814 15.5 75.6201 14.684C74.7814 13.8453 73.7501 13.426 72.5261 13.426C71.2568 13.426 70.2141 13.834 69.3981 14.65C68.6048 15.4433 68.2081 16.4747 68.2081 17.744V17.948L68.1741 18.016C68.0834 19.8293 67.4601 21.28 66.3041 22.368C65.1708 23.4333 63.6974 23.966 61.8841 23.966C60.0708 23.966 58.5748 23.388 57.3961 22.232C56.2174 21.0533 55.6281 19.5573 55.6281 17.744C55.6281 15.8853 56.2061 14.3893 57.3621 13.256C58.5181 12.1227 60.0254 11.556 61.8841 11.556C64.1508 11.556 65.9301 12.5193 67.2221 14.446C68.4914 12.5193 70.2594 11.556 72.5261 11.556C74.3621 11.556 75.8581 12.134 77.0141 13.29C78.1928 14.4233 78.7821 15.908 78.7821 17.744C78.7821 19.5573 78.1928 21.0533 77.0141 22.232C75.8354 23.388 74.3394 23.966 72.5261 23.966ZM61.8841 13.426C60.6374 13.426 59.5948 13.834 58.7561 14.65C57.9174 15.466 57.4981 16.4973 57.4981 17.744C57.4981 18.9907 57.9174 20.022 58.7561 20.838C59.5948 21.654 60.6374 22.062 61.8841 22.062C63.1308 22.062 64.1621 21.654 64.9781 20.838C65.7941 20.022 66.2021 18.9907 66.2021 17.744C66.2021 16.4973 65.7941 15.466 64.9781 14.65C64.1621 13.834 63.1308 13.426 61.8841 13.426ZM72.5492 11.76C71.2572 11.76 70.1692 11.318 69.2852 10.434C68.4012 9.52733 67.9592 8.428 67.9592 7.136C67.9592 5.844 68.4126 4.756 69.3192 3.872C70.2032 2.988 71.2912 2.546 72.5832 2.546C73.8752 2.546 74.9519 2.988 75.8132 3.872C76.6746 4.756 77.1052 5.844 77.1052 7.136C77.1052 8.38267 76.6632 9.47067 75.7792 10.4C74.8726 11.3067 73.7959 11.76 72.5492 11.76ZM72.5492 4.382C71.7332 4.382 71.0759 4.64267 70.5772 5.164C70.0559 5.66267 69.7952 6.32 69.7952 7.136C69.7952 7.90667 70.0559 8.55267 70.5772 9.074C71.0759 9.57267 71.7106 9.822 72.4812 9.822C73.2746 9.822 73.9319 9.57267 74.4532 9.074C74.9519 8.57533 75.2012 7.92933 75.2012 7.136C75.2012 6.34267 74.9632 5.68533 74.4872 5.164C73.9886 4.64267 73.3426 4.382 72.5492 4.382ZM72.5492 33.18C71.9599 33.18 71.6652 32.8173 71.6652 32.092V23.898H73.4672V31.31H75.3372V33.18H72.5492ZM76.4592 30.052C75.8019 30.052 75.2466 29.814 74.7932 29.338C74.3399 28.8847 74.1132 28.3293 74.1132 27.672C74.1132 26.992 74.3399 26.4253 74.7932 25.972C75.2239 25.5187 75.7792 25.292 76.4592 25.292C77.1392 25.292 77.7172 25.5187 78.1932 25.972C78.6466 26.4253 78.8732 26.992 78.8732 27.672C78.8732 28.352 78.6466 28.9187 78.1932 29.372C77.7172 29.8253 77.1392 30.052 76.4592 30.052ZM76.4592 26.924C75.9832 26.924 75.7452 27.1733 75.7452 27.672C75.7452 28.1707 75.9832 28.42 76.4592 28.42C76.9806 28.42 77.2412 28.1707 77.2412 27.672C77.2412 27.1733 76.9806 26.924 76.4592 26.924ZM97.6752 6.966C97.4486 5.24333 96.5192 4.382 94.8872 4.382C94.0486 4.382 93.3799 4.64267 92.8812 5.164C92.3826 5.66267 92.1332 6.33133 92.1332 7.17C92.1332 8.50733 92.7792 9.38 94.0712 9.788C95.0232 9.788 95.9072 10.026 96.7232 10.502C97.5392 10.9553 98.1059 11.6013 98.4232 12.44C98.6272 12.984 98.7292 13.8793 98.7292 15.126V24H96.8592V15.126C96.8592 14.1967 96.8139 13.5847 96.7232 13.29C96.5872 12.6327 95.9752 12.1453 94.8872 11.828H94.5132L94.5472 11.93L94.2072 11.794C93.0512 11.59 92.1106 11.0687 91.3852 10.23C90.6599 9.36867 90.2972 8.34867 90.2972 7.17C90.2972 5.85533 90.7392 4.756 91.6232 3.872C92.5072 2.988 93.6066 2.546 94.9212 2.546C96.1226 2.546 97.1312 2.89733 97.9472 3.6C98.7632 4.30267 99.2846 5.25467 99.5112 6.456L97.6752 6.966ZM93.5952 24V14.888C93.5499 14.6613 93.3119 14.548 92.8812 14.548C92.7679 14.5707 92.4959 14.6953 92.0652 14.922C92.2012 15.1487 92.3146 15.33 92.4052 15.466L92.2692 15.568C92.2692 16.2027 91.9519 16.7013 91.3172 17.064C90.7732 17.3813 90.1612 17.54 89.4812 17.54C88.7106 17.54 87.9399 17.3473 87.1692 16.962C85.8999 16.3273 85.1292 15.228 84.8572 13.664C83.0439 14.412 82.1372 15.7607 82.1372 17.71C82.1372 19.6593 83.0326 21.008 84.8232 21.756C85.0952 20.9173 85.3332 20.328 85.5372 19.988C86.4212 18.56 87.7699 17.846 89.5832 17.846C91.3739 17.846 92.2692 18.5033 92.2692 19.818C92.2692 20.158 91.9746 20.7473 91.3852 21.586C90.2519 23.1727 88.6199 23.966 86.4892 23.966C84.6759 23.966 83.1799 23.3767 82.0012 22.198C80.8226 21.0193 80.2332 19.5233 80.2332 17.71C80.2332 15.8967 80.8226 14.4007 82.0012 13.222C83.1799 12.0433 84.6759 11.454 86.4892 11.454C88.1892 11.454 89.6626 12.1227 90.9092 13.46C91.6119 12.916 92.2579 12.644 92.8472 12.644C94.3432 12.644 95.2272 13.3353 95.4992 14.718V24H93.5952ZM86.4892 13.392H86.2852V13.46C86.2852 14.5707 86.9086 15.296 88.1552 15.636C88.3139 15.7267 88.5746 15.772 88.9372 15.772C89.6399 15.772 90.0366 15.6587 90.1272 15.432C89.1072 14.072 87.8946 13.392 86.4892 13.392ZM90.3312 19.818C90.3312 19.6367 89.9912 19.546 89.3112 19.546C88.8352 19.546 88.2799 19.6707 87.6452 19.92C86.7839 20.532 86.3306 21.246 86.2852 22.062H86.4892C87.8492 22.062 88.9599 21.586 89.8212 20.634C89.9572 20.4527 90.1046 20.2147 90.2632 19.92L90.3312 19.886V19.818ZM110.66 16.452C109.504 14.4347 108.088 13.426 106.41 13.426C105.164 13.426 104.132 13.834 103.316 14.65C102.5 15.466 102.092 16.4973 102.092 17.744C102.092 19.6027 102.988 20.9513 104.778 21.79C104.937 19.9993 105.719 18.7187 107.124 17.948C107.827 17.5627 108.575 17.37 109.368 17.37C110.162 17.37 110.808 17.5513 111.306 17.914C111.896 18.3447 112.19 18.934 112.19 19.682C112.19 20.158 111.896 20.804 111.306 21.62C110.173 23.184 108.541 23.966 106.41 23.966C104.597 23.966 103.101 23.388 101.922 22.232C100.766 21.0533 100.188 19.5573 100.188 17.744C100.188 15.9307 100.766 14.446 101.922 13.29C103.101 12.134 104.597 11.556 106.41 11.556C108.836 11.556 110.785 12.8933 112.258 15.568L110.66 16.452ZM109.198 19.172C108.36 19.172 107.657 19.444 107.09 19.988C106.524 20.532 106.229 21.2233 106.206 22.062H106.41C107.748 22.062 108.847 21.5973 109.708 20.668C109.844 20.4413 110.014 20.192 110.218 19.92C110.241 19.8067 110.252 19.716 110.252 19.648C110.252 19.3307 109.901 19.172 109.198 19.172ZM120.189 24C118.353 24 116.845 23.422 115.667 22.266C114.511 21.11 113.933 19.614 113.933 17.778C113.933 15.2167 115.134 13.3467 117.537 12.168L118.727 13.596C116.777 14.7973 115.803 16.1913 115.803 17.778C115.803 18.73 116.075 19.5913 116.619 20.362C117.616 19.274 118.806 18.7073 120.189 18.662C121.549 18.6167 122.784 19.0813 123.895 20.056C124.303 19.3533 124.507 18.594 124.507 17.778C124.507 16.214 123.532 14.8313 121.583 13.63L122.875 12.236L123.419 12.508C125.368 13.4827 126.343 15.2393 126.343 17.778C126.343 19.5913 125.765 21.0873 124.609 22.266C123.475 23.422 122.002 24 120.189 24ZM120.223 20.226C119.225 20.362 118.421 20.77 117.809 21.45C118.557 21.9033 119.35 22.13 120.189 22.13C121.118 22.13 121.991 21.8127 122.807 21.178C122.104 20.6113 121.243 20.294 120.223 20.226ZM128.425 33.112C128.267 33.112 128.085 33.0893 127.881 33.044L124.651 32.364C123.699 32.16 123.212 31.6953 123.189 30.97L123.155 29.984V21.246H125.025V30.426L127.643 31.038V12.44H129.547V32.092C129.547 32.772 129.173 33.112 128.425 33.112ZM121.149 33.18H118.225V31.31H120.163V23.83H122.033V32.092C122.033 32.8173 121.739 33.18 121.149 33.18ZM134.096 23.966C133.733 23.966 133.166 23.8753 132.396 23.694V21.756C133.121 21.96 133.688 22.062 134.096 22.062C135.365 22.062 136.396 21.6653 137.19 20.872C138.006 20.056 138.414 19.0133 138.414 17.744C138.414 16.52 137.994 15.5 137.156 14.684C136.34 13.8453 135.32 13.426 134.096 13.426C132.101 13.426 130.718 14.5253 129.948 16.724C129.925 16.8373 129.823 17.1093 129.642 17.54L127.976 16.554L128.112 16.078C128.973 13.0633 130.968 11.556 134.096 11.556C135.886 11.556 137.371 12.1453 138.55 13.324C139.728 14.48 140.318 15.9533 140.318 17.744C140.318 19.58 139.74 21.076 138.584 22.232C137.428 23.388 135.932 23.966 134.096 23.966ZM136.997 6.864C136.952 6.88667 136.906 6.898 136.861 6.898C136.816 6.898 136.793 6.87533 136.793 6.83C136.725 6.10467 136.453 5.51533 135.977 5.062C135.478 4.60867 134.866 4.382 134.141 4.382C133.325 4.382 132.668 4.64267 132.169 5.164C131.648 5.66267 131.387 6.32 131.387 7.136C131.387 7.90667 131.648 8.55267 132.169 9.074C132.668 9.57267 133.302 9.822 134.073 9.822C134.232 9.822 134.481 9.79933 134.821 9.754V11.726C134.549 11.7487 134.322 11.76 134.141 11.76C132.849 11.76 131.761 11.318 130.877 10.434C129.993 9.52733 129.551 8.428 129.551 7.136C129.551 5.844 130.004 4.756 130.911 3.872C131.795 2.988 132.883 2.546 134.175 2.546C135.354 2.546 136.34 2.89733 137.133 3.6C137.926 4.28 138.436 5.20933 138.663 6.388C138.142 6.592 137.586 6.75067 136.997 6.864ZM148.013 24C146.177 24 144.67 23.422 143.491 22.266C142.335 21.11 141.757 19.614 141.757 17.778C141.757 15.2167 142.958 13.3467 145.361 12.168L146.551 13.596C144.602 14.7973 143.627 16.1913 143.627 17.778C143.627 18.73 143.899 19.5913 144.443 20.362C145.44 19.274 146.63 18.7073 148.013 18.662C149.373 18.6167 150.608 19.0813 151.719 20.056C152.127 19.3533 152.331 18.594 152.331 17.778C152.331 16.214 151.356 14.8313 149.407 13.63L150.699 12.236L151.243 12.508C153.192 13.4827 154.167 15.2393 154.167 17.778C154.167 19.5913 153.589 21.0873 152.433 22.266C151.3 23.422 149.826 24 148.013 24ZM148.047 20.226C147.05 20.362 146.245 20.77 145.633 21.45C146.381 21.9033 147.174 22.13 148.013 22.13C148.942 22.13 149.815 21.8127 150.631 21.178C149.928 20.6113 149.067 20.294 148.047 20.226ZM148.192 33.18H145.37V31.31H147.24V23.898H149.076V32.092C149.076 32.8173 148.781 33.18 148.192 33.18ZM162.744 24.068L162.812 33.146L160.908 33.18V24.068C159.253 24.0907 158.131 24.0113 157.542 23.83C156.363 23.4673 155.728 22.7307 155.638 21.62C155.434 19.2627 156.646 18.084 159.276 18.084C160.182 18.084 160.953 18.322 161.588 18.798C162.245 19.274 162.63 19.9427 162.744 20.804V22.198C164.738 22.198 165.815 21.8467 165.974 21.144C166.155 20.328 165.384 19.5233 163.662 18.73C162.914 18.39 161.712 17.8233 160.058 17.03C158.675 16.3727 157.984 15.432 157.984 14.208C157.984 12.4627 159.219 11.59 161.69 11.59C162.392 11.59 163.061 11.7033 163.696 11.93C164.806 12.338 165.362 12.984 165.362 13.868C165.362 14.0267 165.26 14.1967 165.056 14.378H163.186C163.322 14.1967 163.39 14.0607 163.39 13.97C163.39 13.902 163.367 13.8227 163.322 13.732C163.14 13.6187 162.596 13.528 161.69 13.46C160.488 13.3467 159.888 13.6187 159.888 14.276C159.888 14.7747 160.432 15.2507 161.52 15.704C162.404 16.0667 163.174 16.3953 163.832 16.69C166.597 17.914 167.98 19.3533 167.98 21.008C167.98 23.0027 166.234 24.0227 162.744 24.068ZM160.568 20.396C160.273 20.124 159.831 19.988 159.242 19.988C158.788 19.988 158.38 20.124 158.018 20.396C157.655 20.668 157.496 21.0193 157.542 21.45C157.587 22.0167 158.709 22.266 160.908 22.198C160.885 21.2007 160.772 20.6 160.568 20.396ZM164.622 6.864C164.577 6.88667 164.531 6.898 164.486 6.898C164.441 6.898 164.418 6.87533 164.418 6.83C164.35 6.10467 164.078 5.51533 163.602 5.062C163.103 4.60867 162.491 4.382 161.766 4.382C160.95 4.382 160.293 4.64267 159.794 5.164C159.273 5.66267 159.012 6.32 159.012 7.136C159.012 7.90667 159.273 8.55267 159.794 9.074C160.293 9.57267 160.927 9.822 161.698 9.822C161.857 9.822 162.106 9.79933 162.446 9.754V11.726C162.174 11.7487 161.947 11.76 161.766 11.76C160.474 11.76 159.386 11.318 158.502 10.434C157.618 9.52733 157.176 8.428 157.176 7.136C157.176 5.844 157.629 4.756 158.536 3.872C159.42 2.988 160.508 2.546 161.8 2.546C162.979 2.546 163.965 2.89733 164.758 3.6C165.551 4.28 166.061 5.20933 166.288 6.388C165.767 6.592 165.211 6.75067 164.622 6.864ZM171.762 16.996C171.059 16.996 170.481 16.7693 170.028 16.316C169.597 15.8627 169.382 15.2847 169.382 14.582C169.382 13.902 169.609 13.3353 170.062 12.882C170.515 12.406 171.082 12.168 171.762 12.168C172.442 12.168 173.009 12.406 173.462 12.882C173.915 13.3353 174.142 13.902 174.142 14.582C174.142 15.2847 173.915 15.8627 173.462 16.316C173.031 16.7693 172.465 16.996 171.762 16.996ZM171.762 23.558C171.059 23.558 170.481 23.3313 170.028 22.878C169.597 22.4247 169.382 21.8467 169.382 21.144C169.382 20.464 169.609 19.8973 170.062 19.444C170.515 18.968 171.082 18.73 171.762 18.73C172.465 18.73 173.031 18.9567 173.462 19.41C173.915 19.8633 174.142 20.4413 174.142 21.144C174.142 21.8467 173.915 22.4247 173.462 22.878C173.031 23.3313 172.465 23.558 171.762 23.558ZM171.762 13.8C171.286 13.8 171.048 14.0607 171.048 14.582C171.048 15.058 171.286 15.296 171.762 15.296C172.283 15.296 172.544 15.058 172.544 14.582C172.544 14.0607 172.283 13.8 171.762 13.8ZM171.762 20.396C171.286 20.396 171.048 20.6453 171.048 21.144C171.048 21.6653 171.286 21.926 171.762 21.926C172.283 21.926 172.544 21.6653 172.544 21.144C172.544 20.6453 172.283 20.396 171.762 20.396ZM181.781 23.966C179.651 23.966 178.019 23.184 176.885 21.62C176.319 20.8267 176.035 20.1807 176.035 19.682C176.035 18.9567 176.33 18.3787 176.919 17.948C177.441 17.5627 178.075 17.37 178.823 17.37C180.501 17.37 181.781 18.0953 182.665 19.546C183.096 20.2487 183.357 20.9967 183.447 21.79C185.238 20.9513 186.133 19.6027 186.133 17.744C186.133 16.4973 185.714 15.466 184.875 14.65C184.059 13.834 183.028 13.426 181.781 13.426C180.127 13.426 178.721 14.4347 177.565 16.452L175.899 15.568C177.418 12.8933 179.379 11.556 181.781 11.556C183.595 11.556 185.091 12.134 186.269 13.29C187.448 14.446 188.037 15.9307 188.037 17.744C188.037 19.5573 187.448 21.0533 186.269 22.232C185.091 23.388 183.595 23.966 181.781 23.966ZM178.993 19.172C178.291 19.172 177.939 19.3307 177.939 19.648C177.939 19.716 177.962 19.8067 178.007 19.92C178.211 20.192 178.381 20.4413 178.517 20.668C179.356 21.5973 180.444 22.062 181.781 22.062H182.019C181.997 21.2007 181.702 20.5093 181.135 19.988C180.569 19.444 179.855 19.172 178.993 19.172ZM190.018 33.112C189.882 33.112 189.712 33.0893 189.508 33.044L186.312 32.364C185.337 32.16 184.839 31.6953 184.816 30.97L184.782 29.984V21.246H186.652V30.426L189.236 31.038V11.59H191.106V32.092C191.106 32.772 190.743 33.112 190.018 33.112ZM205.038 18.39H204.936C204.823 20.6567 203.474 22.5153 200.89 23.966L200.04 22.368C202.035 21.212 203.032 19.784 203.032 18.084C203.032 16.8373 202.624 15.806 201.808 14.99C200.992 14.174 199.961 13.766 198.714 13.766C197.468 13.766 196.425 14.174 195.586 14.99C194.748 15.806 194.328 16.8373 194.328 18.084C194.328 19.8067 195.382 21.2347 197.49 22.368L196.572 24L195.756 23.558C193.558 22.3567 192.458 20.532 192.458 18.084C192.458 16.2253 193.036 14.7293 194.192 13.596C195.348 12.4627 196.856 11.896 198.714 11.896C200.981 11.896 202.76 12.8593 204.052 14.786C205.322 12.8593 207.09 11.896 209.356 11.896C211.192 11.896 212.688 12.474 213.844 13.63C215.023 14.7633 215.612 16.248 215.612 18.084C215.612 19.8973 215.023 21.3933 213.844 22.572C212.666 23.728 211.17 24.306 209.356 24.306C208.812 24.306 208.268 24.238 207.724 24.102C207.77 23.694 207.883 23.0707 208.064 22.232C208.699 22.3453 209.13 22.402 209.356 22.402C210.626 22.402 211.668 22.0053 212.484 21.212C213.323 20.396 213.742 19.3533 213.742 18.084C213.742 16.86 213.312 15.84 212.45 15.024C211.612 14.1853 210.58 13.766 209.356 13.766C208.087 13.766 207.044 14.174 206.228 14.99C205.435 15.7833 205.038 16.8147 205.038 18.084V18.39ZM212.517 7.872C212.475 7.89333 212.432 7.904 212.389 7.904C212.347 7.904 212.325 7.88267 212.325 7.84C212.261 7.15733 212.005 6.60267 211.557 6.176C211.088 5.74933 210.512 5.536 209.829 5.536C209.061 5.536 208.443 5.78133 207.973 6.272C207.483 6.74133 207.237 7.36 207.237 8.128C207.237 8.85333 207.483 9.46133 207.973 9.952C208.443 10.4213 209.04 10.656 209.765 10.656C209.915 10.656 210.149 10.6347 210.469 10.592V12.448C210.213 12.4693 210 12.48 209.829 12.48C208.613 12.48 207.589 12.064 206.757 11.232C205.925 10.3787 205.509 9.344 205.509 8.128C205.509 6.912 205.936 5.888 206.789 5.056C207.621 4.224 208.645 3.808 209.861 3.808C210.971 3.808 211.899 4.13867 212.645 4.8C213.392 5.44 213.872 6.31467 214.085 7.424C213.595 7.616 213.072 7.76533 212.517 7.872ZM227.342 30.25C226.488 29.3542 225.675 28.1771 224.904 26.7188C224.133 25.2812 223.498 23.6667 222.998 21.875C222.519 20.0833 222.279 18.2396 222.279 16.3438C222.279 14.9896 222.415 13.6354 222.686 12.2812C222.977 10.9271 223.363 9.625 223.842 8.375C224.321 7.125 224.863 5.98958 225.467 4.96875C226.071 3.94792 226.696 3.10417 227.342 2.4375H230.186C229.561 3.14583 228.956 4.04167 228.373 5.125C227.811 6.20833 227.311 7.39583 226.873 8.6875C226.436 9.97917 226.092 11.2917 225.842 12.625C225.592 13.9375 225.467 15.1771 225.467 16.3438C225.467 17.5938 225.592 18.8854 225.842 20.2188C226.092 21.5521 226.436 22.8438 226.873 24.0938C227.311 25.3646 227.811 26.5312 228.373 27.5938C228.956 28.6562 229.561 29.5417 230.186 30.25H227.342ZM241.529 24L231.748 3.0625H235.123L242.186 19.25L249.342 3.0625H252.717L242.936 24H241.529ZM258.186 5.125C257.581 5.125 257.071 4.90625 256.654 4.46875C256.258 4.03125 256.061 3.54167 256.061 3C256.061 2.4375 256.258 1.94792 256.654 1.53125C257.071 1.09375 257.581 0.875 258.186 0.875C258.581 0.875 258.936 0.979167 259.248 1.1875C259.581 1.375 259.842 1.63542 260.029 1.96875C260.217 2.28125 260.311 2.625 260.311 3C260.311 3.35417 260.217 3.69792 260.029 4.03125C259.842 4.36458 259.581 4.63542 259.248 4.84375C258.936 5.03125 258.581 5.125 258.186 5.125ZM257.217 24V8.375H259.779V24H257.217ZM254.748 10.7812V8.375H259.779V10.7812H254.748ZM269.029 24.4688C268.425 24.4688 267.79 24.3854 267.123 24.2188C266.477 24.0729 265.894 23.8958 265.373 23.6875C264.852 23.4583 264.467 23.2604 264.217 23.0938V20.3438C264.508 20.5521 264.915 20.7917 265.436 21.0625C265.977 21.3125 266.55 21.5312 267.154 21.7188C267.758 21.8854 268.321 21.9688 268.842 21.9688C269.821 21.9688 270.592 21.75 271.154 21.3125C271.738 20.875 272.029 20.3333 272.029 19.6875C272.029 19.1875 271.831 18.7917 271.436 18.5C271.061 18.2083 270.508 17.9271 269.779 17.6562L267.467 16.8125C266.258 16.3542 265.456 15.7812 265.061 15.0938C264.665 14.3854 264.467 13.5833 264.467 12.6875C264.467 11.7917 264.686 11 265.123 10.3125C265.581 9.625 266.227 9.08333 267.061 8.6875C267.894 8.27083 268.863 8.0625 269.967 8.0625C270.883 8.0625 271.738 8.19792 272.529 8.46875C273.321 8.71875 273.894 8.97917 274.248 9.25V12C273.811 11.6667 273.217 11.3438 272.467 11.0312C271.717 10.7188 270.946 10.5625 270.154 10.5625C269.175 10.5625 268.436 10.7917 267.936 11.25C267.456 11.7083 267.217 12.1875 267.217 12.6875C267.217 13.0833 267.352 13.4896 267.623 13.9062C267.915 14.3021 268.415 14.625 269.123 14.875L271.748 15.8125C272.769 16.1667 273.529 16.6771 274.029 17.3438C274.529 18.0104 274.779 18.7917 274.779 19.6875C274.779 20.5625 274.529 21.3646 274.029 22.0938C273.55 22.8229 272.873 23.4062 271.998 23.8438C271.144 24.2604 270.154 24.4688 269.029 24.4688ZM281.186 5.125C280.581 5.125 280.071 4.90625 279.654 4.46875C279.258 4.03125 279.061 3.54167 279.061 3C279.061 2.4375 279.258 1.94792 279.654 1.53125C280.071 1.09375 280.581 0.875 281.186 0.875C281.581 0.875 281.936 0.979167 282.248 1.1875C282.581 1.375 282.842 1.63542 283.029 1.96875C283.217 2.28125 283.311 2.625 283.311 3C283.311 3.35417 283.217 3.69792 283.029 4.03125C282.842 4.36458 282.581 4.63542 282.248 4.84375C281.936 5.03125 281.581 5.125 281.186 5.125ZM280.217 24V8.375H282.779V24H280.217ZM277.748 10.7812V8.375H282.779V10.7812H277.748ZM295.373 24.4688C294.186 24.4688 293.092 24.2604 292.092 23.8438C291.113 23.4062 290.248 22.8125 289.498 22.0625C288.769 21.2917 288.206 20.4167 287.811 19.4375C287.415 18.4375 287.217 17.3854 287.217 16.2812C287.217 15.1771 287.415 14.1354 287.811 13.1562C288.206 12.1562 288.769 11.2812 289.498 10.5312C290.248 9.76042 291.113 9.15625 292.092 8.71875C293.092 8.28125 294.186 8.0625 295.373 8.0625C296.561 8.0625 297.644 8.28125 298.623 8.71875C299.623 9.15625 300.488 9.76042 301.217 10.5312C301.967 11.2812 302.54 12.1562 302.936 13.1562C303.331 14.1354 303.529 15.1771 303.529 16.2812C303.529 17.3854 303.331 18.4375 302.936 19.4375C302.54 20.4167 301.967 21.2917 301.217 22.0625C300.488 22.8125 299.623 23.4062 298.623 23.8438C297.644 24.2604 296.561 24.4688 295.373 24.4688ZM295.373 21.9688C296.498 21.9688 297.467 21.7083 298.279 21.1875C299.113 20.6458 299.748 19.9479 300.186 19.0938C300.644 18.2188 300.873 17.2812 300.873 16.2812C300.873 15.2604 300.644 14.3229 300.186 13.4688C299.748 12.5938 299.113 11.8958 298.279 11.375C297.467 10.8333 296.498 10.5625 295.373 10.5625C294.269 10.5625 293.3 10.8333 292.467 11.375C291.633 11.8958 290.988 12.5938 290.529 13.4688C290.092 14.3229 289.873 15.2604 289.873 16.2812C289.873 17.2812 290.092 18.2188 290.529 19.0938C290.988 19.9479 291.633 20.6458 292.467 21.1875C293.3 21.7083 294.269 21.9688 295.373 21.9688ZM318.623 24L318.592 14.7188C318.592 13.3646 318.29 12.3333 317.686 11.625C317.102 10.9167 316.196 10.5625 314.967 10.5625C314.133 10.5625 313.3 10.875 312.467 11.5C311.654 12.1042 310.936 12.8125 310.311 13.625V10.8438C310.644 10.4271 311.071 10.0104 311.592 9.59375C312.113 9.15625 312.696 8.79167 313.342 8.5C314.008 8.20833 314.696 8.0625 315.404 8.0625C316.467 8.0625 317.436 8.30208 318.311 8.78125C319.186 9.23958 319.883 9.94792 320.404 10.9062C320.925 11.8438 321.186 13.0312 321.186 14.4688V24H318.623ZM307.748 24V8.375H310.311V24H307.748ZM328.404 30.25H325.561C326.186 29.5417 326.779 28.6562 327.342 27.5938C327.925 26.5312 328.436 25.3646 328.873 24.0938C329.311 22.8438 329.654 21.5521 329.904 20.2188C330.154 18.8854 330.279 17.5938 330.279 16.3438C330.279 15.1771 330.154 13.9375 329.904 12.625C329.654 11.2917 329.311 9.97917 328.873 8.6875C328.436 7.39583 327.925 6.20833 327.342 5.125C326.779 4.04167 326.186 3.14583 325.561 2.4375H328.404C329.05 3.10417 329.675 3.94792 330.279 4.96875C330.883 5.98958 331.425 7.125 331.904 8.375C332.383 9.625 332.758 10.9271 333.029 12.2812C333.321 13.6354 333.467 14.9896 333.467 16.3438C333.467 18.2396 333.217 20.0833 332.717 21.875C332.238 23.6667 331.613 25.2812 330.842 26.7188C330.071 28.1771 329.258 29.3542 328.404 30.25Z" fill="black"/>
</svg>
